<svg width="73" height="53" viewBox="0 0 73 53" fill="none" xmlns="http://www.w3.org/2000/svg">
<g clip-path="url(#clip0_10_2)">
<path d="M9.79037 46.8497C7.28099 46.8497 4.79063 46.8497 2.30026 46.8497C2.03411 46.8497 1.78698 46.8497 1.52083 46.8497C0.43724 46.8304 0 46.4062 0 45.3073C0 39.4848 0 33.6431 0 27.8206C0 20.7449 0 13.6885 0 6.63215C0 5.24401 0.342188 4.89697 1.72995 4.89697C16.7862 4.89697 31.8615 4.89697 46.9177 4.89697C48.3435 4.89697 48.6477 5.22473 48.6477 6.68999C48.6477 8.65652 48.6477 10.6423 48.6477 12.6089C48.6477 12.8595 48.6477 13.1294 48.6477 13.4572C48.9898 13.4765 49.256 13.4957 49.5411 13.4957C53.0961 13.4957 56.6701 13.515 60.225 13.4765C61.0995 13.4765 61.6698 13.7657 62.1641 14.5176C65.6049 19.993 69.0839 25.4492 72.5247 30.9439C72.7909 31.3873 72.962 31.9657 72.962 32.4863C73 36.7085 72.981 40.9115 72.981 45.1338C72.981 46.4255 72.5818 46.8304 71.3271 46.8304C69.4831 46.8304 67.6201 46.8304 65.776 46.8497C65.738 46.8497 65.681 46.869 65.662 46.8882C65.4148 47.5438 65.2247 48.2185 64.9396 48.8355C63.5898 51.6889 60.7193 53.2506 57.4875 52.9228C54.674 52.6336 52.1076 50.4164 51.3661 47.5245C51.2141 46.9654 51.0049 46.8304 50.4536 46.8304C41.956 46.8497 33.4393 46.8497 24.9417 46.8304C24.3904 46.8304 24.1813 46.9654 24.0482 47.5438C23.2307 50.7635 20.2841 53.0192 16.9953 52.9999C13.6875 52.9806 10.8169 50.7442 9.96146 47.5052C9.92344 47.2931 9.86641 47.081 9.79037 46.8497ZM46.1763 39.4463C46.1763 30.3462 46.1763 21.3426 46.1763 12.2618C32.3747 12.2618 18.6492 12.2618 4.90469 12.2618C4.90469 11.4135 4.90469 10.6616 4.90469 9.81331C18.6872 9.81331 32.4318 9.81331 46.1763 9.81331C46.1763 8.965 46.1763 8.21309 46.1763 7.40334C31.5953 7.40334 17.0333 7.40334 2.45234 7.40334C2.45234 18.0843 2.45234 28.7267 2.45234 39.4463C4.46745 39.4463 6.44453 39.4463 8.45964 39.4463C8.45964 40.3139 8.45964 41.085 8.45964 41.9526C6.42552 41.9526 4.44844 41.9526 2.47135 41.9526C2.47135 42.8009 2.47135 43.5528 2.47135 44.3433C4.9237 44.3433 7.33802 44.3433 9.79037 44.3433C10.7219 40.7187 12.9461 38.4052 16.7102 38.2509C20.8164 38.0967 23.2497 40.4488 24.3143 44.3433C31.6143 44.3433 38.8763 44.3433 46.1763 44.3433C46.1763 43.5143 46.1763 42.7431 46.1763 41.8948C39.2945 41.8948 32.4698 41.8948 25.626 41.8948C25.626 41.0465 25.626 40.2753 25.626 39.4463C32.4698 39.4463 39.2945 39.4463 46.1763 39.4463ZM70.5667 39.4463C70.5667 37.2484 70.5667 35.1469 70.5667 33.0454C70.5667 32.0621 70.5286 32.0236 69.5781 32.0236C63.9701 32.0236 58.362 32.0236 52.7539 32.0236C51.4612 32.0236 51.1 31.638 51.1 30.3462C51.1 26.953 51.1 23.5598 51.1 20.1472C51.1 18.8555 51.4802 18.4699 52.7539 18.4506C55.4534 18.4506 58.1719 18.4506 60.8714 18.4506C61.1185 18.4506 61.3466 18.4313 61.7078 18.4121C61.2516 17.6987 60.8714 17.1203 60.5292 16.5227C60.301 16.1178 60.0349 15.9635 59.5596 15.9635C56.1948 15.9828 52.8109 15.9828 49.4461 15.9828C49.218 15.9828 48.9898 16.0214 48.7807 16.0214C48.7807 25.507 48.7807 34.9155 48.7807 44.3626C49.3891 44.3626 49.9404 44.324 50.4727 44.3819C51.024 44.4204 51.2141 44.2469 51.3852 43.6878C52.2026 40.7958 54.0846 38.945 56.9932 38.3666C59.9589 37.7689 62.4492 38.7715 64.2552 41.2393C64.9206 42.1454 65.2818 43.2637 65.8141 44.3433C67.2779 44.3433 68.8938 44.3433 70.5286 44.3433C70.5286 43.5336 70.5286 42.7431 70.5286 41.8755C69.312 41.8755 68.1333 41.8755 66.9547 41.8755C66.9547 41.0272 66.9547 40.2753 66.9547 39.4463C68.1524 39.4463 69.312 39.4463 70.5667 39.4463ZM53.5714 29.5172C58.6281 29.5172 63.6279 29.5172 68.6656 29.5172C68.6086 29.3822 68.5896 29.2858 68.5326 29.2087C66.8596 26.5674 65.2057 23.9454 63.5138 21.3233C63.3807 21.1112 62.9815 20.957 62.6964 20.957C60.225 20.9377 57.7536 20.9377 55.2823 20.9377C54.712 20.9377 54.1607 20.9377 53.5523 20.9377C53.5714 23.8104 53.5714 26.6252 53.5714 29.5172ZM58.4 50.5321C61.0805 50.5321 63.2667 48.3342 63.2667 45.6351C63.2857 42.9552 61.0805 40.6994 58.419 40.6802C55.7195 40.6609 53.5143 42.9166 53.5143 45.6351C53.5523 48.3342 55.7195 50.5128 58.4 50.5321ZM17.0333 50.5321C19.7138 50.5321 21.881 48.3535 21.919 45.6351C21.938 42.9166 19.7138 40.6609 17.0143 40.6609C14.3529 40.6802 12.1667 42.9166 12.1667 45.6158C12.1667 48.3149 14.3529 50.5128 17.0333 50.5321Z" fill="#2D5883"/>
<path d="M4.88574 2.42925C4.88574 1.56167 4.88574 0.809756 4.88574 0.0192871C10.5508 0.0192871 16.1779 0.0192871 21.9001 0.0192871C21.9001 0.694078 21.9191 1.36887 21.8811 2.02438C21.862 2.15934 21.6149 2.39069 21.4438 2.40997C21.0256 2.46781 20.5883 2.42925 20.1701 2.42925C15.3795 2.42925 10.5699 2.42925 5.77923 2.42925C5.49408 2.42925 5.22793 2.42925 4.88574 2.42925Z" fill="#2D5883"/>
<path d="M0.0380859 2.37141C0.0380859 1.58094 0.0380859 0.809749 0.0380859 0C0.836523 0 1.59694 0 2.39538 0C2.39538 0.790469 2.39538 1.54238 2.39538 2.37141C1.63496 2.37141 0.874544 2.37141 0.0380859 2.37141Z" fill="#2D5883"/>
<path d="M57.2212 46.7918C57.2212 45.9628 57.2212 45.2109 57.2212 44.4204C58.0006 44.4204 58.761 44.4204 59.5595 44.4204C59.5595 45.1916 59.5595 45.9821 59.5595 46.7918C58.7991 46.7918 58.0386 46.7918 57.2212 46.7918Z" fill="#2D5883"/>
<path d="M18.2118 44.4397C18.2118 45.2494 18.2118 46.0014 18.2118 46.8111C17.4324 46.8111 16.691 46.8111 15.8735 46.8111C15.8735 46.0399 15.8735 45.2687 15.8735 44.4397C16.634 44.4397 17.3944 44.4397 18.2118 44.4397Z" fill="#2D5883"/>
</g>
<defs>
<clipPath id="clip0_10_2">
<rect width="73" height="53" fill="white"/>
</clipPath>
</defs>
</svg>
