<svg width="67" height="67" viewBox="0 0 67 67" fill="none" xmlns="http://www.w3.org/2000/svg">
<g clip-path="url(#clip0_9_2670)">
<path d="M0.759277 62.5477L1.6278 64.5026L32.7937 51.5798L38.2233 52.2315L40.1777 58.204L37.5716 60.7019C36.5944 61.5704 36.2689 62.9819 36.8118 64.2852L37.8977 67L55.9235 59.9416L54.9463 57.3355C54.512 56.0322 53.3174 55.2724 51.9059 55.2724H48.3221L46.3676 50.6026L51.1456 48.2139C52.6657 47.4536 53.3174 45.716 52.7744 44.1958L46.585 27.5816C45.9334 25.844 44.0871 25.0837 42.3495 25.6266C42.3495 25.6266 42.2414 25.6266 42.2414 25.7353L37.6803 27.6897L37.0287 26.0609L39.5266 23.1292C41.2636 21.1743 42.3495 18.7856 42.6756 16.1795L45.8247 12.3788C47.8878 9.98957 47.4536 6.40626 45.0643 4.3426C44.6301 4.01704 44.1958 3.69148 43.7616 3.47408C42.5669 2.93113 41.3723 2.82243 40.0696 3.14852L39.7435 2.17078C39.2005 0.433739 37.2461 -0.435309 35.6172 0.216345L12.7043 8.46939C10.9668 9.12105 10.0982 10.9668 10.7499 12.5957V12.7043L11.2928 14.1158C8.46937 15.4191 7.16606 18.6769 8.14328 21.5004C8.90363 23.6722 10.8581 25.1924 13.1386 25.5179L18.2426 26.0609C20.3057 27.5816 22.8031 28.5588 25.301 28.7757L28.8843 29.1017L29.536 30.7306C28.7756 31.1649 28.2327 31.9252 28.0158 32.9024L27.2555 36.5944L0.759277 47.3449L1.51963 49.408L16.7224 43.3273L20.4144 54.4033L0.759277 62.5477ZM52.7744 57.9871L52.9918 58.6383L39.0918 64.1765L38.7662 63.5249C38.6576 63.0906 38.7662 62.6564 38.9836 62.3308L42.6756 58.8557L47.3449 57.3355H51.6885C52.2315 57.3355 52.5576 57.5524 52.7744 57.9871ZM45.9334 55.3805L42.024 56.6838L40.6125 52.5576C41.2636 52.6657 41.8066 52.5576 42.3495 52.2315L44.1958 51.363L45.9334 55.3805ZM43.0012 27.3642C43.5442 27.1468 44.1958 27.3642 44.4132 27.9071L45.2817 30.1877L39.9609 31.9252L40.6125 33.9884L45.9334 32.2508L47.2362 35.7259L42.1327 37.463L42.7843 39.5266L47.9965 37.7891L49.2998 41.2637L44.3045 42.8925L44.9562 44.9562L50.0596 43.2186L50.6026 44.6301C50.82 45.1731 50.6026 45.716 50.0596 45.9334L41.481 50.1684C41.2636 50.2771 41.0468 50.2771 40.8294 50.2771L33.4454 49.408L29.4273 37.3548L30.1876 33.3367C30.2963 33.0111 30.5132 32.6851 30.8393 32.5764L43.0012 27.3642ZM42.8925 5.42852C44.6301 6.18887 45.4991 8.252 44.7388 10.0983C44.6301 10.4238 44.4132 10.6412 44.1958 10.9668L42.8925 12.5957C42.7843 11.5097 42.5669 10.5325 42.2414 9.44661L40.8294 5.21165C41.5897 5.10295 42.2414 5.21165 42.8925 5.42852ZM10.3151 20.9574C9.66398 19.1111 10.4238 17.1567 12.1614 16.2877L13.6815 19.9802C14.2245 21.283 14.9848 22.5863 15.8534 23.6722L13.5728 23.4548C12.0527 23.3461 10.7499 22.3689 10.3151 20.9574ZM25.7353 26.7125C21.2829 26.2783 17.3735 23.4548 15.7447 19.2198L12.9217 12.0527C12.7043 11.5097 12.9217 10.8581 13.4647 10.6412L36.377 2.38817C36.7031 2.27947 36.92 2.27947 37.2461 2.38817C37.4629 2.49687 37.6803 2.71373 37.789 3.03983L40.1777 10.207C41.481 14.2245 40.6125 18.5682 37.8977 21.7172L34.5313 25.6266L35.5085 28.2327L31.5991 29.8616L30.5132 27.1468L25.7353 26.7125ZM18.7855 42.4583L21.2829 41.4811L23.9977 49.7341L26.0608 49.0824L23.2379 40.6125L27.5816 38.875L31.2736 49.8428L22.4775 53.5348L18.7855 42.4583Z" fill="#2C5883"/>
<path d="M54.4032 19.0024V20.0883H56.575V19.0024C56.575 15.962 58.9642 13.5728 62.0046 13.5728V11.401C58.9642 11.401 56.575 9.01229 56.575 5.97141V4.8855H54.4032V5.97141C54.4032 9.01229 52.0145 11.401 48.9736 11.401V13.5728C52.0145 13.5728 54.4032 15.962 54.4032 19.0024ZM55.4891 9.88081C56.1408 10.9667 57.0093 11.8358 58.0952 12.4869C57.0093 13.1385 56.1408 14.0076 55.4891 15.0935C54.8375 14.0076 53.9689 13.1385 52.883 12.4869C53.9689 11.8358 54.8375 10.9667 55.4891 9.88081Z" fill="#2C5883"/>
<path d="M6.62293 40.7206V41.8065H8.79475V40.7206C8.79475 37.6803 11.184 35.2911 14.2243 35.2911V33.1192C11.184 33.1192 8.79475 30.7305 8.79475 27.6897V26.6038H6.62293V27.6897C6.62293 30.7305 4.23424 33.1192 1.19336 33.1192V35.2911C4.23424 35.2911 6.62293 37.6803 6.62293 40.7206ZM7.70884 31.5991C8.36049 32.685 9.22901 33.554 10.3149 34.2052C9.22901 34.8568 8.36049 35.7259 7.70884 36.8118C7.05719 35.7259 6.18867 34.8568 5.10275 34.2052C6.18867 33.554 7.05719 32.685 7.70884 31.5991Z" fill="#2C5883"/>
<path d="M60.9188 27.6897V26.6038H58.747V27.6897C58.747 30.7305 56.3583 33.1192 53.3174 33.1192V35.2911C56.3583 35.2911 58.747 37.6803 58.747 40.7206V41.8065H60.9188V40.7206C60.9188 37.6803 63.308 35.2911 66.3483 35.2911V33.1192C63.308 33.1192 60.9188 30.7305 60.9188 27.6897ZM59.8329 36.8118C59.1812 35.7259 58.3127 34.8568 57.2268 34.2052C58.3127 33.554 59.1812 32.685 59.8329 31.5991C60.4845 32.685 61.353 33.554 62.439 34.2052C61.353 34.8568 60.4845 35.7259 59.8329 36.8118Z" fill="#2C5883"/>
<path d="M33.0113 19.3285L34.5315 20.8486C40.504 14.8761 34.9658 5.75456 34.6402 5.42847L32.7939 6.62308C32.9026 6.62308 37.7893 14.5506 33.0113 19.3285Z" fill="#2C5883"/>
</g>
<defs>
<clipPath id="clip0_9_2670">
<rect width="67" height="67" fill="white"/>
</clipPath>
</defs>
</svg>
