<svg width="63" height="64" viewBox="0 0 63 64" fill="none" xmlns="http://www.w3.org/2000/svg">
<path d="M4.30489 53.2506C4.30489 51.8824 4.19989 50.4965 4.32239 49.1284C5.09239 40.4399 11.0424 33.1551 19.3374 30.7031C19.8274 30.561 19.9849 30.33 20.0724 29.868C20.5274 27.3627 22.6974 25.5859 25.1999 25.5859C27.7024 25.5859 29.8549 27.3805 30.3274 29.8858C30.4149 30.3655 30.5899 30.5787 31.0799 30.7209C39.8999 33.2794 46.0949 41.5593 46.1999 50.8874C46.2174 51.687 46.1999 52.4865 46.1999 53.1262C47.0574 53.4993 47.8799 53.7125 48.5449 54.1567C50.0499 55.134 50.6974 57.0529 50.2599 58.8297C49.8399 60.5532 48.3524 61.9391 46.6199 62.099C40.5124 62.7031 34.4049 63.3427 28.2799 63.858C24.6749 64.1778 21.0699 63.8758 17.4824 63.5026C13.2824 63.0584 9.08239 62.6498 4.89989 62.2234C3.83239 62.1168 2.76489 62.0101 1.85489 61.3172C0.402391 60.1978 -0.245109 58.7231 0.104891 56.893C0.472391 55.0096 1.62739 53.8547 3.46489 53.4105C3.58739 53.3749 3.72739 53.3572 3.84989 53.3216C3.95489 53.3216 4.04239 53.3039 4.30489 53.2506ZM34.6499 49.004C34.6499 48.7197 34.6499 48.471 34.6499 48.24C34.6499 43.8691 34.6499 39.4982 34.6324 35.1273C34.6324 34.8963 34.5624 34.5232 34.4049 34.4521C33.1449 33.8302 31.8499 33.2439 30.4499 32.6043C30.4499 33.0662 30.4499 33.2972 30.4499 33.546C30.4499 38.2367 30.4499 42.9096 30.4499 47.6004C30.4499 48.702 30.1174 49.0396 29.0499 49.0396C26.5124 49.0396 23.9749 49.0396 21.4374 49.0396C20.2649 49.0396 19.9499 48.7198 19.9499 47.5471C19.9499 42.8563 19.9499 38.1834 19.9499 33.4927C19.9499 33.2617 19.9499 33.0307 19.9499 32.6043C18.6374 33.1906 17.4649 33.7414 16.2924 34.2389C15.8724 34.4166 15.7499 34.6831 15.7499 35.1451C15.7674 39.516 15.7674 43.8869 15.7674 48.2578C15.7674 48.4888 15.7674 48.7375 15.7674 48.9685C15.0149 48.9685 14.3674 48.9685 13.6499 48.9685C13.6499 44.6509 13.6499 40.3866 13.6499 36.069C8.27739 40.0668 5.77489 46.9607 6.40489 53.2328C18.9699 53.2328 31.5174 53.2328 44.0824 53.2328C44.7124 45.486 41.1249 39.1251 36.7674 36.0868C36.7674 40.4044 36.7674 44.6687 36.7674 48.9863C36.0324 49.004 35.3849 49.004 34.6499 49.004ZM25.1999 55.436C18.4274 55.436 11.6374 55.436 4.86489 55.436C4.65489 55.436 4.42739 55.436 4.21739 55.436C3.07989 55.5249 2.16989 56.4843 2.11739 57.6215C2.06489 58.7764 2.88739 59.7892 4.00739 59.9668C4.32239 60.0201 4.65489 60.0557 4.98739 60.0912C9.18739 60.5176 13.3874 60.9263 17.5874 61.3705C21.1749 61.7436 24.7799 61.9924 28.3849 61.7259C31.5699 61.4771 34.7374 61.1751 37.9224 60.8552C40.7224 60.5887 43.5399 60.2867 46.3399 59.9668C47.3374 59.8602 48.0549 59.1317 48.2649 58.1367C48.4399 57.2483 48.0724 56.2533 47.2499 55.7914C46.8124 55.5604 46.2524 55.4183 45.7624 55.4183C38.8849 55.436 32.0424 55.436 25.1999 55.436ZM28.3324 46.8897C28.3324 41.4527 28.3324 36.0868 28.3149 30.7209C28.3149 29.9213 27.9649 29.2106 27.3874 28.6598C26.4074 27.7181 25.2524 27.4516 23.9924 27.9846C22.7149 28.5176 22.0499 29.5482 22.0324 30.9341C22.0149 36.1223 22.0324 41.3105 22.0324 46.4988C22.0324 46.6231 22.0674 46.7475 22.0849 46.8719C24.1849 46.8897 26.2324 46.8897 28.3324 46.8897Z" fill="#2D5883"/>
<path d="M57.2423 34.381C56.2273 33.3682 55.1948 32.3199 54.1448 31.2716C53.4973 30.6142 53.4973 30.3299 53.8648 29.4948C54.3023 28.5353 54.7048 27.5403 55.0548 26.5453C55.2823 25.8879 55.6673 25.5681 56.3498 25.5858C57.8373 25.6036 59.3248 25.5858 60.8473 25.5858C60.8473 23.4537 60.8473 21.3571 60.8473 19.1894C59.3948 19.1894 57.9598 19.1894 56.5248 19.1894C55.5448 19.1894 55.3348 18.9939 55.0023 18.0878C54.6523 17.1105 54.2498 16.1511 53.8123 15.2094C53.5148 14.5875 53.5673 14.09 54.0573 13.5925C55.1248 12.5442 56.1748 11.4781 57.1723 10.4654C55.6673 8.95508 54.2148 7.48034 52.6923 5.93454C51.7998 6.8407 50.8198 7.8357 49.8398 8.8307C48.9823 9.70133 48.8073 9.70133 47.7223 9.16829C46.9173 8.7774 46.0773 8.43981 45.2373 8.13776C44.2573 7.7824 44.0823 7.60472 44.0823 6.50311C44.0823 5.08168 44.0823 3.66024 44.0823 2.18551C41.9998 2.18551 39.9348 2.18551 37.7823 2.18551C37.7823 3.26935 37.7823 4.37096 37.7823 5.47257C37.7823 7.889 37.9748 7.67579 35.7873 8.42204C35.1048 8.65303 34.4573 9.00838 33.8273 9.32821C33.2323 9.63026 32.7423 9.55919 32.2873 9.07945C31.2373 7.97784 30.1698 6.894 29.1373 5.82793C27.6323 7.37374 26.1623 8.86624 24.6748 10.3943C25.6548 11.3893 26.6873 12.4198 27.7023 13.4681C28.4023 14.1788 28.4023 14.4454 27.9823 15.3515C27.5798 16.2399 27.2123 17.1283 26.8798 18.0522C26.5473 19.0117 26.3373 19.1894 25.3048 19.1894C23.8873 19.1894 22.4698 19.1894 20.9998 19.1894C20.9998 21.3215 20.9998 23.4004 20.9998 25.5325C20.2823 25.5325 19.6348 25.5325 18.9173 25.5325C18.8998 25.3904 18.8823 25.2127 18.8823 25.0528C18.8823 22.8318 18.8823 20.6108 18.8823 18.3898C18.8823 17.4304 19.2498 17.075 20.1948 17.0572C21.5773 17.0572 22.9598 17.0395 24.3248 17.0572C24.7798 17.0572 25.0948 16.9862 25.1648 16.4709C25.1823 16.3288 25.2348 16.1511 25.3223 16.0445C26.0748 14.9962 25.7073 14.2677 24.7973 13.5214C23.9748 12.8285 23.2573 12.0112 22.5048 11.2294C21.8748 10.572 21.8748 10.0567 22.5223 9.39928C24.3948 7.49811 26.2673 5.59694 28.1398 3.69578C28.7698 3.05613 29.2948 3.05613 29.9423 3.71355C30.9573 4.72632 31.9548 5.73909 32.9523 6.7874C33.2148 7.07168 33.4423 7.17829 33.7923 6.94731C34.0373 6.78739 34.2998 6.69855 34.5623 6.59195C35.6473 6.14775 35.6473 6.14775 35.6473 4.92176C35.6473 3.73131 35.6473 2.5231 35.6473 1.33265C35.6473 0.408716 36.0148 0.0178223 36.9073 0.0178223C39.5673 0.0178223 42.2448 0.0178223 44.9048 0.0178223C45.7623 0.0178223 46.1298 0.408716 46.1298 1.29711C46.1298 2.75408 46.1473 4.22882 46.1298 5.68578C46.1298 6.04114 46.1998 6.27213 46.5848 6.36096C46.7598 6.3965 46.9348 6.4498 47.0748 6.55641C48.1598 7.35597 48.9123 6.94731 49.6648 6.00561C50.3123 5.18828 51.0998 4.5131 51.8348 3.78462C52.5173 3.09167 53.0248 3.09167 53.6898 3.76685C55.5623 5.66802 57.4348 7.56918 59.3073 9.47035C59.9373 10.11 59.9373 10.643 59.2898 11.3004C58.2923 12.331 57.2948 13.3615 56.2623 14.3565C55.9823 14.623 55.8948 14.854 56.1048 15.2094C56.2448 15.4581 56.3498 15.7247 56.4548 15.9912C56.9098 17.0928 56.9098 17.0928 58.0998 17.0928C59.2723 17.0928 60.4623 17.0928 61.6348 17.0928C62.5448 17.0928 62.9298 17.4659 62.9298 18.3721C62.9298 21.055 62.9298 23.738 62.9298 26.4387C62.9298 27.3804 62.5448 27.7535 61.5998 27.7535C60.1823 27.7535 58.7473 27.7713 57.3298 27.7535C56.9623 27.7535 56.7873 27.8601 56.6648 28.2155C56.5073 28.713 56.3148 29.2283 56.0698 29.6902C55.8948 30.0456 55.9648 30.241 56.2273 30.4898C57.2423 31.5026 58.2398 32.5153 59.2548 33.5459C59.9198 34.2388 59.9373 34.7541 59.2723 35.4293C57.4173 37.3127 55.5623 39.1961 53.7073 41.0795C53.0248 41.7546 52.5348 41.7546 51.8523 41.0972C50.8373 40.0844 49.8223 39.0717 48.8423 38.0234C48.5623 37.7391 48.3348 37.6858 48.0023 37.8812C47.6348 38.0767 47.2498 38.2721 46.8648 38.3787C46.3223 38.5209 45.9898 38.7696 46.1823 39.4448C45.4823 39.4448 44.8173 39.4448 44.0648 39.4448C44.0648 38.8762 43.9773 38.2721 44.0998 37.7035C44.1698 37.3837 44.5023 37.0106 44.8173 36.8507C45.9023 36.3354 47.0223 35.909 48.1248 35.4293C48.6848 35.1805 49.1398 35.3049 49.5423 35.7313C50.5923 36.8329 51.6598 37.9168 52.6748 38.9651C54.2498 37.3837 55.7198 35.909 57.2423 34.381Z" fill="#2D5883"/>
<path d="M31.9023 25.2659C31.2548 25.4791 30.6423 25.6746 30.0123 25.87C28.7523 22.8317 29.2423 17.448 33.0223 13.8412C36.8373 10.1987 42.6998 9.61239 47.0923 12.4553C51.5723 15.3514 53.5673 20.9128 51.9223 25.9944C50.1373 31.4669 45.1323 34.1676 40.9848 34.061C40.9848 33.3859 40.9848 32.7107 40.9848 32C44.2398 31.84 46.8998 30.5074 48.7548 27.7534C50.2248 25.5857 50.7148 23.1693 50.2248 20.5752C49.2273 15.3337 44.2398 11.9222 39.1298 12.9528C34.0723 13.9833 30.2573 19.1893 31.9023 25.2659Z" fill="#2D5883"/>
<path d="M40.9672 17.0571C43.8372 17.0749 46.1822 19.4558 46.1822 22.3697C46.1822 25.3547 43.8022 27.7356 40.8622 27.7179C38.0097 27.7001 35.6647 25.3014 35.6822 22.3697C35.6997 19.438 38.0622 17.0571 40.9672 17.0571ZM40.9672 19.1893C39.2172 19.1893 37.7997 20.6285 37.7997 22.4053C37.7997 24.1288 39.2172 25.5857 40.9322 25.5857C42.6472 25.5857 44.0647 24.1821 44.0997 22.4408C44.1172 20.664 42.6997 19.207 40.9672 19.1893Z" fill="#2D5883"/>
<path d="M23.2224 1.35034C23.6774 1.88338 24.0974 2.39865 24.5699 2.94945C21.3324 5.81009 18.9174 9.23929 17.3949 13.2904C15.8899 17.3237 15.4349 21.4814 15.9424 25.7812C15.6099 25.8345 15.3299 25.9056 15.0499 25.9411C14.6824 25.9944 14.3149 26.0122 13.9649 26.0477C12.7049 19.1182 14.9449 8.4042 23.2224 1.35034Z" fill="#2D5883"/>
<path d="M48.615 48.9862C48.405 48.2577 48.23 47.6358 48.02 46.9429C52.01 45.7169 55.4925 43.6558 58.5025 40.7241C58.975 41.2394 59.43 41.7369 59.92 42.2877C56.7525 45.4148 53.0075 47.6536 48.615 48.9862Z" fill="#2D5883"/>
<path d="M61.1098 37.7568C61.6698 38.1655 62.1773 38.5742 62.7723 39.0184C62.3873 39.5159 62.0198 39.9956 61.5998 40.5286C61.0748 40.0667 60.5673 39.6225 60.0073 39.1427C60.3923 38.6808 60.7248 38.2366 61.1098 37.7568Z" fill="#2D5883"/>
<path d="M16.3101 27.8247C16.4501 28.4288 16.5901 28.9441 16.7301 29.5304C16.0826 29.7259 15.4526 29.9213 14.7351 30.1345C14.5776 29.5127 14.4201 28.9263 14.2451 28.2689C14.9451 28.1445 15.5926 28.0024 16.3101 27.8247Z" fill="#2D5883"/>
</svg>
