<svg width="18" height="18" viewBox="0 0 18 18" fill="none" xmlns="http://www.w3.org/2000/svg">
<path d="M10 12.5C10 13.0523 9.55229 13.5 9 13.5C8.44772 13.5 8 13.0523 8 12.5C8 11.9477 8.44772 11.5 9 11.5C9.55229 11.5 10 11.9477 10 12.5Z" fill="#2CB6BF"/>
<path d="M9 4.5C9.41421 4.5 9.75 4.83579 9.75 5.25L9.75 9.75C9.75 10.1642 9.41421 10.5 9 10.5C8.58579 10.5 8.25 10.1642 8.25 9.75L8.25 5.25C8.25 4.83579 8.58579 4.5 9 4.5Z" fill="#2CB6BF"/>
<path fill-rule="evenodd" clip-rule="evenodd" d="M9 18C13.9706 18 18 13.9706 18 9C18 4.02944 13.9706 -3.52265e-07 9 -7.86805e-07C4.02944 -1.22135e-06 1.22135e-06 4.02944 7.86805e-07 9C3.52265e-07 13.9706 4.02944 18 9 18ZM16.5 9C16.5 13.1421 13.1421 16.5 9 16.5C4.85786 16.5 1.5 13.1421 1.5 9C1.5 4.85786 4.85787 1.5 9 1.5C13.1421 1.5 16.5 4.85786 16.5 9Z" fill="#2CB6BF"/>
</svg>
