<svg width="58" height="59" viewBox="0 0 58 59" fill="none" xmlns="http://www.w3.org/2000/svg">
<g clip-path="url(#clip0_11_19)">
<path d="M53.1344 57.031C53.1344 41.8775 53.1344 26.7564 53.1344 11.6029C50.2183 10.8928 47.3344 10.1989 44.4506 9.48885C39.5528 8.31078 34.6389 7.11658 29.725 5.9708C29.2256 5.85783 28.6456 5.87397 28.1461 6.00307C20.5578 7.81051 12.9856 9.65023 5.39722 11.4738C5.22 11.5222 5.05889 11.5706 4.83333 11.6352C4.83333 15.7826 4.83333 19.93 4.83333 24.1097C4.17278 24.1097 3.57667 24.1097 2.91611 24.1097C2.91611 20.1237 2.91611 16.1538 2.91611 12.087C2.35222 12.2161 1.86889 12.3291 1.38556 12.4421C0.499445 12.6519 0.0161111 12.2646 0 11.3286C0 10.1828 0 9.03699 0 7.87506C0 7.14886 0.225556 6.87452 0.950556 6.697C8.92556 4.76046 16.9006 2.84005 24.8756 0.903508C25.955 0.645303 27.0344 0.419373 28.0978 0.112753C28.7261 -0.0647631 29.3061 -0.0486253 29.9344 0.112753C38.8761 2.29136 47.8178 4.45384 56.7756 6.61631C57.855 6.87452 58 7.06817 58 8.19782C58 9.24678 58 10.2957 58 11.3447C58 12.2807 57.5006 12.6519 56.5983 12.4582C56.1633 12.3614 55.7283 12.2646 55.3094 12.1677C55.2772 12.1516 55.2289 12.1677 55.1483 12.1677C55.1483 27.1275 55.1483 42.0712 55.1483 57.0633C56.0828 57.0633 57.0011 57.0633 57.9678 57.0633C57.9678 57.7249 57.9678 58.3381 57.9678 58.9837C51.5556 58.9837 45.1433 58.9837 38.715 58.9837C38.715 58.3704 38.715 57.7733 38.715 57.1117C40.9383 57.1117 43.1617 57.1117 45.4172 57.1117C45.4172 49.9949 45.4172 42.9426 45.4172 35.8258C37.41 35.8258 29.3867 35.8258 21.3311 35.8258C21.3311 35.148 21.3311 34.5348 21.3311 33.8731C29.3383 33.8731 37.3456 33.8731 45.4011 33.8731C45.4011 33.2115 45.4011 32.6144 45.4011 31.9205C37.3939 31.9205 29.3706 31.9205 21.315 31.9205C21.315 31.2588 21.315 30.6617 21.315 30.0001C29.3383 30.0001 37.3456 30.0001 45.4172 30.0001C45.4172 29.3223 45.4172 28.709 45.4172 28.0474C37.3939 28.0474 29.3867 28.0474 21.3311 28.0474C21.3311 27.3857 21.3311 26.7725 21.3311 26.127C29.3383 26.127 37.3456 26.127 45.4011 26.127C45.4011 25.4653 45.4011 24.8682 45.4011 24.1582C45.1917 24.1582 44.95 24.1582 44.7244 24.1582C33.8494 24.1582 22.9744 24.1582 12.0994 24.1582C10.9072 24.1582 10.6494 23.9 10.6494 22.7058C10.6494 21.6407 10.6494 20.5594 10.6494 19.4943C10.6494 18.7036 11.0039 18.3485 11.8094 18.3485C23.2806 18.3485 34.7678 18.3485 46.2389 18.3485C47.0767 18.3485 47.3828 18.7197 47.3828 19.688C47.3828 31.4525 47.3828 43.2008 47.3828 54.9653C47.3828 55.6431 47.3828 56.3209 47.3828 57.0471C49.3 57.031 51.185 57.031 53.1344 57.031ZM56.0344 8.45603C55.8572 8.40761 55.68 8.34306 55.5028 8.31078C46.8511 6.21286 38.1994 4.11494 29.5317 2.03316C29.1933 1.95247 28.8067 1.95247 28.4683 2.03316C21.6856 3.66308 14.8867 5.30914 8.08778 6.9552C6.04167 7.45548 3.99556 7.95575 1.96556 8.43989C1.96556 9.0854 1.96556 9.6825 1.96556 10.2957C2.20722 10.2473 2.40056 10.2151 2.59389 10.1666C11.2456 8.08486 19.8811 5.98693 28.5167 3.92129C28.8228 3.85674 29.1611 3.8406 29.4511 3.92129C36.2661 5.55121 43.0972 7.19727 49.9122 8.84333C51.9422 9.32747 53.9722 9.82774 56.0344 10.328C56.0344 9.66636 56.0344 9.06926 56.0344 8.45603ZM45.4011 20.3173C34.4294 20.3173 23.5222 20.3173 12.615 20.3173C12.615 20.979 12.615 21.5761 12.615 22.1893C23.5706 22.1893 34.4778 22.1893 45.4011 22.1893C45.4011 21.5438 45.4011 20.9467 45.4011 20.3173Z" fill="#2D5883"/>
<path d="M19.3333 41.5712C19.6556 41.5712 19.8972 41.5712 20.1228 41.5712C25.1978 41.5712 30.2728 41.5712 35.3478 41.5712C36.4433 41.5712 36.7333 41.8617 36.7333 42.9752C36.7333 47.8488 36.7333 52.7386 36.7333 57.6122C36.7333 58.7096 36.4433 59.0001 35.3317 59.0001C24.0217 59.0001 12.6956 59.0001 1.38556 59.0001C0.273889 59.0001 0 58.7257 0 57.6122C0 47.5745 0 37.5206 0 27.4829C0 26.3693 0.273889 26.095 1.38556 26.0789C6.92778 26.0789 12.4539 26.0789 17.9961 26.0789C19.0272 26.0789 19.3333 26.3855 19.3333 27.4022C19.3333 31.8723 19.3333 36.3587 19.3333 40.8289C19.3333 41.0548 19.3333 41.2807 19.3333 41.5712ZM13.5333 28.0477C13.5333 29.6292 13.5333 31.1623 13.5333 32.6792C13.5333 33.47 13.1789 33.825 12.3894 33.825C10.585 33.825 8.76444 33.825 6.96 33.825C6.17056 33.825 5.81611 33.47 5.81611 32.6792C5.81611 31.3237 5.81611 29.9842 5.81611 28.6286C5.81611 28.435 5.81611 28.2413 5.81611 28.0638C4.47889 28.0638 3.23833 28.0638 1.98167 28.0638C1.98167 32.5824 1.98167 37.0687 1.98167 41.5389C7.13722 41.5389 12.2606 41.5389 17.3839 41.5389C17.3839 37.0203 17.3839 32.5501 17.3839 28.0638C16.095 28.0477 14.8544 28.0477 13.5333 28.0477ZM1.96556 57.0151C7.13722 57.0151 12.2444 57.0151 17.3678 57.0151C17.3678 52.4965 17.3678 48.0263 17.3678 43.54C16.0789 43.54 14.8222 43.54 13.5333 43.54C13.5333 45.1054 13.5333 46.6385 13.5333 48.1554C13.5333 48.9139 13.1789 49.3012 12.4539 49.3012C10.6011 49.3174 8.74833 49.3174 6.89556 49.3012C6.18667 49.3012 5.81611 48.9301 5.81611 48.22C5.8 46.8483 5.81611 45.4766 5.81611 44.1048C5.81611 43.9112 5.81611 43.7175 5.81611 43.5239C4.495 43.5239 3.25444 43.5239 1.98167 43.5239C1.96556 48.0425 1.96556 52.5127 1.96556 57.0151ZM34.7517 57.0313C34.7517 52.4965 34.7517 48.0263 34.7517 43.54C33.4628 43.54 32.2222 43.54 30.9333 43.54C30.9333 45.057 30.9333 46.5417 30.9333 48.0263C30.9333 49.0108 30.6111 49.3174 29.6283 49.3174C28.1461 49.3174 26.6478 49.3174 25.1656 49.3174C23.2806 49.3174 23.2161 49.2528 23.2161 47.3324C23.2161 46.0737 23.2161 44.7988 23.2161 43.54C21.895 43.54 20.6383 43.54 19.3817 43.54C19.3817 48.0586 19.3817 52.5288 19.3817 57.0151C24.505 57.0313 29.6122 57.0313 34.7517 57.0313ZM11.5678 28.0477C10.2789 28.0477 9.03833 28.0477 7.76556 28.0477C7.76556 29.3387 7.76556 30.5975 7.76556 31.8401C9.05445 31.8401 10.3111 31.8401 11.5678 31.8401C11.5678 30.549 11.5678 29.3226 11.5678 28.0477ZM11.5678 47.3486C11.5678 46.0414 11.5678 44.7826 11.5678 43.5562C10.2628 43.5562 9.02222 43.5562 7.78167 43.5562C7.78167 44.8472 7.78167 46.0898 7.78167 47.3486C9.03833 47.3486 10.2789 47.3486 11.5678 47.3486ZM25.1817 43.54C25.1817 44.8472 25.1817 46.1059 25.1817 47.3324C26.4706 47.3324 27.7272 47.3324 28.9678 47.3324C28.9678 46.0414 28.9678 44.7988 28.9678 43.54C27.695 43.54 26.4544 43.54 25.1817 43.54Z" fill="#2D5883"/>
<path d="M28.9676 15.4277C28.3232 15.4277 27.6787 15.4438 27.0343 15.4277C25.4232 15.3954 24.1665 14.1044 24.1665 12.5228C24.1665 10.9413 25.4393 9.65031 27.0343 9.63417C28.3393 9.61804 29.6443 9.61804 30.9654 9.63417C32.5765 9.66645 33.8332 10.9575 33.8332 12.539C33.8332 14.1205 32.5765 15.3954 30.9654 15.4277C30.2887 15.4438 29.6282 15.4277 28.9676 15.4277ZM28.9837 13.4911C29.6121 13.4911 30.2243 13.5073 30.8526 13.4911C31.4809 13.475 31.8837 13.0877 31.8998 12.539C31.9159 11.9742 31.4971 11.5707 30.8365 11.5546C29.6121 11.5384 28.3876 11.5384 27.1471 11.5546C26.5187 11.5546 26.1159 11.958 26.0998 12.5067C26.0837 13.0715 26.5026 13.475 27.1632 13.4911C27.7754 13.5073 28.3876 13.4911 28.9837 13.4911Z" fill="#2D5883"/>
<path d="M15.4343 39.6022C14.806 39.6022 14.226 39.6022 13.5815 39.6022C13.5815 38.989 13.5815 38.3757 13.5815 37.7302C14.1777 37.7302 14.7899 37.7302 15.4343 37.7302C15.4343 38.3435 15.4343 38.9406 15.4343 39.6022Z" fill="#2D5883"/>
<path d="M15.4343 53.2388C15.4343 53.8843 15.4343 54.4814 15.4343 55.0946C14.806 55.0946 14.226 55.0946 13.5815 55.0946C13.5815 54.4975 13.5815 53.8843 13.5815 53.2388C14.1777 53.2388 14.7899 53.2388 15.4343 53.2388Z" fill="#2D5883"/>
<path d="M30.9653 53.2227C31.5937 53.2227 32.1898 53.2227 32.8342 53.2227C32.8342 53.8359 32.8342 54.4491 32.8342 55.0946C32.222 55.0946 31.6098 55.0946 30.9653 55.0946C30.9653 54.4814 30.9653 53.8843 30.9653 53.2227Z" fill="#2D5883"/>
</g>
<defs>
<clipPath id="clip0_11_19">
<rect width="58" height="59" fill="white"/>
</clipPath>
</defs>
</svg>
