<svg width="551" height="324" viewBox="0 0 551 324" fill="none" xmlns="http://www.w3.org/2000/svg">
<g clip-path="url(#clip0_50_587)">
<path d="M303.111 234.044C286.265 236.8 287.152 269.689 276.601 277.333C276.512 277.422 276.424 277.422 276.424 277.511C274.916 278.578 273.409 279.733 272.079 280.889C251.421 294.933 230.939 276.622 224.999 272.445C224.556 272.089 224.112 269.511 223.669 269.156C223.403 268.978 223.314 268.889 223.314 268.889C197.425 249.867 138.198 229.956 98.5651 234.667C30.4717 242.756 21.1621 324 21.1621 324H243.086H261.173C356.5 318.5 448.431 210.305 303.111 234.044Z" fill="#E0EEEF"/>
<path d="M6.56108 221.244H2.12792C0.975296 221.244 0 220.267 0 219.111V214.933C0 213.778 0.975296 212.8 2.12792 212.8H6.56108C7.7137 212.8 8.689 213.778 8.689 214.933V219.111C8.689 220.267 7.7137 221.244 6.56108 221.244Z" fill="#E0EEEF"/>
<path d="M89.8155 152.622H39.0115C36.1743 152.622 33.869 150.311 33.869 147.467V102.844C33.869 99.9999 36.1743 97.6888 39.0115 97.6888H89.8155C92.6527 97.6888 94.958 99.9999 94.958 102.844V147.467C95.0466 150.311 92.6527 152.622 89.8155 152.622Z" fill="white"/>
<path d="M64.4579 146.044L80.1513 160.889C80.9493 161.6 82.1905 161.067 82.1905 160V141.511L64.4579 146.044Z" fill="white"/>
<path d="M44.4876 107.788C50.0968 102.165 50.0968 93.0473 44.4876 87.4238C38.8784 81.8003 29.784 81.8003 24.1748 87.4238C18.5656 93.0473 18.5656 102.165 24.1748 107.788C29.784 113.412 38.8784 113.412 44.4876 107.788Z" fill="#2CB6BF"/>
<path d="M27.9286 98.3112L33.337 102.222L39.7208 94.1334" stroke="white" stroke-width="2.7928" stroke-miterlimit="10" stroke-linecap="round" stroke-linejoin="round"/>
<path d="M77.226 121.689L75.098 121.333C74.8321 120.444 74.4774 119.555 74.0341 118.667L75.2754 116.889C75.7187 116.267 75.63 115.378 75.098 114.755L73.8568 113.511C73.3248 112.978 72.4381 112.889 71.7288 113.333L69.9556 114.578C69.1576 114.133 68.271 113.689 67.2957 113.511L66.941 111.289C66.7637 110.489 66.1431 109.955 65.3451 109.955H63.4832C62.6852 109.955 61.9759 110.489 61.8872 111.289L61.5326 113.422C60.6459 113.689 59.7593 114.044 58.8727 114.489L57.0994 113.333C56.4788 112.889 55.5921 112.978 54.9715 113.511L53.7302 114.755C53.1982 115.289 53.1096 116.178 53.5529 116.889L54.7942 118.667C54.3508 119.467 53.9075 120.355 53.7302 121.333L51.6023 121.689C50.8043 121.867 50.2723 122.489 50.2723 123.289V125.067C50.2723 125.867 50.8043 126.578 51.6023 126.667L53.7302 127.022C53.9962 127.911 54.3508 128.8 54.7942 129.689L53.5529 131.467C53.1096 132.089 53.1982 132.978 53.7302 133.6L54.9715 134.844C55.5035 135.378 56.3901 135.467 57.0994 135.022L58.8727 133.778C59.6706 134.222 60.5573 134.667 61.5326 134.844L61.8872 136.978C62.0646 137.778 62.6852 138.311 63.4832 138.311H65.3451C66.1431 138.311 66.8524 137.778 66.941 136.978L67.2957 134.844C68.1823 134.578 69.0689 134.222 69.9556 133.778L71.6402 135.022C72.2608 135.467 73.1474 135.378 73.7681 134.844L75.0094 133.6C75.5414 133.067 75.63 132.178 75.1867 131.467L73.9454 129.689C74.3887 128.889 74.8321 128 75.0094 127.022L77.1373 126.667C77.9353 126.489 78.4672 125.867 78.4672 125.067V123.289C78.5559 122.489 78.0239 121.778 77.226 121.689ZM64.4585 129.067C61.7986 129.067 59.582 126.844 59.582 124.178C59.582 121.511 61.7986 119.289 64.4585 119.289C67.1183 119.289 69.3349 121.511 69.3349 124.178C69.2463 126.844 67.1183 129.067 64.4585 129.067Z" fill="#2D5883"/>
<path d="M170.322 314.044C170.322 319.556 174.756 324 180.253 324H377.706C383.203 324 387.636 319.556 387.636 314.044V135.378H170.322V314.044Z" fill="#2D5883"/>
<path d="M377.795 78.7556H180.342C174.844 78.7556 170.411 83.2 170.411 88.7111V135.378H387.814V88.7111C387.725 83.2 383.292 78.7556 377.795 78.7556Z" fill="#2D5883"/>
<path d="M154.718 314.044C154.718 319.556 159.151 324 164.648 324H362.101C367.598 324 372.031 319.556 372.031 314.044V135.378H154.718V314.044Z" fill="white"/>
<path d="M362.101 78.6667H164.648C159.151 78.6667 154.718 83.1111 154.718 88.6222V135.289H372.12V88.7111C372.12 83.2 367.598 78.6667 362.101 78.6667Z" fill="#2CB6BF"/>
<path d="M215.098 119.822C221.414 119.822 226.535 114.688 226.535 108.355C226.535 102.023 221.414 96.8888 215.098 96.8888C208.781 96.8888 203.66 102.023 203.66 108.355C203.66 114.688 208.781 119.822 215.098 119.822Z" fill="#2D5883"/>
<path d="M212.703 102.222C209.423 102.222 206.763 99.5556 206.763 96.2667V71.3778C206.763 68.5333 208.714 65.8667 211.551 65.3333C215.363 64.6222 218.644 67.4667 218.644 71.2V78.7556H228.751V71.7333C228.751 63.2 222.368 55.7333 213.856 55.1111C204.546 54.4889 196.744 61.9556 196.744 71.1111V95.7333C196.744 104.089 202.95 111.467 211.285 112.267C212.171 112.356 213.058 112.356 213.945 112.267C220.328 111.822 219.796 102.222 213.413 102.222H212.703Z" fill="white"/>
<path d="M306.331 119.822C312.648 119.822 317.769 114.688 317.769 108.355C317.769 102.023 312.648 96.8888 306.331 96.8888C300.014 96.8888 294.893 102.023 294.893 108.355C294.893 114.688 300.014 119.822 306.331 119.822Z" fill="#2D5883"/>
<path d="M303.849 102.222C300.568 102.222 297.908 99.5556 297.908 96.2667V71.3778C297.908 68.5333 299.859 65.8667 302.696 65.3333C306.509 64.6222 309.789 67.4667 309.789 71.2V78.7556H319.897V71.7333C319.897 63.2 313.513 55.7333 305.002 55.1111C295.692 54.4889 287.89 61.9556 287.89 71.1111V95.7333C287.89 104.089 294.096 111.467 302.43 112.267C303.317 112.356 304.204 112.356 305.09 112.267C311.474 111.822 310.942 102.222 304.558 102.222H303.849Z" fill="white"/>
<path d="M219.885 162.4H187.346V195.022H219.885V162.4Z" fill="#1C7DAF"/>
<path d="M219.885 210.4H187.346V243.022H219.885V210.4Z" fill="#1C7DAF"/>
<path d="M219.885 258.311H187.346V290.933H219.885V258.311Z" fill="#1C7DAF"/>
<path d="M275.034 162.4H242.494V195.022H275.034V162.4Z" fill="#2CB6BF"/>
<path d="M275.034 210.4H242.494V243.022H275.034V210.4Z" fill="#1C7DAF"/>
<path d="M275.034 258.311H242.494V290.933H275.034V258.311Z" fill="#1C7DAF"/>
<path d="M330.271 162.4H297.731V195.022H330.271V162.4Z" fill="#2CB6BF"/>
<path d="M330.271 210.4H297.731V243.022H330.271V210.4Z" fill="#2CB6BF"/>
<path d="M330.271 258.311H297.731V290.933H330.271V258.311Z" fill="#1C7DAF"/>
<path d="M145.407 168.089H123.419V182.578H145.407V168.089Z" fill="#2CB6BF"/>
<path d="M154.628 163.022H114.109V171.822H154.628V163.022Z" fill="#2D5883"/>
<path d="M185.898 302.596C214.464 273.958 214.464 227.526 185.898 198.888C157.333 170.25 111.019 170.25 82.4537 198.888C53.8882 227.526 53.8882 273.958 82.4537 302.596C111.019 331.234 157.333 331.234 185.898 302.596Z" fill="#2D5883"/>
<path d="M192.66 264.364C200.172 231.993 180.086 199.645 147.797 192.114C115.508 184.583 83.2432 204.72 75.7312 237.091C68.2192 269.462 88.3049 301.81 120.594 309.341C152.883 316.872 185.148 296.735 192.66 264.364Z" fill="white"/>
<path d="M100.189 218.311C99.8347 218.311 99.3914 218.133 99.1254 217.867L96.6429 215.378C96.0222 214.756 96.0222 213.867 96.6429 213.244C97.2635 212.622 98.1501 212.622 98.7708 213.244L101.253 215.733C101.874 216.356 101.874 217.244 101.253 217.867C100.987 218.133 100.633 218.311 100.189 218.311Z" fill="#E0EEEF"/>
<path d="M171.209 289.422C170.854 289.422 170.411 289.244 170.145 288.978L167.662 286.489C167.042 285.867 167.042 284.978 167.662 284.356C168.283 283.733 169.17 283.733 169.79 284.356L172.273 286.844C172.894 287.467 172.894 288.356 172.273 288.978C171.918 289.244 171.564 289.422 171.209 289.422Z" fill="#E0EEEF"/>
<path d="M97.7068 289.422C97.3522 289.422 96.9088 289.244 96.6429 288.978C96.0222 288.356 96.0222 287.467 96.6429 286.844L99.1254 284.356C99.7461 283.733 100.633 283.733 101.253 284.356C101.874 284.978 101.874 285.867 101.253 286.489L98.7708 288.978C98.5048 289.244 98.1501 289.422 97.7068 289.422Z" fill="#E0EEEF"/>
<path d="M168.637 218.311C168.283 218.311 167.839 218.133 167.573 217.867C166.953 217.244 166.953 216.356 167.573 215.733L170.056 213.244C170.677 212.622 171.563 212.622 172.184 213.244C172.805 213.867 172.805 214.756 172.184 215.378L169.701 217.867C169.435 218.133 169.081 218.311 168.637 218.311Z" fill="#E0EEEF"/>
<path d="M134.414 203.822C136.324 203.822 137.872 202.27 137.872 200.356C137.872 198.441 136.324 196.889 134.414 196.889C132.504 196.889 130.956 198.441 130.956 200.356C130.956 202.27 132.504 203.822 134.414 203.822Z" fill="#2D5883"/>
<path d="M134.414 304.622C136.324 304.622 137.872 303.07 137.872 301.156C137.872 299.241 136.324 297.689 134.414 297.689C132.504 297.689 130.956 299.241 130.956 301.156C130.956 303.07 132.504 304.622 134.414 304.622Z" fill="#2D5883"/>
<path d="M84.1413 247.289C86.0919 247.289 87.5992 248.8 87.5992 250.756C87.5992 252.711 86.0919 254.222 84.1413 254.222C82.1907 254.222 80.6835 252.711 80.6835 250.756C80.6835 248.8 82.1907 247.289 84.1413 247.289Z" fill="#2D5883"/>
<path d="M184.685 247.289C186.636 247.289 188.143 248.8 188.143 250.756C188.143 252.711 186.636 254.222 184.685 254.222C182.735 254.222 181.228 252.711 181.228 250.756C181.228 248.8 182.735 247.289 184.685 247.289Z" fill="#2D5883"/>
<path d="M155.87 219.467L131.222 248.444C130.424 249.244 129.98 250.311 130.069 251.467C130.246 253.6 132.108 255.2 134.236 255.022C135.832 254.933 137.162 253.778 137.605 252.356L156.668 220.089C157.111 219.556 156.313 219.022 155.87 219.467Z" fill="#2CB6BF"/>
</g>
<defs>
<clipPath id="clip0_50_587">
<rect width="551" height="324" fill="white"/>
</clipPath>
</defs>
</svg>
