<svg width="145" height="146" viewBox="0 0 145 146" fill="none" xmlns="http://www.w3.org/2000/svg">
<path d="M125.335 124.608C99.4208 152.005 59.6127 143.902 53.7306 142.599C46.3178 140.958 28.6816 137.055 15.5198 121.639C-4.62993 98.0425 -2.59755 61.1581 12.9653 36.295C17.4908 29.0587 32.7311 7.55988 61.3482 2.88266C63.0222 2.61084 92.9038 -1.77918 116.944 18.4272C120.185 21.1505 125.417 26.0841 130.004 33.2692C144.225 55.568 150.957 97.5194 125.335 124.608Z" fill="#1C7DAF"/>
<path d="M7.59119 26.5862C7.59119 21.6475 11.5894 17.6421 16.5193 17.6421H92.4597C96.6473 17.6421 100.103 20.9295 100.318 25.1246L105.924 135.424C106.093 138.706 103.512 141.47 100.236 141.532L13.1969 143.117C10.115 143.173 7.59119 140.686 7.59119 137.598V26.5862Z" fill="#1C7DAF"/>
<path d="M13.8159 19.3345C13.8056 17.7549 15.193 16.5292 16.7595 16.7446C27.1313 18.1549 62.7926 22.5091 92.2749 20.2422C93.6213 20.1397 94.7886 21.1603 94.8602 22.5091L100.732 133.301C100.814 134.819 99.657 136.121 98.1366 136.209C85.7375 136.942 34.6669 139.788 16.4472 137.875C15.3363 137.757 14.4967 136.824 14.4916 135.706L13.8159 19.3345Z" fill="#2CB6BF"/>
<path d="M15.0336 22.1142C15.0234 20.591 16.3595 19.4166 17.8646 19.6217C27.8473 20.9756 62.1623 25.1708 90.5389 22.9912C91.8341 22.8937 92.9552 23.8733 93.0269 25.1708L98.6837 131.793C98.7605 133.255 97.6445 134.506 96.1906 134.593C84.2574 135.301 35.1117 138.034 17.5779 136.198C16.5131 136.085 15.6991 135.188 15.694 134.111L15.0336 22.1142Z" fill="#E0EEEF"/>
<path opacity="0.78" d="M24.2743 30.3354L25.334 53.1933C25.3698 53.9523 25.9841 54.5574 26.7418 54.578C30.9653 54.6959 44.1373 55.019 51.5706 54.6292C52.4102 54.5831 53.0757 53.9061 53.1064 53.0599C53.2498 48.7725 53.5569 36.2947 52.5843 31.079C52.4256 30.238 51.7037 29.6174 50.8488 29.5918L25.8715 28.7148C24.9654 28.684 24.2333 29.4328 24.2743 30.3354Z" fill="white"/>
<path d="M38.644 43.4178C41.3525 43.4178 43.5483 41.2181 43.5483 38.5047C43.5483 35.7912 41.3525 33.5916 38.644 33.5916C35.9354 33.5916 33.7396 35.7912 33.7396 38.5047C33.7396 41.2181 35.9354 43.4178 38.644 43.4178Z" fill="#2CB6BF"/>
<path d="M31.1962 52.9313H46.8205C47.7778 52.9313 48.3511 51.8697 47.8341 51.0646C46.5082 48.9824 43.7284 45.9258 38.9213 46.0642C34.2883 46.1976 31.5392 48.9567 30.157 50.9363C29.5734 51.7774 30.1723 52.9313 31.1962 52.9313Z" fill="#2CB6BF"/>
<g opacity="0.6">
<path d="M87.427 32.3253C87.5498 32.3253 87.6522 32.2228 87.6471 32.0997L87.6164 31.0227C87.6113 30.8996 87.5089 30.7919 87.3809 30.7919L58.6665 30.2791C58.5436 30.2791 58.472 30.3714 58.5129 30.4893L59.0863 32.1151C59.1272 32.233 59.2655 32.3305 59.3883 32.3305H87.427V32.3253Z" fill="white"/>
</g>
<g opacity="0.6">
<path d="M58.6665 34.5354C58.5436 34.5354 58.472 34.6277 58.5129 34.7457L59.0863 36.3714C59.1272 36.4894 59.2655 36.5868 59.3883 36.5868H87.427C87.5498 36.5868 87.6522 36.4842 87.6471 36.3612L87.6164 35.2842C87.6113 35.1611 87.5089 35.0534 87.3809 35.0534L58.6665 34.5354Z" fill="white"/>
</g>
<g opacity="0.6">
<path d="M58.6665 38.8591C58.5436 38.8591 58.472 38.9514 58.5129 39.0694L59.0863 40.6951C59.1272 40.8131 59.2655 40.9105 59.3883 40.9105H87.427C87.5498 40.9105 87.6522 40.808 87.6471 40.6849L87.6164 39.6079C87.6113 39.4848 87.5089 39.3771 87.3809 39.3771L58.6665 38.8591Z" fill="white"/>
</g>
<g opacity="0.6">
<path d="M90.0886 61.7577C90.2115 61.7577 90.3088 61.6551 90.2985 61.5321L90.2269 60.4551C90.2166 60.332 90.1091 60.2294 89.9863 60.2243L24.4945 59.7063C24.3716 59.7063 24.3306 59.7832 24.4074 59.8807L25.7589 61.5782C25.8357 61.6757 26.0047 61.7577 26.1275 61.7577H90.0886Z" fill="white"/>
</g>
<g opacity="0.6">
<path d="M24.4945 63.9631C24.3716 63.9631 24.3306 64.0401 24.4074 64.1375L25.7589 65.835C25.8357 65.9325 26.0047 66.0145 26.1275 66.0145H90.0886C90.2115 66.0145 90.3088 65.912 90.2985 65.7889L90.2269 64.7119C90.2166 64.5888 90.1091 64.4862 89.9863 64.4811L24.4945 63.9631Z" fill="white"/>
</g>
<path d="M33.1463 93.0314C33.1411 93.0314 33.136 93.0314 33.1309 93.0314L27.7146 92.9801C26.9416 92.975 26.3017 92.4416 26.23 91.739L25.7539 87.1849C25.7283 86.9182 25.8102 86.6515 25.9894 86.4412C26.1891 86.2053 26.4911 86.0566 26.8187 86.0309C27.2744 86.0002 27.9194 85.9438 28.6003 85.8873C30.0337 85.7643 31.8152 85.6155 32.8186 85.6001C33.5456 85.595 34.165 86.0258 34.3339 86.6617C34.6155 87.708 34.5899 89.6824 34.5387 91.7903C34.5182 92.4775 33.8937 93.0314 33.1463 93.0314ZM26.8443 86.4464C26.6293 86.4617 26.4348 86.554 26.3068 86.7079C26.1993 86.831 26.1532 86.9848 26.1686 87.1387L26.6447 91.6928C26.6959 92.18 27.1566 92.5544 27.7197 92.5596L33.136 92.6108C33.1411 92.6108 33.1411 92.6108 33.1463 92.6108C33.6735 92.6108 34.1036 92.2416 34.1189 91.78C34.1701 89.703 34.1957 87.7592 33.9295 86.7694C33.8118 86.3233 33.3459 86.0156 32.8186 86.0156C31.8306 86.0258 30.0542 86.1797 28.631 86.3027C27.9501 86.3592 27.3051 86.4156 26.8443 86.4464Z" fill="white"/>
<path opacity="0.6" d="M27.4276 86.9183C28.5641 86.8413 31.0368 86.59 32.2091 86.5747C32.7057 86.5695 33.1408 86.867 33.2586 87.3029C33.4838 88.1388 33.4531 89.8107 33.4173 91.3544C33.407 91.816 32.9821 92.1853 32.4651 92.1801L28.1392 92.1391C27.6068 92.134 27.1665 91.7698 27.1154 91.298L26.7365 87.6619C26.6956 87.2773 27.0078 86.9439 27.4276 86.9183Z" fill="white"/>
<g opacity="0.6">
<path d="M37.9018 90.0054C38.0605 90.6003 38.598 91.0157 39.2123 91.0106L89.3205 90.5849C89.8887 90.5798 90.3392 90.1131 90.329 89.5439C90.3187 88.99 89.8682 88.5489 89.3153 88.5489L39.2072 88.3181C38.3267 88.313 37.6765 89.149 37.9018 90.0054Z" fill="white"/>
</g>
<path d="M27.6587 87.631C28.0631 87.3951 28.5802 87.5336 28.8054 87.9439L29.8754 89.8619C29.9829 90.0517 30.2644 90.0414 30.3515 89.8414L33.0033 83.9333C33.1364 83.641 33.5715 83.7385 33.5664 84.0616C33.5408 85.8668 33.0596 89.3029 30.1774 92.18C30.1774 92.18 28.5904 91.5595 27.3106 88.749C27.1263 88.3388 27.2747 87.8567 27.6587 87.631Z" fill="#2D5883"/>
<path d="M33.1463 104.658C33.1411 104.658 33.136 104.658 33.1309 104.658L27.7146 104.607C26.9416 104.601 26.3017 104.068 26.23 103.365L25.7539 98.8113C25.7283 98.5446 25.8102 98.2779 25.9894 98.0676C26.1891 97.8317 26.4911 97.683 26.8187 97.6574C27.2744 97.6266 27.9194 97.5702 28.6003 97.5138C30.0337 97.3907 31.8152 97.2419 32.8186 97.2266C32.8237 97.2266 32.834 97.2266 32.8391 97.2266C33.5507 97.2266 34.165 97.6625 34.3339 98.2882C34.6155 99.3344 34.5899 101.309 34.5387 103.417C34.5182 104.104 33.8937 104.658 33.1463 104.658ZM26.8443 98.0779C26.6293 98.0933 26.4348 98.1907 26.3068 98.3395C26.1993 98.4625 26.1532 98.6164 26.1686 98.7702L26.6447 103.324C26.6959 103.812 27.1566 104.186 27.7197 104.191L33.136 104.242C33.1411 104.242 33.1411 104.242 33.1463 104.242C33.6735 104.242 34.1036 103.873 34.1189 103.412C34.1701 101.335 34.1957 99.3908 33.9295 98.401C33.8118 97.9548 33.3408 97.6368 32.8186 97.6471C31.8306 97.6574 30.0542 97.8112 28.631 97.9343C27.9501 97.9907 27.3051 98.042 26.8443 98.0779Z" fill="white"/>
<path opacity="0.6" d="M27.4276 98.5446C28.5641 98.4677 31.0368 98.2164 32.2091 98.201C32.7057 98.1959 33.1408 98.4933 33.2586 98.9292C33.4838 99.7652 33.4531 101.437 33.4173 102.981C33.407 103.442 32.9821 103.812 32.4651 103.806L28.1392 103.765C27.6068 103.76 27.1665 103.396 27.1154 102.924L26.7365 99.2882C26.6956 98.9087 27.0078 98.5754 27.4276 98.5446Z" fill="white"/>
<g opacity="0.6">
<path d="M37.9018 101.637C38.0605 102.232 38.598 102.647 39.2123 102.642L89.3205 102.216C89.8887 102.211 90.3392 101.745 90.329 101.175C90.3187 100.621 89.8682 100.18 89.3153 100.18L39.2072 99.9496C38.3267 99.9393 37.6765 100.78 37.9018 101.637Z" fill="white"/>
</g>
<path d="M27.6587 99.2575C28.0631 99.0216 28.5802 99.16 28.8054 99.5703L29.8754 101.488C29.9829 101.678 30.2644 101.668 30.3515 101.468L33.0033 95.5598C33.1364 95.2675 33.5715 95.3649 33.5664 95.688C33.5408 97.4933 33.0596 100.929 30.1774 103.806C30.1774 103.806 28.5904 103.186 27.3106 100.376C27.1263 99.9652 27.2747 99.4831 27.6587 99.2575Z" fill="#2D5883"/>
<path d="M33.1463 116.284C33.1411 116.284 33.136 116.284 33.1309 116.284L27.7146 116.233C26.9416 116.228 26.3017 115.694 26.23 114.992L25.7539 110.438C25.7283 110.171 25.8102 109.904 25.9894 109.694C26.1891 109.458 26.4911 109.309 26.8187 109.284C27.2744 109.253 27.9194 109.197 28.6003 109.14C30.0337 109.017 31.8152 108.868 32.8186 108.853C32.8237 108.853 32.834 108.853 32.8391 108.853C33.5507 108.853 34.165 109.289 34.3339 109.915C34.6155 110.961 34.5899 112.935 34.5387 115.043C34.5182 115.736 33.8937 116.284 33.1463 116.284ZM26.8443 109.704C26.6293 109.72 26.4348 109.812 26.3068 109.966C26.1993 110.089 26.1532 110.243 26.1686 110.397L26.6447 114.951C26.6959 115.438 27.1566 115.812 27.7197 115.818L33.136 115.869C33.1411 115.869 33.1411 115.869 33.1463 115.869C33.6735 115.869 34.1036 115.5 34.1189 115.038C34.1701 112.961 34.1957 111.017 33.9295 110.027C33.8118 109.581 33.3408 109.263 32.8186 109.274C31.8306 109.284 30.0542 109.438 28.631 109.561C27.9501 109.617 27.3051 109.674 26.8443 109.704Z" fill="white"/>
<path opacity="0.6" d="M27.4276 110.171C28.5641 110.094 31.0368 109.842 32.2091 109.827C32.7057 109.822 33.1408 110.119 33.2586 110.555C33.4838 111.391 33.4531 113.063 33.4173 114.607C33.407 115.068 32.9821 115.438 32.4651 115.433L28.1392 115.392C27.6068 115.386 27.1665 115.022 27.1154 114.55L26.7365 110.914C26.6956 110.535 27.0078 110.201 27.4276 110.171Z" fill="white"/>
<g opacity="0.6">
<path d="M37.9018 113.263C38.0605 113.858 38.598 114.274 39.2123 114.268L89.3205 113.843C89.8887 113.838 90.3392 113.371 90.329 112.802C90.3187 112.248 89.8682 111.807 89.3153 111.807L39.2072 111.576C38.3267 111.566 37.6765 112.407 37.9018 113.263Z" fill="white"/>
</g>
<path d="M27.6587 110.889C28.0631 110.653 28.5802 110.791 28.8054 111.202L29.8754 113.12C29.9829 113.309 30.2644 113.299 30.3515 113.099L33.0033 107.191C33.1364 106.899 33.5715 106.996 33.5664 107.319C33.5408 109.125 33.0596 112.561 30.1774 115.438C30.1774 115.438 28.5904 114.817 27.3106 112.007C27.1263 111.597 27.2747 111.114 27.6587 110.889Z" fill="#2D5883"/>
<path d="M33.1463 127.916C33.1411 127.916 33.136 127.916 33.1309 127.916L27.7146 127.864C26.9416 127.859 26.3017 127.326 26.23 126.623L25.7539 122.069C25.7283 121.803 25.8102 121.536 25.9894 121.326C26.1891 121.09 26.4911 120.941 26.8187 120.915C27.2744 120.885 27.9194 120.828 28.6003 120.772C30.0337 120.649 31.8152 120.5 32.8186 120.484C32.8237 120.484 32.834 120.484 32.8391 120.484C33.5507 120.484 34.165 120.92 34.3339 121.546C34.6155 122.592 34.5899 124.567 34.5387 126.675C34.5182 127.362 33.8937 127.916 33.1463 127.916ZM26.8443 121.331C26.6293 121.346 26.4348 121.438 26.3068 121.592C26.1993 121.715 26.1532 121.869 26.1686 122.023L26.6447 126.577C26.6959 127.064 27.1566 127.439 27.7197 127.444L33.136 127.495C33.1411 127.495 33.1411 127.495 33.1463 127.495C33.6735 127.495 34.1036 127.126 34.1189 126.664C34.1701 124.587 34.1957 122.644 33.9295 121.654C33.8118 121.208 33.3408 120.89 32.8186 120.9C31.8306 120.91 30.0542 121.064 28.631 121.187C27.9501 121.244 27.3051 121.3 26.8443 121.331Z" fill="white"/>
<path opacity="0.6" d="M27.4276 121.803C28.5641 121.726 31.0368 121.474 32.2091 121.459C32.7057 121.454 33.1408 121.751 33.2586 122.187C33.4838 123.023 33.4531 124.695 33.4173 126.239C33.407 126.7 32.9821 127.07 32.4651 127.065L28.1392 127.024C27.6068 127.018 27.1665 126.654 27.1154 126.182L26.7365 122.546C26.6956 122.162 27.0078 121.828 27.4276 121.803Z" fill="white"/>
<g opacity="0.6">
<path d="M37.9018 124.89C38.0605 125.485 38.598 125.9 39.2123 125.895L89.3205 125.469C89.8887 125.464 90.3392 124.997 90.329 124.428C90.3187 123.874 89.8682 123.433 89.3153 123.433L39.2072 123.202C38.3267 123.197 37.6765 124.033 37.9018 124.89Z" fill="white"/>
</g>
<path d="M32.3993 81.6513C32.3942 81.6513 32.3891 81.6513 32.3839 81.6513L26.9677 81.6C26.1947 81.5949 25.5547 81.0615 25.4831 80.3589L25.007 75.8048C24.9814 75.5381 25.0633 75.2714 25.2425 75.0612C25.4421 74.8253 25.7442 74.6765 26.0718 74.6509C26.5274 74.6201 27.1725 74.5637 27.8533 74.5073C29.2867 74.3842 31.0683 74.2355 32.0717 74.2201C32.0768 74.2201 32.087 74.2201 32.0921 74.2201C32.8037 74.2201 33.4181 74.656 33.587 75.2817C33.8686 76.3279 33.843 78.3024 33.7918 80.4102C33.7662 81.0974 33.1467 81.6513 32.3993 81.6513ZM26.0974 75.0714C25.8824 75.0868 25.6878 75.1791 25.5599 75.333C25.4524 75.4561 25.4063 75.6099 25.4216 75.7638L25.8977 80.3179C25.9489 80.8051 26.4097 81.1795 26.9728 81.1846L32.3891 81.2359C32.3942 81.2359 32.3942 81.2359 32.3993 81.2359C32.9266 81.2359 33.3566 80.8667 33.372 80.4051C33.4232 78.328 33.4488 76.3843 33.1826 75.3945C33.0648 74.9483 32.5938 74.6304 32.0717 74.6406C31.0836 74.6509 29.3072 74.8047 27.884 74.9278C27.198 74.9842 26.553 75.0355 26.0974 75.0714Z" fill="white"/>
<path opacity="0.6" d="M26.6757 75.5381C27.8122 75.4612 30.2848 75.2099 31.4571 75.1945C31.9537 75.1894 32.3889 75.4868 32.5066 75.9228C32.7319 76.7587 32.7011 78.4306 32.6653 79.9743C32.6551 80.4359 32.2302 80.8051 31.7131 80.8L27.3873 80.759C26.8549 80.7538 26.4146 80.3897 26.3634 79.9179L25.9846 76.2818C25.9436 75.9023 26.2559 75.5689 26.6757 75.5381Z" fill="white"/>
<g opacity="0.6">
<path d="M37.1549 78.63C37.3136 79.2249 37.8512 79.6403 38.4655 79.6352L88.5736 79.2095C89.1419 79.2044 89.5924 78.7377 89.5822 78.1684C89.5719 77.6146 89.1214 77.1735 88.5685 77.1735L38.4604 76.9427C37.5747 76.9325 36.9297 77.7735 37.1549 78.63Z" fill="white"/>
</g>
<path d="M26.9067 76.2511C27.3112 76.0152 27.8282 76.1537 28.0535 76.564L29.1234 78.482C29.2309 78.6718 29.5125 78.6615 29.5995 78.4615L32.2513 72.5535C32.3844 72.2611 32.8196 72.3586 32.8145 72.6817C32.7889 74.4869 32.3076 77.923 29.4254 80.8001C29.4254 80.8001 27.8385 80.1796 26.5586 77.3692C26.3743 76.964 26.5228 76.4768 26.9067 76.2511Z" fill="#2D5883"/>
<path d="M59.2051 2.60037C56.4612 0.687433 54.0756 0.728461 52.3964 1.2208C50.8657 1.67211 49.8726 3.15425 50.0159 4.74923L50.7377 12.6677L59.3536 13.4318C59.3587 13.4318 64.5856 6.34933 59.2051 2.60037ZM55.4168 8.98539C54.2291 8.98539 53.2667 8.02123 53.2667 6.83141C53.2667 5.64159 54.2291 4.67743 55.4168 4.67743C56.6045 4.67743 57.5669 5.64159 57.5669 6.83141C57.5669 8.02123 56.6045 8.98539 55.4168 8.98539Z" fill="#2D5883"/>
<path d="M51.602 9.33903C51.4945 9.33903 51.4075 9.25697 51.3972 9.14927L51.2795 7.88765C51.2692 7.77483 51.3512 7.67226 51.4689 7.662C51.5866 7.65174 51.6839 7.7338 51.6942 7.85175L51.8119 9.11337C51.8221 9.2262 51.7402 9.32877 51.6225 9.33903C51.6174 9.33903 51.6071 9.33903 51.602 9.33903ZM51.3768 6.86708C51.2692 6.86708 51.1822 6.78502 51.172 6.67732L51.085 5.71829C50.9467 4.20024 51.8989 2.7899 53.3528 2.3591C54.3818 2.05652 55.4415 2.01036 56.5012 2.23089C56.6138 2.2514 56.6855 2.36423 56.665 2.47706C56.6394 2.58988 56.5319 2.66168 56.4193 2.64117C55.4262 2.43603 54.433 2.47706 53.4706 2.76425C52.2061 3.13864 51.3819 4.36435 51.4996 5.68752L51.5866 6.64655C51.5969 6.75938 51.515 6.86195 51.3972 6.87221C51.387 6.86708 51.3819 6.86708 51.3768 6.86708Z" fill="#2CB6BF"/>
<path d="M38.9827 17.7858V13.8061C38.9827 12.4316 40.1192 11.329 41.4912 11.3803L68.8899 12.3188C70.1083 12.3598 71.0913 13.324 71.1629 14.5394L71.3933 18.3653L38.9827 17.7858Z" fill="#2D5883"/>
<path d="M49.1962 12.8781H48.0187C47.9061 12.8781 47.8088 12.7857 47.8088 12.6678C47.8088 12.555 47.901 12.4575 48.0187 12.4575H49.1962C49.3088 12.4575 49.4061 12.5498 49.4061 12.6678C49.4061 12.7806 49.3139 12.8781 49.1962 12.8781Z" fill="#2CB6BF"/>
<path d="M40.4631 16.5347C40.3504 16.5347 40.2532 16.4424 40.2532 16.3244V14.7141C40.2532 13.4678 41.2617 12.4575 42.5057 12.4575H46.8367C46.9493 12.4575 47.0465 12.5498 47.0465 12.6678C47.0465 12.7806 46.9544 12.8781 46.8367 12.8781H42.5057C41.4921 12.8781 40.6678 13.7038 40.6678 14.7192V16.3296C40.673 16.4424 40.5808 16.5347 40.4631 16.5347Z" fill="#2CB6BF"/>
<path d="M27.8177 18.7909C27.8843 17.4113 29.0208 16.3292 30.3979 16.3292H78.3047C80.0299 16.3292 81.4992 17.5703 81.7961 19.273L81.8371 19.5089C82.1596 21.3706 80.7262 23.0732 78.8422 23.0732H29.6863C28.5549 23.0732 27.659 22.1296 27.7102 20.9962L27.8177 18.7909Z" fill="#2D5883"/>
<path d="M55.4246 52.8541C56.0748 52.2438 56.9502 51.9413 57.841 52.0233C67.322 52.8798 85.0144 48.3 96.579 36.448C97.3828 35.6274 98.8469 36.089 99.7684 36.7813C112.628 46.4076 133.945 48.4026 141.343 48.8129C142.873 48.8949 144.117 50.0847 144.271 51.613C151.003 116.725 108.681 140.321 99.9066 144.486C98.9493 144.942 97.8179 144.875 96.9169 144.311C53.1721 117.017 55.0458 81.5175 54.4417 55.2133C54.4161 54.3209 54.7745 53.4644 55.4246 52.8541Z" fill="#2CB6BF"/>
<path d="M98.7196 139.798C98.5148 139.798 98.3101 139.742 98.136 139.629C81.3599 128.885 70.4199 116.038 64.7016 100.355C59.5976 86.3485 59.3467 72.0912 59.1266 59.516L59.0959 57.839C59.0908 57.5467 59.1983 57.2749 59.403 57.0646C59.6078 56.8543 59.8843 56.7415 60.1761 56.7415C70.553 56.7415 86.1311 52.1515 97.5524 41.8944C97.9159 41.5662 98.4585 41.5251 98.8681 41.797C111.421 50.1411 129.333 52.572 138.891 53.2797C139.418 53.3208 139.838 53.731 139.884 54.2644C142.106 79.6814 136.828 101.175 124.199 118.145C114.764 130.823 103.573 137.429 99.2008 139.68C99.0575 139.757 98.8886 139.798 98.7196 139.798ZM60.1863 57.2492C60.0225 57.2492 59.874 57.3108 59.7665 57.4185C59.659 57.5262 59.6027 57.6698 59.6078 57.8236L59.6385 59.5006C59.8587 72.0399 60.1095 86.251 65.1828 100.175C70.8601 115.745 81.7285 128.51 98.4125 139.193C98.5814 139.301 98.8015 139.311 98.9807 139.218C103.322 136.982 114.431 130.423 123.799 117.833C136.357 100.965 141.599 79.5891 139.388 54.3003C139.362 54.0182 139.142 53.8028 138.866 53.7823C129.257 53.0746 111.247 50.6283 98.5967 42.2175C98.3817 42.0739 98.0951 42.0944 97.9056 42.2688C86.3769 52.6182 70.6554 57.2492 60.1863 57.2492Z" fill="white"/>
<path d="M0.598633 130.193L0.956987 141.388C1.01842 143.342 2.62077 144.891 4.57636 144.907L31.3352 145.066C32.6457 145.076 33.7618 144.122 33.9512 142.83C34.371 140.004 34.9034 134.947 34.3044 130.198H0.598633V130.193Z" fill="#2CB6BF"/>
<path d="M30.3877 144.373H30.1932C30.1727 144.373 30.1624 144.358 30.1624 144.342C30.1624 144.327 30.1778 144.312 30.1932 144.312H30.3877C30.4082 144.312 30.4184 144.327 30.4184 144.342C30.4184 144.358 30.403 144.373 30.3877 144.373ZM30.8433 144.368C30.828 144.368 30.8126 144.353 30.8126 144.337C30.8126 144.322 30.8228 144.301 30.8433 144.301C30.9047 144.296 30.9713 144.291 31.0327 144.281C31.0481 144.276 31.0686 144.291 31.0686 144.307C31.0686 144.322 31.0583 144.342 31.043 144.342C30.9764 144.358 30.9099 144.368 30.8433 144.368ZM29.7375 144.368H29.543C29.5225 144.368 29.5123 144.353 29.5123 144.337C29.5123 144.322 29.5276 144.307 29.543 144.307H29.7375C29.758 144.307 29.7683 144.322 29.7683 144.337C29.7683 144.353 29.7529 144.368 29.7375 144.368ZM29.0874 144.368H28.8928C28.8724 144.368 28.8621 144.353 28.8621 144.337C28.8621 144.322 28.8775 144.307 28.8928 144.307H29.0874C29.1079 144.307 29.1181 144.322 29.1181 144.337C29.1181 144.353 29.1027 144.368 29.0874 144.368ZM28.4372 144.363H28.2427C28.2222 144.363 28.212 144.348 28.212 144.332C28.212 144.312 28.2273 144.301 28.2427 144.301H28.4372C28.4577 144.301 28.4679 144.317 28.4679 144.332C28.4679 144.348 28.4577 144.363 28.4372 144.363ZM27.7871 144.358H27.5925C27.5721 144.358 27.5618 144.342 27.5618 144.327C27.5618 144.312 27.5772 144.296 27.5925 144.296H27.7871C27.8075 144.296 27.8178 144.312 27.8178 144.327C27.8178 144.342 27.8075 144.358 27.7871 144.358ZM27.1369 144.353H26.9424C26.9219 144.353 26.9117 144.337 26.9117 144.322C26.9117 144.301 26.927 144.291 26.9424 144.291H27.1369C27.1574 144.291 27.1676 144.307 27.1676 144.322C27.1727 144.337 27.1574 144.353 27.1369 144.353ZM26.4867 144.353H26.2922C26.2717 144.353 26.2615 144.337 26.2615 144.322C26.2615 144.307 26.2769 144.291 26.2922 144.291H26.4867C26.5072 144.291 26.5175 144.307 26.5175 144.322C26.5226 144.337 26.5072 144.353 26.4867 144.353ZM25.8366 144.348H25.6421C25.6216 144.348 25.6113 144.332 25.6113 144.317C25.6113 144.301 25.6267 144.286 25.6421 144.286H25.8366C25.8571 144.286 25.8673 144.301 25.8673 144.317C25.8724 144.332 25.8571 144.348 25.8366 144.348ZM25.1864 144.342H24.9919C24.9714 144.342 24.9612 144.327 24.9612 144.312C24.9612 144.296 24.9765 144.281 24.9919 144.281H25.1864C25.2069 144.281 25.2172 144.296 25.2172 144.312C25.2223 144.327 25.2069 144.342 25.1864 144.342ZM24.5414 144.337H24.3469C24.3264 144.337 24.3161 144.322 24.3161 144.307C24.3161 144.291 24.3315 144.276 24.3469 144.276H24.5414C24.5619 144.276 24.5721 144.291 24.5721 144.307C24.5721 144.322 24.5568 144.337 24.5414 144.337ZM23.8912 144.337H23.6967C23.6762 144.337 23.666 144.322 23.666 144.307C23.666 144.291 23.6813 144.276 23.6967 144.276H23.8912C23.9117 144.276 23.922 144.291 23.922 144.307C23.922 144.322 23.9066 144.337 23.8912 144.337ZM23.2411 144.332H23.0466C23.0261 144.332 23.0158 144.317 23.0158 144.301C23.0158 144.286 23.0312 144.271 23.0466 144.271H23.2411C23.2616 144.271 23.2718 144.286 23.2718 144.301C23.2718 144.317 23.2564 144.332 23.2411 144.332ZM22.5909 144.327H22.3964C22.3759 144.327 22.3657 144.312 22.3657 144.296C22.3657 144.281 22.381 144.266 22.3964 144.266H22.5909C22.6114 144.266 22.6216 144.281 22.6216 144.296C22.6216 144.312 22.6063 144.327 22.5909 144.327ZM21.9408 144.322H21.7462C21.7258 144.322 21.7155 144.307 21.7155 144.291C21.7155 144.276 21.7309 144.26 21.7462 144.26H21.9408C21.9612 144.26 21.9715 144.276 21.9715 144.291C21.9715 144.307 21.9561 144.322 21.9408 144.322ZM21.2906 144.322H21.0961C21.0756 144.322 21.0654 144.307 21.0654 144.291C21.0654 144.276 21.0807 144.26 21.0961 144.26H21.2906C21.3111 144.26 21.3213 144.276 21.3213 144.291C21.3213 144.307 21.306 144.322 21.2906 144.322ZM20.6405 144.317H20.4459C20.4254 144.317 20.4152 144.301 20.4152 144.286C20.4152 144.271 20.4306 144.255 20.4459 144.255H20.6405C20.6609 144.255 20.6712 144.271 20.6712 144.286C20.6712 144.301 20.6609 144.317 20.6405 144.317ZM19.9903 144.312H19.7958C19.7753 144.312 19.765 144.296 19.765 144.281C19.765 144.266 19.7804 144.25 19.7958 144.25H19.9903C20.0108 144.25 20.021 144.266 20.021 144.281C20.021 144.296 20.0108 144.312 19.9903 144.312ZM19.3401 144.307H19.1456C19.1251 144.307 19.1149 144.291 19.1149 144.276C19.1149 144.255 19.1302 144.245 19.1456 144.245H19.3401C19.3606 144.245 19.3709 144.26 19.3709 144.276C19.376 144.291 19.3606 144.307 19.3401 144.307ZM18.69 144.307H18.4955C18.475 144.307 18.4647 144.291 18.4647 144.276C18.4647 144.26 18.4801 144.245 18.4955 144.245H18.69C18.7105 144.245 18.7207 144.26 18.7207 144.276C18.7258 144.291 18.7105 144.307 18.69 144.307ZM18.0398 144.301H17.8453C17.8248 144.301 17.8146 144.286 17.8146 144.271C17.8146 144.25 17.8299 144.24 17.8453 144.24H18.0398C18.0603 144.24 18.0705 144.255 18.0705 144.271C18.0757 144.286 18.0603 144.301 18.0398 144.301ZM17.3948 144.296H17.2003C17.1798 144.296 17.1695 144.281 17.1695 144.266C17.1695 144.25 17.1849 144.235 17.2003 144.235H17.3948C17.4153 144.235 17.4255 144.25 17.4255 144.266C17.4255 144.281 17.4102 144.296 17.3948 144.296ZM16.7446 144.291H16.5501C16.5296 144.291 16.5194 144.276 16.5194 144.26C16.5194 144.245 16.5347 144.23 16.5501 144.23H16.7446C16.7651 144.23 16.7754 144.245 16.7754 144.26C16.7754 144.276 16.76 144.291 16.7446 144.291ZM16.0945 144.291H15.8999C15.8795 144.291 15.8692 144.276 15.8692 144.26C15.8692 144.245 15.8846 144.23 15.8999 144.23H16.0945C16.115 144.23 16.1252 144.245 16.1252 144.26C16.1252 144.276 16.1098 144.291 16.0945 144.291ZM15.4443 144.286H15.2498C15.2293 144.286 15.2191 144.271 15.2191 144.255C15.2191 144.24 15.2344 144.225 15.2498 144.225H15.4443C15.4648 144.225 15.475 144.24 15.475 144.255C15.475 144.271 15.4597 144.286 15.4443 144.286ZM14.7942 144.281H14.5996C14.5792 144.281 14.5689 144.266 14.5689 144.25C14.5689 144.235 14.5843 144.219 14.5996 144.219H14.7942C14.8146 144.219 14.8249 144.235 14.8249 144.25C14.8249 144.266 14.8095 144.281 14.7942 144.281ZM14.144 144.276H13.9495C13.929 144.276 13.9188 144.26 13.9188 144.245C13.9188 144.23 13.9341 144.214 13.9495 144.214H14.144C14.1645 144.214 14.1747 144.23 14.1747 144.245C14.1747 144.26 14.1594 144.276 14.144 144.276ZM13.4938 144.276H13.2993C13.2788 144.276 13.2686 144.26 13.2686 144.245C13.2686 144.23 13.284 144.214 13.2993 144.214H13.4938C13.5143 144.214 13.5246 144.23 13.5246 144.245C13.5246 144.26 13.5143 144.276 13.4938 144.276ZM12.8437 144.271H12.6492C12.6287 144.271 12.6184 144.255 12.6184 144.24C12.6184 144.225 12.6338 144.209 12.6492 144.209H12.8437C12.8642 144.209 12.8744 144.225 12.8744 144.24C12.8744 144.255 12.8642 144.271 12.8437 144.271ZM12.1935 144.266H11.999C11.9785 144.266 11.9683 144.25 11.9683 144.235C11.9683 144.219 11.9836 144.204 11.999 144.204H12.1935C12.214 144.204 12.2243 144.219 12.2243 144.235C12.2294 144.25 12.214 144.266 12.1935 144.266ZM11.5434 144.26H11.3488C11.3284 144.26 11.3181 144.245 11.3181 144.23C11.3181 144.214 11.3335 144.199 11.3488 144.199H11.5434C11.5639 144.199 11.5741 144.214 11.5741 144.23C11.5792 144.25 11.5639 144.26 11.5434 144.26ZM10.8932 144.26H10.6987C10.6782 144.26 10.668 144.245 10.668 144.23C10.668 144.214 10.6833 144.199 10.6987 144.199H10.8932C10.9086 144.199 10.9239 144.214 10.9239 144.23C10.9291 144.245 10.9137 144.26 10.8932 144.26ZM10.2482 144.255H10.0536C10.0332 144.255 10.0229 144.24 10.0229 144.225C10.0229 144.204 10.0383 144.194 10.0536 144.194H10.2482C10.2687 144.194 10.2789 144.209 10.2789 144.225C10.2789 144.24 10.2635 144.255 10.2482 144.255ZM9.59803 144.25H9.40349C9.38302 144.25 9.37278 144.235 9.37278 144.219C9.37278 144.204 9.38813 144.189 9.40349 144.189H9.59803C9.6185 144.189 9.62874 144.204 9.62874 144.219C9.62874 144.235 9.61339 144.25 9.59803 144.25ZM31.4781 144.245C31.4628 144.245 31.4525 144.235 31.4474 144.225C31.4423 144.209 31.4525 144.189 31.4679 144.184C31.5293 144.163 31.5907 144.142 31.6471 144.117C31.6624 144.112 31.6829 144.117 31.688 144.132C31.6931 144.148 31.688 144.168 31.6726 144.173C31.6112 144.199 31.5498 144.225 31.4884 144.245C31.4832 144.245 31.4781 144.245 31.4781 144.245ZM8.94787 144.245H8.75334C8.73286 144.245 8.72262 144.23 8.72262 144.214C8.72262 144.194 8.73798 144.184 8.75334 144.184H8.94787C8.96835 144.184 8.97859 144.199 8.97859 144.214C8.97859 144.235 8.96323 144.245 8.94787 144.245ZM8.29771 144.245H8.10318C8.0827 144.245 8.07246 144.23 8.07246 144.214C8.07246 144.199 8.08782 144.184 8.10318 144.184H8.29771C8.31819 144.184 8.32843 144.199 8.32843 144.214C8.32843 144.23 8.31307 144.245 8.29771 144.245ZM7.64756 144.24H7.45302C7.43254 144.24 7.42231 144.225 7.42231 144.209C7.42231 144.194 7.43766 144.178 7.45302 144.178H7.64756C7.66803 144.178 7.67827 144.194 7.67827 144.209C7.67827 144.225 7.66292 144.24 7.64756 144.24ZM6.9974 144.235H6.80287C6.78239 144.235 6.77215 144.219 6.77215 144.204C6.77215 144.189 6.78751 144.173 6.80287 144.173H6.9974C7.01788 144.173 7.02812 144.189 7.02812 144.204C7.02812 144.219 7.01276 144.235 6.9974 144.235ZM6.34724 144.23H6.15271C6.13223 144.23 6.12199 144.214 6.12199 144.199C6.12199 144.184 6.13735 144.168 6.15271 144.168H6.34724C6.36772 144.168 6.37796 144.184 6.37796 144.199C6.37796 144.219 6.36772 144.23 6.34724 144.23ZM5.69709 144.23H5.50255C5.48207 144.23 5.47184 144.214 5.47184 144.199C5.47184 144.184 5.48719 144.168 5.50255 144.168H5.69709C5.71756 144.168 5.7278 144.184 5.7278 144.199C5.7278 144.214 5.71756 144.23 5.69709 144.23ZM5.04693 144.219C4.98038 144.214 4.91383 144.209 4.84727 144.204C4.83192 144.204 4.81656 144.189 4.81656 144.168C4.81656 144.153 4.83192 144.137 4.85239 144.137C4.91383 144.142 4.98038 144.148 5.04693 144.153C5.06741 144.153 5.07765 144.168 5.07765 144.189C5.07765 144.209 5.06741 144.219 5.04693 144.219ZM4.40701 144.127H4.40189C4.34046 144.112 4.27391 144.096 4.21248 144.076C4.19712 144.071 4.18688 144.05 4.192 144.035C4.19712 144.019 4.2176 144.009 4.23295 144.014C4.29439 144.035 4.35582 144.05 4.41725 144.066C4.43261 144.071 4.44797 144.086 4.44285 144.107C4.43261 144.117 4.42237 144.127 4.40701 144.127ZM32.0617 143.963C32.0515 143.963 32.0412 143.958 32.0361 143.948C32.0259 143.932 32.031 143.912 32.0464 143.901C32.0976 143.866 32.1539 143.83 32.2051 143.789C32.2204 143.778 32.2409 143.778 32.2511 143.794C32.2614 143.809 32.2614 143.83 32.246 143.84C32.1948 143.881 32.1385 143.917 32.0873 143.953C32.072 143.963 32.0668 143.963 32.0617 143.963ZM3.79269 143.917C3.78757 143.917 3.78245 143.917 3.77733 143.912C3.7159 143.886 3.65959 143.855 3.59815 143.825C3.5828 143.814 3.57768 143.799 3.5828 143.778C3.59303 143.763 3.60839 143.758 3.62887 143.763C3.68518 143.794 3.74662 143.819 3.80293 143.845C3.81829 143.85 3.82852 143.871 3.81829 143.886C3.81829 143.912 3.80293 143.917 3.79269 143.917ZM3.22956 143.594C3.22444 143.594 3.2142 143.594 3.20908 143.589C3.15789 143.553 3.10158 143.512 3.05038 143.471C3.03503 143.46 3.03503 143.44 3.04526 143.424C3.0555 143.409 3.07598 143.409 3.09134 143.419C3.14253 143.46 3.19373 143.496 3.24492 143.532C3.26028 143.542 3.2654 143.563 3.25516 143.578C3.25004 143.589 3.2398 143.594 3.22956 143.594ZM32.5532 143.542C32.5429 143.542 32.5378 143.537 32.5327 143.532C32.5173 143.522 32.5173 143.501 32.5327 143.486C32.5737 143.44 32.6146 143.389 32.6556 143.337C32.6658 143.322 32.6863 143.322 32.7016 143.332C32.717 143.342 32.717 143.363 32.7068 143.378C32.6658 143.43 32.6248 143.481 32.5788 143.532C32.5685 143.537 32.5583 143.542 32.5532 143.542ZM2.7381 143.173C2.72787 143.173 2.72275 143.168 2.71251 143.163C2.66643 143.117 2.62036 143.065 2.5794 143.019C2.56917 143.004 2.56917 142.983 2.58452 142.973C2.59988 142.963 2.62036 142.963 2.6306 142.978C2.67155 143.024 2.71763 143.076 2.7637 143.122C2.77394 143.137 2.77394 143.158 2.7637 143.168C2.75346 143.173 2.74322 143.173 2.7381 143.173ZM32.9167 143.004C32.9115 143.004 32.9064 143.004 32.9013 142.999C32.8859 142.989 32.8808 142.973 32.8859 142.953C32.9166 142.896 32.9422 142.835 32.9678 142.778C32.973 142.763 32.9934 142.753 33.0088 142.763C33.0242 142.768 33.0344 142.789 33.0242 142.804C32.9986 142.865 32.973 142.927 32.9422 142.983C32.9422 142.999 32.9269 143.004 32.9167 143.004ZM2.32856 142.671C2.31832 142.671 2.30808 142.665 2.30296 142.655C2.26712 142.599 2.23129 142.542 2.20057 142.486C2.19033 142.471 2.19545 142.45 2.21081 142.44C2.22617 142.43 2.24665 142.435 2.25689 142.45C2.2876 142.506 2.32344 142.563 2.35927 142.614C2.36951 142.63 2.36439 142.65 2.34903 142.66C2.3388 142.665 2.33368 142.671 2.32856 142.671ZM33.1317 142.394H33.1265C33.1112 142.389 33.0958 142.373 33.1009 142.353C33.1112 142.306 33.1214 142.255 33.1265 142.209L33.1317 142.163C33.1368 142.147 33.1521 142.132 33.1675 142.137C33.1829 142.142 33.1982 142.158 33.1931 142.173L33.188 142.219C33.1829 142.271 33.1726 142.322 33.1624 142.368C33.1624 142.383 33.147 142.394 33.1317 142.394ZM2.0214 142.096C2.01116 142.096 1.9958 142.091 1.99068 142.076C1.96508 142.014 1.93949 141.953 1.91901 141.891C1.91389 141.876 1.92413 141.855 1.93949 141.85C1.95484 141.845 1.97532 141.855 1.98044 141.871C2.00092 141.932 2.02651 141.994 2.05211 142.05C2.05723 142.065 2.05211 142.086 2.03675 142.091C2.03163 142.096 2.02652 142.096 2.0214 142.096ZM33.2289 141.753C33.2085 141.747 33.1931 141.732 33.1982 141.717C33.2085 141.655 33.2136 141.588 33.2238 141.522C33.2238 141.506 33.2443 141.491 33.2596 141.496C33.275 141.496 33.2904 141.517 33.2852 141.532C33.275 141.599 33.2699 141.66 33.2596 141.727C33.2596 141.737 33.2443 141.753 33.2289 141.753ZM1.83198 141.476C1.81662 141.476 1.80126 141.465 1.80126 141.45C1.78591 141.383 1.77567 141.322 1.76543 141.255C1.76031 141.24 1.77567 141.219 1.79103 141.219C1.8115 141.219 1.82686 141.229 1.82686 141.245C1.8371 141.306 1.84734 141.373 1.8627 141.435C1.86782 141.45 1.85758 141.471 1.8371 141.476C1.83198 141.476 1.83198 141.476 1.83198 141.476ZM33.316 141.106C33.316 141.106 33.3108 141.106 33.316 141.106C33.2955 141.106 33.2801 141.086 33.2852 141.07L33.3108 140.876C33.3108 140.86 33.3313 140.845 33.3467 140.845C33.362 140.845 33.3774 140.865 33.3774 140.881L33.3518 141.076C33.3467 141.091 33.3313 141.106 33.316 141.106ZM1.75519 140.829C1.73983 140.829 1.72447 140.814 1.72447 140.799L1.71935 140.604C1.71935 140.583 1.73471 140.573 1.75007 140.568C1.77055 140.568 1.78079 140.583 1.78591 140.599L1.79103 140.794C1.79103 140.814 1.77567 140.829 1.75519 140.829ZM33.3927 140.46C33.3723 140.46 33.3569 140.44 33.362 140.424C33.3672 140.363 33.3774 140.296 33.3825 140.229C33.3825 140.214 33.403 140.199 33.4183 140.199C33.4337 140.199 33.4491 140.219 33.4491 140.235C33.4439 140.301 33.4337 140.363 33.4286 140.429C33.4235 140.445 33.4081 140.46 33.3927 140.46ZM1.73471 140.178C1.71935 140.178 1.704 140.163 1.704 140.147L1.69888 139.952C1.69888 139.932 1.71423 139.922 1.72959 139.917C1.74495 139.917 1.76031 139.932 1.76543 139.947L1.77055 140.142C1.77055 140.163 1.75519 140.178 1.73471 140.178ZM33.4644 139.814C33.4439 139.814 33.4286 139.793 33.4337 139.778C33.4388 139.711 33.4491 139.65 33.4542 139.583C33.4542 139.568 33.4695 139.552 33.49 139.552C33.5054 139.552 33.5207 139.568 33.5207 139.588C33.5156 139.655 33.5054 139.717 33.5003 139.783C33.4951 139.799 33.4798 139.814 33.4644 139.814ZM1.71423 139.527C1.69888 139.527 1.68352 139.511 1.68352 139.496L1.6784 139.301C1.6784 139.281 1.69376 139.27 1.70912 139.265C1.72447 139.265 1.73983 139.281 1.74495 139.296L1.75007 139.491C1.75007 139.511 1.73471 139.527 1.71423 139.527ZM33.531 139.163C33.5259 139.163 33.5259 139.163 33.531 139.163C33.5105 139.163 33.4951 139.147 33.5003 139.127C33.5054 139.06 33.5105 138.999 33.5156 138.932C33.5156 138.917 33.531 138.901 33.5514 138.901C33.5668 138.901 33.5822 138.917 33.5822 138.937C33.577 139.004 33.5719 139.065 33.5668 139.132C33.5617 139.152 33.5463 139.163 33.531 139.163ZM1.69376 138.875C1.6784 138.875 1.66304 138.86 1.66304 138.845L1.65792 138.65C1.65792 138.629 1.67328 138.619 1.68864 138.614C1.704 138.614 1.71935 138.629 1.72447 138.645L1.72959 138.84C1.72959 138.86 1.71423 138.875 1.69376 138.875ZM33.5873 138.516C33.5822 138.516 33.5822 138.516 33.5873 138.516C33.5668 138.516 33.5514 138.501 33.5566 138.481L33.5719 138.286C33.5719 138.27 33.5873 138.255 33.6078 138.255C33.6231 138.255 33.6385 138.27 33.6385 138.291L33.6231 138.486C33.618 138.501 33.6026 138.516 33.5873 138.516ZM1.67328 138.224C1.65792 138.224 1.64256 138.209 1.64256 138.193L1.63744 137.999C1.63744 137.978 1.6528 137.968 1.66816 137.963C1.68352 137.963 1.69888 137.978 1.704 137.993L1.70912 138.188C1.70912 138.209 1.69376 138.224 1.67328 138.224ZM33.6334 137.865C33.6129 137.865 33.5975 137.85 33.6026 137.829L33.618 137.634C33.618 137.619 33.6334 137.604 33.6538 137.604C33.6692 137.604 33.6846 137.619 33.6846 137.64L33.6692 137.834C33.6641 137.855 33.6487 137.865 33.6334 137.865ZM1.6528 137.578C1.63744 137.578 1.62209 137.563 1.62209 137.547L1.61697 137.352C1.61697 137.332 1.63233 137.322 1.64768 137.316C1.66304 137.316 1.6784 137.332 1.68352 137.347L1.68864 137.542C1.68864 137.557 1.67328 137.573 1.6528 137.578ZM33.6743 137.219C33.6538 137.219 33.6385 137.204 33.6436 137.183C33.6487 137.116 33.6487 137.055 33.6538 136.988C33.6538 136.968 33.6692 136.957 33.6897 136.957C33.7101 136.957 33.7204 136.973 33.7204 136.993C33.7153 137.06 33.7153 137.122 33.7101 137.188C33.705 137.204 33.6897 137.219 33.6743 137.219ZM1.63233 136.927C1.61697 136.927 1.60161 136.911 1.60161 136.896L1.59649 136.701C1.59649 136.68 1.61185 136.67 1.62721 136.665C1.64256 136.665 1.65792 136.68 1.66304 136.696L1.66816 136.891C1.66304 136.911 1.6528 136.927 1.63233 136.927ZM33.705 136.568C33.6846 136.568 33.6743 136.552 33.6743 136.532C33.6794 136.465 33.6794 136.404 33.6846 136.337C33.6846 136.316 33.6999 136.306 33.7204 136.306C33.7409 136.306 33.7511 136.321 33.7511 136.342C33.7511 136.409 33.746 136.47 33.7409 136.537C33.7357 136.552 33.7255 136.568 33.705 136.568ZM1.61185 136.275C1.59649 136.275 1.58113 136.26 1.58113 136.245L1.57601 136.05C1.57601 136.029 1.59137 136.019 1.60673 136.014C1.62209 136.014 1.63744 136.029 1.64256 136.045L1.64768 136.239C1.64256 136.26 1.63233 136.275 1.61185 136.275ZM33.7306 135.916C33.7101 135.916 33.6999 135.901 33.6999 135.88C33.6999 135.814 33.705 135.752 33.705 135.686C33.705 135.665 33.7204 135.655 33.7409 135.655C33.7613 135.655 33.7716 135.67 33.7716 135.691C33.7716 135.757 33.7665 135.819 33.7665 135.886C33.7613 135.901 33.746 135.916 33.7306 135.916ZM1.59137 135.624C1.57601 135.624 1.56065 135.609 1.56065 135.593L1.55554 135.398C1.55554 135.378 1.57089 135.368 1.58625 135.362C1.60161 135.362 1.61697 135.378 1.62209 135.393L1.62721 135.588C1.62209 135.609 1.61185 135.624 1.59137 135.624ZM33.746 135.265C33.7255 135.265 33.7153 135.25 33.7153 135.234C33.7153 135.168 33.7153 135.106 33.7153 135.039C33.7153 135.019 33.7306 135.009 33.746 135.009C33.7665 135.009 33.7767 135.024 33.7767 135.039C33.7767 135.106 33.7767 135.168 33.7767 135.234C33.7767 135.25 33.7613 135.265 33.746 135.265ZM1.57089 134.973C1.55554 134.973 1.54018 134.957 1.54018 134.942L1.53506 134.747C1.53506 134.732 1.55042 134.716 1.56577 134.711C1.58113 134.711 1.59649 134.727 1.60161 134.742L1.60673 134.937C1.60161 134.957 1.58625 134.973 1.57089 134.973ZM33.7511 134.614C33.7306 134.614 33.7204 134.598 33.7204 134.583V134.568C33.7204 134.506 33.7204 134.45 33.7204 134.388C33.7204 134.373 33.7357 134.357 33.7511 134.357C33.7716 134.357 33.7818 134.373 33.7818 134.388C33.7818 134.45 33.7818 134.506 33.7818 134.568V134.583C33.7818 134.598 33.7665 134.614 33.7511 134.614ZM1.55042 134.321C1.53506 134.321 1.5197 134.306 1.5197 134.291L1.51458 134.096C1.51458 134.075 1.52994 134.065 1.5453 134.06C1.56577 134.06 1.57601 134.075 1.58113 134.091L1.58625 134.285C1.58113 134.306 1.56577 134.321 1.55042 134.321ZM33.746 133.962C33.7306 133.962 33.7153 133.947 33.7153 133.932C33.7153 133.865 33.7153 133.803 33.7101 133.737C33.7101 133.716 33.7255 133.706 33.7409 133.706C33.7562 133.706 33.7716 133.721 33.7716 133.737C33.7716 133.803 33.7716 133.865 33.7767 133.932C33.7767 133.947 33.7613 133.962 33.746 133.962ZM1.52994 133.67C1.51458 133.67 1.49922 133.655 1.49922 133.639L1.4941 133.444C1.4941 133.424 1.50946 133.414 1.52482 133.408C1.54018 133.408 1.55554 133.424 1.56065 133.439L1.56577 133.634C1.56065 133.655 1.5453 133.67 1.52994 133.67ZM33.7306 133.311C33.7153 133.311 33.6999 133.296 33.6999 133.28C33.6999 133.214 33.6948 133.152 33.6948 133.085C33.6948 133.065 33.7101 133.055 33.7255 133.049C33.746 133.049 33.7562 133.065 33.7613 133.08C33.7613 133.147 33.7665 133.208 33.7665 133.275C33.7613 133.296 33.746 133.311 33.7306 133.311ZM1.50946 133.024C1.4941 133.024 1.47874 133.008 1.47874 132.993L1.47363 132.798C1.47363 132.778 1.48898 132.767 1.50434 132.762C1.5197 132.762 1.53506 132.778 1.54018 132.793L1.5453 132.988C1.54018 133.008 1.52482 133.019 1.50946 133.024ZM33.705 132.665C33.6897 132.665 33.6743 132.649 33.6743 132.634C33.6692 132.567 33.6692 132.506 33.6641 132.439C33.6641 132.419 33.6743 132.408 33.6948 132.403C33.7101 132.403 33.7255 132.414 33.7306 132.434C33.7357 132.501 33.7357 132.562 33.7409 132.629C33.7357 132.644 33.7204 132.66 33.705 132.665ZM1.48386 132.373C1.46851 132.373 1.45315 132.357 1.45315 132.342L1.44803 132.147C1.44803 132.126 1.46339 132.116 1.47874 132.111C1.49922 132.111 1.50946 132.126 1.51458 132.142L1.5197 132.337C1.5197 132.357 1.50434 132.373 1.48386 132.373C1.48898 132.373 1.48386 132.373 1.48386 132.373ZM33.6641 132.014C33.6487 132.014 33.6334 131.998 33.6334 131.983C33.6282 131.916 33.6231 131.855 33.618 131.788C33.618 131.772 33.6282 131.752 33.6487 131.752C33.6692 131.752 33.6846 131.762 33.6846 131.783C33.6897 131.849 33.6948 131.911 33.6999 131.978C33.6999 131.998 33.6846 132.014 33.6641 132.014ZM1.46339 131.721C1.44803 131.721 1.43267 131.706 1.43267 131.69L1.42755 131.496C1.42755 131.475 1.44291 131.465 1.45827 131.46C1.47363 131.455 1.48898 131.475 1.4941 131.49L1.49922 131.685C1.49922 131.706 1.48386 131.721 1.46339 131.721C1.46851 131.721 1.46339 131.721 1.46339 131.721ZM33.6129 131.362C33.5975 131.362 33.5822 131.352 33.5822 131.331C33.577 131.265 33.5719 131.203 33.5668 131.137C33.5668 131.121 33.577 131.101 33.5975 131.101C33.618 131.101 33.6334 131.111 33.6334 131.131C33.6385 131.198 33.6436 131.26 33.6487 131.326C33.6487 131.347 33.6334 131.362 33.6129 131.362C33.618 131.362 33.6129 131.362 33.6129 131.362ZM1.44291 131.07C1.42755 131.07 1.41219 131.054 1.41219 131.039L1.40707 130.844C1.40707 130.824 1.42243 130.813 1.43779 130.808C1.45315 130.808 1.46851 130.824 1.47363 130.839L1.47874 131.034C1.47874 131.054 1.46339 131.07 1.44291 131.07ZM33.5514 130.716C33.5361 130.716 33.5207 130.706 33.5207 130.685C33.5156 130.619 33.5054 130.557 33.5003 130.49C33.5003 130.475 33.5105 130.454 33.531 130.454C33.5514 130.454 33.5668 130.465 33.5668 130.485C33.5719 130.552 33.5822 130.613 33.5873 130.68C33.5873 130.701 33.5719 130.716 33.5514 130.716ZM1.42243 130.419C1.40707 130.419 1.39172 130.403 1.39172 130.388L1.3866 130.157H1.50434C1.52482 130.157 1.53506 130.172 1.53506 130.188C1.53506 130.203 1.5197 130.219 1.50434 130.219H1.45315L1.45827 130.383C1.45827 130.403 1.44291 130.419 1.42243 130.419ZM33.3364 130.224H33.1419C33.1214 130.224 33.1112 130.208 33.1112 130.193C33.1112 130.172 33.1265 130.162 33.1419 130.162H33.3364C33.3569 130.162 33.3672 130.177 33.3672 130.193C33.3723 130.208 33.3569 130.224 33.3364 130.224ZM32.6863 130.224H32.4917C32.4713 130.224 32.461 130.208 32.461 130.193C32.461 130.172 32.4764 130.162 32.4917 130.162H32.6863C32.7068 130.162 32.717 130.177 32.717 130.193C32.7221 130.208 32.7068 130.224 32.6863 130.224ZM32.0361 130.224H31.8416C31.8211 130.224 31.8109 130.208 31.8109 130.193C31.8109 130.172 31.8262 130.162 31.8416 130.162H32.0361C32.0566 130.162 32.0668 130.177 32.0668 130.193C32.072 130.208 32.0566 130.224 32.0361 130.224ZM31.386 130.224H31.1914C31.171 130.224 31.1607 130.208 31.1607 130.193C31.1607 130.172 31.1761 130.162 31.1914 130.162H31.386C31.4064 130.162 31.4167 130.177 31.4167 130.193C31.4218 130.208 31.4064 130.224 31.386 130.224ZM30.7409 130.224H30.5464C30.5259 130.224 30.5157 130.208 30.5157 130.193C30.5157 130.172 30.531 130.162 30.5464 130.162H30.7409C30.7614 130.162 30.7716 130.177 30.7716 130.193C30.7716 130.208 30.7563 130.224 30.7409 130.224ZM30.0908 130.224H29.8962C29.8758 130.224 29.8655 130.208 29.8655 130.193C29.8655 130.172 29.8809 130.162 29.8962 130.162H30.0908C30.1112 130.162 30.1215 130.177 30.1215 130.193C30.1215 130.208 30.1061 130.224 30.0908 130.224ZM29.4406 130.224H29.2461C29.2256 130.224 29.2154 130.208 29.2154 130.193C29.2154 130.172 29.2307 130.162 29.2461 130.162H29.4406C29.4611 130.162 29.4713 130.177 29.4713 130.193C29.4713 130.208 29.456 130.224 29.4406 130.224ZM28.7905 130.224H28.5959C28.5754 130.224 28.5652 130.208 28.5652 130.193C28.5652 130.172 28.5806 130.162 28.5959 130.162H28.7905C28.8109 130.162 28.8212 130.177 28.8212 130.193C28.8212 130.208 28.8058 130.224 28.7905 130.224ZM28.1403 130.224H27.9458C27.9253 130.224 27.915 130.208 27.915 130.193C27.915 130.172 27.9304 130.162 27.9458 130.162H28.1403C28.1608 130.162 28.171 130.177 28.171 130.193C28.171 130.208 28.1557 130.224 28.1403 130.224ZM27.4901 130.224H27.2956C27.2751 130.224 27.2649 130.208 27.2649 130.193C27.2649 130.172 27.2802 130.162 27.2956 130.162H27.4901C27.5106 130.162 27.5209 130.177 27.5209 130.193C27.5209 130.208 27.5055 130.224 27.4901 130.224ZM26.84 130.224H26.6455C26.625 130.224 26.6147 130.208 26.6147 130.193C26.6147 130.172 26.6301 130.162 26.6455 130.162H26.84C26.8605 130.162 26.8707 130.177 26.8707 130.193C26.8707 130.208 26.8605 130.224 26.84 130.224ZM26.1898 130.224H25.9953C25.9748 130.224 25.9646 130.208 25.9646 130.193C25.9646 130.172 25.9799 130.162 25.9953 130.162H26.1898C26.2103 130.162 26.2205 130.177 26.2205 130.193C26.2257 130.208 26.2103 130.224 26.1898 130.224ZM25.5397 130.224H25.3451C25.3247 130.224 25.3144 130.208 25.3144 130.193C25.3144 130.172 25.3298 130.162 25.3451 130.162H25.5397C25.5601 130.162 25.5704 130.177 25.5704 130.193C25.5755 130.208 25.5601 130.224 25.5397 130.224ZM24.8895 130.224H24.695C24.6745 130.224 24.6643 130.208 24.6643 130.193C24.6643 130.172 24.6796 130.162 24.695 130.162H24.8895C24.91 130.162 24.9202 130.177 24.9202 130.193C24.9254 130.208 24.91 130.224 24.8895 130.224ZM24.2394 130.224H24.0448C24.0243 130.224 24.0141 130.208 24.0141 130.193C24.0141 130.172 24.0295 130.162 24.0448 130.162H24.2394C24.2598 130.162 24.2701 130.177 24.2701 130.193C24.2752 130.208 24.2598 130.224 24.2394 130.224ZM23.5943 130.224H23.3998C23.3793 130.224 23.3691 130.208 23.3691 130.193C23.3691 130.172 23.3844 130.162 23.3998 130.162H23.5943C23.6148 130.162 23.625 130.177 23.625 130.193C23.625 130.208 23.6097 130.224 23.5943 130.224ZM22.9442 130.224H22.7496C22.7292 130.224 22.7189 130.208 22.7189 130.193C22.7189 130.172 22.7343 130.162 22.7496 130.162H22.9442C22.9646 130.162 22.9749 130.177 22.9749 130.193C22.9749 130.208 22.9595 130.224 22.9442 130.224ZM22.294 130.224H22.0995C22.079 130.224 22.0688 130.208 22.0688 130.193C22.0688 130.172 22.0841 130.162 22.0995 130.162H22.294C22.3145 130.162 22.3247 130.177 22.3247 130.193C22.3247 130.208 22.3094 130.224 22.294 130.224ZM21.6439 130.224H21.4493C21.4288 130.224 21.4186 130.208 21.4186 130.193C21.4186 130.172 21.434 130.162 21.4493 130.162H21.6439C21.6643 130.162 21.6746 130.177 21.6746 130.193C21.6746 130.208 21.6592 130.224 21.6439 130.224ZM20.9937 130.224H20.7992C20.7787 130.224 20.7684 130.208 20.7684 130.193C20.7684 130.172 20.7838 130.162 20.7992 130.162H20.9937C21.0142 130.162 21.0244 130.177 21.0244 130.193C21.0244 130.208 21.0091 130.224 20.9937 130.224ZM20.3435 130.224H20.149C20.1285 130.224 20.1183 130.208 20.1183 130.193C20.1183 130.172 20.1336 130.162 20.149 130.162H20.3435C20.364 130.162 20.3743 130.177 20.3743 130.193C20.3743 130.208 20.3589 130.224 20.3435 130.224ZM19.6934 130.224H19.4988C19.4784 130.224 19.4681 130.208 19.4681 130.193C19.4681 130.172 19.4835 130.162 19.4988 130.162H19.6934C19.7139 130.162 19.7241 130.177 19.7241 130.193C19.7241 130.208 19.7139 130.224 19.6934 130.224ZM19.0432 130.224H18.8487C18.8282 130.224 18.818 130.208 18.818 130.193C18.818 130.172 18.8333 130.162 18.8487 130.162H19.0432C19.0637 130.162 19.0739 130.177 19.0739 130.193C19.0739 130.208 19.0637 130.224 19.0432 130.224ZM18.3931 130.224H18.1985C18.1781 130.224 18.1678 130.208 18.1678 130.193C18.1678 130.172 18.1832 130.162 18.1985 130.162H18.3931C18.4135 130.162 18.4238 130.177 18.4238 130.193C18.4289 130.208 18.4135 130.224 18.3931 130.224ZM17.7429 130.224H17.5484C17.5279 130.224 17.5177 130.208 17.5177 130.193C17.5177 130.172 17.533 130.162 17.5484 130.162H17.7429C17.7634 130.162 17.7736 130.177 17.7736 130.193C17.7787 130.208 17.7634 130.224 17.7429 130.224ZM17.0927 130.224H16.8982C16.8777 130.224 16.8675 130.208 16.8675 130.193C16.8675 130.172 16.8829 130.162 16.8982 130.162H17.0927C17.1132 130.162 17.1235 130.177 17.1235 130.193C17.1286 130.208 17.1132 130.224 17.0927 130.224ZM16.4426 130.224H16.2481C16.2276 130.224 16.2173 130.208 16.2173 130.193C16.2173 130.172 16.2327 130.162 16.2481 130.162H16.4426C16.4631 130.162 16.4733 130.177 16.4733 130.193C16.4784 130.208 16.4631 130.224 16.4426 130.224ZM15.7976 130.224H15.603C15.5825 130.224 15.5723 130.208 15.5723 130.193C15.5723 130.172 15.5877 130.162 15.603 130.162H15.7976C15.818 130.162 15.8283 130.177 15.8283 130.193C15.8283 130.208 15.8129 130.224 15.7976 130.224ZM15.1474 130.224H14.9529C14.9324 130.224 14.9221 130.208 14.9221 130.193C14.9221 130.172 14.9375 130.162 14.9529 130.162H15.1474C15.1679 130.162 15.1781 130.177 15.1781 130.193C15.1781 130.208 15.1628 130.224 15.1474 130.224ZM14.4972 130.224H14.3027C14.2822 130.224 14.272 130.208 14.272 130.193C14.272 130.172 14.2873 130.162 14.3027 130.162H14.4972C14.5177 130.162 14.528 130.177 14.528 130.193C14.528 130.208 14.5126 130.224 14.4972 130.224ZM13.8471 130.224H13.6525C13.6321 130.224 13.6218 130.208 13.6218 130.193C13.6218 130.172 13.6372 130.162 13.6525 130.162H13.8471C13.8676 130.162 13.8778 130.177 13.8778 130.193C13.8778 130.208 13.8624 130.224 13.8471 130.224ZM13.1969 130.224H13.0024C12.9819 130.224 12.9717 130.208 12.9717 130.193C12.9717 130.172 12.987 130.162 13.0024 130.162H13.1969C13.2174 130.162 13.2276 130.177 13.2276 130.193C13.2276 130.208 13.2123 130.224 13.1969 130.224ZM12.5468 130.224H12.3522C12.3318 130.224 12.3215 130.208 12.3215 130.193C12.3215 130.172 12.3369 130.162 12.3522 130.162H12.5468C12.5672 130.162 12.5775 130.177 12.5775 130.193C12.5775 130.208 12.5621 130.224 12.5468 130.224ZM11.8966 130.224H11.7021C11.6816 130.224 11.6714 130.208 11.6714 130.193C11.6714 130.172 11.6867 130.162 11.7021 130.162H11.8966C11.9171 130.162 11.9273 130.177 11.9273 130.193C11.9273 130.208 11.9171 130.224 11.8966 130.224ZM11.2465 130.224H11.0519C11.0314 130.224 11.0212 130.208 11.0212 130.193C11.0212 130.172 11.0366 130.162 11.0519 130.162H11.2465C11.2669 130.162 11.2772 130.177 11.2772 130.193C11.2772 130.208 11.2669 130.224 11.2465 130.224ZM10.5963 130.224H10.4018C10.3813 130.224 10.371 130.208 10.371 130.193C10.371 130.172 10.3864 130.162 10.4018 130.162H10.5963C10.6168 130.162 10.627 130.177 10.627 130.193C10.6321 130.208 10.6168 130.224 10.5963 130.224ZM9.94614 130.224H9.75161C9.73113 130.224 9.72089 130.208 9.72089 130.193C9.72089 130.172 9.73625 130.162 9.75161 130.162H9.94614C9.96662 130.162 9.97686 130.177 9.97686 130.193C9.98198 130.208 9.96662 130.224 9.94614 130.224ZM9.29599 130.224H9.10145C9.08097 130.224 9.07074 130.208 9.07074 130.193C9.07074 130.172 9.08609 130.162 9.10145 130.162H9.29599C9.31646 130.162 9.3267 130.177 9.3267 130.193C9.33182 130.208 9.31646 130.224 9.29599 130.224ZM8.64583 130.224H8.45129C8.43082 130.224 8.42058 130.208 8.42058 130.193C8.42058 130.172 8.43594 130.162 8.45129 130.162H8.64583C8.66631 130.162 8.67655 130.177 8.67655 130.193C8.68166 130.208 8.66631 130.224 8.64583 130.224ZM8.00079 130.224H7.80626C7.78578 130.224 7.77554 130.208 7.77554 130.193C7.77554 130.172 7.7909 130.162 7.80626 130.162H8.00079C8.02127 130.162 8.03151 130.177 8.03151 130.193C8.03151 130.208 8.01615 130.224 8.00079 130.224ZM7.35064 130.224H7.1561C7.13562 130.224 7.12538 130.208 7.12538 130.193C7.12538 130.172 7.14074 130.162 7.1561 130.162H7.35064C7.37111 130.162 7.38135 130.177 7.38135 130.193C7.38135 130.208 7.36599 130.224 7.35064 130.224ZM6.70048 130.224H6.50594C6.48547 130.224 6.47523 130.208 6.47523 130.193C6.47523 130.172 6.49058 130.162 6.50594 130.162H6.70048C6.72096 130.162 6.73119 130.177 6.73119 130.193C6.73119 130.208 6.71584 130.224 6.70048 130.224ZM6.05032 130.224H5.85579C5.83531 130.224 5.82507 130.208 5.82507 130.193C5.82507 130.172 5.84043 130.162 5.85579 130.162H6.05032C6.0708 130.162 6.08104 130.177 6.08104 130.193C6.08104 130.208 6.06568 130.224 6.05032 130.224ZM5.40016 130.224H5.20563C5.18515 130.224 5.17491 130.208 5.17491 130.193C5.17491 130.172 5.19027 130.162 5.20563 130.162H5.40016C5.42064 130.162 5.43088 130.177 5.43088 130.193C5.43088 130.208 5.41552 130.224 5.40016 130.224ZM4.75001 130.224H4.55547C4.53499 130.224 4.52476 130.208 4.52476 130.193C4.52476 130.172 4.54011 130.162 4.55547 130.162H4.75001C4.77048 130.162 4.78072 130.177 4.78072 130.193C4.78072 130.208 4.77048 130.224 4.75001 130.224ZM4.09985 130.224H3.90531C3.88484 130.224 3.8746 130.208 3.8746 130.193C3.8746 130.172 3.88996 130.162 3.90531 130.162H4.09985C4.12033 130.162 4.13057 130.177 4.13057 130.193C4.13057 130.208 4.12033 130.224 4.09985 130.224ZM3.44969 130.224H3.25516C3.23468 130.224 3.22444 130.208 3.22444 130.193C3.22444 130.172 3.2398 130.162 3.25516 130.162H3.44969C3.47017 130.162 3.48041 130.177 3.48041 130.193C3.48553 130.208 3.47017 130.224 3.44969 130.224ZM2.79954 130.224H2.605C2.58452 130.224 2.57429 130.208 2.57429 130.193C2.57429 130.172 2.58964 130.162 2.605 130.162H2.79954C2.82001 130.162 2.83025 130.177 2.83025 130.193C2.83537 130.208 2.82001 130.224 2.79954 130.224ZM2.14938 130.224H1.95484C1.93437 130.224 1.92413 130.208 1.92413 130.193C1.92413 130.172 1.93949 130.162 1.95484 130.162H2.14938C2.16986 130.162 2.1801 130.177 2.1801 130.193C2.18521 130.208 2.16986 130.224 2.14938 130.224Z" fill="white"/>
<path d="M8.43555 122.064L8.51746 121.203C8.6096 120.998 8.79902 120.849 9.01915 120.813C9.85361 120.68 11.9218 120.449 12.915 121.192L13.0634 122.198L8.43555 122.064Z" fill="#2CB6BF"/>
<path d="M11.0413 121.233C10.8519 121.28 10.6573 121.28 10.4628 121.233C10.2273 121.177 10.0635 120.967 10.0635 120.726V118.023H11.4355V120.726C11.4406 120.967 11.2768 121.177 11.0413 121.233Z" fill="#2CB6BF"/>
<path d="M21.7402 122.064L21.8221 121.203C21.9143 120.998 22.1037 120.849 22.3238 120.813C23.1583 120.68 25.2265 120.449 26.2197 121.192L26.3681 122.198L21.7402 122.064Z" fill="#2CB6BF"/>
<path d="M24.3413 121.233C24.1519 121.28 23.9574 121.28 23.7628 121.233C23.5273 121.177 23.3635 120.967 23.3635 120.726V117.736H24.7355V120.721C24.7406 120.967 24.5768 121.177 24.3413 121.233Z" fill="#2CB6BF"/>
<path d="M9.93132 118.69L24.7006 118.203C25.0385 118.192 25.3252 117.946 25.3815 117.618C25.4634 117.156 25.5351 116.459 25.4276 115.741C25.3047 114.925 24.6034 114.315 23.774 114.295C21.0198 114.228 14.0063 114.233 10.1412 115.761C9.73167 115.925 9.42963 116.274 9.32724 116.7C9.22997 117.105 9.16342 117.649 9.2914 118.203C9.35795 118.495 9.62928 118.7 9.93132 118.69Z" fill="#2CB6BF"/>
<path d="M9.67511 117.921C9.64439 117.921 9.61368 117.895 9.60856 117.864C9.60856 117.839 9.55225 117.285 9.69559 116.751C9.80309 116.346 10.1256 116.018 10.5352 115.9C11.3594 115.659 12.931 115.249 14.216 115.213C14.2518 115.213 14.2825 115.239 14.2825 115.274C14.2825 115.31 14.2569 115.341 14.2211 115.341C12.9515 115.377 11.3901 115.787 10.5761 116.023C10.2126 116.131 9.92596 116.423 9.82869 116.787C9.69047 117.3 9.74166 117.849 9.74166 117.854C9.74678 117.89 9.72118 117.921 9.68535 117.926C9.67511 117.921 9.67511 117.921 9.67511 117.921Z" fill="#91B3FA"/>
<path d="M1.58606 121.731C6.35729 121.67 26.9985 121.454 32.9932 122.177C33.5103 122.239 33.9301 122.618 34.0427 123.126C34.3959 124.731 35.1075 128.46 35.0256 132.152C35.0154 132.655 34.6468 133.081 34.1502 133.173L20.4662 135.763H15.6028L1.01781 132.86C0.505875 132.757 0.127044 132.322 0.0963279 131.798C-0.000939687 129.942 -0.144281 125.578 0.357415 122.772C0.464921 122.177 0.976855 121.736 1.58606 121.731Z" fill="#2CB6BF"/>
<path d="M20.3539 134.614H20.1593C20.1388 134.614 20.1286 134.599 20.1286 134.583C20.1286 134.563 20.144 134.552 20.1593 134.552H20.3539C20.3743 134.552 20.3846 134.568 20.3846 134.583C20.3846 134.599 20.3692 134.614 20.3539 134.614ZM19.7037 134.614H19.5092C19.4887 134.614 19.4784 134.599 19.4784 134.583C19.4784 134.563 19.4938 134.552 19.5092 134.552H19.7037C19.7242 134.552 19.7344 134.568 19.7344 134.583C19.7344 134.599 19.7191 134.614 19.7037 134.614ZM19.0535 134.614H18.859C18.8385 134.614 18.8283 134.599 18.8283 134.583C18.8283 134.563 18.8436 134.552 18.859 134.552H19.0535C19.074 134.552 19.0843 134.568 19.0843 134.583C19.0843 134.599 19.0689 134.614 19.0535 134.614ZM18.4034 134.614H18.2088C18.1884 134.614 18.1781 134.599 18.1781 134.583C18.1781 134.563 18.1935 134.552 18.2088 134.552H18.4034C18.4239 134.552 18.4341 134.568 18.4341 134.583C18.4341 134.599 18.4187 134.614 18.4034 134.614ZM17.7532 134.614H17.5587C17.5382 134.614 17.528 134.599 17.528 134.583C17.528 134.563 17.5433 134.552 17.5587 134.552H17.7532C17.7737 134.552 17.7839 134.568 17.7839 134.583C17.7839 134.599 17.7686 134.614 17.7532 134.614ZM17.1031 134.614H16.9085C16.8881 134.614 16.8778 134.599 16.8778 134.583C16.8778 134.563 16.8932 134.552 16.9085 134.552H17.1031C17.1235 134.552 17.1338 134.568 17.1338 134.583C17.1338 134.599 17.1235 134.614 17.1031 134.614ZM16.4529 134.614H16.2584C16.2379 134.614 16.2277 134.599 16.2277 134.583C16.2277 134.563 16.243 134.552 16.2584 134.552H16.4529C16.4734 134.552 16.4836 134.568 16.4836 134.583C16.4836 134.599 16.4734 134.614 16.4529 134.614ZM15.8028 134.614H15.7208L15.5212 134.573C15.5058 134.568 15.4905 134.552 15.4956 134.537C15.5007 134.522 15.5161 134.506 15.5314 134.511L15.7208 134.547H15.7976C15.8181 134.547 15.8284 134.563 15.8284 134.578C15.8386 134.599 15.8232 134.614 15.8028 134.614ZM20.7992 134.532C20.7839 134.532 20.7685 134.522 20.7685 134.506C20.7634 134.491 20.7788 134.47 20.7941 134.47L20.9835 134.434C20.9989 134.429 21.0194 134.445 21.0194 134.46C21.0245 134.476 21.0091 134.496 20.9938 134.496L20.8044 134.532H20.7992ZM15.0809 134.491H15.0758L14.8864 134.455C14.871 134.45 14.8557 134.434 14.8608 134.419C14.8659 134.404 14.8813 134.388 14.8966 134.393L15.086 134.429C15.1014 134.434 15.1168 134.45 15.1116 134.465C15.1116 134.476 15.0963 134.491 15.0809 134.491ZM21.4392 134.409C21.4238 134.409 21.4084 134.399 21.4084 134.383C21.4033 134.368 21.4187 134.347 21.434 134.347L21.6234 134.311C21.6388 134.306 21.6593 134.322 21.6593 134.337C21.6644 134.352 21.649 134.373 21.6337 134.373L21.4443 134.409C21.4392 134.409 21.4392 134.409 21.4392 134.409ZM14.4461 134.363H14.441L14.2516 134.327C14.2362 134.322 14.2209 134.306 14.226 134.291C14.2311 134.275 14.2465 134.26 14.2618 134.265L14.4512 134.301C14.4666 134.306 14.482 134.322 14.4768 134.337C14.4717 134.352 14.4615 134.363 14.4461 134.363ZM22.074 134.291C22.0586 134.291 22.0432 134.281 22.0432 134.265C22.0381 134.25 22.0535 134.229 22.0688 134.229L22.2582 134.193C22.2736 134.188 22.2941 134.204 22.2941 134.219C22.2992 134.234 22.2838 134.255 22.2685 134.255L22.0791 134.291C22.0791 134.291 22.0791 134.291 22.074 134.291ZM13.8062 134.234H13.8011L13.6117 134.199C13.5963 134.193 13.581 134.178 13.5861 134.163C13.5912 134.147 13.6066 134.132 13.6219 134.137L13.8113 134.173C13.8267 134.178 13.842 134.193 13.8369 134.209C13.8369 134.224 13.8216 134.234 13.8062 134.234ZM22.7139 134.168C22.6985 134.168 22.6832 134.158 22.6832 134.142C22.678 134.127 22.6934 134.106 22.7088 134.106L22.8982 134.07C22.9135 134.065 22.934 134.081 22.934 134.096C22.9391 134.111 22.9238 134.132 22.9084 134.132L22.719 134.168H22.7139ZM13.1714 134.106H13.1663L12.9769 134.07C12.9615 134.065 12.9462 134.05 12.9513 134.034C12.9564 134.019 12.9718 134.004 12.9871 134.009L13.1765 134.045C13.1919 134.05 13.2072 134.065 13.2021 134.081C13.197 134.096 13.1868 134.106 13.1714 134.106ZM23.3538 134.045C23.3384 134.045 23.3231 134.034 23.3231 134.019C23.318 134.004 23.3333 133.983 23.3487 133.983L23.5381 133.947C23.5534 133.942 23.5739 133.958 23.5739 133.973C23.579 133.988 23.5637 134.009 23.5483 134.009L23.3589 134.045C23.3538 134.045 23.3538 134.045 23.3538 134.045ZM12.5315 133.983H12.5264L12.337 133.947C12.3216 133.942 12.3062 133.927 12.3114 133.911C12.3165 133.896 12.3318 133.881 12.3472 133.886L12.5366 133.922C12.552 133.927 12.5673 133.942 12.5622 133.958C12.5622 133.968 12.5468 133.983 12.5315 133.983ZM23.9886 133.927C23.9732 133.927 23.9579 133.916 23.9579 133.901C23.9528 133.886 23.9681 133.865 23.9835 133.865L24.1729 133.829C24.1882 133.824 24.2087 133.84 24.2087 133.855C24.2138 133.87 24.1985 133.891 24.1831 133.891L23.9937 133.927C23.9937 133.927 23.9937 133.927 23.9886 133.927ZM11.8967 133.855H11.8916L11.7022 133.819C11.6868 133.814 11.6714 133.799 11.6766 133.783C11.6817 133.768 11.697 133.752 11.7124 133.758L11.9018 133.793C11.9172 133.799 11.9325 133.814 11.9274 133.829C11.9223 133.845 11.9121 133.855 11.8967 133.855ZM24.6285 133.804C24.6131 133.804 24.5978 133.793 24.5978 133.778C24.5927 133.763 24.608 133.742 24.6234 133.742L24.8128 133.706C24.8282 133.701 24.8486 133.716 24.8486 133.732C24.8538 133.747 24.8384 133.768 24.823 133.768L24.6336 133.804H24.6285ZM11.2568 133.727H11.2517L11.0622 133.691C11.0469 133.686 11.0315 133.67 11.0366 133.655C11.0418 133.64 11.0571 133.624 11.0725 133.629L11.2619 133.665C11.2773 133.67 11.2926 133.686 11.2875 133.701C11.2875 133.716 11.2721 133.727 11.2568 133.727ZM25.2684 133.686C25.2531 133.686 25.2377 133.675 25.2377 133.66C25.2326 133.645 25.2479 133.624 25.2633 133.624L25.4527 133.588C25.4681 133.583 25.4886 133.599 25.4886 133.614C25.4937 133.629 25.4783 133.65 25.463 133.65L25.2735 133.686H25.2684ZM10.622 133.599H10.6169L10.4274 133.563C10.4121 133.558 10.3967 133.542 10.4018 133.527C10.407 133.511 10.4223 133.496 10.4377 133.501L10.6271 133.537C10.6425 133.542 10.6578 133.558 10.6527 133.573C10.6476 133.588 10.6373 133.599 10.622 133.599ZM25.9032 133.563C25.8879 133.563 25.8725 133.552 25.8725 133.537C25.8674 133.522 25.8827 133.501 25.8981 133.501L26.0875 133.465C26.1029 133.46 26.1234 133.475 26.1234 133.491C26.1285 133.506 26.1131 133.527 26.0978 133.527L25.9083 133.563C25.9083 133.563 25.9083 133.563 25.9032 133.563ZM9.98206 133.475H9.97694L9.78752 133.44C9.77216 133.434 9.75681 133.419 9.76192 133.404C9.76704 133.388 9.7824 133.373 9.79776 133.378L9.98718 133.414C10.0025 133.419 10.0179 133.434 10.0128 133.45C10.0128 133.46 9.99741 133.475 9.98206 133.475ZM26.5431 133.44C26.5278 133.44 26.5124 133.429 26.5124 133.414C26.5073 133.399 26.5227 133.378 26.538 133.378L26.7274 133.342C26.7428 133.337 26.7633 133.352 26.7633 133.368C26.7684 133.383 26.753 133.404 26.7377 133.404L26.5483 133.44C26.5483 133.44 26.5483 133.44 26.5431 133.44ZM9.34726 133.347H9.34214L9.15272 133.311C9.13736 133.306 9.12201 133.291 9.12713 133.275C9.13224 133.26 9.1476 133.245 9.16296 133.25L9.35238 133.286C9.36773 133.291 9.38309 133.306 9.37797 133.322C9.37285 133.337 9.36262 133.347 9.34726 133.347ZM27.1831 133.322C27.1677 133.322 27.1523 133.311 27.1523 133.296C27.1472 133.281 27.1626 133.26 27.1779 133.26L27.3674 133.224C27.3827 133.219 27.4032 133.234 27.4032 133.25C27.4083 133.265 27.393 133.286 27.3776 133.286L27.1882 133.322H27.1831ZM8.70734 133.219H8.70222L8.5128 133.183C8.49745 133.178 8.48209 133.163 8.48721 133.147C8.49233 133.132 8.50768 133.116 8.52304 133.122L8.71246 133.157C8.72782 133.163 8.74318 133.178 8.73806 133.193C8.73806 133.209 8.7227 133.219 8.70734 133.219ZM27.823 133.199C27.8076 133.199 27.7923 133.188 27.7923 133.173C27.7871 133.157 27.8025 133.137 27.8179 133.137L28.0073 133.101C28.0226 133.096 28.0431 133.111 28.0431 133.127C28.0482 133.142 28.0329 133.163 28.0175 133.163L27.8281 133.199C27.823 133.199 27.823 133.199 27.823 133.199ZM8.07254 133.091H8.06742L7.87801 133.055C7.86265 133.05 7.84729 133.034 7.85241 133.019C7.85753 133.004 7.87289 132.988 7.88824 132.993L8.07766 133.029C8.09302 133.034 8.10838 133.05 8.10326 133.065C8.09814 133.081 8.0879 133.091 8.07254 133.091ZM28.4578 133.081C28.4424 133.081 28.4271 133.07 28.4271 133.055C28.4219 133.04 28.4373 133.019 28.4527 133.019L28.6421 132.983C28.6574 132.978 28.6779 132.993 28.6779 133.009C28.683 133.024 28.6677 133.045 28.6523 133.045L28.4629 133.081C28.4629 133.081 28.4629 133.081 28.4578 133.081ZM7.43262 132.968H7.4275L7.23809 132.932C7.22273 132.927 7.20737 132.911 7.21249 132.896C7.21761 132.881 7.23297 132.865 7.24833 132.87L7.43774 132.906C7.4531 132.911 7.46846 132.927 7.46334 132.942C7.46334 132.957 7.44798 132.968 7.43262 132.968ZM29.0977 132.957C29.0823 132.957 29.067 132.947 29.067 132.932C29.0619 132.916 29.0772 132.896 29.0926 132.896L29.282 132.86C29.2973 132.855 29.3178 132.87 29.3178 132.886C29.3229 132.901 29.3076 132.922 29.2922 132.922L29.1028 132.957H29.0977ZM6.79782 132.84H6.7927L6.60329 132.804C6.58793 132.798 6.57257 132.783 6.57769 132.768C6.58281 132.752 6.59817 132.737 6.61353 132.742L6.80294 132.778C6.8183 132.783 6.83366 132.798 6.82854 132.814C6.82854 132.829 6.81318 132.84 6.79782 132.84ZM29.7376 132.84C29.7223 132.84 29.7069 132.829 29.7069 132.814C29.7018 132.798 29.7171 132.778 29.7325 132.778L29.9219 132.742C29.9373 132.737 29.9577 132.752 29.9577 132.768C29.9629 132.783 29.9475 132.804 29.9321 132.804L29.7427 132.84C29.7376 132.834 29.7376 132.84 29.7376 132.84ZM30.3724 132.716C30.3571 132.716 30.3417 132.706 30.3417 132.691C30.3366 132.675 30.3519 132.655 30.3673 132.655L30.5567 132.619C30.5721 132.614 30.5925 132.629 30.5925 132.645C30.5977 132.66 30.5823 132.681 30.5669 132.681L30.3775 132.716C30.3775 132.716 30.3775 132.716 30.3724 132.716ZM6.1579 132.711H6.15278L5.96337 132.675C5.94801 132.67 5.93265 132.655 5.93777 132.64C5.94289 132.624 5.95825 132.609 5.97361 132.614L6.16302 132.65C6.17838 132.655 6.19374 132.67 6.18862 132.686C6.18862 132.701 6.17326 132.711 6.1579 132.711ZM31.0123 132.593C30.997 132.593 30.9816 132.583 30.9816 132.568C30.9765 132.552 30.9918 132.532 31.0072 132.532L31.1966 132.496C31.212 132.491 31.2325 132.506 31.2325 132.522C31.2376 132.537 31.2222 132.557 31.2069 132.557L31.0174 132.593H31.0123ZM5.52311 132.583H5.51799L5.32857 132.547C5.31321 132.542 5.29785 132.527 5.30297 132.511C5.30809 132.496 5.32345 132.481 5.33881 132.486L5.52822 132.522C5.54358 132.527 5.55894 132.542 5.55382 132.557C5.55382 132.573 5.53846 132.583 5.52311 132.583ZM31.6522 132.475C31.6369 132.475 31.6215 132.465 31.6215 132.45C31.6164 132.434 31.6318 132.414 31.6471 132.414L31.8365 132.378C31.8519 132.373 31.8724 132.388 31.8724 132.404C31.8775 132.419 31.8621 132.439 31.8468 132.439L31.6574 132.475H31.6522ZM4.88319 132.46H4.87807L4.68865 132.424C4.67329 132.419 4.65794 132.404 4.66306 132.388C4.66817 132.373 4.68353 132.357 4.69889 132.363L4.88831 132.398C4.90366 132.404 4.91902 132.419 4.9139 132.434C4.9139 132.45 4.89855 132.46 4.88319 132.46ZM32.287 132.352C32.2717 132.352 32.2563 132.342 32.2563 132.327C32.2512 132.311 32.2666 132.291 32.2819 132.291L32.4713 132.255C32.4867 132.25 32.5072 132.265 32.5072 132.281C32.5123 132.296 32.4969 132.316 32.4816 132.316L32.2922 132.352C32.2922 132.352 32.2922 132.352 32.287 132.352ZM4.24839 132.332H4.24327L4.05385 132.296C4.0385 132.291 4.02314 132.275 4.02826 132.26C4.03338 132.245 4.04873 132.229 4.06409 132.234L4.25351 132.27C4.26887 132.275 4.28422 132.291 4.2791 132.306C4.2791 132.322 4.26375 132.332 4.24839 132.332ZM32.927 132.234C32.9116 132.234 32.8962 132.224 32.8962 132.209C32.8911 132.193 32.9065 132.173 32.9218 132.173L33.1113 132.137C33.1266 132.132 33.1471 132.147 33.1471 132.163C33.1522 132.178 33.1369 132.198 33.1215 132.198L32.9321 132.234C32.9321 132.234 32.9321 132.234 32.927 132.234ZM3.61359 132.204H3.60847L3.41905 132.168C3.4037 132.163 3.38834 132.147 3.39346 132.132C3.39858 132.116 3.41393 132.101 3.42929 132.106L3.61871 132.142C3.63407 132.147 3.64942 132.163 3.64431 132.178C3.63919 132.193 3.62383 132.204 3.61359 132.204ZM33.5669 132.111C33.5515 132.111 33.5362 132.101 33.5362 132.086C33.531 132.07 33.5464 132.05 33.5618 132.05L33.7512 132.014C33.7665 132.009 33.787 132.024 33.787 132.039C33.7921 132.055 33.7768 132.075 33.7614 132.075L33.572 132.111H33.5669ZM2.97367 132.075H2.96855L2.77914 132.039C2.76378 132.034 2.74842 132.019 2.75354 132.004C2.75866 131.988 2.77402 131.973 2.78937 131.978L2.97879 132.014C2.99415 132.019 3.00951 132.034 3.00439 132.05C3.00439 132.065 2.98903 132.075 2.97367 132.075ZM2.33887 131.952H2.33375L2.14434 131.916C2.12898 131.911 2.11362 131.896 2.11874 131.88C2.12386 131.865 2.13922 131.85 2.15458 131.855L2.34399 131.891C2.35935 131.896 2.37471 131.911 2.36959 131.927C2.36447 131.942 2.35423 131.952 2.33887 131.952ZM1.69895 131.824H1.69383L1.50442 131.788C1.48906 131.783 1.4737 131.768 1.47882 131.752C1.48394 131.737 1.4993 131.721 1.51466 131.727L1.70407 131.763C1.71943 131.768 1.73479 131.783 1.72967 131.798C1.72967 131.814 1.71431 131.824 1.69895 131.824ZM33.8536 131.696C33.8331 131.696 33.8228 131.68 33.8228 131.665V131.547V131.47C33.8228 131.45 33.8382 131.439 33.8536 131.439C33.8689 131.439 33.8843 131.455 33.8843 131.47V131.547V131.665C33.8843 131.68 33.8689 131.696 33.8536 131.696ZM1.26381 131.521C1.24845 131.521 1.23309 131.506 1.23309 131.491C1.22797 131.429 1.22797 131.362 1.22285 131.296C1.22285 131.275 1.23821 131.265 1.25357 131.26C1.27405 131.26 1.28429 131.275 1.28941 131.291C1.29453 131.357 1.29453 131.424 1.29965 131.486C1.29965 131.506 1.28429 131.521 1.26381 131.521C1.26893 131.521 1.26893 131.521 1.26381 131.521ZM33.8484 131.045C33.8331 131.045 33.8177 131.029 33.8177 131.014C33.8177 130.947 33.8126 130.886 33.8126 130.819C33.8126 130.798 33.828 130.788 33.8433 130.783C33.8638 130.783 33.874 130.798 33.8792 130.814C33.8792 130.88 33.8843 130.942 33.8843 131.009C33.8792 131.029 33.8638 131.045 33.8484 131.045ZM1.23821 130.87C1.22285 130.87 1.2075 130.855 1.2075 130.839L1.20238 130.644C1.20238 130.624 1.21774 130.614 1.23309 130.609C1.24845 130.609 1.26381 130.624 1.26893 130.639L1.27405 130.834C1.26893 130.855 1.25869 130.87 1.23821 130.87ZM33.828 130.393C33.8126 130.393 33.7973 130.378 33.7973 130.362C33.7921 130.296 33.7921 130.234 33.787 130.168C33.787 130.147 33.8024 130.137 33.8177 130.132C33.8331 130.132 33.8484 130.147 33.8536 130.162C33.8587 130.229 33.8587 130.291 33.8638 130.357C33.8587 130.378 33.8484 130.393 33.828 130.393ZM1.21774 130.219C1.20238 130.219 1.18702 130.203 1.18702 130.188L1.1819 129.993C1.1819 129.973 1.19726 129.962 1.21262 129.957C1.23309 129.957 1.24333 129.973 1.24845 129.988L1.25357 130.183C1.24845 130.203 1.23309 130.219 1.21774 130.219ZM33.7921 129.742C33.7768 129.742 33.7614 129.726 33.7614 129.711C33.7563 129.644 33.7512 129.583 33.7512 129.516C33.7512 129.496 33.7614 129.48 33.7819 129.48C33.8024 129.48 33.8177 129.491 33.8177 129.511C33.8228 129.578 33.828 129.639 33.828 129.706C33.828 129.726 33.8126 129.742 33.7921 129.742C33.7973 129.742 33.7973 129.742 33.7921 129.742ZM1.19726 129.568C1.1819 129.568 1.16654 129.552 1.16654 129.537L1.16142 129.342C1.16142 129.321 1.17678 129.311 1.19214 129.311C1.2075 129.311 1.22285 129.326 1.22285 129.342L1.22797 129.537C1.23309 129.552 1.21774 129.568 1.19726 129.568ZM33.7461 129.096C33.7307 129.096 33.7153 129.08 33.7153 129.065C33.7102 128.998 33.7051 128.937 33.7 128.87C33.7 128.855 33.7102 128.834 33.7307 128.834C33.7461 128.834 33.7665 128.844 33.7665 128.865C33.7717 128.932 33.7768 128.993 33.7819 129.06C33.7819 129.075 33.7665 129.091 33.7461 129.096C33.7512 129.096 33.7512 129.096 33.7461 129.096ZM1.18702 128.916C1.17166 128.916 1.1563 128.901 1.1563 128.885V128.691C1.1563 128.67 1.17166 128.66 1.18702 128.66C1.20238 128.66 1.21774 128.675 1.21774 128.691V128.885C1.22285 128.901 1.2075 128.916 1.18702 128.916ZM33.6897 128.444C33.6744 128.444 33.659 128.434 33.659 128.414C33.6539 128.347 33.6437 128.285 33.6386 128.219C33.6386 128.203 33.6488 128.183 33.6693 128.183C33.6897 128.183 33.7051 128.193 33.7051 128.214C33.7102 128.28 33.7205 128.342 33.7256 128.408C33.7256 128.429 33.7102 128.444 33.6897 128.444C33.6949 128.444 33.6897 128.444 33.6897 128.444ZM1.1819 128.265C1.16142 128.265 1.15118 128.249 1.15118 128.234V128.121V128.039C1.15118 128.019 1.16654 128.008 1.1819 128.008C1.20238 128.008 1.21262 128.024 1.21262 128.039V128.121V128.234C1.21774 128.249 1.20238 128.265 1.1819 128.265ZM33.6232 127.798C33.6078 127.798 33.5925 127.788 33.5925 127.767C33.5874 127.701 33.5771 127.639 33.572 127.573C33.572 127.557 33.5822 127.537 33.6027 127.537C33.6232 127.537 33.6386 127.547 33.6386 127.567C33.6488 127.634 33.6539 127.696 33.659 127.762C33.6539 127.778 33.6437 127.798 33.6232 127.798ZM1.18702 127.614C1.16654 127.614 1.1563 127.598 1.1563 127.583C1.1563 127.516 1.1563 127.455 1.1563 127.388C1.1563 127.372 1.17166 127.357 1.18702 127.357C1.2075 127.357 1.21774 127.372 1.21774 127.388C1.21774 127.455 1.21774 127.516 1.21774 127.583C1.21774 127.603 1.20238 127.614 1.18702 127.614ZM33.5413 127.152C33.5259 127.152 33.5106 127.142 33.5106 127.121C33.5003 127.055 33.4952 126.993 33.485 126.926C33.485 126.911 33.4952 126.89 33.5106 126.89C33.531 126.89 33.5464 126.901 33.5464 126.916C33.5566 126.983 33.5618 127.044 33.572 127.111C33.5771 127.131 33.5669 127.147 33.5413 127.152C33.5464 127.152 33.5464 127.152 33.5413 127.152ZM1.19726 126.967C1.17678 126.967 1.16654 126.952 1.16654 126.937C1.16654 126.87 1.17166 126.808 1.17166 126.742C1.17166 126.721 1.18702 126.711 1.2075 126.711C1.22797 126.711 1.23821 126.726 1.23821 126.747C1.23821 126.813 1.23309 126.875 1.23309 126.942C1.22797 126.952 1.21262 126.967 1.19726 126.967ZM33.4543 126.506C33.4389 126.506 33.4235 126.496 33.4235 126.48C33.4133 126.413 33.4031 126.352 33.3928 126.285C33.3877 126.27 33.4031 126.249 33.4184 126.249C33.4338 126.249 33.4543 126.26 33.4543 126.275C33.4645 126.337 33.4747 126.403 33.485 126.47C33.4901 126.485 33.4747 126.506 33.4543 126.506C33.4594 126.506 33.4543 126.506 33.4543 126.506ZM1.21262 126.316C1.19214 126.316 1.1819 126.301 1.1819 126.28C1.1819 126.213 1.18702 126.152 1.18702 126.085C1.18702 126.065 1.20238 126.054 1.22285 126.054C1.24333 126.054 1.25357 126.07 1.25357 126.09C1.24845 126.157 1.24845 126.219 1.24845 126.285C1.24845 126.301 1.23309 126.316 1.21262 126.316ZM33.357 125.865C33.3416 125.865 33.3263 125.854 33.3263 125.839C33.316 125.772 33.3058 125.711 33.2956 125.644C33.2904 125.629 33.3058 125.608 33.3212 125.608C33.3416 125.603 33.357 125.619 33.357 125.634C33.3672 125.695 33.3775 125.762 33.3877 125.829C33.3928 125.844 33.3775 125.865 33.3621 125.865C33.357 125.865 33.357 125.865 33.357 125.865ZM1.24333 125.665C1.22285 125.665 1.2075 125.649 1.21262 125.629C1.21774 125.562 1.21774 125.501 1.22285 125.434C1.22285 125.413 1.23821 125.403 1.25869 125.403C1.27917 125.403 1.28941 125.419 1.28941 125.439C1.28429 125.506 1.28429 125.567 1.27917 125.634C1.27405 125.649 1.25869 125.665 1.24333 125.665ZM33.2495 125.219C33.2341 125.219 33.2188 125.208 33.2188 125.193C33.2085 125.126 33.1983 125.065 33.1829 125.003C33.1778 124.988 33.1932 124.967 33.2085 124.967C33.2239 124.962 33.2444 124.977 33.2444 124.993C33.2546 125.054 33.2648 125.121 33.2802 125.188C33.2853 125.203 33.27 125.224 33.2546 125.224C33.2495 125.219 33.2495 125.219 33.2495 125.219ZM1.28429 125.013C1.26381 125.013 1.24845 124.998 1.25357 124.977C1.25869 124.911 1.26381 124.849 1.26893 124.783C1.26893 124.767 1.28429 124.752 1.30476 124.752C1.32012 124.752 1.33548 124.767 1.33548 124.788C1.33036 124.854 1.32524 124.916 1.32012 124.983C1.315 124.998 1.29965 125.013 1.28429 125.013ZM33.1317 124.583C33.1164 124.583 33.101 124.572 33.101 124.557C33.0908 124.49 33.0754 124.429 33.0652 124.367C33.0601 124.352 33.0754 124.331 33.0908 124.331C33.1061 124.326 33.1266 124.342 33.1266 124.357C33.1369 124.418 33.1522 124.485 33.1625 124.547C33.1676 124.562 33.1522 124.583 33.1369 124.583C33.1369 124.577 33.1317 124.583 33.1317 124.583ZM1.3406 124.367C1.3406 124.367 1.33548 124.367 1.3406 124.367C1.32012 124.367 1.30476 124.352 1.30988 124.331C1.315 124.265 1.32524 124.203 1.33036 124.136C1.33036 124.121 1.34572 124.106 1.3662 124.106C1.38155 124.106 1.39691 124.121 1.39691 124.142C1.39179 124.208 1.38155 124.27 1.37644 124.336C1.37132 124.352 1.35596 124.367 1.3406 124.367ZM33.0038 123.942C32.9884 123.942 32.973 123.931 32.973 123.916C32.9577 123.849 32.9474 123.788 32.9321 123.726C32.927 123.711 32.9372 123.69 32.9577 123.685C32.973 123.68 32.9935 123.69 32.9986 123.711C33.014 123.772 33.0242 123.834 33.0396 123.9C33.0447 123.916 33.0345 123.936 33.014 123.942C33.0089 123.942 33.0089 123.942 33.0038 123.942ZM1.41227 123.716C1.39179 123.711 1.37644 123.695 1.38155 123.68C1.39179 123.613 1.39691 123.552 1.40715 123.485C1.40715 123.47 1.42763 123.454 1.44299 123.459C1.45834 123.459 1.4737 123.48 1.46858 123.495C1.45834 123.557 1.45323 123.624 1.44299 123.69C1.44299 123.706 1.42763 123.716 1.41227 123.716ZM32.7939 123.372C32.7273 123.367 32.6608 123.357 32.5942 123.352C32.5788 123.352 32.5635 123.331 32.5635 123.316C32.5635 123.3 32.5788 123.285 32.5993 123.285C32.6659 123.29 32.7324 123.3 32.7939 123.306C32.8092 123.306 32.8246 123.326 32.8246 123.341C32.8246 123.362 32.8143 123.372 32.7939 123.372ZM32.1488 123.306C32.0823 123.3 32.0157 123.295 31.9543 123.29C31.9389 123.29 31.9236 123.275 31.9236 123.254C31.9236 123.239 31.9389 123.224 31.9594 123.224C32.026 123.229 32.0925 123.234 32.1539 123.239C32.1693 123.239 32.1847 123.254 32.1847 123.275C32.1795 123.295 32.1642 123.306 32.1488 123.306ZM31.5038 123.254C31.5038 123.254 31.4987 123.254 31.5038 123.254C31.4372 123.249 31.3707 123.244 31.3092 123.239C31.2939 123.239 31.2785 123.224 31.2785 123.203C31.2785 123.188 31.2939 123.172 31.3144 123.172C31.3809 123.177 31.4475 123.182 31.5089 123.188C31.5243 123.188 31.5396 123.203 31.5396 123.224C31.5345 123.239 31.5191 123.254 31.5038 123.254ZM30.8536 123.208L30.6591 123.198C30.6437 123.198 30.6284 123.182 30.6284 123.162C30.6284 123.147 30.6437 123.131 30.6642 123.131L30.8587 123.141C30.8741 123.141 30.8895 123.157 30.8895 123.177C30.8843 123.193 30.869 123.208 30.8536 123.208ZM30.2035 123.167L30.0089 123.157C29.9885 123.157 29.9782 123.141 29.9782 123.121C29.9782 123.1 29.9936 123.09 30.0141 123.09L30.2086 123.1C30.2239 123.1 30.2393 123.116 30.2393 123.136C30.2393 123.152 30.224 123.167 30.2035 123.167ZM29.5584 123.131C29.5584 123.131 29.5533 123.131 29.5584 123.131L29.3639 123.121C29.3434 123.121 29.3332 123.106 29.3332 123.085C29.3332 123.07 29.3485 123.054 29.369 123.054L29.5636 123.065C29.5789 123.065 29.5943 123.08 29.5943 123.1C29.5891 123.121 29.5738 123.131 29.5584 123.131ZM28.9083 123.1L28.7137 123.09C28.6933 123.09 28.683 123.075 28.683 123.054C28.683 123.034 28.6984 123.024 28.7189 123.024L28.9134 123.034C28.9339 123.034 28.9441 123.049 28.9441 123.07C28.939 123.09 28.9236 123.1 28.9083 123.1ZM28.2581 123.075L28.0636 123.07C28.0431 123.07 28.0329 123.054 28.0329 123.034C28.0329 123.013 28.0482 123.003 28.0687 123.003L28.2632 123.008C28.2837 123.008 28.294 123.024 28.294 123.044C28.2888 123.059 28.2735 123.075 28.2581 123.075ZM1.50954 123.075H1.50442C1.48906 123.07 1.4737 123.054 1.47882 123.039L1.48906 122.977C1.4993 122.921 1.54537 122.88 1.60169 122.88H1.61704C1.63752 122.875 1.64776 122.895 1.64776 122.911C1.64776 122.926 1.6324 122.941 1.61704 122.941H1.60169C1.57609 122.941 1.55561 122.957 1.55049 122.982L1.54025 123.044C1.54025 123.065 1.5249 123.075 1.50954 123.075ZM27.608 123.049L27.4134 123.044C27.393 123.044 27.3827 123.029 27.3827 123.008C27.3827 122.988 27.3981 122.977 27.4185 122.977L27.6131 122.982C27.6336 122.982 27.6438 122.998 27.6438 123.018C27.6387 123.039 27.6284 123.049 27.608 123.049ZM26.9578 123.029L26.7633 123.024C26.7428 123.024 26.7326 123.008 26.7326 122.988C26.7326 122.967 26.7479 122.957 26.7684 122.957L26.9629 122.962C26.9834 122.962 26.9936 122.977 26.9936 122.998C26.9936 123.013 26.9783 123.029 26.9578 123.029ZM26.3076 123.008L26.1131 123.003C26.0926 123.003 26.0824 122.988 26.0824 122.967C26.0824 122.947 26.0978 122.936 26.1182 122.936L26.3128 122.941C26.3332 122.941 26.3435 122.957 26.3435 122.977C26.3435 122.993 26.3281 123.008 26.3076 123.008ZM25.6626 122.993C25.6626 122.993 25.6575 122.993 25.6626 122.993L25.4681 122.988C25.4476 122.988 25.4374 122.972 25.4374 122.952C25.4374 122.936 25.4476 122.921 25.4732 122.921L25.6677 122.926C25.6882 122.926 25.6984 122.941 25.6984 122.962C25.6933 122.977 25.678 122.993 25.6626 122.993ZM25.0125 122.977L24.8179 122.972C24.7974 122.972 24.7872 122.957 24.7872 122.941C24.7872 122.926 24.7974 122.911 24.8179 122.911L25.0125 122.916C25.0329 122.916 25.0432 122.931 25.0432 122.947C25.0432 122.962 25.0278 122.977 25.0125 122.977ZM24.3623 122.962L24.1678 122.957C24.1473 122.957 24.137 122.941 24.137 122.926C24.137 122.906 24.1524 122.895 24.1678 122.895L24.3623 122.9C24.3828 122.9 24.393 122.916 24.393 122.931C24.393 122.947 24.3777 122.962 24.3623 122.962ZM23.7121 122.947L23.5176 122.941C23.4971 122.941 23.4869 122.926 23.4869 122.911C23.4869 122.89 23.5022 122.875 23.5176 122.88L23.7121 122.885C23.7326 122.885 23.7429 122.9 23.7429 122.916C23.7429 122.931 23.7275 122.947 23.7121 122.947ZM2.07267 122.936C2.05731 122.936 2.04195 122.921 2.04195 122.906C2.04195 122.885 2.05731 122.875 2.07267 122.875H2.2672C2.28256 122.875 2.29792 122.89 2.29792 122.906C2.29792 122.926 2.28256 122.936 2.2672 122.936H2.07267ZM23.062 122.936L22.8675 122.931C22.847 122.931 22.8367 122.916 22.8367 122.9C22.8367 122.885 22.8521 122.87 22.8675 122.87L23.062 122.875C23.0825 122.875 23.0927 122.89 23.0927 122.906C23.0927 122.921 23.0825 122.936 23.062 122.936ZM2.72282 122.931C2.70747 122.931 2.69211 122.916 2.69211 122.9C2.69211 122.88 2.70747 122.87 2.72282 122.87H2.91736C2.93784 122.87 2.94807 122.885 2.94807 122.9C2.94807 122.921 2.93272 122.931 2.91736 122.931H2.72282ZM22.4118 122.926L22.2173 122.921C22.1968 122.921 22.1866 122.906 22.1866 122.89C22.1866 122.87 22.2019 122.859 22.2173 122.859L22.4118 122.865C22.4272 122.865 22.4425 122.88 22.4425 122.895C22.4425 122.911 22.4323 122.926 22.4118 122.926ZM3.37298 122.921C3.35762 122.921 3.34226 122.906 3.34226 122.89C3.34226 122.87 3.35762 122.859 3.37298 122.859H3.56752C3.58799 122.859 3.59823 122.875 3.59823 122.89C3.59823 122.911 3.58287 122.921 3.56752 122.921H3.37298ZM4.02314 122.916C4.00778 122.916 3.99242 122.9 3.99242 122.885C3.99242 122.865 4.00778 122.854 4.02314 122.854H4.21767C4.23815 122.854 4.24839 122.87 4.24839 122.885C4.24839 122.906 4.23303 122.916 4.21767 122.916H4.02314ZM21.7617 122.916L21.5671 122.911C21.5467 122.911 21.5364 122.895 21.5364 122.88C21.5364 122.865 21.5518 122.849 21.5671 122.849L21.7617 122.854C21.7821 122.854 21.7924 122.87 21.7924 122.885C21.7975 122.9 21.7821 122.916 21.7617 122.916ZM4.67329 122.911C4.65794 122.911 4.64258 122.895 4.64258 122.88C4.64258 122.859 4.65794 122.849 4.67329 122.849H4.86783C4.88831 122.849 4.89855 122.865 4.89855 122.88C4.89855 122.9 4.88319 122.911 4.86783 122.911H4.67329ZM21.1115 122.906H20.917C20.8965 122.906 20.8863 122.89 20.8863 122.875C20.8863 122.854 20.9016 122.839 20.917 122.844H21.1115C21.132 122.844 21.1422 122.859 21.1422 122.875C21.1474 122.89 21.132 122.906 21.1115 122.906ZM5.32345 122.906C5.30809 122.906 5.29274 122.89 5.29274 122.875C5.29274 122.854 5.30809 122.844 5.32345 122.844H5.51799C5.53334 122.844 5.5487 122.859 5.5487 122.875C5.5487 122.895 5.53334 122.906 5.51799 122.906H5.32345ZM20.4614 122.9H20.2668C20.2463 122.9 20.2361 122.885 20.2361 122.87C20.2361 122.849 20.2515 122.839 20.2668 122.839H20.4614C20.4818 122.839 20.4921 122.854 20.4921 122.87C20.4972 122.885 20.4818 122.9 20.4614 122.9ZM5.97361 122.9C5.95825 122.9 5.94289 122.885 5.94289 122.87C5.94289 122.849 5.95825 122.839 5.97361 122.839H6.16814C6.1835 122.839 6.19886 122.854 6.19886 122.87C6.19886 122.89 6.1835 122.9 6.16814 122.9H5.97361ZM6.62376 122.895C6.60841 122.895 6.59305 122.88 6.59305 122.865C6.59305 122.844 6.60841 122.834 6.62376 122.834H6.8183C6.83366 122.834 6.84902 122.849 6.84902 122.865C6.84902 122.885 6.83366 122.895 6.8183 122.895H6.62376ZM19.8163 122.89H19.6218C19.6013 122.89 19.5911 122.875 19.5911 122.859C19.5911 122.844 19.6064 122.829 19.6218 122.829H19.8163C19.8368 122.829 19.847 122.844 19.847 122.859C19.847 122.88 19.8317 122.89 19.8163 122.89ZM7.27392 122.89C7.25856 122.89 7.24321 122.875 7.24321 122.859C7.24321 122.839 7.25856 122.829 7.27392 122.829H7.46846C7.48382 122.829 7.49917 122.844 7.49917 122.859C7.49917 122.88 7.48382 122.89 7.46846 122.89H7.27392ZM19.1662 122.885H18.9716C18.9512 122.885 18.9409 122.87 18.9409 122.854C18.9409 122.839 18.9563 122.823 18.9716 122.823H19.1662C19.1866 122.823 19.1969 122.839 19.1969 122.854C19.1969 122.875 19.1815 122.885 19.1662 122.885ZM7.92408 122.885C7.90872 122.885 7.89336 122.87 7.89336 122.854C7.89336 122.834 7.90872 122.823 7.92408 122.823H8.11861C8.13909 122.823 8.14933 122.839 8.14933 122.854C8.14933 122.875 8.13397 122.885 8.11861 122.885H7.92408ZM18.516 122.88H18.3215C18.301 122.88 18.2908 122.865 18.2908 122.849C18.2908 122.829 18.3061 122.813 18.3215 122.818H18.516C18.5365 122.818 18.5467 122.834 18.5467 122.849C18.5467 122.87 18.5314 122.88 18.516 122.88ZM8.57424 122.88C8.55888 122.88 8.54352 122.865 8.54352 122.849C8.54352 122.829 8.55888 122.818 8.57424 122.818H8.76877C8.78413 122.818 8.79949 122.834 8.79949 122.849C8.79949 122.87 8.78413 122.88 8.76877 122.88H8.57424ZM17.8658 122.875H17.6713C17.6508 122.875 17.6406 122.859 17.6406 122.844C17.6406 122.823 17.656 122.813 17.6713 122.813H17.8658C17.8863 122.813 17.8966 122.829 17.8966 122.844C17.8966 122.865 17.8812 122.875 17.8658 122.875ZM9.22439 122.875C9.20904 122.875 9.19368 122.859 9.19368 122.844C9.19368 122.823 9.20904 122.813 9.22439 122.813H9.41893C9.43429 122.813 9.44964 122.829 9.44964 122.844C9.44964 122.865 9.43429 122.875 9.41893 122.875H9.22439ZM17.2157 122.875H17.0212C17.0007 122.875 16.9904 122.859 16.9904 122.844C16.9904 122.829 17.0058 122.813 17.0212 122.813H17.2157C17.2362 122.813 17.2464 122.829 17.2464 122.844C17.2464 122.859 17.2311 122.875 17.2157 122.875ZM9.87455 122.875C9.85919 122.875 9.84383 122.859 9.84383 122.844C9.84383 122.823 9.85919 122.813 9.87455 122.813H10.0691C10.0896 122.813 10.0998 122.829 10.0998 122.844C10.0998 122.865 10.0844 122.875 10.0691 122.875H9.87455ZM10.5247 122.87C10.5093 122.87 10.494 122.854 10.494 122.839C10.494 122.818 10.5093 122.808 10.5247 122.808H10.7192C10.7397 122.808 10.75 122.823 10.75 122.839C10.75 122.859 10.7346 122.87 10.7192 122.87H10.5247ZM16.5655 122.87H16.371C16.3505 122.87 16.3403 122.854 16.3403 122.839C16.3403 122.823 16.3556 122.808 16.371 122.808H16.5655C16.586 122.808 16.5963 122.823 16.5963 122.839C16.5963 122.854 16.5809 122.87 16.5655 122.87ZM11.1749 122.87C11.1595 122.87 11.1441 122.854 11.1441 122.839C11.1441 122.818 11.1595 122.808 11.1749 122.808H11.3694C11.3848 122.808 11.4001 122.823 11.4001 122.839C11.4001 122.859 11.3848 122.87 11.3694 122.87H11.1749ZM15.9154 122.87H15.7208C15.7004 122.87 15.6901 122.854 15.6901 122.839C15.6901 122.818 15.7055 122.808 15.7208 122.808H15.9154C15.9359 122.808 15.9461 122.823 15.9461 122.839C15.9461 122.854 15.9359 122.87 15.9154 122.87ZM11.8199 122.87C11.7994 122.87 11.7892 122.854 11.7892 122.839C11.7892 122.818 11.8045 122.808 11.8199 122.808H12.0144C12.0349 122.808 12.0452 122.823 12.0452 122.839C12.0452 122.859 12.0298 122.87 12.0144 122.87H11.8199ZM15.2652 122.865H15.0707C15.0502 122.865 15.04 122.849 15.04 122.834C15.04 122.813 15.0553 122.803 15.0707 122.803H15.2652C15.2857 122.803 15.2959 122.818 15.2959 122.834C15.2959 122.854 15.2857 122.865 15.2652 122.865ZM12.4701 122.865C12.4496 122.865 12.4393 122.849 12.4393 122.834C12.4393 122.813 12.4547 122.803 12.4701 122.803H12.6646C12.6851 122.803 12.6953 122.818 12.6953 122.834C12.6953 122.854 12.68 122.865 12.6646 122.865H12.4701ZM14.6151 122.865H14.4205C14.4001 122.865 14.3898 122.849 14.3898 122.834C14.3898 122.813 14.4052 122.803 14.4205 122.803H14.6151C14.6355 122.803 14.6458 122.818 14.6458 122.834C14.6509 122.849 14.6355 122.865 14.6151 122.865ZM13.1202 122.865C13.0997 122.865 13.0895 122.849 13.0895 122.834C13.0895 122.813 13.1049 122.803 13.1202 122.803H13.3148C13.3352 122.803 13.3455 122.818 13.3455 122.834C13.3455 122.854 13.3301 122.865 13.3148 122.865H13.1202ZM13.9649 122.865H13.7704C13.7499 122.865 13.7397 122.849 13.7397 122.834C13.7397 122.818 13.755 122.803 13.7704 122.803H13.9649C13.9854 122.803 13.9956 122.818 13.9956 122.834C14.0007 122.849 13.9854 122.865 13.9649 122.865Z" fill="white"/>
<path d="M20.0053 137.809H15.746C15.188 137.809 14.717 137.394 14.6505 136.84L14.159 132.732C14.0822 132.075 14.5942 131.501 15.2545 131.501H20.3688C21.0138 131.501 21.5257 132.055 21.4643 132.696L21.1008 136.804C21.0548 137.373 20.5787 137.809 20.0053 137.809Z" fill="#1C7DAF"/>
<mask id="mask0_50_679" style="mask-type:alpha" maskUnits="userSpaceOnUse" x="15" y="132" width="6" height="6">
<path d="M19.4834 137.055H16.2429C15.818 137.055 15.4596 136.737 15.4084 136.316L15.0347 133.193C14.9733 132.696 15.3624 132.26 15.8692 132.26H19.765C20.2564 132.26 20.6455 132.68 20.5994 133.173L20.323 136.296C20.282 136.722 19.9186 137.055 19.4834 137.055Z" fill="url(#paint0_linear_50_679)"/>
</mask>
<g mask="url(#mask0_50_679)">
<path d="M19.4834 137.055H16.2429C15.818 137.055 15.4596 136.737 15.4084 136.316L15.0347 133.193C14.9733 132.696 15.3624 132.26 15.8692 132.26H19.765C20.2564 132.26 20.6455 132.68 20.5994 133.173L20.323 136.296C20.282 136.722 19.9186 137.055 19.4834 137.055Z" fill="#2CB6BF"/>
</g>
<path d="M112.906 63.6761L123.042 84.0979L136.076 55.0858L122.541 70.1021L112.906 63.6761Z" fill="white"/>
<path d="M74.5876 70.297C74.5211 70.5073 75.2838 70.8253 75.7343 69.9688C75.7497 69.5585 76.0005 67.7943 75.7548 67.4609C74.4494 65.6762 71.9153 63.4402 71.9153 63.4402C71.4853 63.8607 71.8385 64.2813 71.8385 64.2813L73.0672 65.5634C72.8112 66.0301 72.4989 66.4199 72.3505 66.984C72.2378 67.4097 72.3095 67.8661 72.5245 68.2559C72.7395 68.6456 73.0365 69.1534 73.3129 69.5483C73.8351 70.2919 74.5876 70.297 74.5876 70.297Z" fill="white"/>
<path d="M96.5805 140.317C96.5805 140.317 96.8621 141.922 97.0003 143.507C97.0566 144.128 96.5754 144.666 95.956 144.692C93.8468 144.779 89.3316 144.953 87.7087 144.876C87.463 144.866 87.3043 144.615 87.3964 144.389C87.4732 144.199 87.6166 144.045 87.8009 143.958L95.2598 140.522L96.5805 140.317Z" fill="#1C7DAF"/>
<path d="M96.811 139.374L96.5857 141.292C96.5857 141.292 95.2803 141.902 94.3895 141.215L94.9322 139.076L96.811 139.374Z" fill="white"/>
<path d="M96.6367 103.304C96.7339 103.807 97.164 128.306 94.548 139.286C94.507 139.466 94.594 139.65 94.7681 139.722C95.1674 139.886 95.9558 140.122 96.8977 140.158C97.1895 140.168 97.4506 139.979 97.5325 139.696C98.28 137.148 101.858 124.383 102.329 112.192C102.852 98.5657 102.329 111.731 102.329 111.731L102.022 103.31L96.6367 103.304Z" fill="#1C7DAF"/>
<path d="M105.155 141.153C105.155 141.153 105.606 141.964 106.041 144.112C106.118 144.502 105.846 144.871 105.452 144.912C104.756 144.979 103.681 145.071 102.821 145.061C102.427 145.056 102.114 144.712 102.166 144.317C102.263 143.533 102.56 142.246 103.471 141.24L105.155 141.153Z" fill="#1C7DAF"/>
<path d="M105.554 138.686L105.021 141.589C105.021 141.589 104.494 141.979 103.46 141.697L103.716 138.573L105.554 138.686Z" fill="white"/>
<path d="M106.988 104.053C109.128 116.982 106.522 136.004 105.647 139.727C105.596 139.953 105.411 140.132 105.181 140.168C104.787 140.235 104.147 140.286 103.507 140.102C103.287 140.04 103.133 139.84 103.123 139.609C103.005 136.599 103.215 118.121 101.224 110.818C101.121 110.448 100.896 110.125 100.584 109.905L96.7187 107.151L96.4218 102.699L106.988 104.053Z" fill="#1C7DAF"/>
<path d="M93.3599 79.5592C99.7693 79.4515 106.839 81.2464 106.839 81.2464C108.749 92.4113 107.172 105.289 107.172 105.289C102.211 106.592 96.6158 104.494 96.6158 104.494C95.7916 99.8271 91.9419 86.6929 91.9419 86.6929C88.8088 86.3032 86.2338 85.4006 84.1093 84.2005C85.727 82.3183 86.4949 79.9233 86.8225 78.5078C89.0904 79.2155 91.3838 79.5899 93.3599 79.5592Z" fill="#2D5883"/>
<path d="M74.4344 70.1025C75.0641 69.3383 75.8627 69.7024 75.8627 69.7024C76.8047 73.6924 81.75 76.9285 86.8284 78.5081C86.4956 79.9236 85.7328 82.3186 84.1151 84.2008C75.6836 79.4518 74.4344 70.1025 74.4344 70.1025Z" fill="white"/>
<path d="M104.382 87.4626L106.839 81.2468C106.839 81.2468 112.824 85.3189 113.807 90.4884C112.675 90.5705 110.617 90.8679 108.605 91.8834C108.165 89.4422 104.382 87.4626 104.382 87.4626Z" fill="#2D5883"/>
<path d="M99.8509 74.3489L101.888 80.2569C101.924 80.3544 101.883 80.4621 101.791 80.5134C101.233 80.8211 99.2314 81.7134 96.8202 80.18C96.5694 80.021 96.3953 79.7595 96.3595 79.462L95.6991 74.3489H99.8509Z" fill="white"/>
<path d="M95.4185 68.877C95.4185 68.877 93.1813 73.0977 93.468 74.8055C93.7547 76.5133 96.5294 76.3902 98.9508 75.0055L100.645 70.4463L95.4185 68.877Z" fill="white"/>
<path d="M98.8432 72.7642C98.746 72.718 98.7101 72.6001 98.7665 72.5077C98.9456 72.2308 99.2835 71.6718 99.391 71.1846C99.391 71.1846 99.7954 70.9282 98.3671 70.5845C96.9388 70.2409 94.8143 69.7127 94.3638 68.4921C93.9287 67.3074 95.0754 64.3226 96.903 66.6971C96.9747 66.7894 97.1078 66.7894 97.1795 66.6971C97.4815 66.3074 98.2648 65.497 99.3603 65.9894C100.384 66.451 100.497 67.1997 100.487 67.5792C100.481 67.6921 100.584 67.7792 100.691 67.7587C101.208 67.6613 102.452 67.5741 103.031 68.8511C103.507 69.9025 103.2 70.4974 102.913 70.7897C102.821 70.882 102.862 71.041 102.985 71.0769C103.323 71.1795 103.763 71.4718 103.722 72.2667C103.661 73.3693 102.432 73.2719 102.079 73.2206C102.022 73.2104 101.961 73.2309 101.925 73.277C101.623 73.6104 100.272 75.0259 98.8023 75.1951C98.6743 75.2105 98.577 75.0823 98.618 74.9643L99.2528 73.118C99.2835 73.0309 99.2426 72.9385 99.1606 72.9026L98.8432 72.7642Z" fill="#1C7DAF"/>
<path d="M98.5875 73.0259C98.5875 73.0259 100.18 71.9284 100.297 72.8515C100.415 73.7747 98.8639 74.1901 98.0909 73.8465L98.5875 73.0259Z" fill="white"/>
<path d="M108.605 91.8834C108.605 91.8834 110.699 101.34 108.8 106.654C111.124 107.731 110.694 107.531 110.694 107.531C110.694 107.531 115.291 94.0784 113.807 90.4884C110.883 90.1756 109.435 90.9602 108.605 91.8834Z" fill="white"/>
<path d="M108.805 106.654C108.805 106.654 107.607 108.208 107.705 108.823C107.802 109.444 107.822 109.695 107.822 109.695C107.822 109.695 108.427 109.285 108.386 108.756C108.304 110.428 107.746 112.331 108.252 112.239C108.759 112.146 111.391 109.721 110.797 107.131C109.445 106.187 109.066 106.29 108.805 106.654Z" fill="white"/>
<defs>
<linearGradient id="paint0_linear_50_679" x1="15.0274" y1="134.655" x2="20.5995" y2="134.655" gradientUnits="userSpaceOnUse">
<stop stop-color="white"/>
<stop offset="1"/>
</linearGradient>
</defs>
</svg>
