<svg width="150" height="152" viewBox="0 0 150 152" fill="none" xmlns="http://www.w3.org/2000/svg">
<path d="M131.814 129.992C128.753 133.206 125.854 135.277 123.567 136.916C96.6616 156.163 64.8297 150.555 58.0642 149.185C48.0754 147.162 28.7632 143.247 14.7995 126.874C-6.32443 102.105 -3.03632 63.0769 13.3502 37.3152C16.3462 32.6019 32.1757 6.44648 64.3538 2.25623C83.8282 -0.283806 106.526 4.83941 122.967 18.5696C157.47 47.3945 155.015 105.632 131.814 129.992Z" fill="#1C7DAF"/>
<path d="M80.7176 1.71676C73.8493 1.66283 66.9216 2.74679 60.7888 5.28683C46.5223 11.1866 34.4082 26.8097 39.1511 42.7672C40.6924 47.9498 39.8812 53.6716 45.0621 55.9204C47.8635 57.1392 55.4943 57.8672 58.3984 56.9019C66.1104 54.3511 71.1777 47.3619 66.9865 39.6124C65.6453 37.1317 63.9039 34.8667 62.7465 32.2943C61.5892 29.7219 61.0592 26.6695 62.2382 24.1079C64.5582 19.0818 72.2702 17.4801 77.2672 17.6311C83.1674 17.8091 88.516 20.7212 91.6906 25.715C95.6493 31.9384 96.6498 39.5099 96.0711 46.731C95.4492 54.4589 92.1827 60.3641 87.283 66.2909C83.0647 71.3979 78.4245 76.2946 75.6178 82.2915C73.0435 87.7922 72.2053 93.8915 72.0863 99.9154C72.0646 101.08 66.2456 112.082 66.2672 115.441C66.2726 115.916 72.865 117.491 73.3464 117.496C75.8287 117.523 82.8646 117.604 85.455 117.631C85.985 117.636 86.4285 117.21 86.4339 116.682C86.6178 100.336 91.6581 84.7506 104.421 73.7762C109.067 69.7801 114.069 66.5282 117.676 61.4858C122.825 54.2972 125.361 47.2271 124.631 38.3612C123.961 30.2612 121.289 22.1557 115.994 15.873C110.305 9.11576 101.977 4.89854 93.3184 3.07576C89.284 2.22908 85.0116 1.74911 80.7176 1.71676Z" fill="#2D5883"/>
<path d="M93.3885 135.956C93.3885 143.474 89.208 150.123 81.6746 150.123C80.0467 150.123 74.5089 150.139 73.0595 149.616C67.8028 147.723 67.7866 143.7 67.7866 137.806C67.7866 130.288 70.3338 122.895 77.8673 122.895C85.4061 122.895 93.3885 128.438 93.3885 135.956Z" fill="#2D5883"/>
<path d="M74.1907 0.00191268C67.3224 -0.0520159 60.3947 1.03195 54.2619 3.57199C39.9954 9.47717 27.8867 25.1003 32.6242 41.0578C34.1655 46.2403 37.724 52.7657 42.8995 55.0199C45.7009 56.2387 48.962 56.1578 51.8661 55.1978C59.578 52.647 64.6454 45.6579 60.4541 37.9083C59.1129 35.4276 57.3715 33.1626 56.2142 30.5902C55.0569 28.0178 54.5269 24.9655 55.7058 22.4039C58.0259 17.3777 65.7378 15.776 70.7349 15.927C76.6351 16.105 81.9837 19.0171 85.1582 24.0109C89.117 30.2343 90.1175 37.8059 89.5388 45.0269C88.9169 52.7549 85.6504 58.6601 80.7507 64.5868C76.5324 69.6939 71.8922 74.5906 69.0854 80.5874C66.5112 86.0882 65.6729 92.1875 65.554 98.2113C65.5323 99.3762 65.9271 111.564 65.9487 114.924C65.9542 115.398 66.3381 115.781 66.814 115.787C69.2963 115.814 76.3323 115.894 78.9227 115.921C79.4527 115.927 79.8962 115.501 79.9016 114.972C80.0855 98.6265 85.1258 83.0412 97.8889 72.0667C102.534 68.0706 107.537 64.8187 111.144 59.7764C116.293 52.5877 118.829 45.5177 118.099 36.6518C117.428 28.5517 114.757 20.4462 109.462 14.1636C103.778 7.40631 95.4498 3.1837 86.7915 1.36631C82.7571 0.514234 78.4847 0.0396627 74.1907 0.00191268Z" fill="#2CB6BF"/>
<path d="M74.9045 149.703C82.4432 149.703 88.5545 143.608 88.5545 136.091C88.5545 128.573 82.4432 122.479 74.9045 122.479C67.3658 122.479 61.2545 128.573 61.2545 136.091C61.2545 143.608 67.3658 149.703 74.9045 149.703Z" fill="#2CB6BF"/>
<path opacity="0.63" d="M37.1396 39.4939C37.0585 39.4939 36.9882 39.4399 36.9666 39.359C36.0093 35.0501 35.8687 28.3091 40.6332 20.635C45.2842 13.1497 51.8009 8.13977 60.0158 5.74534C68.7931 3.18912 79.2145 3.7338 90.9933 7.37398C91.0852 7.40094 91.1393 7.49802 91.1068 7.59509C91.0798 7.68677 90.977 7.7407 90.8905 7.70834C68.2631 0.713798 50.5246 5.37323 40.9307 20.8184C36.2311 28.39 36.3663 35.0394 37.3073 39.2781C37.3289 39.3698 37.2694 39.4669 37.1721 39.4885C37.1667 39.4939 37.1558 39.4939 37.1396 39.4939Z" fill="white"/>
<path opacity="0.63" d="M40.0114 46.4238C39.9573 46.4238 39.9032 46.3968 39.8708 46.3537C39.8275 46.2998 38.8433 44.9408 37.9293 42.5571C37.8968 42.4654 37.9401 42.3684 38.032 42.3306C38.124 42.2983 38.2213 42.3414 38.2592 42.4331C39.1569 44.7736 40.1466 46.138 40.152 46.1488C40.2115 46.2243 40.1899 46.3375 40.1142 46.3915C40.0817 46.413 40.0493 46.4238 40.0114 46.4238Z" fill="white"/>
<path opacity="0.63" d="M79.4683 127.268C79.4413 127.268 79.4143 127.262 79.3872 127.246C77.9865 126.54 76.4777 126.179 74.8985 126.179C74.8012 126.179 74.7255 126.098 74.7255 126.006C74.7255 125.909 74.8012 125.833 74.8985 125.833C76.5318 125.833 78.0947 126.205 79.5441 126.939C79.6306 126.982 79.663 127.09 79.6198 127.176C79.5981 127.236 79.5332 127.268 79.4683 127.268Z" fill="white"/>
<path opacity="0.63" d="M69.2532 144.622C69.2208 144.622 69.1829 144.611 69.1559 144.59C66.3166 142.675 64.6239 139.499 64.6239 136.085C64.6239 132.305 66.7006 128.837 70.0482 127.047C70.1347 127.004 70.2375 127.031 70.2862 127.117C70.3294 127.203 70.3024 127.306 70.2159 127.354C66.9872 129.085 64.9808 132.429 64.9808 136.085C64.9808 139.38 66.6195 142.454 69.3614 144.299C69.4425 144.353 69.4641 144.46 69.4101 144.541C69.3668 144.595 69.3073 144.622 69.2532 144.622Z" fill="white"/>
<g opacity="0.3">
<path d="M29.5036 25.4619C29.3576 25.6399 29.098 25.6668 28.9249 25.5212C28.5788 25.2408 28.2165 24.9766 27.8487 24.7285C27.6595 24.6044 27.6108 24.351 27.7352 24.1622L27.7406 24.1568C27.8704 23.9681 28.1245 23.9196 28.3138 24.049C28.7032 24.3132 29.0818 24.5937 29.4441 24.8849C29.6118 25.0197 29.6442 25.257 29.5307 25.4296C29.5252 25.4403 29.5144 25.4511 29.5036 25.4619ZM25.9721 23.6391C25.5719 23.445 25.1609 23.2616 24.7499 23.0998C24.539 23.0189 24.4308 22.7763 24.5174 22.5659C24.6039 22.3556 24.8418 22.2478 25.0528 22.3341C25.4854 22.5012 25.9181 22.6954 26.3399 22.9003C26.5454 23.0028 26.6265 23.2454 26.5292 23.4504C26.5238 23.4666 26.5129 23.4773 26.5075 23.4935C26.3886 23.6661 26.1614 23.7362 25.9721 23.6391ZM22.6732 22.4527C22.2406 22.3502 21.7971 22.2639 21.359 22.1992C21.1319 22.1669 20.9805 21.9566 21.0129 21.7301C21.0454 21.5036 21.2563 21.3526 21.4834 21.3849C21.9485 21.455 22.4136 21.5413 22.8679 21.6492C23.0896 21.7031 23.2248 21.9242 23.1762 22.1453C23.1653 22.1938 23.1437 22.237 23.1221 22.2747C23.0247 22.4203 22.8463 22.4958 22.6732 22.4527ZM19.1958 22.0321C18.7523 22.0267 18.3035 22.0428 17.86 22.0752C17.6329 22.0914 17.4328 21.9242 17.4166 21.6977C17.4003 21.4712 17.568 21.2717 17.7951 21.2555C18.2602 21.2177 18.7361 21.2016 19.2012 21.2069C19.4284 21.2069 19.6122 21.3957 19.6122 21.6222C19.6122 21.7031 19.5852 21.7786 19.5473 21.8433C19.4716 21.9566 19.3418 22.0321 19.1958 22.0321ZM15.7076 22.3934C15.275 22.4904 14.8369 22.6037 14.4151 22.7331C14.1987 22.7978 13.9662 22.6792 13.8959 22.4635C13.831 22.2478 13.95 22.0159 14.1663 21.9458C14.6152 21.8056 15.0694 21.6869 15.5291 21.5898C15.7509 21.5413 15.9726 21.6815 16.0213 21.9026C16.0483 22.0159 16.0213 22.1237 15.9618 22.2154C15.9077 22.3017 15.8158 22.3664 15.7076 22.3934ZM12.387 23.5151C11.9868 23.7038 11.5866 23.9088 11.2027 24.1299C11.0026 24.2431 10.7538 24.1784 10.6402 23.9789C10.5267 23.7793 10.5916 23.5313 10.7917 23.418C11.1973 23.1861 11.6191 22.965 12.0409 22.7709C12.2464 22.6738 12.4952 22.7655 12.5925 22.9704C12.6574 23.1052 12.6412 23.2562 12.5655 23.3695C12.5168 23.4288 12.4573 23.4773 12.387 23.5151ZM3.07974 35.6706C2.8526 35.6382 2.70117 35.4279 2.73362 35.2014C2.80393 34.743 2.89586 34.2792 3.00402 33.8208C3.0581 33.5997 3.27984 33.4649 3.50157 33.5188C3.7233 33.5728 3.8585 33.7939 3.80442 34.015C3.70167 34.4464 3.61514 34.8886 3.55024 35.3255C3.53942 35.3848 3.51779 35.4387 3.49075 35.4872C3.39881 35.6167 3.24198 35.6922 3.07974 35.6706ZM9.40178 25.3379C9.05026 25.6075 8.70955 25.8987 8.38506 26.2007C8.21741 26.3571 7.95782 26.3463 7.80099 26.1792C7.64416 26.012 7.65497 25.7531 7.82262 25.5967C8.16333 25.2786 8.52567 24.9712 8.89342 24.6853C9.07189 24.5451 9.33148 24.5775 9.47209 24.7554C9.58566 24.8957 9.58566 25.0898 9.49372 25.2354C9.46668 25.2786 9.43423 25.3109 9.40178 25.3379ZM3.9234 32.176C3.71248 32.0951 3.60432 31.8525 3.69085 31.6421C3.86391 31.2107 4.05319 30.7793 4.26411 30.3586C4.36686 30.1537 4.61563 30.0728 4.81573 30.1753C5.02124 30.2777 5.10236 30.5258 4.99961 30.7253C4.79951 31.1244 4.62104 31.5343 4.4588 31.9441C4.44798 31.9711 4.43717 31.9927 4.42094 32.0196C4.31278 32.1814 4.10727 32.2515 3.9234 32.176ZM6.89784 27.7862C6.61662 28.1314 6.35163 28.4873 6.09745 28.854C5.96765 29.0428 5.71347 29.0913 5.52419 28.9619C5.34031 28.8378 5.28623 28.5844 5.41062 28.3956L5.41603 28.3902C5.68102 28.0019 5.96224 27.6244 6.25428 27.2631C6.4003 27.0852 6.65989 27.0582 6.83294 27.2038C7.00059 27.3386 7.03304 27.5705 6.91947 27.7485C6.91407 27.7593 6.90866 27.7754 6.89784 27.7862Z" fill="#2D5883"/>
<path d="M3.31275 38.3723C3.35601 38.3022 3.38305 38.2213 3.37764 38.135C3.37224 37.9247 3.36683 37.709 3.37224 37.4933C3.37224 37.2668 3.19377 37.078 2.96122 37.078C2.73408 37.078 2.5448 37.256 2.5448 37.4879C2.5448 37.7144 2.5448 37.9409 2.55021 38.162C2.55562 38.3885 2.75031 38.5664 2.97745 38.561C3.12346 38.5556 3.24244 38.4801 3.31275 38.3723Z" fill="#2D5883"/>
</g>
<g opacity="0.3">
<path d="M8.5913 49.7731C8.69947 49.6059 8.67243 49.3794 8.521 49.2446C8.36416 49.1044 8.20733 48.9534 8.0505 48.8024C7.88825 48.6406 7.62867 48.646 7.46642 48.8078C7.30418 48.9696 7.30959 49.2284 7.47183 49.3902C7.63407 49.5466 7.79632 49.703 7.96397 49.854C8.13162 50.005 8.39661 49.9942 8.54804 49.827C8.56967 49.8055 8.58049 49.7893 8.5913 49.7731Z" fill="#2D5883"/>
<path d="M32.4088 47.303C32.2736 47.4863 32.0194 47.5295 31.8302 47.3947C31.6463 47.2598 31.603 47.0064 31.7382 46.8176C31.9924 46.4671 32.2358 46.1004 32.4629 45.7229C32.5819 45.5287 32.8361 45.464 33.0308 45.5827C33.2254 45.7013 33.2903 45.9548 33.1714 46.1489C33.074 46.3107 32.9713 46.4725 32.8685 46.6343C32.7225 46.8608 32.5711 47.0873 32.4088 47.303ZM33.6581 44.3693C33.4472 44.2776 33.3498 44.0349 33.4418 43.83C33.6148 43.4309 33.7717 43.0157 33.9123 42.6058C33.9826 42.3901 34.2205 42.2715 34.4369 42.347C34.6532 42.4171 34.7722 42.6543 34.6964 42.8701C34.5504 43.3069 34.3828 43.7383 34.1989 44.159C34.1881 44.1805 34.1773 44.2021 34.1664 44.2183C34.0637 44.3855 33.8474 44.4502 33.6581 44.3693ZM30.9703 49.0287C30.6512 49.3577 30.3159 49.6812 29.9698 49.9886C29.7967 50.1396 29.5371 50.1235 29.3857 49.9509C29.2343 49.7783 29.2505 49.5195 29.4236 49.3685C29.7535 49.0772 30.0725 48.7752 30.37 48.4571C30.5268 48.2953 30.7864 48.2845 30.9541 48.4463C31.1001 48.5865 31.1217 48.8076 31.0135 48.9694C31.0081 48.991 30.9919 49.0125 30.9703 49.0287ZM34.783 41.0203C34.5612 40.9772 34.4098 40.7615 34.4531 40.5403C34.5342 40.1143 34.5991 39.6721 34.6424 39.2407C34.664 39.0142 34.8695 38.847 35.0966 38.8739C35.3238 38.8955 35.4914 39.1005 35.4644 39.327C35.4157 39.7853 35.3508 40.2437 35.2643 40.6967C35.2535 40.7507 35.2318 40.7992 35.2048 40.8477C35.1183 40.9772 34.9506 41.0527 34.783 41.0203ZM28.1905 51.353C27.8065 51.6065 27.4118 51.8492 27.0062 52.0703C26.8061 52.1781 26.5573 52.108 26.4437 51.9085C26.3356 51.709 26.4059 51.4609 26.606 51.3476C26.9899 51.1373 27.3685 50.9108 27.7308 50.6681C27.9201 50.5441 28.1797 50.5926 28.3041 50.7814C28.396 50.9216 28.396 51.0996 28.3041 51.2344C28.2771 51.2829 28.2392 51.3207 28.1905 51.353ZM24.9619 53.014C24.5347 53.1758 24.0912 53.3268 23.6477 53.4562C23.426 53.521 23.1989 53.3915 23.134 53.1758C23.0691 52.9547 23.1989 52.7282 23.4152 52.6635C23.837 52.5395 24.2534 52.3992 24.6645 52.2429C24.8754 52.162 25.1187 52.2698 25.1999 52.4801C25.2485 52.6096 25.2323 52.7444 25.162 52.8522C25.1187 52.9277 25.0484 52.9817 24.9619 53.014ZM21.4521 53.9362C20.9978 54.0009 20.5327 54.0495 20.073 54.0818C19.8459 54.098 19.6512 53.9254 19.6349 53.6989C19.6187 53.4724 19.7918 53.2783 20.0189 53.2621C20.457 53.2351 20.895 53.1866 21.3277 53.1219C21.5548 53.0895 21.7657 53.2459 21.7982 53.467C21.8144 53.5695 21.7874 53.672 21.7387 53.7529C21.6738 53.8445 21.5764 53.9146 21.4521 53.9362ZM17.8232 54.0656C17.3636 54.0333 16.8985 53.9794 16.4442 53.9039C16.217 53.8661 16.0656 53.6558 16.1035 53.4347C16.1413 53.2082 16.3522 53.0572 16.574 53.0949C17.0066 53.165 17.4447 53.2136 17.8827 53.2459C18.1099 53.2621 18.2829 53.4616 18.2667 53.6881C18.2613 53.7582 18.2397 53.8284 18.2018 53.8823C18.1207 54.0009 17.9801 54.0764 17.8232 54.0656ZM14.2485 53.4023C13.8104 53.2675 13.367 53.1165 12.9397 52.9439C12.7288 52.8576 12.6261 52.6204 12.7072 52.41C12.7937 52.1997 13.0317 52.0972 13.2426 52.1781C13.6482 52.3399 14.0646 52.4855 14.4865 52.615C14.7028 52.6797 14.8272 52.9116 14.7623 53.1273C14.7514 53.165 14.7352 53.2028 14.7136 53.2297C14.6217 53.3807 14.4324 53.4562 14.2485 53.4023ZM10.9171 51.9732C10.6251 51.806 10.3276 51.6281 10.0464 51.4447C9.94367 51.38 9.84091 51.3099 9.74357 51.2398C9.55429 51.1104 9.5002 50.8569 9.63541 50.6681C9.7652 50.4794 10.0194 50.4309 10.2087 50.5603C10.306 50.625 10.4034 50.6897 10.5007 50.7544C10.7711 50.927 11.0469 51.0996 11.3281 51.256C11.5282 51.3692 11.5985 51.6173 11.485 51.8168C11.4796 51.8222 11.4742 51.833 11.4742 51.8384C11.3498 52.0164 11.1064 52.0811 10.9171 51.9732Z" fill="#2D5883"/>
<path d="M35.4694 37.3101C35.5127 37.24 35.5397 37.1591 35.5343 37.0728C35.5235 36.8517 35.5127 36.6252 35.4965 36.3987C35.4802 36.1722 35.2801 36.005 35.053 36.0212C34.8259 36.0374 34.6528 36.2369 34.6744 36.4634C34.6907 36.6791 34.7015 36.8949 34.7123 37.1052C34.7231 37.3317 34.9124 37.5097 35.1395 37.5043C35.2747 37.4935 35.3991 37.418 35.4694 37.3101Z" fill="#2D5883"/>
</g>
<path d="M30.288 32.4946C30.2609 32.4137 30.1906 32.3652 30.1095 32.3598L27.7624 32.3059C27.2 31.3675 26.4807 30.5101 25.6208 29.782L25.9561 27.4631C25.9669 27.3822 25.9291 27.3013 25.8534 27.2636L23.3494 25.9801C23.2737 25.9423 23.1872 25.9531 23.1277 26.0124L21.4296 27.6303C20.3317 27.3552 19.2176 27.269 18.1252 27.3606L16.7191 25.4839C16.6704 25.4192 16.5839 25.3922 16.5082 25.4138L13.8258 26.2713C13.7501 26.2982 13.696 26.3683 13.6906 26.4492L13.6365 28.7897C12.6955 29.3506 11.8356 30.0678 11.1055 30.9253L8.78006 30.591C8.69893 30.5802 8.61781 30.6179 8.57996 30.6934L7.29283 33.1903C7.25498 33.2658 7.26579 33.3521 7.32528 33.4114L8.94771 35.1048C8.67189 36.1995 8.58536 37.3105 8.6773 38.3998L6.79529 39.802C6.73039 39.8505 6.70335 39.9368 6.72499 40.0123L7.58487 42.6871C7.61191 42.7626 7.68222 42.8166 7.76334 42.822L10.1104 42.8759C10.6729 43.8142 11.3922 44.6717 12.252 45.3997L11.9167 47.7187C11.9059 47.7996 11.9438 47.8805 12.0195 47.9182L14.5234 49.2017C14.5991 49.2395 14.6857 49.2287 14.7452 49.1694L16.4433 47.5515C17.5411 47.8265 18.6552 47.9128 19.7476 47.8211L21.1537 49.6979C21.2024 49.7626 21.2889 49.7895 21.3647 49.768L24.0471 48.9105C24.1282 48.8835 24.1769 48.8134 24.1823 48.7325L24.2363 46.392C25.1774 45.8312 26.0372 45.1139 26.7673 44.2565L29.0928 44.5908C29.1739 44.6016 29.255 44.5639 29.2929 44.4884L30.58 41.9915C30.6179 41.916 30.6071 41.8297 30.5476 41.7704L28.9252 40.077C29.201 38.9822 29.2875 37.8713 29.1956 36.782L31.0776 35.3798C31.1425 35.3313 31.1695 35.245 31.1479 35.1695L30.288 32.4946Z" fill="#2D5883"/>
<path d="M21.0568 39.4676C20.0239 40.6379 18.2284 40.7511 17.0602 39.7157C16.4924 39.2142 16.1517 38.5293 16.1084 37.7743C16.0597 37.0193 16.3085 36.2966 16.8115 35.7304C17.8444 34.5601 19.6399 34.4469 20.808 35.4823C21.8734 36.4207 22.0627 37.9846 21.311 39.1387C21.2353 39.2519 21.1542 39.3598 21.0568 39.4676ZM16.7682 37.7365C16.8061 38.3136 17.0656 38.8421 17.4983 39.225C18.396 40.0123 19.7697 39.926 20.5647 39.0308C21.3597 38.1356 21.2677 36.7658 20.37 35.9731C19.4722 35.1857 18.0986 35.272 17.3036 36.1672C17.2333 36.2481 17.1684 36.3344 17.1089 36.4207C16.8601 36.809 16.7358 37.2674 16.7682 37.7365Z" fill="#2CB6BF"/>
<path d="M24.7074 41.4091C24.8372 41.2095 24.9562 41.0046 25.0644 40.7943C25.0968 40.7296 25.1347 40.6595 25.1671 40.5894C25.3294 40.255 25.4592 39.9045 25.5619 39.5485C25.5619 39.5431 25.5673 39.5378 25.5673 39.5324C25.5727 39.5162 25.5727 39.5054 25.5781 39.4892C25.5836 39.4623 25.5944 39.4353 25.5998 39.4083C25.6214 39.3382 25.589 39.2627 25.5295 39.225C25.5132 39.2142 25.497 39.2088 25.4808 39.2034C25.3943 39.1818 25.3023 39.2304 25.2807 39.322C25.1563 39.775 24.9887 40.2173 24.7723 40.6379C23.6961 42.7249 21.6573 43.9977 19.4724 44.1972C18.2556 44.3104 17.0009 44.0893 15.8382 43.4907C15.6327 43.3883 15.438 43.2696 15.2487 43.151C13.9724 42.3259 13.026 41.0963 12.5555 39.6294C12.0147 37.9469 12.1661 36.1564 12.9719 34.5817C14.6484 31.3352 18.6558 30.0571 21.9061 31.7289C22.1062 31.8314 22.3008 31.9446 22.4901 32.0686C23.3068 32.5971 23.9936 33.2982 24.5073 34.1179C24.5182 34.1395 24.5398 34.1557 24.556 34.1665C24.6101 34.1988 24.675 34.2042 24.7345 34.1665C24.8102 34.1179 24.8372 34.0155 24.7886 33.94C24.2532 33.0771 23.5285 32.3383 22.674 31.7882C22.4793 31.6588 22.2738 31.5401 22.0629 31.4323C18.6504 29.6796 14.4375 31.0278 12.6799 34.4307C11.8308 36.0809 11.674 37.963 12.2418 39.7265C12.734 41.2635 13.729 42.5578 15.0648 43.426C15.2649 43.5554 15.4704 43.6741 15.6868 43.7873C17.3416 44.634 19.2291 44.7904 20.9975 44.2242C22.5442 43.7334 23.8367 42.7465 24.7074 41.4091Z" fill="#2CB6BF"/>
<g opacity="0.3">
<path d="M46.338 19.5565C46.3975 19.4648 46.3921 19.3408 46.3164 19.2545C46.1758 19.0927 46.0298 18.931 45.8783 18.7746C45.781 18.6721 45.6187 18.6721 45.516 18.7692C45.4132 18.8662 45.4132 19.028 45.5106 19.1305C45.6566 19.2761 45.7972 19.4325 45.9324 19.5889C46.0243 19.6967 46.1866 19.7075 46.2947 19.6158C46.3056 19.5943 46.3218 19.5781 46.338 19.5565Z" fill="#2D5883"/>
<path d="M44.9106 18.2187C44.8241 18.3266 44.6618 18.3428 44.5537 18.2565C44.2779 18.0354 43.9858 17.8251 43.6884 17.6309C43.6235 17.5878 43.564 17.55 43.4991 17.5123C43.3801 17.4368 43.3423 17.2804 43.418 17.1617C43.4937 17.0539 43.6505 17.0053 43.7695 17.0808C43.8344 17.124 43.9047 17.1671 43.9696 17.2049C44.2833 17.4098 44.5861 17.6309 44.8782 17.8628C44.9809 17.9437 45.0025 18.0893 44.9322 18.1972C44.9214 18.2026 44.916 18.208 44.9106 18.2187ZM42.358 16.8975C41.9686 16.7195 41.563 16.5577 41.152 16.4283C41.0168 16.3852 40.9465 16.245 40.9843 16.1101C41.0276 15.9753 41.1736 15.9052 41.3034 15.943C41.7307 16.0778 42.1579 16.245 42.5689 16.4337C42.6987 16.493 42.7528 16.644 42.6933 16.7735C42.6879 16.7842 42.6825 16.795 42.6771 16.8058C42.6068 16.9083 42.4716 16.9514 42.358 16.8975ZM39.8919 16.1101C39.4701 16.0292 39.0374 15.9753 38.6048 15.9483C38.4642 15.9376 38.356 15.8189 38.3668 15.6787C38.3776 15.5385 38.4966 15.4306 38.6372 15.4414C39.0861 15.4684 39.5404 15.5277 39.9838 15.6086C40.1245 15.6356 40.211 15.765 40.1894 15.9052C40.1839 15.9376 40.1677 15.9699 40.1515 15.9969C40.0974 16.0832 40.0001 16.1263 39.8919 16.1101ZM37.3123 15.9483C36.8796 15.9753 36.447 16.0292 36.0251 16.1101C35.8845 16.1371 35.7547 16.0454 35.7277 15.9052C35.7006 15.765 35.7926 15.6356 35.9332 15.6086C36.3767 15.5277 36.8309 15.4684 37.2798 15.4414C37.4204 15.4306 37.5394 15.5385 37.5502 15.6787C37.5556 15.7326 37.5394 15.7866 37.5069 15.8351C37.4691 15.8998 37.3934 15.943 37.3123 15.9483ZM34.7705 16.4229C34.3594 16.5523 33.9538 16.7087 33.5645 16.8867C33.4347 16.946 33.2832 16.8867 33.2238 16.7627C33.1643 16.6332 33.2183 16.4822 33.3481 16.4229C33.7591 16.2342 34.1864 16.0724 34.6136 15.9322C34.7488 15.889 34.8894 15.9645 34.9327 16.0993C34.9543 16.1748 34.9435 16.2557 34.9057 16.3151C34.8732 16.369 34.8299 16.4067 34.7705 16.4229ZM32.4179 17.4961C32.0502 17.7226 31.6987 17.9707 31.3634 18.2403C31.2552 18.3266 31.093 18.3104 31.0064 18.2026C30.9199 18.0947 30.9361 17.9329 31.0443 17.8466C31.3958 17.5662 31.769 17.302 32.1529 17.0647C32.2719 16.9892 32.4288 17.0269 32.5045 17.1456C32.5586 17.2318 32.5531 17.3397 32.4991 17.4206C32.4828 17.453 32.4558 17.4799 32.4179 17.4961ZM30.4061 19.114C30.1087 19.4213 29.8221 19.7503 29.5625 20.0955C29.476 20.2087 29.3191 20.2303 29.2055 20.144C29.092 20.0577 29.0703 19.9013 29.1569 19.7881C29.4273 19.4267 29.7247 19.0816 30.0384 18.758C30.1357 18.6556 30.298 18.6556 30.4007 18.7526C30.4873 18.8389 30.5035 18.9737 30.4386 19.0762C30.4278 19.087 30.417 19.1032 30.4061 19.114ZM27.9401 22.4629C27.8103 22.409 27.7508 22.258 27.8049 22.1286C27.9563 21.7726 28.1293 21.4167 28.324 21.0716C28.3511 21.0176 28.3835 20.9691 28.4106 20.9152C28.4755 20.7911 28.6377 20.7534 28.7567 20.8235C28.8811 20.8936 28.9189 21.05 28.8486 21.1686C28.8216 21.2172 28.7945 21.2657 28.7675 21.3142C28.5836 21.6432 28.416 21.983 28.2754 22.3227C28.2699 22.3389 28.2645 22.3497 28.2537 22.3605C28.1888 22.4683 28.0536 22.5115 27.9401 22.4629Z" fill="#2D5883"/>
</g>
<g opacity="0.3">
<path d="M47.1066 32.5262C46.8578 32.8929 46.5874 33.2488 46.3008 33.5885C46.2088 33.6964 46.0466 33.7072 45.9384 33.6155C45.8303 33.5238 45.8194 33.362 45.9114 33.2542C46.1872 32.936 46.4468 32.5963 46.6793 32.2403C46.755 32.1217 46.9173 32.0947 47.0308 32.1702C47.1498 32.2457 47.1823 32.4021 47.1066 32.5262C47.1066 32.5208 47.1066 32.5208 47.1066 32.5262ZM47.4365 31.4853C47.3121 31.4206 47.258 31.2696 47.3229 31.1456C47.5122 30.7681 47.6852 30.3744 47.8312 29.9807C47.8799 29.8513 48.0259 29.7812 48.1557 29.8297C48.2855 29.8783 48.3558 30.0239 48.3072 30.1533C48.1557 30.5685 47.9773 30.9784 47.7772 31.3775C47.7718 31.3883 47.7663 31.3937 47.7609 31.399C47.696 31.5069 47.5554 31.5447 47.4365 31.4853ZM45.3652 34.5377C45.0353 34.8343 44.6837 35.1147 44.3214 35.3736C44.2078 35.4545 44.0456 35.4275 43.9645 35.3143C43.8833 35.201 43.9104 35.0392 44.024 34.9583C44.3701 34.7157 44.7054 34.446 45.019 34.1602C45.1218 34.0631 45.284 34.0739 45.3814 34.1764C45.4625 34.2627 45.4679 34.3921 45.4084 34.4838C45.3976 34.5053 45.3814 34.5215 45.3652 34.5377ZM48.3883 29.0639C48.2531 29.0316 48.1665 28.8968 48.199 28.7565C48.2963 28.3467 48.3666 27.9207 48.4099 27.5054C48.4261 27.3652 48.5505 27.2627 48.6911 27.2789C48.8317 27.2951 48.9345 27.4191 48.9183 27.5593C48.8696 28.0015 48.7993 28.4438 48.6965 28.8752C48.6911 28.9075 48.6803 28.9345 48.6641 28.9561C48.5992 29.0424 48.491 29.0909 48.3883 29.0639ZM43.1911 36.0747C42.8017 36.285 42.3907 36.4737 41.9797 36.6355C41.8499 36.6894 41.6985 36.6247 41.6498 36.4899C41.5957 36.3605 41.6606 36.2095 41.7958 36.1609C42.1906 36.0046 42.58 35.8266 42.9532 35.6271C43.0775 35.5623 43.2344 35.6055 43.2993 35.7295C43.3425 35.8158 43.3371 35.9129 43.2885 35.9884C43.2614 36.0261 43.229 36.0531 43.1911 36.0747ZM40.7088 37.0454C40.2762 37.1586 39.8381 37.2395 39.4 37.2988C39.2594 37.315 39.1296 37.2179 39.1134 37.0777C39.0972 36.9375 39.1945 36.8081 39.3352 36.7919C39.7516 36.738 40.1734 36.6517 40.5844 36.5492C40.7196 36.5115 40.8602 36.5978 40.8927 36.7326C40.9089 36.8027 40.8981 36.8782 40.8602 36.9375C40.8278 36.9914 40.7737 37.0292 40.7088 37.0454ZM38.0643 37.3959C37.6208 37.4013 37.1719 37.3797 36.7285 37.3312C36.5878 37.315 36.4851 37.191 36.5013 37.0508C36.5175 36.9106 36.6419 36.8081 36.7825 36.8243C37.2044 36.8728 37.6316 36.8944 38.0534 36.889C38.194 36.889 38.3076 37.0022 38.313 37.1424C38.313 37.1964 38.2968 37.2449 38.2698 37.2827C38.2319 37.3474 38.1562 37.3959 38.0643 37.3959Z" fill="#2D5883"/>
<path d="M48.9297 26.3567C48.9568 26.3136 48.973 26.265 48.973 26.2111C48.9676 25.9954 48.9568 25.7743 48.9405 25.564C48.9297 25.4238 48.8053 25.3213 48.6647 25.3321C48.5241 25.3429 48.4214 25.4669 48.4322 25.6071C48.4484 25.812 48.4592 26.017 48.4646 26.2273C48.4646 26.3675 48.5836 26.4808 48.7242 26.4754C48.8053 26.47 48.8865 26.4268 48.9297 26.3567Z" fill="#2D5883"/>
</g>
<path d="M45.4733 22.9537C45.457 22.8998 45.4084 22.8674 45.3543 22.862L43.7805 22.8297C43.402 22.2041 42.9207 21.6271 42.3474 21.1417L42.5691 19.5886C42.5745 19.5346 42.5475 19.4807 42.4988 19.4537L40.8223 18.5909C40.7737 18.5639 40.7142 18.5747 40.6763 18.6124L39.5406 19.6964C38.8051 19.5131 38.0588 19.4537 37.3287 19.5131L36.3931 18.2673C36.3607 18.2242 36.3012 18.2026 36.2525 18.2242L34.457 18.7958C34.4029 18.812 34.3705 18.8605 34.3651 18.9144L34.3326 20.4838C33.7053 20.8613 33.1266 21.3412 32.6399 21.9129L31.0824 21.6918C31.0283 21.6864 30.9742 21.7133 30.9472 21.7619L30.0819 23.4337C30.0548 23.4822 30.0657 23.5415 30.1035 23.5793L31.1905 24.7118C31.0067 25.4452 30.9472 26.1894 31.0067 26.9175L29.7466 27.8558C29.7033 27.8882 29.6817 27.9475 29.7033 27.996L30.2766 29.7865C30.2928 29.8404 30.3415 29.8727 30.3955 29.8781L31.9693 29.9105C32.3479 30.5361 32.8292 31.1131 33.4024 31.5985L33.1807 33.1516C33.1753 33.2055 33.2023 33.2595 33.251 33.2864L34.9275 34.1493C34.9762 34.1762 35.0357 34.1655 35.0735 34.1277L36.2092 33.0437C36.9447 33.2271 37.691 33.2864 38.4211 33.2271L39.3621 34.4836C39.3946 34.5268 39.4541 34.5484 39.5028 34.5268L41.2982 33.9551C41.3523 33.939 41.3848 33.8904 41.3902 33.8365L41.4226 32.2672C42.05 31.8897 42.6286 31.4097 43.1153 30.8381L44.6729 31.0592C44.727 31.0646 44.781 31.0376 44.8081 30.9891L45.6734 29.3173C45.7004 29.2687 45.6896 29.2094 45.6517 29.1717L44.5647 28.0392C44.7486 27.3057 44.8081 26.5615 44.7486 25.8335L46.0087 24.8951C46.0519 24.8628 46.0736 24.8035 46.0519 24.7549L45.4733 22.9537Z" fill="#2D5883"/>
<path d="M39.3232 27.64C38.9825 28.0283 38.512 28.2548 37.9982 28.2872C37.4844 28.3195 36.9869 28.1523 36.6029 27.8126C35.8025 27.1115 35.7268 25.8927 36.4298 25.0946C37.1329 24.2965 38.3551 24.221 39.1555 24.922C39.5395 25.2618 39.772 25.731 39.8045 26.2433C39.8315 26.6585 39.7234 27.063 39.5016 27.4081C39.4476 27.4944 39.3881 27.5699 39.3232 27.64ZM36.9382 27.4297C37.2248 27.6778 37.5872 27.8018 37.9657 27.7802C38.3443 27.7587 38.6904 27.5861 38.9392 27.3057C39.188 27.0198 39.3124 26.6585 39.2907 26.281C39.2691 25.9035 39.096 25.5584 38.8148 25.3103C38.2253 24.7926 37.3276 24.8519 36.8138 25.4343C36.7651 25.4883 36.7273 25.5422 36.6894 25.6015C36.3109 26.1786 36.4028 26.9605 36.9382 27.4297Z" fill="#2CB6BF"/>
<path d="M41.8654 28.9934C41.9519 28.8586 42.033 28.7183 42.1087 28.5727C42.2602 28.2815 42.3791 27.9795 42.4657 27.6613C42.4711 27.6452 42.4711 27.6344 42.4765 27.6182C42.5035 27.5103 42.4603 27.3971 42.3683 27.3378C42.3467 27.3216 42.3197 27.3108 42.2926 27.3054C42.1574 27.2677 42.0168 27.3486 41.9789 27.4834C41.8978 27.7746 41.7897 28.0604 41.6491 28.3355C41.6436 28.3516 41.6328 28.3678 41.6274 28.3786C41.2921 29.015 40.8054 29.5488 40.2213 29.9371C39.9022 30.1474 39.5561 30.32 39.183 30.4387C39.1776 30.4387 39.1776 30.4387 39.1722 30.4441C39.1613 30.4495 39.1559 30.4495 39.1451 30.4548C38.0527 30.8054 36.8899 30.7083 35.8678 30.1852C35.738 30.1151 35.6082 30.045 35.4838 29.9641C34.6564 29.4302 34.0453 28.6321 33.7424 27.6829C33.3909 26.5936 33.4883 25.4341 34.0128 24.4148C34.5374 23.401 35.4298 22.646 36.5222 22.2954C37.6146 21.9449 38.7774 22.042 39.7995 22.5651C39.9293 22.6298 40.0537 22.7053 40.1781 22.7808C40.7026 23.1206 41.1515 23.5736 41.4814 24.1074C41.503 24.1398 41.5301 24.1668 41.5571 24.1883C41.6382 24.2423 41.7464 24.2423 41.8329 24.1937C41.9519 24.1182 41.9898 23.9618 41.914 23.8432C41.5409 23.2446 41.0433 22.7377 40.4539 22.3602C40.3187 22.2739 40.1781 22.1876 40.032 22.1175C38.8909 21.5297 37.5876 21.4218 36.3654 21.8155C35.1431 22.2038 34.148 23.0451 33.5586 24.1883C32.9691 25.3262 32.8609 26.6259 33.2557 27.8447C33.5964 28.9071 34.2832 29.7969 35.2026 30.3955C35.3378 30.4818 35.4838 30.5681 35.6299 30.6436C37.8472 31.7707 40.5404 31.0265 41.8654 28.9934Z" fill="#2CB6BF"/>
<path d="M98.0024 46.262L90.5825 53.8281L99.4788 51.4553L98.0024 46.262Z" fill="#E0EEEF"/>
<path d="M142.142 49.3951L99.9919 51.4336C98.9103 51.4875 98.0017 50.6247 98.0017 49.5461V32.2512C98.0017 30.3691 99.4997 28.8321 101.382 28.7728L139.374 27.6025C142.202 27.6025 144.495 29.8891 144.495 32.7096V46.9306C144.495 48.2464 143.457 49.3304 142.142 49.3951Z" fill="#E0EEEF"/>
<path opacity="0.85" d="M101.253 50.7381C100.582 50.7381 99.9492 50.4846 99.4571 50.0208C98.9379 49.5247 98.6512 48.856 98.6512 48.1387V32.5534C98.6512 30.7144 100.128 29.2314 102.015 29.1774L138.795 28.0719C141.581 28.0719 143.847 30.2776 143.847 32.9902V46.4292C143.847 47.7235 142.808 48.7859 141.483 48.8452L101.377 50.7381C101.334 50.7381 101.29 50.7381 101.253 50.7381ZM138.795 28.2499L102.015 29.3554C100.23 29.4093 98.8297 30.8115 98.8297 32.548V48.1333C98.8297 48.8021 99.0947 49.4222 99.5814 49.8806C100.068 50.339 100.701 50.5763 101.366 50.544L141.472 48.6511C142.7 48.5917 143.663 47.6102 143.663 46.413V32.9848C143.663 30.3746 141.478 28.2499 138.795 28.2499Z" fill="white"/>
<path d="M138.671 31.4045L104.968 32.661C104.638 32.6718 104.379 32.8929 104.389 33.1464L104.4 33.443C104.411 33.6964 104.682 33.8906 105.011 33.8798L138.72 32.6502C139.05 32.6394 139.315 32.4183 139.299 32.1649L139.282 31.8413C139.272 31.5878 139.001 31.3937 138.671 31.4045Z" fill="white"/>
<path d="M135.659 39.9146L101.956 41.1657C101.626 41.1765 101.366 41.403 101.377 41.6673L101.388 41.9747C101.399 42.2389 101.675 42.4385 101.999 42.4277L135.708 41.2089C136.038 41.1981 136.297 40.9716 136.286 40.7074L136.27 40.3676C136.259 40.1034 135.984 39.9038 135.659 39.9146Z" fill="white"/>
<path d="M139.595 43.4736L102.02 44.8865C101.652 44.9027 101.36 45.1292 101.371 45.3988L101.382 45.7062C101.393 45.9704 101.696 46.1754 102.063 46.1592L139.639 44.7786C140.006 44.7624 140.298 44.5359 140.288 44.2663L140.271 43.9266C140.261 43.6623 139.958 43.4574 139.595 43.4736Z" fill="white"/>
<path d="M120.192 36.4195L101.821 36.9534C101.642 36.9588 101.507 37.2069 101.518 37.5035L101.534 37.8486C101.55 38.1452 101.702 38.3771 101.886 38.3717L120.257 37.8756C120.435 37.8702 120.571 37.6221 120.56 37.3255L120.544 36.948C120.527 36.6514 120.371 36.4141 120.192 36.4195Z" fill="white"/>
<path d="M140.435 35.7892L123.07 36.2853C122.896 36.2907 122.772 36.5388 122.788 36.8354L122.805 37.1805C122.821 37.4771 122.967 37.709 123.134 37.7036L140.5 37.2452C140.673 37.2398 140.797 36.9918 140.781 36.6952L140.765 36.3177C140.754 36.0157 140.603 35.7838 140.435 35.7892Z" fill="white"/>
<path d="M33.9976 144.773C33.9976 144.773 33.6515 146.736 33.4784 148.677C33.4135 149.438 33.9976 150.096 34.7602 150.128C37.3506 150.236 42.8993 150.446 44.8895 150.355C45.1869 150.344 45.3816 150.036 45.2735 149.756C45.1815 149.524 45.0031 149.335 44.7759 149.233L35.6146 145.032L33.9976 144.773Z" fill="#1C7DAF"/>
<path d="M33.7109 143.619L33.9922 145.965C33.9922 145.965 35.5984 146.709 36.6908 145.873L36.0256 143.258L33.7109 143.619Z" fill="white"/>
<path d="M33.9231 99.5108C33.8041 100.126 33.2741 130.083 36.4865 143.511C36.5406 143.732 36.427 143.953 36.2161 144.04C35.724 144.239 34.7559 144.53 33.5986 144.568C33.2417 144.579 32.9172 144.347 32.8198 144.007C31.9005 140.89 27.5037 125.283 26.9304 110.372C26.2869 93.7134 26.9304 109.806 26.9304 109.806L27.309 99.5054L33.9231 99.5108Z" fill="#2CB6BF"/>
<path d="M23.4573 145.792C23.4573 145.792 22.9057 146.785 22.3703 149.416C22.2729 149.891 22.6082 150.344 23.0895 150.393C23.944 150.479 25.2636 150.587 26.3182 150.576C26.8049 150.571 27.1834 150.15 27.124 149.67C27.005 148.71 26.6426 147.135 25.5178 145.906L23.4573 145.792Z" fill="#1C7DAF"/>
<path d="M22.9764 142.777L23.6308 146.326C23.6308 146.326 24.2744 146.806 25.5507 146.455L25.237 142.637L22.9764 142.777Z" fill="white"/>
<path d="M21.2133 100.427C18.585 116.234 21.7812 139.499 22.8628 144.05C22.9277 144.331 23.1548 144.541 23.4361 144.589C23.9174 144.67 24.707 144.735 25.4911 144.509C25.7615 144.433 25.9508 144.19 25.9616 143.91C26.1077 140.227 25.8481 117.631 28.2925 108.7C28.4169 108.247 28.6927 107.853 29.0767 107.578L33.825 104.213L34.1873 98.7717L21.2133 100.427Z" fill="#2CB6BF"/>
<path d="M37.9504 70.4756C30.0763 70.3462 21.3909 72.5357 21.3909 72.5357C19.0438 86.1904 20.9799 101.938 20.9799 101.938C27.0748 103.534 33.9485 100.961 33.9485 100.961C34.9598 95.2558 39.6864 79.1959 39.6864 79.1959C43.5316 78.7213 46.7007 77.6158 49.3074 76.1489C47.3172 73.8462 46.3816 70.9232 45.9706 69.1921C43.1909 70.055 40.3787 70.5188 37.9504 70.4756Z" fill="#2CB6BF"/>
<path d="M61.1994 58.9135C60.4261 57.9805 59.4472 58.4227 59.4472 58.4227C58.2899 63.3033 52.2166 67.2562 45.9757 69.1923C46.3813 70.9234 47.3223 73.8517 49.3125 76.1491C59.669 70.3463 61.1994 58.9135 61.1994 58.9135Z" fill="white"/>
<path d="M61.0112 59.1506C61.0923 59.4094 60.1567 59.7977 59.6051 58.7461C59.5835 58.2446 59.2806 56.0874 59.578 55.6776C61.1842 53.4935 64.2939 50.7593 64.2939 50.7593C64.8185 51.277 64.3858 51.7839 64.3858 51.7839L62.877 53.3532C63.1906 53.9195 63.58 54.4049 63.7585 55.0897C63.8937 55.6129 63.8126 56.1683 63.5476 56.6429C63.2826 57.1175 62.9202 57.7376 62.5795 58.223C61.936 59.1452 61.0112 59.1506 61.0112 59.1506Z" fill="white"/>
<path d="M62.2172 54.3784L60.8435 55.5433L60.4109 56.7027L61.6385 58.0617C61.6385 58.0617 62.0495 55.7644 62.3578 55.2682C62.6661 54.7667 62.5038 54.524 62.2172 54.3784Z" fill="white"/>
<path d="M24.4096 80.1394L21.3919 72.5409C21.3919 72.5409 14.0369 77.5239 12.8309 83.8389C14.2208 83.9414 16.7464 84.3027 19.2233 85.5485C19.7641 82.5608 24.4096 80.1394 24.4096 80.1394Z" fill="#2CB6BF"/>
<path d="M30.8342 87.2904C30.8342 87.2904 22.5815 91.9445 19.7964 87.9699C19.2177 87.1448 19.0771 86.3251 19.2231 85.5432C16.7462 84.2974 14.2206 83.9361 12.8308 83.8336C12.4684 85.7373 12.6577 87.765 13.7826 89.8089C18.6607 98.7071 31.9321 89.3182 31.9321 89.3182L30.8342 87.2904Z" fill="white"/>
<path d="M29.8448 93.18L34.3497 77.4922C34.3984 77.3142 34.5552 77.1848 34.7391 77.1632C35.5557 77.0661 37.9191 76.8019 40.6501 76.57C43.9383 76.295 47.7618 76.0685 50.044 76.2572C50.3685 76.2842 50.5632 76.6293 50.4225 76.9151C49.1246 79.5361 43.7868 90.187 41.1098 93.6762C41.0233 93.7894 40.8827 93.8595 40.7367 93.8595L30.2829 93.7624C29.98 93.7624 29.7637 93.4712 29.8448 93.18Z" fill="#E0EEEF"/>
<path d="M41.1211 75.2054L44.3876 74.6607C44.5607 74.6337 44.7067 74.7955 44.6472 74.9627L44.3227 75.9388C44.2957 76.0251 44.22 76.0844 44.1334 76.0952L40.9913 76.5158C40.8291 76.5374 40.6939 76.3918 40.7318 76.23L40.9319 75.3779C40.9481 75.2916 41.0238 75.2215 41.1211 75.2054Z" fill="#2CB6BF"/>
<path d="M38.6703 77.9612L38.9407 76.5644C38.9677 76.4242 39.0813 76.3164 39.2273 76.3056L45.8252 75.6369C46.0469 75.6153 46.2254 75.8148 46.1713 76.0359L45.7495 77.7778C45.717 77.918 45.5926 78.0205 45.452 78.0259L39.0056 78.3495C38.7947 78.3603 38.6324 78.1715 38.6703 77.9612Z" fill="#2CB6BF"/>
<path d="M30.9316 89.3884C30.9316 89.3884 30.3042 86.816 30.5584 85.9046C30.8126 84.9932 31.3047 83.8176 32.938 84.0764C34.5712 84.3353 36.5019 85.0256 36.5019 85.0256C36.5019 85.0256 36.4046 86.2174 35.1607 85.8291L35.9286 86.4223C35.9286 86.4223 35.8205 87.3769 34.7713 86.8645L35.4906 87.6519C35.4906 87.6519 35.0417 88.4339 34.2684 87.9323C33.495 87.4308 33.1219 89.6958 30.9316 89.3884Z" fill="white"/>
<path d="M29.9745 64.1069L27.4706 71.328C27.4273 71.4466 27.476 71.5814 27.5896 71.6408C28.271 72.0183 30.7317 73.1076 33.6953 71.2309C34.0036 71.0368 34.2145 70.7186 34.2631 70.3573L35.0744 64.1069H29.9745Z" fill="white"/>
<path d="M35.4267 57.4138C35.4267 57.4138 38.1795 62.5748 37.8225 64.6618C37.471 66.7489 34.0639 66.5979 31.0841 64.9045L29.002 59.3283L35.4267 57.4138Z" fill="white"/>
<path d="M31.2185 62.1707C31.3375 62.1168 31.3861 61.9711 31.3104 61.8579C31.0887 61.5235 30.6777 60.8386 30.5479 60.24C30.5479 60.24 30.0558 59.9219 31.808 59.5066C33.5602 59.086 36.1723 58.4388 36.7239 56.9504C37.2593 55.4997 35.8532 51.8541 33.6089 54.7609C33.5223 54.8741 33.3547 54.8741 33.2682 54.7609C32.9004 54.2809 31.9324 53.294 30.5912 53.8926C29.3311 54.4535 29.1905 55.3757 29.2121 55.8395C29.2175 55.9743 29.0931 56.0821 28.9633 56.0552C28.3252 55.9365 26.8001 55.8287 26.0916 57.3926C25.5076 58.6761 25.8861 59.4041 26.2322 59.7601C26.3458 59.8733 26.2971 60.0675 26.1403 60.1106C25.7239 60.24 25.1831 60.5906 25.2372 61.5667C25.3129 62.9149 26.8271 62.7963 27.2544 62.7369C27.3247 62.7261 27.395 62.7531 27.4437 62.8016C27.8114 63.2115 29.4771 64.9426 31.278 65.1475C31.4348 65.1637 31.5538 65.0127 31.5051 64.8617L30.7264 62.6021C30.6885 62.4996 30.7426 62.381 30.8399 62.3379L31.2185 62.1707Z" fill="#2D5883"/>
<path d="M31.5319 62.4888C31.5319 62.4888 29.5742 61.1514 29.4282 62.2785C29.2875 63.4056 31.1912 63.9125 32.1376 63.4919L31.5319 62.4888Z" fill="white"/>
</svg>
