<svg width="123" height="154" viewBox="0 0 123 154" fill="none" xmlns="http://www.w3.org/2000/svg">
<g clip-path="url(#clip0_9_2425)">
<path d="M107.998 114.721C108.851 114.757 123.746 115.111 122.573 118.932C122.395 116.172 113.366 119.428 109.882 117.942C109.527 117.765 108.851 116.632 107.998 114.721Z" fill="#2CB6BF"/>
<path d="M32.1005 145.72L32.5982 149.435L19.9783 148.267L18.9829 144.41L32.1005 145.72Z" fill="#2CB6BF"/>
<path d="M66.5833 84.3957C66.5833 84.7142 66.5478 85.0327 66.4056 85.3865L66.1567 86.0235C66.0145 86.3773 65.8368 86.6958 65.588 87.0143C65.3391 87.3327 65.0192 87.5804 64.6992 87.8281C64.3793 88.0405 64.0238 88.2528 63.6328 88.3589C63.2417 88.5005 62.8862 88.5359 62.4952 88.5359L58.7981 88.5005C58.7625 88.5005 58.7625 88.5005 58.7625 88.5005H58.727H58.6914C58.6559 88.5005 58.6559 88.5005 58.6559 88.5005C58.3004 88.4651 57.9804 88.3589 57.7316 88.2174C57.4828 88.0759 57.2695 87.8635 57.1273 87.6158C56.9851 87.3681 56.914 87.085 56.8784 86.7666C56.8784 86.4481 56.914 86.1296 57.0562 85.7758L57.305 85.1388C57.4472 84.785 57.625 84.4665 57.8738 84.148C58.1226 83.8295 58.4426 83.5818 58.7625 83.3341C59.0825 83.1218 59.438 82.9095 59.829 82.8033C60.1845 82.6618 60.5755 82.6264 60.931 82.6264L64.6281 82.6618C64.6637 82.6618 64.6637 82.6618 64.6637 82.6618C64.6992 82.6618 64.6992 82.6618 64.6992 82.6618C64.7348 82.6618 64.7348 82.6618 64.7348 82.6618C64.7703 82.6618 64.7703 82.6618 64.7703 82.6618C65.1258 82.6972 65.4458 82.8033 65.6946 82.9449C65.9434 83.0864 66.1567 83.2987 66.2989 83.5464C66.4767 83.7941 66.5833 84.0772 66.5833 84.3957Z" fill="#2CB6BF"/>
<path d="M55.4563 83.971C55.4918 84.2895 55.4207 84.6434 55.2785 84.9972L55.0297 85.6342C54.8875 85.988 54.6742 86.3419 54.4253 86.625C54.1765 86.9435 53.8566 87.1912 53.5366 87.4035C53.2167 87.6158 52.8612 87.7927 52.4701 87.8989C52.0791 88.005 51.7236 88.0404 51.3326 88.005L47.7421 87.722C47.3866 87.6866 47.0311 87.5804 46.7823 87.4389C46.4979 87.2973 46.2846 87.0496 46.1424 86.8019C46.0002 86.5542 45.8936 86.2357 45.8936 85.9173C45.8936 85.5988 45.9291 85.2449 46.0713 84.8911L46.3201 84.2541C46.4623 83.9003 46.6756 83.5464 46.9245 83.2633C47.1733 82.9802 47.4933 82.6971 47.8132 82.4848C48.1331 82.2725 48.4886 82.0956 48.8797 81.9894C49.2352 81.8833 49.6262 81.8479 49.9817 81.8833L53.5722 82.1664C53.9277 82.2017 54.2476 82.3079 54.532 82.4494C54.8164 82.6264 55.0297 82.8387 55.1719 83.0864C55.3496 83.3341 55.4563 83.6526 55.4563 83.971Z" fill="#2CB6BF"/>
<path d="M44.5785 83.0864C44.5785 83.4049 44.543 83.7587 44.4008 84.1126L44.1519 84.7495C44.0097 85.1034 43.7965 85.4573 43.5476 85.7404C43.2988 86.0234 42.9788 86.3065 42.6589 86.5188C42.3389 86.7312 41.9834 86.9081 41.5924 87.0142C41.2369 87.1204 40.8459 87.1558 40.4904 87.1204L36.9355 86.8373C36.58 86.8019 36.26 86.6958 35.9756 86.5542C35.6912 86.4127 35.478 86.165 35.3358 85.9173C35.1936 85.6696 35.0869 85.3511 35.0869 85.0326C35.0869 84.7142 35.1225 84.3603 35.2647 84.0064L35.5135 83.3695C35.6557 83.0156 35.869 82.6618 36.1178 82.3787C36.3667 82.0956 36.6866 81.8125 37.0066 81.6002C37.3265 81.3879 37.7176 81.2109 38.073 81.1048C38.4285 80.9986 38.8196 80.9632 39.1751 80.9986L42.73 81.2817C43.0855 81.3171 43.4054 81.4233 43.6898 81.5648C43.9742 81.7063 44.1875 81.954 44.3297 82.2017C44.4719 82.4495 44.5785 82.7679 44.5785 83.0864Z" fill="#2CB6BF"/>
<path d="M30.0031 86.1296L26.5193 85.5988C26.1638 85.528 25.8794 85.4219 25.6305 85.2449C25.3817 85.068 25.1684 84.8557 25.0262 84.5726C24.884 84.2895 24.8129 84.0064 24.7773 83.6879C24.7773 83.3695 24.8129 83.0156 24.9551 82.6618L25.2039 82.0248C25.3461 81.6709 25.5239 81.3525 25.7727 81.0694C26.0216 80.7863 26.306 80.5386 26.5904 80.3263C26.9103 80.114 27.2302 79.9724 27.5857 79.8663C27.9412 79.7601 28.2967 79.7247 28.6522 79.7601H28.6877H28.7233H28.7588H28.7944L32.2782 80.2909C32.6337 80.3617 32.9181 80.4678 33.2025 80.6447C33.4513 80.8217 33.6646 81.0694 33.8068 81.3171C33.949 81.6002 34.0201 81.8833 34.0557 82.2017C34.0557 82.5202 34.0201 82.8741 33.8779 83.2279L33.6291 83.8649C33.4869 84.2187 33.3091 84.5372 33.0603 84.8203C32.8114 85.1034 32.5271 85.3511 32.2427 85.5634C31.9227 85.7757 31.6028 85.9173 31.2473 86.0234C30.8918 86.1296 30.5363 86.165 30.1808 86.1296C30.1453 86.1296 30.1453 86.1296 30.1453 86.1296C30.1097 86.1296 30.1097 86.1296 30.1097 86.1296H30.0742C30.0031 86.1296 30.0031 86.1296 30.0031 86.1296Z" fill="#2CB6BF"/>
<path d="M70.1384 74.983C70.1384 75.3015 70.1029 75.62 69.9607 75.9738L69.7118 76.6108C69.5696 76.9646 69.3919 77.2831 69.1075 77.6016C68.8586 77.9201 68.5742 78.1678 68.2188 78.4155C67.8988 78.6632 67.5433 78.8401 67.1523 78.9463C66.7968 79.0878 66.4058 79.1586 66.0147 79.1232L62.3176 79.0878C62.2821 79.0878 62.2821 79.0878 62.2821 79.0878H62.2465C62.211 79.0878 62.211 79.0878 62.211 79.0878H62.1754C61.8199 79.0524 61.5 78.9462 61.2511 78.8047C61.0023 78.6632 60.789 78.4508 60.6468 78.2031C60.5046 77.9554 60.4335 77.6724 60.3979 77.3893C60.3979 77.0708 60.4335 76.7523 60.5757 76.3985L60.8245 75.7615C60.9667 75.4076 61.1445 75.0892 61.3933 74.7707C61.6422 74.4876 61.9621 74.2045 62.2821 73.9568C62.602 73.7445 62.9575 73.5322 63.3485 73.426C63.704 73.2845 64.0951 73.2137 64.4861 73.2491L68.1832 73.2845C68.2188 73.2845 68.2188 73.2845 68.2543 73.2845H68.2899H68.3254H68.361C68.7164 73.3199 69.0364 73.426 69.2852 73.5676C69.5341 73.7091 69.7474 73.9214 69.8896 74.1691C70.0318 74.4168 70.1029 74.6999 70.1384 74.983Z" fill="#2CB6BF"/>
<path d="M59.118 74.5584C59.1535 74.8769 59.0824 75.2661 58.9402 75.62L58.6914 76.2569C58.5492 76.6108 58.3359 76.9646 58.0871 77.2831C57.8382 77.6016 57.5183 77.8847 57.1628 78.097C56.8073 78.3093 56.4518 78.4862 56.0608 78.5924C55.6697 78.6985 55.2787 78.7339 54.8876 78.6985L40.4547 77.5308C40.0636 77.4954 39.7437 77.3893 39.4593 77.2123C39.1749 77.0708 38.9616 76.8231 38.8194 76.5754C38.6772 76.3277 38.5706 76.0092 38.5706 75.6553C38.535 75.3369 38.6061 74.9476 38.7483 74.5938L38.9972 73.9568C39.1394 73.5676 39.3527 73.2491 39.6015 72.9306C39.8504 72.6122 40.1703 72.3644 40.5258 72.1167C40.8813 71.9044 41.2368 71.7275 41.6278 71.6213C42.0188 71.5152 42.4099 71.4798 42.7654 71.4798L57.1983 72.6475C57.5894 72.6829 57.9093 72.7891 58.1937 72.9306C58.4781 73.1076 58.6914 73.3199 58.8691 73.5676C59.0113 73.9214 59.0824 74.2045 59.118 74.5584Z" fill="#2CB6BF"/>
<path d="M31.1765 70.5244C31.532 70.4182 31.8875 70.3828 32.243 70.4182H32.2786H32.3141H32.3497H32.3852L35.8335 70.949C36.189 70.9844 36.4734 71.1259 36.7222 71.3029C36.9711 71.4798 37.1843 71.6921 37.3265 71.9752C37.4687 72.2583 37.5398 72.5414 37.5754 72.8598C37.5754 73.1783 37.5398 73.5322 37.3976 73.886L37.1488 74.523C37.0066 74.8768 36.8289 75.1953 36.58 75.4784C36.3312 75.7615 36.0468 76.0092 35.7624 76.2215C35.4424 76.4338 35.1225 76.5754 34.767 76.6815C34.4115 76.7877 34.056 76.8231 33.7005 76.7877H33.665C33.6294 76.7877 33.6294 76.7877 33.6294 76.7877H33.5939H33.5583L30.0745 76.2569C29.719 76.1861 29.4346 76.08 29.1858 75.903C28.9369 75.7261 28.7237 75.5138 28.5815 75.2307C28.4393 74.9476 28.3682 74.6645 28.3682 74.3461C28.3682 74.0276 28.4037 73.6737 28.5459 73.3199L28.7948 72.6829C28.9369 72.3291 29.1147 72.0106 29.3635 71.7275C29.6124 71.4444 29.8968 71.1967 30.1812 70.9844C30.5011 70.7721 30.8211 70.6305 31.1765 70.5244Z" fill="#2CB6BF"/>
<path d="M13.8641 135.635C13.5086 135.741 13.1531 135.776 12.7976 135.741H12.762H12.7265C12.6909 135.741 12.6909 135.741 12.6909 135.741H12.6554L9.34933 135.175C8.99384 135.104 8.70945 134.998 8.42505 134.821C8.17621 134.644 7.96291 134.396 7.82072 134.148C7.67852 133.865 7.60742 133.582 7.60742 133.228C7.60742 132.91 7.64297 132.556 7.78517 132.202L7.99846 131.601C8.14066 131.247 8.3184 130.928 8.56725 130.645C8.81609 130.362 9.10049 130.114 9.42043 129.902C9.74037 129.69 10.0959 129.548 10.4158 129.442C10.7713 129.336 11.1268 129.301 11.4823 129.336C11.5178 129.336 11.5178 129.336 11.5178 129.336H11.5534H11.5889H11.6245L14.9305 129.867C15.286 129.937 15.5704 130.044 15.8548 130.221C16.1037 130.397 16.317 130.645 16.4592 130.893C16.6014 131.176 16.6725 131.459 16.708 131.813C16.708 132.131 16.6725 132.485 16.5303 132.839L16.2814 133.476C16.1392 133.83 15.9615 134.148 15.7126 134.431C15.4638 134.715 15.1794 134.962 14.8594 135.175C14.5751 135.352 14.2196 135.528 13.8641 135.635Z" fill="#2CB6BF"/>
<path d="M26.6259 132.698C26.6259 133.016 26.5903 133.37 26.4481 133.688L26.1993 134.325C26.0571 134.679 25.8793 134.998 25.6305 135.281C25.3817 135.564 25.0973 135.847 24.7773 136.059C24.4574 136.272 24.1019 136.413 23.7464 136.519C23.3909 136.625 23.0354 136.661 22.6799 136.625L19.2672 136.307C18.9117 136.272 18.5918 136.165 18.3429 136.024C18.0941 135.882 17.8808 135.67 17.7386 135.387C17.5964 135.139 17.5253 134.856 17.4897 134.538C17.4897 134.219 17.5253 133.865 17.6675 133.511L17.9163 132.91C18.0585 132.556 18.2363 132.238 18.4851 131.955C18.734 131.671 19.0184 131.388 19.3383 131.211C19.6582 130.999 20.0137 130.858 20.3692 130.751C20.7247 130.645 21.0802 130.61 21.4357 130.645L24.8484 130.964C25.2039 130.999 25.5238 131.105 25.7727 131.247C26.0215 131.388 26.2348 131.601 26.377 131.884C26.5192 132.096 26.6259 132.379 26.6259 132.698Z" fill="#2CB6BF"/>
<path d="M3.69696 139.739C4.65678 140.306 5.82991 140.695 7.10967 140.801L41.0591 143.915C42.3744 144.021 43.7608 143.88 45.0761 143.526C46.427 143.172 47.7423 142.57 48.951 141.792C50.1597 141.013 51.2972 140.058 52.2571 138.996C53.2169 137.899 53.999 136.696 54.5322 135.422L62.1042 117.092C62.6374 115.818 63.1707 114.332 63.7039 112.74C64.2371 111.148 64.7348 109.484 65.197 107.821C65.6591 106.158 66.0501 104.495 66.4056 102.938C66.7256 101.381 67.01 99.9302 67.1522 98.6916C67.2943 97.4531 67.6498 96.0377 68.1475 94.5161C68.6452 93.0299 69.2851 91.4375 69.9961 89.8805C70.7426 88.3235 71.5602 86.7666 72.449 85.3157C73.3377 83.8649 74.262 82.5556 75.2218 81.3879L75.5062 81.034C76.466 79.9017 77.4614 78.557 78.4568 77.1062C79.4522 75.6553 80.4475 74.063 81.4074 72.506C82.3672 70.949 83.2204 69.3212 84.0024 67.7996C84.749 66.278 85.4244 64.8272 85.8866 63.5533L104.656 13.3405C105.119 12.102 105.296 10.8635 105.225 9.73117C105.154 8.59882 104.834 7.53724 104.301 6.6172C104.194 6.44027 104.088 6.29872 103.981 6.15718C104.905 6.75874 109.776 15.3575 110.309 16.2776C110.842 17.1976 111.162 18.2592 111.233 19.3916C111.304 20.5239 111.126 21.7624 110.664 23.0009L92.6409 71.1967L91.8944 73.2137C91.4322 74.4876 90.7923 75.9384 90.0102 77.46C89.2637 78.9816 88.375 80.574 87.4152 82.1664C86.4909 83.7587 85.46 85.3157 84.4646 86.7666C83.4692 88.2174 82.4738 89.562 81.514 90.6944L81.2296 91.0483C80.2698 92.1806 79.3455 93.5253 78.4568 94.9761C77.5681 96.4269 76.7504 97.9839 76.0039 99.5409C75.8617 99.8594 75.7195 100.178 75.5773 100.496C75.0085 101.735 74.5464 103.009 74.1553 104.176C73.6577 105.663 73.3022 107.078 73.16 108.352C73.0178 109.591 72.7334 111.041 72.4134 112.598C72.0935 114.155 71.6669 115.818 71.2048 117.482C70.7426 119.145 70.2449 120.808 69.7117 122.4C69.1785 123.993 68.6452 125.443 68.112 126.753L60.5756 145.083C60.0423 146.392 59.2603 147.595 58.3004 148.657C57.3406 149.718 56.2386 150.674 54.9944 151.452C53.7857 152.231 52.4348 152.832 51.1195 153.186C49.7686 153.575 48.4178 153.717 47.1024 153.575L13.153 150.461C11.8377 150.355 10.7001 149.966 9.74031 149.364C8.78048 148.798 7.9984 147.984 7.42962 147.064C6.86083 146.144 0.924126 137.369 0.853027 136.236C0.995224 136.661 1.20852 137.05 1.42181 137.439C1.95505 138.395 2.73713 139.173 3.69696 139.739ZM32.5984 149.435L32.1007 145.72L18.9831 144.446L19.9785 148.303L32.5984 149.435Z" fill="#2CB6BF"/>
<path d="M107.998 114.722C108.851 116.597 109.491 117.765 109.882 117.906C113.366 119.428 122.431 116.137 122.573 118.897C122.715 121.409 111.304 136.059 106.043 138.678C103.625 140.659 95.2002 140.023 92.4629 137.369C91.0765 136.024 83.1846 118.154 75.5415 100.496C75.6837 100.178 75.8259 99.8594 75.9681 99.5409C76.7146 97.9839 77.5323 96.427 78.421 94.9761C79.3097 93.5253 80.234 92.1806 81.1938 91.0483L81.4782 90.6944C82.438 89.5621 83.4334 88.2174 84.4288 86.7666C85.4242 85.3157 86.4195 83.7234 87.3794 82.1664C88.3036 80.574 89.1924 78.9816 89.9745 77.46C90.721 75.9384 91.3964 74.4876 91.8586 73.2137L92.6051 71.1967C98.3285 88.7128 104.692 107.397 107.998 114.722Z" fill="#2CB6BF"/>
<path d="M36.9711 133.653C36.9711 133.971 36.9355 134.325 36.7933 134.679L36.5445 135.316C36.4023 135.67 36.2246 135.988 35.9757 136.307C35.7269 136.59 35.4425 136.873 35.1225 137.085C34.8026 137.298 34.4471 137.439 34.0916 137.545C33.7361 137.652 33.3806 137.687 33.0251 137.652L29.6124 137.333C29.2569 137.298 28.937 137.192 28.6881 137.05C28.4393 136.873 28.226 136.696 28.0838 136.413C27.9416 136.165 27.835 135.882 27.835 135.564C27.835 135.245 27.8705 134.892 28.0127 134.538L28.2615 133.936C28.4037 133.582 28.5815 133.264 28.8303 132.945C29.0792 132.662 29.3636 132.379 29.6835 132.202C30.0035 132.025 30.3589 131.848 30.7144 131.742C31.0699 131.636 31.4254 131.601 31.7809 131.636L35.1936 131.954C35.5491 131.99 35.8691 132.096 36.1179 132.238C36.3668 132.379 36.58 132.627 36.7222 132.875C36.8644 133.051 36.9711 133.335 36.9711 133.653Z" fill="#2CB6BF"/>
<path d="M47.6712 134.113C47.6712 134.432 47.6357 134.785 47.4935 135.139L47.2802 135.741C47.138 136.095 46.9247 136.449 46.6758 136.732C46.427 137.05 46.107 137.333 45.7871 137.546C45.4672 137.758 45.0761 137.97 44.7206 138.076C44.3296 138.218 43.9741 138.253 43.5831 138.253L40.0637 138.182H40.0281H39.9926H39.957H39.9215C39.566 138.147 39.2461 138.041 38.9972 137.899C38.7484 137.758 38.5351 137.546 38.3929 137.298C38.2507 137.05 38.1796 136.767 38.144 136.449C38.144 136.13 38.1796 135.776 38.3218 135.422L38.5706 134.785C38.7128 134.432 38.9261 134.078 39.175 133.795C39.4238 133.476 39.7438 133.228 40.0637 132.981C40.3836 132.733 40.7747 132.556 41.1302 132.45C41.4857 132.308 41.8767 132.273 42.2677 132.273L45.7871 132.344C45.8227 132.344 45.8227 132.344 45.8227 132.344C45.8582 132.344 45.8582 132.344 45.8582 132.344H45.8938H45.9293C46.2848 132.379 46.6047 132.485 46.8536 132.627C47.1024 132.768 47.3157 132.981 47.4579 133.228C47.5646 133.511 47.6712 133.795 47.6712 134.113Z" fill="#2CB6BF"/>
<path d="M43.5472 104.849C43.5828 105.238 43.5117 105.663 43.3339 106.123L43.014 106.972C42.8363 107.397 42.5874 107.821 42.303 108.175C41.9831 108.529 41.6276 108.847 41.2365 109.131C40.8455 109.414 40.3834 109.591 39.9568 109.732C39.4946 109.874 39.0325 109.909 38.6059 109.874L33.9134 109.484C33.4513 109.449 33.0602 109.307 32.7403 109.131C32.4204 108.954 32.1715 108.671 31.9582 108.352C31.7805 108.034 31.6738 107.68 31.6383 107.29C31.6027 106.901 31.6738 106.477 31.8516 106.017L32.1715 105.167C32.3493 104.743 32.5981 104.318 32.8825 103.964C33.2024 103.61 33.5579 103.256 33.949 103.009C34.34 102.761 34.8022 102.549 35.2287 102.407C35.6909 102.266 36.153 102.23 36.5796 102.266L41.2721 102.655C41.7342 102.69 42.1253 102.832 42.4452 103.009C42.7652 103.221 43.0496 103.469 43.2273 103.787C43.4406 104.07 43.5472 104.424 43.5472 104.849Z" fill="#2CB6BF"/>
<path d="M40.1703 113.978C40.2058 114.368 40.1347 114.792 39.957 115.252L39.6371 116.102C39.4593 116.526 39.2105 116.951 38.9261 117.305C38.6061 117.659 38.2506 118.012 37.8596 118.26C37.4686 118.543 37.0064 118.72 36.5798 118.862C36.1177 119.003 35.6555 119.039 35.229 119.003L30.5365 118.579C30.0743 118.543 29.6833 118.402 29.3634 118.225C29.0434 118.048 28.759 117.765 28.5813 117.446C28.4035 117.128 28.2969 116.774 28.2613 116.385C28.2258 115.995 28.2969 115.571 28.4746 115.111L28.7946 114.261C28.9723 113.837 29.2212 113.412 29.5055 113.058C29.8255 112.705 30.181 112.386 30.572 112.103C30.9631 111.82 31.4252 111.643 31.8518 111.501C32.3139 111.36 32.7761 111.324 33.2027 111.36L37.8951 111.749C38.3573 111.784 38.7483 111.926 39.0683 112.103C39.3882 112.315 39.6726 112.563 39.8503 112.881C40.0281 113.2 40.1347 113.589 40.1703 113.978Z" fill="#2CB6BF"/>
<path d="M36.722 123.037C36.7575 123.426 36.6864 123.851 36.5087 124.311L36.1887 125.16C36.011 125.62 35.7621 126.01 35.4422 126.364C35.1222 126.717 34.7667 127.071 34.3757 127.319C33.9847 127.602 33.5225 127.779 33.0959 127.92C32.6338 128.062 32.1717 128.097 31.7451 128.062L27.0526 127.637C26.5904 127.602 26.1994 127.46 25.8795 127.284C25.5595 127.071 25.2751 126.824 25.0974 126.505C24.9196 126.187 24.813 125.833 24.7774 125.443C24.7419 125.054 24.813 124.63 24.9907 124.17L25.3107 123.32C25.4884 122.896 25.7373 122.471 26.0217 122.117C26.3416 121.763 26.6971 121.409 27.1237 121.162C27.5147 120.914 27.9769 120.702 28.4035 120.56C28.8656 120.419 29.3277 120.383 29.7543 120.419L34.4468 120.843C34.9089 120.879 35.3 121.02 35.6199 121.197C35.9399 121.374 36.1887 121.657 36.402 121.976C36.6153 122.294 36.722 122.648 36.722 123.037Z" fill="#2CB6BF"/>
<path d="M65.019 95.5423C65.1967 96.3208 65.1967 97.1347 65.019 97.9839L64.2014 101.912C64.0236 102.761 63.7748 103.752 63.4904 104.813C63.206 105.875 62.886 107.007 62.5305 108.14C62.1751 109.272 61.784 110.404 61.4285 111.466C61.0375 112.528 60.682 113.518 60.3265 114.368L51.617 134.998C51.2615 135.847 50.7282 136.661 50.0884 137.369C49.4485 138.076 48.7019 138.713 47.8843 139.244C47.0667 139.775 46.178 140.164 45.2892 140.412C44.4005 140.659 43.4762 140.766 42.5875 140.695L7.89154 137.51C7.03836 137.439 6.25628 137.192 5.61639 136.802C4.97651 136.413 4.44327 135.882 4.05223 135.281C3.66119 134.679 3.4479 133.936 3.3768 133.158C3.3057 132.379 3.41235 131.565 3.69674 130.681L10.6288 110.121C10.9132 109.272 11.2687 108.281 11.6953 107.255C12.1219 106.193 12.584 105.097 13.0817 104C13.5794 102.903 14.0771 101.806 14.5748 100.779C15.0725 99.7532 15.5702 98.7978 16.0323 97.9485L18.1652 94.0915C18.6274 93.2776 19.2317 92.4991 19.9427 91.7914C20.6537 91.119 21.4713 90.4821 22.36 89.9867C23.2488 89.4913 24.1375 89.102 25.0618 88.8543C25.986 88.6066 26.9103 88.5005 27.7635 88.5712L59.971 91.2606C60.8597 91.3313 61.6418 91.579 62.3528 91.9683C63.0282 92.3575 63.6326 92.8529 64.0947 93.4545C64.5213 94.0561 64.8412 94.7638 65.019 95.5423ZM62.104 97.4177C62.2462 96.9931 62.3173 96.6039 62.3173 96.2146C62.2817 95.8254 62.2106 95.5069 62.0329 95.1884C61.8551 94.9053 61.6063 94.6576 61.2863 94.4807C60.9664 94.3038 60.6109 94.1622 60.1488 94.1622C60.1132 94.1622 60.1132 94.1622 60.0777 94.1622C60.0421 94.1622 60.0421 94.1622 60.0066 94.1622C59.971 94.1622 59.971 94.1622 59.9355 94.1622C59.8999 94.1622 59.8999 94.1622 59.8644 94.1622L55.0297 94.0915C54.5675 94.0915 54.1054 94.1622 53.6788 94.3038C53.2167 94.4453 52.7901 94.693 52.399 94.9761C52.008 95.2592 51.617 95.5777 51.3326 95.9669C51.0126 96.3208 50.7638 96.7454 50.6216 97.17L50.3017 98.0193C50.1595 98.4439 50.0884 98.8332 50.0884 99.2224C50.0884 99.6117 50.195 99.9301 50.3727 100.249C50.5505 100.532 50.7993 100.779 51.1193 100.956C51.4392 101.133 51.7947 101.275 52.2213 101.31C52.2569 101.31 52.2569 101.31 52.2924 101.31C52.328 101.31 52.328 101.31 52.3635 101.31C52.3991 101.31 52.399 101.31 52.4346 101.31C52.4701 101.31 52.4701 101.31 52.5057 101.31L57.3759 101.381C57.8381 101.381 58.3002 101.31 58.7268 101.169C59.1889 101.027 59.6155 100.779 60.0066 100.496C60.3976 100.213 60.7886 99.8948 61.073 99.5055C61.393 99.1163 61.6418 98.727 61.784 98.3024L62.104 97.4177ZM58.3358 106.512C58.478 106.087 58.549 105.663 58.549 105.309C58.5135 104.92 58.4424 104.601 58.2647 104.283C58.0869 104 57.8381 103.752 57.5181 103.575C57.1982 103.398 56.8427 103.256 56.3806 103.221C56.345 103.221 56.345 103.221 56.3095 103.221C56.2739 103.221 56.2739 103.221 56.2384 103.221C56.2028 103.221 56.2028 103.221 56.1673 103.221C56.1317 103.221 56.1317 103.221 56.0962 103.221L51.2615 103.15C50.7993 103.15 50.3372 103.221 49.9106 103.363C49.4485 103.504 49.0219 103.752 48.6308 104.035C48.2398 104.318 47.8488 104.636 47.5644 105.026C47.2444 105.38 46.9956 105.804 46.8534 106.229L46.5334 107.078C46.3912 107.503 46.3201 107.927 46.3201 108.281C46.3201 108.67 46.4268 108.989 46.6045 109.307C46.7823 109.591 47.0311 109.838 47.3511 110.015C47.671 110.192 48.0265 110.334 48.4886 110.369C48.5242 110.369 48.5242 110.369 48.5597 110.369C48.5953 110.369 48.5953 110.369 48.6308 110.369C48.6664 110.369 48.6664 110.369 48.7019 110.369C48.7375 110.369 48.7375 110.369 48.773 110.369L53.6433 110.44C54.1054 110.44 54.5675 110.369 55.0297 110.227C55.4918 110.086 55.9184 109.838 56.3095 109.555C56.7005 109.272 57.0915 108.954 57.3759 108.564C57.6959 108.175 57.9447 107.786 58.0869 107.361L58.3358 106.512ZM54.3898 115.642C54.532 115.217 54.6031 114.792 54.6031 114.438C54.5675 114.049 54.4964 113.695 54.3187 113.412C54.141 113.129 53.8921 112.881 53.5722 112.669C53.2522 112.492 52.8967 112.351 52.4346 112.315C52.4346 112.315 52.3991 112.315 52.3635 112.315C52.328 112.315 52.328 112.315 52.2924 112.315C52.2569 112.315 52.2569 112.315 52.2213 112.315C52.1858 112.315 52.1858 112.315 52.1502 112.315L47.3155 112.244C46.8534 112.244 46.3912 112.315 45.9291 112.457C45.467 112.598 45.0404 112.846 44.6493 113.129C44.2583 113.412 43.8673 113.731 43.5829 114.12C43.2629 114.474 43.0496 114.898 42.8719 115.323L42.5519 116.172C42.4097 116.597 42.3386 117.022 42.3386 117.375C42.3386 117.765 42.4453 118.083 42.623 118.402C42.8008 118.685 43.0496 118.932 43.3696 119.145C43.6895 119.322 44.045 119.463 44.5071 119.499C44.5427 119.499 44.5427 119.499 44.5782 119.499C44.6138 119.499 44.6138 119.499 44.6493 119.499C44.6849 119.499 44.6849 119.499 44.7204 119.499C44.756 119.499 44.756 119.499 44.7915 119.499L49.6618 119.569C50.1239 119.569 50.586 119.499 51.0482 119.357C51.5103 119.216 51.9369 118.968 52.3279 118.685C52.719 118.402 53.11 118.083 53.3944 117.694C53.7144 117.34 53.9632 116.915 54.1054 116.491L54.3898 115.642ZM50.9771 124.7C51.1193 124.276 51.1904 123.851 51.1904 123.497C51.1548 123.108 51.0837 122.79 50.906 122.471C50.7282 122.188 50.4794 121.94 50.1595 121.728C49.8395 121.551 49.484 121.409 49.0219 121.374C48.9863 121.374 48.9863 121.374 48.9508 121.374C48.9152 121.374 48.9152 121.374 48.8797 121.374C48.8441 121.374 48.8441 121.374 48.8086 121.374C48.773 121.374 48.773 121.374 48.7375 121.374L43.8673 121.303C43.4051 121.303 42.943 121.374 42.5164 121.516C42.0543 121.657 41.6277 121.905 41.2366 122.188C40.8456 122.471 40.4545 122.79 40.1701 123.179C39.8502 123.533 39.6014 123.957 39.4592 124.382L39.1392 125.231C38.997 125.656 38.9259 126.08 38.9259 126.434C38.9615 126.824 39.0326 127.142 39.2103 127.46C39.3881 127.744 39.6369 128.027 39.9569 128.204C40.2768 128.381 40.6323 128.522 41.0944 128.557C41.13 128.557 41.13 128.557 41.1655 128.557C41.2011 128.557 41.2011 128.557 41.2366 128.557C41.2366 128.557 41.2722 128.557 41.3077 128.557C41.3433 128.557 41.3433 128.557 41.3788 128.557L46.2491 128.664C46.7112 128.664 47.1733 128.593 47.6355 128.451C48.0976 128.31 48.5242 128.062 48.9508 127.779C49.3418 127.496 49.7329 127.177 50.0173 126.788C50.3372 126.434 50.586 126.01 50.7282 125.585L50.9771 124.7ZM47.4933 135.139C47.6355 134.785 47.671 134.432 47.671 134.113C47.671 133.795 47.5644 133.511 47.4222 133.264C47.28 133.016 47.0667 132.804 46.8178 132.662C46.569 132.521 46.2491 132.415 45.8936 132.379H45.858H45.8225C45.7869 132.379 45.7869 132.379 45.7869 132.379H45.7514L42.232 132.308C41.841 132.308 41.4855 132.379 41.0944 132.485C40.7389 132.627 40.3479 132.804 40.028 133.016C39.708 133.228 39.3881 133.511 39.1392 133.83C38.8904 134.148 38.6771 134.467 38.5349 134.821L38.286 135.458C38.1438 135.812 38.1083 136.165 38.1083 136.484C38.1083 136.802 38.2149 137.085 38.3571 137.333C38.4993 137.581 38.7126 137.793 38.9615 137.935C39.2103 138.076 39.5303 138.182 39.8858 138.218H39.9213C39.9569 138.218 39.9569 138.218 39.9569 138.218H39.9924H40.028L43.5473 138.289C43.9028 138.289 44.2938 138.218 44.6849 138.112C45.0404 137.97 45.4314 137.793 45.7514 137.581C46.0713 137.369 46.3912 137.085 46.6401 136.767C46.8889 136.449 47.1022 136.13 47.2444 135.776L47.4933 135.139ZM46.7823 97.17C46.96 96.7454 47.0311 96.3208 46.9956 95.9315C46.96 95.5423 46.8534 95.1884 46.6756 94.87C46.4979 94.5515 46.2135 94.3038 45.8936 94.0915C45.5736 93.9145 45.1826 93.773 44.7204 93.7376L40.028 93.3483C39.5658 93.313 39.1037 93.3484 38.6771 93.4899C38.2149 93.6314 37.7884 93.8084 37.3973 94.0915C37.0063 94.3392 36.6152 94.6576 36.3308 95.0469C36.0109 95.4007 35.7621 95.8254 35.6199 96.25L35.2999 97.0993C35.1222 97.5239 35.0511 97.9485 35.0866 98.3378C35.1222 98.727 35.2288 99.0809 35.4066 99.3994C35.5843 99.7178 35.8687 99.9655 36.1886 100.178C36.5086 100.355 36.8996 100.496 37.3618 100.532L42.0543 100.921C42.5164 100.956 42.9785 100.921 43.4051 100.779C43.8673 100.638 44.2938 100.461 44.6849 100.178C45.0759 99.9302 45.467 99.5763 45.7514 99.2224C46.0713 98.8686 46.3201 98.4439 46.4623 98.0193L46.7823 97.17ZM43.334 106.087C43.5118 105.663 43.5829 105.238 43.5473 104.813C43.5118 104.424 43.4051 104.07 43.2274 103.752C43.0496 103.433 42.7652 103.186 42.4453 102.973C42.1254 102.796 41.7343 102.655 41.2722 102.619L36.5797 102.23C36.1175 102.195 35.691 102.23 35.2288 102.372C34.7667 102.513 34.3401 102.69 33.9491 102.973C33.558 103.221 33.167 103.575 32.8826 103.929C32.5626 104.283 32.3138 104.707 32.1716 105.132L31.8517 105.981C31.6739 106.406 31.6028 106.83 31.6384 107.255C31.6739 107.644 31.7806 107.998 31.9583 108.317C32.136 108.635 32.4204 108.883 32.7404 109.095C33.0603 109.307 33.4514 109.414 33.9135 109.449L38.606 109.838C39.0681 109.874 39.5303 109.838 39.9569 109.697C40.419 109.555 40.8456 109.378 41.2366 109.095C41.6277 108.847 42.0187 108.494 42.3031 108.14C42.623 107.786 42.8719 107.361 43.0141 106.937L43.334 106.087ZM39.9569 115.217C40.1346 114.757 40.2057 114.368 40.1701 113.943C40.1346 113.554 40.028 113.165 39.8502 112.881C39.6725 112.563 39.3881 112.315 39.0681 112.103C38.7482 111.891 38.3571 111.784 37.895 111.749L33.2025 111.36C32.7404 111.324 32.3138 111.36 31.8517 111.501C31.3895 111.643 30.9629 111.82 30.5719 112.103C30.1808 112.351 29.7898 112.705 29.5054 113.058C29.1855 113.412 28.9366 113.837 28.7944 114.261L28.4745 115.111C28.2967 115.535 28.2256 115.995 28.2612 116.385C28.2612 116.774 28.3678 117.128 28.5811 117.446C28.7589 117.765 29.0433 118.012 29.3632 118.225C29.6832 118.437 30.0742 118.543 30.5363 118.579L35.2288 119.003C35.691 119.039 36.1531 119.003 36.5797 118.862C37.0418 118.72 37.4684 118.543 37.8595 118.26C38.2505 118.012 38.6415 117.694 38.9259 117.305C39.2459 116.951 39.4947 116.526 39.6369 116.102L39.9569 115.217ZM36.8285 134.644C36.9707 134.29 37.0063 133.936 37.0063 133.618C37.0063 133.299 36.8996 133.016 36.7574 132.768C36.6152 132.521 36.4019 132.308 36.1531 132.131C35.9043 131.99 35.5843 131.884 35.2288 131.848L31.8161 131.53C31.4606 131.494 31.1051 131.53 30.7496 131.636C30.3941 131.742 30.0386 131.919 29.7187 132.096C29.3988 132.273 29.1144 132.556 28.8655 132.839C28.6167 133.122 28.4034 133.476 28.2967 133.83L28.0479 134.432C27.9057 134.785 27.8701 135.139 27.8701 135.458C27.9057 135.776 27.9768 136.059 28.119 136.307C28.2612 136.555 28.4745 136.767 28.7233 136.944C28.9722 137.085 29.2921 137.192 29.6476 137.227L33.0603 137.546C33.4158 137.581 33.7713 137.545 34.1268 137.439C34.4823 137.333 34.8378 137.192 35.1577 136.979C35.4777 136.767 35.7621 136.519 36.0109 136.201C36.2597 135.918 36.473 135.564 36.5797 135.21L36.8285 134.644ZM36.5086 124.311C36.6863 123.851 36.7574 123.426 36.7219 123.037C36.6863 122.648 36.5797 122.294 36.4019 121.976C36.2242 121.657 35.9398 121.409 35.6199 121.197C35.2999 120.985 34.9089 120.879 34.4467 120.843L29.7543 120.419C29.2921 120.383 28.83 120.419 28.4034 120.56C27.9412 120.702 27.5147 120.879 27.1236 121.162C26.7326 121.409 26.3415 121.728 26.0216 122.117C25.7017 122.471 25.4528 122.896 25.3106 123.32L24.9907 124.17C24.8129 124.594 24.7418 125.019 24.7774 125.443C24.7774 125.833 24.884 126.222 25.0973 126.505C25.2751 126.824 25.5595 127.071 25.8794 127.284C26.1993 127.46 26.5904 127.602 27.0525 127.637L31.745 128.062C32.2071 128.097 32.6693 128.062 33.0959 127.92C33.558 127.779 33.9846 127.602 34.3756 127.319C34.7667 127.071 35.1577 126.717 35.4421 126.364C35.7621 126.01 36.0109 125.585 36.1886 125.16L36.5086 124.311ZM31.8872 95.5423C32.0649 95.1177 32.136 94.693 32.1005 94.3038C32.1005 93.9145 31.9938 93.5253 31.8161 93.2068C31.6384 92.8883 31.3895 92.6052 31.1051 92.3929C30.7852 92.1806 30.4297 92.0391 30.0031 91.9683L25.4528 91.2606C25.4173 91.2606 25.4173 91.2606 25.3817 91.2606C25.3817 91.2606 25.3462 91.2606 25.3106 91.2606C25.2751 91.2606 25.2751 91.2606 25.2395 91.2606C25.204 91.2606 25.204 91.2606 25.1684 91.2606C24.7418 91.2252 24.3152 91.2606 23.8886 91.4021C23.4621 91.5083 23.071 91.7206 22.68 91.9683C22.2889 92.216 21.969 92.4991 21.6846 92.8529C21.4002 93.2068 21.1514 93.5961 21.0092 94.0207L20.6892 94.87C20.5115 95.2946 20.4759 95.7192 20.4759 96.1085C20.4759 96.4977 20.5826 96.887 20.7603 97.2054C20.9381 97.5239 21.1869 97.807 21.4713 98.0193C21.7912 98.2316 22.1467 98.3732 22.5733 98.4439L27.1236 99.187C27.1592 99.187 27.1592 99.187 27.1947 99.187C27.2303 99.187 27.2303 99.187 27.2658 99.187C27.3014 99.187 27.3014 99.187 27.3369 99.187C27.3725 99.187 27.3725 99.187 27.408 99.187C27.8346 99.2224 28.2612 99.187 28.6878 99.0455C29.1144 98.9393 29.5054 98.727 29.8964 98.4793C30.2875 98.2316 30.6074 97.9131 30.8918 97.5947C31.1762 97.2408 31.4251 96.8516 31.5673 96.4269L31.8872 95.5423ZM28.7589 104.672C28.9366 104.247 29.0077 103.823 28.9722 103.433C28.9722 103.044 28.8655 102.655 28.6878 102.336C28.51 102.018 28.2612 101.735 27.9768 101.523C27.6569 101.31 27.3014 101.169 26.8748 101.098L22.3245 100.355C22.3245 100.355 22.2889 100.355 22.2534 100.355C22.2534 100.355 22.2178 100.355 22.1823 100.355C22.1823 100.355 22.1467 100.355 22.1112 100.355C22.0756 100.355 22.0756 100.355 22.0401 100.355C21.6135 100.319 21.1869 100.355 20.7603 100.496C20.3337 100.602 19.9427 100.815 19.5517 101.063C19.1962 101.31 18.8407 101.629 18.5563 101.947C18.2719 102.301 18.023 102.69 17.8808 103.115L17.5609 103.964C17.3832 104.389 17.3121 104.813 17.3476 105.203C17.3476 105.592 17.4543 105.981 17.632 106.3C17.8097 106.618 18.0586 106.901 18.343 107.114C18.6629 107.326 19.0184 107.467 19.445 107.538L23.9953 108.281C24.0308 108.281 24.0308 108.281 24.0664 108.281C24.1019 108.281 24.1019 108.281 24.1375 108.281C24.173 108.281 24.173 108.281 24.2086 108.281C24.2441 108.281 24.2441 108.281 24.2797 108.281C24.7063 108.317 25.1329 108.281 25.5595 108.14C25.986 108.034 26.4126 107.821 26.7681 107.574C27.1592 107.326 27.4791 107.007 27.7635 106.689C28.0479 106.37 28.2967 105.946 28.4389 105.521L28.7589 104.672ZM26.4482 133.724C26.5904 133.37 26.6259 133.016 26.6259 132.733C26.6259 132.415 26.5193 132.131 26.3771 131.884C26.2349 131.636 26.0216 131.424 25.7728 131.247C25.5239 131.07 25.204 130.999 24.8485 130.964L21.4358 130.645C21.0803 130.61 20.7248 130.645 20.3693 130.751C20.0138 130.858 19.6583 130.999 19.3384 131.211C19.0184 131.424 18.734 131.671 18.4852 131.955C18.2363 132.238 18.023 132.591 17.9164 132.91L17.6676 133.511C17.5254 133.865 17.4898 134.219 17.4898 134.538C17.4898 134.856 17.5965 135.139 17.7386 135.387C17.8808 135.635 18.0941 135.847 18.343 136.024C18.5918 136.165 18.9118 136.272 19.2673 136.307L22.68 136.625C23.0355 136.661 23.391 136.625 23.7465 136.519C24.1019 136.413 24.4574 136.272 24.7774 136.059C25.0973 135.847 25.3817 135.599 25.6306 135.281C25.8794 134.998 26.0927 134.644 26.1993 134.325L26.4482 133.724ZM25.8083 113.837C25.986 113.412 26.0571 112.988 26.0216 112.598C26.0216 112.209 25.9149 111.82 25.7372 111.501C25.5595 111.183 25.3106 110.9 25.0262 110.688C24.7063 110.475 24.3508 110.334 23.9242 110.263L19.3739 109.52C19.3384 109.52 19.3384 109.52 19.3028 109.52C19.3028 109.52 19.2673 109.52 19.2317 109.52C19.2317 109.52 19.1962 109.52 19.1606 109.52C19.1606 109.52 19.1251 109.52 19.0895 109.52C18.6629 109.484 18.2363 109.52 17.8097 109.661C17.3832 109.767 16.9921 109.98 16.6011 110.227C16.21 110.475 15.8901 110.758 15.6057 111.112C15.3213 111.466 15.0725 111.855 14.8947 112.28L14.5748 113.129C14.397 113.554 14.3259 113.978 14.3615 114.368C14.3615 114.757 14.4681 115.146 14.6459 115.465C14.8236 115.783 15.0725 116.066 15.3569 116.278C15.6768 116.491 16.0323 116.632 16.4589 116.703L21.0092 117.446C21.0092 117.446 21.0447 117.446 21.0803 117.446C21.1158 117.446 21.1158 117.446 21.1514 117.446C21.1514 117.446 21.1869 117.446 21.2225 117.446C21.258 117.446 21.258 117.446 21.2936 117.446C21.7201 117.482 22.1467 117.446 22.5733 117.305C22.9999 117.199 23.4265 116.986 23.782 116.739C24.173 116.491 24.493 116.172 24.7774 115.854C25.0618 115.5 25.3106 115.111 25.4528 114.686L25.8083 113.837ZM22.8933 122.931C23.071 122.506 23.1421 122.082 23.1066 121.693C23.1066 121.303 22.9999 120.914 22.8222 120.596C22.6444 120.277 22.3956 119.994 22.1112 119.782C21.7912 119.569 21.4358 119.392 21.0092 119.322L16.4233 118.543C16.3878 118.543 16.3878 118.543 16.3522 118.543C16.3167 118.543 16.3167 118.543 16.2811 118.543C16.2456 118.543 16.2456 118.543 16.21 118.543C16.1745 118.543 16.1745 118.543 16.1389 118.543C15.7123 118.508 15.2858 118.543 14.8592 118.685C14.4326 118.791 14.0415 119.003 13.6505 119.251C13.2595 119.499 12.9395 119.817 12.6551 120.136C12.3707 120.489 12.1219 120.879 11.9797 121.303L11.6597 122.153C11.482 122.577 11.4109 123.002 11.4465 123.426C11.4465 123.816 11.5531 124.205 11.7308 124.523C11.9086 124.842 12.1574 125.125 12.4418 125.373C12.7618 125.585 13.1173 125.727 13.5438 125.833L18.0941 126.576C18.0941 126.576 18.1297 126.576 18.1652 126.576C18.2008 126.576 18.2008 126.576 18.2363 126.576C18.2363 126.576 18.2719 126.576 18.3074 126.576C18.343 126.576 18.343 126.576 18.3785 126.576C18.8051 126.611 19.2317 126.576 19.6583 126.434C20.0849 126.328 20.5115 126.116 20.867 125.868C21.258 125.62 21.578 125.302 21.8979 124.948C22.1823 124.594 22.4311 124.205 22.5733 123.78L22.8933 122.931ZM16.53 132.804C16.6722 132.45 16.7077 132.096 16.7077 131.778C16.7077 131.459 16.6011 131.141 16.4589 130.858C16.3167 130.574 16.1034 130.362 15.8545 130.185C15.6057 130.008 15.2858 129.867 14.9303 129.831L11.6242 129.301H11.5886H11.5531C11.5175 129.301 11.5175 129.301 11.5175 129.301H11.482C11.1265 129.265 10.771 129.301 10.4155 129.407C10.06 129.513 9.70454 129.654 9.42015 129.867C9.10021 130.079 8.81582 130.327 8.56697 130.61C8.31813 130.893 8.14038 131.211 7.99819 131.565L7.78489 132.167C7.64269 132.521 7.5716 132.875 7.60714 133.193C7.60714 133.511 7.71379 133.83 7.82044 134.113C7.96264 134.396 8.17593 134.608 8.42478 134.785C8.67362 134.962 8.99356 135.104 9.34905 135.139L12.6551 135.705H12.6907C12.7262 135.705 12.7262 135.705 12.7262 135.705H12.7618H12.7973C13.1528 135.741 13.5083 135.705 13.8638 135.599C14.2193 135.493 14.5748 135.352 14.8592 135.139C15.1791 134.927 15.4635 134.679 15.7123 134.396C15.9612 134.113 16.1389 133.795 16.2811 133.441L16.53 132.804Z" fill="#2CB6BF"/>
<path d="M21.0447 117.411L16.4944 116.668C16.0678 116.597 15.7123 116.455 15.3923 116.243C15.0724 116.031 14.8236 115.748 14.6814 115.429C14.5036 115.111 14.397 114.722 14.397 114.332C14.397 113.943 14.4681 113.518 14.6103 113.094L14.9302 112.174C15.108 111.749 15.3213 111.36 15.6412 111.006C15.9256 110.652 16.2811 110.369 16.6366 110.121C17.0276 109.874 17.4186 109.697 17.8452 109.555C18.2718 109.449 18.6984 109.378 19.125 109.414C19.125 109.414 19.1606 109.414 19.1961 109.414C19.1961 109.414 19.2317 109.414 19.2672 109.414C19.3028 109.414 19.3028 109.414 19.3383 109.414C19.3383 109.414 19.3739 109.414 19.4094 109.414L23.9597 110.157C24.3863 110.227 24.7418 110.369 25.0617 110.581C25.3817 110.794 25.6305 111.077 25.7727 111.395C25.9504 111.714 26.0571 112.103 26.0571 112.492C26.0571 112.881 25.986 113.306 25.8438 113.731L25.5239 114.58C25.3461 115.005 25.1328 115.394 24.8484 115.748C24.564 116.102 24.2085 116.385 23.853 116.632C23.462 116.88 23.071 117.057 22.6444 117.199C22.2178 117.305 21.7912 117.375 21.3646 117.34C21.3646 117.34 21.3291 117.34 21.2935 117.34C21.258 117.34 21.258 117.34 21.2224 117.34C21.1869 117.34 21.1869 117.34 21.1513 117.34C21.0802 117.411 21.0802 117.411 21.0447 117.411Z" fill="#2CB6BF"/>
<path d="M51.1549 123.497C51.1549 123.886 51.0838 124.276 50.9416 124.7L50.6216 125.55C50.4439 125.974 50.1951 126.399 49.9107 126.753C49.5907 127.142 49.2352 127.46 48.8442 127.744C48.4531 128.027 47.991 128.239 47.5289 128.416C47.0667 128.557 46.6046 128.664 46.1425 128.628L41.2722 128.522C41.2367 128.522 41.2367 128.522 41.2011 128.522C41.1656 128.522 41.1656 128.522 41.13 128.522C41.0945 128.522 41.0945 128.522 41.0589 128.522C41.0589 128.522 41.0234 128.522 40.9878 128.522C40.5612 128.487 40.1702 128.345 39.8503 128.168C39.5303 127.991 39.2815 127.744 39.1037 127.425C38.926 127.142 38.8193 126.788 38.8193 126.399C38.8193 126.01 38.8904 125.62 39.0326 125.196L39.3526 124.346C39.5303 123.922 39.7792 123.497 40.0636 123.143C40.3835 122.754 40.739 122.436 41.13 122.153C41.5211 121.869 41.9832 121.657 42.4098 121.48C42.8719 121.339 43.3341 121.233 43.7607 121.268L48.6309 121.339C48.6664 121.339 48.6664 121.339 48.702 121.339C48.7375 121.339 48.7375 121.339 48.7731 121.339C48.8086 121.339 48.8086 121.339 48.8442 121.339C48.8797 121.339 48.8797 121.339 48.9153 121.339C49.3419 121.374 49.7329 121.516 50.0529 121.693C50.3728 121.869 50.6216 122.117 50.7994 122.436C51.0482 122.79 51.1549 123.143 51.1549 123.497Z" fill="#2CB6BF"/>
<path d="M62.3174 96.2146C62.3174 96.6038 62.2818 96.9931 62.1041 97.4177L61.7841 98.267C61.6064 98.6916 61.3931 99.1163 61.0732 99.4701C60.7532 99.8594 60.3977 100.178 60.0067 100.461C59.6156 100.744 59.1535 100.956 58.7269 101.133C58.2648 101.275 57.8026 101.381 57.376 101.346L52.5058 101.275C52.4703 101.275 52.4703 101.275 52.4347 101.275C52.3992 101.275 52.3992 101.275 52.3636 101.275C52.3281 101.275 52.3281 101.275 52.2925 101.275C52.257 101.275 52.257 101.275 52.2214 101.275C51.7948 101.239 51.4038 101.133 51.1194 100.921C50.7995 100.744 50.5506 100.496 50.3729 100.213C50.1951 99.9301 50.0885 99.5763 50.0885 99.187C50.0529 98.7978 50.124 98.4085 50.3018 97.9839L50.6217 97.1346C50.7995 96.71 51.0483 96.2854 51.3327 95.9315C51.6526 95.5777 52.0081 95.2238 52.3992 94.9407C52.7902 94.6576 53.2524 94.4453 53.6789 94.2684C54.1411 94.1268 54.6032 94.0207 55.0298 94.0561L59.8645 94.1268C59.9 94.1268 59.9 94.1268 59.9356 94.1268C59.9711 94.1268 59.9711 94.1268 60.0067 94.1268C60.0422 94.1268 60.0422 94.1268 60.0778 94.1268C60.1133 94.1268 60.1133 94.1268 60.1489 94.1268C60.5755 94.1622 60.9665 94.2684 61.2865 94.4453C61.6064 94.6222 61.8552 94.8699 62.033 95.153C62.2107 95.4715 62.3174 95.8254 62.3174 96.2146Z" fill="#2CB6BF"/>
<path d="M58.5491 105.309C58.5847 105.698 58.5136 106.087 58.3358 106.512L58.0159 107.361C57.8381 107.786 57.5893 108.21 57.3049 108.564C56.985 108.918 56.6295 109.272 56.2384 109.555C55.8474 109.838 55.3852 110.051 54.9587 110.227C54.4965 110.369 54.0344 110.44 53.5722 110.44L48.702 110.369C48.6665 110.369 48.6665 110.369 48.6309 110.369C48.5954 110.369 48.5954 110.369 48.5598 110.369C48.5243 110.369 48.5243 110.369 48.4887 110.369C48.4532 110.369 48.4532 110.369 48.4176 110.369C47.991 110.334 47.6 110.227 47.28 110.015C46.9601 109.838 46.7113 109.591 46.5335 109.307C46.3558 109.024 46.2491 108.671 46.2491 108.281C46.2136 107.892 46.2847 107.503 46.4624 107.078L46.7824 106.229C46.9246 105.804 47.2089 105.38 47.4933 105.026C47.8133 104.636 48.1688 104.318 48.5598 104.035C48.9509 103.752 49.413 103.54 49.8396 103.363C50.3017 103.221 50.7639 103.115 51.1904 103.15L56.0251 103.221C56.0607 103.221 56.0607 103.221 56.0962 103.221C56.1318 103.221 56.1318 103.221 56.1673 103.221C56.2029 103.221 56.2029 103.221 56.2384 103.221C56.274 103.221 56.274 103.221 56.3095 103.221C56.7361 103.256 57.1272 103.363 57.4471 103.575C57.767 103.752 58.0159 104 58.1936 104.283C58.4425 104.566 58.5136 104.92 58.5491 105.309Z" fill="#2CB6BF"/>
<path d="M54.6033 114.403C54.6033 114.792 54.5678 115.182 54.39 115.606L54.0701 116.455C53.9279 116.88 53.6435 117.305 53.3591 117.659C53.0392 118.048 52.6837 118.366 52.2926 118.649C51.9016 118.932 51.4394 119.145 51.0129 119.322C50.5507 119.463 50.0886 119.569 49.6264 119.534L44.7562 119.463C44.7207 119.463 44.7207 119.463 44.6851 119.463C44.6496 119.463 44.6496 119.463 44.614 119.463C44.614 119.463 44.5785 119.463 44.5429 119.463C44.5074 119.463 44.5074 119.463 44.4718 119.463C44.0452 119.428 43.6542 119.286 43.3342 119.109C43.0143 118.932 42.7655 118.685 42.5877 118.366C42.41 118.083 42.3033 117.729 42.3033 117.34C42.2678 116.951 42.3389 116.562 42.5166 116.137L42.8366 115.288C43.0143 114.863 43.2631 114.438 43.5475 114.085C43.8675 113.695 44.223 113.377 44.614 113.094C45.0051 112.811 45.4672 112.598 45.8938 112.421C46.3559 112.28 46.8181 112.209 47.2802 112.209L52.1149 112.28C52.1504 112.28 52.1504 112.28 52.186 112.28C52.2215 112.28 52.2215 112.28 52.2571 112.28C52.2926 112.28 52.2926 112.28 52.3282 112.28C52.3637 112.28 52.3637 112.28 52.3993 112.28C52.8259 112.315 53.2169 112.421 53.5368 112.634C53.8568 112.811 54.1056 113.058 54.2834 113.377C54.4611 113.695 54.5678 114.049 54.6033 114.403Z" fill="#2CB6BF"/>
<path d="M27.1238 99.1163L22.5735 98.3732C22.1469 98.3024 21.7914 98.1608 21.4715 97.9485C21.1515 97.7362 20.9382 97.4531 20.7605 97.1347C20.5827 96.8162 20.4761 96.4269 20.4761 96.0377C20.4761 95.6484 20.5116 95.2238 20.6894 94.7992L21.0093 93.9499C21.1871 93.5253 21.4004 93.136 21.6847 92.7822C21.9691 92.4283 22.3246 92.1452 22.6801 91.8975C23.0712 91.6498 23.4622 91.4729 23.8888 91.3314C24.3154 91.2252 24.742 91.1544 25.1686 91.1898C25.1686 91.1898 25.2041 91.1898 25.2397 91.1898C25.2752 91.1898 25.2752 91.1898 25.3108 91.1898C25.3108 91.1898 25.3463 91.1898 25.3819 91.1898C25.4174 91.1898 25.4174 91.1898 25.453 91.1898L30.0032 91.8975C30.4298 91.9683 30.7853 92.1098 31.1053 92.3222C31.4252 92.5345 31.6741 92.8176 31.8162 93.136C31.994 93.4545 32.1006 93.8438 32.1006 94.233C32.1006 94.6222 32.0295 95.0469 31.8873 95.4715L31.5674 96.3208C31.3897 96.7454 31.1764 97.1347 30.892 97.4885C30.6076 97.8424 30.2521 98.1609 29.8966 98.3732C29.5056 98.6209 29.1145 98.7978 28.6879 98.9393C28.2613 99.0455 27.8347 99.1163 27.4082 99.0809C27.3726 99.0809 27.3726 99.0809 27.3371 99.0809C27.3015 99.0809 27.3015 99.0809 27.266 99.0809C27.2304 99.0809 27.2304 99.0809 27.1949 99.0809C27.1949 99.1163 27.1593 99.1163 27.1238 99.1163Z" fill="#2CB6BF"/>
<path d="M20.796 100.426C21.2226 100.319 21.6492 100.249 22.0758 100.284C22.1113 100.284 22.1113 100.284 22.1469 100.284C22.1469 100.284 22.1824 100.284 22.218 100.284C22.218 100.284 22.2535 100.284 22.2891 100.284C22.2891 100.284 22.3246 100.284 22.3602 100.284L26.9105 101.027C27.3371 101.098 27.6925 101.239 28.0125 101.452C28.3324 101.664 28.5813 101.947 28.7235 102.266C28.9012 102.584 29.0079 102.973 29.0079 103.363C29.0079 103.752 28.9368 104.176 28.7946 104.601L28.4746 105.45C28.2969 105.875 28.0836 106.264 27.7992 106.618C27.5148 106.972 27.1593 107.255 26.8038 107.503C26.4128 107.75 26.0217 107.927 25.5951 108.069C25.1686 108.175 24.742 108.246 24.3154 108.21C24.3154 108.21 24.2798 108.21 24.2443 108.21C24.2087 108.21 24.2087 108.21 24.1732 108.21C24.1376 108.21 24.1376 108.21 24.1021 108.21C24.0665 108.21 24.0665 108.21 24.031 108.21L19.4807 107.467C19.0541 107.397 18.6986 107.255 18.3787 107.043C18.0587 106.83 17.8454 106.547 17.6677 106.229C17.4899 105.91 17.3833 105.521 17.3833 105.132C17.3833 104.743 17.4544 104.318 17.5966 103.893L17.9165 103.044C18.0943 102.62 18.3076 102.23 18.592 101.876C18.8764 101.523 19.2319 101.239 19.5873 100.992C19.9784 100.744 20.3694 100.567 20.796 100.426Z" fill="#2CB6BF"/>
<path d="M14.895 118.649C15.3216 118.543 15.7482 118.472 16.1748 118.508C16.2104 118.508 16.2104 118.508 16.2459 118.508C16.2459 118.508 16.2815 118.508 16.317 118.508C16.317 118.508 16.3526 118.508 16.3881 118.508C16.4237 118.508 16.4237 118.508 16.4592 118.508L21.0095 119.251C21.4361 119.322 21.7916 119.463 22.1115 119.711C22.4315 119.923 22.6448 120.206 22.8225 120.525C23.0002 120.843 23.1069 121.233 23.1069 121.622C23.1424 122.011 23.0358 122.436 22.8936 122.86L22.5737 123.71C22.3959 124.134 22.1826 124.523 21.8982 124.877C21.6138 125.231 21.2583 125.514 20.8673 125.797C20.4763 126.045 20.0852 126.222 19.6586 126.364C19.232 126.47 18.8054 126.54 18.3789 126.505C18.3433 126.505 18.3433 126.505 18.3078 126.505C18.3078 126.505 18.2722 126.505 18.2367 126.505C18.2011 126.505 18.2011 126.505 18.1656 126.505C18.1656 126.505 18.13 126.505 18.0945 126.505L13.5442 125.762C13.1176 125.691 12.7621 125.55 12.4422 125.302C12.1222 125.09 11.8734 124.807 11.7312 124.453C11.5534 124.134 11.4468 123.745 11.4468 123.356C11.4468 122.966 11.5179 122.542 11.6601 122.082L11.98 121.233C12.1578 120.808 12.3711 120.419 12.6554 120.065C12.9398 119.711 13.2953 119.428 13.6508 119.18C14.0774 118.932 14.504 118.756 14.895 118.649Z" fill="#2CB6BF"/>
<path d="M46.9959 95.9315C47.0314 96.3208 46.9603 96.7454 46.7826 97.17L46.4626 98.0193C46.2849 98.4439 46.036 98.8686 45.7517 99.2224C45.4317 99.5763 45.0762 99.9301 44.6852 100.178C44.2941 100.426 43.832 100.638 43.4054 100.779C42.9433 100.921 42.4811 100.956 42.0545 100.921L37.3621 100.532C36.8999 100.496 36.5089 100.355 36.1889 100.178C35.869 100.001 35.5846 99.7178 35.4069 99.3993C35.2291 99.0809 35.1225 98.727 35.0869 98.3378C35.0869 97.9485 35.1225 97.5239 35.3002 97.0993L35.6202 96.25C35.7979 95.8254 36.0467 95.4007 36.3311 95.0469C36.6511 94.693 37.0066 94.3745 37.3976 94.0914C37.7886 93.8437 38.2152 93.6314 38.6774 93.4899C39.1395 93.3483 39.5661 93.3129 40.0282 93.3483L44.7207 93.7376C45.1829 93.773 45.5739 93.9145 45.8939 94.0914C46.2138 94.2684 46.4982 94.5515 46.6759 94.8699C46.8537 95.153 46.9603 95.5423 46.9959 95.9315Z" fill="#2CB6BF"/>
<path d="M90.7214 21.9747L93.5298 14.6498C93.6009 14.4375 93.6364 14.2252 93.6364 14.0483C93.6364 13.8359 93.5653 13.659 93.4942 13.5175C93.4231 13.3405 93.281 13.199 93.1388 13.0928C92.9966 12.9867 92.8188 12.9159 92.6055 12.8805C92.6055 12.8805 92.1434 12.8098 91.2547 12.6682C90.3659 12.5267 89.0862 12.3497 87.4153 12.1374C85.7445 11.9251 83.7538 11.6774 81.4431 11.4651C79.1324 11.2174 73.5867 10.7574 70.7073 10.5804C67.8278 10.3681 65.1971 10.262 62.8153 10.1558C60.4691 10.0496 58.4073 10.0143 56.6653 9.97887C54.959 9.94348 53.6081 9.94348 52.6838 9.97887C51.7596 9.97887 51.2619 10.0143 51.2619 10.0143C51.0486 10.0143 50.7997 10.085 50.5864 10.1558C50.3732 10.2266 50.1599 10.3681 49.9466 10.5097C49.7333 10.6512 49.5555 10.8281 49.4133 11.0051C49.2711 11.182 49.1289 11.3943 49.0578 11.6066L46.285 18.7546L29.8613 60.9348L74.4755 64.438L90.7214 21.9747ZM105.225 9.80194C105.297 10.9343 105.119 12.1728 104.657 13.4113L85.8867 63.6241C85.4246 64.898 84.7847 66.3488 84.0026 67.8704C83.2206 69.392 82.3674 70.9844 81.4075 72.5768C80.4477 74.1691 79.4879 75.7261 78.457 77.1769C77.4616 78.6278 76.4662 79.9724 75.5064 81.1048L75.222 81.4587C74.2622 82.591 73.3379 83.9357 72.4492 85.3865C71.5604 86.8373 70.7428 88.3943 69.9963 89.9513C69.2497 91.5083 68.6454 93.1006 68.1477 94.5869C67.65 96.0731 67.2945 97.4885 67.1523 98.7624C67.0101 100.001 66.7258 101.452 66.4058 103.009C66.0859 104.566 65.6593 106.229 65.1971 107.892C64.735 109.555 64.2373 111.218 63.7041 112.811C63.1708 114.403 62.6376 115.854 62.1044 117.163L54.5324 135.493C53.9992 136.767 53.2171 138.006 52.2573 139.067C51.2974 140.129 50.1954 141.084 48.9512 141.863C47.7425 142.641 46.4272 143.243 45.0763 143.597C43.7255 143.986 42.3746 144.127 41.0593 143.986L7.10986 140.836C5.79454 140.73 4.65697 140.341 3.69714 139.775C2.73732 139.209 1.95523 138.395 1.38645 137.475C1.17315 137.085 0.959859 136.696 0.817663 136.272C0.604368 135.67 0.426622 134.998 0.391073 134.29C0.284426 133.122 0.462171 131.884 0.888761 130.574L7.18096 112.351C7.60755 111.077 8.21188 109.626 8.85177 108.069C9.5272 106.512 10.2737 104.884 11.0558 103.256C11.8379 101.629 12.6555 100.001 13.4732 98.5147C14.2908 96.9931 15.1084 95.6131 15.8549 94.4453C16.6015 93.2422 17.3125 91.8622 17.9523 90.4113C18.5922 88.9251 19.161 87.3681 19.6232 85.7757C20.0853 84.1834 20.4408 82.6264 20.6896 81.1402C20.9385 79.654 21.0096 78.2739 20.974 77.0708V76.6815C20.9385 75.4784 20.974 74.063 21.1162 72.5414C21.2584 71.0198 21.4717 69.4274 21.7561 67.7997C22.0405 66.1719 22.396 64.5441 22.787 63.0225C23.1781 61.5009 23.6402 60.0501 24.1379 58.7762L43.1922 9.12961C43.6544 7.89109 44.4009 6.72336 45.2896 5.66177C46.1784 4.60019 47.2448 3.64477 48.4179 2.83089C49.5911 2.01701 50.8708 1.38006 52.1862 0.955432C53.5015 0.5308 54.8523 0.283098 56.1321 0.318484L68.2544 0.5308C68.8942 0.5308 69.6052 0.566186 70.3518 0.601572C71.0983 0.636958 71.8804 0.672344 72.698 0.70773C73.5156 0.743116 74.3333 0.778502 75.1864 0.849274C76.0396 0.88466 76.8928 0.955432 77.746 1.0262C78.5992 1.09698 79.4523 1.13236 80.27 1.20313C81.0876 1.27391 81.9408 1.34468 82.7229 1.41545C83.5049 1.48622 84.287 1.55699 85.0336 1.62777C85.7445 1.69854 86.4555 1.76931 87.0954 1.84008L98.8266 3.22014C100.106 3.36168 101.244 3.78631 102.168 4.35249C102.95 4.8479 103.59 5.44946 104.088 6.19256C104.195 6.33411 104.301 6.51104 104.408 6.65258C104.834 7.57262 105.154 8.6342 105.225 9.80194ZM69.9607 75.9738C70.1029 75.62 70.1385 75.3015 70.1385 74.983C70.1385 74.6645 70.0318 74.3814 69.8896 74.1337C69.7474 73.886 69.5341 73.6737 69.2853 73.5322C69.0364 73.3906 68.7165 73.2845 68.361 73.2491H68.3255C68.2899 73.2491 68.2899 73.2491 68.2899 73.2491C68.2544 73.2491 68.2544 73.2491 68.2544 73.2491C68.2188 73.2491 68.2188 73.2491 68.1833 73.2491L64.4862 73.2137C64.0951 73.2137 63.7396 73.2845 63.3486 73.3906C62.9931 73.5322 62.6376 73.7091 62.2821 73.9214C61.9622 74.1337 61.6422 74.4168 61.3934 74.7353C61.1445 75.0538 60.9312 75.3723 60.8246 75.7261L60.5757 76.3631C60.4336 76.7169 60.398 77.0354 60.398 77.3539C60.398 77.6724 60.5047 77.9554 60.6469 78.1678C60.789 78.4155 61.0023 78.6278 61.2512 78.7693C61.5 78.9109 61.82 79.017 62.1755 79.0524C62.211 79.0524 62.211 79.0524 62.211 79.0524C62.2466 79.0524 62.2466 79.0524 62.2466 79.0524H62.2821C62.3177 79.0524 62.3177 79.0524 62.3177 79.0524L66.0148 79.0878C66.3703 79.0878 66.7613 79.017 67.1523 78.9109C67.5078 78.7693 67.8989 78.5924 68.2188 78.3801C68.5388 78.1678 68.8587 77.8847 69.1075 77.5662C69.3564 77.2477 69.5697 76.9292 69.7119 76.5754L69.9607 75.9738ZM66.4058 85.3865C66.548 85.0326 66.5836 84.7142 66.5836 84.3957C66.548 84.0772 66.4769 83.7941 66.3347 83.5464C66.1925 83.2987 65.9792 83.0864 65.7304 82.9449C65.4815 82.8033 65.1616 82.6972 64.8061 82.6618H64.7705H64.735H64.6994H64.6639L60.9668 82.6264C60.6113 82.6264 60.2203 82.6972 59.8648 82.8033C59.5093 82.9449 59.1182 83.1218 58.7983 83.3341C58.4784 83.5464 58.1584 83.8295 57.9096 84.148C57.6607 84.4665 57.4474 84.7849 57.3408 85.1388L57.0919 85.7757C56.9497 86.1296 56.9142 86.4481 56.9142 86.7666C56.9142 87.085 57.0208 87.3681 57.163 87.6158C57.3052 87.8635 57.5185 88.0758 57.7674 88.2174C58.0162 88.3589 58.3362 88.4651 58.6917 88.5005C58.7272 88.5005 58.7272 88.5005 58.7272 88.5005H58.7627C58.7983 88.5005 58.7983 88.5005 58.7983 88.5005C58.8338 88.5005 58.8338 88.5005 58.8338 88.5005L62.531 88.5359C62.8864 88.5359 63.2775 88.4651 63.6685 88.3589C64.024 88.2174 64.3795 88.0405 64.735 87.8281C65.0549 87.6158 65.3749 87.3327 65.6237 87.0143C65.8726 86.6958 66.0859 86.3773 66.1925 86.0235L66.4058 85.3865ZM65.0194 97.9839C65.1971 97.1347 65.1971 96.2854 65.0194 95.5423C64.8416 94.7638 64.5217 94.0561 64.0596 93.4545C63.5974 92.853 62.9931 92.3222 62.3177 91.9683C61.6067 91.5791 60.8246 91.3314 59.9359 91.2606L27.7284 88.5713C26.8752 88.5005 25.9509 88.6066 25.0266 88.8543C24.1023 89.102 23.1781 89.4913 22.3249 89.9867C21.4717 90.4821 20.6185 91.0836 19.9075 91.7914C19.1966 92.4637 18.5922 93.2422 18.1301 94.0915L15.9971 97.9485C15.535 98.7624 15.0373 99.7532 14.5396 100.779C14.0419 101.806 13.5443 102.903 13.0466 104C12.5489 105.097 12.0867 106.229 11.6601 107.255C11.2336 108.317 10.8781 109.272 10.5937 110.121L3.66159 130.681C3.3772 131.53 3.27055 132.379 3.34165 133.158C3.41275 133.936 3.66159 134.644 4.01708 135.281C4.40812 135.918 4.90581 136.413 5.58125 136.802C6.22113 137.192 7.00321 137.439 7.85639 137.51L42.5523 140.695C43.4411 140.766 44.3298 140.659 45.2541 140.412C46.1428 140.164 47.0315 139.775 47.8492 139.244C48.6668 138.749 49.4133 138.112 50.0532 137.369C50.6931 136.661 51.2263 135.847 51.5818 134.998L60.2914 114.368C60.6469 113.518 61.0379 112.528 61.3934 111.466C61.7844 110.404 62.1399 109.272 62.4954 108.14C62.8509 107.007 63.1708 105.875 63.4552 104.813C63.7396 103.752 63.9885 102.761 64.1662 101.912L65.0194 97.9839ZM58.9405 75.62C59.0827 75.2307 59.1538 74.8769 59.1182 74.5584C59.0827 74.2399 59.0116 73.9214 58.8338 73.6383C58.6916 73.3906 58.4428 73.1429 58.1584 73.0014C57.874 72.8245 57.5541 72.7183 57.163 72.7183L42.7301 71.5506C42.339 71.5152 41.948 71.5506 41.5925 71.6921C41.237 71.8337 40.846 71.9752 40.4905 72.1875C40.135 72.3998 39.8506 72.6829 39.5662 73.0014C39.3174 73.3199 39.1041 73.6737 38.9619 74.0276L38.7486 74.6645C38.6064 75.0184 38.5353 75.4076 38.5708 75.7261C38.5708 76.0446 38.6775 76.3631 38.8197 76.6462C38.9619 76.8939 39.2107 77.1416 39.4596 77.2831C39.744 77.46 40.0639 77.5662 40.4549 77.6016L54.8879 78.7693C55.2789 78.8047 55.67 78.7693 56.061 78.6632C56.4521 78.557 56.8075 78.3801 57.163 78.1678C57.5185 77.9554 57.8029 77.6724 58.0873 77.3539C58.3362 77.0354 58.5495 76.6815 58.6917 76.3277L58.9405 75.62ZM55.2789 84.9973C55.4211 84.6434 55.4567 84.2895 55.4567 83.9711C55.4211 83.6526 55.35 83.3341 55.2078 83.0864C55.0656 82.8387 54.8523 82.6264 54.5679 82.4495C54.2836 82.3079 53.9636 82.2018 53.6081 82.1664L50.0177 81.8833C49.6622 81.8479 49.2711 81.9187 48.9156 81.9894C48.5601 82.0956 48.1691 82.2725 47.8492 82.4849C47.5292 82.6972 47.2093 82.9803 46.9604 83.2633C46.7116 83.5818 46.4983 83.9003 46.3561 84.2542L46.1073 84.8911C45.9651 85.245 45.9295 85.5988 45.9295 85.9173C45.9651 86.2358 46.0362 86.5542 46.1784 86.8019C46.3205 87.0497 46.5338 87.262 46.8182 87.4389C47.1026 87.5804 47.4226 87.6866 47.7781 87.722L51.3685 88.0051C51.724 88.0405 52.1151 88.0051 52.5061 87.8989C52.8616 87.7928 53.2171 87.6158 53.5726 87.4035C53.8925 87.1912 54.2125 86.9435 54.4613 86.625C54.7101 86.3419 54.9234 85.9881 55.0656 85.6342L55.2789 84.9973ZM44.4009 84.1126C44.5431 83.7587 44.5786 83.4049 44.5786 83.0864C44.5786 82.7679 44.472 82.4495 44.3298 82.2018C44.1876 81.9541 43.9743 81.7417 43.6899 81.5648C43.4055 81.4233 43.0856 81.3171 42.7301 81.2817L39.1752 80.9986C38.8197 80.9632 38.4286 80.9986 38.0732 81.1048C37.7177 81.211 37.3266 81.3879 37.0067 81.6002C36.6867 81.8125 36.3668 82.0956 36.118 82.3787C35.8691 82.6972 35.6558 83.0156 35.5136 83.3695L35.2648 84.0064C35.1226 84.3603 35.087 84.7142 35.087 85.0326C35.1226 85.3511 35.1937 85.6696 35.3359 85.9173C35.4781 86.165 35.6914 86.3773 35.9758 86.5542C36.2601 86.6958 36.5801 86.8019 36.9356 86.8373L40.4905 87.1204C40.846 87.1558 41.237 87.1204 41.5925 87.0143C41.948 86.9081 42.339 86.7312 42.659 86.5189C42.9789 86.3065 43.2989 86.0235 43.5477 85.7404C43.7966 85.4573 44.0099 85.1034 44.1521 84.7496L44.4009 84.1126ZM37.4333 73.886C37.5755 73.5322 37.611 73.1783 37.611 72.8598C37.611 72.5414 37.5044 72.2229 37.3622 71.9752C37.22 71.6921 37.0067 71.4798 36.7578 71.3029C36.509 71.1259 36.189 70.9844 35.8691 70.949L32.4208 70.4182H32.3853C32.3497 70.4182 32.3497 70.4182 32.3497 70.4182H32.3142H32.2786C31.9232 70.3828 31.5677 70.4182 31.2122 70.5244C30.8567 70.6305 30.5367 70.7721 30.2168 70.9844C29.8969 71.1967 29.6125 71.4444 29.3992 71.7275C29.1859 72.0106 28.9726 72.3291 28.8304 72.6829L28.5815 73.3199C28.4393 73.6737 28.4038 74.0276 28.4038 74.3461C28.4038 74.6645 28.5104 74.983 28.6171 75.2307C28.7593 75.5138 28.9726 75.7261 29.2214 75.903C29.4703 76.08 29.7902 76.1861 30.1101 76.2569L33.594 76.7877H33.6295H33.6651H33.7006H33.7362C34.0916 76.8231 34.4471 76.7877 34.8026 76.6815C35.1581 76.5754 35.4781 76.4338 35.798 76.2215C36.118 76.0092 36.4023 75.7615 36.6156 75.4784C36.8645 75.1953 37.0422 74.8769 37.1844 74.523L37.4333 73.886ZM33.8784 83.2633C34.0206 82.9095 34.0561 82.5556 34.0561 82.2371C34.0561 81.9187 33.9495 81.6002 33.8073 81.3525C33.6651 81.1048 33.4518 80.8571 33.2029 80.6802C32.9541 80.5032 32.6341 80.3971 32.2786 80.3263L28.7948 79.7955H28.7593H28.7237H28.6882H28.6526C28.2971 79.7601 27.9416 79.7955 27.5862 79.9017C27.2307 80.0078 26.9107 80.1494 26.5908 80.3617C26.2708 80.574 25.9864 80.8217 25.7732 81.1048C25.5243 81.3879 25.3466 81.7064 25.2044 82.0602L24.9555 82.6972C24.8133 83.051 24.7778 83.4049 24.7778 83.7234C24.7778 84.0418 24.8844 84.3603 25.0266 84.608C25.1688 84.8911 25.3821 85.1034 25.631 85.2803C25.8798 85.4573 26.1997 85.5634 26.5197 85.6342L30.0035 86.165H30.039H30.0746H30.1101H30.1457C30.5012 86.2004 30.8567 86.165 31.2122 86.0588C31.5677 85.9527 31.9232 85.8111 32.2075 85.5988C32.5275 85.3865 32.8119 85.1388 33.0252 84.8557C33.274 84.5726 33.4518 84.2542 33.594 83.9003L33.8784 83.2633Z" fill="#2CB6BF"/>
<path d="M93.6005 14.0483C93.6005 14.2252 93.5649 14.4375 93.4938 14.6498L90.6854 21.9747L46.249 18.6838L49.0219 11.5359C49.0929 11.3235 49.2351 11.1466 49.3773 10.9343C49.5195 10.7574 49.6973 10.5804 49.9106 10.4389C50.1239 10.2973 50.3372 10.1912 50.5505 10.085C50.7638 10.0143 51.0126 9.94348 51.2259 9.94348C51.2259 9.94348 51.7236 9.94348 52.6479 9.9081C53.5721 9.9081 54.923 9.9081 56.6294 9.9081C58.3357 9.94348 60.3976 9.97887 62.7794 10.085C65.1256 10.1912 67.7918 10.2973 70.6713 10.5097C73.5508 10.722 79.0609 11.182 81.4071 11.3943C83.7178 11.642 85.7441 11.8543 87.3794 12.0666C89.0502 12.279 90.3299 12.4559 91.2187 12.5974C92.1074 12.739 92.5695 12.8098 92.5695 12.8098C92.7828 12.8451 92.9606 12.9159 93.1028 13.0221C93.245 13.1282 93.3872 13.2698 93.4583 13.4467C93.5649 13.659 93.6005 13.8359 93.6005 14.0483Z" fill="#2CB6BF"/>
<path d="M90.7209 21.9747L74.5105 64.4026L29.8608 60.9348L46.2845 18.6838L90.7209 21.9747Z" fill="#2CB6BF"/>
<path d="M107.963 114.721C107.963 114.721 107.963 114.721 107.998 114.721C108.852 114.757 123.747 115.111 122.574 118.932" stroke="white" stroke-width="1.02487" stroke-miterlimit="10" stroke-linejoin="round"/>
<path d="M75.5776 100.532C83.2207 118.189 91.1126 136.059 92.499 137.404C95.2363 140.058 103.626 140.695 106.079 138.713C111.34 136.095 122.751 121.48 122.609 118.932C122.431 116.172 113.402 119.428 109.918 117.942C109.527 117.765 108.887 116.632 108.034 114.757C104.728 107.432 98.3646 88.7128 92.6412 71.2675V71.2321" stroke="white" stroke-width="1.02487" stroke-miterlimit="10" stroke-linejoin="round"/>
<path d="M0.817383 136.236C0.92403 137.404 6.86074 146.144 7.39397 147.064C7.96276 147.984 8.74484 148.798 9.70467 149.364C10.6645 149.931 11.8376 150.32 13.1174 150.461L47.0668 153.575C48.3821 153.682 49.7685 153.54 51.0839 153.186C52.4347 152.832 53.75 152.231 54.9587 151.452C56.1674 150.674 57.3049 149.718 58.2648 148.657C59.2246 147.56 60.0067 146.357 60.5399 145.083L68.1119 126.753C68.6451 125.479 69.1784 123.993 69.7116 122.4C70.2448 120.843 70.7425 119.145 71.2047 117.482C71.6668 115.818 72.0578 114.155 72.4133 112.598C72.7333 111.041 73.0177 109.591 73.1599 108.352C73.3376 107.114 73.6576 105.698 74.1552 104.176C74.5463 102.973 75.0084 101.735 75.5772 100.496C75.7194 100.178 75.8616 99.8594 76.0038 99.5409C76.7503 97.9839 77.568 96.4269 78.4567 94.9761C79.3454 93.5253 80.2697 92.1806 81.2295 91.0483L81.5139 90.6944C82.4737 89.562 83.4691 88.2174 84.4645 86.7666C85.4599 85.3157 86.4552 83.7234 87.4151 82.1664C88.3393 80.574 89.2281 78.9816 90.0102 77.46C90.7567 75.9384 91.4321 74.4876 91.8943 73.2137L92.6408 71.1967L110.664 23.0009C111.126 21.7624 111.304 20.5239 111.233 19.3916C111.162 18.2592 110.842 17.1976 110.309 16.2776C109.775 15.3575 104.941 6.75874 103.981 6.15718" stroke="white" stroke-width="1.02487" stroke-miterlimit="10" stroke-linejoin="round"/>
<path d="M103.981 6.19267C103.484 5.48495 102.844 4.848 102.062 4.3526C101.137 3.75103 99.9997 3.36179 98.7199 3.22024L86.9887 1.84019C86.3488 1.76942 85.6734 1.69864 84.9269 1.62787C84.1803 1.5571 83.4338 1.48633 82.6162 1.41556C81.8341 1.34478 81.0165 1.27401 80.1633 1.20324C79.3101 1.13247 78.4569 1.0617 77.6393 1.02631C76.7861 0.955538 75.9329 0.920152 75.0798 0.84938C74.2266 0.813994 73.4089 0.743222 72.5913 0.707836C71.7737 0.67245 70.9916 0.637064 70.2451 0.601678C69.4985 0.566292 68.7876 0.566292 68.1477 0.530906L56.061 0.353976C54.7457 0.31859 53.4303 0.566292 52.115 0.990924C50.7997 1.41556 49.5199 2.0525 48.3468 2.86638C47.1737 3.68026 46.1072 4.63568 45.2185 5.69727C44.3298 6.75885 43.6188 7.92658 43.1211 9.1651L24.1023 58.8117C23.6046 60.0502 23.178 61.501 22.7514 63.058C22.3604 64.5796 22.0049 66.2074 21.7205 67.8351C21.4361 69.4629 21.2228 71.0553 21.0806 72.5769C20.9384 74.0985 20.9029 75.4785 20.9384 76.717V77.1063C20.974 78.3094 20.9029 79.6894 20.654 81.1757C20.4052 82.6619 20.0497 84.2542 19.5876 85.8112C19.1254 87.4036 18.5566 88.9606 17.9168 90.4468C17.2769 91.933 16.5659 93.3131 15.8194 94.4808C15.0728 95.6485 14.2552 97.064 13.4376 98.5502C12.6199 100.036 11.8023 101.664 11.0202 103.292C10.2381 104.92 9.49161 106.547 8.81618 108.104C8.14074 109.661 7.57196 111.112 7.14537 112.386L0.88872 130.575C0.426581 131.848 0.284385 133.122 0.391032 134.29C0.426581 134.962 0.604327 135.635 0.817622 136.272C0.959818 136.696 1.17311 137.086 1.38641 137.475C1.95519 138.395 2.73727 139.173 3.6971 139.775C4.65693 140.376 5.83005 140.73 7.10982 140.837L41.0592 143.95C42.3746 144.057 43.761 143.915 45.0763 143.561C46.4272 143.207 47.7425 142.606 48.9511 141.827C50.1598 141.049 51.2974 140.093 52.2572 139.032C53.217 137.935 53.9991 136.732 54.5324 135.458L62.1043 117.128C62.6376 115.854 63.1708 114.368 63.704 112.775C64.2373 111.183 64.735 109.52 65.1971 107.857C65.6592 106.194 66.0503 104.53 66.4058 102.973C66.7257 101.416 67.0101 99.9656 67.1523 98.7271C67.2945 97.4886 67.65 96.0732 68.1477 94.5516C68.6454 93.0654 69.2852 91.473 69.9962 89.916C70.7428 88.359 71.5604 86.802 72.4491 85.3512C73.3379 83.9004 74.2621 82.5911 75.222 81.4234L75.5063 81.0695C76.4662 79.9371 77.4615 78.5925 78.4569 77.1417C79.4523 75.6908 80.4477 74.0985 81.4075 72.5415C82.3673 70.9845 83.2205 69.3567 84.0026 67.8351C84.7491 66.3135 85.4246 64.8627 85.8867 63.5888L104.657 13.376C105.119 12.1375 105.297 10.899 105.225 9.76666C105.154 8.63431 104.834 7.57272 104.301 6.65269C104.194 6.51114 104.088 6.33421 103.981 6.19267Z" stroke="white" stroke-width="1.02487" stroke-miterlimit="10" stroke-linejoin="round"/>
<path d="M90.7214 21.9747L93.5298 14.6498C93.6009 14.4375 93.6365 14.2252 93.6365 14.0483C93.6365 13.8359 93.5654 13.659 93.4943 13.5175C93.4232 13.3405 93.281 13.199 93.1388 13.0928C92.9966 12.9867 92.8188 12.9159 92.6055 12.8805C92.6055 12.8805 92.1434 12.8098 91.2547 12.6682C90.366 12.5267 89.0862 12.3497 87.4154 12.1374C85.7446 11.9251 83.7538 11.6774 81.4431 11.4651C79.1324 11.2174 73.5868 10.7574 70.7073 10.5804C67.8278 10.3681 65.1972 10.262 62.8154 10.1558C60.4691 10.0496 58.4073 10.0143 56.6654 9.97887C54.959 9.94349 53.6081 9.94349 52.6839 9.97887C51.7596 9.97887 51.2619 10.0143 51.2619 10.0143C51.0486 10.0143 50.7998 10.085 50.5865 10.1558C50.3732 10.2266 50.1599 10.3681 49.9466 10.5097C49.7333 10.6512 49.5555 10.8281 49.4134 11.0051C49.2712 11.182 49.129 11.3943 49.0579 11.6066L46.285 18.7546L29.8613 60.9347L74.4755 64.438L90.7214 21.9747Z" stroke="white" stroke-width="1.02487" stroke-miterlimit="10" stroke-linejoin="round"/>
<path d="M59.9359 91.2606L27.7283 88.5712C26.8752 88.5005 25.9509 88.6066 25.0266 88.8543C24.1023 89.102 23.1781 89.4913 22.3249 89.9867C21.4717 90.4821 20.6185 91.0836 19.9075 91.7914C19.1966 92.4637 18.5922 93.2422 18.1301 94.0915L15.9971 97.9485C15.535 98.7624 15.0373 99.7532 14.5396 100.779C14.0419 101.806 13.5442 102.903 13.0466 104C12.5489 105.097 12.0867 106.229 11.6601 107.255C11.2335 108.317 10.8781 109.272 10.5937 110.121L3.66158 130.681C3.37719 131.53 3.27054 132.379 3.34164 133.158C3.41274 133.936 3.66158 134.644 4.01708 135.281C4.40812 135.918 4.9058 136.413 5.58124 136.802C6.22112 137.192 7.0032 137.439 7.85638 137.51L42.5523 140.695C43.4411 140.766 44.3298 140.659 45.2541 140.412C46.1428 140.164 47.0315 139.775 47.8492 139.244C48.6668 138.749 49.4133 138.112 50.0532 137.369C50.6931 136.661 51.2263 135.847 51.5818 134.998L60.2913 114.368C60.6468 113.518 61.0379 112.528 61.3934 111.466C61.7844 110.404 62.1399 109.272 62.4954 108.14C62.8509 107.007 63.1708 105.875 63.4552 104.813C63.7396 103.752 63.9885 102.761 64.1662 101.912L64.9838 97.9839C65.1616 97.1347 65.1616 96.2854 64.9838 95.5423C64.8061 94.7638 64.4861 94.0561 64.024 93.4545C63.5619 92.8529 62.9575 92.3222 62.2821 91.9683C61.6067 91.579 60.789 91.3313 59.9359 91.2606Z" stroke="white" stroke-width="1.02487" stroke-miterlimit="10" stroke-linejoin="round"/>
<path d="M24.8489 130.928L21.4362 130.61C21.0807 130.574 20.7252 130.61 20.3697 130.716C20.0142 130.822 19.6587 130.964 19.3388 131.176C19.0188 131.388 18.7345 131.636 18.4856 131.919C18.2368 132.202 18.0235 132.556 17.9168 132.875L17.668 133.476C17.5258 133.83 17.4902 134.184 17.4902 134.502C17.4902 134.821 17.5969 135.104 17.7391 135.352C17.8813 135.599 18.0946 135.812 18.3434 135.989C18.5923 136.13 18.9122 136.236 19.2677 136.272L22.6804 136.59C23.0359 136.625 23.3914 136.59 23.7469 136.484C24.1024 136.378 24.4579 136.236 24.7778 136.024C25.0977 135.812 25.3821 135.564 25.631 135.245C25.8798 134.962 26.0931 134.608 26.1998 134.29L26.4486 133.653C26.5908 133.299 26.6264 132.945 26.6264 132.662C26.6264 132.344 26.5197 132.061 26.3775 131.813C26.2353 131.565 26.022 131.353 25.7732 131.176C25.5243 131.07 25.2044 130.964 24.8489 130.928Z" stroke="white" stroke-width="1.02487" stroke-miterlimit="10" stroke-linejoin="round"/>
<path d="M45.8941 132.344H45.8586H45.823C45.7875 132.344 45.7875 132.344 45.7875 132.344H45.7519L42.2326 132.273C41.8415 132.273 41.4861 132.344 41.095 132.45C40.7395 132.591 40.3485 132.768 40.0285 132.981C39.7086 133.193 39.3887 133.476 39.1398 133.795C38.891 134.113 38.6777 134.432 38.5355 134.785L38.2866 135.422C38.1444 135.776 38.1089 136.13 38.1089 136.449C38.1089 136.767 38.2155 137.05 38.3577 137.298C38.4999 137.546 38.7132 137.758 38.9621 137.899C39.2109 138.041 39.5309 138.147 39.8863 138.182H39.9219C39.9574 138.182 39.9574 138.182 39.9574 138.182H39.993H40.0285L43.5479 138.253C43.9034 138.253 44.2944 138.182 44.6855 138.076C45.041 137.935 45.432 137.758 45.7519 137.546C46.0719 137.333 46.3918 137.05 46.6407 136.732C46.8895 136.413 47.1028 136.095 47.245 135.741L47.4583 135.139C47.6005 134.785 47.6361 134.432 47.6361 134.113C47.6361 133.795 47.5294 133.511 47.3872 133.264C47.245 133.016 47.0317 132.804 46.7829 132.662C46.5696 132.485 46.2496 132.379 45.8941 132.344Z" stroke="white" stroke-width="1.02487" stroke-miterlimit="10" stroke-linejoin="round"/>
<path d="M11.4825 129.265C11.1271 129.23 10.7716 129.265 10.4161 129.371C10.0606 129.477 9.70509 129.619 9.4207 129.831C9.10076 130.044 8.81636 130.291 8.56752 130.574C8.31867 130.858 8.14093 131.176 7.99873 131.53L7.78544 132.131C7.64324 132.485 7.57214 132.839 7.60769 133.158C7.60769 133.476 7.71434 133.795 7.82099 134.078C7.96318 134.361 8.17648 134.573 8.42532 134.75C8.67417 134.927 8.99411 135.068 9.3496 135.104L12.6557 135.67H12.6912C12.7268 135.67 12.7268 135.67 12.7268 135.67H12.7623H12.7979C13.1534 135.705 13.5088 135.67 13.8643 135.564C14.2198 135.458 14.5753 135.316 14.8597 135.104C15.1797 134.892 15.4641 134.644 15.7129 134.361C15.9617 134.078 16.1395 133.759 16.2817 133.405L16.5305 132.768C16.6727 132.415 16.7083 132.061 16.7083 131.742C16.7083 131.424 16.6016 131.105 16.4594 130.822C16.3172 130.539 16.1039 130.327 15.8551 130.15C15.6062 129.973 15.2863 129.831 14.9308 129.796L11.6247 129.265H11.5892H11.5536C11.5181 129.265 11.5181 129.265 11.5181 129.265C11.5181 129.265 11.5181 129.265 11.4825 129.265Z" stroke="white" stroke-width="1.02487" stroke-miterlimit="10" stroke-linejoin="round"/>
<path d="M35.1936 131.884L31.7809 131.565C31.4254 131.53 31.0699 131.565 30.7144 131.671C30.3589 131.778 30.0035 131.955 29.6835 132.131C29.3636 132.308 29.0792 132.591 28.8303 132.875C28.5815 133.158 28.3682 133.512 28.2615 133.865L28.0127 134.467C27.8705 134.821 27.835 135.175 27.835 135.493C27.8705 135.812 27.9416 136.095 28.0838 136.342C28.226 136.59 28.4393 136.802 28.6881 136.979C28.937 137.121 29.2569 137.227 29.6124 137.262L33.0251 137.581C33.3806 137.616 33.7361 137.581 34.0916 137.475C34.4471 137.369 34.8026 137.227 35.1225 137.015C35.4425 136.802 35.7269 136.555 35.9757 136.236C36.2246 135.953 36.4379 135.599 36.5445 135.245L36.7933 134.608C36.9355 134.255 36.9711 133.901 36.9711 133.582C36.9711 133.264 36.8644 132.981 36.7222 132.733C36.58 132.485 36.3668 132.273 36.1179 132.096C35.8691 131.99 35.5491 131.884 35.1936 131.884Z" stroke="white" stroke-width="1.02487" stroke-miterlimit="10" stroke-linejoin="round"/>
<path d="M42.73 81.2817L39.1751 80.9986C38.8196 80.9632 38.4285 80.9986 38.073 81.1048C37.7176 81.2109 37.3265 81.3879 37.0066 81.6002C36.6866 81.8125 36.3667 82.0956 36.1178 82.3787C35.869 82.6972 35.6557 83.0156 35.5135 83.3695L35.2647 84.0064C35.1225 84.3603 35.0869 84.7142 35.0869 85.0326C35.1225 85.3511 35.1936 85.6696 35.3358 85.9173C35.478 86.165 35.6912 86.3773 35.9756 86.5542C36.26 86.6958 36.58 86.8019 36.9355 86.8373L40.4904 87.1204C40.8459 87.1558 41.2369 87.1204 41.5924 87.0142C41.9479 86.9081 42.3389 86.7312 42.6589 86.5188C42.9788 86.3065 43.2988 86.0234 43.5476 85.7404C43.7965 85.4573 44.0097 85.1034 44.1519 84.7495L44.4008 84.1126C44.543 83.7587 44.5785 83.4049 44.5785 83.0864C44.5785 82.7679 44.4719 82.4495 44.3297 82.2017C44.1875 81.954 43.9742 81.7417 43.6898 81.5648C43.441 81.4233 43.0855 81.3171 42.73 81.2817Z" stroke="white" stroke-width="1.02487" stroke-miterlimit="10" stroke-linejoin="round"/>
<path d="M64.806 82.6972H64.7704H64.7349H64.6993H64.6638L60.9667 82.6618C60.6112 82.6618 60.2201 82.7326 59.8646 82.8387C59.5091 82.9803 59.1181 83.1572 58.7982 83.3695C58.4782 83.5818 58.1583 83.8649 57.9094 84.1834C57.6606 84.5019 57.4473 84.8203 57.3407 85.1742L57.0918 85.8112C56.9496 86.165 56.9141 86.4835 56.9141 86.802C56.9141 87.1204 57.0207 87.4035 57.1629 87.6512C57.3051 87.8989 57.5184 88.1112 57.7672 88.2528C58.0161 88.3943 58.336 88.5005 58.6915 88.5359C58.7271 88.5359 58.7271 88.5359 58.7271 88.5359H58.7626C58.7982 88.5359 58.7982 88.5359 58.7982 88.5359C58.8337 88.5359 58.8337 88.5359 58.8337 88.5359L62.5308 88.5713C62.8863 88.5713 63.2774 88.5005 63.6684 88.3943C64.0239 88.2528 64.3794 88.0759 64.7349 87.8635C65.0548 87.6512 65.3748 87.3681 65.6236 87.0497C65.8724 86.7312 66.0857 86.4127 66.1924 86.0589L66.4412 85.4219C66.5834 85.068 66.619 84.7496 66.619 84.4311C66.5834 84.1126 66.5123 83.8295 66.3701 83.5818C66.2279 83.3341 66.0146 83.1218 65.7658 82.9803C65.4814 82.8033 65.1615 82.7326 64.806 82.6972Z" stroke="white" stroke-width="1.02487" stroke-miterlimit="10" stroke-linejoin="round"/>
<path d="M28.6883 79.7601C28.3328 79.7247 27.9773 79.7601 27.6219 79.8663C27.2664 79.9724 26.9464 80.114 26.6265 80.3263C26.3065 80.5386 26.0221 80.7863 25.8089 81.0694C25.56 81.3525 25.3823 81.6709 25.2401 82.0248L24.9912 82.6618C24.849 83.0156 24.8135 83.3695 24.8135 83.6879C24.8135 84.0064 24.9201 84.3249 25.0623 84.5726C25.2045 84.8557 25.4178 85.068 25.6667 85.2449C25.9155 85.4219 26.2354 85.528 26.5554 85.5988L30.0392 86.1296H30.0747H30.1103H30.1458H30.1814C30.5369 86.165 30.8924 86.1296 31.2479 86.0234C31.6034 85.9173 31.9588 85.7757 32.2432 85.5634C32.5632 85.3511 32.8476 85.1034 33.0609 84.8203C33.3097 84.5372 33.4875 84.2187 33.6297 83.8649L33.8785 83.2279C34.0207 82.8741 34.0563 82.5202 34.0563 82.2017C34.0563 81.8833 33.9496 81.5648 33.8074 81.3171C33.6652 81.0694 33.4519 80.8217 33.2031 80.6447C32.9542 80.4678 32.6343 80.3617 32.2788 80.2909L28.795 79.7601H28.7594H28.7239H28.6883ZM28.6883 79.7601C28.7239 79.7601 28.6883 79.7601 28.6883 79.7601Z" stroke="white" stroke-width="1.02487" stroke-miterlimit="10" stroke-linejoin="round"/>
<path d="M53.6083 82.1664L50.0178 81.8833C49.6623 81.8479 49.2713 81.9187 48.9158 81.9894C48.5603 82.0956 48.1693 82.2725 47.8493 82.4848C47.5294 82.6972 47.2095 82.9803 46.9606 83.2633C46.7118 83.5818 46.4985 83.9003 46.3563 84.2542L46.1074 84.8911C45.9652 85.245 45.9297 85.5988 45.9297 85.9173C45.9652 86.2358 46.0363 86.5542 46.1785 86.8019C46.3207 87.0496 46.534 87.262 46.8184 87.4389C47.1028 87.5804 47.4227 87.6866 47.7782 87.722L51.3687 88.0051C51.7242 88.0405 52.1152 88.0051 52.5063 87.8989C52.8618 87.7928 53.2173 87.6158 53.5728 87.4035C53.8927 87.1912 54.2126 86.9435 54.4615 86.625C54.7103 86.3419 54.9236 85.9881 55.0658 85.6342L55.3147 84.9973C55.4569 84.6434 55.4924 84.2895 55.4924 83.9711C55.4569 83.6526 55.3858 83.3341 55.2436 83.0864C55.1014 82.8387 54.8881 82.6264 54.6037 82.4495C54.2837 82.3079 53.9638 82.2018 53.6083 82.1664Z" stroke="white" stroke-width="1.02487" stroke-miterlimit="10" stroke-linejoin="round"/>
<path d="M57.1628 72.7183L42.7298 71.5505C42.3388 71.5152 41.9477 71.5505 41.5923 71.6921C41.2368 71.8336 40.8457 71.9752 40.4902 72.1875C40.1347 72.3998 39.8504 72.6829 39.566 73.0014C39.3171 73.3198 39.1038 73.6737 38.9616 74.0276L38.7483 74.6645C38.6061 75.0184 38.535 75.4076 38.5706 75.7261C38.5706 76.0446 38.6772 76.363 38.8194 76.6461C38.9616 76.8938 39.2105 77.1415 39.4593 77.2831C39.7437 77.46 40.0636 77.5662 40.4547 77.6016L54.8876 78.7693C55.2787 78.8047 55.6697 78.7693 56.0608 78.6631C56.4518 78.557 56.8073 78.38 57.1628 78.1677C57.5183 77.9554 57.8027 77.6723 58.0871 77.3539C58.3359 77.0354 58.5492 76.6815 58.6914 76.3277L58.9402 75.6907C59.0824 75.3015 59.1535 74.9476 59.118 74.6291C59.0824 74.3107 59.0113 73.9922 58.8336 73.7091C58.6914 73.4614 58.4425 73.2137 58.1582 73.0721C57.9093 72.8244 57.5538 72.7537 57.1628 72.7183Z" stroke="white" stroke-width="1.02487" stroke-miterlimit="10" stroke-linejoin="round"/>
<path d="M68.3253 73.2845H68.2898C68.2542 73.2845 68.2542 73.2845 68.2542 73.2845C68.2187 73.2845 68.2187 73.2845 68.2187 73.2845C68.1831 73.2845 68.1831 73.2845 68.1476 73.2845L64.4505 73.2491C64.0594 73.2491 63.7039 73.3199 63.3129 73.426C62.9574 73.5676 62.6019 73.7445 62.2464 73.9568C61.9265 74.1691 61.6065 74.4522 61.3577 74.7707C61.1088 75.0892 60.8955 75.4076 60.7889 75.7615L60.5401 76.3984C60.3979 76.7523 60.3623 77.0708 60.3623 77.3892C60.3623 77.7077 60.469 77.9908 60.6111 78.2031C60.7533 78.4508 60.9666 78.6631 61.2155 78.8047C61.4643 78.9462 61.7843 79.0524 62.1398 79.0878C62.1753 79.0878 62.1753 79.0878 62.1753 79.0878C62.2109 79.0878 62.2109 79.0878 62.2109 79.0878H62.2464C62.282 79.0878 62.282 79.0878 62.282 79.0878L65.9791 79.1232C66.3346 79.1232 66.7256 79.0524 67.1166 78.9462C67.4721 78.8047 67.8632 78.6278 68.1831 78.4154C68.5031 78.2031 68.823 77.92 69.0718 77.6016C69.3207 77.2831 69.534 76.9646 69.6762 76.6108L69.925 75.9738C70.0672 75.6199 70.1028 75.3015 70.1028 74.983C70.1028 74.6645 69.9961 74.3814 69.8539 74.1337C69.7117 73.886 69.4984 73.6737 69.2496 73.5322C69.0007 73.426 68.6808 73.3199 68.3253 73.2845Z" stroke="white" stroke-width="1.02487" stroke-miterlimit="10" stroke-linejoin="round"/>
<path d="M32.243 70.4182C31.8875 70.3828 31.532 70.4182 31.1765 70.5244C30.8211 70.6305 30.5011 70.7721 30.1812 70.9844C29.8612 71.1967 29.5768 71.4444 29.3635 71.7275C29.1502 72.0106 28.9369 72.3291 28.7948 72.6829L28.5459 73.3199C28.4037 73.6737 28.3682 74.0276 28.3682 74.3461C28.3682 74.6645 28.4748 74.983 28.5815 75.2307C28.7237 75.5138 28.9369 75.7261 29.1858 75.903C29.4346 76.08 29.7546 76.1861 30.0745 76.2569L33.5583 76.7877H33.5939H33.6294H33.665H33.7005C34.056 76.8231 34.4115 76.7877 34.767 76.6815C35.1225 76.5754 35.4424 76.4338 35.7624 76.2215C36.0823 76.0092 36.3667 75.7615 36.58 75.4784C36.8289 75.1953 37.0066 74.8768 37.1488 74.523L37.3976 73.886C37.5398 73.5322 37.5754 73.1783 37.5754 72.8598C37.5754 72.5414 37.4687 72.2229 37.3265 71.9752C37.1843 71.6921 36.9711 71.4798 36.7222 71.3029C36.4734 71.1259 36.1534 70.9844 35.8335 70.949L32.3852 70.4182H32.3497C32.3141 70.4182 32.3141 70.4182 32.3141 70.4182H32.2786C32.2786 70.4182 32.243 70.4182 32.243 70.4182Z" stroke="white" stroke-width="1.02487" stroke-miterlimit="10" stroke-linejoin="round"/>
<path d="M44.7208 93.7376L40.0283 93.3483C39.5662 93.3129 39.1041 93.3483 38.6775 93.4899C38.2153 93.6314 37.7887 93.8084 37.3977 94.0914C37.0067 94.3391 36.6156 94.6576 36.3312 95.0469C36.0113 95.4007 35.7624 95.8254 35.6202 96.25L35.3003 97.0993C35.1226 97.5239 35.0515 97.9485 35.087 98.3378C35.1226 98.727 35.2292 99.0809 35.407 99.3993C35.5847 99.7178 35.8691 99.9655 36.189 100.178C36.509 100.355 36.9 100.496 37.3622 100.532L42.0546 100.921C42.5168 100.956 42.9789 100.921 43.4055 100.779C43.8676 100.638 44.2942 100.461 44.6853 100.178C45.0763 99.9301 45.4674 99.5763 45.7518 99.2224C46.0717 98.8686 46.3205 98.4439 46.4627 98.0193L46.7827 97.17C46.9604 96.7454 47.0315 96.3208 46.996 95.9315C46.9604 95.5423 46.8538 95.1884 46.676 94.8699C46.4983 94.5515 46.2139 94.3038 45.894 94.0914C45.574 93.9145 45.183 93.773 44.7208 93.7376Z" stroke="white" stroke-width="1.02487" stroke-miterlimit="10" stroke-linejoin="round"/>
<path d="M60.1493 94.1269C60.1137 94.1269 60.1137 94.1269 60.0782 94.1269C60.0426 94.1269 60.0426 94.1269 60.0071 94.1269C59.9715 94.1269 59.9715 94.1269 59.936 94.1269C59.9004 94.1269 59.9004 94.1269 59.8649 94.1269L55.0302 94.0561C54.5681 94.0561 54.1059 94.1269 53.6793 94.2684C53.2172 94.41 52.7906 94.6577 52.3996 94.9407C52.0085 95.2238 51.6175 95.5423 51.3331 95.9316C51.0131 96.2854 50.7643 96.71 50.6221 97.1347L50.3022 97.9839C50.16 98.4086 50.0889 98.7978 50.0889 99.1871C50.0889 99.5763 50.1955 99.8948 50.3733 100.213C50.551 100.496 50.7999 100.744 51.1198 100.921C51.4397 101.098 51.7952 101.239 52.2218 101.275C52.2574 101.275 52.2574 101.275 52.2929 101.275C52.3285 101.275 52.3285 101.275 52.364 101.275C52.3996 101.275 52.3996 101.275 52.4351 101.275C52.4707 101.275 52.4707 101.275 52.5062 101.275L57.3764 101.346C57.8386 101.346 58.3007 101.275 58.7273 101.133C59.1894 100.992 59.616 100.744 60.0071 100.461C60.3981 100.178 60.7892 99.8594 61.0736 99.4702C61.3935 99.0809 61.6423 98.6917 61.7845 98.267L62.1045 97.4178C62.2467 96.9931 62.3178 96.6039 62.3178 96.2146C62.2822 95.8254 62.2111 95.5069 62.0334 95.1884C61.8556 94.9054 61.6068 94.6577 61.2868 94.4807C60.9669 94.3038 60.6114 94.1623 60.1493 94.1269Z" stroke="white" stroke-width="1.02487" stroke-miterlimit="10" stroke-linejoin="round"/>
<path d="M25.2042 91.2252C24.7776 91.1898 24.351 91.2252 23.9244 91.3667C23.4978 91.4729 23.1068 91.6852 22.7158 91.9329C22.3247 92.1806 22.0048 92.4637 21.7204 92.8176C21.436 93.1714 21.1872 93.5607 21.045 93.9853L20.725 94.8346C20.5473 95.2592 20.5117 95.6838 20.5117 96.0731C20.5117 96.4623 20.6184 96.8516 20.7961 97.1701C20.9739 97.4885 21.2227 97.7716 21.5071 97.9839C21.827 98.1962 22.1825 98.3378 22.6091 98.4086L27.1594 99.1517C27.195 99.1517 27.195 99.1517 27.2305 99.1517C27.2661 99.1517 27.2661 99.1517 27.3016 99.1517C27.3372 99.1517 27.3372 99.1517 27.3727 99.1517C27.4082 99.1517 27.4082 99.1517 27.4438 99.1517C27.8704 99.1871 28.297 99.1517 28.7236 99.0101C29.1502 98.904 29.5412 98.6917 29.9322 98.444C30.3233 98.1963 30.6432 97.8778 30.9276 97.5593C31.212 97.2054 31.4609 96.8162 31.603 96.3916L31.923 95.5423C32.1007 95.1177 32.1718 94.693 32.1363 94.3038C32.1363 93.9145 32.0296 93.5253 31.8519 93.2068C31.6741 92.8883 31.4253 92.6053 31.1409 92.3929C30.821 92.1806 30.4655 92.0391 30.0389 91.9683L25.4886 91.2606C25.453 91.2606 25.453 91.2606 25.4175 91.2606C25.4175 91.2606 25.382 91.2606 25.3464 91.2606C25.3109 91.2606 25.3109 91.2606 25.2753 91.2606C25.2398 91.2252 25.2398 91.2252 25.2042 91.2252Z" stroke="white" stroke-width="1.02487" stroke-miterlimit="10" stroke-linejoin="round"/>
<path d="M41.3082 102.62L36.6157 102.23C36.1536 102.195 35.727 102.23 35.2649 102.372C34.8027 102.513 34.3761 102.69 33.9851 102.973C33.5941 103.221 33.203 103.575 32.9186 103.929C32.5987 104.283 32.3498 104.707 32.2077 105.132L31.8877 105.981C31.71 106.406 31.6389 106.83 31.6744 107.255C31.71 107.644 31.8166 107.998 31.9944 108.317C32.1721 108.635 32.4565 108.883 32.7764 109.095C33.0964 109.307 33.4874 109.414 33.9496 109.449L38.642 109.838C39.1042 109.874 39.5663 109.838 39.9929 109.697C40.4551 109.555 40.8816 109.378 41.2727 109.095C41.6637 108.847 42.0548 108.494 42.3392 108.14C42.6591 107.786 42.9079 107.361 43.0501 106.937L43.3701 106.087C43.5478 105.663 43.6189 105.238 43.5834 104.813C43.5478 104.424 43.4412 104.07 43.2634 103.752C43.0857 103.433 42.8013 103.186 42.4814 102.973C42.1614 102.796 41.7704 102.69 41.3082 102.62Z" stroke="white" stroke-width="1.02487" stroke-miterlimit="10" stroke-linejoin="round"/>
<path d="M56.3807 103.221C56.3452 103.221 56.3452 103.221 56.3096 103.221C56.2741 103.221 56.2741 103.221 56.2385 103.221C56.203 103.221 56.203 103.221 56.1674 103.221C56.1319 103.221 56.1319 103.221 56.0963 103.221L51.2616 103.15C50.7995 103.15 50.3374 103.221 49.9108 103.363C49.4486 103.504 49.022 103.752 48.631 104.035C48.24 104.318 47.8489 104.636 47.5645 105.026C47.2446 105.38 46.9957 105.804 46.8535 106.229L46.5336 107.078C46.3914 107.503 46.3203 107.927 46.3203 108.281C46.3203 108.67 46.427 108.989 46.6047 109.307C46.7825 109.591 47.0313 109.838 47.3512 110.015C47.6712 110.192 48.0267 110.334 48.4888 110.369C48.5244 110.369 48.5244 110.369 48.5599 110.369C48.5955 110.369 48.5955 110.369 48.631 110.369C48.6666 110.369 48.6666 110.369 48.7021 110.369C48.7377 110.369 48.7377 110.369 48.7732 110.369L53.6434 110.44C54.1056 110.44 54.5677 110.369 55.0298 110.227C55.492 110.086 55.9186 109.838 56.3096 109.555C56.7007 109.272 57.0917 108.954 57.3761 108.564C57.696 108.175 57.9449 107.786 58.0871 107.361L58.407 106.512C58.5492 106.087 58.6203 105.663 58.6203 105.309C58.5848 104.92 58.5137 104.601 58.3359 104.283C58.1582 104 57.9093 103.752 57.5894 103.575C57.1983 103.363 56.8073 103.256 56.3807 103.221Z" stroke="white" stroke-width="1.02487" stroke-miterlimit="10" stroke-linejoin="round"/>
<path d="M22.0759 100.319C21.6493 100.284 21.2227 100.319 20.7961 100.461C20.3695 100.567 19.9785 100.779 19.5874 101.027C19.232 101.275 18.8765 101.593 18.5921 101.912C18.3077 102.266 18.0588 102.655 17.9166 103.08L17.5967 103.929C17.4189 104.353 17.3478 104.778 17.3834 105.167C17.3834 105.557 17.49 105.946 17.6678 106.264C17.8455 106.583 18.0944 106.866 18.3788 107.078C18.6987 107.29 19.0542 107.432 19.4808 107.503L24.0311 108.246C24.0666 108.246 24.0666 108.246 24.1022 108.246C24.1377 108.246 24.1377 108.246 24.1733 108.246C24.2088 108.246 24.2088 108.246 24.2444 108.246C24.2799 108.246 24.2799 108.246 24.3155 108.246C24.7421 108.281 25.1687 108.246 25.5952 108.104C26.0218 107.998 26.4484 107.786 26.8039 107.538C27.195 107.29 27.5149 106.972 27.7993 106.654C28.0837 106.335 28.3325 105.91 28.4747 105.486L28.7947 104.637C28.9724 104.212 29.0435 103.787 29.008 103.398C29.008 103.009 28.9013 102.619 28.7236 102.301C28.5458 101.983 28.297 101.699 28.0126 101.487C27.6926 101.275 27.3372 101.133 26.9106 101.063L22.3603 100.319C22.3603 100.319 22.3247 100.319 22.2892 100.319C22.2892 100.319 22.2536 100.319 22.2181 100.319C22.2181 100.319 22.1825 100.319 22.147 100.319C22.1114 100.319 22.1114 100.319 22.0759 100.319Z" stroke="white" stroke-width="1.02487" stroke-miterlimit="10" stroke-linejoin="round"/>
<path d="M37.8951 111.749L33.2027 111.36C32.7405 111.324 32.3139 111.36 31.8518 111.501C31.3897 111.643 30.9631 111.82 30.572 112.103C30.181 112.351 29.7899 112.705 29.5055 113.058C29.1856 113.412 28.9368 113.837 28.7946 114.261L28.4746 115.111C28.2969 115.535 28.2258 115.995 28.2613 116.385C28.2613 116.774 28.368 117.128 28.5813 117.446C28.759 117.765 29.0434 118.012 29.3634 118.225C29.6833 118.437 30.0743 118.543 30.5365 118.579L35.229 119.003C35.6911 119.039 36.1532 119.003 36.5798 118.862C37.042 118.72 37.4686 118.543 37.8596 118.26C38.2506 118.012 38.6417 117.694 38.9261 117.305C39.246 116.951 39.4949 116.526 39.6371 116.102L39.957 115.252C40.1347 114.792 40.2058 114.403 40.1703 113.978C40.1347 113.589 40.0281 113.2 39.8503 112.917C39.6726 112.598 39.3882 112.351 39.0683 112.138C38.7483 111.926 38.3573 111.784 37.8951 111.749Z" stroke="white" stroke-width="1.02487" stroke-miterlimit="10" stroke-linejoin="round"/>
<path d="M52.4348 112.315C52.4348 112.315 52.3993 112.315 52.3637 112.315C52.3282 112.315 52.3282 112.315 52.2926 112.315C52.2571 112.315 52.2571 112.315 52.2215 112.315C52.186 112.315 52.186 112.315 52.1504 112.315L47.3157 112.245C46.8536 112.245 46.3915 112.315 45.9293 112.457C45.4672 112.598 45.0406 112.846 44.6496 113.129C44.2585 113.412 43.8675 113.731 43.5831 114.12C43.2631 114.474 43.0498 114.898 42.8721 115.323L42.5522 116.172C42.41 116.597 42.3389 117.022 42.3389 117.375C42.3389 117.765 42.4455 118.083 42.6233 118.402C42.801 118.685 43.0499 118.932 43.3698 119.145C43.6897 119.322 44.0452 119.463 44.5074 119.499C44.5429 119.499 44.5429 119.499 44.5785 119.499C44.614 119.499 44.614 119.499 44.6496 119.499C44.6851 119.499 44.6851 119.499 44.7207 119.499C44.7562 119.499 44.7562 119.499 44.7918 119.499L49.662 119.569C50.1241 119.569 50.5863 119.499 51.0484 119.357C51.5105 119.216 51.9371 118.968 52.3282 118.685C52.7192 118.402 53.1103 118.083 53.3946 117.694C53.7146 117.34 53.9634 116.915 54.1056 116.491L54.4256 115.642C54.5678 115.217 54.6389 114.792 54.6389 114.438C54.6033 114.049 54.5322 113.695 54.3545 113.412C54.1767 113.129 53.9279 112.881 53.6079 112.669C53.2525 112.492 52.8614 112.351 52.4348 112.315Z" stroke="white" stroke-width="1.02487" stroke-miterlimit="10" stroke-linejoin="round"/>
<path d="M19.1256 109.449C18.699 109.414 18.2724 109.449 17.8458 109.591C17.4192 109.697 17.0282 109.909 16.6372 110.157C16.2461 110.404 15.9262 110.687 15.6418 111.041C15.3574 111.395 15.1085 111.784 14.9308 112.209L14.6109 113.058C14.4331 113.483 14.362 113.908 14.3976 114.297C14.3976 114.686 14.5042 115.075 14.682 115.394C14.8597 115.712 15.1085 115.995 15.3929 116.208C15.7129 116.42 16.0684 116.562 16.495 116.632L21.0452 117.375C21.0452 117.375 21.0808 117.375 21.1163 117.375C21.1519 117.375 21.1519 117.375 21.1874 117.375C21.1874 117.375 21.223 117.375 21.2585 117.375C21.2941 117.375 21.2941 117.375 21.3296 117.375C21.7562 117.411 22.1828 117.375 22.6094 117.234C23.036 117.128 23.4626 116.915 23.8181 116.668C24.2091 116.42 24.5291 116.102 24.8135 115.783C25.0978 115.429 25.3467 115.04 25.4889 114.615L25.8088 113.766C25.9866 113.341 26.0577 112.917 26.0221 112.528C26.0221 112.138 25.9155 111.749 25.7377 111.431C25.56 111.112 25.3111 110.829 25.0268 110.617C24.7068 110.404 24.3513 110.263 23.9247 110.192L19.3744 109.449C19.3389 109.449 19.3389 109.449 19.3033 109.449C19.3033 109.449 19.2678 109.449 19.2322 109.449C19.2322 109.449 19.1967 109.449 19.1611 109.449C19.1611 109.449 19.1611 109.449 19.1256 109.449Z" stroke="white" stroke-width="1.02487" stroke-miterlimit="10" stroke-linejoin="round"/>
<path d="M34.4824 120.843L29.79 120.419C29.3278 120.383 28.8657 120.419 28.4391 120.56C27.977 120.702 27.5504 120.879 27.1593 121.162C26.7683 121.409 26.3772 121.728 26.0573 122.117C25.7374 122.471 25.4885 122.896 25.3463 123.32L25.0264 124.17C24.8486 124.594 24.7775 125.019 24.8131 125.443C24.8131 125.833 24.9197 126.222 25.133 126.505C25.3108 126.824 25.5952 127.071 25.9151 127.284C26.2351 127.46 26.6261 127.602 27.0882 127.637L31.7807 128.062C32.2429 128.097 32.705 128.062 33.1316 127.92C33.5937 127.779 34.0203 127.602 34.4114 127.319C34.8024 127.071 35.1934 126.717 35.4778 126.364C35.7978 126.01 36.0466 125.585 36.2244 125.16L36.5443 124.311C36.722 123.851 36.7931 123.426 36.7576 123.037C36.722 122.648 36.6154 122.294 36.4377 121.976C36.2599 121.657 35.9755 121.409 35.6556 121.197C35.3356 120.985 34.9446 120.879 34.4824 120.843Z" stroke="white" stroke-width="1.02487" stroke-miterlimit="10" stroke-linejoin="round"/>
<path d="M49.0222 121.409C48.9867 121.409 48.9867 121.409 48.9511 121.409C48.9156 121.409 48.9156 121.409 48.88 121.409C48.8445 121.409 48.8445 121.409 48.8089 121.409C48.7734 121.409 48.7734 121.409 48.7378 121.409L43.8676 121.339C43.4055 121.339 42.9433 121.409 42.5167 121.551C42.0546 121.693 41.628 121.94 41.237 122.223C40.8459 122.506 40.4549 122.825 40.1705 123.214C39.8505 123.568 39.6017 123.993 39.4595 124.417L39.1396 125.267C38.9974 125.691 38.9263 126.116 38.9263 126.47C38.9618 126.859 39.0329 127.177 39.2107 127.496C39.3884 127.779 39.6373 128.062 39.9572 128.239C40.2771 128.416 40.6326 128.557 41.0948 128.593C41.1303 128.593 41.1303 128.593 41.1659 128.593C41.2014 128.593 41.2014 128.593 41.237 128.593C41.237 128.593 41.2725 128.593 41.3081 128.593C41.3436 128.593 41.3436 128.593 41.3792 128.593L46.2494 128.699C46.7115 128.699 47.1737 128.628 47.6358 128.487C48.0979 128.345 48.5245 128.097 48.9511 127.814C49.3422 127.531 49.7332 127.213 50.0176 126.824C50.3375 126.47 50.5864 126.045 50.7286 125.62L51.0485 124.771C51.1907 124.347 51.2618 123.922 51.2618 123.568C51.2263 123.179 51.1552 122.86 50.9774 122.542C50.7997 122.259 50.5508 122.011 50.2309 121.799C49.8399 121.551 49.4488 121.445 49.0222 121.409Z" stroke="white" stroke-width="1.02487" stroke-miterlimit="10" stroke-linejoin="round"/>
<path d="M16.2102 118.508C15.7836 118.472 15.357 118.508 14.9304 118.649C14.5038 118.756 14.1128 118.968 13.7217 119.216C13.3307 119.463 13.0107 119.782 12.7263 120.1C12.442 120.454 12.1931 120.843 12.0509 121.268L11.731 122.117C11.5532 122.542 11.4821 122.966 11.5177 123.391C11.5177 123.78 11.6243 124.17 11.8021 124.488C11.9798 124.807 12.2287 125.09 12.5131 125.337C12.833 125.55 13.1885 125.691 13.6151 125.797L18.1654 126.54C18.1654 126.54 18.2009 126.54 18.2365 126.54C18.272 126.54 18.272 126.54 18.3076 126.54C18.3076 126.54 18.3431 126.54 18.3787 126.54C18.4142 126.54 18.4142 126.54 18.4498 126.54C18.8763 126.576 19.3029 126.54 19.7295 126.399C20.1561 126.293 20.5827 126.08 20.9382 125.833C21.3292 125.585 21.6492 125.267 21.9691 124.913C22.2535 124.559 22.5024 124.17 22.6446 123.745L22.9645 122.896C23.1422 122.471 23.2133 122.046 23.1778 121.657C23.1778 121.268 23.0711 120.879 22.8934 120.56C22.7157 120.242 22.4668 119.959 22.1824 119.746C21.8625 119.534 21.507 119.357 21.0804 119.286L16.4235 118.543C16.3879 118.543 16.3879 118.543 16.3524 118.543C16.3168 118.543 16.3168 118.543 16.2813 118.543C16.2457 118.543 16.2457 118.543 16.2102 118.543C16.2457 118.508 16.2102 118.508 16.2102 118.508Z" stroke="white" stroke-width="1.02487" stroke-miterlimit="10" stroke-linejoin="round"/>
<path d="M46.2852 18.6838L90.7216 21.9747" stroke="white" stroke-width="1.02487" stroke-miterlimit="10" stroke-linejoin="round"/>
<path d="M18.9834 144.41L19.9788 148.267L32.5987 149.435L32.101 145.72L18.9834 144.41Z" stroke="white" stroke-width="1.02487" stroke-miterlimit="10" stroke-linejoin="round"/>
</g>
<defs>
<clipPath id="clip0_9_2425">
<rect width="123" height="154" fill="white"/>
</clipPath>
</defs>
</svg>
