<svg width="109" height="160" viewBox="0 0 109 160" fill="none" xmlns="http://www.w3.org/2000/svg">
<g clip-path="url(#clip0_9_2365)">
<path d="M92.8671 144.626C92.5487 145.05 92.1949 145.509 91.8411 145.933L91.0628 146.852C87.9495 150.563 83.1381 152.472 78.3267 151.906L67.3595 150.599C65.5552 150.422 64.3169 149.079 63.9985 147.488C63.8216 146.605 63.9985 145.651 64.4938 144.802C67.9255 139.253 79.8833 132.892 80.0248 132.892L80.6616 140.985C80.6616 140.985 80.697 141.127 80.7678 141.339C81.2631 142.717 82.3952 143.813 83.7749 144.272C85.8622 144.944 89.7538 145.863 92.8671 144.626Z" fill="#2CB6BF"/>
<path d="M82.7844 78.4272C84.8717 81.6435 90.1077 91.7871 91.7704 95.5335C93.9285 100.446 98.6338 113.064 99.0937 124.303C99.1291 125.929 98.9522 127.908 98.7399 129.887C98.1739 135.224 96.1219 140.314 92.9025 144.59C89.7539 145.827 85.8977 144.908 83.8457 144.237C82.4306 143.777 81.3339 142.682 80.8386 141.303C80.7678 141.091 80.7325 140.95 80.7325 140.95L80.0956 132.856L76.5225 87.8639C78.5036 86.0261 80.3433 84.2942 80.9801 83.6581C81.6523 82.9865 81.6877 81.7142 81.4754 80.4065C81.7584 79.9116 82.2183 79.2401 82.7844 78.4272Z" fill="#2CB6BF"/>
<path d="M69.0225 78.1445C70.9329 81.7848 72.2773 91.681 70.4022 93.5189C70.4022 93.5189 70.3668 93.5189 70.3668 93.5542C67.0413 96.6645 55.5434 92.812 42.3474 88.5355C29.1513 84.2942 20.5544 80.8306 18.2549 79.6289C15.9553 78.4272 13.7618 76.5894 13.125 74.1153C12.3467 71.0758 13.6911 68.0716 12.1698 64.3605C10.6486 60.6848 3.60831 54.2169 2.22857 52.5558C2.22857 52.5558 -0.247903 50.011 0.45966 49.2688C0.495038 49.1981 0.565794 49.1628 0.63655 49.0921C1.37949 48.5266 2.93613 48.7387 8.24285 49.7636C14.0095 50.8593 20.3775 52.5911 28.3022 55.1359C36.1916 57.6806 50.6612 62.558 56.1448 66.6578C61.6284 70.7223 67.112 74.4687 69.0225 78.1445ZM68.881 91.5043C69.5178 90.0199 68.9163 83.8701 67.6073 80.3358C67.572 80.2297 67.5366 80.1237 67.5012 80.0177C67.4658 79.9116 67.4305 79.8056 67.3951 79.6996C67.3597 79.5935 67.3243 79.5229 67.2536 79.4168C67.2182 79.3108 67.1828 79.2401 67.112 79.1341C65.6969 76.4126 61.4869 73.3024 57.0293 70.0155C56.3217 69.4853 55.6142 68.9552 54.9066 68.425C54.8005 68.3543 54.7297 68.2836 54.6236 68.2129C54.5528 68.1423 54.4821 68.1069 54.3759 68.0362C54.3405 68.0009 54.3052 68.0009 54.2698 67.9655C54.199 67.8949 54.1283 67.8595 54.0221 67.7888C53.7037 67.5768 53.3853 67.4 53.0316 67.188C52.7839 67.0466 52.5009 66.9052 52.2179 66.7285C47.5126 64.1484 39.3048 60.9675 27.6654 57.2211C19.6346 54.641 13.3019 53.0859 7.88907 51.9196C3.07764 50.8946 5.76638 53.0506 5.76638 53.0506C9.51646 56.8677 12.9481 60.5434 14.151 63.4416C15.2123 66.057 15.1416 68.3897 15.0708 70.2982C15.0354 71.4999 14.9647 72.5602 15.2123 73.5145C15.7076 75.4937 17.9011 76.8721 19.1393 77.5083C21.5096 78.71 30.4249 82.2443 42.9134 86.2735L44.3639 86.7329C54.5882 90.0199 64.211 93.1301 68.0673 92.1051C68.421 92.1405 68.7394 91.8577 68.881 91.5043Z" fill="#2CB6BF"/>
<path d="M67.112 79.1694C67.1474 79.2401 67.2182 79.3461 67.2536 79.4522C67.2889 79.5582 67.3243 79.6289 67.3951 79.7349C67.4304 79.8409 67.4658 79.947 67.5012 80.053C67.5366 80.159 67.572 80.2651 67.6073 80.3711L26.0734 66.6932C24.0215 66.0923 21.8634 63.8657 21.2974 61.7097L20.9436 60.3667C20.3775 58.2107 21.5804 56.9737 23.6323 57.5745L52.2532 66.8345C52.5362 66.9759 52.8193 67.1526 53.0669 67.294C53.4207 67.5061 53.7391 67.7181 54.0575 67.8948C54.1283 67.9655 54.2344 68.0009 54.3052 68.0716C54.3405 68.1069 54.3759 68.1069 54.4113 68.1423C54.482 68.2129 54.5882 68.2483 54.6589 68.319C54.7651 68.3897 54.8358 68.4603 54.942 68.531C55.6495 69.0612 56.3571 69.5913 57.0647 70.1215C61.4869 73.3731 65.6969 76.4833 67.112 79.1694Z" fill="#2CB6BF"/>
<path d="M27.7364 57.2918C39.3758 61.0382 47.5835 64.2191 52.2888 66.7992L23.6679 57.5392C21.616 56.9384 20.4131 58.2107 20.9792 60.3313L21.3329 61.6744C21.899 63.8303 24.0571 66.057 26.109 66.6578L67.6429 80.3358C68.9519 83.8701 69.5533 90.0199 68.9165 91.5043C68.775 91.8224 68.4566 92.1051 68.1382 92.2112C64.282 93.2361 54.6238 90.1259 44.4349 86.839L42.9844 86.3795C30.4959 82.3503 21.5806 78.816 19.2103 77.579C17.972 76.9428 15.7786 75.5644 15.2833 73.5851C15.0356 72.6309 15.071 71.5706 15.1418 70.3689C15.2125 68.4957 15.3187 66.1277 14.2219 63.5123C13.0191 60.6141 9.58741 56.9384 5.83733 53.1213C5.83733 53.1213 3.14859 50.9653 7.96001 51.9903C13.3729 53.1566 19.6702 54.7117 27.7364 57.2918Z" fill="#2CB6BF"/>
<path d="M96.3346 35.909C98.1743 33.8591 101.641 30.3954 102.632 32.3746C102.738 32.5514 102.773 32.8341 102.773 33.1169C102.738 33.0815 102.738 33.0462 102.703 33.0108C102.667 32.9401 102.632 32.9048 102.597 32.8695C102.597 32.8341 102.561 32.8341 102.526 32.7988C102.455 32.7281 102.384 32.6927 102.349 32.6574C102.137 32.5514 101.889 32.5514 101.641 32.6574C101.535 32.6927 101.464 32.7281 101.358 32.7634C100.332 33.2582 99.0941 34.7073 97.962 35.9797C97.8559 36.0857 97.7497 36.1917 97.679 36.3331C97.5375 36.5098 97.3959 36.6512 97.2544 36.7926C95.4148 38.8425 83.4216 52.9092 78.4687 57.0444C76.1691 58.9529 75.2492 59.5184 74.1171 58.8116C74.0818 58.7762 74.0464 58.7762 74.011 58.7409C73.9049 58.6702 73.7634 58.5288 73.5865 58.4228C73.4803 58.3521 73.4096 58.2814 73.3034 58.2107C73.1619 58.1047 73.0204 57.9633 72.8789 57.822C73.0204 57.8573 73.1266 57.8926 73.1973 57.9633C74.3294 58.6702 75.2846 58.1047 77.5488 56.1962C82.5018 52.0256 94.4949 37.9589 96.3346 35.909Z" fill="#2CB6BF"/>
<path d="M108.434 21.4182L106.736 129.746C106.7 132.75 106.311 135.79 105.179 138.582C98.2096 155.653 88.5868 160.565 81.0159 159.505L67.183 157.561C65.308 157.279 63.9282 155.688 63.9282 153.815V147.488H63.999C64.282 149.079 65.5556 150.422 67.3599 150.599L78.3271 151.906C83.1385 152.472 87.95 150.563 91.0632 146.852L91.8416 145.933C92.1953 145.509 92.5491 145.085 92.8675 144.626C96.0869 140.349 98.1389 135.26 98.7049 129.923C98.9172 127.943 99.0587 125.964 99.0587 124.338C98.5988 113.099 93.8935 100.482 91.7354 95.5688C90.0727 91.8224 84.8721 81.6788 82.7494 78.4626C85.2259 74.7868 89.6127 68.2129 94.5657 60.7555C101.075 51.0007 107.337 28.6636 108.434 21.4182Z" fill="#2CB6BF"/>
<path d="M106.134 6.2558C107.903 9.96687 108.151 16.5054 108.151 16.7528C106.807 12.9357 102.49 10.8858 96.1223 14.4555C96.0516 14.4908 95.9808 14.5262 95.9101 14.5615C95.1671 12.5469 93.7874 8.97725 93.5043 9.04794L75.6384 6.0084L72.8789 4.98344C72.9143 4.94809 72.9143 4.94809 72.9497 4.94809C93.752 -4.17053 104.365 2.47405 106.134 6.2558Z" fill="#2CB6BF"/>
<path d="M74.9306 19.7923C68.8455 19.6863 66.6874 16.9295 66.1214 15.9753C65.6615 15.1977 65.52 14.4555 65.7322 13.8546C65.8738 13.5012 66.1568 13.1831 66.4398 13.1124C66.4752 13.1124 66.5106 13.0771 66.5813 13.0771C66.8997 13.0771 67.2535 13.89 67.3596 14.4201C68.4917 18.6614 74.0815 19.6156 74.1522 19.6156C74.3645 19.7217 74.6475 19.757 74.9306 19.7923Z" fill="#2CB6BF"/>
<path d="M60.5671 33.2936C61.0624 33.3996 61.2039 33.8591 60.744 34.2125C60.2841 34.5306 59.3997 34.672 58.8336 34.778C56.9232 35.0961 54.5882 35.1314 52.5363 34.6366C50.2721 34.0711 48.857 32.9401 48.1848 31.7385C47.9725 31.385 47.6187 30.8549 47.8664 30.5014C48.1848 30.0773 48.8216 29.9006 49.2815 30.0066C49.7768 30.148 49.7768 30.6428 49.9183 30.9609C50.449 31.9505 51.4042 32.8341 53.2792 33.3996C55.0482 33.9298 57.1001 33.8944 58.8336 33.5763C59.4704 33.4703 60.1072 33.1875 60.5671 33.2936Z" fill="#2CB6BF"/>
<path d="M60.3903 31.385C60.7087 31.5264 60.8149 31.8091 60.4611 32.1626C60.1073 32.5514 59.2936 32.6574 58.7276 32.7634C57.4539 32.9755 56.0388 33.0462 54.5883 32.7281C52.7487 32.3393 51.6519 31.4557 51.1566 30.5721C50.9798 30.254 50.7675 29.7946 51.0505 29.4765C51.4043 29.0524 52.0765 28.911 52.501 29.0877C52.9963 29.2998 52.8902 29.7239 53.1024 30.042C53.4916 30.6428 54.2345 31.2083 55.6143 31.5264C56.7818 31.8091 57.9492 31.6678 59.0106 31.4557C59.5766 31.3497 59.9304 31.173 60.3903 31.385Z" fill="#2CB6BF"/>
<path d="M60.0719 29.3704C60.461 29.5472 60.4964 29.9359 60.0365 30.254C59.612 30.5721 58.7983 30.7135 58.2322 30.7842C57.4893 30.8549 56.8525 30.7842 56.1803 30.6428C55.0482 30.3954 54.376 29.7946 54.1637 29.1937C54.093 28.9817 54.0222 28.7343 54.1637 28.5575C54.4821 28.0981 55.2605 27.9214 55.7557 28.0981C56.0742 28.2394 56.0388 28.6282 56.2157 28.8403C56.5694 29.2997 57.56 29.5825 58.4445 29.4765C59.0813 29.4411 59.5058 29.1584 60.0719 29.3704Z" fill="#2CB6BF"/>
<path d="M95.9097 14.5615C95.5206 14.7736 95.096 14.9857 94.7069 15.2331C94.5654 15.3037 94.3885 15.4098 94.2469 15.4805C93.504 15.8692 92.7257 16.2227 91.912 16.6115C86.959 18.2726 76.4164 21.0294 70.4375 17.0002C64.6708 13.1478 72.171 5.65497 72.9139 4.98344L75.6734 6.00841L93.5748 9.04795C93.8224 9.0126 95.1668 12.547 95.9097 14.5615Z" fill="#2CB6BF"/>
<path d="M70.402 17.0002C76.4163 21.0294 86.9236 18.2373 91.8765 16.6115C91.6643 16.7175 91.4166 16.8235 91.169 16.9295C90.9567 17.0356 90.7444 17.1063 90.5322 17.2123C90.3199 17.3183 90.1076 17.389 89.8953 17.495C89.4708 17.6718 89.0463 17.8485 88.5864 17.9899C88.4095 18.0605 88.268 18.1312 88.0911 18.1666C87.8788 18.2373 87.6311 18.3433 87.4189 18.414C87.2066 18.4847 86.959 18.5553 86.7467 18.6614C86.5698 18.7321 86.3929 18.7674 86.2514 18.8381C85.8622 18.9795 85.5085 19.0855 85.1193 19.1915C84.9424 19.2622 84.7655 19.2976 84.5886 19.3329C84.3764 19.4036 84.1287 19.4743 83.9164 19.5096C83.7042 19.5803 83.4565 19.651 83.2443 19.6863C82.8197 19.7924 82.3952 19.8984 81.9706 20.0044C81.8291 20.0398 81.6876 20.0751 81.5107 20.1105C81.1923 20.1811 80.8739 20.2518 80.5909 20.2872C80.3786 20.3225 80.131 20.3579 79.9187 20.3932C79.6711 20.4286 79.4234 20.4639 79.1758 20.4992C78.9635 20.5346 78.7159 20.5699 78.5036 20.6053C78.2559 20.6406 78.0083 20.676 77.7253 20.676C77.5484 20.7113 77.3361 20.7113 77.1592 20.7113C76.9116 20.7466 76.6639 20.7466 76.4163 20.7466C76.0271 20.782 75.6026 20.782 75.2134 20.782C73.2676 20.782 71.3926 20.5346 69.7298 19.9691C69.4114 19.8631 69.1284 19.757 68.8454 19.651C68.4208 19.4743 67.9963 19.2622 67.5717 19.0148C63.7863 16.8589 63.291 12.759 65.3783 9.04795C65.4491 8.94192 65.4844 8.83589 65.5552 8.72986C65.5552 8.72986 65.5552 8.69451 65.5906 8.69451C65.7321 8.48245 65.8382 8.27039 65.9797 8.09367C66.0505 7.98764 66.1212 7.88161 66.192 7.77558C66.2628 7.66955 66.3335 7.56352 66.4396 7.45749C66.6873 7.1394 66.9703 6.82131 67.2533 6.53856C67.3595 6.43253 67.4656 6.3265 67.5364 6.25581C67.6425 6.14978 67.7486 6.04375 67.8548 5.97306C67.9609 5.86703 68.067 5.79635 68.1732 5.69031C68.2793 5.58428 68.3854 5.5136 68.4916 5.40757C68.5977 5.30154 68.7039 5.23085 68.8454 5.12482C69.4114 4.66535 70.0482 4.24123 70.7558 3.8878C70.8973 3.81711 71.0388 3.74642 71.1803 3.67574L72.8077 4.98344L72.8785 5.01879C72.1355 5.61963 64.6354 13.1124 70.402 17.0002ZM74.1521 19.6863C74.0813 19.6863 68.4916 18.7321 67.3595 14.4908C67.2533 13.9253 66.8996 13.1124 66.5812 13.1478C66.5458 13.1478 66.5104 13.1478 66.4396 13.1831C66.1212 13.2538 65.8382 13.5366 65.7321 13.9253C65.5198 14.5262 65.6613 15.2684 66.1212 16.046C66.6873 17.0002 68.8454 19.757 74.9304 19.8631C74.6474 19.757 74.3644 19.7217 74.1521 19.6863Z" fill="#2CB6BF"/>
<path d="M11.2852 36.6512C11.2852 36.6512 12.4881 35.5556 14.4693 35.803C14.4693 35.803 14.4693 35.803 14.5046 35.803C16.4858 36.0504 26.887 37.6762 41.2151 42.2001C55.5079 46.6888 65.6614 51.6368 68.244 53.7928C69.8006 55.1005 71.6049 56.7617 72.8432 57.822C72.9847 57.9633 73.1262 58.1047 73.2677 58.2107C73.3738 58.2814 73.4446 58.3521 73.5507 58.4228C73.7276 58.5642 73.8691 58.6702 73.9753 58.7409C74.0106 58.7762 74.046 58.7762 74.0814 58.8116C75.2135 59.5184 76.1687 58.9529 78.4329 57.0444C83.3858 52.8739 95.379 38.8425 97.2187 36.7926C97.3602 36.6512 97.5017 36.4745 97.6432 36.3331C97.7494 36.2271 97.8201 36.1211 97.9262 35.9797C99.023 34.7073 100.297 33.2582 101.323 32.7634C101.429 32.7281 101.499 32.6927 101.606 32.6574C101.853 32.5867 102.101 32.5514 102.313 32.6574C102.384 32.6927 102.455 32.7281 102.49 32.7988C102.525 32.8341 102.525 32.8341 102.561 32.8694C102.596 32.9048 102.632 32.9755 102.667 33.0108C102.702 33.0462 102.702 33.0815 102.738 33.1169L102.773 33.1522C103.764 35.1314 100.933 43.7199 95.1668 52.6265C89.4001 61.533 82.2537 69.8741 81.2632 71.1111C80.2726 72.3481 79.7419 74.186 80.2018 75.8118C80.4495 76.7307 81.157 78.6393 81.44 80.4064C81.6523 81.7495 81.6169 82.9865 80.9448 83.658C80.3079 84.2942 78.4683 86.0261 76.4871 87.8639C73.7276 90.444 70.7205 93.2008 70.4375 93.4835C72.3125 91.6103 70.9681 81.7495 69.0577 78.1091C67.1473 74.4334 61.6637 70.7223 56.1801 66.6225C50.6965 62.558 36.2268 57.6452 28.3021 55.1358C20.4128 52.5911 14.0093 50.8593 8.2427 49.7636C2.93599 48.774 1.37935 48.5266 0.636408 49.0921L0.530273 49.0214L11.2852 36.6512Z" fill="#2CB6BF"/>
<path d="M58.8334 33.5763C57.1353 33.8944 55.048 33.8944 53.279 33.3996C51.404 32.8341 50.4134 31.9505 49.9181 30.9609C49.7412 30.6428 49.7412 30.148 49.2813 30.0066C48.8214 29.9006 48.1492 30.0773 47.8662 30.5014C47.6185 30.8549 47.9723 31.4204 48.1846 31.7385C48.8568 32.9401 50.2719 34.0711 52.5361 34.6366C54.588 35.1314 56.923 35.1314 58.8334 34.778C59.3995 34.672 60.3193 34.5306 60.7438 34.2125C61.2037 33.8591 61.0622 33.3996 60.5669 33.2936C60.107 33.1875 59.4702 33.4703 58.8334 33.5763ZM56.2154 30.6428C56.8876 30.7842 57.5244 30.8549 58.2674 30.7842C58.798 30.7135 59.6117 30.6075 60.0716 30.254C60.5316 29.9359 60.4962 29.5472 60.107 29.3705C59.541 29.123 59.1164 29.4411 58.515 29.5118C57.5952 29.6179 56.64 29.3705 56.2862 28.8756C56.1447 28.6636 56.1447 28.2748 55.8263 28.1334C55.331 27.9214 54.5527 28.0981 54.2343 28.5929C54.0927 28.805 54.1635 29.017 54.2343 29.2291C54.4111 29.7946 55.0479 30.3954 56.2154 30.6428ZM59.0457 31.4557C57.9843 31.6678 56.8169 31.8092 55.6494 31.5264C54.2343 31.2083 53.4913 30.6428 53.1375 30.042C52.9253 29.7239 53.0314 29.2998 52.5361 29.0877C52.1116 28.911 51.4394 29.0524 51.0856 29.4765C50.8026 29.7946 51.0502 30.254 51.1917 30.5721C51.687 31.4557 52.7837 32.3393 54.6234 32.7281C56.0739 33.0462 57.489 33.0108 58.7627 32.7634C59.3641 32.6574 60.1424 32.5514 60.4962 32.1626C60.85 31.8092 60.7438 31.5264 60.4254 31.385C59.9301 31.173 59.5763 31.3497 59.0457 31.4557ZM108.186 16.7175C108.575 17.8131 108.717 19.0502 108.61 20.3579C108.575 20.676 108.54 21.0294 108.469 21.4182C107.372 28.6282 101.075 51.0007 94.6007 60.7201C89.6478 68.1776 85.2609 74.7515 82.7844 78.4272C82.2184 79.2401 81.7938 79.9117 81.44 80.4065C81.157 78.6393 80.4494 76.7661 80.2018 75.8118C79.7773 74.186 80.2725 72.3128 81.2631 71.1111C82.2537 69.8741 89.4001 61.533 95.1667 52.6265C100.969 43.7199 103.764 35.1314 102.773 33.1522C102.773 33.1522 102.773 33.1169 102.738 33.1169C102.738 32.7988 102.667 32.5514 102.596 32.3747C101.606 30.3954 98.1385 33.8591 96.2989 35.909C94.4592 37.9589 82.466 52.0256 77.5131 56.1608C75.2135 58.0694 74.2936 58.6349 73.1615 57.928C73.0908 57.8927 72.9847 57.822 72.8431 57.7866C71.6049 56.691 69.8006 55.0652 68.244 53.7575C65.626 51.6015 55.5079 46.6534 41.2151 42.1648C26.887 37.6762 16.4858 36.0504 14.5046 35.803C14.5046 35.803 14.5046 35.803 14.4692 35.803V35.7676C16.7688 33.3996 21.7571 28.8756 32.0875 21.5595C48.5384 9.96688 71.2865 3.5697 71.2865 3.5697C71.2511 3.60505 71.2157 3.60505 71.1804 3.60505C71.0389 3.67573 70.8974 3.74642 70.7558 3.81711C70.0837 4.20588 69.4468 4.63001 68.8454 5.05413C68.7393 5.16016 68.6332 5.23085 68.4916 5.33688C68.3855 5.44291 68.2794 5.51359 68.1732 5.61962C68.0671 5.72566 67.961 5.79634 67.8548 5.90237C67.7487 6.0084 67.6426 6.07909 67.5364 6.18512C67.4303 6.29115 67.3242 6.36184 67.2534 6.46787C66.9704 6.75062 66.6873 7.06871 66.4397 7.3868C66.3689 7.49283 66.2628 7.59886 66.1921 7.70489C66.1213 7.81092 66.0505 7.91695 65.9798 8.02298C65.8383 8.23504 65.6968 8.41176 65.5906 8.62382C65.5906 8.62382 65.5906 8.65917 65.5552 8.65917C65.4845 8.7652 65.4137 8.87123 65.3784 8.97726C63.291 12.6883 63.7863 16.7882 67.5718 18.9441C67.961 19.1562 68.3855 19.3682 68.8454 19.5803C69.1284 19.6863 69.4468 19.8277 69.7299 19.8984C71.3926 20.4639 73.2677 20.7113 75.2135 20.7113C75.6026 20.7113 76.0272 20.7113 76.4163 20.676C76.664 20.676 76.9116 20.6406 77.1593 20.6406C77.3362 20.6406 77.5484 20.6053 77.7253 20.6053C77.973 20.5699 78.2206 20.5699 78.5036 20.5346C78.7159 20.4992 78.9636 20.4639 79.1758 20.4285C79.4235 20.3932 79.6711 20.3579 79.9188 20.3225C80.131 20.2872 80.3787 20.2518 80.591 20.2165C80.9094 20.1458 81.2278 20.1105 81.5108 20.0398C81.6523 20.0044 81.7938 19.9691 81.9707 19.9337C82.3952 19.8277 82.8198 19.7217 83.2443 19.6157C83.4566 19.545 83.7042 19.5096 83.9165 19.4389C84.1288 19.3682 84.3764 19.3329 84.5887 19.2622C84.7656 19.2269 84.9425 19.1562 85.1194 19.1208C85.5085 19.0148 85.8623 18.9088 86.2514 18.7674C86.4283 18.6967 86.6052 18.6614 86.7467 18.5907C86.959 18.52 87.2067 18.4493 87.4189 18.3433C87.6312 18.2726 87.8789 18.1666 88.0911 18.0959C88.268 18.0252 88.4095 17.9545 88.5864 17.9192C89.0109 17.7424 89.4709 17.6011 89.8954 17.4244C90.1077 17.3183 90.3199 17.2476 90.5322 17.1416C90.7445 17.0356 90.9567 16.9649 91.169 16.8589C91.4167 16.7528 91.6289 16.6468 91.8766 16.5408C92.6903 16.1873 93.4332 15.7986 94.2115 15.4098C94.353 15.3391 94.5299 15.2331 94.6715 15.1624C95.096 14.9503 95.4851 14.7382 95.8743 14.4908C95.9451 14.4555 96.0158 14.4202 96.0866 14.3848C102.49 10.8505 106.806 12.9357 108.186 16.7175Z" fill="#2CB6BF"/>
<path d="M65.591 8.72984C65.5202 8.83587 65.4494 8.9419 65.4141 9.04793" stroke="white" stroke-width="1.02487" stroke-miterlimit="10" stroke-linejoin="round"/>
<path d="M66.2279 7.77557C66.1571 7.8816 66.0864 7.98763 66.0156 8.09367C65.8741 8.30573 65.7326 8.48244 65.6265 8.6945" stroke="white" stroke-width="1.02487" stroke-miterlimit="10" stroke-linejoin="round"/>
<path d="M67.5723 6.2558C67.4662 6.36183 67.36 6.43252 67.2893 6.53855C67.0063 6.82129 66.7232 7.13939 66.4756 7.45748" stroke="white" stroke-width="1.02487" stroke-miterlimit="10" stroke-linejoin="round"/>
<path d="M68.8812 5.1248C68.7751 5.23083 68.6689 5.30152 68.5274 5.40755C68.3859 5.51358 68.3152 5.58427 68.209 5.6903C68.1029 5.79633 67.9968 5.86701 67.8906 5.97305" stroke="white" stroke-width="1.02487" stroke-miterlimit="10" stroke-linejoin="round"/>
<path d="M95.9102 14.5615C95.1673 12.5469 93.7875 8.97725 93.5045 9.04793L75.6385 6.00839L72.879 4.98343L72.8083 4.94809L71.1809 3.64038C71.0394 3.71107 70.8979 3.78175 70.7563 3.85244" stroke="white" stroke-width="1.02487" stroke-miterlimit="10" stroke-linejoin="round"/>
<path d="M94.2119 15.4805C94.3888 15.4098 94.5303 15.3037 94.6718 15.233" stroke="white" stroke-width="1.02487" stroke-miterlimit="10" stroke-linejoin="round"/>
<path d="M88.6221 17.9545C89.0466 17.7778 89.5065 17.6364 89.9311 17.4597C90.1433 17.3537 90.3556 17.283 90.5679 17.1769C90.7801 17.0709 90.9924 17.0002 91.2047 16.8942" stroke="white" stroke-width="1.02487" stroke-miterlimit="10" stroke-linejoin="round"/>
<path d="M87.4546 18.3786C87.6669 18.3079 87.9145 18.2019 88.1268 18.1312" stroke="white" stroke-width="1.02487" stroke-miterlimit="10" stroke-linejoin="round"/>
<path d="M86.252 18.8027C86.4288 18.7321 86.6057 18.6967 86.7472 18.626" stroke="white" stroke-width="1.02487" stroke-miterlimit="10" stroke-linejoin="round"/>
<path d="M83.2446 19.6863C83.4569 19.6157 83.7045 19.5803 83.9168 19.5096C84.1291 19.4389 84.3767 19.4036 84.589 19.3329C84.7659 19.2976 84.9428 19.2269 85.1197 19.1915" stroke="white" stroke-width="1.02487" stroke-miterlimit="10" stroke-linejoin="round"/>
<path d="M81.5112 20.0751C81.6527 20.0398 81.7943 20.0044 81.9711 19.9691" stroke="white" stroke-width="1.02487" stroke-miterlimit="10" stroke-linejoin="round"/>
<path d="M79.8838 20.3932C80.0961 20.3579 80.3437 20.3225 80.556 20.2872" stroke="white" stroke-width="1.02487" stroke-miterlimit="10" stroke-linejoin="round"/>
<path d="M78.5039 20.5699C78.7162 20.5346 78.9638 20.4992 79.1761 20.4639" stroke="white" stroke-width="1.02487" stroke-miterlimit="10" stroke-linejoin="round"/>
<path d="M77.1597 20.7113C77.3366 20.7113 77.5488 20.6759 77.7257 20.6759" stroke="white" stroke-width="1.02487" stroke-miterlimit="10" stroke-linejoin="round"/>
<path d="M75.2139 20.782C75.603 20.782 76.0276 20.782 76.4167 20.7466" stroke="white" stroke-width="1.02487" stroke-miterlimit="10" stroke-linejoin="round"/>
<path d="M68.8457 19.651C69.1287 19.757 69.4471 19.8984 69.7302 19.9691" stroke="white" stroke-width="1.02487" stroke-miterlimit="10" stroke-linejoin="round"/>
<path d="M108.186 16.7528C108.186 16.5054 107.939 9.96687 106.17 6.2558C104.365 2.47405 93.7519 -4.17053 72.9495 4.94809C72.9495 4.94809 72.9142 4.98344 72.8788 4.98344C72.1358 5.61962 64.6357 13.1124 70.4023 17.0002C76.4166 21.0294 86.9239 18.2372 91.8768 16.6114" stroke="white" stroke-width="1.02487" stroke-miterlimit="10" stroke-linejoin="round"/>
<path d="M81.4052 80.4771C81.4052 80.4771 81.4052 80.4418 81.4406 80.4418C81.7943 79.947 82.2543 79.2755 82.7849 78.4626C85.2614 74.7868 89.6483 68.2129 94.6012 60.7555C101.075 51.0007 107.337 28.6636 108.469 21.4535C108.54 21.0647 108.576 20.6759 108.611 20.3932C108.752 19.0855 108.576 17.8485 108.186 16.7528C106.842 12.9357 102.526 10.8858 96.1579 14.4555C96.0871 14.4908 96.0164 14.5262 95.9456 14.5615C95.5564 14.7736 95.1319 14.9856 94.7427 15.233C94.6012 15.3037 94.4243 15.4098 94.2828 15.4805C93.5399 15.8692 92.7616 16.2227 91.9479 16.6114C91.7356 16.7175 91.4879 16.8235 91.2403 16.9295C91.028 17.0356 90.8158 17.1063 90.6035 17.2123C90.3912 17.3183 90.179 17.389 89.9667 17.495C89.5422 17.6717 89.1176 17.8485 88.6577 17.9898C88.4808 18.0605 88.3393 18.1312 88.1624 18.1666C87.9501 18.2372 87.7025 18.3433 87.4902 18.414C87.278 18.4846 87.0303 18.5553 86.818 18.6614C86.6411 18.7321 86.4643 18.7674 86.3227 18.8381C85.9336 18.9795 85.5798 19.0855 85.1906 19.1915C85.0138 19.2622 84.8369 19.2975 84.66 19.3329C84.4477 19.4036 84.2001 19.4743 83.9878 19.5096C83.7755 19.5803 83.5279 19.651 83.3156 19.6863C82.8911 19.7924 82.4665 19.8984 82.042 20.0044C81.9005 20.0398 81.759 20.0751 81.5821 20.1105C81.2637 20.1811 80.9453 20.2518 80.6622 20.2872C80.45 20.3225 80.2023 20.3579 79.9901 20.3932C79.7424 20.4285 79.4948 20.4639 79.2471 20.4992C79.0348 20.5346 78.7872 20.5699 78.5749 20.6053C78.3273 20.6406 78.0796 20.6759 77.7966 20.6759C77.6197 20.7113 77.4075 20.7113 77.2306 20.7113C76.9829 20.7466 76.7353 20.7466 76.4876 20.7466C76.0985 20.782 75.6739 20.782 75.2848 20.782C73.339 20.782 71.4639 20.5346 69.8012 19.9691C69.4828 19.863 69.1997 19.757 68.9167 19.651C68.4922 19.4743 68.0676 19.2622 67.6431 19.0148C63.8576 16.8588 63.3623 12.759 65.4496 9.04794C65.5204 8.94191 65.5558 8.83587 65.6265 8.72984C65.6265 8.72984 65.6265 8.6945 65.6619 8.6945C65.8034 8.48244 65.9096 8.27038 66.0511 8.09366C66.1218 7.98763 66.1926 7.8816 66.2634 7.77557C66.3341 7.66954 66.4049 7.56351 66.511 7.45748C66.7586 7.13939 67.0417 6.8213 67.3247 6.53855C67.4308 6.43252 67.537 6.32649 67.6077 6.2558C67.7138 6.14977 67.82 6.04374 67.9261 5.97305C68.0323 5.86702 68.1384 5.79633 68.2445 5.6903C68.3507 5.58427 68.4568 5.51359 68.5629 5.40756C68.6691 5.30153 68.7752 5.23084 68.9167 5.12481C69.4828 4.66534 70.1196 4.24122 70.8271 3.88779C70.9686 3.8171 71.1101 3.74641 71.2517 3.67572C71.287 3.64038 71.3224 3.64038 71.3578 3.64038C71.3578 3.64038 48.6097 10.0376 32.1588 21.6302C21.8284 28.911 16.8401 33.4703 14.5405 35.8383" stroke="white" stroke-width="1.02487" stroke-miterlimit="10" stroke-linejoin="round"/>
<path d="M14.4695 35.803C12.4883 35.5909 11.2855 36.6512 11.2855 36.6512L0.565918 49.0214" stroke="white" stroke-width="1.02487" stroke-miterlimit="10" stroke-linejoin="round"/>
<path d="M73.5511 58.4228C73.445 58.3521 73.3742 58.2814 73.2681 58.2107" stroke="white" stroke-width="1.02487" stroke-miterlimit="10" stroke-linejoin="round"/>
<path d="M74.1186 58.848C74.0828 58.8121 74.047 58.8121 74.0112 58.7762" stroke="white" stroke-width="1.02487" stroke-miterlimit="10" stroke-linejoin="round"/>
<path d="M97.9622 35.9797C97.8561 36.0857 97.75 36.1918 97.6792 36.3331" stroke="white" stroke-width="1.02487" stroke-miterlimit="10" stroke-linejoin="round"/>
<path d="M102.597 32.8694C102.597 32.8341 102.561 32.8341 102.526 32.7988C102.455 32.7281 102.384 32.6927 102.349 32.6574C102.137 32.5514 101.889 32.5514 101.641 32.6574C101.535 32.6927 101.465 32.7281 101.358 32.7634" stroke="white" stroke-width="1.02487" stroke-miterlimit="10" stroke-linejoin="round"/>
<path d="M102.774 33.1171C102.738 33.0817 102.738 33.0463 102.703 33.0108" stroke="white" stroke-width="1.02487" stroke-miterlimit="10" stroke-linejoin="round"/>
<path d="M70.4023 93.5189C70.7207 93.2361 73.7279 90.4793 76.452 87.8993C78.4332 86.0614 80.2728 84.3296 80.9096 83.6934C81.5818 83.0219 81.6172 81.7495 81.4049 80.4418C81.1219 78.6746 80.4144 76.8014 80.1667 75.8471C79.7422 74.2213 80.2375 72.3481 81.2281 71.1464C82.2186 69.9094 89.365 61.5684 95.1316 52.6618C100.934 43.7552 103.729 35.1668 102.738 33.1875C102.738 33.1875 102.738 33.1522 102.703 33.1522" stroke="white" stroke-width="1.02487" stroke-miterlimit="10" stroke-linejoin="round"/>
<path d="M72.8436 57.822C72.9851 57.9633 73.1267 58.1047 73.2682 58.2107C73.3743 58.2814 73.4451 58.3521 73.5512 58.4228C73.7281 58.5642 73.8696 58.6702 73.9757 58.7409C74.0111 58.7762 74.0465 58.7762 74.0819 58.8116C75.214 59.5184 76.1692 58.9529 78.4334 57.0444C83.3863 52.8739 95.3795 38.8425 97.2192 36.7926C97.3607 36.6512 97.5022 36.4745 97.6437 36.3331C97.7498 36.2271 97.8206 36.1211 97.9267 35.9797C99.0234 34.7073 100.297 33.2582 101.323 32.7634C101.429 32.7281 101.5 32.6927 101.606 32.6574C101.854 32.5867 102.101 32.5514 102.314 32.6574C102.384 32.6927 102.455 32.7281 102.491 32.7988C102.526 32.8341 102.526 32.8341 102.561 32.8695C102.597 32.9048 102.632 32.9755 102.667 33.0108C102.703 33.0462 102.703 33.0815 102.738 33.1169C102.738 32.7988 102.667 32.5514 102.597 32.3746C101.606 30.3954 98.139 33.8591 96.2993 35.909C94.4597 37.9589 82.4665 52.0256 77.5135 56.1608C75.214 58.0694 74.2941 58.6349 73.162 57.928C73.0913 57.8926 72.9851 57.8573 72.8436 57.822ZM72.8436 57.822C71.6054 56.7263 69.8011 55.0652 68.2445 53.7928C65.6265 51.6368 55.5083 46.6888 41.2156 42.2001C26.8874 37.6762 16.4863 36.0504 14.5051 35.803C14.5051 35.803 14.5051 35.803 14.4697 35.803" stroke="white" stroke-width="1.02487" stroke-miterlimit="10" stroke-linejoin="round"/>
<path d="M70.4025 93.5542C67.0769 96.6645 55.579 92.812 42.383 88.5355C29.187 84.2942 20.5901 80.8306 18.2905 79.6289C15.9909 78.4272 13.7975 76.5894 13.1607 74.1153C12.3824 71.0758 13.7267 68.0716 12.2055 64.3605C10.6842 60.6848 3.64396 54.2169 2.26421 52.5558C2.26421 52.5558 -0.212258 50.011 0.495304 49.2688C0.530682 49.1981 0.601439 49.1628 0.672195 49.0921C1.41514 48.5266 2.97177 48.7387 8.27849 49.7636C14.0451 50.8593 20.4132 52.5911 28.3379 55.1359C36.2272 57.6806 50.6969 62.558 56.1805 66.6578C61.6641 70.7577 67.1477 74.5041 69.0581 78.1445C70.9331 81.7848 72.3129 91.6457 70.4025 93.5542ZM70.4025 93.5542C70.4025 93.5189 70.4025 93.5189 70.4025 93.5542Z" stroke="white" stroke-width="1.02487" stroke-miterlimit="10" stroke-linejoin="round"/>
<path d="M67.5014 80.0177C67.5368 80.1237 67.5722 80.2297 67.6075 80.3358C68.9165 83.8701 69.5179 90.0199 68.8811 91.5043C68.7396 91.8224 68.4212 92.1051 68.1028 92.2112C64.2466 93.2361 54.5884 90.1259 44.3995 86.839L42.949 86.3795C30.4959 82.3503 21.5806 78.816 19.2103 77.579C17.972 76.9428 15.7786 75.5644 15.2833 73.5851C15.0356 72.6309 15.071 71.5706 15.1418 70.3689C15.2125 68.4957 15.3187 66.1277 14.2219 63.5123C13.0191 60.6141 9.58741 56.9384 5.83733 53.1213C5.83733 53.1213 3.14859 50.9653 7.96001 51.9903C13.4082 53.1566 19.7055 54.7117 27.7364 57.2918C39.3758 61.0382 47.5835 64.2191 52.2888 66.7992" stroke="white" stroke-width="1.02487" stroke-miterlimit="10" stroke-linejoin="round"/>
<path d="M67.2539 79.4521C67.2893 79.5582 67.36 79.6289 67.3954 79.7349" stroke="white" stroke-width="1.02487" stroke-miterlimit="10" stroke-linejoin="round"/>
<path d="M54.4116 68.1069C54.4824 68.1776 54.5531 68.2129 54.6593 68.2836C54.7654 68.3543 54.8362 68.425 54.9423 68.4957" stroke="white" stroke-width="1.02487" stroke-miterlimit="10" stroke-linejoin="round"/>
<path d="M53.0669 67.2587C53.4207 67.4707 53.7391 67.6828 54.0575 67.8595C54.1282 67.9302 54.2344 67.9655 54.3051 68.0362" stroke="white" stroke-width="1.02487" stroke-miterlimit="10" stroke-linejoin="round"/>
<path d="M52.5011 34.6366C50.2369 34.0711 48.8218 32.9401 48.1496 31.7385C47.9374 31.385 47.5836 30.8549 47.8312 30.5014C48.1496 30.0773 48.7864 29.9006 49.2464 30.0066C49.7417 30.148 49.7417 30.6428 49.8832 30.9609C50.4138 31.9505 51.369 32.8341 53.2441 33.3996C55.013 33.9298 57.0649 33.8944 58.7985 33.5763C59.4706 33.4703 60.1074 33.2229 60.532 33.2936C61.0273 33.3996 61.1688 33.8591 60.7089 34.2125C60.249 34.5306 59.3645 34.672 58.7985 34.778C56.888 35.1314 54.5531 35.1668 52.5011 34.6366Z" stroke="white" stroke-width="1.02487" stroke-miterlimit="10" stroke-linejoin="round"/>
<path d="M54.624 32.6927C52.7843 32.304 51.6876 31.4204 51.1923 30.5368C51.0154 30.2187 50.8031 29.7592 51.0862 29.4411C51.4399 29.017 52.1121 28.8756 52.5367 29.0524C53.032 29.2644 52.9258 29.6885 53.1381 30.0066C53.5272 30.6075 54.2702 31.173 55.6499 31.4911C56.8174 31.7738 57.9849 31.6324 59.0462 31.4204C59.5769 31.3143 59.9661 31.173 60.426 31.3497C60.7444 31.4911 60.8505 31.7738 60.4967 32.1272C60.143 32.516 59.3293 32.6221 58.7632 32.7281C57.4896 32.9755 56.0391 33.0108 54.624 32.6927Z" stroke="white" stroke-width="1.02487" stroke-miterlimit="10" stroke-linejoin="round"/>
<path d="M56.2159 30.6428C55.0838 30.3954 54.4116 29.7946 54.1994 29.1937C54.1286 28.9817 54.0579 28.7343 54.1994 28.5575C54.5178 28.0981 55.2961 27.9214 55.7914 28.0981C56.1098 28.2394 56.0744 28.6282 56.2513 28.8403C56.6051 29.2998 57.5957 29.5825 58.4801 29.4765C59.0816 29.4058 59.5415 29.123 60.0721 29.3351C60.4613 29.5118 60.4967 29.9006 60.0368 30.2187C59.6122 30.5368 58.7985 30.6781 58.2325 30.7488C57.4895 30.8549 56.8527 30.7842 56.2159 30.6428Z" stroke="white" stroke-width="1.02487" stroke-miterlimit="10" stroke-linejoin="round"/>
<path d="M74.931 19.7923C68.846 19.6863 66.6879 16.9295 66.1219 15.9753C65.662 15.1977 65.5205 14.4555 65.7327 13.8546C65.8742 13.5012 66.1573 13.1831 66.4403 13.1124C66.4757 13.1124 66.511 13.0771 66.5818 13.0771C66.9002 13.0771 67.254 13.89 67.3601 14.4201C68.4922 18.6614 74.082 19.6156 74.1527 19.6156C74.365 19.7217 74.648 19.757 74.931 19.7923Z" stroke="white" stroke-width="1.02487" stroke-miterlimit="10" stroke-linejoin="round"/>
<path d="M67.2538 79.4522C67.2184 79.3461 67.183 79.2754 67.1123 79.1694C65.6971 76.448 61.4871 73.3377 57.0295 70.0508C56.3219 69.5206 55.6144 68.9905 54.9068 68.4603C54.8007 68.3897 54.7299 68.319 54.6238 68.2483C54.553 68.2129 54.4823 68.1423 54.3761 68.0716C54.3408 68.0362 54.3054 68.0362 54.27 68.0009C54.1992 67.9655 54.0931 67.8948 54.0224 67.8242C53.704 67.6121 53.3855 67.4354 53.0318 67.2233C52.7841 67.0819 52.5011 66.9406 52.2181 66.7639L23.5972 57.5039C21.5452 56.903 20.3424 58.1754 20.9084 60.296L21.2622 61.639C21.8283 63.795 23.9863 66.0216 26.0383 66.6225L67.5722 80.3004C67.5368 80.1944 67.5014 80.0883 67.466 79.9823C67.4307 79.8763 67.3953 79.7703 67.3599 79.6642C67.3245 79.6289 67.2892 79.5229 67.2538 79.4522Z" stroke="white" stroke-width="1.02487" stroke-miterlimit="10" stroke-linejoin="round"/>
<path d="M76.4873 87.8993L80.0605 132.892L80.6973 140.985C80.6973 140.985 80.7327 141.127 80.8034 141.339C81.2987 142.717 82.4308 143.813 83.8106 144.272C85.8625 144.944 89.7187 145.898 92.8674 144.626" stroke="white" stroke-width="1.02487" stroke-miterlimit="10" stroke-linejoin="round"/>
<path d="M80.0605 132.892C79.9189 132.892 67.9611 139.218 64.5295 144.802C63.9988 145.651 63.8573 146.605 64.0342 147.488C64.3172 149.079 65.5908 150.422 67.3951 150.599L78.3623 151.906C83.1737 152.472 87.9852 150.563 91.0984 146.852L91.8768 145.933C92.2305 145.509 92.5843 145.085 92.9027 144.626C96.1221 140.349 98.1741 135.26 98.7401 129.923C98.9524 127.943 99.0939 125.964 99.0939 124.338C98.634 113.099 93.9287 100.482 91.7706 95.5688C90.1078 91.8224 84.9073 81.6788 82.7846 78.4625" stroke="white" stroke-width="1.02487" stroke-miterlimit="10" stroke-linejoin="round"/>
<path d="M63.9634 147.488V153.815C63.9634 155.688 65.3431 157.314 67.2182 157.561L81.051 159.505C88.5866 160.565 98.2448 155.653 105.214 138.582C106.346 135.79 106.736 132.75 106.771 129.746L108.469 21.4182" stroke="white" stroke-width="1.02487" stroke-miterlimit="10" stroke-linejoin="round"/>
</g>
<defs>
<clipPath id="clip0_9_2365">
<rect width="109" height="160" fill="white"/>
</clipPath>
</defs>
</svg>
