<svg width="155" height="153" viewBox="0 0 155 153" fill="none" xmlns="http://www.w3.org/2000/svg">
<g clip-path="url(#clip0_9_2307)">
<path d="M111.984 146.124L119.702 146.829L111.984 152.647V146.124Z" fill="#2CB6BF"/>
<path d="M149.087 98.274V110.475L132.518 130.327V117.879L149.087 98.274Z" fill="#2CB6BF"/>
<path d="M35.5461 88.1187C35.5461 88.7886 34.9796 89.3528 34.2715 89.2823L28.3236 88.6123C27.7571 88.5418 27.2969 88.0482 27.2969 87.484V85.5093C27.2969 84.8394 27.8987 84.3104 28.5714 84.381L34.5194 85.0509C35.0858 85.1214 35.5107 85.5798 35.5461 86.144V88.1187Z" fill="#2CB6BF"/>
<path d="M149.087 50.424V88.4008L132.518 108.394L132.553 70.2763L149.087 50.424Z" fill="#2CB6BF"/>
<path d="M116.197 80.1143V81.7716L114.604 81.6305C114.922 81.0311 115.276 80.5374 115.63 80.1143L70.5254 76.2708L116.197 80.1143Z" fill="#2CB6BF"/>
<path d="M116.197 81.7716V83.1468L113.966 82.9705C114.179 82.4768 114.391 82.0184 114.604 81.6306L116.197 81.7716Z" fill="#2CB6BF"/>
<path d="M116.197 83.1821V93.6195L111.382 93.1963C112.055 89.0707 112.904 85.4741 113.966 82.9705L116.197 83.1821Z" fill="#2CB6BF"/>
<path d="M103.947 98.5561L103.699 100.319L95.6621 99.6845L95.9453 97.9214L103.947 98.5561Z" fill="#2CB6BF"/>
<path d="M105.434 91.9622V93.7605L95.8394 92.9143V91.1512L105.434 91.9622Z" fill="#2CB6BF"/>
<path d="M103.168 105.079L102.92 106.878L67.7993 103.211L68.0826 101.412L103.168 105.079Z" fill="#2CB6BF"/>
<path d="M87.0591 96.8988L86.7405 98.6619L69.0029 96.9341L69.2862 95.1357L87.0591 96.8988Z" fill="#2CB6BF"/>
<path d="M88.0859 90.4812V92.2443L70.3838 90.6223V88.8592L88.0859 90.4812Z" fill="#2CB6BF"/>
<path d="M36.502 123.345V129.763C36.502 131.279 35.2629 132.513 33.7405 132.513L12.2147 130.644C10.6923 130.468 9.45312 129.41 9.45312 127.894V121.511C9.45312 119.995 10.6923 118.761 12.2147 118.761L33.7405 120.63C35.2629 120.595 36.502 121.829 36.502 123.345Z" fill="#2CB6BF"/>
<path d="M111.984 146.124V152.647L9.45312 143.656V136.85L111.984 146.124Z" fill="#2CB6BF"/>
<path d="M67.5867 76.024V77.2934C67.3034 77.787 67.0202 78.3512 66.737 78.9859L63.0195 78.6686V75.6008L67.5867 76.024Z" fill="#2CB6BF"/>
<path d="M125.685 65.8334V147.358L119.737 146.829L111.984 146.124L9.45291 136.85L0.354004 136.039V101.412L40.113 105.221V58.5342L125.685 65.8334ZM116.197 83.1821V80.1143V76.5176V68.1959L57.2487 63.224V88.6829L63.9401 89.2471H63.9755C60.6829 107.301 60.3289 136.039 60.3289 136.039L108.62 140.412C108.62 140.412 108.373 111.356 111.382 93.2316L116.197 93.6548V83.1821ZM36.5018 129.763V123.38C36.5018 121.864 35.2626 120.63 33.7403 120.63L12.2144 118.761C10.6921 118.761 9.45291 119.995 9.45291 121.511V127.894C9.45291 129.41 10.6921 130.468 12.2144 130.644L33.7403 132.513C35.2626 132.478 36.5018 131.244 36.5018 129.763Z" fill="#2CB6BF"/>
<path d="M67.5865 77.2934L114.603 81.6306C114.391 82.0537 114.179 82.4769 113.966 82.9705L66.7368 78.986C66.9846 78.3512 67.2679 77.7871 67.5865 77.2934Z" fill="#2CB6BF"/>
<path d="M116.197 68.1959V76.5176L67.5868 72.0394V76.024L63.0197 75.6361V78.7038L66.7371 79.0212C65.6396 81.56 64.7545 85.1214 64.011 89.247H63.9756L57.2842 88.6829V63.224L116.197 68.1959Z" fill="#2CB6BF"/>
<path d="M116.197 76.5176V80.1143L70.5255 76.2708L68.4366 76.0945L67.5869 76.024V72.0042L116.197 76.5176Z" fill="#2CB6BF"/>
<path d="M70.5255 76.2708L115.631 80.1143C115.277 80.5022 114.922 81.0311 114.604 81.6305L67.5869 77.2934C67.8701 76.835 68.1534 76.4118 68.4366 76.0945L70.5255 76.2708Z" fill="#2CB6BF"/>
<path d="M154.646 10.6137V30.7128L125.756 65.8686L125.685 65.8334V44.5706L154.646 10.6137Z" fill="#2CB6BF"/>
<path d="M154.646 45.7343V111.779L125.685 147.358V65.8334H125.756L154.646 30.6776V45.7343ZM149.087 110.475V98.274L132.518 117.879V130.327L149.087 110.475ZM149.087 88.4008V50.4241L132.518 70.2763L132.483 108.394L149.087 88.4008Z" fill="#2CB6BF"/>
<path d="M125.685 44.5706V65.8334L40.113 58.5342V50.2125L0.354004 46.3337V33.2517L125.685 44.5706Z" fill="#2CB6BF"/>
<path d="M11.3647 85.7209C11.3647 86.3909 10.7982 86.9551 10.0901 86.8845L4.1068 86.2146C3.54033 86.1441 3.08008 85.6504 3.08008 85.0862V83.1116C3.08008 82.4416 3.68195 81.9127 4.35463 81.9832L10.3026 82.6532C10.869 82.7237 11.2939 83.1821 11.3293 83.7463L11.3647 85.7209Z" fill="#2CB6BF"/>
<path d="M31.4035 63.7529V66.5386C31.4035 67.8433 30.3414 68.8659 29.0314 68.8659L9.7715 66.7149C8.46154 66.7149 7.39941 65.6571 7.39941 64.3524V61.5667C7.39941 60.262 8.46154 59.2042 9.7715 59.2042L29.0314 61.3552C30.3414 61.3904 31.4035 62.4483 31.4035 63.7529Z" fill="#2CB6BF"/>
<path d="M25.1724 81.0311V86.6729C25.1724 88.4008 23.65 89.776 21.9152 89.5644L16.2151 88.9297C14.7282 88.7534 13.5952 87.5192 13.5952 86.0382V80.3964C13.5952 78.6686 15.1176 77.2934 16.8524 77.5049L22.5525 78.1396C24.0395 78.2807 25.1724 79.5501 25.1724 81.0311Z" fill="#2CB6BF"/>
<path d="M40.113 58.5342V105.221L0.354004 101.412V56.5243V46.3337L40.113 50.2125V58.5342ZM34.3067 89.2823C34.9794 89.3528 35.5813 88.8239 35.5813 88.1187L35.5459 86.144C35.5459 85.5799 35.0856 85.1214 34.5191 85.0509L28.5712 84.381C27.8985 84.3104 27.2967 84.8394 27.2967 85.5093V87.484C27.2967 88.0482 27.7215 88.5418 28.3234 88.6123L34.3067 89.2823ZM31.4036 66.5033V63.7177C31.4036 62.413 30.3414 61.3904 29.0315 61.3904L9.77155 59.2395C8.46159 59.2395 7.39946 60.2973 7.39946 61.602V64.3876C7.39946 65.6923 8.46159 66.7502 9.77155 66.7502L29.0315 68.9011C30.3414 68.8659 31.4036 67.808 31.4036 66.5033ZM25.1724 86.673V81.0311C25.1724 79.5501 24.0395 78.2807 22.5525 78.1397L16.8524 77.5049C15.1176 77.3286 13.5952 78.6686 13.5952 80.3964V86.0382C13.5952 87.5192 14.7281 88.7887 16.2151 88.9297L21.9152 89.5644C23.65 89.7407 25.1724 88.4008 25.1724 86.673ZM10.0902 86.8845C10.7629 86.9551 11.3647 86.4261 11.3647 85.7209L11.3293 83.7463C11.3293 83.1821 10.8691 82.7237 10.3026 82.6531L4.35469 81.9832C3.68201 81.9126 3.08013 82.4416 3.08013 83.1115V85.0862C3.08013 85.6504 3.50499 86.144 4.10686 86.2146L10.0902 86.8845Z" fill="#2CB6BF"/>
<path d="M154.646 10.6137L125.685 44.5706L0.354004 33.2517L35.121 0.352615L154.646 10.6137Z" fill="#2CB6BF"/>
<path d="M111.382 93.2316C108.408 111.391 108.621 140.412 108.621 140.412L60.3291 136.039C60.3291 136.039 60.7185 107.301 63.9757 89.2471C64.7192 85.1215 65.6397 81.56 66.7019 79.0212L113.931 83.0058C112.904 85.5093 112.055 89.0708 111.382 93.2316ZM105.434 93.7605V91.9975L95.8396 91.1865V92.9495L105.434 93.7605ZM103.699 100.319L103.947 98.5209L95.9458 97.8862L95.6272 99.6492L103.699 100.319ZM102.92 106.878L103.133 105.115L68.0472 101.448L67.764 103.211L102.92 106.878ZM88.0861 92.2443V90.4812L70.3485 88.8592V90.6223L88.0861 92.2443ZM86.7407 98.6619L87.0593 96.8988L69.2864 95.171L69.0032 96.9341L86.7407 98.6619Z" fill="#2CB6BF"/>
<path d="M125.685 44.5706V65.8334V147.358L119.702 146.829L111.984 146.124L9.45291 136.85L0.354004 136.039V101.412V56.5243V46.3337V33.2517L125.685 44.5706Z" stroke="white" stroke-width="1.02487" stroke-miterlimit="10" stroke-linejoin="round"/>
<path d="M116.197 81.7716V83.1821V93.6195L111.382 93.2316L111.311 93.1964" stroke="white" stroke-width="1.02487" stroke-miterlimit="10" stroke-linejoin="round"/>
<path d="M63.94 89.2118L57.2485 88.6476V63.1888L116.197 68.1959V76.5176" stroke="white" stroke-width="1.02487" stroke-miterlimit="10" stroke-linejoin="round"/>
<path d="M67.5869 77.2934V76.024V72.0042L116.197 76.5176V80.1143V81.7716L114.604 81.6306L67.5869 77.2934Z" stroke="white" stroke-width="1.02487" stroke-miterlimit="10" stroke-linejoin="round"/>
<path d="M67.5867 76.024L63.0195 75.6361V78.6686L66.737 78.9859L113.966 82.9705L116.197 83.1821V80.1143L70.5252 76.2708L68.4364 76.0945L67.5867 76.024Z" stroke="white" stroke-width="1.02487" stroke-miterlimit="10" stroke-linejoin="round"/>
<path d="M111.382 93.2316C108.408 111.391 108.621 140.412 108.621 140.412L60.3291 136.039C60.3291 136.039 60.7185 107.301 63.9757 89.2471C64.7192 85.1215 65.6397 81.56 66.7019 79.0212C66.9851 78.3865 67.2683 77.8223 67.5516 77.3287C67.8348 76.8703 68.118 76.4471 68.4013 76.1298L70.4901 76.3061L115.595 80.1496C115.241 80.5375 114.887 81.0664 114.568 81.6658C114.356 82.089 114.144 82.5121 113.931 83.0058C112.904 85.5093 112.055 89.0708 111.382 93.2316Z" stroke="white" stroke-width="1.02487" stroke-miterlimit="10" stroke-linejoin="round"/>
<path d="M36.502 129.763C36.502 131.279 35.2629 132.513 33.7405 132.513L12.2147 130.644C10.6923 130.468 9.45312 129.41 9.45312 127.894V121.511C9.45312 119.995 10.6923 118.761 12.2147 118.761L33.7405 120.63C35.2629 120.63 36.502 121.864 36.502 123.38V129.763Z" stroke="white" stroke-width="1.02487" stroke-miterlimit="10" stroke-linejoin="round"/>
<path d="M31.4035 66.5033C31.4035 67.808 30.3414 68.8306 29.0314 68.8306L9.7715 66.6796C8.46154 66.6796 7.39941 65.6218 7.39941 64.3171V61.5314C7.39941 60.2268 8.46154 59.1689 9.7715 59.1689L29.0314 61.3199C30.3414 61.3199 31.4035 62.3777 31.4035 63.6471V66.5033Z" stroke="white" stroke-width="1.02487" stroke-miterlimit="10" stroke-linejoin="round"/>
<path d="M102.92 106.878L67.7993 103.211L68.0826 101.412L103.168 105.079L102.92 106.878Z" stroke="white" stroke-width="1.02487" stroke-miterlimit="10" stroke-linejoin="round"/>
<path d="M88.0859 92.2443L70.3838 90.6223V88.8592L88.0859 90.4812V92.2443Z" stroke="white" stroke-width="1.02487" stroke-miterlimit="10" stroke-linejoin="round"/>
<path d="M105.434 93.7605L95.8394 92.9143V91.1512L105.434 91.9622V93.7605Z" stroke="white" stroke-width="1.02487" stroke-miterlimit="10" stroke-linejoin="round"/>
<path d="M86.7405 98.6619L69.0029 96.9341L69.2862 95.1357L87.0591 96.8988L86.7405 98.6619Z" stroke="white" stroke-width="1.02487" stroke-miterlimit="10" stroke-linejoin="round"/>
<path d="M103.699 100.319L95.6621 99.6845L95.9453 97.9214L103.947 98.5561L103.699 100.319Z" stroke="white" stroke-width="1.02487" stroke-miterlimit="10" stroke-linejoin="round"/>
<path d="M132.553 70.2763L149.087 50.424V88.4008L132.518 108.394L132.553 70.2763Z" stroke="white" stroke-width="1.02487" stroke-miterlimit="10" stroke-linejoin="round"/>
<path d="M21.9152 89.5644L16.2151 88.9297C14.7282 88.7534 13.5952 87.5192 13.5952 86.0382V80.3964C13.5952 78.6686 15.1176 77.2934 16.8524 77.5049L22.5525 78.1396C24.0395 78.316 25.1724 79.5501 25.1724 81.0311V86.6729C25.1724 88.4008 23.65 89.7407 21.9152 89.5644Z" stroke="white" stroke-width="1.02487" stroke-miterlimit="10" stroke-linejoin="round"/>
<path d="M40.1128 58.5342L125.685 65.8334L125.756 65.8686L154.646 30.7128" stroke="white" stroke-width="1.02487" stroke-miterlimit="10" stroke-linejoin="round"/>
<path d="M0.354004 46.3337L40.113 50.2125V58.5342V105.221L0.354004 101.412" stroke="white" stroke-width="1.02487" stroke-miterlimit="10" stroke-linejoin="round"/>
<path d="M125.685 44.5706L154.646 10.6137V30.7128V45.7343V111.779L125.685 147.358" stroke="white" stroke-width="1.02487" stroke-miterlimit="10" stroke-linejoin="round"/>
<path d="M9.45312 136.85V143.656L111.984 152.647V146.124" stroke="white" stroke-width="1.02487" stroke-miterlimit="10" stroke-linejoin="round"/>
<path d="M111.984 152.647L119.702 146.829" stroke="white" stroke-width="1.02487" stroke-miterlimit="10" stroke-linejoin="round"/>
<path d="M0.354004 33.2517L35.121 0.352615L154.646 10.6137" stroke="white" stroke-width="1.02487" stroke-miterlimit="10" stroke-linejoin="round"/>
<path d="M34.3069 89.2823L28.3236 88.6123C27.7571 88.5418 27.2969 88.0482 27.2969 87.484V85.5093C27.2969 84.8394 27.8987 84.3104 28.5714 84.381L34.5194 85.0509C35.0858 85.1214 35.5107 85.5798 35.5461 86.144L35.5815 88.1187C35.5815 88.8239 34.9796 89.3528 34.3069 89.2823Z" stroke="white" stroke-width="1.02487" stroke-miterlimit="10" stroke-linejoin="round"/>
<path d="M10.0901 86.8845L4.1068 86.2146C3.54033 86.1441 3.08008 85.6504 3.08008 85.0862V83.1116C3.08008 82.4416 3.68195 81.9127 4.35463 81.9832L10.3026 82.6532C10.869 82.7237 11.2939 83.1821 11.3293 83.7463L11.3647 85.7209C11.3647 86.4261 10.7628 86.9551 10.0901 86.8845Z" stroke="white" stroke-width="1.02487" stroke-miterlimit="10" stroke-linejoin="round"/>
<path d="M132.518 130.327V117.879L149.087 98.274V110.475L132.518 130.327Z" stroke="white" stroke-width="1.02487" stroke-miterlimit="10" stroke-linejoin="round"/>
</g>
<defs>
<clipPath id="clip0_9_2307">
<rect width="155" height="153" fill="white"/>
</clipPath>
</defs>
</svg>
