<svg width="224" height="311" viewBox="0 0 224 311" fill="none" xmlns="http://www.w3.org/2000/svg">
<path d="M1.63931 274.419C1.85315 276.771 13.7565 294.376 14.8257 296.301C15.9661 298.154 17.5342 299.722 19.4587 300.934C21.3832 302.074 23.7354 302.858 26.3014 303.144L94.3714 309.416C97.0087 309.63 99.7885 309.345 102.426 308.632C105.134 307.848 107.772 306.707 110.195 305.139C112.618 303.571 114.899 301.647 116.824 299.508C118.748 297.37 120.316 294.875 121.386 292.309L136.568 255.388C137.637 252.822 138.706 249.828 139.775 246.62C140.844 243.484 141.842 240.063 142.769 236.713C143.696 233.363 144.48 230.013 145.192 226.877C145.834 223.74 146.404 220.818 146.689 218.323C146.974 215.829 147.687 212.977 148.685 209.984C149.683 206.99 150.966 203.783 152.391 200.646C153.888 197.51 155.528 194.374 157.31 191.452C159.091 188.529 160.945 185.821 162.869 183.54L163.439 182.827C165.364 180.546 167.36 177.838 169.355 174.915C171.351 171.993 173.347 168.785 175.271 165.649C177.125 162.442 178.907 159.234 180.475 156.169C181.972 153.104 183.326 150.182 184.252 147.616L221.887 46.5443C222.814 44.0496 223.17 41.5549 223.027 39.274C222.885 36.9931 222.243 34.8548 221.174 33.0016C220.105 31.1484 210.411 13.8279 208.487 12.6162" stroke="#1C7DAF" stroke-width="1.42555" stroke-miterlimit="10" stroke-linejoin="round"/>
<path d="M155.67 2.06706C153.96 1.92451 152.249 1.85323 150.538 1.78195C148.828 1.71068 147.188 1.56812 145.549 1.49684C143.909 1.42557 142.341 1.35429 140.844 1.28301C139.348 1.21173 137.922 1.21173 136.639 1.14046L112.405 0.71279C109.767 0.641513 107.059 1.14046 104.493 1.99579C101.856 2.85112 99.2896 4.13411 96.9375 5.7735C94.5853 7.41288 92.447 9.33738 90.665 11.4757C88.8831 13.614 87.4575 15.9662 86.4596 18.4609L48.3261 118.463C47.3283 120.958 46.4729 123.88 45.6889 127.017C44.9048 130.082 44.192 133.36 43.6218 136.639C43.0516 139.918 42.6239 143.125 42.3388 146.19C42.0537 149.255 41.9824 152.035 42.0537 154.53V155.243C42.125 157.666 41.9824 160.446 41.4835 163.439C40.9846 166.433 40.2718 169.641 39.3452 172.777C38.4186 175.984 37.2781 179.121 35.9951 182.114C34.7121 185.108 33.2866 187.888 31.7897 190.24C30.2929 192.592 28.6535 195.443 27.0142 198.437C25.3748 201.43 23.7354 204.709 22.1673 207.988C20.5992 211.267 19.1023 214.546 17.7481 217.682C16.3938 220.818 15.2534 223.74 14.398 226.306L1.78189 263.014C0.855281 265.58 0.570171 268.146 0.784004 270.498C0.997836 272.851 1.63933 274.989 2.77978 276.842C3.92022 278.695 5.48832 280.263 7.41282 281.475C9.33731 282.616 11.6895 283.4 14.2555 283.685L82.3255 289.957C84.9628 290.242 87.7426 289.886 90.3799 289.173C93.0885 288.46 95.7257 287.249 98.1492 285.681C100.573 284.112 102.853 282.188 104.778 280.05C106.702 277.84 108.271 275.417 109.34 272.851L124.522 235.929C125.591 233.363 126.66 230.369 127.729 227.162C128.799 223.954 129.796 220.604 130.723 217.254C131.65 213.904 132.434 210.554 133.146 207.418C133.788 204.282 134.358 201.359 134.643 198.864C135 196.37 135.641 193.519 136.639 190.454C137.637 187.46 138.92 184.253 140.345 181.116C141.842 177.98 143.482 174.844 145.264 171.922C147.046 168.999 148.899 166.291 150.823 164.01L151.394 163.297C153.318 161.016 155.314 158.307 157.31 155.385C159.305 152.463 161.301 149.255 163.226 146.119C165.079 142.912 166.861 139.704 168.429 136.639C169.926 133.574 171.28 130.652 172.207 128.086L209.841 27.0142C210.768 24.5195 211.124 22.0248 210.982 19.7439C210.839 17.463 210.197 15.3247 209.128 13.4715C208.059 11.6183 206.562 10.0502 204.638 8.83843C202.785 7.62671 200.504 6.84266 197.938 6.55755L174.416 3.77773C173.133 3.63517 171.779 3.49262 170.282 3.35006C168.785 3.2075 167.288 3.06495 165.649 2.92239C164.081 2.77984 162.37 2.63728 160.731 2.49473C159.091 2.2809 157.381 2.13834 155.67 2.06706Z" stroke="#1C7DAF" stroke-width="1.42555" stroke-miterlimit="10" stroke-linejoin="round"/>
<path d="M141.7 21.2408C135.926 20.8131 130.651 20.5993 125.876 20.3854C121.172 20.1716 116.966 20.1003 113.545 20.029C110.124 19.9578 107.415 19.9578 105.562 20.029C103.709 20.029 102.711 20.1003 102.711 20.1003C102.283 20.1003 101.784 20.2429 101.356 20.3854C100.929 20.528 100.501 20.7418 100.073 21.0982C99.6457 21.3833 99.2894 21.7397 99.0042 22.0961C98.7191 22.4525 98.434 22.8801 98.2915 23.3078L59.8729 122.74L149.326 129.797L187.46 29.5802C187.602 29.1526 187.674 28.7249 187.674 28.3685C187.674 28.0121 187.531 27.5845 187.388 27.2994C187.246 26.943 186.961 26.7291 186.676 26.444C186.391 26.2302 186.034 26.0876 185.606 26.0164C185.606 26.0164 184.68 25.8738 182.898 25.5887C181.116 25.3036 178.55 24.9472 175.2 24.5195C171.921 24.0919 167.858 23.5929 163.225 23.1653C158.592 22.595 147.473 21.6684 141.7 21.2408Z" fill="white" stroke="#1C7DAF" stroke-width="1.42555" stroke-miterlimit="10" stroke-linejoin="round"/>
<path d="M82.0001 66.5L138 70.5L131.5 85" stroke="#2CB6BF" stroke-width="1.42555" stroke-miterlimit="10" stroke-linejoin="round"/>
<path d="M87.5001 52L112.5 54L115 47.5" stroke="#2CB6BF" stroke-width="1.42555" stroke-miterlimit="10" stroke-linejoin="round"/>
<ellipse cx="128.625" cy="91.9806" rx="2.38476" ry="2.89769" transform="rotate(22.4479 128.625 91.9806)" fill="#2CB6BF" stroke="#2CB6BF" stroke-width="1.42555" stroke-miterlimit="10" stroke-linejoin="round"/>
<ellipse cx="151.57" cy="57.954" rx="2.06776" ry="2.51251" transform="rotate(22.4479 151.57 57.954)" fill="#2CB6BF" stroke="#2CB6BF" stroke-width="1.42555" stroke-miterlimit="10" stroke-linejoin="round"/>
<path d="M145.5 76L168.5 78.5" stroke="#2CB6BF" stroke-width="1.42555" stroke-miterlimit="10" stroke-linejoin="round"/>
<path d="M143 82L166 84.5" stroke="#2CB6BF" stroke-width="1.42555" stroke-miterlimit="10" stroke-linejoin="round"/>
<path d="M97.0001 126L110.5 87.5" stroke="#2CB6BF" stroke-width="1.42555" stroke-miterlimit="10" stroke-linejoin="round"/>
<path d="M103 126L116.5 87.5" stroke="#2CB6BF" stroke-width="1.42555" stroke-miterlimit="10" stroke-linejoin="round"/>
<path d="M141.7 21.2408C135.926 20.8131 130.651 20.5993 125.876 20.3854C121.172 20.1716 116.966 20.1003 113.545 20.029C110.124 19.9578 107.415 19.9578 105.562 20.029C103.709 20.029 102.711 20.1003 102.711 20.1003C102.283 20.1003 101.784 20.2429 101.356 20.3854C100.929 20.528 100.501 20.7418 100.073 21.0982C99.6457 21.3833 99.2894 21.7397 99.0042 22.0961C98.7191 22.4525 98.434 22.8801 98.2915 23.3078L59.8729 122.74L149.326 129.797L187.46 29.5802C187.602 29.1526 187.674 28.7249 187.674 28.3685C187.674 28.0121 187.531 27.5845 187.388 27.2994C187.246 26.943 186.961 26.7291 186.676 26.444C186.391 26.2302 186.034 26.0876 185.606 26.0164C185.606 26.0164 184.68 25.8738 182.898 25.5887C181.116 25.3036 178.55 24.9472 175.2 24.5195C171.921 24.0919 167.858 23.5929 163.225 23.1653C158.592 22.595 147.473 21.6684 141.7 21.2408Z" stroke="#1C7DAF" stroke-width="1.42555" stroke-miterlimit="10" stroke-linejoin="round"/>
<path d="M120.174 183.825L55.5965 178.479C53.8858 178.336 52.0326 178.55 50.1794 179.049C48.3261 179.548 46.4729 180.332 44.7623 181.33C43.0516 182.328 41.4122 183.54 39.9154 184.965C38.4898 186.319 37.2781 187.888 36.3515 189.598L32.0749 197.367C31.1482 199.007 30.1504 201.003 29.1525 203.07C28.1546 205.137 27.0854 207.346 26.1588 209.627C25.1609 211.837 24.2343 214.118 23.379 216.185C22.5237 218.323 21.8109 220.248 21.2407 221.958L7.34154 263.37C6.77132 265.081 6.55748 266.792 6.70004 268.36C6.84259 269.928 7.34154 271.354 8.05431 272.637C8.83837 273.92 9.83625 274.917 11.1905 275.702C12.4735 276.486 14.0416 276.984 15.7523 277.127L85.3192 283.542C87.1011 283.685 88.8831 283.471 90.7363 282.972C92.5182 282.473 94.3002 281.689 95.9396 280.62C97.5789 279.551 99.0758 278.339 100.359 276.842C101.642 275.416 102.711 273.777 103.424 272.066L120.887 230.512C121.599 228.801 122.384 226.805 123.168 224.667C123.952 222.528 124.664 220.248 125.377 217.967C126.09 215.686 126.731 213.405 127.302 211.267C127.872 209.128 128.371 207.132 128.727 205.422L130.367 197.51C130.723 195.799 130.723 194.089 130.367 192.592C130.01 191.024 129.369 189.598 128.442 188.386C127.516 187.175 126.304 186.106 124.95 185.393C123.524 184.466 121.885 183.967 120.174 183.825Z" stroke="#1C7DAF" stroke-width="1.42555" stroke-miterlimit="10" stroke-linejoin="round"/>
<path d="M49.8226 263.727L42.98 263.086C42.2672 263.014 41.5544 263.086 40.8417 263.299C40.1289 263.513 39.4161 263.798 38.7746 264.226C38.1331 264.654 37.5629 265.153 37.0639 265.723C36.565 266.293 36.1373 267.006 35.9235 267.647L35.4246 268.859C35.1395 269.572 35.0682 270.285 35.0682 270.926C35.0682 271.568 35.282 272.138 35.5671 272.637C35.8522 273.136 36.2799 273.563 36.7788 273.92C37.2778 274.205 37.9193 274.419 38.6321 274.49L45.4747 275.131C46.1875 275.203 46.9003 275.131 47.613 274.918C48.3258 274.704 49.0386 274.419 49.6801 273.991C50.3216 273.563 50.8918 273.064 51.3907 272.423C51.8897 271.853 52.3173 271.14 52.5312 270.498L53.0301 269.215C53.3152 268.503 53.3865 267.861 53.3865 267.22C53.3865 266.578 53.1727 266.008 52.8876 265.509C52.6025 265.01 52.1748 264.582 51.6758 264.226C51.1769 264.012 50.5354 263.798 49.8226 263.727Z" fill="white" stroke="#1C7DAF" stroke-width="1.42555" stroke-miterlimit="10" stroke-linejoin="round"/>
<path d="M92.0188 266.578H91.9475H91.8762H91.805H91.7337L84.6772 266.436C83.9644 266.436 83.1804 266.578 82.3963 266.792C81.6835 267.006 80.8995 267.433 80.258 267.861C79.6165 268.289 78.975 268.859 78.476 269.5C77.9771 270.142 77.5494 270.783 77.2643 271.496L76.7654 272.779C76.4803 273.492 76.409 274.205 76.409 274.846C76.409 275.488 76.6228 276.058 76.9079 276.557C77.1931 277.056 77.6207 277.484 78.1197 277.769C78.6186 278.054 79.2601 278.268 79.9729 278.339H80.0442H80.1154C80.1867 278.339 80.1867 278.339 80.1867 278.339C80.258 278.339 80.258 278.339 80.258 278.339L87.3145 278.481C88.0272 278.481 88.8113 278.339 89.5953 278.125C90.3081 277.911 91.0922 277.484 91.7337 277.056C92.3752 276.628 93.0167 276.058 93.5156 275.417C94.0146 274.775 94.4422 274.134 94.7273 273.421L95.155 272.209C95.4401 271.496 95.5114 270.783 95.5114 270.142C95.5114 269.5 95.2976 268.93 95.0124 268.431C94.7273 267.932 94.2997 267.505 93.8007 267.22C93.3731 266.863 92.7316 266.649 92.0188 266.578Z" fill="white" stroke="#1C7DAF" stroke-width="1.42555" stroke-miterlimit="10" stroke-linejoin="round"/>
<path d="M23.023 260.377C22.3102 260.306 21.5974 260.377 20.8846 260.591C20.1719 260.805 19.4591 261.09 18.8889 261.517C18.2474 261.945 17.6771 262.444 17.1782 263.014C16.6793 263.584 16.3229 264.226 16.0378 264.939L15.5388 266.15C15.2537 266.863 15.1824 267.576 15.1824 268.217C15.1824 268.859 15.3963 269.5 15.6101 270.071C15.8952 270.641 16.3229 271.068 16.8218 271.425C17.3208 271.781 17.9623 272.066 18.6038 272.138L25.2326 273.278H25.3038H25.3751H25.4464H25.5177C26.2305 273.349 26.9432 273.278 27.656 273.064C28.3688 272.85 29.0816 272.565 29.7231 272.138C30.3646 271.71 30.9348 271.211 31.4337 270.641C31.9327 270.071 32.2891 269.429 32.5742 268.716L33.0731 267.505C33.3582 266.792 33.4295 266.079 33.4295 265.438C33.4295 264.796 33.2157 264.155 33.0018 263.584C32.7167 263.014 32.289 262.586 31.7901 262.23C31.2912 261.874 30.6497 261.589 30.0082 261.517L23.3794 260.448H23.3081C23.2368 260.448 23.2368 260.448 23.2368 260.448H23.1655C23.0942 260.377 23.0942 260.377 23.023 260.377Z" fill="white" stroke="#1C7DAF" stroke-width="1.42555" stroke-miterlimit="10" stroke-linejoin="round"/>
<path d="M70.5647 265.651L63.7221 265.01C63.0093 264.939 62.2965 265.01 61.5838 265.224C60.871 265.438 60.1582 265.723 59.5167 266.15C58.8752 266.578 58.305 267.077 57.806 267.647C57.3071 268.217 56.9507 268.93 56.6656 269.572L56.1667 270.783C55.8815 271.496 55.8103 272.209 55.8103 272.85C55.8103 273.492 56.0241 274.062 56.3092 274.561C56.5943 275.06 57.022 275.488 57.5209 275.844C58.0199 276.129 58.6614 276.343 59.3742 276.414L66.2168 277.056C66.9296 277.127 67.6423 277.056 68.3551 276.842C69.0679 276.628 69.7807 276.343 70.4222 275.915C71.0637 275.488 71.6339 274.989 72.1328 274.347C72.6318 273.777 73.0594 273.064 73.2733 272.423L73.7722 271.14C74.0573 270.427 74.1286 269.714 74.1286 269.073C74.1286 268.431 73.9148 267.861 73.6297 267.362C73.3446 266.863 72.9169 266.435 72.4179 266.079C71.919 265.865 71.2775 265.723 70.5647 265.651Z" fill="white" stroke="#1C7DAF" stroke-width="1.42555" stroke-miterlimit="10" stroke-linejoin="round"/>
<path d="M85.6751 163.724L78.5473 163.154C77.8345 163.083 77.0505 163.154 76.3377 163.368C75.6249 163.582 74.9122 163.938 74.1994 164.366C73.5579 164.794 72.9164 165.364 72.4175 165.934C71.9185 166.504 71.4908 167.217 71.2057 167.93L70.7068 169.213C70.4217 169.926 70.3504 170.638 70.3504 171.28C70.4217 171.921 70.5642 172.492 70.8493 173.062C71.1345 173.561 71.5621 173.988 72.1323 174.345C72.7026 174.63 73.3441 174.844 74.0568 174.915L81.1846 175.485C81.8974 175.556 82.6814 175.485 83.3942 175.271C84.107 175.058 84.891 174.701 85.5325 174.273C86.174 173.846 86.8155 173.276 87.3145 172.705C87.8134 172.064 88.2411 171.422 88.5262 170.71L89.0251 169.427C89.3102 168.714 89.3815 168.001 89.3815 167.36C89.3815 166.718 89.1677 166.148 88.8826 165.578C88.5975 165.079 88.1698 164.651 87.5996 164.295C87.1006 164.01 86.3879 163.796 85.6751 163.724Z" fill="white" stroke="#1C7DAF" stroke-width="1.42555" stroke-miterlimit="10" stroke-linejoin="round"/>
<path d="M129.939 166.576H129.867C129.796 166.576 129.796 166.576 129.796 166.576H129.725H129.654L122.241 166.504C121.528 166.504 120.744 166.647 120.031 166.861C119.318 167.146 118.534 167.502 117.893 167.93C117.251 168.358 116.61 168.928 116.111 169.569C115.612 170.211 115.184 170.852 114.97 171.565L114.471 172.848C114.186 173.561 114.115 174.202 114.115 174.844C114.115 175.485 114.329 176.056 114.614 176.555C114.899 177.053 115.327 177.481 115.826 177.766C116.325 178.051 116.966 178.265 117.679 178.336H117.75H117.821H117.893H117.964L125.377 178.408C126.09 178.408 126.874 178.265 127.658 178.051C128.371 177.766 129.155 177.41 129.796 176.982C130.438 176.555 131.079 175.984 131.578 175.343C132.077 174.701 132.505 174.06 132.718 173.347L133.217 172.064C133.503 171.351 133.574 170.71 133.574 170.068C133.574 169.427 133.36 168.857 133.075 168.358C132.79 167.859 132.362 167.431 131.863 167.146C131.293 166.79 130.651 166.647 129.939 166.576Z" fill="white" stroke="#1C7DAF" stroke-width="1.42555" stroke-miterlimit="10" stroke-linejoin="round"/>
<path d="M57.5209 160.66C56.8082 160.588 56.0954 160.66 55.3826 160.873C54.6698 161.087 54.0283 161.372 53.3868 161.8C52.7453 162.228 52.1751 162.727 51.7474 163.297C51.2485 163.867 50.8921 164.509 50.607 165.221L50.1081 166.504C49.823 167.217 49.7517 167.93 49.7517 168.571C49.7517 169.213 49.9655 169.854 50.1793 170.353C50.4645 170.852 50.8921 171.351 51.3911 171.708C51.89 172.064 52.5315 172.278 53.173 172.42L60.1582 173.49H60.2295H60.3008H60.372H60.4433C61.1561 173.561 61.8689 173.49 62.5816 173.276C63.2944 173.062 63.9359 172.777 64.5774 172.349C65.2189 171.921 65.7891 171.422 66.2881 170.852C66.787 170.282 67.1434 169.641 67.4285 168.928L67.9275 167.645C68.2126 166.932 68.2838 166.219 68.2838 165.578C68.2838 164.936 68.07 164.295 67.7849 163.796C67.4998 163.297 67.0721 162.798 66.5732 162.441C66.0742 162.085 65.4327 161.871 64.7912 161.729L57.8773 160.66H57.806H57.7348H57.6635C57.5209 160.66 57.5209 160.66 57.5209 160.66Z" fill="white" stroke="#1C7DAF" stroke-width="1.42555" stroke-miterlimit="10" stroke-linejoin="round"/>
<path d="M107.486 165.506L100.287 164.936C99.5746 164.865 98.7906 164.936 98.0778 165.15C97.365 165.364 96.6522 165.72 95.9394 166.148C95.298 166.576 94.6565 167.146 94.1575 167.716C93.6586 168.357 93.2309 168.999 92.9458 169.712L92.4468 170.995C92.1617 171.708 92.0905 172.42 92.0905 173.062C92.0905 173.703 92.3043 174.274 92.5894 174.844C92.8745 175.343 93.3022 175.77 93.8724 176.127C94.4426 176.412 95.0841 176.626 95.7969 176.697L102.996 177.267C103.709 177.338 104.493 177.267 105.206 177.053C105.918 176.84 106.702 176.483 107.344 176.055C107.985 175.628 108.627 175.058 109.126 174.487C109.625 173.917 110.052 173.204 110.338 172.492L110.836 171.209C111.122 170.496 111.193 169.783 111.193 169.142C111.122 168.5 110.979 167.859 110.694 167.36C110.409 166.861 109.981 166.433 109.411 166.077C108.841 165.791 108.199 165.578 107.486 165.506Z" fill="white" stroke="#1C7DAF" stroke-width="1.42555" stroke-miterlimit="10" stroke-linejoin="round"/>
<path d="M114.614 146.476L85.747 144.123C84.963 144.052 84.1789 144.123 83.4661 144.408C82.6821 144.622 81.9693 144.979 81.2565 145.406C80.5438 145.834 79.9736 146.404 79.4033 147.046C78.9044 147.687 78.4767 148.329 78.1916 149.113L77.6927 150.396C77.4076 151.109 77.265 151.893 77.3363 152.534C77.3363 153.176 77.5501 153.817 77.8352 154.316C78.1203 154.815 78.6193 155.314 79.1182 155.599C79.6884 155.955 80.3299 156.169 81.114 156.169L110.053 158.521C110.837 158.593 111.621 158.521 112.405 158.308C113.189 158.094 113.902 157.737 114.614 157.31C115.327 156.882 115.897 156.312 116.468 155.67C116.967 155.029 117.394 154.316 117.679 153.603L118.178 152.32C118.463 151.608 118.606 150.823 118.535 150.182C118.463 149.54 118.321 148.899 117.964 148.329C117.679 147.83 117.18 147.331 116.61 147.046C116.111 146.689 115.399 146.547 114.614 146.476Z" fill="white" stroke="#1C7DAF" stroke-width="1.42555" stroke-miterlimit="10" stroke-linejoin="round"/>
<path d="M136.996 147.616H136.924H136.853H136.782H136.71L129.298 147.545C128.585 147.545 127.801 147.687 127.088 147.901C126.375 148.186 125.591 148.543 124.95 148.97C124.308 149.398 123.667 149.968 123.168 150.61C122.669 151.251 122.241 151.893 122.027 152.605L121.528 153.888C121.243 154.601 121.172 155.243 121.172 155.884C121.172 156.526 121.386 157.096 121.671 157.524C121.956 158.022 122.384 158.45 122.883 158.735C123.382 159.02 124.023 159.234 124.736 159.305H124.807H124.878H124.95H125.021L132.434 159.377C133.147 159.377 133.931 159.234 134.715 159.02C135.427 158.735 136.212 158.379 136.853 157.951C137.494 157.524 138.136 156.953 138.635 156.312C139.134 155.67 139.562 155.029 139.775 154.316L140.274 153.033C140.559 152.32 140.631 151.679 140.631 151.037C140.631 150.396 140.417 149.826 140.132 149.398C139.847 148.899 139.419 148.471 138.92 148.186C138.35 147.901 137.708 147.687 136.996 147.616Z" fill="white" stroke="#1C7DAF" stroke-width="1.42555" stroke-miterlimit="10" stroke-linejoin="round"/>
<path d="M64.649 141.842C63.9362 141.771 63.2234 141.842 62.5106 142.056C61.7978 142.27 61.1564 142.555 60.5149 142.983C59.8734 143.411 59.3031 143.909 58.8755 144.48C58.3765 145.05 58.0201 145.691 57.735 146.404L57.2361 147.687C56.951 148.4 56.8797 149.113 56.8797 149.754C56.8797 150.396 57.0935 151.037 57.3074 151.536C57.5925 152.035 58.0201 152.534 58.5191 152.89C59.018 153.247 59.6595 153.461 60.301 153.603L67.2149 154.672H67.2862H67.3575H67.4288H67.5001C68.2128 154.744 68.9256 154.672 69.6384 154.459C70.3512 154.245 70.9927 153.96 71.6342 153.532C72.2757 153.104 72.8459 152.605 73.2735 152.035C73.7725 151.465 74.1289 150.823 74.414 150.111L74.9129 148.828C75.198 148.115 75.2693 147.402 75.2693 146.761C75.2693 146.119 75.0555 145.478 74.7704 144.979C74.4853 144.48 74.0576 143.981 73.5586 143.624C73.0597 143.268 72.4182 143.054 71.7767 142.912L64.8628 141.842H64.7915H64.7202H64.649C64.649 141.842 64.7202 141.842 64.649 141.842Z" fill="white"/>
<path d="M64.649 141.842C63.9362 141.771 63.2234 141.842 62.5106 142.056C61.7978 142.27 61.1564 142.555 60.5149 142.983C59.8734 143.411 59.3031 143.909 58.8755 144.48C58.3765 145.05 58.0201 145.691 57.735 146.404L57.2361 147.687C56.951 148.4 56.8797 149.113 56.8797 149.754C56.8797 150.396 57.0935 151.037 57.3074 151.536C57.5925 152.035 58.0201 152.534 58.5191 152.89C59.018 153.247 59.6595 153.461 60.301 153.603L67.2149 154.672H67.2862H67.3575H67.4288H67.5001C68.2128 154.744 68.9256 154.672 69.6384 154.459C70.3512 154.245 70.9927 153.96 71.6342 153.532C72.2757 153.104 72.8459 152.605 73.2735 152.035C73.7725 151.465 74.1289 150.823 74.414 150.111L74.9129 148.828C75.198 148.115 75.2693 147.402 75.2693 146.761C75.2693 146.119 75.0555 145.478 74.7704 144.979C74.4853 144.48 74.0576 143.981 73.5586 143.624C73.0597 143.268 72.4182 143.054 71.7767 142.912L64.8628 141.842H64.7915H64.7202H64.649C64.7202 141.842 64.649 141.842 64.649 141.842Z" stroke="#1C7DAF" stroke-width="1.42555" stroke-miterlimit="10" stroke-linejoin="round"/>
<path d="M89.6671 188.814L80.2585 188.03C79.3319 187.959 78.4765 188.03 77.5499 188.315C76.6233 188.6 75.768 188.957 74.9839 189.527C74.1999 190.026 73.4158 190.667 72.8456 191.451C72.2041 192.164 71.7052 193.02 71.4201 193.875L70.7786 195.586C70.4222 196.441 70.2796 197.296 70.3509 198.08C70.4222 198.864 70.636 199.577 70.9924 200.219C71.3488 200.86 71.919 201.359 72.5605 201.787C73.202 202.143 73.986 202.428 74.9127 202.499L84.3213 203.284C85.2479 203.355 86.1745 203.284 87.0298 202.998C87.9564 202.713 88.8118 202.357 89.5958 201.787C90.3799 201.288 91.1639 200.575 91.7342 199.862C92.3757 199.149 92.8746 198.294 93.1597 197.439L93.8012 195.728C94.1576 194.873 94.3001 194.017 94.2289 193.233C94.1576 192.449 93.9438 191.737 93.5874 191.095C93.231 190.454 92.6608 189.955 92.0193 189.527C91.3778 189.171 90.5937 188.885 89.6671 188.814Z" fill="white" stroke="#1C7DAF" stroke-width="1.42555" stroke-miterlimit="10" stroke-linejoin="round"/>
<path d="M120.602 189.598C120.531 189.598 120.531 189.598 120.459 189.598C120.459 189.598 120.388 189.598 120.317 189.598C120.246 189.598 120.246 189.598 120.174 189.598C120.103 189.598 120.103 189.598 120.032 189.598L110.338 189.456C109.411 189.456 108.485 189.598 107.63 189.883C106.703 190.169 105.848 190.668 105.064 191.238C104.279 191.808 103.495 192.449 102.925 193.234C102.284 193.946 101.856 194.802 101.5 195.657L100.858 197.368C100.502 198.223 100.43 199.007 100.43 199.791C100.43 200.575 100.644 201.217 101.001 201.858C101.357 202.428 101.856 202.927 102.498 203.284C103.139 203.64 103.852 203.854 104.707 203.996C104.778 203.996 104.778 203.996 104.85 203.996C104.921 203.996 104.921 203.996 104.992 203.996C104.992 203.996 105.064 203.996 105.135 203.996C105.206 203.996 105.206 203.996 105.277 203.996L115.042 204.139C115.969 204.139 116.896 203.996 117.751 203.711C118.678 203.426 119.533 202.927 120.317 202.357C121.101 201.787 121.885 201.145 122.455 200.361C123.097 199.577 123.596 198.793 123.881 197.938L124.522 196.227C124.807 195.372 124.95 194.588 124.95 193.804C124.879 193.02 124.736 192.378 124.38 191.737C124.023 191.166 123.524 190.668 122.883 190.311C122.241 189.955 121.457 189.67 120.602 189.598Z" fill="white" stroke="#1C7DAF" stroke-width="1.42555" stroke-miterlimit="10" stroke-linejoin="round"/>
<path d="M50.5357 183.753C49.6804 183.682 48.8251 183.754 47.9697 184.039C47.1144 184.252 46.3303 184.68 45.5463 185.179C44.7622 185.678 44.1207 186.319 43.5505 186.961C42.9803 187.674 42.4813 188.458 42.1962 189.313L41.5547 191.024C41.1983 191.879 41.0558 192.734 41.1271 193.519C41.1271 194.303 41.3409 195.087 41.6973 195.728C42.0537 196.37 42.5526 196.94 43.1228 197.368C43.7643 197.795 44.4771 198.08 45.3324 198.223L54.456 199.72C54.5273 199.72 54.5273 199.72 54.5985 199.72C54.5985 199.72 54.6698 199.72 54.7411 199.72C54.7411 199.72 54.8124 199.72 54.8836 199.72C54.9549 199.72 54.9549 199.72 55.0262 199.72C55.8815 199.791 56.7369 199.72 57.5922 199.435C58.4475 199.221 59.2316 198.793 60.0156 198.294C60.7997 197.795 61.4412 197.154 62.0114 196.512C62.5816 195.799 63.0806 195.015 63.3657 194.16L64.0072 192.449C64.2923 191.594 64.4348 190.739 64.4348 189.955C64.4348 189.171 64.221 188.387 63.8646 187.745C63.5082 187.104 63.0093 186.533 62.4391 186.106C61.7976 185.678 61.0848 185.393 60.2295 185.25L51.1059 183.825C51.0347 183.825 51.0347 183.825 50.9634 183.825C50.9634 183.825 50.8921 183.825 50.8208 183.825C50.7495 183.825 50.7495 183.825 50.6783 183.825C50.607 183.753 50.607 183.753 50.5357 183.753Z" fill="white" stroke="#1C7DAF" stroke-width="1.42555" stroke-miterlimit="10" stroke-linejoin="round"/>
<path d="M82.8241 206.705L73.4155 205.921C72.4888 205.849 71.6335 205.921 70.7069 206.206C69.7803 206.491 68.925 206.847 68.1409 207.418C67.3569 207.917 66.5728 208.629 66.0026 209.342C65.3611 210.055 64.8621 210.91 64.577 211.765L63.9355 213.476C63.5791 214.331 63.4366 215.187 63.5079 216.042C63.5791 216.826 63.793 217.539 64.1494 218.18C64.5058 218.822 65.076 219.321 65.7175 219.749C66.359 220.176 67.143 220.39 68.0696 220.461L77.4783 221.245C78.4049 221.317 79.3315 221.245 80.1868 220.96C81.1134 220.675 81.9688 220.319 82.7528 219.749C83.5369 219.25 84.3209 218.537 84.8911 217.824C85.5326 217.111 86.0316 216.256 86.3167 215.401L86.9582 213.69C87.3146 212.835 87.4571 211.979 87.3859 211.124C87.3146 210.34 87.1007 209.627 86.7444 208.986C86.388 208.344 85.8178 207.845 85.1763 207.418C84.5348 207.061 83.7507 206.847 82.8241 206.705Z" fill="white" stroke="#1C7DAF" stroke-width="1.42555" stroke-miterlimit="10" stroke-linejoin="round"/>
<path d="M113.046 207.917C112.975 207.917 112.975 207.917 112.904 207.917C112.833 207.917 112.833 207.917 112.761 207.917C112.69 207.917 112.69 207.917 112.619 207.917C112.547 207.917 112.547 207.917 112.476 207.917L102.711 207.774C101.785 207.774 100.858 207.917 100.003 208.202C99.076 208.487 98.2206 208.986 97.4366 209.556C96.6525 210.126 95.8685 210.768 95.2982 211.552C94.6567 212.265 94.1578 213.12 93.8727 213.975L93.2312 215.686C92.8748 216.541 92.8035 217.325 92.8035 218.109C92.8035 218.893 93.0174 219.535 93.3738 220.176C93.7301 220.747 94.2291 221.246 94.8706 221.673C95.5121 222.03 96.2249 222.244 97.1515 222.386C97.2227 222.386 97.2227 222.386 97.294 222.386C97.3653 222.386 97.3653 222.386 97.4366 222.386C97.5078 222.386 97.5078 222.386 97.5791 222.386C97.6504 222.386 97.6504 222.386 97.7217 222.386L107.487 222.529C108.413 222.529 109.34 222.386 110.195 222.101C111.122 221.816 111.977 221.317 112.761 220.747C113.545 220.176 114.329 219.535 114.9 218.751C115.541 217.967 116.04 217.183 116.325 216.327L116.967 214.617C117.252 213.761 117.394 212.906 117.394 212.193C117.323 211.409 117.18 210.768 116.824 210.126C116.468 209.556 115.969 209.057 115.327 208.701C114.686 208.202 113.902 207.988 113.046 207.917Z" fill="white" stroke="#1C7DAF" stroke-width="1.42555" stroke-miterlimit="10" stroke-linejoin="round"/>
<path d="M44.2632 202.072C43.4079 202.001 42.5525 202.072 41.6972 202.357C40.8419 202.571 40.0578 202.998 39.2738 203.497C38.4897 203.996 37.8482 204.638 37.278 205.279C36.7078 205.992 36.2088 206.776 35.9237 207.631L35.2822 209.342C34.9258 210.198 34.7833 211.053 34.8546 211.837C34.8546 212.621 35.0684 213.405 35.4248 214.046C35.7812 214.688 36.2801 215.258 36.8503 215.686C37.4918 216.114 38.2046 216.399 39.0599 216.541L48.1835 218.038C48.2547 218.038 48.2547 218.038 48.326 218.038C48.3973 218.038 48.3973 218.038 48.4686 218.038C48.5398 218.038 48.5398 218.038 48.6111 218.038C48.6824 218.038 48.6824 218.038 48.7537 218.038C49.609 218.109 50.4643 218.038 51.3197 217.753C52.175 217.539 53.0303 217.111 53.7431 216.612C54.5272 216.114 55.1687 215.472 55.7389 214.831C56.3091 214.118 56.808 213.334 57.0931 212.478L57.7346 210.768C58.091 209.912 58.2336 209.057 58.1623 208.273C58.1623 207.489 57.9485 206.705 57.5921 206.063C57.2357 205.422 56.7368 204.852 56.1665 204.424C55.525 203.996 54.8123 203.711 53.9569 203.569L44.8334 202.072C44.7621 202.072 44.7621 202.072 44.6909 202.072C44.6196 202.072 44.6196 202.072 44.5483 202.072C44.477 202.072 44.477 202.072 44.4057 202.072C44.3345 202.072 44.3345 202.072 44.2632 202.072Z" fill="white" stroke="#1C7DAF" stroke-width="1.42555" stroke-miterlimit="10" stroke-linejoin="round"/>
<path d="M75.9823 225.094L66.5737 224.31C65.647 224.239 64.7204 224.31 63.8651 224.595C62.9385 224.881 62.0832 225.237 61.2991 225.807C60.5151 226.306 59.731 227.019 59.1608 227.732C58.5193 228.444 58.0203 229.3 57.7352 230.155L57.0937 231.866C56.7374 232.721 56.5948 233.576 56.6661 234.432C56.7374 235.216 56.9512 235.929 57.3076 236.57C57.664 237.212 58.2342 237.711 58.8757 238.138C59.5172 238.566 60.3012 238.78 61.2278 238.851L70.6365 239.706C71.5631 239.778 72.4897 239.706 73.345 239.421C74.2716 239.136 75.127 238.78 75.911 238.21C76.6951 237.711 77.4791 237.069 78.0493 236.285C78.6908 235.572 79.1898 234.717 79.4749 233.862L80.1164 232.151C80.4728 231.296 80.6153 230.44 80.5441 229.585C80.4728 228.801 80.2589 228.017 79.9026 227.447C79.5462 226.805 78.976 226.306 78.3345 225.878C77.693 225.451 76.9089 225.166 75.9823 225.094Z" fill="white" stroke="#1C7DAF" stroke-width="1.42555" stroke-miterlimit="10" stroke-linejoin="round"/>
<path d="M105.134 226.235C105.063 226.235 105.063 226.235 104.992 226.235C104.992 226.235 104.92 226.235 104.849 226.235C104.778 226.235 104.778 226.235 104.707 226.235C104.635 226.235 104.635 226.235 104.564 226.235L94.799 226.092C93.8724 226.092 92.9458 226.235 92.0905 226.52C91.1638 226.805 90.3085 227.304 89.5245 227.803C88.7404 228.373 87.9564 229.015 87.3861 229.799C86.7446 230.583 86.2457 231.367 85.9606 232.222L85.3191 233.933C84.9627 234.788 84.8914 235.643 84.8914 236.356C84.8914 237.14 85.1053 237.782 85.4616 238.423C85.818 238.994 86.317 239.492 86.9585 239.92C87.6 240.277 88.3127 240.562 89.2393 240.633C89.3106 240.633 89.3106 240.633 89.3819 240.633C89.4532 240.633 89.4532 240.633 89.5245 240.633C89.5957 240.633 89.5957 240.633 89.667 240.633C89.7383 240.633 89.7383 240.633 89.8096 240.633L99.5746 240.775C100.501 240.775 101.428 240.633 102.354 240.348C103.281 240.063 104.136 239.564 104.992 238.994C105.776 238.423 106.56 237.782 107.13 236.998C107.772 236.285 108.27 235.43 108.556 234.574L109.197 232.864C109.553 232.008 109.625 231.153 109.625 230.44C109.553 229.656 109.411 229.015 109.055 228.373C108.698 227.803 108.199 227.304 107.558 226.876C106.774 226.591 105.99 226.306 105.134 226.235Z" fill="white" stroke="#1C7DAF" stroke-width="1.42555" stroke-miterlimit="10" stroke-linejoin="round"/>
<path d="M38.3474 220.461C37.492 220.39 36.6367 220.462 35.7814 220.747C34.926 220.96 34.142 221.388 33.3579 221.887C32.5739 222.386 31.9324 223.027 31.3622 223.669C30.7919 224.382 30.293 225.166 30.0079 226.021L29.3664 227.732C29.01 228.587 28.8674 229.442 28.9387 230.227C28.9387 231.011 29.1526 231.795 29.5089 232.436C29.8653 233.078 30.3643 233.648 30.9345 234.076C31.576 234.503 32.2888 234.788 33.1441 234.931L42.2676 236.428C42.3389 236.428 42.3389 236.428 42.4102 236.428C42.4815 236.428 42.4815 236.428 42.5527 236.428C42.5527 236.428 42.624 236.428 42.6953 236.428C42.7666 236.428 42.7666 236.428 42.8378 236.428C43.6932 236.499 44.5485 236.428 45.4038 236.143C46.2592 235.929 47.1145 235.501 47.8273 235.002C48.6113 234.503 49.2528 233.862 49.8943 233.22C50.4645 232.507 50.9635 231.723 51.2486 230.868L51.8901 229.157C52.2465 228.302 52.389 227.447 52.3178 226.663C52.3178 225.879 52.1039 225.095 51.7475 224.453C51.3912 223.812 50.8922 223.241 50.322 222.814C49.6805 222.386 48.9677 222.101 48.1124 221.958L38.9889 220.461C38.9176 220.461 38.9176 220.461 38.8463 220.461C38.775 220.461 38.775 220.461 38.7037 220.461C38.7037 220.461 38.6325 220.461 38.5612 220.461C38.4186 220.461 38.4186 220.461 38.3474 220.461Z" fill="white" stroke="#1C7DAF" stroke-width="1.42555" stroke-miterlimit="10" stroke-linejoin="round"/>
<path d="M69.1393 243.413L59.7307 242.557C58.8041 242.486 57.8775 242.557 57.0221 242.843C56.0955 243.128 55.2402 243.484 54.4561 244.054C53.6721 244.553 52.888 245.195 52.3178 245.979C51.6763 246.692 51.1774 247.547 50.8923 248.402L50.2508 250.113C49.8944 250.968 49.7518 251.824 49.8231 252.679C49.8944 253.463 50.1082 254.247 50.4646 254.817C50.821 255.459 51.3199 255.958 52.0327 256.385C52.6742 256.813 53.4582 257.027 54.3849 257.098L63.7935 257.953C64.7201 258.025 65.6467 257.953 66.502 257.668C67.4286 257.383 68.284 257.027 69.068 256.457C69.8521 255.958 70.6361 255.245 71.2064 254.532C71.8479 253.819 72.3468 252.964 72.6319 252.109L73.2734 250.398C73.6298 249.543 73.7724 248.616 73.7011 247.832C73.6298 247.048 73.416 246.264 73.0596 245.694C72.7032 245.052 72.133 244.553 71.4915 244.126C70.85 243.698 70.0659 243.484 69.1393 243.413Z" fill="white" stroke="#1C7DAF" stroke-width="1.42555" stroke-miterlimit="10" stroke-linejoin="round"/>
<path d="M98.2915 244.553C98.2202 244.553 98.2202 244.553 98.1489 244.553C98.0776 244.553 98.0776 244.553 98.0064 244.553C97.9351 244.553 97.9351 244.553 97.8638 244.553C97.7925 244.553 97.7925 244.553 97.7212 244.553L87.9562 244.411C87.0296 244.411 86.103 244.553 85.1764 244.838C84.2498 245.123 83.3945 245.622 82.6104 246.193C81.8263 246.763 81.0423 247.404 80.4721 248.188C79.8306 248.972 79.3316 249.756 79.0465 250.612L78.405 252.322C78.0486 253.178 77.9774 254.033 77.9774 254.746C78.0486 255.53 78.1912 256.171 78.5476 256.813C78.904 257.383 79.4029 257.882 80.0444 258.31C80.6859 258.666 81.3987 258.951 82.3253 259.023C82.3966 259.023 82.3966 259.023 82.4678 259.023C82.5391 259.023 82.5391 259.023 82.6104 259.023C82.6104 259.023 82.6817 259.023 82.753 259.023C82.8242 259.023 82.8242 259.023 82.8955 259.023L92.6605 259.165C93.5871 259.165 94.5137 259.023 95.4404 258.737C96.367 258.452 97.2223 257.953 98.0776 257.383C98.8617 256.813 99.6457 256.171 100.216 255.387C100.857 254.603 101.356 253.819 101.642 252.964L102.283 251.253C102.568 250.398 102.711 249.543 102.711 248.83C102.639 248.046 102.497 247.404 102.14 246.763C101.784 246.193 101.285 245.694 100.644 245.266C99.9308 244.838 99.1468 244.624 98.2915 244.553Z" fill="white" stroke="#1C7DAF" stroke-width="1.42555" stroke-miterlimit="10" stroke-linejoin="round"/>
<path d="M32.5026 238.709C31.6473 238.637 30.792 238.709 29.9366 238.994C29.0813 239.208 28.2973 239.635 27.5132 240.134C26.7291 240.633 26.0876 241.275 25.5174 241.916C24.9472 242.629 24.4483 243.413 24.1632 244.268L23.5217 245.979C23.1653 246.834 23.0227 247.69 23.094 248.545C23.094 249.329 23.3078 250.113 23.6642 250.754C24.0206 251.396 24.5195 251.966 25.0898 252.465C25.7313 252.893 26.444 253.249 27.2994 253.392L36.4229 254.889C36.4229 254.889 36.4942 254.889 36.5655 254.889C36.6367 254.889 36.6367 254.889 36.708 254.889C36.7793 254.889 36.7793 254.889 36.8506 254.889C36.9218 254.889 36.9218 254.889 36.9931 254.889C37.8484 254.96 38.7038 254.889 39.5591 254.603C40.4144 254.39 41.2698 253.962 41.9825 253.463C42.7666 252.964 43.4081 252.323 44.0496 251.61C44.6198 250.897 45.1188 250.113 45.4039 249.258L46.0454 247.547C46.4018 246.692 46.5443 245.836 46.473 244.981C46.473 244.197 46.2592 243.413 45.9028 242.771C45.5464 242.13 45.0475 241.56 44.4773 241.061C43.8358 240.633 43.123 240.277 42.2677 240.134L32.9303 238.78C32.9303 238.78 32.859 238.78 32.7877 238.78C32.7165 238.78 32.7165 238.78 32.6452 238.78C32.5739 238.78 32.5739 238.78 32.5026 238.78C32.5739 238.709 32.5026 238.709 32.5026 238.709Z" fill="white" stroke="#1C7DAF" stroke-width="1.42555" stroke-miterlimit="10" stroke-linejoin="round"/>
</svg>
