<svg width="357" height="313" viewBox="0 0 357 313" fill="none" xmlns="http://www.w3.org/2000/svg">
<g clip-path="url(#clip0_50_1013)">
<path d="M2.9845 305.814C2.9845 305.814 1.83078 307.619 1.5549 312.656C1.52982 313.133 1.90603 313.534 2.38256 313.534H11.3364C11.6875 313.534 11.9634 313.183 11.838 312.832C11.3113 311.278 9.73124 307.494 6.19484 305.338L2.9845 305.814Z" fill="#1C7DAF"/>
<path d="M2.58301 302.381L3.08462 306.616C3.13479 306.992 3.41067 307.268 3.78689 307.318C4.2885 307.368 4.99076 307.418 5.66795 307.293C6.29497 307.193 6.74642 306.641 6.74642 305.99V301.905L2.58301 302.381Z" fill="white"/>
<path d="M25.1309 305.338C25.1309 305.338 23.4254 307.995 23.4505 311.654C23.4505 312.506 24.1778 313.208 25.0306 313.208H38.9253C39.5774 313.208 39.8282 312.381 39.3015 312.005C36.668 310.15 31.5014 306.717 27.7644 305.363H25.1309V305.338Z" fill="#1C7DAF"/>
<path d="M23.701 300.752L24.7795 305.99C24.9049 306.566 25.4818 306.967 26.0586 306.842C26.4098 306.767 26.8361 306.617 27.2876 306.341C27.714 306.065 27.9397 305.564 27.8394 305.088L26.7107 298.747L23.701 300.752Z" fill="white"/>
<path d="M4.58943 227.92C4.58943 227.92 0.827309 231.228 0.125046 235.213C-0.577216 239.198 2.13151 303.885 2.13151 303.885C2.13151 303.885 5.89363 304.511 7.82485 303.333C7.82485 303.333 10.1323 261.353 11.8629 251.654C11.8629 251.654 21.0173 295.138 23.5505 302.982C23.5505 302.982 27.1621 303.433 28.3409 302.732C28.3409 302.732 25.9332 246.366 22.9235 236.341L4.58943 227.92Z" fill="#1C7DAF"/>
<path d="M41.6338 190.551C25.8329 189.248 21.6946 192.506 21.6946 192.506L29.2941 204.486C29.2941 204.486 44.8191 204.185 55.9549 195.614C53.8732 193.383 52.4186 190.902 51.4906 188.972C48.6314 190.15 45.3207 190.852 41.6338 190.551Z" fill="#2CB6BF"/>
<path d="M66.3885 167.368C66.3635 166.867 65.6863 166.717 65.4605 167.193L63.4541 171.504C63.0528 172.331 62.9274 173.258 63.103 174.16L63.8052 176.667C64.0059 177.895 63.7049 179.148 62.9274 180.1C61.0714 182.406 57.1337 186.642 51.5156 188.972C52.4436 190.902 53.8983 193.383 55.98 195.614C60.0682 192.481 63.5544 188.22 65.4605 182.456C66.3885 182.18 66.9905 181.303 66.9654 180.351L66.3885 167.368Z" fill="white"/>
<path d="M46.8254 197.494C41.2575 191.504 30.6734 188.797 24.5286 187.694C21.845 187.218 19.1864 188.697 18.2333 191.253C15.4744 198.672 7.9502 217.97 6.49551 221.278C5.29163 224.01 4.06267 226.667 3.26009 228.321C2.78355 229.323 3.20993 230.501 4.18808 230.977C9.35472 233.459 18.6346 236.266 22.3967 237.368C23.2244 237.619 24.0521 236.992 24.0521 236.115C24.0521 235.388 24.2527 234.662 24.6289 234.035L38.8999 210.276C47.7785 220.125 55.5786 221.027 61.5479 218.872C60.5446 215.764 59.8925 212.657 59.5665 209.549C50.7631 208.045 46.8254 197.494 46.8254 197.494Z" fill="#2CB6BF"/>
<path d="M76.6716 206.416L74.3391 203.133C69.0721 207.694 63.1279 210.175 59.5916 209.574C59.9176 212.682 60.5697 215.815 61.5729 218.897C69.4483 216.065 76.6716 206.416 76.6716 206.416Z" fill="white"/>
<path d="M74.3641 203.133L79.5809 210.451L88.284 214.185C88.1586 212.782 82.8414 208.396 82.8414 208.396C82.8414 208.396 79.4054 202.18 78.2517 200.677C77.2986 199.424 75.6433 200.977 75.0915 201.554C74.9912 201.679 74.9159 201.754 74.9159 201.754L74.3641 203.133Z" fill="white"/>
<path d="M32.9805 176.667L28.2402 188.221C28.2402 188.221 33.6828 191.98 38.0719 191.629L40.4295 181.228L32.9805 176.667Z" fill="white"/>
<path d="M38.0472 167.318C38.0472 167.318 44.5933 173.158 44.9695 177.393C45.3457 181.654 40.0787 185.94 33.4072 184.135L26.51 174.311L38.0472 167.318Z" fill="white"/>
<path d="M32.2535 178.747C32.4542 178.571 32.4792 178.271 32.2786 178.095C31.6766 177.544 30.5229 176.416 29.9712 175.313C29.9712 175.313 28.8425 174.937 32.0529 173.233C35.2632 171.529 40.0035 168.922 40.3295 165.739C40.6305 162.631 36.0407 156.24 33.1313 163.032C33.031 163.283 32.705 163.383 32.4792 163.208C31.5262 162.456 29.1184 161.027 26.811 162.882C24.654 164.611 24.8296 166.491 25.1055 167.368C25.1807 167.644 25.0052 167.895 24.7293 167.92C23.4251 167.995 20.4154 168.571 19.8134 171.98C19.3369 174.787 20.4405 176.015 21.2932 176.541C21.5691 176.717 21.5691 177.093 21.2932 177.268C20.5408 177.719 19.663 178.697 20.2649 180.576C21.0926 183.183 23.9768 182.18 24.8045 181.829C24.9299 181.779 25.0804 181.779 25.2058 181.854C26.1338 182.456 30.247 184.987 33.8587 184.486C34.1596 184.436 34.3352 184.085 34.1596 183.809L31.5011 179.799C31.3757 179.624 31.4258 179.373 31.6014 179.223L32.2535 178.747Z" fill="#1C7DAF"/>
<path d="M33.031 179.198C33.031 179.198 28.5415 177.569 28.8425 179.85C29.1435 182.13 33.1062 182.155 34.7365 180.852L33.031 179.198Z" fill="white"/>
<path d="M207.544 96.0148C206.44 94.9873 204.96 94.461 203.455 94.6113C187.379 96.065 162.147 79.5737 137.794 68.2955C136.038 67.4685 133.957 67.694 132.402 68.8469C110.606 85.1126 74.49 88.496 61.9496 89.1727C59.3663 89.3231 57.2595 91.3281 56.9836 93.9096C45.5718 203.985 117.278 243.859 132.151 250.902C133.781 251.679 135.687 251.554 137.217 250.601C211.356 204.461 208.171 144.461 209.199 99.9998C209.249 98.496 208.647 97.0424 207.544 96.0148Z" fill="#2CB6BF"/>
<path opacity="0.74" d="M132.477 244.16C132.377 244.16 132.251 244.135 132.176 244.06C131.975 243.935 111.71 230.1 93.7019 206.215C83.1429 192.18 75.3929 177.469 70.7279 162.456C64.8841 143.709 63.8056 124.486 67.5677 105.313C67.6179 105.037 67.8687 104.862 68.1446 104.862C68.6462 104.887 118.432 108.145 138.622 80.852C138.722 80.7267 138.872 80.6265 139.048 80.6265C139.198 80.6265 139.374 80.7016 139.474 80.827C139.65 81.0525 158.36 103.208 173.208 108.546C188.056 113.885 198.866 111.579 198.991 111.554C199.142 111.529 199.317 111.554 199.443 111.654C199.568 111.754 199.643 111.905 199.643 112.08C199.643 112.281 200.044 133.233 192.044 159.824C187.354 175.438 180.707 189.925 172.305 202.882C161.796 219.098 148.503 232.932 132.803 244.035C132.703 244.11 132.602 244.16 132.477 244.16ZM68.5459 105.99C64.9343 124.812 66.0127 143.684 71.7562 162.105C76.3962 176.967 84.0709 191.579 94.5547 205.514C111.208 227.644 129.843 241.103 132.452 242.932C147.927 231.955 161.019 218.296 171.377 202.306C179.729 189.423 186.325 175.037 190.99 159.524C198.163 135.689 198.565 116.441 198.565 112.732C195.956 113.158 186.049 114.311 172.832 109.549C158.812 104.511 142.083 85.5387 139.073 82.03C132.978 89.9748 120.589 100.075 95.9341 104.261C82.541 106.566 71.0289 106.115 68.5459 105.99Z" fill="white"/>
<g opacity="0.81">
<path d="M155.124 196.04H109.553C106.317 196.04 103.834 193.834 103.659 190.802L101.201 147.468C101.125 145.915 101.627 144.536 102.731 143.308C103.784 142.155 105.314 141.453 106.894 141.403L154.899 139.824C156.504 139.774 158.034 140.351 159.188 141.478C160.341 142.581 160.968 144.085 160.968 145.714V190.777C160.968 193.884 158.56 196.04 155.124 196.04ZM155.099 140.927C155.049 140.927 154.999 140.927 154.949 140.927L106.944 142.506C105.665 142.556 104.436 143.108 103.558 144.06C102.655 145.037 102.229 146.165 102.304 147.418L104.762 190.752C104.888 193.183 106.919 194.962 109.553 194.962H155.099C157.457 194.962 159.865 193.684 159.865 190.802V145.714C159.865 144.386 159.363 143.158 158.435 142.255C157.532 141.403 156.353 140.927 155.099 140.927Z" fill="white"/>
<path d="M112.788 142.306C112.512 142.306 112.286 142.105 112.236 141.829C110.731 131.529 112.161 123.458 116.475 117.819C121.315 111.504 127.987 110.677 128.263 110.626C140.652 109.173 149.631 116.24 152.29 129.499C152.29 129.524 152.29 129.549 152.29 129.574L153.118 140.401C153.143 140.702 152.917 140.977 152.616 141.002C152.315 141.027 152.039 140.802 152.014 140.501L151.186 129.724C148.653 117.093 140.126 110.401 128.363 111.754C128.288 111.754 121.867 112.581 117.302 118.546C113.164 123.935 111.835 131.729 113.289 141.704C113.339 142.005 113.114 142.281 112.838 142.331C112.838 142.306 112.813 142.306 112.788 142.306Z" fill="white"/>
<path d="M120.663 142.306C120.387 142.306 120.162 142.105 120.111 141.829C120.036 141.378 118.481 130.777 123.522 124.912C125.654 122.431 128.614 121.178 132.376 121.178C136.238 121.178 139.248 122.431 141.305 124.937C145.945 130.576 144.063 140.426 143.988 140.827C143.938 141.128 143.637 141.328 143.336 141.253C143.035 141.203 142.835 140.902 142.91 140.601C142.935 140.501 144.766 130.852 140.452 125.614C138.621 123.383 135.912 122.255 132.376 122.255C128.94 122.255 126.256 123.383 124.35 125.589C119.635 131.077 121.165 141.504 121.19 141.604C121.24 141.905 121.039 142.18 120.738 142.23C120.713 142.306 120.688 142.306 120.663 142.306Z" fill="white"/>
<path d="M131.649 187.794H131.222C128.94 187.794 126.332 185.263 126.332 183.057V164.586C123.673 163.183 122.093 160.702 122.093 157.794C122.093 153.383 126.457 149.799 131.799 149.799C137.192 149.799 141.43 153.308 141.43 157.794C141.43 161.128 138.972 163.985 135.135 165.188V183.057C135.135 185.363 133.931 187.794 131.649 187.794ZM127.46 164.912V183.057C127.46 184.661 129.592 186.692 131.248 186.692H131.674C133.329 186.692 134.082 184.561 134.082 183.057V164.762C134.082 164.511 134.257 164.286 134.483 164.235C138.069 163.258 140.377 160.727 140.377 157.794C140.377 153.91 136.64 150.877 131.849 150.877C127.109 150.877 123.247 153.985 123.247 157.794C123.247 160.501 124.852 162.782 127.51 163.91C127.711 163.985 127.837 164.185 127.837 164.411C127.811 164.737 127.636 164.862 127.46 164.912Z" fill="white"/>
</g>
<path d="M179.202 77.1429H244.563C249.479 77.1429 253.492 73.1579 253.492 68.2206V8.92231C253.492 4.01002 249.504 0 244.563 0H179.202C174.286 0 170.273 3.98496 170.273 8.92231V68.2456C170.273 73.1579 174.286 77.1429 179.202 77.1429Z" fill="#2CB6BF"/>
<path d="M247.899 50.7769H248.325V14.8621C248.325 10.2005 244.538 6.41602 239.873 6.41602H224.523V6.84208H239.873C244.287 6.84208 247.899 10.426 247.899 14.8621V50.7769Z" fill="white"/>
<path d="M253.793 320C254.721 320 255.523 319.399 255.699 318.571L285.72 159.774C285.896 158.847 285.194 157.945 284.14 157.794C283.087 157.644 282.084 158.271 281.908 159.198L251.886 317.995C251.711 318.922 252.413 319.825 253.466 319.975C253.592 319.975 253.692 320 253.793 320Z" fill="white"/>
<path d="M355.069 320C355.195 320 355.32 320 355.445 319.975C356.499 319.8 357.176 318.872 356.95 317.945L321.561 161.228C321.361 160.301 320.332 159.699 319.279 159.875C318.225 160.05 317.548 160.978 317.774 161.905L353.163 318.622C353.364 319.424 354.166 320 355.069 320Z" fill="white"/>
<path d="M276.716 198.997H328.007C329.06 198.997 329.938 198.221 329.938 197.268C329.938 196.316 329.085 195.539 328.007 195.539H276.716C275.663 195.539 274.785 196.316 274.785 197.268C274.785 198.221 275.638 198.997 276.716 198.997Z" fill="white"/>
<path d="M277.644 198.997H327.079C328.107 198.997 328.935 198.221 328.935 197.268C328.935 196.316 328.107 195.539 327.079 195.539H277.644C276.616 195.539 275.788 196.316 275.788 197.268C275.788 198.221 276.616 198.997 277.644 198.997Z" fill="white"/>
<path d="M276.716 227.719H328.007C329.06 227.719 329.938 226.942 329.938 225.99C329.938 225.038 329.085 224.261 328.007 224.261H276.716C275.663 224.261 274.785 225.038 274.785 225.99C274.785 226.942 275.638 227.719 276.716 227.719Z" fill="white"/>
<path d="M272.051 227.719H334.252C335.305 227.719 336.183 226.942 336.183 225.99C336.183 225.038 335.33 224.261 334.252 224.261H272.051C270.998 224.261 270.12 225.038 270.12 225.99C270.12 226.942 270.973 227.719 272.051 227.719Z" fill="white"/>
<path d="M276.716 256.416H328.007C329.06 256.416 329.938 255.639 329.938 254.687C329.938 253.734 329.085 252.958 328.007 252.958H276.716C275.663 252.958 274.785 253.734 274.785 254.687C274.785 255.664 275.638 256.416 276.716 256.416Z" fill="white"/>
<path d="M266.107 256.416H340.547C341.6 256.416 342.478 255.639 342.478 254.687C342.478 253.734 341.626 252.958 340.547 252.958H266.107C265.054 252.958 264.176 253.734 264.176 254.687C264.176 255.664 265.054 256.416 266.107 256.416Z" fill="white"/>
<path d="M276.716 285.138H346.541C347.595 285.138 348.473 284.361 348.473 283.409C348.473 282.456 347.62 281.679 346.541 281.679H276.716C275.663 281.679 274.785 282.456 274.785 283.409C274.785 284.361 275.638 285.138 276.716 285.138Z" fill="white"/>
<path d="M261.292 285.138H346.516C347.57 285.138 348.447 284.361 348.447 283.409C348.447 282.456 347.595 281.679 346.516 281.679H261.292C260.238 281.679 259.36 282.456 259.36 283.409C259.386 284.361 260.238 285.138 261.292 285.138Z" fill="white"/>
<path d="M322.865 188.747C322.865 188.747 324.119 190.727 324.42 196.241C324.445 196.767 324.044 197.193 323.517 197.193H313.736C313.334 197.193 313.058 196.817 313.184 196.441C313.761 194.737 315.491 190.601 319.354 188.246L322.865 188.747Z" fill="#1C7DAF"/>
<path d="M323.291 185.013L322.739 189.649C322.689 190.05 322.388 190.376 321.987 190.426C321.46 190.476 320.683 190.526 319.905 190.401C319.228 190.276 318.726 189.674 318.726 188.973V184.486L323.291 185.013Z" fill="white"/>
<path d="M298.636 188.246C298.636 188.246 300.518 191.153 300.467 195.163C300.467 196.115 299.665 196.842 298.737 196.842H283.538C282.836 196.842 282.535 195.94 283.111 195.514C285.996 193.484 291.639 189.724 295.727 188.246H298.636Z" fill="#1C7DAF"/>
<path d="M300.192 183.233L299.013 188.972C298.888 189.624 298.261 190.05 297.609 189.9C297.232 189.825 296.756 189.649 296.279 189.348C295.803 189.048 295.577 188.496 295.677 187.97L296.906 181.028L300.192 183.233Z" fill="white"/>
<path d="M321.109 103.534C321.109 103.534 325.222 107.143 326 111.504C326.777 115.865 323.818 186.617 323.818 186.617C323.818 186.617 319.704 187.294 317.598 186.015C317.598 186.015 315.089 140.101 313.183 129.474C313.183 129.474 303.176 177.043 300.392 185.639C300.392 185.639 296.429 186.116 295.15 185.364C295.15 185.364 297.784 123.71 301.069 112.732L321.109 103.534Z" fill="#1C7DAF"/>
<path d="M313.284 128.02C313.485 128.02 313.685 127.87 313.736 127.669L315.441 121.153L319.053 118.847C319.278 118.697 319.329 118.421 319.203 118.196C319.053 117.97 318.777 117.92 318.551 118.045L314.789 120.451C314.689 120.526 314.613 120.627 314.588 120.727L312.833 127.419C312.757 127.669 312.908 127.92 313.159 127.995C313.209 128.02 313.234 128.02 313.284 128.02Z" fill="#2CB6BF"/>
<path d="M280.579 62.6568C297.859 61.2282 302.399 64.7871 302.399 64.7871L294.097 77.8949C294.097 77.8949 277.118 77.5691 264.928 68.1957C267.211 65.7395 268.791 63.0328 269.794 60.9275C272.929 62.2307 276.541 63.0077 280.579 62.6568Z" fill="#2CB6BF"/>
<path d="M253.517 37.2934C253.542 36.742 254.294 36.5917 254.52 37.0929L256.727 41.8047C257.153 42.7069 257.279 43.7345 257.128 44.712L256.351 47.4438C256.125 48.7721 256.476 50.1506 257.304 51.2032C259.335 53.7345 263.649 58.3711 269.794 60.9024C268.791 63.0077 267.186 65.7145 264.928 68.1706C260.464 64.737 256.652 60.0754 254.545 53.7596C253.542 53.4588 252.865 52.5064 252.915 51.4538L253.517 37.2934Z" fill="white"/>
<path d="M274.886 70.2508C280.98 63.6844 292.567 60.727 299.289 59.524C302.224 58.9977 305.133 60.6268 306.161 63.4338C309.171 71.5541 317.397 92.6569 319.003 96.2909C320.307 99.2734 321.661 102.181 322.539 103.985C323.066 105.063 322.614 106.366 321.511 106.892C315.868 109.624 305.71 112.682 301.571 113.885C300.669 114.161 299.766 113.459 299.766 112.532C299.766 111.73 299.54 110.953 299.139 110.251L283.538 84.2609C273.807 95.0378 265.305 96.0153 258.759 93.6594C259.862 90.2508 260.589 86.8674 260.916 83.4589C270.597 81.8047 274.886 70.2508 274.886 70.2508Z" fill="#2CB6BF"/>
<path d="M244.939 81.6541L246.695 79.3232C252.338 83.208 257.053 84.1102 260.916 83.4586C260.565 86.8671 259.862 90.2756 258.759 93.6591C250.131 90.5764 244.939 81.6541 244.939 81.6541Z" fill="white"/>
<path d="M246.168 81.7043L236.336 82.0803L227.282 77.0427C228.586 76.2407 235.935 77.8948 235.935 77.8948C235.935 77.8948 243.61 76.7419 245.691 76.7419C247.422 76.7419 247.171 79.2231 247.046 80.0502C247.021 80.2256 246.996 80.3259 246.996 80.3259L246.168 81.7043Z" fill="white"/>
<path d="M290.059 47.4939L295.251 60.1255C295.251 60.1255 289.282 64.2358 284.491 63.8598L281.908 52.4814L290.059 47.4939Z" fill="white"/>
<path d="M281.281 38.8722C281.156 39.0476 277.519 52.1554 277.519 52.1554L285.044 54.0601L290.336 42.1554C290.361 42.1554 283.288 36.0652 281.281 38.8722Z" fill="white"/>
<path d="M287.526 43.96L285.244 50.4512C285.219 50.5264 285.169 50.6016 285.118 50.6768C284.817 51.1279 283.614 52.5565 282.234 51.2532C280.955 50.0753 279.776 49.0227 278.698 48.8222C278.221 48.747 277.745 49.0227 277.594 49.5239C277.268 50.7269 276.566 53.4086 276.315 55.8397C276.265 56.341 276.616 56.7921 277.093 56.8673C278.572 57.143 281.682 57.6442 284.291 57.4688C284.642 57.4437 284.943 57.2432 285.093 56.9174C285.821 55.3384 288.003 50.6016 288.83 49.3735C289.608 48.2207 291.489 48.2457 292.266 48.3209C292.517 48.346 292.768 48.2708 292.969 48.0953C293.671 47.4938 294.975 45.9399 293.119 44.0853C292.743 43.7094 292.743 43.0828 293.144 42.7069C293.947 41.955 294.8 40.6267 293.47 38.9976C292.116 37.3184 290.36 37.5941 289.257 37.9951C288.805 38.1455 288.329 37.97 288.103 37.569C287.978 37.3435 287.727 37.168 287.326 37.1931C286.774 37.2432 286.297 36.767 286.322 36.2156C286.347 35.1379 285.946 33.7846 284.115 33.2081C280.83 32.1806 278.773 35.3635 278.572 37.7445C278.372 40.1254 282.008 41.0277 284.14 40.8522C285.771 40.7269 286.974 42.3309 287.451 43.1079C287.601 43.3836 287.627 43.6843 287.526 43.96Z" fill="#1C7DAF"/>
<path d="M287.977 51.7297C287.977 51.7297 288.504 47.6194 290.235 47.4189C291.94 47.2184 293.62 48.6219 291.915 50.9276C289.783 53.8099 287.977 51.7297 287.977 51.7297Z" fill="white"/>
<path d="M210.904 32.0551C215.752 32.0551 219.683 28.1278 219.683 23.2832C219.683 18.4386 215.752 14.5112 210.904 14.5112C206.056 14.5112 202.126 18.4386 202.126 23.2832C202.126 28.1278 206.056 32.0551 210.904 32.0551Z" fill="white"/>
<path d="M190.338 57.4939C190.338 46.2157 199.492 37.0679 210.779 37.0679C222.065 37.0679 231.22 46.2157 231.22 57.4939" fill="white"/>
</g>
<defs>
<clipPath id="clip0_50_1013">
<rect width="357" height="313" fill="white"/>
</clipPath>
</defs>
</svg>
