<?xml version="1.0" standalone="no"?>
<!DOCTYPE svg PUBLIC "-//W3C//DTD SVG 1.1//EN" "http://www.w3.org/Graphics/SVG/1.1/DTD/svg11.dtd" >
<svg xmlns="http://www.w3.org/2000/svg" xmlns:xlink="http://www.w3.org/1999/xlink" version="1.1">
<metadata>
Created by FontForge 20170731 at Fri Aug 31 19:25:29 2018
 By Aleksey,,,
Copyright (c) 2012 by Vyacheslav Kirilenko, Gayane Bagdasaryan. All rights reserved. |DCNT
</metadata>
<defs>
<font id="Geometria-Bold" horiz-adv-x="650" >
  <font-face 
    font-family="Geometria"
    font-weight="700"
    font-stretch="normal"
    units-per-em="1000"
    panose-1="2 11 7 3 2 2 4 2 2 4"
    ascent="800"
    descent="-200"
    x-height="499"
    cap-height="700"
    bbox="-474 -270 1425 943"
    underline-thickness="50"
    underline-position="-250"
    unicode-range="U+000D-FEFF"
  />
<missing-glyph horiz-adv-x="741" 
d="M82 0v700h501v-700h-501zM191 95h283v510h-283v-510z" />
    <glyph glyph-name="ij" unicode="ij" horiz-adv-x="574" 
d="M76 0v499h141v-499h-141zM146 547q-35 0 -59.5 24.5t-24.5 59.5q0 36 24.5 60.5t59.5 24.5t59.5 -24.5t24.5 -60.5q0 -35 -24.5 -59.5t-59.5 -24.5zM317 -206q-76 0 -111 22v120q33 -19 75 -19q76 0 76 79v503h141v-517q0 -90 -48.5 -139t-132.5 -49zM426 547
q-35 0 -59.5 24.5t-24.5 59.5q0 36 24.5 60.5t59.5 24.5t60 -24.5t25 -60.5q0 -35 -25 -59.5t-60 -24.5z" />
    <glyph glyph-name="f_f" unicode="ff" horiz-adv-x="785" 
d="M248 0h-141v381h-89v118h89v47q0 74 43 120t126 46q73 0 127 -21v-114q-43 17 -86 17q-69 0 -69 -67v-28h219v47q0 74 43 120t126 46q73 0 127 -21v-114q-43 17 -86 17q-69 0 -69 -67v-28h155v-118h-155v-381h-141v381h-219v-381z" />
    <glyph glyph-name="fi" unicode="fi" horiz-adv-x="684" 
d="M467 0v381h-219v-381h-141v381h-89v118h89v47q0 74 43 120t126 46q73 0 127 -21v-114q-43 17 -86 17q-69 0 -69 -67v-28h360v-499h-141zM537 547q-35 0 -59.5 24.5t-24.5 59.5q0 36 24.5 60.5t59.5 24.5t59.5 -24.5t24.5 -60.5q0 -35 -24.5 -59.5t-59.5 -24.5z" />
    <glyph glyph-name="fl" unicode="fl" horiz-adv-x="716" 
d="M600 -13q-58 0 -95.5 31.5t-37.5 106.5v256h-219v-381h-141v381h-89v118h89v47q0 74 43 120t126 46q73 0 127 -21v-114q-43 17 -86 17q-69 0 -69 -67v-28h219v201h141v-538q0 -50 45 -50q21 0 36 9v-116q-36 -18 -89 -18z" />
    <glyph glyph-name="f_f_i" unicode="ffi" horiz-adv-x="1039" 
d="M608 0h-141v381h-219v-381h-141v381h-89v118h89v47q0 74 43 120t126 46q73 0 127 -21v-114q-43 17 -86 17q-69 0 -69 -67v-28h219v47q0 74 43 120t126 46q73 0 127 -21v-114q-43 17 -86 17q-69 0 -69 -67v-28h360v-499h-141v381h-219v-381zM897 547q-35 0 -59.5 24.5
t-24.5 59.5q0 36 24.5 60.5t59.5 24.5t59.5 -24.5t24.5 -60.5q0 -35 -24.5 -59.5t-59.5 -24.5z" />
    <glyph glyph-name="f_f_l" unicode="ffl" horiz-adv-x="1076" 
d="M608 0h-141v381h-219v-381h-141v381h-89v118h89v47q0 74 43 120t126 46q73 0 127 -21v-114q-43 17 -86 17q-69 0 -69 -67v-28h219v47q0 74 43 120t126 46q73 0 127 -21v-114q-43 17 -86 17q-69 0 -69 -67v-28h219v201h141v-538q0 -50 45 -50q21 0 36 9v-116
q-36 -18 -89 -18q-58 0 -95.5 31.5t-37.5 106.5v256h-219v-381z" />
    <glyph glyph-name=".notdef" horiz-adv-x="741" 
d="M82 0v700h501v-700h-501zM191 95h283v510h-283v-510z" />
    <glyph glyph-name=".null" horiz-adv-x="0" 
 />
    <glyph glyph-name=".null" horiz-adv-x="0" 
 />
    <glyph glyph-name="nonmarkingreturn" horiz-adv-x="333" 
 />
    <glyph glyph-name="CR" unicode="&#xd;" horiz-adv-x="256" 
 />
    <glyph glyph-name="space" unicode=" " horiz-adv-x="256" 
 />
    <glyph glyph-name="exclam" unicode="!" horiz-adv-x="333" 
d="M167 -11q-36 0 -61.5 25.5t-25.5 61.5q0 37 25.5 62t61.5 25t61 -25t25 -62q0 -36 -25 -61.5t-61 -25.5zM112 233l-31 467h172l-32 -467h-109z" />
    <glyph glyph-name="quotedbl" unicode="&#x22;" horiz-adv-x="391" 
d="M35 403v297h121v-297h-121zM236 403v297h122v-297h-122z" />
    <glyph glyph-name="numbersign" unicode="#" horiz-adv-x="774" 
d="M147 0l26 167h-138l17 109h138l24 148h-138l16 109h139l27 167h110l-27 -167h150l27 167h109l-26 -167h139l-18 -109h-138l-24 -148h139l-17 -109h-139l-27 -167h-109l27 167h-151l-26 -167h-110zM300 276h150l24 148h-150z" />
    <glyph glyph-name="dollar" unicode="$" horiz-adv-x="629" 
d="M246 -109v99q-123 14 -203 71v150q45 -38 118 -65.5t142 -27.5q56 0 95.5 20.5t39.5 60.5q0 13 -3 23t-12.5 18.5t-16.5 14.5t-25 13t-27.5 10t-35 10.5t-36.5 11.5q-37 12 -52 17t-46.5 17t-45.5 21.5t-35 26t-30.5 34.5t-17 43t-7.5 55q0 80 52 130.5t146 64.5v100h130
v-99q83 -11 165 -54v-140q-106 66 -227 66q-119 0 -119 -69q0 -11 4 -19.5t13.5 -16t19 -12.5t27 -11t30.5 -10t37 -10.5t39 -11.5q39 -13 66.5 -24.5t59 -30.5t51 -40.5t32.5 -53.5t13 -70q0 -85 -58.5 -140.5t-152.5 -70.5v-101h-130z" />
    <glyph glyph-name="percent" unicode="%" horiz-adv-x="818" 
d="M150 0l418 700h101l-418 -700h-101zM616 336q77 0 127 -49t50 -122t-50 -122t-127 -49t-127 49t-50 122t50 122t127 49zM616 84q35 0 57.5 23t22.5 58t-22.5 58t-57.5 23t-57.5 -23t-22.5 -58t22.5 -58t57.5 -23zM201 706q77 0 127 -49t50 -122t-50 -122t-127 -49
t-127 49t-50 122t50 122t127 49zM201 454q35 0 57.5 23t22.5 58t-22.5 58t-57.5 23t-57.5 -23t-22.5 -58t22.5 -58t57.5 -23z" />
    <glyph glyph-name="ampersand" unicode="&#x26;" horiz-adv-x="751" 
d="M513 663v-135q-82 63 -164 63q-41 0 -66 -21.5t-25 -54.5q0 -19 9 -36.5t19 -28.5t36 -37l175 -174q33 50 38 143h135q-4 -131 -77 -236l148 -146h-178l-58 55q-94 -69 -210 -69q-113 0 -185.5 59t-72.5 166q0 71 37 125t82 75q-37 50 -37 112q0 82 58 136.5t151 54.5
q104 0 185 -51zM304 109q60 0 108 39l-175 173q-25 -10 -43.5 -39t-18.5 -65q0 -51 36.5 -79.5t92.5 -28.5z" />
    <glyph glyph-name="quotesingle" unicode="'" horiz-adv-x="189" 
d="M35 403v297h121v-297h-121z" />
    <glyph glyph-name="parenleft" unicode="(" horiz-adv-x="388" 
d="M359 -206h-144q-144 182 -144 456q0 273 144 456h144q-159 -205 -159 -456t159 -456z" />
    <glyph glyph-name="parenright" unicode=")" horiz-adv-x="388" 
d="M173 -206h-144q159 205 159 456t-159 456h144q144 -183 144 -456q0 -274 -144 -456z" />
    <glyph glyph-name="asterisk" unicode="*" horiz-adv-x="421" 
d="M167 329l3 117l-100 -61l-43 74l103 56l-103 56l43 74l100 -62l-3 117h85l-3 -117l99 62l43 -74l-104 -56l104 -56l-43 -74l-99 61l3 -117h-85z" />
    <glyph glyph-name="plus" unicode="+" horiz-adv-x="641" 
d="M256 77v191h-190v126h190v192h128v-192h191v-126h-191v-191h-128z" />
    <glyph glyph-name="comma" unicode="," horiz-adv-x="280" 
d="M6 -152l86 303h151l-121 -303h-116z" />
    <glyph glyph-name="hyphen" unicode="-" horiz-adv-x="501" 
d="M96 214v127h309v-127h-309z" />
    <glyph glyph-name="period" unicode="." horiz-adv-x="263" 
d="M132 -11q-37 0 -62 25.5t-25 62.5q0 36 25 61t62 25q36 0 61.5 -25t25.5 -61q0 -37 -25.5 -62.5t-61.5 -25.5z" />
    <glyph glyph-name="slash" unicode="/" horiz-adv-x="533" 
d="M-20 -140l421 932h141l-421 -932h-141z" />
    <glyph glyph-name="zero" unicode="0" horiz-adv-x="705" 
d="M353 -14q-93 0 -163 52t-104.5 133.5t-34.5 178.5t34.5 178.5t104.5 133.5t163 52q138 0 219.5 -107t81.5 -257t-81.5 -257t-219.5 -107zM353 121q72 0 114.5 66.5t42.5 162.5t-42.5 162.5t-114.5 66.5t-115 -66.5t-43 -162.5t43 -162.5t115 -66.5z" />
    <glyph glyph-name="one" unicode="1" horiz-adv-x="390" 
d="M168 0v546l-148 -75v141l164 88h125v-700h-141z" />
    <glyph glyph-name="two" unicode="2" horiz-adv-x="578" 
d="M35 0v105l206 187q70 64 97.5 104t27.5 85t-33 71.5t-87 26.5q-99 0 -189 -80v148q85 67 204 67q101 0 174.5 -59t73.5 -155q0 -74 -32.5 -130.5t-115.5 -133.5l-120 -110h292v-126h-498z" />
    <glyph glyph-name="three" unicode="3" horiz-adv-x="577" 
d="M252 -14q-124 0 -213 56v137q93 -64 205 -64q61 0 103.5 31t42.5 86q0 51 -37 82.5t-102 31.5q-50 0 -99 -19v95l167 154h-258v124h442v-108l-158 -145q75 -14 132 -69t57 -146q0 -112 -81 -179t-201 -67z" />
    <glyph glyph-name="four" unicode="4" horiz-adv-x="641" 
d="M374 0v175h-351v104l349 421h142v-409h103v-116h-103v-175h-140zM182 291h192v228z" />
    <glyph glyph-name="five" unicode="5" horiz-adv-x="587" 
d="M246 -14q-111 0 -199 50v135q88 -56 193 -56q67 0 111 30t44 87q0 52 -41.5 84t-114.5 32q-83 0 -168 -30l46 382h374v-124h-268l-15 -119q33 7 67 7q115 0 189.5 -64t74.5 -168q0 -115 -84.5 -180.5t-208.5 -65.5z" />
    <glyph glyph-name="six" unicode="6" horiz-adv-x="638" 
d="M334 -14q-132 0 -205.5 87.5t-73.5 240.5q0 79 20 150t58.5 127.5t101 89.5t141.5 33q90 0 158 -45v-130q-66 45 -142 45q-87 0 -136 -53.5t-55 -136.5q57 65 163 65q96 0 160 -61.5t64 -164.5q0 -109 -72.5 -178t-181.5 -69zM325 110q53 0 86.5 33t33.5 87q0 51 -34 84
t-86 33q-41 0 -77 -25t-51 -63q3 -71 37 -110t91 -39z" />
    <glyph glyph-name="seven" unicode="7" horiz-adv-x="567" 
d="M80 0l286 571h-331v129h494v-111l-296 -589h-153z" />
    <glyph glyph-name="eight" unicode="8" horiz-adv-x="637" 
d="M468 373q59 -21 94.5 -67t35.5 -107q0 -99 -80.5 -156t-198.5 -57t-199 57t-81 156q0 61 35.5 107t94.5 67q-98 46 -98 147q0 86 70.5 140t177.5 54q106 0 176.5 -54t70.5 -140q0 -101 -98 -147zM319 594q-46 0 -77.5 -24.5t-31.5 -63.5q0 -38 31.5 -62.5t77.5 -24.5
t77 24.5t31 62.5q0 39 -31 63.5t-77 24.5zM319 107q56 0 93 29.5t37 71.5q0 45 -36.5 73.5t-93.5 28.5t-94 -28.5t-37 -73.5q0 -42 37.5 -71.5t93.5 -29.5z" />
    <glyph glyph-name="nine" unicode="9" horiz-adv-x="638" 
d="M304 714q132 0 205.5 -87.5t73.5 -240.5q0 -79 -20 -150t-58.5 -127.5t-101 -89.5t-141.5 -33q-90 0 -158 45v130q66 -45 142 -45q87 0 136 53.5t55 136.5q-57 -65 -163 -65q-96 0 -160 61.5t-64 164.5q0 109 72.5 178t181.5 69zM313 590q-53 0 -86.5 -33t-33.5 -87
q0 -51 34 -84t86 -33q41 0 77 25t51 64q-3 71 -36.5 109.5t-91.5 38.5z" />
    <glyph glyph-name="colon" unicode=":" horiz-adv-x="263" 
d="M132 319q-37 0 -62 25.5t-25 62.5q0 36 25 61t62 25q36 0 61.5 -25t25.5 -61q0 -37 -25.5 -62.5t-61.5 -25.5zM132 -11q-37 0 -62 25.5t-25 62.5q0 36 25 61t62 25q36 0 61.5 -25t25.5 -61q0 -37 -25.5 -62.5t-61.5 -25.5z" />
    <glyph glyph-name="semicolon" unicode=";" horiz-adv-x="285" 
d="M6 -152l86 303h151l-121 -303h-116zM161 319q-37 0 -62 25.5t-25 62.5q0 36 25 61t62 25q36 0 61.5 -25t25.5 -61q0 -37 -25.5 -62.5t-61.5 -25.5z" />
    <glyph glyph-name="less" unicode="&#x3c;" horiz-adv-x="641" 
d="M575 57l-509 206v133l509 207v-137l-363 -136l363 -136v-137z" />
    <glyph glyph-name="equal" unicode="=" horiz-adv-x="641" 
d="M66 381v127h509v-127h-509zM66 154v128h509v-128h-509z" />
    <glyph glyph-name="greater" unicode="&#x3e;" horiz-adv-x="641" 
d="M66 57v137l363 136l-363 136v137l509 -207v-133z" />
    <glyph glyph-name="question" unicode="?" horiz-adv-x="491" 
d="M149 233v148q67 14 118.5 47t51.5 77q0 40 -32.5 60t-82.5 20q-86 0 -179 -56v126q85 59 202 59q99 0 168 -53.5t69 -146.5q0 -72 -54.5 -125.5t-126.5 -75.5v-80h-134zM219 -11q-37 0 -62 25.5t-25 62.5q0 36 25 61t62 25q36 0 61.5 -25t25.5 -61q0 -37 -25.5 -62.5
t-61.5 -25.5z" />
    <glyph glyph-name="at" unicode="@" horiz-adv-x="940" 
d="M471 -162q-183 0 -309 124t-126 314q0 185 127 311.5t308 126.5q184 0 309 -120t125 -292q0 -113 -50.5 -180.5t-132.5 -67.5q-100 0 -143 72q-20 -29 -60 -52.5t-93 -23.5q-87 0 -143.5 64.5t-56.5 159.5t56.5 159.5t141.5 64.5q81 0 139 -65v53h121v-284
q0 -100 69 -100q45 0 79.5 54t34.5 146q0 155 -109.5 266t-286.5 111q-171 0 -284 -117.5t-113 -285.5q0 -171 111.5 -287t285.5 -116q112 0 217 60v-39q-96 -56 -217 -56zM462 159q67 0 101 56v118q-34 56 -101 56q-47 0 -77.5 -33t-30.5 -82t30.5 -82t77.5 -33z" />
    <glyph glyph-name="A" unicode="A" horiz-adv-x="770" 
d="M16 0l300 704h138l300 -704h-153l-69 162h-296l-69 -162h-151zM281 281h205l-102 243z" />
    <glyph glyph-name="B" unicode="B" horiz-adv-x="716" 
d="M77 0v700h329q96 0 154 -45.5t58 -129.5q0 -52 -26.5 -88.5t-61.5 -50.5q58 -13 100 -62t42 -125q0 -89 -66 -144t-177 -55h-352zM221 124h181q54 0 84 23.5t30 67.5q0 45 -30 68.5t-84 23.5h-181v-183zM221 426h162q45 0 70.5 20t25.5 56q0 38 -25 58t-71 20h-162v-154z
" />
    <glyph glyph-name="C" unicode="C" horiz-adv-x="677" 
d="M432 -14q-162 0 -270.5 102.5t-108.5 261.5t107.5 261.5t271.5 102.5q102 0 185 -44v-145q-79 54 -184 54q-100 0 -166.5 -65t-66.5 -164q0 -100 68 -164.5t171 -64.5q114 0 192 61v-145q-87 -51 -199 -51z" />
    <glyph glyph-name="D" unicode="D" horiz-adv-x="776" 
d="M77 0v700h262q170 0 277 -97.5t107 -252.5t-107 -252.5t-277 -97.5h-262zM221 129h106q118 0 183 58.5t65 162.5t-65 162.5t-183 58.5h-106v-442z" />
    <glyph glyph-name="E" unicode="E" horiz-adv-x="640" 
d="M77 0v700h514v-129h-370v-135h298v-127h-298v-180h381v-129h-525z" />
    <glyph glyph-name="F" unicode="F" horiz-adv-x="628" 
d="M77 0v700h513v-129h-369v-142h285v-127h-285v-302h-144z" />
    <glyph glyph-name="G" unicode="G" horiz-adv-x="767" 
d="M426 -14q-158 0 -265.5 103t-107.5 261q0 159 107 261.5t271 102.5q124 0 210 -53v-142q-95 60 -200 60q-107 0 -174 -63.5t-67 -168.5q0 -104 65 -166t161 -62q92 0 141 46v241h144v-309q-42 -47 -119 -79t-166 -32z" />
    <glyph glyph-name="H" unicode="H" horiz-adv-x="758" 
d="M77 0v700h144v-262h316v262h143v-700h-143v307h-316v-307h-144z" />
    <glyph glyph-name="I" unicode="I" horiz-adv-x="307" 
d="M82 0v700h143v-700h-143z" />
    <glyph glyph-name="J" unicode="J" horiz-adv-x="510" 
d="M196 -14q-108 0 -168 41v142q60 -48 138 -48q67 0 100 31t33 102v446h143v-470q0 -67 -19.5 -116t-54.5 -76t-77.5 -39.5t-94.5 -12.5z" />
    <glyph glyph-name="K" unicode="K" horiz-adv-x="706" 
d="M77 0v700h144v-276l258 276h176l-297 -321l348 -379h-184l-301 323v-323h-144z" />
    <glyph glyph-name="L" unicode="L" horiz-adv-x="603" 
d="M77 0v700h144v-571h355v-129h-499z" />
    <glyph glyph-name="M" unicode="M" horiz-adv-x="846" 
d="M77 0v700h143l203 -290l203 290h142v-700h-142v479l-161 -225h-80l-164 225v-479h-144z" />
    <glyph glyph-name="N" unicode="N" horiz-adv-x="771" 
d="M77 0v700h123l353 -448v448h140v-700h-119l-356 450v-450h-141z" />
    <glyph glyph-name="O" unicode="O" horiz-adv-x="832" 
d="M416 121q93 0 154.5 65t61.5 164t-61.5 164t-154.5 65t-154.5 -65t-61.5 -164t61.5 -164t154.5 -65zM416 -14q-156 0 -259.5 105.5t-103.5 258.5t103 258.5t260 105.5t260 -105.5t103 -258.5t-103.5 -258.5t-259.5 -105.5z" />
    <glyph glyph-name="P" unicode="P" horiz-adv-x="659" 
d="M77 0v700h306q113 0 178.5 -58t65.5 -153q0 -94 -65.5 -153t-178.5 -59h-162v-277h-144zM221 400h152q52 0 81 22.5t29 64.5t-29 64.5t-81 22.5h-152v-174z" />
    <glyph glyph-name="Q" unicode="Q" horiz-adv-x="832" 
d="M398 -12q-150 6 -247.5 110t-97.5 252q0 153 103 258.5t260 105.5t260 -105.5t103 -258.5q0 -113 -59.5 -203.5t-159.5 -131.5q39 -51 107 -51q48 0 83 21v-121q-50 -23 -106 -23q-118 0 -246 147zM416 121q93 0 154.5 65t61.5 164t-61.5 164t-154.5 65t-154.5 -65
t-61.5 -164t61.5 -164t154.5 -65z" />
    <glyph glyph-name="R" unicode="R" horiz-adv-x="730" 
d="M77 0v700h324q111 0 176 -57.5t65 -149.5q0 -70 -38.5 -121.5t-106.5 -72.5l216 -299h-167l-204 283h-121v-283h-144zM221 404h172q49 0 76.5 22t27.5 63t-27.5 63t-76.5 22h-172v-170z" />
    <glyph glyph-name="S" unicode="S" horiz-adv-x="629" 
d="M309 -14q-158 0 -266 75v150q45 -38 118 -65.5t142 -27.5q56 0 95.5 20.5t39.5 60.5q0 13 -3 23t-12.5 18.5t-16.5 14.5t-25 13t-27.5 10t-35 10.5t-36.5 11.5q-37 12 -52 17t-46.5 17t-45.5 21.5t-35 26t-30.5 34.5t-17 43t-7.5 55q0 93 71 146.5t193 53.5t229 -58v-140
q-106 66 -227 66q-119 0 -119 -69q0 -11 4 -19.5t13.5 -16t19 -12.5t27 -11t30.5 -10t37 -10.5t39 -11.5q39 -13 66.5 -24.5t59 -30.5t51 -40.5t32.5 -53.5t13 -70q0 -100 -79 -158.5t-199 -58.5z" />
    <glyph glyph-name="T" unicode="T" horiz-adv-x="647" 
d="M30 700h587v-129h-222v-571h-144v571h-221v129z" />
    <glyph glyph-name="U" unicode="U" horiz-adv-x="735" 
d="M367 -14q-131 0 -215 80.5t-84 227.5v406h143v-411q0 -83 43 -125.5t113 -42.5t113.5 42.5t43.5 125.5v411h144v-406q0 -147 -84.5 -227.5t-216.5 -80.5z" />
    <glyph glyph-name="V" unicode="V" horiz-adv-x="760" 
d="M312 -4l-294 704h159l204 -504l205 504h156l-294 -704h-136z" />
    <glyph glyph-name="W" unicode="W" horiz-adv-x="1075" 
d="M256 -4l-235 704h160l144 -472l158 474h112l159 -474l144 472h157l-236 -704h-127l-153 467l-156 -467h-127z" />
    <glyph glyph-name="X" unicode="X" horiz-adv-x="725" 
d="M216 700l147 -209l149 209h166l-231 -322l272 -378h-168l-190 261l-189 -261h-166l273 377l-231 323h168z" />
    <glyph glyph-name="Y" unicode="Y" horiz-adv-x="696" 
d="M277 0v314l-271 386h170l174 -249l175 249h165l-270 -383v-317h-143z" />
    <glyph glyph-name="Z" unicode="Z" horiz-adv-x="641" 
d="M33 0v102l364 469h-347v129h542v-101l-363 -470h379v-129h-575z" />
    <glyph glyph-name="bracketleft" unicode="[" horiz-adv-x="429" 
d="M79 -206v912h314v-111h-186v-690h186v-111h-314z" />
    <glyph glyph-name="backslash" unicode="\" horiz-adv-x="532" 
d="M412 -140l-421 932h141l421 -932h-141z" />
    <glyph glyph-name="bracketright" unicode="]" horiz-adv-x="429" 
d="M350 706v-912h-314v111h186v690h-186v111h314z" />
    <glyph glyph-name="asciicircum" unicode="^" horiz-adv-x="550" 
d="M34 339l174 399h134l174 -399h-133l-108 278l-107 -278h-134z" />
    <glyph glyph-name="underscore" unicode="_" horiz-adv-x="645" 
d="M4 -149v95h637v-95h-637z" />
    <glyph glyph-name="grave" unicode="`" horiz-adv-x="521" 
d="M304 722l95 -146h-122l-144 146h171z" />
    <glyph glyph-name="a" unicode="a" horiz-adv-x="602" 
d="M544 109q18 0 29 6v-103q-27 -21 -76 -21q-85 0 -113 64q-68 -68 -172 -68q-82 0 -133 45.5t-51 121.5q0 80 58 122t139 42q84 0 144 -31v15q0 94 -132 94q-80 0 -151 -42v118q76 40 185 40q107 0 172.5 -52t65.5 -144v-169q0 -38 35 -38zM369 147v50q-41 29 -104 29
q-45 0 -71.5 -16.5t-26.5 -48.5q0 -65 89 -65q75 0 113 51z" />
    <glyph glyph-name="b" unicode="b" horiz-adv-x="644" 
d="M374 -13q-108 0 -164 74v-61h-141v700h141v-262q58 74 164 74q102 0 168.5 -75.5t66.5 -186.5q0 -112 -66.5 -187.5t-168.5 -75.5zM334 110q59 0 97 40t38 100q0 59 -38 99t-97 40q-42 0 -74.5 -21t-49.5 -53v-130q17 -32 49.5 -53.5t74.5 -21.5z" />
    <glyph glyph-name="c" unicode="c" horiz-adv-x="516" 
d="M307 -13q-111 0 -191 72.5t-80 191.5q0 118 80.5 189.5t192.5 71.5q81 0 148 -33v-120q-65 30 -127 30q-65 0 -110 -38.5t-45 -100.5t45 -101t110 -39q74 0 135 34v-120q-67 -37 -158 -37z" />
    <glyph glyph-name="d" unicode="d" horiz-adv-x="645" 
d="M271 -13q-102 0 -168.5 75.5t-66.5 187.5q0 111 66.5 186.5t168.5 75.5q106 0 164 -74v262h141v-700h-141v61q-56 -74 -164 -74zM311 110q42 0 74.5 21.5t49.5 53.5v130q-17 32 -49.5 53t-74.5 21q-59 0 -97 -40t-38 -99q0 -60 38 -100t97 -40z" />
    <glyph glyph-name="e" unicode="e" horiz-adv-x="573" 
d="M313 -13q-117 0 -197 72t-80 191q0 111 72.5 186.5t187.5 75.5q109 0 173.5 -76.5t64.5 -187.5v-37h-358q11 -51 56 -77.5t111 -26.5q87 0 160 44v-113q-67 -51 -190 -51zM176 301h219q-2 42 -30.5 71t-74.5 29q-49 0 -79 -28t-35 -72z" />
    <glyph glyph-name="f" unicode="f" horiz-adv-x="425" 
d="M248 0h-141v381h-89v118h89v47q0 74 43 120t126 46q73 0 127 -21v-114q-43 17 -86 17q-69 0 -69 -67v-28h155v-118h-155v-381z" />
    <glyph glyph-name="g" unicode="g" horiz-adv-x="638" 
d="M433 499h141v-441q0 -53 -16.5 -97t-44.5 -74.5t-65.5 -51.5t-78.5 -31t-84 -10q-126 0 -196 43v127q79 -48 181 -48q69 0 116 31t47 104v31q-59 -71 -165 -71q-102 0 -167 72t-65 179q0 106 65 178t167 72q106 0 165 -71v58zM309 133q41 0 74 19.5t50 48.5v120
q-17 29 -50 48.5t-74 19.5q-59 0 -95.5 -36.5t-36.5 -91.5t37 -91.5t95 -36.5z" />
    <glyph glyph-name="h" unicode="h" horiz-adv-x="618" 
d="M210 0h-141v700h141v-262q68 74 167 74q87 0 134.5 -55t47.5 -151v-306h-141v277q0 58 -28 82t-67 24q-34 0 -64.5 -18.5t-48.5 -46.5v-318z" />
    <glyph glyph-name="i" unicode="i" horiz-adv-x="293" 
d="M76 0v499h141v-499h-141zM146 547q-35 0 -59.5 24.5t-24.5 59.5q0 36 24.5 60.5t59.5 24.5t59.5 -24.5t24.5 -60.5q0 -35 -24.5 -59.5t-59.5 -24.5z" />
    <glyph glyph-name="j" unicode="j" horiz-adv-x="293" 
d="M36 -206q-76 0 -111 22v120q33 -19 75 -19q76 0 76 79v503h141v-517q0 -90 -48.5 -139t-132.5 -49zM145 547q-35 0 -59.5 24.5t-24.5 59.5q0 36 24.5 60.5t59.5 24.5t60 -24.5t25 -60.5q0 -35 -25 -59.5t-60 -24.5z" />
    <glyph glyph-name="k" unicode="k" horiz-adv-x="599" 
d="M69 0v700h141v-383l172 182h173l-217 -225l251 -274h-182l-197 215v-215h-141z" />
    <glyph glyph-name="l" unicode="l" horiz-adv-x="318" 
d="M202 -13q-58 0 -95.5 31.5t-37.5 106.5v575h141v-538q0 -50 45 -50q21 0 36 9v-116q-36 -18 -89 -18z" />
    <glyph glyph-name="m" unicode="m" horiz-adv-x="926" 
d="M69 0v499h141v-61q57 74 152 74q56 0 96.5 -24.5t58.5 -60.5q25 37 71 61t101 24q80 0 129 -51t49 -149v-312h-141v280q0 103 -83 103q-32 0 -60.5 -19.5t-43.5 -48.5v-315h-141v280q0 103 -83 103q-31 0 -60.5 -19t-44.5 -47v-317h-141z" />
    <glyph glyph-name="n" unicode="n" horiz-adv-x="618" 
d="M210 0h-141v499h141v-60q69 73 167 73q87 0 134.5 -55t47.5 -151v-306h-141v277q0 58 -28 82t-67 24q-34 0 -64.5 -18.5t-48.5 -46.5v-318z" />
    <glyph glyph-name="o" unicode="o" horiz-adv-x="625" 
d="M313 110q60 0 99 40t39 100t-39 99.5t-99 39.5t-99 -39.5t-39 -99.5t39 -100t99 -40zM313 -13q-121 0 -199 75.5t-78 187.5q0 111 78 186.5t199 75.5t199 -76t78 -186q0 -112 -78 -187.5t-199 -75.5z" />
    <glyph glyph-name="p" unicode="p" horiz-adv-x="644" 
d="M374 512q102 0 168.5 -75.5t66.5 -187.5q0 -111 -66.5 -186.5t-168.5 -75.5q-106 0 -164 74v-261h-141v699h141v-61q56 74 164 74zM334 389q-42 0 -74.5 -21.5t-49.5 -53.5v-130q17 -32 49.5 -53t74.5 -21q59 0 97 40t38 99q0 60 -38 100t-97 40z" />
    <glyph glyph-name="q" unicode="q" horiz-adv-x="645" 
d="M271 512q108 0 164 -74v61h141v-699h-141v261q-58 -74 -164 -74q-102 0 -168.5 75.5t-66.5 186.5q0 112 66.5 187.5t168.5 75.5zM311 389q-59 0 -97 -40t-38 -100q0 -59 38 -99t97 -40q42 0 74.5 21t49.5 53v130q-17 32 -49.5 53.5t-74.5 21.5z" />
    <glyph glyph-name="r" unicode="r" horiz-adv-x="423" 
d="M69 0v499h141v-84q22 39 70.5 68t103.5 29q9 0 16 -1v-138q-19 5 -44 5q-51 0 -90.5 -26.5t-55.5 -60.5v-291h-141z" />
    <glyph glyph-name="s" unicode="s" horiz-adv-x="512" 
d="M253 -13q-134 0 -210 47v125q32 -22 87.5 -39.5t116.5 -17.5q86 0 86 42q0 11 -5.5 18.5t-19 12.5t-26.5 8.5t-36.5 9.5t-40.5 11q-84 21 -123 55t-39 100q0 72 58 112.5t162 40.5q113 0 187 -46v-120q-87 52 -181 52q-80 0 -80 -40q0 -10 6 -18t20.5 -13.5t26 -8.5
t35.5 -8.5t36 -8.5q80 -19 121.5 -56t41.5 -102q0 -70 -61 -113t-162 -43z" />
    <glyph glyph-name="t" unicode="t" horiz-adv-x="441" 
d="M116 155v226h-98v118h98v137h141v-137h142v-118h-142v-198q0 -38 16 -54t52 -16q35 0 73 18v-117q-43 -27 -119 -27q-163 0 -163 168z" />
    <glyph glyph-name="u" unicode="u" horiz-adv-x="619" 
d="M409 499h141v-499h-141v60q-66 -73 -167 -73q-87 0 -134.5 55t-47.5 151v306h141v-277q0 -58 28 -82t67 -24q34 0 64.5 18.5t48.5 46.5v318z" />
    <glyph glyph-name="v" unicode="v" horiz-adv-x="589" 
d="M230 -4l-217 503h152l132 -324l131 324h147l-217 -503h-128z" />
    <glyph glyph-name="w" unicode="w" horiz-adv-x="827" 
d="M188 -4l-169 503h141l99 -297l98 299h113l101 -299l97 297h140l-171 -503h-122l-104 301l-103 -301h-120z" />
    <glyph glyph-name="x" unicode="x" horiz-adv-x="581" 
d="M192 499l100 -140l101 140h156l-175 -238l190 -261h-158l-116 160l-117 -160h-156l191 260l-174 239h158z" />
    <glyph glyph-name="y" unicode="y" horiz-adv-x="579" 
d="M134 -206q-62 0 -100 20v123q35 -20 76 -20q38 0 63.5 24t47.5 76l-215 482h152l132 -328l125 328h149l-231 -551q-66 -154 -199 -154z" />
    <glyph glyph-name="z" unicode="z" horiz-adv-x="526" 
d="M32 0v93l252 288h-236v118h429v-96l-253 -285h269v-118h-461z" />
    <glyph glyph-name="braceleft" unicode="{" horiz-adv-x="409" 
d="M373 -206h-80q-78 0 -122.5 44.5t-44.5 122.5v111q0 58 -15 87t-62 35v112q47 6 62 33t15 84v116q0 77 44.5 122t122.5 45h80v-111h-50q-32 0 -50.5 -19.5t-18.5 -51.5v-142q0 -107 -80 -132q80 -25 80 -132v-142q0 -33 18 -52t51 -19h50v-111z" />
    <glyph glyph-name="bar" unicode="|" horiz-adv-x="346" 
d="M110 -111v871h126v-871h-126z" />
    <glyph glyph-name="braceright" unicode="}" horiz-adv-x="409" 
d="M116 -206h-80v111h50q33 0 51 19t18 52v142q0 107 80 132q-80 25 -80 132v142q0 32 -18.5 51.5t-50.5 19.5h-50v111h80q78 0 122.5 -45t44.5 -122v-116q0 -57 15 -84t62 -33v-112q-47 -6 -62 -35t-15 -87v-111q0 -78 -44.5 -122.5t-122.5 -44.5z" />
    <glyph glyph-name="asciitilde" unicode="~" horiz-adv-x="629" 
d="M444 169q-48 0 -130 27t-130 27q-75 0 -118 -46v126q14 19 47 31t71 12q49 0 130.5 -27t129.5 -27q76 0 119 46v-127q-15 -19 -48 -30.5t-71 -11.5z" />
    <glyph glyph-name="nbspace" unicode="&#xa0;" horiz-adv-x="256" 
 />
    <glyph glyph-name="exclamdown" unicode="&#xa1;" horiz-adv-x="333" 
d="M253 -200h-172l31 466h109zM167 336q-36 0 -61.5 25.5t-25.5 62.5q0 36 25.5 61t61.5 25t61 -25t25 -61q0 -37 -25 -62.5t-61 -25.5z" />
    <glyph glyph-name="cent" unicode="&#xa2;" horiz-adv-x="516" 
d="M242 504v112h119v-108q49 -6 96 -29v-121q-65 30 -127 30q-65 0 -110 -38t-45 -100t45 -101t110 -39q74 0 135 34v-120q-50 -27 -104 -34v-107h-119v111q-90 19 -148 88t-58 169t58 167t148 86z" />
    <glyph glyph-name="sterling" unicode="&#xa3;" horiz-adv-x="602" 
d="M47 0v129h14q42 0 54.5 18t12.5 64v71h-81v111h81v82q0 111 68 175t185 64q94 0 160 -35v-134q-61 34 -137 34q-132 0 -132 -124v-62h225v-111h-225v-91q0 -44 -29 -62h314v-129h-510z" />
    <glyph glyph-name="currency" unicode="&#xa4;" horiz-adv-x="575" 
d="M502 351q0 -67 -36 -119l66 -66l-61 -61l-65 66q-56 -37 -120 -37t-120 37l-65 -66l-61 61l66 66q-36 52 -36 119t36 119l-66 66l61 61l65 -66q56 37 120 37t120 -37l65 66l61 -61l-66 -66q36 -53 36 -119zM286 237q48 0 80 33t32 81t-32 81t-80 33t-80 -33t-32 -81
t32 -81t80 -33z" />
    <glyph glyph-name="yen" unicode="&#xa5;" horiz-adv-x="673" 
d="M69 223h196v70h-196v95h156l-215 312h162l166 -250l167 250h157l-215 -312h158v-95h-197v-70h197v-94h-197v-129h-143v129h-196v94z" />
    <glyph glyph-name="brokenbar" unicode="&#xa6;" horiz-adv-x="346" 
d="M110 -111v353h126v-353h-126zM110 407v353h126v-353h-126z" />
    <glyph glyph-name="section" unicode="&#xa7;" horiz-adv-x="646" 
d="M312 -166q-130 0 -223 53v130q112 -59 229 -59q104 0 104 53q0 9 -3.5 16.5t-13 14t-18.5 11.5t-26.5 11t-29.5 9.5t-37 11t-39 11.5q-49 15 -84 30t-68 37.5t-49.5 54t-16.5 71.5q0 90 100 132q-60 47 -60 117q0 82 70 129t186 47q119 0 223 -53v-131q-114 60 -228 60
q-105 0 -105 -53q0 -9 4 -17t13 -14.5t18.5 -11.5t26 -10.5t30 -9.5t37 -10.5t39.5 -11.5q50 -15 84.5 -30t67.5 -37.5t49.5 -54t16.5 -71.5q0 -90 -100 -132q60 -45 60 -117q0 -82 -70.5 -129t-186.5 -47zM411 181q66 15 66 65q0 9 -2.5 16.5t-8.5 14t-12 11.5t-17.5 11
t-19 9.5t-24 9t-25 8t-27.5 8.5t-28 9q-65 19 -78 25q-67 -18 -67 -67q0 -8 2.5 -15.5t8.5 -14t12.5 -11.5t17.5 -10.5t19.5 -9.5t23.5 -9t25 -8t27.5 -8.5t27.5 -8.5q7 -2 35.5 -11t43.5 -14z" />
    <glyph glyph-name="dieresis" unicode="&#xa8;" horiz-adv-x="521" 
d="M376 569q-31 0 -52.5 21.5t-21.5 52.5t21.5 52t52.5 21t52.5 -21t21.5 -52t-21.5 -52.5t-52.5 -21.5zM156 569q-30 0 -52 21.5t-22 52.5q0 30 22 51.5t52 21.5q32 0 53 -21t21 -52t-21 -52.5t-53 -21.5z" />
    <glyph glyph-name="copyright" unicode="&#xa9;" horiz-adv-x="830" 
d="M414 -14q-151 0 -256 107t-105 257q0 149 106 256.5t257 107.5t256 -107t105 -257q0 -149 -105.5 -256.5t-257.5 -107.5zM440 150q-88 0 -148.5 58.5t-60.5 141.5q0 84 60 141.5t149 57.5q57 0 101 -23v-85q-48 29 -101 29q-51 0 -86 -34.5t-35 -85.5t36 -85.5t89 -34.5
q62 0 105 33v-85q-46 -28 -109 -28zM414 20q138 0 232.5 97.5t94.5 233.5q0 137 -94 233t-231 96t-232 -97.5t-95 -233.5t94 -232.5t231 -96.5z" />
    <glyph glyph-name="ordfeminine" unicode="&#xaa;" horiz-adv-x="443" 
d="M282 432v40q-37 24 -86 24q-36 0 -57.5 -14t-21.5 -38q0 -53 72 -53q59 0 93 41zM404 398q13 0 21 5v-71q-19 -13 -52 -13q-64 0 -81 49q-53 -53 -131 -53q-60 0 -99 33.5t-39 90.5q0 59 43 90.5t104 31.5q62 0 112 -26v16q0 77 -103 77q-60 0 -113 -32v80q56 31 136 31
q78 0 126 -38.5t48 -107.5v-131q0 -32 28 -32z" />
    <glyph glyph-name="guillemotleft" unicode="&#xab;" horiz-adv-x="590" 
d="M169 35l-137 179v71l137 179h141l-161 -214l161 -215h-141zM417 35l-137 179v71l137 179h142l-162 -214l162 -215h-142z" />
    <glyph glyph-name="logicalnot" unicode="&#xac;" horiz-adv-x="595" 
d="M403 138v160h-337v127h463v-287h-126z" />
    <glyph glyph-name="uni00AD" unicode="&#xad;" horiz-adv-x="501" 
d="M96 214v127h309v-127h-309z" />
    <glyph glyph-name="registered" unicode="&#xae;" horiz-adv-x="830" 
d="M414 -14q-151 0 -256 107t-105 257q0 149 106 256.5t257 107.5t256 -107t105 -257q0 -149 -105.5 -256.5t-257.5 -107.5zM262 168v383h179q62 0 97.5 -31.5t35.5 -83.5q0 -39 -20 -67t-58 -39l118 -162h-95l-111 152h-61v-152h-85zM347 390h90q51 0 51 43q0 22 -13.5 34
t-37.5 12h-90v-89zM414 20q138 0 232.5 97.5t94.5 233.5q0 137 -94 233t-231 96t-232 -97.5t-95 -233.5t94 -232.5t231 -96.5z" />
    <glyph glyph-name="macron" unicode="&#xaf;" horiz-adv-x="507" 
d="M98 595v95h307v-95h-307z" />
    <glyph glyph-name="degree" unicode="&#xb0;" horiz-adv-x="394" 
d="M197 634q-32 0 -54 -22.5t-22 -55.5q0 -32 22 -55t54 -23t54 23t22 55q0 33 -22 55.5t-54 22.5zM197 714q64 0 112 -46.5t48 -111.5q0 -63 -48 -110t-112 -47t-112 47t-48 110q0 65 48 111.5t112 46.5z" />
    <glyph glyph-name="plusminus" unicode="&#xb1;" horiz-adv-x="641" 
d="M256 210v163h-190v126h190v167h128v-167h191v-126h-191v-163h-128zM66 19v126h509v-126h-509z" />
    <glyph glyph-name="twosuperior" unicode="&#xb2;" horiz-adv-x="356" 
d="M38 322v69l108 92q37 32 51 52.5t14 40.5t-15 31.5t-41 11.5q-54 0 -104 -39v95q47 32 112 32q57 0 100.5 -32.5t43.5 -86.5q0 -41 -17.5 -71.5t-62.5 -71.5l-48 -43h140v-80h-281z" />
    <glyph glyph-name="threesuperior" unicode="&#xb3;" horiz-adv-x="328" 
d="M144 315q-71 0 -122 30v88q56 -34 114 -34q30 0 51 14t21 37q0 22 -17 35.5t-48 13.5q-41 0 -61 -11v59l87 73h-136v80h253v-71l-80 -69q37 -8 67.5 -34.5t30.5 -77.5q0 -60 -46 -96.5t-114 -36.5z" />
    <glyph glyph-name="acute" unicode="&#xb4;" horiz-adv-x="458" 
d="M140 570l95 146h170l-143 -146h-122z" />
    <glyph glyph-name="mu" unicode="&#xb5;" horiz-adv-x="628" 
d="M418 499h141v-499h-141v60q-66 -73 -167 -73q-26 0 -41 4v-191h-141v699h141v-277q0 -58 28 -82t67 -24q34 0 64.5 18.5t48.5 46.5v318z" />
    <glyph glyph-name="paragraph" unicode="&#xb6;" horiz-adv-x="572" 
d="M351 0v288h-79q-110 0 -174.5 57.5t-64.5 148.5q0 92 64 149t175 57h223v-700h-144z" />
    <glyph glyph-name="periodcentered" unicode="&#xb7;" horiz-adv-x="263" 
d="M132 300q-37 0 -62 25.5t-25 62.5q0 36 25 61t62 25q36 0 61.5 -25t25.5 -61q0 -37 -25.5 -62.5t-61.5 -25.5z" />
    <glyph glyph-name="cedilla" unicode="&#xb8;" horiz-adv-x="503" 
d="M108 -145l117 156h113l-67 -156h-163z" />
    <glyph glyph-name="onesuperior" unicode="&#xb9;" horiz-adv-x="252" 
d="M118 322v280l-101 -51v94l105 55h92v-378h-96z" />
    <glyph glyph-name="ordmasculine" unicode="&#xba;" horiz-adv-x="449" 
d="M225 404q45 0 74 30.5t29 76.5q0 45 -29 75.5t-74 30.5q-47 0 -75.5 -30t-28.5 -76t29 -76.5t75 -30.5zM225 315q-89 0 -147.5 56t-58.5 140q0 83 58.5 139.5t147.5 56.5t147 -56.5t58 -139.5q0 -84 -58 -140t-147 -56z" />
    <glyph glyph-name="guillemotright" unicode="&#xbb;" horiz-adv-x="589" 
d="M31 35l161 215l-161 214h141l137 -179v-71l-137 -179h-141zM279 35l161 215l-161 214h141l137 -179v-71l-137 -179h-141z" />
    <glyph glyph-name="onequarter" unicode="&#xbc;" horiz-adv-x="765" 
d="M99 0l422 700h108l-422 -700h-108zM118 322v280l-101 -51v94l105 55h92v-378h-96zM604 1v90h-190v68l185 220h97v-214h54v-74h-54v-90h-92zM511 165h93v108z" />
    <glyph glyph-name="onehalf" unicode="&#xbd;" horiz-adv-x="806" 
d="M99 0l422 700h108l-422 -700h-108zM118 322v280l-101 -51v94l105 55h92v-378h-96zM488 1v69l108 92q37 32 51 52.5t14 40.5t-15 31.5t-41 11.5q-54 0 -104 -39v95q47 32 112 32q57 0 100.5 -32.5t43.5 -86.5q0 -41 -17.5 -71.5t-62.5 -71.5l-48 -43h140v-80h-281z" />
    <glyph glyph-name="threequarters" unicode="&#xbe;" horiz-adv-x="808" 
d="M143 0l422 700h108l-422 -700h-108zM647 1v90h-190v68l185 220h97v-214h54v-74h-54v-90h-92zM554 165h93v108zM144 315q-71 0 -122 30v88q56 -34 114 -34q30 0 51 14t21 37q0 22 -17 35.5t-48 13.5q-41 0 -61 -11v59l87 73h-136v80h253v-71l-80 -69q37 -8 67.5 -34.5
t30.5 -77.5q0 -60 -46 -96.5t-114 -36.5z" />
    <glyph glyph-name="questiondown" unicode="&#xbf;" horiz-adv-x="491" 
d="M272 510q37 0 62 -25.5t25 -62.5q0 -36 -25 -61t-62 -25q-36 0 -61.5 25t-25.5 61q0 37 25.5 62.5t61.5 25.5zM342 266v-141q-67 -14 -118.5 -47t-51.5 -76q0 -40 32.5 -59.5t82.5 -19.5q86 0 179 56v-126q-85 -59 -202 -59q-98 0 -167.5 54.5t-69.5 149.5q0 72 53.5 122
t127.5 73v73h134z" />
    <glyph glyph-name="Agrave" unicode="&#xc0;" horiz-adv-x="770" 
d="M16 0l300 704h138l300 -704h-153l-69 162h-296l-69 -162h-151zM281 281h205l-102 243zM355 907l95 -146h-122l-143 146h170z" />
    <glyph glyph-name="Aacute" unicode="&#xc1;" horiz-adv-x="770" 
d="M16 0l300 704h138l300 -704h-153l-69 162h-296l-69 -162h-151zM281 281h205l-102 243zM325 761l95 146h170l-143 -146h-122z" />
    <glyph glyph-name="Acircumflex" unicode="&#xc2;" horiz-adv-x="770" 
d="M16 0l300 704h138l300 -704h-153l-69 162h-296l-69 -162h-151zM281 281h205l-102 243zM197 762l122 145h136l119 -145h-123l-67 77l-65 -77h-122z" />
    <glyph glyph-name="Atilde" unicode="&#xc3;" horiz-adv-x="770" 
d="M16 0l300 704h138l300 -704h-153l-69 162h-296l-69 -162h-151zM281 281h205l-102 243zM280 765h-77q0 59 31.5 99.5t82.5 40.5q29 0 70.5 -22t61.5 -22q34 0 43 41h76q0 -56 -32 -98.5t-81 -42.5q-31 0 -72 22.5t-61 22.5q-35 0 -42 -41z" />
    <glyph glyph-name="Adieresis" unicode="&#xc4;" horiz-adv-x="770" 
d="M16 0l300 704h138l300 -704h-153l-69 162h-296l-69 -162h-151zM281 281h205l-102 243zM496 760q-31 0 -52.5 21.5t-21.5 52.5t21.5 52t52.5 21t52 -21t21 -52t-21 -52.5t-52 -21.5zM276 760q-30 0 -52 21.5t-22 52.5q0 30 22 51.5t52 21.5q31 0 52.5 -21t21.5 -52
t-21.5 -52.5t-52.5 -21.5z" />
    <glyph glyph-name="Aring" unicode="&#xc5;" horiz-adv-x="770" 
d="M16 0l300 704h138l300 -704h-153l-69 162h-296l-69 -162h-151zM281 281h205l-102 243zM385 733q-44 0 -74.5 31t-30.5 74t30.5 74t74.5 31q43 0 74 -31t31 -74t-31 -74t-74 -31zM385 792q19 0 32.5 13.5t13.5 32.5q0 20 -13.5 33t-32.5 13t-32.5 -13t-13.5 -33
q0 -19 13.5 -32.5t32.5 -13.5z" />
    <glyph glyph-name="AE" unicode="&#xc6;" horiz-adv-x="1058" 
d="M646 129h374v-129h-518v162h-250l-90 -162h-158l395 700h610v-129h-363v-135h291v-127h-291v-180zM483 575l-164 -294h183v294h-19z" />
    <glyph glyph-name="Ccedilla" unicode="&#xc7;" horiz-adv-x="677" 
d="M269 -145l101 136q-139 18 -228 117t-89 242q0 159 107.5 261.5t271.5 102.5q102 0 185 -44v-145q-79 54 -184 54q-100 0 -166.5 -65t-66.5 -164q0 -100 68 -164.5t171 -64.5q114 0 192 61v-145q-63 -37 -141 -47l-58 -135h-163z" />
    <glyph glyph-name="Egrave" unicode="&#xc8;" horiz-adv-x="640" 
d="M77 0v700h514v-129h-370v-135h298v-127h-298v-180h381v-129h-525zM323 907l95 -146h-122l-143 146h170z" />
    <glyph glyph-name="Eacute" unicode="&#xc9;" horiz-adv-x="640" 
d="M77 0v700h514v-129h-370v-135h298v-127h-298v-180h381v-129h-525zM244 761l95 146h170l-143 -146h-122z" />
    <glyph glyph-name="Ecircumflex" unicode="&#xca;" horiz-adv-x="640" 
d="M77 0v700h514v-129h-370v-135h298v-127h-298v-180h381v-129h-525zM150 762l122 145h136l119 -145h-123l-67 77l-65 -77h-122z" />
    <glyph glyph-name="Edieresis" unicode="&#xcb;" horiz-adv-x="640" 
d="M450 760q-31 0 -52.5 21.5t-21.5 52.5t21.5 52t52.5 21t52 -21t21 -52t-21 -52.5t-52 -21.5zM230 760q-30 0 -52 21.5t-22 52.5q0 30 22 51.5t52 21.5q31 0 52.5 -21t21.5 -52t-21.5 -52.5t-52.5 -21.5zM77 0v700h514v-129h-370v-135h298v-127h-298v-180h381v-129h-525z
" />
    <glyph glyph-name="Igrave" unicode="&#xcc;" horiz-adv-x="307" 
d="M82 0v700h143v-700h-143zM123 907l95 -146h-122l-143 146h170z" />
    <glyph glyph-name="Iacute" unicode="&#xcd;" horiz-adv-x="307" 
d="M82 0v700h143v-700h-143zM94 761l95 146h170l-143 -146h-122z" />
    <glyph glyph-name="Icircumflex" unicode="&#xce;" horiz-adv-x="307" 
d="M82 0v700h143v-700h-143zM-34 762l122 145h136l119 -145h-123l-67 77l-65 -77h-122z" />
    <glyph glyph-name="Idieresis" unicode="&#xcf;" horiz-adv-x="307" 
d="M82 0v700h143v-700h-143zM265 760q-31 0 -52.5 21.5t-21.5 52.5t21.5 52t52.5 21t52 -21t21 -52t-21 -52.5t-52 -21.5zM45 760q-30 0 -52 21.5t-22 52.5q0 30 22 51.5t52 21.5q31 0 52.5 -21t21.5 -52t-21.5 -52.5t-52.5 -21.5z" />
    <glyph glyph-name="Eth" unicode="&#xd0;" horiz-adv-x="830" 
d="M131 0v306h-96v121h96v273h262q171 0 277.5 -97.5t106.5 -252.5t-106.5 -252.5t-277.5 -97.5h-262zM275 129h106q118 0 183 58.5t65 162.5t-65 162.5t-183 58.5h-106v-144h138v-121h-138v-177z" />
    <glyph glyph-name="Ntilde" unicode="&#xd1;" horiz-adv-x="771" 
d="M77 0v700h123l353 -448v448h140v-700h-119l-356 450v-450h-141zM280 765h-77q0 59 31.5 99.5t82.5 40.5q29 0 70.5 -22t61.5 -22q34 0 43 41h76q0 -56 -32 -98.5t-81 -42.5q-31 0 -72 22.5t-61 22.5q-35 0 -42 -41z" />
    <glyph glyph-name="Ograve" unicode="&#xd2;" horiz-adv-x="832" 
d="M416 121q93 0 154.5 65t61.5 164t-61.5 164t-154.5 65t-154.5 -65t-61.5 -164t61.5 -164t154.5 -65zM416 -14q-156 0 -259.5 105.5t-103.5 258.5t103 258.5t260 105.5t260 -105.5t103 -258.5t-103.5 -258.5t-259.5 -105.5zM384 907l95 -146h-122l-143 146h170z" />
    <glyph glyph-name="Oacute" unicode="&#xd3;" horiz-adv-x="832" 
d="M416 121q93 0 154.5 65t61.5 164t-61.5 164t-154.5 65t-154.5 -65t-61.5 -164t61.5 -164t154.5 -65zM416 -14q-156 0 -259.5 105.5t-103.5 258.5t103 258.5t260 105.5t260 -105.5t103 -258.5t-103.5 -258.5t-259.5 -105.5zM343 761l95 146h170l-143 -146h-122z" />
    <glyph glyph-name="Ocircumflex" unicode="&#xd4;" horiz-adv-x="832" 
d="M416 121q93 0 154.5 65t61.5 164t-61.5 164t-154.5 65t-154.5 -65t-61.5 -164t61.5 -164t154.5 -65zM416 -14q-156 0 -259.5 105.5t-103.5 258.5t103 258.5t260 105.5t260 -105.5t103 -258.5t-103.5 -258.5t-259.5 -105.5zM228 762l122 145h136l119 -145h-123l-67 77
l-65 -77h-122z" />
    <glyph glyph-name="Otilde" unicode="&#xd5;" horiz-adv-x="832" 
d="M416 121q93 0 154.5 65t61.5 164t-61.5 164t-154.5 65t-154.5 -65t-61.5 -164t61.5 -164t154.5 -65zM416 -14q-156 0 -259.5 105.5t-103.5 258.5t103 258.5t260 105.5t260 -105.5t103 -258.5t-103.5 -258.5t-259.5 -105.5zM311 765h-77q0 59 31.5 99.5t82.5 40.5
q29 0 70.5 -22t61.5 -22q34 0 43 41h76q0 -56 -32 -98.5t-81 -42.5q-32 0 -73 22.5t-60 22.5q-35 0 -42 -41z" />
    <glyph glyph-name="Odieresis" unicode="&#xd6;" horiz-adv-x="832" 
d="M416 121q93 0 154.5 65t61.5 164t-61.5 164t-154.5 65t-154.5 -65t-61.5 -164t61.5 -164t154.5 -65zM416 -14q-156 0 -259.5 105.5t-103.5 258.5t103 258.5t260 105.5t260 -105.5t103 -258.5t-103.5 -258.5t-259.5 -105.5zM527 760q-31 0 -52.5 21.5t-21.5 52.5t21.5 52
t52.5 21t52 -21t21 -52t-21 -52.5t-52 -21.5zM307 760q-30 0 -52 21.5t-22 52.5q0 30 22 51.5t52 21.5q31 0 52.5 -21t21.5 -52t-21.5 -52.5t-52.5 -21.5z" />
    <glyph glyph-name="multiply" unicode="&#xd7;" horiz-adv-x="600" 
d="M155 97l-89 89l146 145l-146 146l89 89l145 -145l146 145l88 -89l-144 -146l144 -145l-88 -89l-145 145z" />
    <glyph glyph-name="Oslash" unicode="&#xd8;" horiz-adv-x="832" 
d="M416 -14q-111 0 -198 56l-34 -42h-112l80 97q-99 102 -99 253q0 153 103 258.5t260 105.5q107 0 197 -56l35 42h114l-81 -98q98 -101 98 -252q0 -153 -103.5 -258.5t-259.5 -105.5zM200 350q0 -80 43 -142l282 342q-50 29 -109 29q-93 0 -154.5 -65t-61.5 -164zM416 121
q93 0 154.5 65t61.5 164q0 78 -43 140l-282 -341q49 -28 109 -28z" />
    <glyph glyph-name="Ugrave" unicode="&#xd9;" horiz-adv-x="735" 
d="M367 -14q-131 0 -215 80.5t-84 227.5v406h143v-411q0 -83 43 -125.5t113 -42.5t113.5 42.5t43.5 125.5v411h144v-406q0 -147 -84.5 -227.5t-216.5 -80.5zM341 907l95 -146h-122l-143 146h170z" />
    <glyph glyph-name="Uacute" unicode="&#xda;" horiz-adv-x="735" 
d="M367 -14q-131 0 -215 80.5t-84 227.5v406h143v-411q0 -83 43 -125.5t113 -42.5t113.5 42.5t43.5 125.5v411h144v-406q0 -147 -84.5 -227.5t-216.5 -80.5zM301 761l95 146h170l-143 -146h-122z" />
    <glyph glyph-name="Ucircumflex" unicode="&#xdb;" horiz-adv-x="735" 
d="M367 -14q-131 0 -215 80.5t-84 227.5v406h143v-411q0 -83 43 -125.5t113 -42.5t113.5 42.5t43.5 125.5v411h144v-406q0 -147 -84.5 -227.5t-216.5 -80.5zM180 762l122 145h136l119 -145h-123l-67 77l-65 -77h-122z" />
    <glyph glyph-name="Udieresis" unicode="&#xdc;" horiz-adv-x="735" 
d="M367 -14q-131 0 -215 80.5t-84 227.5v406h143v-411q0 -83 43 -125.5t113 -42.5t113.5 42.5t43.5 125.5v411h144v-406q0 -147 -84.5 -227.5t-216.5 -80.5zM478 760q-31 0 -52.5 21.5t-21.5 52.5t21.5 52t52.5 21t52 -21t21 -52t-21 -52.5t-52 -21.5zM258 760
q-30 0 -52 21.5t-22 52.5q0 30 22 51.5t52 21.5q31 0 52.5 -21t21.5 -52t-21.5 -52.5t-52.5 -21.5z" />
    <glyph glyph-name="Yacute" unicode="&#xdd;" horiz-adv-x="696" 
d="M277 0v314l-271 386h170l174 -249l175 249h165l-270 -383v-317h-143zM279 761l95 146h170l-143 -146h-122z" />
    <glyph glyph-name="Thorn" unicode="&#xde;" horiz-adv-x="668" 
d="M221 700v-139h171q113 0 178.5 -58t65.5 -153q0 -94 -65.5 -153t-178.5 -59h-171v-138h-144v700h144zM382 435h-161v-174h161q52 0 81 22.5t29 64.5t-29 64.5t-81 22.5z" />
    <glyph glyph-name="germandbls" unicode="&#xdf;" horiz-adv-x="626" 
d="M374 -9q-60 0 -91 12v113q30 -11 63 -11q49 0 78.5 28t29.5 75q0 54 -37 84t-103 30h-18v102h17q45 0 69 21.5t24 59.5t-25.5 59.5t-67.5 21.5q-46 0 -74.5 -29.5t-28.5 -84.5v-472h-141v473q0 111 67.5 175t174.5 64q108 0 169 -54.5t61 -136.5q0 -54 -25 -91t-58 -48
q54 -16 93.5 -64.5t39.5 -123.5q0 -98 -60.5 -150.5t-156.5 -52.5z" />
    <glyph glyph-name="agrave" unicode="&#xe0;" horiz-adv-x="602" 
d="M544 109q18 0 29 6v-103q-27 -21 -76 -21q-85 0 -113 64q-68 -68 -172 -68q-82 0 -133 45.5t-51 121.5q0 80 58 122t139 42q84 0 144 -31v15q0 94 -132 94q-80 0 -151 -42v118q76 40 185 40q107 0 172.5 -52t65.5 -144v-169q0 -38 35 -38zM369 147v50q-41 29 -104 29
q-45 0 -71.5 -16.5t-26.5 -48.5q0 -65 89 -65q75 0 113 51zM277 722l95 -146h-122l-144 146h171z" />
    <glyph glyph-name="aacute" unicode="&#xe1;" horiz-adv-x="602" 
d="M544 109q18 0 29 6v-103q-27 -21 -76 -21q-85 0 -113 64q-68 -68 -172 -68q-82 0 -133 45.5t-51 121.5q0 80 58 122t139 42q84 0 144 -31v15q0 94 -132 94q-80 0 -151 -42v118q76 40 185 40q107 0 172.5 -52t65.5 -144v-169q0 -38 35 -38zM369 147v50q-41 29 -104 29
q-45 0 -71.5 -16.5t-26.5 -48.5q0 -65 89 -65q75 0 113 51zM193 570l95 146h170l-143 -146h-122z" />
    <glyph glyph-name="acircumflex" unicode="&#xe2;" horiz-adv-x="602" 
d="M544 109q18 0 29 6v-103q-27 -21 -76 -21q-85 0 -113 64q-68 -68 -172 -68q-82 0 -133 45.5t-51 121.5q0 80 58 122t139 42q84 0 144 -31v15q0 94 -132 94q-80 0 -151 -42v118q76 40 185 40q107 0 172.5 -52t65.5 -144v-169q0 -38 35 -38zM369 147v50q-41 29 -104 29
q-45 0 -71.5 -16.5t-26.5 -48.5q0 -65 89 -65q75 0 113 51zM83 570l122 146h136l119 -146h-124l-66 78l-66 -78h-121z" />
    <glyph glyph-name="atilde" unicode="&#xe3;" horiz-adv-x="602" 
d="M544 109q18 0 29 6v-103q-27 -21 -76 -21q-85 0 -113 64q-68 -68 -172 -68q-82 0 -133 45.5t-51 121.5q0 80 58 122t139 42q84 0 144 -31v15q0 94 -132 94q-80 0 -151 -42v118q76 40 185 40q107 0 172.5 -52t65.5 -144v-169q0 -38 35 -38zM369 147v50q-41 29 -104 29
q-45 0 -71.5 -16.5t-26.5 -48.5q0 -65 89 -65q75 0 113 51zM176 576h-76q0 58 31.5 99t81.5 41q30 0 71.5 -22t61.5 -22q35 0 42 41h77q0 -55 -32 -98t-81 -43q-32 0 -72.5 22.5t-60.5 22.5q-34 0 -43 -41z" />
    <glyph glyph-name="adieresis" unicode="&#xe4;" horiz-adv-x="602" 
d="M544 109q18 0 29 6v-103q-27 -21 -76 -21q-85 0 -113 64q-68 -68 -172 -68q-82 0 -133 45.5t-51 121.5q0 80 58 122t139 42q84 0 144 -31v15q0 94 -132 94q-80 0 -151 -42v118q76 40 185 40q107 0 172.5 -52t65.5 -144v-169q0 -38 35 -38zM369 147v50q-41 29 -104 29
q-45 0 -71.5 -16.5t-26.5 -48.5q0 -65 89 -65q75 0 113 51zM390 569q-31 0 -52.5 21.5t-21.5 52.5t21.5 52t52.5 21t52.5 -21t21.5 -52t-21.5 -52.5t-52.5 -21.5zM170 569q-30 0 -52 21.5t-22 52.5q0 30 22 51.5t52 21.5q32 0 53 -21t21 -52t-21 -52.5t-53 -21.5z" />
    <glyph glyph-name="aring" unicode="&#xe5;" horiz-adv-x="602" 
d="M544 109q18 0 29 6v-103q-27 -21 -76 -21q-85 0 -113 64q-68 -68 -172 -68q-82 0 -133 45.5t-51 121.5q0 80 58 122t139 42q84 0 144 -31v15q0 94 -132 94q-80 0 -151 -42v118q76 40 185 40q107 0 172.5 -52t65.5 -144v-169q0 -38 35 -38zM369 147v50q-41 29 -104 29
q-45 0 -71.5 -16.5t-26.5 -48.5q0 -65 89 -65q75 0 113 51zM277 545q-44 0 -74.5 31t-30.5 74t30.5 74t74.5 31q43 0 74 -31t31 -74t-31 -74t-74 -31zM277 604q19 0 32.5 13.5t13.5 32.5q0 20 -13.5 33t-32.5 13t-32.5 -13t-13.5 -33q0 -19 13.5 -32.5t32.5 -13.5z" />
    <glyph glyph-name="ae" unicode="&#xe6;" horiz-adv-x="903" 
d="M864 248v-37h-358q11 -51 56 -77.5t111 -26.5q87 0 160 44v-113q-67 -51 -190 -51q-138 0 -217 93q-31 -38 -86 -65.5t-124 -27.5q-84 0 -136 45.5t-52 121.5q0 80 58 122t139 42q84 0 144 -31v15q0 94 -132 94q-80 0 -151 -42v118q76 40 185 40q117 0 180 -68
q73 68 172 68q112 0 176.5 -76.5t64.5 -187.5zM256 94q41 0 75.5 16.5t50.5 43.5q-8 22 -12 45q-41 29 -105 29q-45 0 -71.5 -17.5t-26.5 -49.5q0 -34 25 -50.5t64 -16.5zM506 301h219q-2 42 -30.5 71t-74.5 29q-49 0 -79 -28t-35 -72z" />
    <glyph glyph-name="ccedilla" unicode="&#xe7;" horiz-adv-x="516" 
d="M36 251q0 118 80.5 189.5t192.5 71.5q81 0 148 -33v-120q-65 30 -127 30q-65 0 -110 -38.5t-45 -100.5t45 -101t110 -39q74 0 135 34v-120q-34 -18 -83 -30l-59 -139h-163l101 136q-97 15 -161 84t-64 176z" />
    <glyph glyph-name="egrave" unicode="&#xe8;" horiz-adv-x="573" 
d="M313 -13q-117 0 -197 72t-80 191q0 111 72.5 186.5t187.5 75.5q109 0 173.5 -76.5t64.5 -187.5v-37h-358q11 -51 56 -77.5t111 -26.5q87 0 160 44v-113q-67 -51 -190 -51zM176 301h219q-2 42 -30.5 71t-74.5 29q-49 0 -79 -28t-35 -72zM298 722l95 -146h-122l-144 146
h171z" />
    <glyph glyph-name="eacute" unicode="&#xe9;" horiz-adv-x="573" 
d="M313 -13q-117 0 -197 72t-80 191q0 111 72.5 186.5t187.5 75.5q109 0 173.5 -76.5t64.5 -187.5v-37h-358q11 -51 56 -77.5t111 -26.5q87 0 160 44v-113q-67 -51 -190 -51zM176 301h219q-2 42 -30.5 71t-74.5 29q-49 0 -79 -28t-35 -72zM217 570l95 146h170l-143 -146
h-122z" />
    <glyph glyph-name="ecircumflex" unicode="&#xea;" horiz-adv-x="573" 
d="M313 -13q-117 0 -197 72t-80 191q0 111 72.5 186.5t187.5 75.5q109 0 173.5 -76.5t64.5 -187.5v-37h-358q11 -51 56 -77.5t111 -26.5q87 0 160 44v-113q-67 -51 -190 -51zM176 301h219q-2 42 -30.5 71t-74.5 29q-49 0 -79 -28t-35 -72zM99 570l122 146h136l119 -146h-124
l-66 78l-66 -78h-121z" />
    <glyph glyph-name="edieresis" unicode="&#xeb;" horiz-adv-x="573" 
d="M313 -13q-117 0 -197 72t-80 191q0 111 72.5 186.5t187.5 75.5q109 0 173.5 -76.5t64.5 -187.5v-37h-358q11 -51 56 -77.5t111 -26.5q87 0 160 44v-113q-67 -51 -190 -51zM176 301h219q-2 42 -30.5 71t-74.5 29q-49 0 -79 -28t-35 -72zM398 569q-31 0 -52.5 21.5
t-21.5 52.5t21.5 52t52.5 21t52.5 -21t21.5 -52t-21.5 -52.5t-52.5 -21.5zM178 569q-30 0 -52 21.5t-22 52.5q0 30 22 51.5t52 21.5q32 0 53 -21t21 -52t-21 -52.5t-53 -21.5z" />
    <glyph glyph-name="igrave" unicode="&#xec;" horiz-adv-x="267" 
d="M104 722l95 -146h-122l-144 146h171zM63 0v499h141v-499h-141z" />
    <glyph glyph-name="iacute" unicode="&#xed;" horiz-adv-x="267" 
d="M63 0v499h141v-499h-141zM71 570l95 146h170l-143 -146h-122z" />
    <glyph glyph-name="icircumflex" unicode="&#xee;" horiz-adv-x="267" 
d="M63 0v499h141v-499h-141zM-54 570l122 146h136l119 -146h-124l-66 78l-66 -78h-121z" />
    <glyph glyph-name="idieresis" unicode="&#xef;" horiz-adv-x="266" 
d="M244 569q-31 0 -52.5 21.5t-21.5 52.5t21.5 52t52.5 21t52.5 -21t21.5 -52t-21.5 -52.5t-52.5 -21.5zM24 569q-30 0 -52 21.5t-22 52.5q0 30 22 51.5t52 21.5q32 0 53 -21t21 -52t-21 -52.5t-53 -21.5zM63 0v499h141v-499h-141z" />
    <glyph glyph-name="eth" unicode="&#xf0;" horiz-adv-x="602" 
d="M301 -13q-115 0 -190 71t-75 173q0 101 62 164t161 63q59 0 94 -17l-80 106l-120 -46l-51 69l115 45l-68 85h152l32 -42l99 37l50 -70l-95 -36l81 -111q53 -73 76 -123.5t23 -112.5q0 -107 -75.5 -181t-190.5 -74zM301 111q54 0 90.5 35.5t36.5 87.5q0 53 -36 88.5
t-91 35.5q-54 0 -90 -35.5t-36 -88.5q0 -52 36 -87.5t90 -35.5z" />
    <glyph glyph-name="ntilde" unicode="&#xf1;" horiz-adv-x="618" 
d="M210 0h-141v499h141v-60q69 73 167 73q87 0 134.5 -55t47.5 -151v-306h-141v277q0 58 -28 82t-67 24q-34 0 -64.5 -18.5t-48.5 -46.5v-318zM208 576h-76q0 58 31.5 99t81.5 41q30 0 71.5 -22t61.5 -22q35 0 42 41h77q0 -55 -32 -98t-81 -43q-32 0 -73 22.5t-60 22.5
q-34 0 -43 -41z" />
    <glyph glyph-name="ograve" unicode="&#xf2;" horiz-adv-x="625" 
d="M313 110q60 0 99 40t39 100t-39 99.5t-99 39.5t-99 -39.5t-39 -99.5t39 -100t99 -40zM313 -13q-121 0 -199 75.5t-78 187.5q0 111 78 186.5t199 75.5t199 -76t78 -186q0 -112 -78 -187.5t-199 -75.5zM290 722l95 -146h-122l-144 146h171z" />
    <glyph glyph-name="oacute" unicode="&#xf3;" horiz-adv-x="625" 
d="M313 110q60 0 99 40t39 100t-39 99.5t-99 39.5t-99 -39.5t-39 -99.5t39 -100t99 -40zM313 -13q-121 0 -199 75.5t-78 187.5q0 111 78 186.5t199 75.5t199 -76t78 -186q0 -112 -78 -187.5t-199 -75.5zM242 570l95 146h170l-143 -146h-122z" />
    <glyph glyph-name="ocircumflex" unicode="&#xf4;" horiz-adv-x="625" 
d="M313 110q60 0 99 40t39 100t-39 99.5t-99 39.5t-99 -39.5t-39 -99.5t39 -100t99 -40zM313 -13q-121 0 -199 75.5t-78 187.5q0 111 78 186.5t199 75.5t199 -76t78 -186q0 -112 -78 -187.5t-199 -75.5zM124 570l122 146h136l119 -146h-124l-66 78l-66 -78h-121z" />
    <glyph glyph-name="otilde" unicode="&#xf5;" horiz-adv-x="625" 
d="M313 110q60 0 99 40t39 100t-39 99.5t-99 39.5t-99 -39.5t-39 -99.5t39 -100t99 -40zM313 -13q-121 0 -199 75.5t-78 187.5q0 111 78 186.5t199 75.5t199 -76t78 -186q0 -112 -78 -187.5t-199 -75.5zM207 576h-76q0 58 31.5 99t81.5 41q30 0 71.5 -22t61.5 -22
q35 0 42 41h77q0 -55 -32 -98t-81 -43q-31 0 -72 22.5t-61 22.5q-34 0 -43 -41z" />
    <glyph glyph-name="odieresis" unicode="&#xf6;" horiz-adv-x="625" 
d="M313 110q60 0 99 40t39 100t-39 99.5t-99 39.5t-99 -39.5t-39 -99.5t39 -100t99 -40zM313 -13q-121 0 -199 75.5t-78 187.5q0 111 78 186.5t199 75.5t199 -76t78 -186q0 -112 -78 -187.5t-199 -75.5zM423 569q-31 0 -52.5 21.5t-21.5 52.5t21.5 52t52.5 21t52.5 -21
t21.5 -52t-21.5 -52.5t-52.5 -21.5zM203 569q-30 0 -52 21.5t-22 52.5q0 30 22 51.5t52 21.5q32 0 53 -21t21 -52t-21 -52.5t-53 -21.5z" />
    <glyph glyph-name="divide" unicode="&#xf7;" horiz-adv-x="632" 
d="M317 469q-37 0 -63 25.5t-26 62.5q0 38 26 63t63 25t62.5 -25t25.5 -63q0 -37 -25.5 -62.5t-62.5 -25.5zM66 268v126h500v-126h-500zM317 17q-37 0 -63 25.5t-26 62.5q0 38 26 63.5t63 25.5t62.5 -25.5t25.5 -63.5q0 -37 -25.5 -62.5t-62.5 -25.5z" />
    <glyph glyph-name="oslash" unicode="&#xf8;" horiz-adv-x="625" 
d="M313 -13q-82 0 -146 36l-19 -23h-98l58 68q-72 72 -72 182q0 111 78 186.5t199 75.5q81 0 145 -36l20 23h98l-59 -69q73 -73 73 -180q0 -112 -78 -187.5t-199 -75.5zM175 250q0 -45 22 -79l176 206q-27 13 -60 13q-60 0 -99 -40t-39 -100zM313 110q60 0 99 40t39 100
q0 44 -22 78l-176 -206q27 -12 60 -12z" />
    <glyph glyph-name="ugrave" unicode="&#xf9;" horiz-adv-x="619" 
d="M409 499h141v-499h-141v60q-66 -73 -167 -73q-87 0 -134.5 55t-47.5 151v306h141v-277q0 -58 28 -82t67 -24q34 0 64.5 18.5t48.5 46.5v318zM300 722l95 -146h-122l-144 146h171z" />
    <glyph glyph-name="uacute" unicode="&#xfa;" horiz-adv-x="619" 
d="M409 499h141v-499h-141v60q-66 -73 -167 -73q-87 0 -134.5 55t-47.5 151v306h141v-277q0 -58 28 -82t67 -24q34 0 64.5 18.5t48.5 46.5v318zM220 570l95 146h170l-143 -146h-122z" />
    <glyph glyph-name="ucircumflex" unicode="&#xfb;" horiz-adv-x="619" 
d="M409 499h141v-499h-141v60q-66 -73 -167 -73q-87 0 -134.5 55t-47.5 151v306h141v-277q0 -58 28 -82t67 -24q34 0 64.5 18.5t48.5 46.5v318zM117 570l122 146h136l119 -146h-124l-66 78l-66 -78h-121z" />
    <glyph glyph-name="udieresis" unicode="&#xfc;" horiz-adv-x="619" 
d="M409 499h141v-499h-141v60q-66 -73 -167 -73q-87 0 -134.5 55t-47.5 151v306h141v-277q0 -58 28 -82t67 -24q34 0 64.5 18.5t48.5 46.5v318zM416 569q-31 0 -52.5 21.5t-21.5 52.5t21.5 52t52.5 21t52.5 -21t21.5 -52t-21.5 -52.5t-52.5 -21.5zM196 569q-30 0 -52 21.5
t-22 52.5q0 30 22 51.5t52 21.5q32 0 53 -21t21 -52t-21 -52.5t-53 -21.5z" />
    <glyph glyph-name="yacute" unicode="&#xfd;" horiz-adv-x="579" 
d="M134 -206q-62 0 -100 20v123q35 -20 76 -20q38 0 63.5 24t47.5 76l-215 482h152l132 -328l125 328h149l-231 -551q-66 -154 -199 -154zM211 570l95 146h170l-143 -146h-122z" />
    <glyph glyph-name="thorn" unicode="&#xfe;" horiz-adv-x="644" 
d="M374 -13q-108 0 -164 74v-261h-141v900h141v-262q58 74 164 74q102 0 168.5 -75.5t66.5 -186.5q0 -112 -66.5 -187.5t-168.5 -75.5zM334 110q59 0 97 40t38 100q0 59 -38 99t-97 40q-42 0 -74.5 -21t-49.5 -53v-130q17 -32 49.5 -53.5t74.5 -21.5z" />
    <glyph glyph-name="ydieresis" unicode="&#xff;" horiz-adv-x="579" 
d="M134 -206q-62 0 -100 20v123q35 -20 76 -20q38 0 63.5 24t47.5 76l-215 482h152l132 -328l125 328h149l-231 -551q-66 -154 -199 -154zM394 569q-31 0 -52.5 21.5t-21.5 52.5t21.5 52t52.5 21t52.5 -21t21.5 -52t-21.5 -52.5t-52.5 -21.5zM174 569q-30 0 -52 21.5
t-22 52.5q0 30 22 51.5t52 21.5q32 0 53 -21t21 -52t-21 -52.5t-53 -21.5z" />
    <glyph glyph-name="Amacron" unicode="&#x100;" horiz-adv-x="770" 
d="M16 0l300 704h138l300 -704h-153l-69 162h-296l-69 -162h-151zM281 281h205l-102 243zM232 785v95h306v-95h-306z" />
    <glyph glyph-name="amacron" unicode="&#x101;" horiz-adv-x="602" 
d="M544 109q18 0 29 6v-103q-27 -21 -76 -21q-85 0 -113 64q-68 -68 -172 -68q-82 0 -133 45.5t-51 121.5q0 80 58 122t139 42q84 0 144 -31v15q0 94 -132 94q-80 0 -151 -42v118q76 40 185 40q107 0 172.5 -52t65.5 -144v-169q0 -38 35 -38zM369 147v50q-41 29 -104 29
q-45 0 -71.5 -16.5t-26.5 -48.5q0 -65 89 -65q75 0 113 51zM130 595v95h307v-95h-307z" />
    <glyph glyph-name="Abreve" unicode="&#x102;" horiz-adv-x="770" 
d="M16 0l300 704h138l300 -704h-153l-69 162h-296l-69 -162h-151zM281 281h205l-102 243zM385 746q-68 0 -115.5 44t-49.5 119h95q2 -33 21 -53t49 -20t49 20t21 53h95q-2 -75 -49.5 -119t-115.5 -44z" />
    <glyph glyph-name="abreve" unicode="&#x103;" horiz-adv-x="602" 
d="M544 109q18 0 29 6v-103q-27 -21 -76 -21q-85 0 -113 64q-68 -68 -172 -68q-82 0 -133 45.5t-51 121.5q0 80 58 122t139 42q84 0 144 -31v15q0 94 -132 94q-80 0 -151 -42v118q76 40 185 40q107 0 172.5 -52t65.5 -144v-169q0 -38 35 -38zM369 147v50q-41 29 -104 29
q-45 0 -71.5 -16.5t-26.5 -48.5q0 -65 89 -65q75 0 113 51zM278 561q-68 0 -116 44.5t-50 117.5h96q2 -33 21 -53t49 -20t48.5 20t20.5 53h95q-2 -74 -49.5 -118t-114.5 -44z" />
    <glyph glyph-name="Aogonek" unicode="&#x104;" horiz-adv-x="770" 
d="M749 -202q-60 0 -94 29t-34 74q0 54 45 99h-65l-69 162h-296l-69 -162h-151l300 704h138l300 -704q-35 -35 -35 -70q0 -47 54 -47q23 0 36 7v-84q-21 -8 -60 -8zM281 281h205l-102 243z" />
    <glyph glyph-name="aogonek" unicode="&#x105;" horiz-adv-x="590" 
d="M568 -190q-60 0 -94 29t-34 74q0 44 29 81q-64 12 -85 61q-68 -68 -172 -68q-82 0 -133 45.5t-51 121.5q0 80 58 122t139 42q84 0 144 -31v15q0 94 -132 94q-80 0 -151 -42v118q76 40 185 40q107 0 172.5 -52t65.5 -144v-169q0 -38 35 -38q18 0 29 6v-103
q-35 -35 -35 -70q0 -47 54 -47q23 0 36 7v-84q-21 -8 -60 -8zM369 147v50q-41 29 -104 29q-45 0 -71.5 -16.5t-26.5 -48.5q0 -65 89 -65q75 0 113 51z" />
    <glyph glyph-name="Cacute" unicode="&#x106;" horiz-adv-x="677" 
d="M432 -14q-162 0 -270.5 102.5t-108.5 261.5t107.5 261.5t271.5 102.5q102 0 185 -44v-145q-79 54 -184 54q-100 0 -166.5 -65t-66.5 -164q0 -100 68 -164.5t171 -64.5q114 0 192 61v-145q-87 -51 -199 -51zM317 761l95 146h170l-143 -146h-122z" />
    <glyph glyph-name="cacute" unicode="&#x107;" horiz-adv-x="513" 
d="M307 -13q-111 0 -191 72.5t-80 191.5q0 118 80.5 189.5t192.5 71.5q81 0 148 -33v-120q-65 30 -127 30q-65 0 -110 -38.5t-45 -100.5t45 -101t110 -39q74 0 135 34v-120q-67 -37 -158 -37zM191 570l95 146h170l-143 -146h-122z" />
    <glyph glyph-name="Ccircumflex" unicode="&#x108;" horiz-adv-x="677" 
d="M432 -14q-162 0 -270.5 102.5t-108.5 261.5t107.5 261.5t271.5 102.5q102 0 185 -44v-145q-79 54 -184 54q-100 0 -166.5 -65t-66.5 -164q0 -100 68 -164.5t171 -64.5q114 0 192 61v-145q-87 -51 -199 -51zM205 762l122 145h136l119 -145h-123l-67 77l-65 -77h-122z" />
    <glyph glyph-name="ccircumflex" unicode="&#x109;" horiz-adv-x="516" 
d="M307 -13q-111 0 -191 72.5t-80 191.5q0 118 80.5 189.5t192.5 71.5q81 0 148 -33v-120q-65 30 -127 30q-65 0 -110 -38.5t-45 -100.5t45 -101t110 -39q74 0 135 34v-120q-67 -37 -158 -37zM90 570l122 146h136l119 -146h-124l-66 78l-66 -78h-121z" />
    <glyph glyph-name="Cdotaccent" unicode="&#x10a;" horiz-adv-x="677" 
d="M432 -14q-162 0 -270.5 102.5t-108.5 261.5t107.5 261.5t271.5 102.5q102 0 185 -44v-145q-79 54 -184 54q-100 0 -166.5 -65t-66.5 -164q0 -100 68 -164.5t171 -64.5q114 0 192 61v-145q-87 -51 -199 -51zM410 760q-30 0 -52 21.5t-22 52.5q0 30 22 51.5t52 21.5
q32 0 53 -21.5t21 -51.5q0 -31 -21 -52.5t-53 -21.5z" />
    <glyph glyph-name="cdotaccent" unicode="&#x10b;" horiz-adv-x="516" 
d="M307 -13q-111 0 -191 72.5t-80 191.5q0 118 80.5 189.5t192.5 71.5q81 0 148 -33v-120q-65 30 -127 30q-65 0 -110 -38.5t-45 -100.5t45 -101t110 -39q74 0 135 34v-120q-67 -37 -158 -37zM297 569q-30 0 -52 21.5t-22 52.5q0 30 22 51.5t52 21.5q31 0 52 -21t21 -52
t-21 -52.5t-52 -21.5z" />
    <glyph glyph-name="Ccaron" unicode="&#x10c;" horiz-adv-x="677" 
d="M432 -14q-162 0 -270.5 102.5t-108.5 261.5t107.5 261.5t271.5 102.5q102 0 185 -44v-145q-79 54 -184 54q-100 0 -166.5 -65t-66.5 -164q0 -100 68 -164.5t171 -64.5q114 0 192 61v-145q-87 -51 -199 -51zM589 907l-122 -146h-136l-119 146h123l67 -78l65 78h122z" />
    <glyph glyph-name="ccaron" unicode="&#x10d;" horiz-adv-x="516" 
d="M307 -13q-111 0 -191 72.5t-80 191.5q0 118 80.5 189.5t192.5 71.5q81 0 148 -33v-120q-65 30 -127 30q-65 0 -110 -38.5t-45 -100.5t45 -101t110 -39q74 0 135 34v-120q-67 -37 -158 -37zM472 716l-122 -146h-136l-120 146h124l66 -78l66 78h122z" />
    <glyph glyph-name="Dcaron" unicode="&#x10e;" horiz-adv-x="776" 
d="M77 0v700h262q170 0 277 -97.5t107 -252.5t-107 -252.5t-277 -97.5h-262zM221 129h106q118 0 183 58.5t65 162.5t-65 162.5t-183 58.5h-106v-442zM537 907l-122 -146h-136l-119 146h123l67 -78l65 78h122z" />
    <glyph glyph-name="dcaron" unicode="&#x10f;" horiz-adv-x="821" 
d="M271 -13q-102 0 -168.5 75.5t-66.5 187.5q0 111 66.5 186.5t168.5 75.5q106 0 164 -74v262h141v-700h-141v61q-56 -74 -164 -74zM311 110q42 0 74.5 21.5t49.5 53.5v130q-17 32 -49.5 53t-74.5 21q-59 0 -97 -40t-38 -99q0 -60 38 -100t97 -40zM646 496l59 204h130
l-84 -204h-105z" />
    <glyph glyph-name="Dcroat" unicode="&#x110;" horiz-adv-x="830" 
d="M131 0v306h-96v121h96v273h262q171 0 277.5 -97.5t106.5 -252.5t-106.5 -252.5t-277.5 -97.5h-262zM275 129h106q118 0 183 58.5t65 162.5t-65 162.5t-183 58.5h-106v-144h138v-121h-138v-177z" />
    <glyph glyph-name="dcroat" unicode="&#x111;" horiz-adv-x="639" 
d="M313 559v73h122v68h141v-68h94v-73h-94v-559h-141v61q-56 -74 -164 -74q-102 0 -168.5 75.5t-66.5 187.5q0 111 66.5 186.5t168.5 75.5q106 0 164 -74v121h-122zM311 110q42 0 74.5 21.5t49.5 53.5v130q-17 32 -49.5 53t-74.5 21q-59 0 -97 -40t-38 -99q0 -60 38 -100
t97 -40z" />
    <glyph glyph-name="Emacron" unicode="&#x112;" horiz-adv-x="640" 
d="M77 0v700h514v-129h-370v-135h298v-127h-298v-180h381v-129h-525zM185 785v95h306v-95h-306z" />
    <glyph glyph-name="emacron" unicode="&#x113;" horiz-adv-x="573" 
d="M313 -13q-117 0 -197 72t-80 191q0 111 72.5 186.5t187.5 75.5q109 0 173.5 -76.5t64.5 -187.5v-37h-358q11 -51 56 -77.5t111 -26.5q87 0 160 44v-113q-67 -51 -190 -51zM176 301h219q-2 42 -30.5 71t-74.5 29q-49 0 -79 -28t-35 -72zM135 595v95h307v-95h-307z" />
    <glyph glyph-name="Ebreve" unicode="&#x114;" horiz-adv-x="640" 
d="M77 0v700h514v-129h-370v-135h298v-127h-298v-180h381v-129h-525zM338 746q-68 0 -115.5 44t-49.5 119h95q2 -33 21 -53t49 -20t49 20t21 53h95q-2 -75 -49.5 -119t-115.5 -44z" />
    <glyph glyph-name="ebreve" unicode="&#x115;" horiz-adv-x="573" 
d="M313 -13q-117 0 -197 72t-80 191q0 111 72.5 186.5t187.5 75.5q109 0 173.5 -76.5t64.5 -187.5v-37h-358q11 -51 56 -77.5t111 -26.5q87 0 160 44v-113q-67 -51 -190 -51zM176 301h219q-2 42 -30.5 71t-74.5 29q-49 0 -79 -28t-35 -72zM288 561q-68 0 -116 44.5
t-50 117.5h96q2 -33 21 -53t49 -20t48.5 20t20.5 53h95q-2 -74 -49.5 -118t-114.5 -44z" />
    <glyph glyph-name="Edotaccent" unicode="&#x116;" horiz-adv-x="640" 
d="M77 0v700h514v-129h-370v-135h298v-127h-298v-180h381v-129h-525zM338 760q-30 0 -52 21.5t-22 52.5q0 30 22 51.5t52 21.5q32 0 53 -21.5t21 -51.5q0 -31 -21 -52.5t-53 -21.5z" />
    <glyph glyph-name="edotaccent" unicode="&#x117;" horiz-adv-x="573" 
d="M313 -13q-117 0 -197 72t-80 191q0 111 72.5 186.5t187.5 75.5q109 0 173.5 -76.5t64.5 -187.5v-37h-358q11 -51 56 -77.5t111 -26.5q87 0 160 44v-113q-67 -51 -190 -51zM176 301h219q-2 42 -30.5 71t-74.5 29q-49 0 -79 -28t-35 -72zM288 569q-30 0 -52 21.5t-22 52.5
q0 30 22 51.5t52 21.5q31 0 52 -21t21 -52t-21 -52.5t-52 -21.5z" />
    <glyph glyph-name="Eogonek" unicode="&#x118;" horiz-adv-x="640" 
d="M77 0v700h514v-129h-370v-135h298v-127h-298v-180h381v-129q-35 -35 -35 -70q0 -47 54 -47q23 0 36 7v-84q-21 -8 -60 -8q-60 0 -94 29t-34 74q0 54 45 99h-437z" />
    <glyph glyph-name="eogonek" unicode="&#x119;" horiz-adv-x="573" 
d="M498 -164q-60 0 -94 29t-34 74q0 27 12 54q-33 -6 -69 -6q-117 0 -197 72t-80 191q0 111 72.5 186.5t187.5 75.5q109 0 173.5 -76.5t64.5 -187.5v-37h-358q11 -51 56 -77.5t111 -26.5q87 0 160 44v-113q-35 -35 -35 -70q0 -47 54 -47q23 0 36 7v-84q-21 -8 -60 -8z
M176 301h219q-2 42 -30.5 71t-74.5 29q-49 0 -79 -28t-35 -72z" />
    <glyph glyph-name="Ecaron" unicode="&#x11a;" horiz-adv-x="640" 
d="M77 0v700h514v-129h-370v-135h298v-127h-298v-180h381v-129h-525zM528 907l-122 -146h-136l-119 146h123l67 -78l65 78h122z" />
    <glyph glyph-name="ecaron" unicode="&#x11b;" horiz-adv-x="573" 
d="M313 -13q-117 0 -197 72t-80 191q0 111 72.5 186.5t187.5 75.5q109 0 173.5 -76.5t64.5 -187.5v-37h-358q11 -51 56 -77.5t111 -26.5q87 0 160 44v-113q-67 -51 -190 -51zM176 301h219q-2 42 -30.5 71t-74.5 29q-49 0 -79 -28t-35 -72zM476 716l-122 -146h-136l-120 146
h124l66 -78l66 78h122z" />
    <glyph glyph-name="Gcircumflex" unicode="&#x11c;" horiz-adv-x="767" 
d="M426 -14q-158 0 -265.5 103t-107.5 261q0 159 107 261.5t271 102.5q124 0 210 -53v-142q-95 60 -200 60q-107 0 -174 -63.5t-67 -168.5q0 -104 65 -166t161 -62q92 0 141 46v241h144v-309q-42 -47 -119 -79t-166 -32zM212 762l122 145h136l119 -145h-123l-67 77l-65 -77
h-122z" />
    <glyph glyph-name="gcircumflex" unicode="&#x11d;" horiz-adv-x="638" 
d="M433 499h141v-441q0 -53 -16.5 -97t-44.5 -74.5t-65.5 -51.5t-78.5 -31t-84 -10q-126 0 -196 43v127q79 -48 181 -48q69 0 116 31t47 104v31q-59 -71 -165 -71q-102 0 -167 72t-65 179q0 106 65 178t167 72q106 0 165 -71v58zM309 133q41 0 74 19.5t50 48.5v120
q-17 29 -50 48.5t-74 19.5q-59 0 -95.5 -36.5t-36.5 -91.5t37 -91.5t95 -36.5zM124 570l122 146h136l119 -146h-124l-66 78l-66 -78h-121z" />
    <glyph glyph-name="Gbreve" unicode="&#x11e;" horiz-adv-x="767" 
d="M426 -14q-158 0 -265.5 103t-107.5 261q0 159 107 261.5t271 102.5q124 0 210 -53v-142q-95 60 -200 60q-107 0 -174 -63.5t-67 -168.5q0 -104 65 -166t161 -62q92 0 141 46v241h144v-309q-42 -47 -119 -79t-166 -32zM412 758q-68 0 -115.5 44t-49.5 119h95q2 -33 21 -53
t49 -20t49 20t21 53h95q-2 -75 -49.5 -119t-115.5 -44z" />
    <glyph glyph-name="gbreve" unicode="&#x11f;" horiz-adv-x="638" 
d="M433 499h141v-441q0 -53 -16.5 -97t-44.5 -74.5t-65.5 -51.5t-78.5 -31t-84 -10q-126 0 -196 43v127q79 -48 181 -48q69 0 116 31t47 104v31q-59 -71 -165 -71q-102 0 -167 72t-65 179q0 106 65 178t167 72q106 0 165 -71v58zM309 133q41 0 74 19.5t50 48.5v120
q-17 29 -50 48.5t-74 19.5q-59 0 -95.5 -36.5t-36.5 -91.5t37 -91.5t95 -36.5zM307 561q-68 0 -116 44.5t-50 117.5h96q2 -33 21 -53t49 -20t48.5 20t20.5 53h95q-2 -74 -49.5 -118t-114.5 -44z" />
    <glyph glyph-name="Gdotaccent" unicode="&#x120;" horiz-adv-x="767" 
d="M426 -14q-158 0 -265.5 103t-107.5 261q0 159 107 261.5t271 102.5q124 0 210 -53v-142q-95 60 -200 60q-107 0 -174 -63.5t-67 -168.5q0 -104 65 -166t161 -62q92 0 141 46v241h144v-309q-42 -47 -119 -79t-166 -32zM414 760q-30 0 -52 21.5t-22 52.5q0 30 22 51.5
t52 21.5q32 0 53 -21.5t21 -51.5q0 -31 -21 -52.5t-53 -21.5z" />
    <glyph glyph-name="gdotaccent" unicode="&#x121;" horiz-adv-x="638" 
d="M433 499h141v-441q0 -53 -16.5 -97t-44.5 -74.5t-65.5 -51.5t-78.5 -31t-84 -10q-126 0 -196 43v127q79 -48 181 -48q69 0 116 31t47 104v31q-59 -71 -165 -71q-102 0 -167 72t-65 179q0 106 65 178t167 72q106 0 165 -71v58zM309 133q41 0 74 19.5t50 48.5v120
q-17 29 -50 48.5t-74 19.5q-59 0 -95.5 -36.5t-36.5 -91.5t37 -91.5t95 -36.5zM309 569q-30 0 -52 21.5t-22 52.5q0 30 22 51.5t52 21.5q31 0 52 -21t21 -52t-21 -52.5t-52 -21.5z" />
    <glyph glyph-name="uni0122" unicode="&#x122;" horiz-adv-x="767" 
d="M426 -14q-158 0 -265.5 103t-107.5 261q0 159 107 261.5t271 102.5q124 0 210 -53v-142q-95 60 -200 60q-107 0 -174 -63.5t-67 -168.5q0 -104 65 -166t161 -62q92 0 141 46v241h144v-309q-42 -47 -119 -79t-166 -32zM312 -270l59 204h130l-84 -204h-105z" />
    <glyph glyph-name="uni0123" unicode="&#x123;" horiz-adv-x="638" 
d="M433 499h141v-441q0 -53 -16.5 -97t-44.5 -74.5t-65.5 -51.5t-78.5 -31t-84 -10q-126 0 -196 43v127q79 -48 181 -48q69 0 116 31t47 104v31q-59 -71 -165 -71q-102 0 -167 72t-65 179q0 106 65 178t167 72q106 0 165 -71v58zM309 133q41 0 74 19.5t50 48.5v120
q-17 29 -50 48.5t-74 19.5q-59 0 -95.5 -36.5t-36.5 -91.5t37 -91.5t95 -36.5zM432 778l-59 -204h-130l84 204h105z" />
    <glyph glyph-name="Hcircumflex" unicode="&#x124;" horiz-adv-x="758" 
d="M77 0v700h144v-262h316v262h143v-700h-143v307h-316v-307h-144zM190 762l122 145h136l119 -145h-123l-67 77l-65 -77h-122z" />
    <glyph glyph-name="hcircumflex" unicode="&#x125;" horiz-adv-x="610" 
d="M203 0h-141v700h141v-262q68 74 167 74q87 0 134.5 -55t47.5 -151v-306h-141v277q0 58 -28 82t-67 24q-34 0 -64.5 -18.5t-48.5 -46.5v-318zM-54 762l122 145h136l119 -145h-123l-67 77l-65 -77h-122z" />
    <glyph glyph-name="Hbar" unicode="&#x126;" horiz-adv-x="838" 
d="M118 0v518h-72v93h72v89h143v-89h317v89h143v-89h71v-93h-71v-518h-143v307h-317v-307h-143zM261 438h317v80h-317v-80z" />
    <glyph glyph-name="hbar" unicode="&#x127;" horiz-adv-x="665" 
d="M257 0h-141v518h-102v93h102v89h141v-89h160v-93h-160v-151q68 74 167 74q87 0 134.5 -55t47.5 -151v-235h-141v206q0 58 -28 82t-67 24q-34 0 -64.5 -18.5t-48.5 -46.5v-247z" />
    <glyph glyph-name="Itilde" unicode="&#x128;" horiz-adv-x="307" 
d="M82 0v700h143v-700h-143zM49 765h-77q0 59 31.5 99.5t82.5 40.5q29 0 70.5 -22t61.5 -22q34 0 43 41h76q0 -56 -32 -98.5t-81 -42.5q-32 0 -73 22.5t-60 22.5q-35 0 -42 -41z" />
    <glyph glyph-name="itilde" unicode="&#x129;" horiz-adv-x="267" 
d="M28 576h-76q0 58 31.5 99t81.5 41q30 0 71.5 -22t61.5 -22q35 0 42 41h77q0 -55 -32 -98t-81 -43q-32 0 -73 22.5t-60 22.5q-34 0 -43 -41zM63 0v499h141v-499h-141z" />
    <glyph glyph-name="Imacron" unicode="&#x12a;" horiz-adv-x="307" 
d="M82 0v700h143v-700h-143zM1 785v95h306v-95h-306z" />
    <glyph glyph-name="imacron" unicode="&#x12b;" horiz-adv-x="267" 
d="M-19 595v95h307v-95h-307zM63 0v499h141v-499h-141z" />
    <glyph glyph-name="Ibreve" unicode="&#x12c;" horiz-adv-x="307" 
d="M82 0v700h143v-700h-143zM154 746q-68 0 -115.5 44t-49.5 119h95q2 -33 21 -53t49 -20t49 20t21 53h95q-2 -75 -49.5 -119t-115.5 -44z" />
    <glyph glyph-name="ibreve" unicode="&#x12d;" horiz-adv-x="267" 
d="M134 561q-68 0 -116 44.5t-50 117.5h96q2 -33 21 -53t49 -20t48.5 20t20.5 53h95q-2 -74 -49.5 -118t-114.5 -44zM63 0v499h141v-499h-141z" />
    <glyph glyph-name="Iogonek" unicode="&#x12e;" horiz-adv-x="307" 
d="M82 0v700h143v-700q-35 -35 -35 -70q0 -47 54 -47q23 0 36 7v-84q-21 -8 -60 -8q-60 0 -94 29t-34 74q0 54 45 99h-55z" />
    <glyph glyph-name="iogonek" unicode="&#x12f;" horiz-adv-x="293" 
d="M76 0v499h141v-499q-35 -35 -35 -70q0 -47 54 -47q23 0 36 7v-84q-21 -8 -60 -8q-60 0 -94 29t-34 74q0 54 45 99h-53zM146 547q-35 0 -59.5 24.5t-24.5 59.5q0 36 24.5 60.5t59.5 24.5t59.5 -24.5t24.5 -60.5q0 -35 -24.5 -59.5t-59.5 -24.5z" />
    <glyph glyph-name="Idotaccent" unicode="&#x130;" horiz-adv-x="307" 
d="M82 0v700h143v-700h-143zM155 760q-30 0 -52 21.5t-22 52.5q0 30 22 51.5t52 21.5q32 0 53 -21.5t21 -51.5q0 -31 -21 -52.5t-53 -21.5z" />
    <glyph glyph-name="dotlessi" unicode="&#x131;" horiz-adv-x="267" 
d="M63 0v499h141v-499h-141z" />
    <glyph glyph-name="IJ" unicode="&#x132;" horiz-adv-x="634" 
d="M82 270v430h143v-430h-143zM276 -14q-123 0 -194 43v143q74 -51 171 -51q83 0 124 33t41 108v438h143v-459q0 -135 -79 -195t-206 -60z" />
    <glyph glyph-name="Jcircumflex" unicode="&#x134;" horiz-adv-x="499" 
d="M185 -14q-108 0 -168 41v142q60 -48 138 -48q67 0 100 31t33 102v446h143v-470q0 -67 -19.5 -116t-54.5 -76t-77.5 -39.5t-94.5 -12.5zM169 762l122 145h136l119 -145h-123l-67 77l-65 -77h-122z" />
    <glyph glyph-name="jcircumflex" unicode="&#x135;" horiz-adv-x="293" 
d="M36 -206q-76 0 -111 22v119q33 -19 75 -19q76 0 76 79v504h141v-517q0 -90 -48.5 -139t-132.5 -49zM-41 576l122 146h136l119 -146h-124l-66 78l-66 -78h-121z" />
    <glyph glyph-name="uni0136" unicode="&#x136;" horiz-adv-x="706" 
d="M77 0v700h144v-276l258 276h176l-297 -321l348 -379h-184l-301 323v-323h-144zM258 -270l59 204h130l-84 -204h-105z" />
    <glyph glyph-name="uni0137" unicode="&#x137;" horiz-adv-x="591" 
d="M62 0v700h141v-383l172 182h173l-217 -225l251 -274h-182l-197 215v-215h-141zM196 -270l59 204h130l-84 -204h-105z" />
    <glyph glyph-name="kgreenlandic" unicode="&#x138;" horiz-adv-x="599" 
d="M69 0v499h141v-182l172 182h173l-217 -225l251 -274h-182l-197 215v-215h-141z" />
    <glyph glyph-name="Lacute" unicode="&#x139;" horiz-adv-x="603" 
d="M77 0v700h144v-571h355v-129h-499zM90 761l95 146h170l-143 -146h-122z" />
    <glyph glyph-name="lacute" unicode="&#x13a;" horiz-adv-x="310" 
d="M194 -13q-58 0 -95.5 31.5t-37.5 106.5v575h141v-538q0 -50 45 -50q21 0 36 9v-116q-36 -18 -89 -18zM73 761l95 146h170l-143 -146h-122z" />
    <glyph glyph-name="uni013B" unicode="&#x13b;" horiz-adv-x="603" 
d="M77 0v700h144v-571h355v-129h-499zM229 -270l59 204h130l-84 -204h-105z" />
    <glyph glyph-name="lcommaaccent" unicode="&#x13c;" horiz-adv-x="318" 
d="M202 -13q-58 0 -95.5 31.5t-37.5 106.5v575h141v-538q0 -50 45 -50q21 0 36 9v-116q-36 -18 -89 -18zM81 -270l59 204h130l-84 -204h-105z" />
    <glyph glyph-name="Lcaron" unicode="&#x13d;" horiz-adv-x="611" 
d="M77 0v700h144v-571h355v-129h-499zM382 496l59 204h130l-84 -204h-105z" />
    <glyph glyph-name="lcaron" unicode="&#x13e;" horiz-adv-x="428" 
d="M187 -13q-58 0 -95.5 31.5t-37.5 106.5v575h141v-538q0 -50 45 -50q21 0 36 9v-116q-36 -18 -89 -18zM253 496l59 204h130l-84 -204h-105z" />
    <glyph glyph-name="Ldot" unicode="&#x13f;" horiz-adv-x="603" 
d="M77 0v700h144v-571h355v-129h-499zM489 298q-37 0 -62 25.5t-25 62.5q0 36 25 61t62 25q36 0 61.5 -25t25.5 -61q0 -37 -25.5 -62.5t-61.5 -25.5z" />
    <glyph glyph-name="ldot" unicode="&#x140;" horiz-adv-x="476" 
d="M196 -13q-58 0 -95.5 31.5t-37.5 106.5v575h141v-538q0 -50 45 -50q21 0 36 9v-116q-36 -18 -89 -18zM351 298q-37 0 -62 25.5t-25 62.5q0 36 25 61t62 25q36 0 61.5 -25t25.5 -61q0 -37 -25.5 -62.5t-61.5 -25.5z" />
    <glyph glyph-name="Lslash" unicode="&#x141;" horiz-adv-x="634" 
d="M11 217v124l97 62v297h144v-204l146 95v-124l-146 -95v-243h355v-129h-499v279z" />
    <glyph glyph-name="lslash" unicode="&#x142;" horiz-adv-x="393" 
d="M16 200v124l102 66v310h141v-219l103 67v-124l-103 -67v-195q0 -50 45 -50q21 0 36 9v-116q-36 -18 -89 -18q-58 0 -95.5 31.5t-37.5 106.5v141z" />
    <glyph glyph-name="Nacute" unicode="&#x143;" horiz-adv-x="771" 
d="M77 0v700h123l353 -448v448h140v-700h-119l-356 450v-450h-141zM317 761l95 146h170l-143 -146h-122z" />
    <glyph glyph-name="nacute" unicode="&#x144;" horiz-adv-x="618" 
d="M210 0h-141v499h141v-60q69 73 167 73q87 0 134.5 -55t47.5 -151v-306h-141v277q0 58 -28 82t-67 24q-34 0 -64.5 -18.5t-48.5 -46.5v-318zM223 570l95 146h170l-143 -146h-122z" />
    <glyph glyph-name="uni0145" unicode="&#x145;" horiz-adv-x="771" 
d="M77 0v700h123l353 -448v448h140v-700h-119l-356 450v-450h-141zM296 -270l59 204h130l-84 -204h-105z" />
    <glyph glyph-name="uni0146" unicode="&#x146;" horiz-adv-x="618" 
d="M210 0h-141v499h141v-60q69 73 167 73q87 0 134.5 -55t47.5 -151v-306h-141v277q0 58 -28 82t-67 24q-34 0 -64.5 -18.5t-48.5 -46.5v-318zM199 -270l59 204h130l-84 -204h-105z" />
    <glyph glyph-name="Ncaron" unicode="&#x147;" horiz-adv-x="771" 
d="M77 0v700h123l353 -448v448h140v-700h-119l-356 450v-450h-141zM574 907l-122 -146h-136l-119 146h123l67 -78l65 78h122z" />
    <glyph glyph-name="ncaron" unicode="&#x148;" horiz-adv-x="618" 
d="M210 0h-141v499h141v-60q69 73 167 73q87 0 134.5 -55t47.5 -151v-306h-141v277q0 58 -28 82t-67 24q-34 0 -64.5 -18.5t-48.5 -46.5v-318zM503 716l-122 -146h-136l-120 146h124l66 -78l66 78h122z" />
    <glyph glyph-name="napostrophe" unicode="&#x149;" horiz-adv-x="759" 
d="M351 0h-141v499h141v-60q69 73 167 73q87 0 134.5 -55t47.5 -151v-306h-141v277q0 58 -28 82t-67 24q-34 0 -64.5 -18.5t-48.5 -46.5v-318zM15 496l59 204h130l-84 -204h-105z" />
    <glyph glyph-name="Eng" unicode="&#x14a;" horiz-adv-x="771" 
d="M77 0v700h123l353 -448v448h140v-702q0 -98 -51 -151t-142 -53q-76 0 -120 23v125q38 -22 84 -22q87 0 87 90v19l-333 421v-450h-141z" />
    <glyph glyph-name="eng" unicode="&#x14b;" horiz-adv-x="618" 
d="M378 -206q-76 0 -111 22v120q33 -19 75 -19q76 0 76 79v281q0 58 -28 82t-67 24q-34 0 -64.5 -18.5t-48.5 -46.5v-318h-141v499h141v-60q69 73 167 73q87 0 134.5 -55t47.5 -151v-324q0 -90 -48.5 -139t-132.5 -49z" />
    <glyph glyph-name="Omacron" unicode="&#x14c;" horiz-adv-x="832" 
d="M416 121q93 0 154.5 65t61.5 164t-61.5 164t-154.5 65t-154.5 -65t-61.5 -164t61.5 -164t154.5 -65zM416 -14q-156 0 -259.5 105.5t-103.5 258.5t103 258.5t260 105.5t260 -105.5t103 -258.5t-103.5 -258.5t-259.5 -105.5zM263 785v95h306v-95h-306z" />
    <glyph glyph-name="omacron" unicode="&#x14d;" horiz-adv-x="625" 
d="M313 110q60 0 99 40t39 100t-39 99.5t-99 39.5t-99 -39.5t-39 -99.5t39 -100t99 -40zM313 -13q-121 0 -199 75.5t-78 187.5q0 111 78 186.5t199 75.5t199 -76t78 -186q0 -112 -78 -187.5t-199 -75.5zM160 595v95h307v-95h-307z" />
    <glyph glyph-name="Obreve" unicode="&#x14e;" horiz-adv-x="832" 
d="M416 121q93 0 154.5 65t61.5 164t-61.5 164t-154.5 65t-154.5 -65t-61.5 -164t61.5 -164t154.5 -65zM416 -14q-156 0 -259.5 105.5t-103.5 258.5t103 258.5t260 105.5t260 -105.5t103 -258.5t-103.5 -258.5t-259.5 -105.5zM416 758q-68 0 -115.5 44t-49.5 119h95
q2 -33 21 -53t49 -20t49 20t21 53h95q-2 -75 -49.5 -119t-115.5 -44z" />
    <glyph glyph-name="obreve" unicode="&#x14f;" horiz-adv-x="625" 
d="M313 110q60 0 99 40t39 100t-39 99.5t-99 39.5t-99 -39.5t-39 -99.5t39 -100t99 -40zM313 -13q-121 0 -199 75.5t-78 187.5q0 111 78 186.5t199 75.5t199 -76t78 -186q0 -112 -78 -187.5t-199 -75.5zM313 568q-68 0 -116 44.5t-50 117.5h96q2 -33 21 -53t49 -20t48.5 20
t20.5 53h95q-2 -74 -49.5 -118t-114.5 -44z" />
    <glyph glyph-name="Ohungarumlaut" unicode="&#x150;" horiz-adv-x="832" 
d="M416 121q93 0 154.5 65t61.5 164t-61.5 164t-154.5 65t-154.5 -65t-61.5 -164t61.5 -164t154.5 -65zM416 -14q-156 0 -259.5 105.5t-103.5 258.5t103 258.5t260 105.5t260 -105.5t103 -258.5t-103.5 -258.5t-259.5 -105.5zM477 761l95 146h172l-144 -146h-123zM249 761
l95 146h172l-144 -146h-123z" />
    <glyph glyph-name="ohungarumlaut" unicode="&#x151;" horiz-adv-x="625" 
d="M313 110q60 0 99 40t39 100t-39 99.5t-99 39.5t-99 -39.5t-39 -99.5t39 -100t99 -40zM313 -13q-121 0 -199 75.5t-78 187.5q0 111 78 186.5t199 75.5t199 -76t78 -186q0 -112 -78 -187.5t-199 -75.5zM361 570l95 146h172l-144 -146h-123zM133 570l95 146h172l-144 -146
h-123z" />
    <glyph glyph-name="OE" unicode="&#x152;" horiz-adv-x="1079" 
d="M1041 0h-604q-170 0 -277 97.5t-107 252.5t107 252.5t277 97.5h593v-129h-363v-135h291v-127h-291v-180h374v-129zM449 129h74v442h-74q-118 0 -183 -58t-65 -163t65 -163t183 -58z" />
    <glyph glyph-name="oe" unicode="&#x153;" horiz-adv-x="979" 
d="M940 248v-37h-358q11 -51 56 -77.5t111 -26.5q87 0 160 44v-113q-67 -51 -194 -51q-125 0 -201 81q-78 -81 -204 -81q-118 0 -196 76t-78 187t78 186.5t199 75.5q124 0 201 -84q74 84 185 84t176 -76.5t65 -187.5zM313 110q60 0 99 40t39 100t-39 100t-99 40t-99 -40
t-39 -100t39 -100t99 -40zM582 301h219q-2 42 -30.5 71t-74.5 29q-49 0 -79 -28t-35 -72z" />
    <glyph glyph-name="Racute" unicode="&#x154;" horiz-adv-x="730" 
d="M77 0v700h324q111 0 176 -57.5t65 -149.5q0 -70 -38.5 -121.5t-106.5 -72.5l216 -299h-167l-204 283h-121v-283h-144zM221 404h172q49 0 76.5 22t27.5 63t-27.5 63t-76.5 22h-172v-170zM230 761l95 146h170l-143 -146h-122z" />
    <glyph glyph-name="racute" unicode="&#x155;" horiz-adv-x="423" 
d="M69 0v499h141v-84q22 39 70.5 68t103.5 29q9 0 16 -1v-138q-19 5 -44 5q-51 0 -90.5 -26.5t-55.5 -60.5v-291h-141zM133 570l95 146h170l-143 -146h-122z" />
    <glyph glyph-name="uni0156" unicode="&#x156;" horiz-adv-x="730" 
d="M77 0v700h324q111 0 176 -57.5t65 -149.5q0 -70 -38.5 -121.5t-106.5 -72.5l216 -299h-167l-204 283h-121v-283h-144zM221 404h172q49 0 76.5 22t27.5 63t-27.5 63t-76.5 22h-172v-170zM263 -270l59 204h130l-84 -204h-105z" />
    <glyph glyph-name="uni0157" unicode="&#x157;" horiz-adv-x="423" 
d="M69 0v499h141v-84q22 39 70.5 68t103.5 29q9 0 16 -1v-138q-19 5 -44 5q-51 0 -90.5 -26.5t-55.5 -60.5v-291h-141zM18 -270l59 204h130l-84 -204h-105z" />
    <glyph glyph-name="Rcaron" unicode="&#x158;" horiz-adv-x="730" 
d="M77 0v700h324q111 0 176 -57.5t65 -149.5q0 -70 -38.5 -121.5t-106.5 -72.5l216 -299h-167l-204 283h-121v-283h-144zM221 404h172q49 0 76.5 22t27.5 63t-27.5 63t-76.5 22h-172v-170zM524 907l-122 -146h-136l-119 146h123l67 -78l65 78h122z" />
    <glyph glyph-name="rcaron" unicode="&#x159;" horiz-adv-x="415" 
d="M62 0v499h141v-84q22 39 70.5 68t103.5 29q9 0 16 -1v-138q-19 5 -44 5q-51 0 -90.5 -26.5t-55.5 -60.5v-291h-141zM408 716l-122 -146h-136l-120 146h124l66 -78l66 78h122z" />
    <glyph glyph-name="Sacute" unicode="&#x15a;" horiz-adv-x="627" 
d="M309 -14q-158 0 -266 75v150q45 -38 118 -65.5t142 -27.5q56 0 95.5 20.5t39.5 60.5q0 13 -3 23t-12.5 18.5t-16.5 14.5t-25 13t-27.5 10t-35 10.5t-36.5 11.5q-37 12 -52 17t-46.5 17t-45.5 21.5t-35 26t-30.5 34.5t-17 43t-7.5 55q0 93 71 146.5t193 53.5t229 -58v-140
q-106 66 -227 66q-119 0 -119 -69q0 -11 4 -19.5t13.5 -16t19 -12.5t27 -11t30.5 -10t37 -10.5t39 -11.5q39 -13 66.5 -24.5t59 -30.5t51 -40.5t32.5 -53.5t13 -70q0 -100 -79 -158.5t-199 -58.5zM207 761l95 146h170l-143 -146h-122z" />
    <glyph glyph-name="sacute" unicode="&#x15b;" horiz-adv-x="512" 
d="M253 -13q-134 0 -210 47v125q32 -22 87.5 -39.5t116.5 -17.5q86 0 86 42q0 11 -5.5 18.5t-19 12.5t-26.5 8.5t-36.5 9.5t-40.5 11q-84 21 -123 55t-39 100q0 72 58 112.5t162 40.5q113 0 187 -46v-120q-87 52 -181 52q-80 0 -80 -40q0 -10 6 -18t20.5 -13.5t26 -8.5
t35.5 -8.5t36 -8.5q80 -19 121.5 -56t41.5 -102q0 -70 -61 -113t-162 -43zM158 570l95 146h170l-143 -146h-122z" />
    <glyph glyph-name="Scircumflex" unicode="&#x15c;" horiz-adv-x="627" 
d="M309 -14q-158 0 -266 75v150q45 -38 118 -65.5t142 -27.5q56 0 95.5 20.5t39.5 60.5q0 13 -3 23t-12.5 18.5t-16.5 14.5t-25 13t-27.5 10t-35 10.5t-36.5 11.5q-37 12 -52 17t-46.5 17t-45.5 21.5t-35 26t-30.5 34.5t-17 43t-7.5 55q0 93 71 146.5t193 53.5t229 -58v-140
q-106 66 -227 66q-119 0 -119 -69q0 -11 4 -19.5t13.5 -16t19 -12.5t27 -11t30.5 -10t37 -10.5t39 -11.5q39 -13 66.5 -24.5t59 -30.5t51 -40.5t32.5 -53.5t13 -70q0 -100 -79 -158.5t-199 -58.5zM120 762l122 145h136l119 -145h-123l-67 77l-65 -77h-122z" />
    <glyph glyph-name="scircumflex" unicode="&#x15d;" horiz-adv-x="512" 
d="M253 -13q-134 0 -210 47v125q32 -22 87.5 -39.5t116.5 -17.5q86 0 86 42q0 11 -5.5 18.5t-19 12.5t-26.5 8.5t-36.5 9.5t-40.5 11q-84 21 -123 55t-39 100q0 72 58 112.5t162 40.5q113 0 187 -46v-120q-87 52 -181 52q-80 0 -80 -40q0 -10 6 -18t20.5 -13.5t26 -8.5
t35.5 -8.5t36 -8.5q80 -19 121.5 -56t41.5 -102q0 -70 -61 -113t-162 -43zM66 570l122 146h136l119 -146h-124l-66 78l-66 -78h-121z" />
    <glyph glyph-name="Scedilla" unicode="&#x15e;" horiz-adv-x="627" 
d="M163 -145l100 133q-130 11 -220 73v150q45 -38 118 -65.5t142 -27.5q56 0 95.5 20.5t39.5 60.5q0 13 -3 23t-12.5 18.5t-16.5 14.5t-25 13t-27.5 10t-35 10.5t-36.5 11.5q-37 12 -52 17t-46.5 17t-45.5 21.5t-35 26t-30.5 34.5t-17 43t-7.5 55q0 93 71 146.5t193 53.5
t229 -58v-140q-106 66 -227 66q-119 0 -119 -69q0 -11 4 -19.5t13.5 -16t19 -12.5t27 -11t30.5 -10t37 -10.5t39 -11.5q39 -13 66.5 -24.5t59 -30.5t51 -40.5t32.5 -53.5t13 -70q0 -82 -56 -138t-146 -72l-59 -138h-163z" />
    <glyph glyph-name="scedilla" unicode="&#x15f;" horiz-adv-x="512" 
d="M100 -145l100 134q-106 12 -157 45v125q32 -22 87.5 -39.5t116.5 -17.5q86 0 86 42q0 11 -5.5 18.5t-19 12.5t-26.5 8.5t-36.5 9.5t-40.5 11q-84 21 -123 55t-39 100q0 72 58 112.5t162 40.5q113 0 187 -46v-120q-87 52 -181 52q-80 0 -80 -40q0 -10 6 -18t20.5 -13.5
t26 -8.5t35.5 -8.5t36 -8.5q80 -19 121.5 -56t41.5 -102q0 -57 -41 -96.5t-113 -53.5l-59 -138h-163z" />
    <glyph glyph-name="Scaron" unicode="&#x160;" horiz-adv-x="627" 
d="M309 -14q-158 0 -266 75v150q45 -38 118 -65.5t142 -27.5q56 0 95.5 20.5t39.5 60.5q0 13 -3 23t-12.5 18.5t-16.5 14.5t-25 13t-27.5 10t-35 10.5t-36.5 11.5q-37 12 -52 17t-46.5 17t-45.5 21.5t-35 26t-30.5 34.5t-17 43t-7.5 55q0 93 71 146.5t193 53.5t229 -58v-140
q-106 66 -227 66q-119 0 -119 -69q0 -11 4 -19.5t13.5 -16t19 -12.5t27 -11t30.5 -10t37 -10.5t39 -11.5q39 -13 66.5 -24.5t59 -30.5t51 -40.5t32.5 -53.5t13 -70q0 -100 -79 -158.5t-199 -58.5zM494 907l-122 -146h-136l-119 146h123l67 -78l65 78h122z" />
    <glyph glyph-name="scaron" unicode="&#x161;" horiz-adv-x="512" 
d="M253 -13q-134 0 -210 47v125q32 -22 87.5 -39.5t116.5 -17.5q86 0 86 42q0 11 -5.5 18.5t-19 12.5t-26.5 8.5t-36.5 9.5t-40.5 11q-84 21 -123 55t-39 100q0 72 58 112.5t162 40.5q113 0 187 -46v-120q-87 52 -181 52q-80 0 -80 -40q0 -10 6 -18t20.5 -13.5t26 -8.5
t35.5 -8.5t36 -8.5q80 -19 121.5 -56t41.5 -102q0 -70 -61 -113t-162 -43zM449 716l-122 -146h-136l-120 146h124l66 -78l66 78h122z" />
    <glyph glyph-name="uni0162" unicode="&#x162;" horiz-adv-x="647" 
d="M155 -145l108 145h-12v571h-221v129h587v-129h-222v-571h-15l-62 -145h-163z" />
    <glyph glyph-name="uni0163" unicode="&#x163;" horiz-adv-x="441" 
d="M116 155v226h-98v118h98v137h141v-137h142v-118h-142v-198q0 -38 16 -54t52 -16q35 0 73 18v-117q-29 -17 -74 -23l-58 -136h-163l106 143q-93 31 -93 157z" />
    <glyph glyph-name="Tcaron" unicode="&#x164;" horiz-adv-x="647" 
d="M30 700h587v-129h-222v-571h-144v571h-221v129zM512 907l-122 -146h-136l-119 146h123l67 -78l65 78h122z" />
    <glyph glyph-name="tcaron" unicode="&#x165;" horiz-adv-x="620" 
d="M123 155v226h-98v118h98v137h141v-137h142v-118h-142v-198q0 -38 16 -54t52 -16q35 0 73 18v-117q-43 -27 -119 -27q-163 0 -163 168zM445 496l59 204h130l-84 -204h-105z" />
    <glyph glyph-name="Tbar" unicode="&#x166;" horiz-adv-x="647" 
d="M251 0v300h-123v118h123v153h-221v129h587v-129h-222v-153h121v-118h-121v-300h-144z" />
    <glyph glyph-name="tbar" unicode="&#x167;" horiz-adv-x="441" 
d="M18 213v103h98v65h-98v118h98v137h141v-137h142v-118h-142v-65h142v-103h-142v-30q0 -38 16 -54t52 -16q35 0 73 18v-117q-43 -27 -119 -27q-163 0 -163 168v58h-98z" />
    <glyph glyph-name="Utilde" unicode="&#x168;" horiz-adv-x="735" 
d="M367 -14q-131 0 -215 80.5t-84 227.5v406h143v-411q0 -83 43 -125.5t113 -42.5t113.5 42.5t43.5 125.5v411h144v-406q0 -147 -84.5 -227.5t-216.5 -80.5zM263 765h-77q0 59 31.5 99.5t82.5 40.5q29 0 70.5 -22t61.5 -22q34 0 43 41h76q0 -56 -32 -98.5t-81 -42.5
q-32 0 -73 22.5t-60 22.5q-35 0 -42 -41z" />
    <glyph glyph-name="utilde" unicode="&#x169;" horiz-adv-x="619" 
d="M409 499h141v-499h-141v60q-66 -73 -167 -73q-87 0 -134.5 55t-47.5 151v306h141v-277q0 -58 28 -82t67 -24q34 0 64.5 18.5t48.5 46.5v318zM200 576h-76q0 58 31.5 99t81.5 41q30 0 71.5 -22t61.5 -22q35 0 42 41h77q0 -55 -32 -98t-81 -43q-32 0 -73 22.5t-60 22.5
q-34 0 -43 -41z" />
    <glyph glyph-name="Umacron" unicode="&#x16a;" horiz-adv-x="735" 
d="M367 -14q-131 0 -215 80.5t-84 227.5v406h143v-411q0 -83 43 -125.5t113 -42.5t113.5 42.5t43.5 125.5v411h144v-406q0 -147 -84.5 -227.5t-216.5 -80.5zM215 785v95h306v-95h-306z" />
    <glyph glyph-name="umacron" unicode="&#x16b;" horiz-adv-x="619" 
d="M409 499h141v-499h-141v60q-66 -73 -167 -73q-87 0 -134.5 55t-47.5 151v306h141v-277q0 -58 28 -82t67 -24q34 0 64.5 18.5t48.5 46.5v318zM152 595v95h307v-95h-307z" />
    <glyph glyph-name="Ubreve" unicode="&#x16c;" horiz-adv-x="735" 
d="M367 -14q-131 0 -215 80.5t-84 227.5v406h143v-411q0 -83 43 -125.5t113 -42.5t113.5 42.5t43.5 125.5v411h144v-406q0 -147 -84.5 -227.5t-216.5 -80.5zM368 746q-68 0 -115.5 44t-49.5 119h95q2 -33 21 -53t49 -20t49 20t21 53h95q-2 -75 -49.5 -119t-115.5 -44z" />
    <glyph glyph-name="ubreve" unicode="&#x16d;" horiz-adv-x="619" 
d="M409 499h141v-499h-141v60q-66 -73 -167 -73q-87 0 -134.5 55t-47.5 151v306h141v-277q0 -58 28 -82t67 -24q34 0 64.5 18.5t48.5 46.5v318zM306 561q-68 0 -116 44.5t-50 117.5h96q2 -33 21 -53t49 -20t48.5 20t20.5 53h95q-2 -74 -49.5 -118t-114.5 -44z" />
    <glyph glyph-name="Uring" unicode="&#x16e;" horiz-adv-x="735" 
d="M367 -14q-131 0 -215 80.5t-84 227.5v406h143v-411q0 -83 43 -125.5t113 -42.5t113.5 42.5t43.5 125.5v411h144v-406q0 -147 -84.5 -227.5t-216.5 -80.5zM368 733q-44 0 -74.5 31t-30.5 74t30.5 74t74.5 31q43 0 74 -31t31 -74t-31 -74t-74 -31zM368 792q19 0 32.5 13.5
t13.5 32.5q0 20 -13.5 33t-32.5 13t-32.5 -13t-13.5 -33q0 -19 13.5 -32.5t32.5 -13.5z" />
    <glyph glyph-name="uring" unicode="&#x16f;" horiz-adv-x="619" 
d="M409 499h141v-499h-141v60q-66 -73 -167 -73q-87 0 -134.5 55t-47.5 151v306h141v-277q0 -58 28 -82t67 -24q34 0 64.5 18.5t48.5 46.5v318zM306 545q-44 0 -74.5 31t-30.5 74t30.5 74t74.5 31q43 0 74 -31t31 -74t-31 -74t-74 -31zM306 604q19 0 32.5 13.5t13.5 32.5
q0 20 -13.5 33t-32.5 13t-32.5 -13t-13.5 -33q0 -19 13.5 -32.5t32.5 -13.5z" />
    <glyph glyph-name="Uhungarumlaut" unicode="&#x170;" horiz-adv-x="735" 
d="M367 -14q-131 0 -215 80.5t-84 227.5v406h143v-411q0 -83 43 -125.5t113 -42.5t113.5 42.5t43.5 125.5v411h144v-406q0 -147 -84.5 -227.5t-216.5 -80.5zM401 761l95 146h172l-144 -146h-123zM173 761l95 146h172l-144 -146h-123z" />
    <glyph glyph-name="uhungarumlaut" unicode="&#x171;" horiz-adv-x="611" 
d="M409 499h141v-499h-141v60q-66 -73 -167 -73q-87 0 -134.5 55t-47.5 151v306h141v-277q0 -58 28 -82t67 -24q34 0 64.5 18.5t48.5 46.5v318zM349 570l95 146h172l-144 -146h-123zM121 570l95 146h172l-144 -146h-123z" />
    <glyph glyph-name="Uogonek" unicode="&#x172;" horiz-adv-x="735" 
d="M487 -116q20 0 36 6v-83q-24 -9 -60 -9q-60 0 -94 29t-34 75t31 84q-131 0 -214.5 80.5t-83.5 227.5v406h143v-411q0 -83 43 -125.5t113 -42.5t113.5 42.5t43.5 125.5v411h144v-406q0 -198 -167 -282q-34 -17 -51 -36t-17 -46q0 -22 14.5 -34t39.5 -12z" />
    <glyph glyph-name="uogonek" unicode="&#x173;" horiz-adv-x="619" 
d="M545 -202q-60 0 -94 29t-34 74q0 54 45 99h-53v60q-66 -73 -167 -73q-87 0 -134.5 55t-47.5 151v306h141v-277q0 -58 28 -82t67 -24q34 0 64.5 18.5t48.5 46.5v318h141v-499q-35 -35 -35 -70q0 -47 54 -47q23 0 36 7v-84q-21 -8 -60 -8z" />
    <glyph glyph-name="Wcircumflex" unicode="&#x174;" horiz-adv-x="1075" 
d="M256 -4l-235 704h160l144 -472l158 474h112l159 -474l144 472h157l-236 -704h-127l-153 467l-156 -467h-127zM350 762l122 145h136l119 -145h-123l-67 77l-65 -77h-122z" />
    <glyph glyph-name="wcircumflex" unicode="&#x175;" horiz-adv-x="845" 
d="M188 -4l-169 503h141l99 -297l98 299h113l101 -299l97 297h140l-171 -503h-122l-104 301l-103 -301h-120zM224 570l122 146h136l119 -146h-124l-66 78l-66 -78h-121z" />
    <glyph glyph-name="Ycircumflex" unicode="&#x176;" horiz-adv-x="696" 
d="M277 0v314l-271 386h170l174 -249l175 249h165l-270 -383v-317h-143zM160 762l122 145h136l119 -145h-123l-67 77l-65 -77h-122z" />
    <glyph glyph-name="ycircumflex" unicode="&#x177;" horiz-adv-x="579" 
d="M134 -206q-62 0 -100 20v123q35 -20 76 -20q38 0 63.5 24t47.5 76l-215 482h152l132 -328l125 328h149l-231 -551q-66 -154 -199 -154zM98 570l122 146h136l119 -146h-124l-66 78l-66 -78h-121z" />
    <glyph glyph-name="Ydieresis" unicode="&#x178;" horiz-adv-x="696" 
d="M277 0v314l-271 386h170l174 -249l175 249h165l-270 -383v-317h-143zM459 760q-31 0 -52.5 21.5t-21.5 52.5t21.5 52t52.5 21t52 -21t21 -52t-21 -52.5t-52 -21.5zM239 760q-30 0 -52 21.5t-22 52.5q0 30 22 51.5t52 21.5q31 0 52.5 -21t21.5 -52t-21.5 -52.5
t-52.5 -21.5z" />
    <glyph glyph-name="Zacute" unicode="&#x179;" horiz-adv-x="641" 
d="M33 0v102l364 469h-347v129h542v-101l-363 -470h379v-129h-575zM232 761l95 146h170l-143 -146h-122z" />
    <glyph glyph-name="zacute" unicode="&#x17a;" horiz-adv-x="526" 
d="M32 0v93l252 288h-236v118h429v-96l-253 -285h269v-118h-461zM163 570l95 146h170l-143 -146h-122z" />
    <glyph glyph-name="Zdotaccent" unicode="&#x17b;" horiz-adv-x="641" 
d="M33 0v102l364 469h-347v129h542v-101l-363 -470h379v-129h-575zM320 760q-30 0 -52 21.5t-22 52.5q0 30 22 51.5t52 21.5q32 0 53 -21.5t21 -51.5q0 -31 -21 -52.5t-53 -21.5z" />
    <glyph glyph-name="zdotaccent" unicode="&#x17c;" horiz-adv-x="526" 
d="M32 0v93l252 288h-236v118h429v-96l-253 -285h269v-118h-461zM264 569q-30 0 -52 21.5t-22 52.5q0 30 22 51.5t52 21.5q31 0 52 -21t21 -52t-21 -52.5t-52 -21.5z" />
    <glyph glyph-name="Zcaron" unicode="&#x17d;" horiz-adv-x="641" 
d="M33 0v102l364 469h-347v129h542v-101l-363 -470h379v-129h-575zM509 907l-122 -146h-136l-119 146h123l67 -78l65 78h122z" />
    <glyph glyph-name="zcaron" unicode="&#x17e;" horiz-adv-x="526" 
d="M32 0v93l252 288h-236v118h429v-96l-253 -285h269v-118h-461zM451 716l-122 -146h-136l-120 146h124l66 -78l66 78h122z" />
    <glyph glyph-name="longs" unicode="&#x17f;" horiz-adv-x="410" 
d="M248 0h-141v381h-89v118h89v47q0 74 43 120t126 46q73 0 127 -21v-114q-43 17 -86 17q-69 0 -69 -67v-527z" />
    <glyph glyph-name="florin" unicode="&#x192;" horiz-adv-x="504" 
d="M410 712q59 0 98 -19v-116q-35 13 -68 13q-96 0 -115 -116l-8 -47h133v-118h-152l-49 -308q-13 -90 -69.5 -148.5t-155.5 -58.5q-59 0 -98 19v116q35 -13 68 -13q96 0 115 116l44 277h-104v118h123l13 78q13 90 69.5 148.5t155.5 58.5z" />
    <glyph glyph-name="uni0218" unicode="&#x218;" horiz-adv-x="627" 
d="M309 -14q-158 0 -266 75v150q45 -38 118 -65.5t142 -27.5q56 0 95.5 20.5t39.5 60.5q0 13 -3 23t-12.5 18.5t-16.5 14.5t-25 13t-27.5 10t-35 10.5t-36.5 11.5q-37 12 -52 17t-46.5 17t-45.5 21.5t-35 26t-30.5 34.5t-17 43t-7.5 55q0 93 71 146.5t193 53.5t229 -58v-140
q-106 66 -227 66q-119 0 -119 -69q0 -11 4 -19.5t13.5 -16t19 -12.5t27 -11t30.5 -10t37 -10.5t39 -11.5q39 -13 66.5 -24.5t59 -30.5t51 -40.5t32.5 -53.5t13 -70q0 -100 -79 -158.5t-199 -58.5zM202 -270l59 204h130l-84 -204h-105z" />
    <glyph glyph-name="uni0219" unicode="&#x219;" horiz-adv-x="512" 
d="M253 -13q-134 0 -210 47v125q32 -22 87.5 -39.5t116.5 -17.5q86 0 86 42q0 11 -5.5 18.5t-19 12.5t-26.5 8.5t-36.5 9.5t-40.5 11q-84 21 -123 55t-39 100q0 72 58 112.5t162 40.5q113 0 187 -46v-120q-87 52 -181 52q-80 0 -80 -40q0 -10 6 -18t20.5 -13.5t26 -8.5
t35.5 -8.5t36 -8.5q80 -19 121.5 -56t41.5 -102q0 -70 -61 -113t-162 -43zM157 -270l59 204h130l-84 -204h-105z" />
    <glyph glyph-name="uni021A" unicode="&#x21a;" horiz-adv-x="647" 
d="M30 700h587v-129h-222v-571h-144v571h-221v129zM200 -270l59 204h130l-84 -204h-105z" />
    <glyph glyph-name="uni021B" unicode="&#x21b;" horiz-adv-x="441" 
d="M116 155v226h-98v118h98v137h141v-137h142v-118h-142v-198q0 -38 16 -54t52 -16q35 0 73 18v-117q-43 -27 -119 -27q-163 0 -163 168zM151 -270l59 204h130l-84 -204h-105z" />
    <glyph glyph-name="circumflex" unicode="&#x2c6;" horiz-adv-x="540" 
d="M83 570l122 146h136l119 -146h-124l-66 78l-66 -78h-121z" />
    <glyph glyph-name="caron" unicode="&#x2c7;" horiz-adv-x="514" 
d="M421 716l-122 -146h-136l-120 146h124l66 -78l66 78h122z" />
    <glyph glyph-name="uni02C9" unicode="&#x2c9;" horiz-adv-x="503" 
d="M85 596v94h333v-94h-333z" />
    <glyph glyph-name="breve" unicode="&#x2d8;" horiz-adv-x="480" 
d="M239 561q-68 0 -116 44.5t-50 117.5h96q2 -33 21 -53t49 -20t48.5 20t20.5 53h95q-2 -74 -49.5 -118t-114.5 -44z" />
    <glyph glyph-name="dotaccent" unicode="&#x2d9;" horiz-adv-x="568" 
d="M285 569q-30 0 -52 21.5t-22 52.5q0 30 22 51.5t52 21.5q31 0 52 -21t21 -52t-21 -52.5t-52 -21.5z" />
    <glyph glyph-name="ring" unicode="&#x2da;" horiz-adv-x="555" 
d="M263 545q-44 0 -74.5 31t-30.5 74t30.5 74t74.5 31q43 0 74 -31t31 -74t-31 -74t-74 -31zM263 604q19 0 32.5 13.5t13.5 32.5q0 20 -13.5 33t-32.5 13t-32.5 -13t-13.5 -33q0 -19 13.5 -32.5t32.5 -13.5z" />
    <glyph glyph-name="ogonek" unicode="&#x2db;" horiz-adv-x="496" 
d="M302 -200q-60 0 -94 29t-34 74q0 54 45 99h88q-35 -35 -35 -70q0 -47 54 -47q23 0 36 7v-84q-21 -8 -60 -8z" />
    <glyph glyph-name="tilde" unicode="&#x2dc;" horiz-adv-x="509" 
d="M146 576h-76q0 58 31.5 99t81.5 41q30 0 71.5 -22t61.5 -22q35 0 42 41h77q0 -55 -32 -98t-81 -43q-32 0 -73 22.5t-60 22.5q-34 0 -43 -41z" />
    <glyph glyph-name="hungarumlaut" unicode="&#x2dd;" horiz-adv-x="625" 
d="M295 570l95 146h172l-144 -146h-123zM67 570l95 146h172l-144 -146h-123z" />
    <glyph glyph-name="acutecomb" unicode="&#x301;" horiz-adv-x="12" 
d="M-358 570l95 146h170l-143 -146h-122z" />
    <glyph glyph-name="uni037E" unicode="&#x37e;" horiz-adv-x="285" 
d="M6 -152l86 303h151l-121 -303h-116zM161 319q-37 0 -62 25.5t-25 62.5q0 36 25 61t62 25q36 0 61.5 -25t25.5 -61q0 -37 -25.5 -62.5t-61.5 -25.5z" />
    <glyph glyph-name="uni0394" unicode="&#x394;" horiz-adv-x="770" 
d="M16 0l300 700h138l300 -700h-738zM218 127h332l-166 394z" />
    <glyph glyph-name="uni03A9" unicode="&#x3a9;" horiz-adv-x="792" 
d="M721 382q0 -75 -28.5 -144t-70.5 -109h98v-129h-266v109q50 36 85 101.5t35 146.5q0 96 -49 159t-129 63t-129 -63t-49 -159q0 -81 35 -146.5t85 -101.5v-109h-266v129h98q-42 40 -70.5 109t-28.5 144q0 137 89 234.5t236 97.5t236 -97.5t89 -234.5z" />
    <glyph glyph-name="uni03BC" unicode="&#x3bc;" horiz-adv-x="628" 
d="M418 499h141v-499h-141v60q-66 -73 -167 -73q-26 0 -41 4v-191h-141v699h141v-277q0 -58 28 -82t67 -24q34 0 64.5 18.5t48.5 46.5v318z" />
    <glyph glyph-name="pi" unicode="&#x3c0;" horiz-adv-x="700" 
d="M561 -11q-62 0 -100.5 37.5t-38.5 116.5v238h-158v-381h-141v381h-97v118h631v-118h-99v-197q0 -38 10.5 -53.5t39.5 -15.5t49 15v-116q-34 -25 -96 -25z" />
    <glyph glyph-name="uni0401" unicode="&#x401;" horiz-adv-x="640" 
d="M77 0v700h514v-129h-370v-135h298v-127h-298v-180h381v-129h-525zM449 760q-31 0 -52.5 21.5t-21.5 52.5t21.5 52t52.5 21t52 -21t21 -52t-21 -52.5t-52 -21.5zM229 760q-30 0 -52 21.5t-22 52.5q0 30 22 51.5t52 21.5q31 0 52.5 -21t21.5 -52t-21.5 -52.5t-52.5 -21.5z
" />
    <glyph glyph-name="uni0402" unicode="&#x402;" horiz-adv-x="779" 
d="M516 -8q-52 0 -85 11v117q25 -11 64 -11q49 0 79.5 26t30.5 68q0 44 -36 72.5t-99 28.5q-78 0 -140 -29v-275h-143v571h-157v129h522v-129h-222v-161q68 27 158 27q117 0 188 -64t71 -166q0 -93 -62 -154t-169 -61z" />
    <glyph glyph-name="uni0403" unicode="&#x403;" horiz-adv-x="617" 
d="M77 0v700h505v-129h-361v-571h-144zM238 761l95 146h170l-143 -146h-122z" />
    <glyph glyph-name="uni0404" unicode="&#x404;" horiz-adv-x="672" 
d="M434 -14q-159 0 -268 106t-109 258t108 258t267 106q100 0 185 -45v-141q-84 53 -187 53q-76 0 -134 -44t-76 -116h266v-121h-273q16 -81 77 -131t143 -50q121 0 197 60v-143q-86 -50 -196 -50z" />
    <glyph glyph-name="uni0405" unicode="&#x405;" horiz-adv-x="629" 
d="M311 -14q-158 0 -266 75v150q45 -38 118 -65.5t142 -27.5q56 0 95.5 20.5t39.5 60.5q0 13 -3 23t-12.5 18.5t-16.5 14.5t-25 13t-27.5 10t-35 10.5t-36.5 11.5q-37 12 -52 17t-46.5 17t-45.5 21.5t-35 26t-30.5 34.5t-17 43t-7.5 55q0 93 71 146.5t193 53.5t229 -58v-140
q-106 66 -227 66q-119 0 -119 -69q0 -11 4 -19.5t13.5 -16t19 -12.5t27 -11t30.5 -10t37 -10.5t39 -11.5q39 -13 66.5 -24.5t59 -30.5t51 -40.5t32.5 -53.5t13 -70q0 -100 -79 -158.5t-199 -58.5z" />
    <glyph glyph-name="uni0406" unicode="&#x406;" horiz-adv-x="307" 
d="M82 0v700h143v-700h-143z" />
    <glyph glyph-name="uni0407" unicode="&#x407;" horiz-adv-x="307" 
d="M82 0v700h143v-700h-143zM265 760q-31 0 -52.5 21.5t-21.5 52.5t21.5 52t52.5 21t52 -21t21 -52t-21 -52.5t-52 -21.5zM45 760q-30 0 -52 21.5t-22 52.5q0 30 22 51.5t52 21.5q31 0 52.5 -21t21.5 -52t-21.5 -52.5t-52.5 -21.5z" />
    <glyph glyph-name="uni0408" unicode="&#x408;" horiz-adv-x="510" 
d="M196 -14q-108 0 -168 41v142q60 -48 138 -48q67 0 100 31t33 102v446h143v-470q0 -67 -19.5 -116t-54.5 -76t-77.5 -39.5t-94.5 -12.5z" />
    <glyph glyph-name="uni0409" unicode="&#x409;" horiz-adv-x="1102" 
d="M299 571l-4 -142q-6 -243 -55.5 -337.5t-173.5 -94.5q-38 0 -59 9v130q21 -8 51 -8q58 0 76.5 76t22.5 291l3 205h489v-231h150q125 0 198 -65.5t73 -169.5t-73 -169t-198 -65h-293v571h-207zM649 125h141q63 0 99 29t36 82q0 54 -36 83.5t-99 29.5h-141v-224z" />
    <glyph glyph-name="uni040A" unicode="&#x40a;" horiz-adv-x="1123" 
d="M527 0v325h-306v-325h-144v700h144v-248h306v248h143v-231h150q125 0 198 -65.5t73 -169.5t-73 -169t-198 -65h-293zM670 125h141q63 0 99 29t36 82q0 54 -36 83.5t-99 29.5h-141v-224z" />
    <glyph glyph-name="uni040B" unicode="&#x40b;" horiz-adv-x="801" 
d="M330 274v-274h-143v571h-157v129h522v-129h-222v-160q72 26 158 26q124 0 191 -58t67 -171v-208h-143v184q0 66 -33.5 93t-100.5 27q-77 0 -139 -30z" />
    <glyph glyph-name="uni040C" unicode="&#x40c;" horiz-adv-x="706" 
d="M77 0v700h144v-276l258 276h176l-297 -321l348 -379h-184l-301 323v-323h-144zM265 761l95 146h170l-143 -146h-122z" />
    <glyph glyph-name="uni040E" unicode="&#x40e;" horiz-adv-x="663" 
d="M177 -14q-75 0 -106 20v127q34 -19 81 -19q44 0 70 20t54 77l-265 489h159l177 -344l155 344h153l-258 -548q-76 -166 -220 -166zM331 738q-80 0 -130.5 45.5t-52.5 125.5h106q0 -33 20.5 -53t55.5 -20t56 20t22 53h106q0 -79 -52.5 -125t-130.5 -46z" />
    <glyph glyph-name="uni040F" unicode="&#x40f;" horiz-adv-x="736" 
d="M299 -143v143h-222v700h144v-571h293v571h144v-700h-223v-143h-136z" />
    <glyph glyph-name="uni0410" unicode="&#x410;" horiz-adv-x="770" 
d="M16 0l300 704h138l300 -704h-153l-69 162h-296l-69 -162h-151zM281 281h205l-102 243z" />
    <glyph glyph-name="uni0411" unicode="&#x411;" horiz-adv-x="687" 
d="M77 0v700h508v-129h-364v-112h158q122 0 193.5 -64t71.5 -166t-71.5 -165.5t-193.5 -63.5h-302zM221 127h147q63 0 97 27t34 78t-34.5 79t-96.5 28h-147v-212z" />
    <glyph glyph-name="uni0412" unicode="&#x412;" horiz-adv-x="716" 
d="M77 0v700h329q96 0 154 -45.5t58 -129.5q0 -52 -26.5 -88.5t-61.5 -50.5q58 -13 100 -62t42 -125q0 -89 -66 -144t-177 -55h-352zM221 124h181q54 0 84 23.5t30 67.5q0 45 -30 68.5t-84 23.5h-181v-183zM221 426h162q45 0 70.5 20t25.5 56q0 38 -25 58t-71 20h-162v-154z
" />
    <glyph glyph-name="uni0413" unicode="&#x413;" horiz-adv-x="617" 
d="M77 0v700h505v-129h-361v-571h-144z" />
    <glyph glyph-name="uni0414" unicode="&#x414;" horiz-adv-x="795" 
d="M18 -143v272h69q48 75 70 180.5t22 279.5v111h492v-571h96v-272h-135v143h-479v-143h-135zM246 129h281v442h-205q0 -132 -15 -240t-61 -202z" />
    <glyph glyph-name="uni0415" unicode="&#x415;" horiz-adv-x="640" 
d="M77 0v700h514v-129h-370v-135h298v-127h-298v-180h381v-129h-525z" />
    <glyph glyph-name="uni0416" unicode="&#x416;" horiz-adv-x="1031" 
d="M6 0l296 363l-266 337h177l230 -295v295h144v-295l231 295h177l-267 -337l297 -363h-188l-250 309v-309h-144v309l-250 -309h-187z" />
    <glyph glyph-name="uni0417" unicode="&#x417;" horiz-adv-x="629" 
d="M288 -14q-152 0 -253 65v140q47 -32 110.5 -51.5t122.5 -19.5q80 0 124.5 27t44.5 75q0 42 -39.5 64.5t-109.5 22.5h-88v121h105q113 0 113 77q0 35 -35 54.5t-96 19.5q-118 0 -224 -52v133q99 52 231 52q122 0 194 -55t72 -144q0 -53 -29 -89.5t-66 -50.5
q50 -18 85 -60.5t35 -107.5q0 -94 -80 -157.5t-217 -63.5z" />
    <glyph glyph-name="uni0418" unicode="&#x418;" horiz-adv-x="762" 
d="M77 0v700h144v-456l339 456h124v-700h-143v459l-343 -459h-121z" />
    <glyph glyph-name="uni0419" unicode="&#x419;" horiz-adv-x="762" 
d="M77 0v700h144v-456l339 456h124v-700h-143v459l-343 -459h-121zM380 738q-80 0 -130.5 45.5t-52.5 125.5h106q0 -33 20.5 -53t55.5 -20t56 20t22 53h106q0 -79 -52.5 -125t-130.5 -46z" />
    <glyph glyph-name="uni041A" unicode="&#x41a;" horiz-adv-x="706" 
d="M77 0v700h144v-276l258 276h176l-297 -321l348 -379h-184l-301 323v-323h-144z" />
    <glyph glyph-name="uni041B" unicode="&#x41b;" horiz-adv-x="732" 
d="M7 6v130q21 -8 51 -8q58 0 76.5 76t22.5 291l3 205h494v-700h-143v571h-212l-4 -142q-6 -243 -55.5 -337.5t-173.5 -94.5q-38 0 -59 9z" />
    <glyph glyph-name="uni041C" unicode="&#x41c;" horiz-adv-x="846" 
d="M77 0v700h143l203 -290l203 290h142v-700h-142v479l-161 -225h-80l-164 225v-479h-144z" />
    <glyph glyph-name="uni041D" unicode="&#x41d;" horiz-adv-x="758" 
d="M77 0v700h144v-262h316v262h143v-700h-143v307h-316v-307h-144z" />
    <glyph glyph-name="uni041E" unicode="&#x41e;" horiz-adv-x="832" 
d="M416 121q93 0 154.5 65t61.5 164t-61.5 164t-154.5 65t-154.5 -65t-61.5 -164t61.5 -164t154.5 -65zM416 -14q-156 0 -259.5 105.5t-103.5 258.5t103 258.5t260 105.5t260 -105.5t103 -258.5t-103.5 -258.5t-259.5 -105.5z" />
    <glyph glyph-name="uni041F" unicode="&#x41f;" horiz-adv-x="741" 
d="M77 0v700h586v-700h-143v571h-299v-571h-144z" />
    <glyph glyph-name="uni0420" unicode="&#x420;" horiz-adv-x="659" 
d="M77 0v700h306q113 0 178.5 -58t65.5 -153q0 -94 -65.5 -153t-178.5 -59h-162v-277h-144zM221 400h152q52 0 81 22.5t29 64.5t-29 64.5t-81 22.5h-152v-174z" />
    <glyph glyph-name="uni0421" unicode="&#x421;" horiz-adv-x="677" 
d="M432 -14q-162 0 -270.5 102.5t-108.5 261.5t107.5 261.5t271.5 102.5q102 0 185 -44v-145q-79 54 -184 54q-100 0 -166.5 -65t-66.5 -164q0 -100 68 -164.5t171 -64.5q114 0 192 61v-145q-87 -51 -199 -51z" />
    <glyph glyph-name="uni0422" unicode="&#x422;" horiz-adv-x="647" 
d="M30 700h587v-129h-222v-571h-144v571h-221v129z" />
    <glyph glyph-name="uni0423" unicode="&#x423;" horiz-adv-x="663" 
d="M177 -14q-75 0 -106 20v127q34 -19 81 -19q44 0 70 20t54 77l-265 489h159l177 -344l155 344h153l-258 -548q-76 -166 -220 -166z" />
    <glyph glyph-name="uni0424" unicode="&#x424;" horiz-adv-x="927" 
d="M391 -27v77q-162 6 -250 95t-88 211t88 211t250 95v64h145v-64q161 -6 249.5 -95t88.5 -211t-88.5 -211t-249.5 -95v-77h-145zM391 180v352q-92 -2 -141 -49.5t-49 -126.5q0 -78 49.5 -126t140.5 -50zM536 532v-352q90 2 140 50t50 126q0 79 -49 126.5t-141 49.5z" />
    <glyph glyph-name="uni0425" unicode="&#x425;" horiz-adv-x="725" 
d="M216 700l147 -209l149 209h166l-231 -322l272 -378h-168l-190 261l-189 -261h-166l273 377l-231 323h168z" />
    <glyph glyph-name="uni0426" unicode="&#x426;" horiz-adv-x="783" 
d="M619 -143v143h-542v700h144v-571h293v571h144v-571h97v-272h-136z" />
    <glyph glyph-name="uni0427" unicode="&#x427;" horiz-adv-x="692" 
d="M471 0v273q-75 -25 -158 -25q-125 0 -192 57.5t-67 170.5v224h144v-200q0 -65 33.5 -92t100.5 -27q78 0 139 30v289h143v-700h-143z" />
    <glyph glyph-name="uni0428" unicode="&#x428;" horiz-adv-x="1033" 
d="M77 0v700h144v-571h223v571h143v-571h224v571h144v-700h-878z" />
    <glyph glyph-name="uni0429" unicode="&#x429;" horiz-adv-x="1080" 
d="M916 -143v143h-839v700h144v-571h224v571h143v-571h224v571h143v-571h97v-272h-136z" />
    <glyph glyph-name="uni042A" unicode="&#x42a;" horiz-adv-x="800" 
d="M199 0v571h-179v129h323v-231h154q125 0 198 -65.5t73 -169.5t-73 -169t-198 -65h-298zM343 127h146q64 0 99 28t35 81q0 54 -35 82.5t-99 28.5h-146v-220z" />
    <glyph glyph-name="uni042B" unicode="&#x42b;" horiz-adv-x="928" 
d="M706 0v700h144v-700h-144zM77 0v700h144v-231h130q125 0 198 -65.5t73 -169.5t-73 -169t-198 -65h-274zM221 127h122q64 0 99 28t35 81q0 54 -35 82.5t-99 28.5h-122v-220z" />
    <glyph glyph-name="uni042C" unicode="&#x42c;" horiz-adv-x="678" 
d="M77 0v700h144v-231h154q125 0 198 -65.5t73 -169.5t-73 -169t-198 -65h-298zM221 127h146q64 0 99 28t35 81q0 54 -35 82.5t-99 28.5h-146v-220z" />
    <glyph glyph-name="uni042D" unicode="&#x42d;" horiz-adv-x="672" 
d="M242 -14q-110 0 -196 50v143q76 -60 197 -60q82 0 143 50t77 131h-273v121h266q-18 72 -76 116t-134 44q-103 0 -187 -53v141q85 45 185 45q159 0 267 -106t108 -258t-109 -258t-268 -106z" />
    <glyph glyph-name="uni042E" unicode="&#x42e;" horiz-adv-x="1050" 
d="M658 714q145 0 242 -106t97 -258t-97 -258t-242 -106q-132 0 -220.5 84t-113.5 217h-101v-287h-146v700h146v-282h102q21 128 113 212t220 84zM658 121q85 0 139 62.5t54 166.5t-54 166.5t-139 62.5q-84 0 -138 -62.5t-54 -166.5q0 -103 54 -166t138 -63z" />
    <glyph glyph-name="uni042F" unicode="&#x42f;" horiz-adv-x="733" 
d="M17 0l219 299q-69 21 -107.5 72.5t-38.5 121.5q0 92 65 149.5t176 57.5h324v-700h-144v283h-122l-206 -283h-166zM339 404h172v170h-172q-49 0 -76.5 -22t-27.5 -63t27.5 -63t76.5 -22z" />
    <glyph glyph-name="uni0430" unicode="&#x430;" horiz-adv-x="602" 
d="M544 109q18 0 29 6v-103q-27 -21 -76 -21q-85 0 -113 64q-68 -68 -172 -68q-82 0 -133 45.5t-51 121.5q0 80 58 122t139 42q84 0 144 -31v15q0 94 -132 94q-80 0 -151 -42v118q76 40 185 40q107 0 172.5 -52t65.5 -144v-169q0 -38 35 -38zM369 147v50q-41 29 -104 29
q-45 0 -71.5 -16.5t-26.5 -48.5q0 -65 89 -65q75 0 113 51z" />
    <glyph glyph-name="uni0431" unicode="&#x431;" horiz-adv-x="609" 
d="M353 467q97 0 159 -61t62 -162q0 -113 -74.5 -185t-186.5 -72q-132 0 -203 89t-71 236q0 99 28 168t90.5 115.5t146.5 74t212 48.5v-131q-17 -3 -52.5 -9t-52 -9t-47 -9.5t-46 -11.5t-39.5 -14t-36.5 -18.5t-28.5 -23.5t-24 -29.5t-14.5 -36t-8.5 -44.5q67 85 186 85z
M312 106q54 0 88.5 36t34.5 92q0 53 -32.5 84.5t-85.5 31.5q-43 0 -81 -21.5t-59 -54.5q2 -81 37 -124.5t98 -43.5z" />
    <glyph glyph-name="uni0432" unicode="&#x432;" horiz-adv-x="585" 
d="M69 0v499h282q78 0 119 -36.5t41 -91.5q0 -76 -61 -106q95 -34 95 -128q0 -64 -47 -100.5t-135 -36.5h-294zM208 99h120q73 0 73 56t-73 56h-120v-112zM208 300h98q67 0 67 51t-67 51h-98v-102z" />
    <glyph glyph-name="uni0433" unicode="&#x433;" horiz-adv-x="484" 
d="M69 0v499h396v-118h-255v-381h-141z" />
    <glyph glyph-name="uni0434" unicode="&#x434;" horiz-adv-x="676" 
d="M20 -127v245h64q56 86 60 284l2 97h420v-381h82v-245h-133v127h-360v-127h-135zM228 118h200v263h-156q0 -156 -44 -263z" />
    <glyph glyph-name="uni0435" unicode="&#x435;" horiz-adv-x="573" 
d="M313 -13q-117 0 -197 72t-80 191q0 111 72.5 186.5t187.5 75.5q109 0 173.5 -76.5t64.5 -187.5v-37h-358q11 -51 56 -77.5t111 -26.5q87 0 160 44v-113q-67 -51 -190 -51zM176 301h219q-2 42 -30.5 71t-74.5 29q-49 0 -79 -28t-35 -72z" />
    <glyph glyph-name="uni0436" unicode="&#x436;" horiz-adv-x="831" 
d="M13 0l215 266l-193 233h159l152 -188v188h139v-188l151 188h159l-193 -233l216 -266h-168l-165 213v-213h-139v213l-166 -213h-167z" />
    <glyph glyph-name="uni0437" unicode="&#x437;" horiz-adv-x="532" 
d="M244 -13q-116 0 -194 38v114q78 -40 174 -40q57 0 88.5 15t31.5 43q0 49 -88 49h-98v102h98q72 0 72 44q0 48 -102 48q-91 0 -162 -34v110q74 36 193 36q92 0 153.5 -39t61.5 -98q0 -83 -72 -107q39 -11 65.5 -41.5t26.5 -77.5q0 -71 -68.5 -116.5t-179.5 -45.5z" />
    <glyph glyph-name="uni0438" unicode="&#x438;" horiz-adv-x="635" 
d="M69 0v499h139v-294l226 294h132v-499h-139v294l-226 -294h-132z" />
    <glyph glyph-name="uni0439" unicode="&#x439;" horiz-adv-x="635" 
d="M69 0v499h139v-294l226 294h132v-499h-139v294l-226 -294h-132zM317 554q-78 0 -129.5 46t-51.5 125h106q0 -33 19.5 -53t54.5 -20q34 0 53.5 20t20.5 53h107q0 -79 -51.5 -125t-128.5 -46z" />
    <glyph glyph-name="uni043A" unicode="&#x43a;" horiz-adv-x="599" 
d="M69 0v499h141v-182l172 182h173l-217 -225l251 -274h-182l-197 215v-215h-141z" />
    <glyph glyph-name="uni043B" unicode="&#x43b;" horiz-adv-x="633" 
d="M269 381l-2 -70q-1 -43 -4.5 -76t-11 -71.5t-21.5 -66.5t-34 -52t-51.5 -36.5t-71.5 -12.5q-36 0 -53 9v115q11 -4 29 -4q25 0 41 15t24.5 49.5t11.5 72t4 99.5l3 147h431v-499h-141v381h-154z" />
    <glyph glyph-name="uni043C" unicode="&#x43c;" horiz-adv-x="707" 
d="M69 0v499h139l145 -186l146 186h139v-499h-133v308l-124 -155h-56l-123 155v-308h-133z" />
    <glyph glyph-name="uni043D" unicode="&#x43d;" horiz-adv-x="625" 
d="M69 0v499h141v-185h205v185h141v-499h-141v196h-205v-196h-141z" />
    <glyph glyph-name="uni043E" unicode="&#x43e;" horiz-adv-x="625" 
d="M313 110q60 0 99 40t39 100t-39 99.5t-99 39.5t-99 -39.5t-39 -99.5t39 -100t99 -40zM313 -13q-121 0 -199 75.5t-78 187.5q0 111 78 186.5t199 75.5t199 -76t78 -186q0 -112 -78 -187.5t-199 -75.5z" />
    <glyph glyph-name="uni043F" unicode="&#x43f;" horiz-adv-x="619" 
d="M69 0v499h481v-499h-141v381h-199v-381h-141z" />
    <glyph glyph-name="uni0440" unicode="&#x440;" horiz-adv-x="644" 
d="M374 512q102 0 168.5 -75.5t66.5 -187.5q0 -111 -66.5 -186.5t-168.5 -75.5q-106 0 -164 74v-261h-141v699h141v-61q56 74 164 74zM334 389q-42 0 -74.5 -21.5t-49.5 -53.5v-130q17 -32 49.5 -53t74.5 -21q59 0 97 40t38 99q0 60 -38 100t-97 40z" />
    <glyph glyph-name="uni0441" unicode="&#x441;" horiz-adv-x="516" 
d="M307 -13q-111 0 -191 72.5t-80 191.5q0 118 80.5 189.5t192.5 71.5q81 0 148 -33v-120q-65 30 -127 30q-65 0 -110 -38.5t-45 -100.5t45 -101t110 -39q74 0 135 34v-120q-67 -37 -158 -37z" />
    <glyph glyph-name="uni0442" unicode="&#x442;" horiz-adv-x="484" 
d="M171 0v381h-156v118h455v-118h-158v-381h-141z" />
    <glyph glyph-name="uni0443" unicode="&#x443;" horiz-adv-x="579" 
d="M134 -206q-62 0 -100 20v123q35 -20 76 -20q38 0 63.5 24t47.5 76l-215 482h152l132 -328l125 328h149l-231 -551q-66 -154 -199 -154z" />
    <glyph glyph-name="uni0444" unicode="&#x444;" horiz-adv-x="759" 
d="M311 700h139v-195q129 -6 201.5 -77t72.5 -178q0 -109 -70.5 -176.5t-203.5 -78.5v-195h-139v195q-130 6 -202.5 77t-72.5 178q0 109 71.5 177t203.5 78v195zM172 250q0 -63 37 -101t102 -41v283q-65 -4 -102 -41.5t-37 -99.5zM589 250q0 62 -37 99.5t-102 41.5v-283
q65 3 102 41t37 101z" />
    <glyph glyph-name="uni0445" unicode="&#x445;" horiz-adv-x="593" 
d="M192 499l100 -140l101 140h156l-175 -238l190 -261h-158l-116 160l-117 -160h-156l191 260l-174 239h158z" />
    <glyph glyph-name="uni0446" unicode="&#x446;" horiz-adv-x="662" 
d="M498 -127v127h-429v499h141v-381h201v381h141v-381h82v-245h-136z" />
    <glyph glyph-name="uni0447" unicode="&#x447;" horiz-adv-x="577" 
d="M367 0v164q-48 -17 -109 -17q-213 0 -213 204v148h141v-134q0 -54 21.5 -76.5t72.5 -22.5q52 0 87 19v214h141v-499h-141z" />
    <glyph glyph-name="uni0448" unicode="&#x448;" horiz-adv-x="860" 
d="M69 0v499h139v-381h152v381h138v-381h155v381h138v-499h-722z" />
    <glyph glyph-name="uni0449" unicode="&#x449;" horiz-adv-x="901" 
d="M746 -127v127h-677v499h139v-381h152v381h138v-381h155v381h138v-381h82v-245h-127z" />
    <glyph glyph-name="uni044A" unicode="&#x44a;" horiz-adv-x="655" 
d="M154 0v381h-140v118h281v-146h120q94 0 150 -48t56 -128q0 -76 -52 -126.5t-147 -50.5h-268zM295 109h98q41 0 64 18t23 51q0 34 -23 52t-64 18h-98v-139z" />
    <glyph glyph-name="uni044B" unicode="&#x44b;" horiz-adv-x="786" 
d="M578 0v499h139v-499h-139zM69 0v499h141v-146h102q94 0 150 -48t56 -128q0 -76 -52 -126.5t-147 -50.5h-250zM210 109h80q41 0 64 18t23 51q0 34 -23 52t-64 18h-80v-139z" />
    <glyph glyph-name="uni044C" unicode="&#x44c;" horiz-adv-x="570" 
d="M69 0v499h141v-146h120q94 0 150 -48t56 -128q0 -76 -52 -126.5t-147 -50.5h-268zM210 109h98q41 0 64 18t23 51q0 34 -23 52t-64 18h-98v-139z" />
    <glyph glyph-name="uni044D" unicode="&#x44d;" horiz-adv-x="511" 
d="M205 -13q-92 0 -156 36v115q64 -34 134 -34q57 0 98.5 27t51.5 71h-184v98h183q-11 45 -51.5 70.5t-97.5 25.5q-64 0 -124 -29v113q63 32 146 32q111 0 191 -71.5t80 -189.5q0 -119 -80 -191.5t-191 -72.5z" />
    <glyph glyph-name="uni044E" unicode="&#x44e;" horiz-adv-x="837" 
d="M543 -13q-100 0 -168.5 59t-84.5 151h-80v-197h-141v499h141v-184h83q18 87 86 142t164 55q114 0 186.5 -75.5t72.5 -186.5q0 -112 -72 -187.5t-187 -75.5zM543 110q54 0 87 40.5t33 99.5t-33 99t-87 40q-55 0 -88.5 -40t-33.5 -99t33.5 -99.5t88.5 -40.5z" />
    <glyph glyph-name="uni044F" unicode="&#x44f;" horiz-adv-x="593" 
d="M25 0l134 190q-99 36 -99 147q0 70 49 116t147 46h268v-499h-141v165h-85l-115 -165h-158zM279 267h104v122h-104q-35 0 -55 -16t-20 -45t20 -45t55 -16z" />
    <glyph glyph-name="uni0451" unicode="&#x451;" horiz-adv-x="573" 
d="M313 -13q-117 0 -197 72t-80 191q0 111 72.5 186.5t187.5 75.5q109 0 173.5 -76.5t64.5 -187.5v-37h-358q11 -51 56 -77.5t111 -26.5q87 0 160 44v-113q-67 -51 -190 -51zM176 301h219q-2 42 -30.5 71t-74.5 29q-49 0 -79 -28t-35 -72zM398 569q-31 0 -52.5 21.5
t-21.5 52.5t21.5 52t52.5 21t52.5 -21t21.5 -52t-21.5 -52.5t-52.5 -21.5zM178 569q-30 0 -52 21.5t-22 52.5q0 30 22 51.5t52 21.5q32 0 53 -21t21 -52t-21 -52.5t-53 -21.5z" />
    <glyph glyph-name="uni0452" unicode="&#x452;" horiz-adv-x="665" 
d="M425 -206q-76 0 -111 22v120q33 -19 75 -19q76 0 76 79v210q0 58 -28 82t-67 24q-34 0 -64.5 -18.5t-48.5 -46.5v-247h-141v518h-102v93h102v89h141v-89h160v-93h-160v-151q68 74 167 74q87 0 134.5 -55t47.5 -151v-253q0 -90 -48.5 -139t-132.5 -49z" />
    <glyph glyph-name="uni0453" unicode="&#x453;" horiz-adv-x="484" 
d="M166 570l95 146h170l-143 -146h-122zM69 0v499h396v-118h-255v-381h-141z" />
    <glyph glyph-name="uni0454" unicode="&#x454;" horiz-adv-x="514" 
d="M311 -13q-111 0 -191 72.5t-80 191.5q0 118 80 189.5t191 71.5q83 0 146 -32v-113q-60 29 -124 29q-57 0 -97.5 -25.5t-51.5 -70.5h183v-98h-184q10 -44 51.5 -71t98.5 -27q70 0 134 34v-115q-64 -36 -156 -36z" />
    <glyph glyph-name="uni0455" unicode="&#x455;" horiz-adv-x="490" 
d="M247 -13q-134 0 -210 47v125q32 -22 87.5 -39.5t116.5 -17.5q86 0 86 42q0 11 -5.5 18.5t-19 12.5t-26.5 8.5t-36.5 9.5t-40.5 11q-84 21 -123 55t-39 100q0 72 58 112.5t162 40.5q113 0 187 -46v-120q-87 52 -181 52q-80 0 -80 -40q0 -10 6 -18t20.5 -13.5t26 -8.5
t35.5 -8.5t36 -8.5q80 -19 121.5 -56t41.5 -102q0 -70 -61 -113t-162 -43z" />
    <glyph glyph-name="uni0456" unicode="&#x456;" horiz-adv-x="293" 
d="M76 0v499h141v-499h-141zM146 547q-35 0 -59.5 24.5t-24.5 59.5q0 36 24.5 60.5t59.5 24.5t59.5 -24.5t24.5 -60.5q0 -35 -24.5 -59.5t-59.5 -24.5z" />
    <glyph glyph-name="uni0457" unicode="&#x457;" horiz-adv-x="266" 
d="M244 569q-31 0 -52.5 21.5t-21.5 52.5t21.5 52t52.5 21t52.5 -21t21.5 -52t-21.5 -52.5t-52.5 -21.5zM24 569q-30 0 -52 21.5t-22 52.5q0 30 22 51.5t52 21.5q32 0 53 -21t21 -52t-21 -52.5t-53 -21.5zM63 0v499h141v-499h-141z" />
    <glyph glyph-name="uni0458" unicode="&#x458;" horiz-adv-x="293" 
d="M36 -206q-76 0 -111 22v120q33 -19 75 -19q76 0 76 79v503h141v-517q0 -90 -48.5 -139t-132.5 -49zM145 547q-35 0 -59.5 24.5t-24.5 59.5q0 36 24.5 60.5t59.5 24.5t60 -24.5t25 -60.5q0 -35 -25 -59.5t-60 -24.5z" />
    <glyph glyph-name="uni0459" unicode="&#x459;" horiz-adv-x="919" 
d="M418 0v381h-149q-7 -150 -13 -189q-25 -160 -127 -189q-26 -7 -56 -7q-36 0 -53 9v115q11 -4 29 -4q50 0 66.5 62t16.5 200l1 121h426v-146h120q94 0 150 -48t56 -128q0 -76 -52 -126.5t-147 -50.5h-268zM559 109h98q41 0 64 18t23 51q0 34 -23 52t-64 18h-98v-139z" />
    <glyph glyph-name="uni045A" unicode="&#x45a;" horiz-adv-x="909" 
d="M408 0v213h-198v-213h-141v499h141v-173h198v173h141v-146h120q94 0 150 -48t56 -128q0 -76 -52 -126.5t-147 -50.5h-268zM549 109h98q41 0 64 18t23 51q0 34 -23 52t-64 18h-98v-139z" />
    <glyph glyph-name="uni045B" unicode="&#x45b;" horiz-adv-x="665" 
d="M257 0h-141v518h-102v93h102v89h141v-89h160v-93h-160v-151q68 74 167 74q87 0 134.5 -55t47.5 -151v-235h-141v206q0 58 -28 82t-67 24q-34 0 -64.5 -18.5t-48.5 -46.5v-247z" />
    <glyph glyph-name="uni045C" unicode="&#x45c;" horiz-adv-x="599" 
d="M228 570l95 146h170l-143 -146h-122zM69 0v499h141v-182l172 182h173l-217 -225l251 -274h-182l-197 215v-215h-141z" />
    <glyph glyph-name="uni045E" unicode="&#x45e;" horiz-adv-x="579" 
d="M134 -206q-62 0 -100 20v123q35 -20 76 -20q38 0 63.5 24t47.5 76l-215 482h152l132 -328l125 328h149l-231 -551q-66 -154 -199 -154zM285 554q-78 0 -129.5 46t-51.5 125h106q0 -33 19.5 -53t54.5 -20q34 0 53.5 20t20.5 53h107q0 -79 -51.5 -125t-128.5 -46z" />
    <glyph glyph-name="uni045F" unicode="&#x45f;" horiz-adv-x="621" 
d="M242 -127v127h-173v499h141v-381h201v381h141v-499h-173v-127h-137z" />
    <glyph glyph-name="uni0490" unicode="&#x490;" horiz-adv-x="615" 
d="M77 0v700h373v139h130v-268h-359v-571h-144z" />
    <glyph glyph-name="uni0491" unicode="&#x491;" horiz-adv-x="484" 
d="M69 0v499h267v124h129v-242h-255v-381h-141z" />
    <glyph glyph-name="uni0492" unicode="&#x492;" horiz-adv-x="674" 
d="M35 292v118h96v290h505v-129h-361v-161h226v-118h-226v-292h-144v292h-96z" />
    <glyph glyph-name="uni0493" unicode="&#x493;" horiz-adv-x="514" 
d="M12 174v104h81v221h396v-118h-255v-103h172v-104h-172v-174h-141v174h-81z" />
    <glyph glyph-name="uni049A" unicode="&#x49a;" horiz-adv-x="726" 
d="M77 0v700h144v-276l258 276h176l-297 -321l229 -250h119v-272h-136v143h-48l-301 323v-323h-144z" />
    <glyph glyph-name="uni049B" unicode="&#x49b;" horiz-adv-x="616" 
d="M69 0v499h141v-182l172 182h173l-217 -225l143 -156h108v-245h-136v127h-46l-197 215v-215h-141z" />
    <glyph glyph-name="uni04A2" unicode="&#x4a2;" horiz-adv-x="805" 
d="M641 0h-104v307h-316v-307h-144v700h144v-262h316v262h143v-571h97v-272h-136v143z" />
    <glyph glyph-name="uni04A3" unicode="&#x4a3;" horiz-adv-x="662" 
d="M65 0v499h141v-185h205v185h141v-381h82v-245h-136v127h-87v196h-205v-196h-141z" />
    <glyph glyph-name="uni04AE" unicode="&#x4ae;" horiz-adv-x="696" 
d="M277 0v314l-271 386h170l174 -249l175 249h165l-270 -383v-317h-143z" />
    <glyph glyph-name="uni04AF" unicode="&#x4af;" horiz-adv-x="592" 
d="M577 499l-211 -508v-191h-141v193l-210 506h152l132 -342l131 342h147z" />
    <glyph glyph-name="uni04B0" unicode="&#x4b0;" horiz-adv-x="696" 
d="M596 348v-115h-176v-233h-143v233h-173v115h149l-247 352h170l174 -249l175 249h165l-248 -352h154z" />
    <glyph glyph-name="uni04B1" unicode="&#x4b1;" horiz-adv-x="592" 
d="M85 -60v103h119l-189 456h152l132 -342l131 342h147l-189 -456h121v-103h-143v-140h-141v140h-140z" />
    <glyph glyph-name="uni04BA" unicode="&#x4ba;" horiz-adv-x="691" 
d="M220 274v-274h-143v700h143v-289q72 26 158 26q124 0 191 -58t67 -171v-208h-143v184q0 66 -33.5 93t-100.5 27q-77 0 -139 -30z" />
    <glyph glyph-name="uni04BB" unicode="&#x4bb;" horiz-adv-x="618" 
d="M210 0h-141v700h141v-262q68 74 167 74q87 0 134.5 -55t47.5 -151v-306h-141v277q0 58 -28 82t-67 24q-34 0 -64.5 -18.5t-48.5 -46.5v-318z" />
    <glyph glyph-name="uni04D8" unicode="&#x4d8;" horiz-adv-x="779" 
d="M384 111q80 0 132.5 52t54.5 134h-372q2 -83 54.5 -134.5t130.5 -51.5zM363 714q154 0 259 -101.5t105 -269.5q0 -155 -94.5 -256t-251.5 -101q-146 0 -239.5 97t-93.5 258v73h517q-10 71 -71 117.5t-154 46.5q-120 0 -206 -51v140q37 21 101.5 34t127.5 13z" />
    <glyph glyph-name="uni04D9" unicode="&#x4d9;" horiz-adv-x="572" 
d="M285 98q47 0 78 30t34 77h-217q2 -52 31.5 -79.5t73.5 -27.5zM266 512q114 0 192.5 -71.5t78.5 -189.5q0 -111 -70.5 -187.5t-189.5 -76.5q-106 0 -172 71.5t-66 188.5v45h357q-12 47 -56 73.5t-105 26.5q-82 0 -155 -41v116q73 45 186 45z" />
    <glyph glyph-name="uni04E8" unicode="&#x4e8;" horiz-adv-x="832" 
d="M416 -14q-156 0 -259.5 105.5t-103.5 258.5t103 258.5t260 105.5t260 -105.5t103 -258.5t-103.5 -258.5t-259.5 -105.5zM416 121q80 0 139 49t71 127h-422q12 -77 72 -126.5t140 -49.5zM416 579q-77 0 -136.5 -46t-72.5 -119h417q-16 73 -73.5 119t-134.5 46z" />
    <glyph glyph-name="uni04E9" unicode="&#x4e9;" horiz-adv-x="625" 
d="M313 -13q-121 0 -199 75.5t-78 187.5q0 111 78 186.5t199 75.5t199 -76t78 -186q0 -112 -78 -187.5t-199 -75.5zM313 110q48 0 83.5 26t48.5 71h-264q12 -44 47.5 -70.5t84.5 -26.5zM313 389q-48 0 -83.5 -26t-48.5 -69h264q-13 43 -49 69t-83 26z" />
    <glyph glyph-name="uni1E02" unicode="&#x1e02;" horiz-adv-x="716" 
d="M77 0v700h329q96 0 154 -45.5t58 -129.5q0 -52 -26.5 -88.5t-61.5 -50.5q58 -13 100 -62t42 -125q0 -89 -66 -144t-177 -55h-352zM221 124h181q54 0 84 23.5t30 67.5q0 45 -30 68.5t-84 23.5h-181v-183zM221 426h162q45 0 70.5 20t25.5 56q0 38 -25 58t-71 20h-162v-154z
M335 760q-30 0 -52 21.5t-22 52.5q0 30 22 51.5t52 21.5q32 0 53 -21.5t21 -51.5q0 -31 -21 -52.5t-53 -21.5z" />
    <glyph glyph-name="uni1E03" unicode="&#x1e03;" horiz-adv-x="644" 
d="M374 -13q-108 0 -164 74v-61h-141v700h141v-262q58 74 164 74q102 0 168.5 -75.5t66.5 -186.5q0 -112 -66.5 -187.5t-168.5 -75.5zM334 110q59 0 97 40t38 100q0 59 -38 99t-97 40q-42 0 -74.5 -21t-49.5 -53v-130q17 -32 49.5 -53.5t74.5 -21.5zM332 760q-30 0 -52 21.5
t-22 52.5q0 30 22 51.5t52 21.5q32 0 53 -21.5t21 -51.5q0 -31 -21 -52.5t-53 -21.5z" />
    <glyph glyph-name="uni1E0A" unicode="&#x1e0a;" horiz-adv-x="776" 
d="M77 0v700h262q170 0 277 -97.5t107 -252.5t-107 -252.5t-277 -97.5h-262zM221 129h106q118 0 183 58.5t65 162.5t-65 162.5t-183 58.5h-106v-442zM355 760q-30 0 -52 21.5t-22 52.5q0 30 22 51.5t52 21.5q32 0 53 -21.5t21 -51.5q0 -31 -21 -52.5t-53 -21.5z" />
    <glyph glyph-name="uni1E0B" unicode="&#x1e0b;" horiz-adv-x="645" 
d="M271 -13q-102 0 -168.5 75.5t-66.5 187.5q0 111 66.5 186.5t168.5 75.5q106 0 164 -74v262h141v-700h-141v61q-56 -74 -164 -74zM311 110q42 0 74.5 21.5t49.5 53.5v130q-17 32 -49.5 53t-74.5 21q-59 0 -97 -40t-38 -99q0 -60 38 -100t97 -40zM319 760q-30 0 -52 21.5
t-22 52.5q0 30 22 51.5t52 21.5q32 0 53 -21.5t21 -51.5q0 -31 -21 -52.5t-53 -21.5z" />
    <glyph glyph-name="uni1E1E" unicode="&#x1e1e;" horiz-adv-x="628" 
d="M77 0v700h513v-129h-369v-142h285v-127h-285v-302h-144zM333 760q-30 0 -52 21.5t-22 52.5q0 30 22 51.5t52 21.5q32 0 53 -21.5t21 -51.5q0 -31 -21 -52.5t-53 -21.5z" />
    <glyph glyph-name="uni1E1F" unicode="&#x1e1f;" horiz-adv-x="425" 
d="M248 0h-141v381h-89v118h89v47q0 74 43 120t126 46q73 0 127 -21v-114q-43 17 -86 17q-69 0 -69 -67v-28h155v-118h-155v-381zM256 760q-30 0 -52 21.5t-22 52.5q0 30 22 51.5t52 21.5q32 0 53 -21.5t21 -51.5q0 -31 -21 -52.5t-53 -21.5z" />
    <glyph glyph-name="uni1E40" unicode="&#x1e40;" horiz-adv-x="846" 
d="M77 0v700h143l203 -290l203 290h142v-700h-142v479l-161 -225h-80l-164 225v-479h-144zM422 760q-30 0 -52 21.5t-22 52.5q0 30 22 51.5t52 21.5q32 0 53 -21.5t21 -51.5q0 -31 -21 -52.5t-53 -21.5z" />
    <glyph glyph-name="uni1E41" unicode="&#x1e41;" horiz-adv-x="926" 
d="M69 0v499h141v-61q57 74 152 74q56 0 96.5 -24.5t58.5 -60.5q25 37 71 61t101 24q80 0 129 -51t49 -149v-312h-141v280q0 103 -83 103q-32 0 -60.5 -19.5t-43.5 -48.5v-315h-141v280q0 103 -83 103q-31 0 -60.5 -19t-44.5 -47v-317h-141zM468 569q-30 0 -52 21.5
t-22 52.5q0 30 22 51.5t52 21.5q31 0 52 -21t21 -52t-21 -52.5t-52 -21.5z" />
    <glyph glyph-name="uni1E56" unicode="&#x1e56;" horiz-adv-x="659" 
d="M77 0v700h306q113 0 178.5 -58t65.5 -153q0 -94 -65.5 -153t-178.5 -59h-162v-277h-144zM221 400h152q52 0 81 22.5t29 64.5t-29 64.5t-81 22.5h-152v-174zM331 760q-30 0 -52 21.5t-22 52.5q0 30 22 51.5t52 21.5q32 0 53 -21.5t21 -51.5q0 -31 -21 -52.5t-53 -21.5z
" />
    <glyph glyph-name="uni1E57" unicode="&#x1e57;" horiz-adv-x="644" 
d="M374 512q102 0 168.5 -75.5t66.5 -187.5q0 -111 -66.5 -186.5t-168.5 -75.5q-106 0 -164 74v-261h-141v699h141v-61q56 74 164 74zM334 389q-42 0 -74.5 -21.5t-49.5 -53.5v-130q17 -32 49.5 -53t74.5 -21q59 0 97 40t38 99q0 60 -38 100t-97 40zM335 569q-30 0 -52 21.5
t-22 52.5q0 30 22 51.5t52 21.5q31 0 52 -21t21 -52t-21 -52.5t-52 -21.5z" />
    <glyph glyph-name="uni1E60" unicode="&#x1e60;" horiz-adv-x="627" 
d="M309 -14q-158 0 -266 75v150q45 -38 118 -65.5t142 -27.5q56 0 95.5 20.5t39.5 60.5q0 13 -3 23t-12.5 18.5t-16.5 14.5t-25 13t-27.5 10t-35 10.5t-36.5 11.5q-37 12 -52 17t-46.5 17t-45.5 21.5t-35 26t-30.5 34.5t-17 43t-7.5 55q0 93 71 146.5t193 53.5t229 -58v-140
q-106 66 -227 66q-119 0 -119 -69q0 -11 4 -19.5t13.5 -16t19 -12.5t27 -11t30.5 -10t37 -10.5t39 -11.5q39 -13 66.5 -24.5t59 -30.5t51 -40.5t32.5 -53.5t13 -70q0 -100 -79 -158.5t-199 -58.5zM304 760q-30 0 -52 21.5t-22 52.5q0 30 22 51.5t52 21.5q32 0 53 -21.5
t21 -51.5q0 -31 -21 -52.5t-53 -21.5z" />
    <glyph glyph-name="uni1E61" unicode="&#x1e61;" horiz-adv-x="512" 
d="M253 -13q-134 0 -210 47v125q32 -22 87.5 -39.5t116.5 -17.5q86 0 86 42q0 11 -5.5 18.5t-19 12.5t-26.5 8.5t-36.5 9.5t-40.5 11q-84 21 -123 55t-39 100q0 72 58 112.5t162 40.5q113 0 187 -46v-120q-87 52 -181 52q-80 0 -80 -40q0 -10 6 -18t20.5 -13.5t26 -8.5
t35.5 -8.5t36 -8.5q80 -19 121.5 -56t41.5 -102q0 -70 -61 -113t-162 -43zM249 569q-30 0 -52 21.5t-22 52.5q0 30 22 51.5t52 21.5q31 0 52 -21t21 -52t-21 -52.5t-52 -21.5z" />
    <glyph glyph-name="uni1E6A" unicode="&#x1e6a;" horiz-adv-x="647" 
d="M30 700h587v-129h-222v-571h-144v571h-221v129zM322 760q-30 0 -52 21.5t-22 52.5q0 30 22 51.5t52 21.5q32 0 53 -21.5t21 -51.5q0 -31 -21 -52.5t-53 -21.5z" />
    <glyph glyph-name="uni1E6B" unicode="&#x1e6b;" horiz-adv-x="441" 
d="M116 155v226h-98v118h98v137h141v-137h142v-118h-142v-198q0 -38 16 -54t52 -16q35 0 73 18v-117q-43 -27 -119 -27q-163 0 -163 168zM188 679q-30 0 -52 21.5t-22 52.5q0 30 22 51.5t52 21.5q31 0 52 -21t21 -52t-21 -52.5t-52 -21.5z" />
    <glyph glyph-name="Wgrave" unicode="&#x1e80;" horiz-adv-x="1075" 
d="M256 -4l-235 704h160l144 -472l158 474h112l159 -474l144 472h157l-236 -704h-127l-153 467l-156 -467h-127zM504 907l95 -146h-122l-143 146h170z" />
    <glyph glyph-name="wgrave" unicode="&#x1e81;" horiz-adv-x="845" 
d="M188 -4l-169 503h141l99 -297l98 299h113l101 -299l97 297h140l-171 -503h-122l-104 301l-103 -301h-120zM381 722l95 -146h-122l-144 146h171z" />
    <glyph glyph-name="Wacute" unicode="&#x1e82;" horiz-adv-x="1075" 
d="M256 -4l-235 704h160l144 -472l158 474h112l159 -474l144 472h157l-236 -704h-127l-153 467l-156 -467h-127zM481 761l95 146h170l-143 -146h-122z" />
    <glyph glyph-name="wacute" unicode="&#x1e83;" horiz-adv-x="845" 
d="M188 -4l-169 503h141l99 -297l98 299h113l101 -299l97 297h140l-171 -503h-122l-104 301l-103 -301h-120zM358 570l95 146h170l-143 -146h-122z" />
    <glyph glyph-name="Wdieresis" unicode="&#x1e84;" horiz-adv-x="1075" 
d="M256 -4l-235 704h160l144 -472l158 474h112l159 -474l144 472h157l-236 -704h-127l-153 467l-156 -467h-127zM649 760q-31 0 -52.5 21.5t-21.5 52.5t21.5 52t52.5 21t52 -21t21 -52t-21 -52.5t-52 -21.5zM429 760q-30 0 -52 21.5t-22 52.5q0 30 22 51.5t52 21.5
q31 0 52.5 -21t21.5 -52t-21.5 -52.5t-52.5 -21.5z" />
    <glyph glyph-name="wdieresis" unicode="&#x1e85;" horiz-adv-x="845" 
d="M188 -4l-169 503h141l99 -297l98 299h113l101 -299l97 297h140l-171 -503h-122l-104 301l-103 -301h-120zM523 569q-31 0 -52.5 21.5t-21.5 52.5t21.5 52t52.5 21t52.5 -21t21.5 -52t-21.5 -52.5t-52.5 -21.5zM303 569q-30 0 -52 21.5t-22 52.5q0 30 22 51.5t52 21.5
q32 0 53 -21t21 -52t-21 -52.5t-53 -21.5z" />
    <glyph glyph-name="Ygrave" unicode="&#x1ef2;" horiz-adv-x="696" 
d="M277 0v314l-271 386h170l174 -249l175 249h165l-270 -383v-317h-143zM328 907l95 -146h-122l-143 146h170z" />
    <glyph glyph-name="ygrave" unicode="&#x1ef3;" horiz-adv-x="579" 
d="M134 -206q-62 0 -100 20v123q35 -20 76 -20q38 0 63.5 24t47.5 76l-215 482h152l132 -328l125 328h149l-231 -551q-66 -154 -199 -154zM281 722l95 -146h-122l-144 146h171z" />
    <glyph glyph-name="endash" unicode="&#x2013;" horiz-adv-x="771" 
d="M96 214v127h579v-127h-579z" />
    <glyph glyph-name="emdash" unicode="&#x2014;" horiz-adv-x="917" 
d="M96 214v127h725v-127h-725z" />
    <glyph glyph-name="uni2015" unicode="&#x2015;" horiz-adv-x="771" 
d="M96 214v127h579v-127h-579z" />
    <glyph glyph-name="quoteleft" unicode="&#x2018;" horiz-adv-x="290" 
d="M262 700l-86 -303h-151l121 303h116z" />
    <glyph glyph-name="quoteright" unicode="&#x2019;" horiz-adv-x="290" 
d="M26 397l86 303h151l-121 -303h-116z" />
    <glyph glyph-name="quotesinglbase" unicode="&#x201a;" horiz-adv-x="280" 
d="M6 -152l86 303h151l-121 -303h-116z" />
    <glyph glyph-name="quotedblleft" unicode="&#x201c;" horiz-adv-x="507" 
d="M479 700l-86 -303h-151l121 303h116zM262 700l-86 -303h-151l121 303h116z" />
    <glyph glyph-name="quotedblright" unicode="&#x201d;" horiz-adv-x="507" 
d="M243 397l86 303h151l-121 -303h-116zM26 397l86 303h151l-121 -303h-116z" />
    <glyph glyph-name="quotedblbase" unicode="&#x201e;" horiz-adv-x="497" 
d="M223 -152l86 303h151l-121 -303h-116zM6 -152l86 303h151l-121 -303h-116z" />
    <glyph glyph-name="dagger" unicode="&#x2020;" horiz-adv-x="500" 
d="M193 0v409h-164v111h164v180h114v-180h164v-111h-164v-409h-114z" />
    <glyph glyph-name="daggerdbl" unicode="&#x2021;" horiz-adv-x="500" 
d="M193 0v174h-164v111h164v124h-164v111h164v180h114v-180h164v-111h-164v-124h164v-111h-164v-174h-114z" />
    <glyph glyph-name="bullet" unicode="&#x2022;" horiz-adv-x="414" 
d="M207 242q-61 0 -104 43t-43 103q0 61 43 104t104 43t103.5 -43t42.5 -104q0 -60 -42.5 -103t-103.5 -43z" />
    <glyph glyph-name="ellipsis" unicode="&#x2026;" horiz-adv-x="753" 
d="M132 -11q-37 0 -62 25.5t-25 62.5q0 36 25 61t62 25q36 0 61.5 -25t25.5 -61q0 -37 -25.5 -62.5t-61.5 -25.5zM377 -11q-36 0 -61.5 25.5t-25.5 62.5q0 36 25.5 61t61.5 25t61.5 -25t25.5 -61q0 -37 -25.5 -62.5t-61.5 -25.5zM622 -11q-36 0 -61.5 25.5t-25.5 62.5
q0 36 25.5 61t61.5 25t61.5 -25t25.5 -61q0 -37 -25.5 -62.5t-61.5 -25.5z" />
    <glyph glyph-name="perthousand" unicode="&#x2030;" horiz-adv-x="1211" 
d="M150 0l418 700h101l-418 -700h-101zM201 706q77 0 127 -49t50 -122t-50 -122t-127 -49t-127 49t-50 122t50 122t127 49zM201 454q35 0 57.5 23t22.5 58t-22.5 58t-57.5 23t-57.5 -23t-22.5 -58t22.5 -58t57.5 -23zM616 336q77 0 127 -49t50 -122t-50 -122t-127 -49
t-127 49t-50 122t50 122t127 49zM616 84q35 0 57.5 23t22.5 58t-22.5 58t-57.5 23t-57.5 -23t-22.5 -58t22.5 -58t57.5 -23zM1009 335q77 0 127 -49t50 -122t-50 -122t-127 -49t-127 49t-50 122t50 122t127 49zM1009 83q35 0 57.5 23t22.5 58t-22.5 58t-57.5 23t-57.5 -23
t-22.5 -58t22.5 -58t57.5 -23z" />
    <glyph glyph-name="guilsinglleft" unicode="&#x2039;" horiz-adv-x="341" 
d="M169 35l-137 179v71l137 179h141l-161 -214l161 -215h-141z" />
    <glyph glyph-name="guilsinglright" unicode="&#x203a;" horiz-adv-x="341" 
d="M31 35l161 215l-161 214h141l137 -179v-71l-137 -179h-141z" />
    <glyph glyph-name="fraction" unicode="&#x2044;" horiz-adv-x="225" 
d="M-152 0l422 700h108l-422 -700h-108z" />
    <glyph glyph-name="zerosuperior" unicode="&#x2070;" horiz-adv-x="379" 
d="M190 315q-80 0 -125.5 58t-45.5 138t45.5 138t125.5 58q79 0 124.5 -58t45.5 -138t-45.5 -138t-124.5 -58zM190 398q36 0 55 33t19 80t-19 80t-55 33t-56 -33.5t-20 -79.5t20 -79.5t56 -33.5z" />
    <glyph glyph-name="foursuperior" unicode="&#x2074;" horiz-adv-x="364" 
d="M203 322v90h-190v68l185 220h97v-214h54v-74h-54v-90h-92zM110 486h93v108z" />
    <glyph glyph-name="fivesuperior" unicode="&#x2075;" horiz-adv-x="331" 
d="M137 315q-65 0 -112 27v89q50 -32 108 -32q31 0 52.5 13t21.5 39q0 23 -20 37t-55 14q-47 0 -95 -15l25 213h216v-80h-144l-5 -48q5 2 26 2q66 0 107 -32.5t41 -90.5q0 -65 -48 -100.5t-118 -35.5z" />
    <glyph glyph-name="sixsuperior" unicode="&#x2076;" horiz-adv-x="353" 
d="M184 315q-76 0 -117 48t-41 129q0 89 46.5 152t135.5 63q57 0 90 -23v-84q-34 24 -79 24q-38 0 -64 -22t-29 -62q31 34 80 34q54 0 89 -33t35 -91q0 -60 -41.5 -97.5t-104.5 -37.5zM178 392q26 0 41.5 16.5t15.5 41.5q0 22 -15.5 38t-41.5 16q-18 0 -35 -10.5t-25 -27.5
q1 -35 18 -54.5t42 -19.5z" />
    <glyph glyph-name="sevensuperior" unicode="&#x2077;" horiz-adv-x="325" 
d="M43 322l151 298h-173v80h282v-75l-156 -303h-104z" />
    <glyph glyph-name="eightsuperior" unicode="&#x2078;" horiz-adv-x="359" 
d="M180 315q-67 0 -113 31t-46 86q0 31 20 56t48 35q-22 10 -36 31t-14 46q0 47 40 77t101 30q60 0 100 -30t40 -77q0 -24 -14.5 -45.5t-35.5 -31.5q29 -10 48.5 -35t19.5 -56q0 -55 -46 -86t-112 -31zM180 392q27 0 44.5 14t17.5 34q0 22 -17.5 35.5t-44.5 13.5
q-29 0 -46 -13.5t-17 -35.5q0 -21 17 -34.5t46 -13.5zM180 549q22 0 36.5 11.5t14.5 29.5q0 19 -14.5 30.5t-36.5 11.5q-23 0 -38 -11.5t-15 -30.5q0 -18 15 -29.5t38 -11.5z" />
    <glyph glyph-name="ninesuperior" unicode="&#x2079;" horiz-adv-x="353" 
d="M171 707q76 0 117.5 -48t41.5 -129q0 -89 -46.5 -152t-135.5 -63q-58 0 -91 23v84q35 -24 79 -24q38 0 64 21.5t30 62.5q-31 -34 -81 -34q-53 0 -88 33.5t-35 90.5q0 60 42 97.5t103 37.5zM178 630q-26 0 -41.5 -16.5t-15.5 -41.5q0 -23 15.5 -38.5t40.5 -15.5
q42 0 60 38q-1 35 -18 54.5t-41 19.5z" />
    <glyph glyph-name="zeroinferior" unicode="&#x2080;" horiz-adv-x="379" 
d="M190 -6q-80 0 -125.5 58t-45.5 138t45.5 138t125.5 58q79 0 124.5 -58t45.5 -138t-45.5 -138t-124.5 -58zM190 77q36 0 55 33t19 80t-19 80t-55 33t-56 -33.5t-20 -79.5t20 -79.5t56 -33.5z" />
    <glyph glyph-name="oneinferior" unicode="&#x2081;" horiz-adv-x="252" 
d="M118 1v280l-101 -51v94l105 55h92v-378h-96z" />
    <glyph glyph-name="twoinferior" unicode="&#x2082;" horiz-adv-x="356" 
d="M38 1v69l108 92q37 32 51 52.5t14 40.5t-15 31.5t-41 11.5q-54 0 -104 -39v95q47 32 112 32q57 0 100.5 -32.5t43.5 -86.5q0 -41 -17.5 -71.5t-62.5 -71.5l-48 -43h140v-80h-281z" />
    <glyph glyph-name="threeinferior" unicode="&#x2083;" horiz-adv-x="328" 
d="M144 -6q-71 0 -122 30v88q56 -34 114 -34q30 0 51 14t21 37q0 22 -17 35.5t-48 13.5q-41 0 -61 -11v59l87 73h-136v80h253v-71l-80 -69q37 -8 67.5 -34.5t30.5 -77.5q0 -60 -46 -96.5t-114 -36.5z" />
    <glyph glyph-name="fourinferior" unicode="&#x2084;" horiz-adv-x="364" 
d="M203 1v90h-190v68l185 220h97v-214h54v-74h-54v-90h-92zM110 165h93v108z" />
    <glyph glyph-name="fiveinferior" unicode="&#x2085;" horiz-adv-x="331" 
d="M137 -6q-65 0 -112 27v89q50 -32 108 -32q31 0 52.5 13t21.5 39q0 23 -20 37t-55 14q-47 0 -95 -15l25 213h216v-80h-144l-5 -48q5 2 26 2q66 0 107 -32.5t41 -90.5q0 -65 -48 -100.5t-118 -35.5z" />
    <glyph glyph-name="sixinferior" unicode="&#x2086;" horiz-adv-x="353" 
d="M184 -6q-76 0 -117 48t-41 129q0 89 46.5 152t135.5 63q57 0 90 -23v-84q-34 24 -79 24q-38 0 -64 -22t-29 -62q31 34 80 34q54 0 89 -33t35 -91q0 -60 -41.5 -97.5t-104.5 -37.5zM178 71q26 0 41.5 16.5t15.5 41.5q0 23 -15.5 38.5t-41.5 15.5q-18 0 -35 -10.5
t-25 -27.5q1 -35 18 -54.5t42 -19.5z" />
    <glyph glyph-name="seveninferior" unicode="&#x2087;" horiz-adv-x="325" 
d="M43 1l151 298h-173v80h282v-75l-156 -303h-104z" />
    <glyph glyph-name="eightinferior" unicode="&#x2088;" horiz-adv-x="359" 
d="M180 -6q-67 0 -113 31t-46 86q0 31 20 56t48 35q-22 10 -36 31t-14 46q0 47 40 77t101 30q60 0 100 -30t40 -77q0 -24 -14.5 -45.5t-35.5 -31.5q29 -10 48.5 -35t19.5 -56q0 -55 -46 -86t-112 -31zM180 71q27 0 44.5 14t17.5 34q0 22 -17.5 35.5t-44.5 13.5
q-29 0 -46 -13.5t-17 -35.5q0 -21 17 -34.5t46 -13.5zM180 228q22 0 36.5 11.5t14.5 29.5q0 19 -14.5 30.5t-36.5 11.5q-23 0 -38 -11.5t-15 -30.5q0 -18 15 -29.5t38 -11.5z" />
    <glyph glyph-name="nineinferior" unicode="&#x2089;" horiz-adv-x="353" 
d="M171 385q76 0 117.5 -48t41.5 -129q0 -89 -46.5 -152t-135.5 -63q-58 0 -91 23v84q35 -24 79 -24q38 0 64 21.5t30 62.5q-31 -34 -81 -34q-53 0 -88 33.5t-35 90.5q0 60 42 97.5t103 37.5zM178 308q-26 0 -41.5 -16.5t-15.5 -41.5q0 -23 15.5 -38.5t40.5 -15.5
q42 0 60 38q-1 35 -18 54.5t-41 19.5z" />
    <glyph glyph-name="franc" unicode="&#x20a3;" horiz-adv-x="666" 
d="M13 108v103h102v489h513v-131h-369v-140h285v-128h-285v-90h149v-103h-149v-108h-144v108h-102z" />
    <glyph glyph-name="lira" unicode="&#x20a4;" horiz-adv-x="602" 
d="M47 362v79h81v34q0 111 68 175t185 64q94 0 160 -35v-134q-61 34 -137 34q-132 0 -132 -124v-14h211v-79h-211v-61h211v-79h-211v-31q0 -44 -29 -62h314v-129h-510v129h14q42 0 54.5 18t12.5 64v11h-81v79h81v61h-81z" />
    <glyph glyph-name="peseta" unicode="&#x20a7;" horiz-adv-x="740" 
d="M108 0v426h-91v111h91v163h306q98 0 160.5 -44.5t78.5 -118.5h81v-111h-85q-21 -68 -82 -108.5t-153 -40.5h-162v-277h-144zM252 400h152q52 0 81 22.5t29 64.5t-29 64.5t-81 22.5h-152v-174z" />
    <glyph glyph-name="Euro" unicode="&#x20ac;" horiz-adv-x="661" 
d="M462 393h-215q-2 -22 -2 -36q0 -15 2 -31h215v-87h-196q22 -59 71.5 -90t119.5 -31q94 0 158 51v-141q-70 -42 -176 -42q-125 0 -212 69.5t-115 183.5h-82v87h69q-1 12 -1 33q0 12 2 34h-70v86h87q33 107 117 171t205 64q92 0 161 -37v-136q-68 41 -143 41
q-134 0 -184 -103h189v-86z" />
    <glyph glyph-name="uni20B4" unicode="&#x20b4;" horiz-adv-x="601" 
d="M46 388v79h291q33 19 33 55q0 65 -114 65q-93 0 -164 -33v129q71 31 183 31q106 0 178 -45.5t72 -130.5q0 -49 -28 -71h59v-79h-510zM323 -14q-108 0 -179.5 45.5t-71.5 133.5q0 59 44 96h-70v79h510v-79h-270q-60 -29 -60 -76q0 -70 122 -70q41 0 92 11.5t84 28.5v-132
q-82 -37 -201 -37z" />
    <glyph glyph-name="uni20B8" unicode="&#x20b8;" horiz-adv-x="607" 
d="M30 700h547v-86h-547v86zM30 547h547v-129h-202v-418h-144v418h-201v129z" />
    <glyph glyph-name="uni20BD" unicode="&#x20bd;" horiz-adv-x="720" 
d="M22 277v103h110v320h301q112 0 178 -58.5t66 -152.5t-66 -153t-178 -59h-158v-66h254v-103h-254v-108h-143v108h-110v103h110v66h-110zM275 380h139q55 0 86.5 25t31.5 72t-31 72t-87 25h-139v-194z" />
    <glyph glyph-name="uni2113" unicode="&#x2113;" horiz-adv-x="422" 
d="M234 -13q-88 0 -131 47.5t-43 129.5v306q0 105 41.5 173.5t131.5 68.5q69 0 108 -47t39 -119q0 -173 -218 -362v-18q0 -84 94 -84q61 0 101 35v-92q-44 -38 -123 -38zM162 489v-177q52 52 88.5 114.5t36.5 115.5q0 71 -52 71q-32 0 -52 -30t-21 -94z" />
    <glyph glyph-name="uni2116" unicode="&#x2116;" horiz-adv-x="1153" 
d="M775 225v86h326v-86h-326zM938 706q77 0 127 -49t50 -122t-50 -122t-127 -49t-127 49t-50 122t50 122t127 49zM938 454q35 0 57.5 23t22.5 58t-22.5 58t-57.5 23t-57.5 -23t-22.5 -58t22.5 -58t57.5 -23zM77 0v700h123l353 -448v448h140v-700h-119l-356 450v-450h-141z
" />
    <glyph glyph-name="trademark" unicode="&#x2122;" horiz-adv-x="684" 
d="M327 389v311h73l83 -113l81 113h74v-311h-79v185l-56 -74h-40l-58 75v-186h-78zM112 389v240h-95v71h269v-71h-95v-240h-79z" />
    <glyph glyph-name="Omega" unicode="&#x2126;" horiz-adv-x="792" 
d="M721 382q0 -75 -28.5 -144t-70.5 -109h98v-129h-266v109q50 36 85 101.5t35 146.5q0 96 -49 159t-129 63t-129 -63t-49 -159q0 -81 35 -146.5t85 -101.5v-109h-266v129h98q-42 40 -70.5 109t-28.5 144q0 137 89 234.5t236 97.5t236 -97.5t89 -234.5z" />
    <glyph glyph-name="estimated" unicode="&#x212e;" horiz-adv-x="785" 
d="M394 -14q-144 0 -242.5 96.5t-98.5 242.5q0 139 94 239t247 100q75 0 139 -28.5t105.5 -74t66 -100t27.5 -109.5v-29h-565v-205q91 -98 227 -98q93 0 165 45t111 126h38q-35 -87 -117 -146t-197 -59zM167 356h453v178q-91 98 -226 98q-136 0 -227 -98v-178z" />
    <glyph glyph-name="onethird" unicode="&#x2153;" horiz-adv-x="793" 
d="M99 0l422 700h108l-422 -700h-108zM118 322v280l-101 -51v94l105 55h92v-378h-96zM609 -6q-71 0 -122 30v88q56 -34 114 -34q30 0 51 14t21 37q0 22 -17 35.5t-48 13.5q-41 0 -61 -11v59l87 73h-136v80h253v-71l-80 -69q37 -8 67.5 -34.5t30.5 -77.5q0 -60 -46 -96.5
t-114 -36.5z" />
    <glyph glyph-name="twothirds" unicode="&#x2154;" horiz-adv-x="887" 
d="M193 0l422 700h108l-422 -700h-108zM38 322v69l108 92q37 32 51 52.5t14 40.5t-15 31.5t-41 11.5q-54 0 -104 -39v95q47 32 112 32q57 0 100.5 -32.5t43.5 -86.5q0 -41 -17.5 -71.5t-62.5 -71.5l-48 -43h140v-80h-281zM703 -6q-71 0 -122 30v88q56 -34 114 -34
q30 0 51 14t21 37q0 22 -17 35.5t-48 13.5q-41 0 -61 -11v59l87 73h-136v80h253v-71l-80 -69q37 -8 67.5 -34.5t30.5 -77.5q0 -60 -46 -96.5t-114 -36.5z" />
    <glyph glyph-name="uni2155" unicode="&#x2155;" horiz-adv-x="775" 
d="M99 0l422 700h108l-422 -700h-108zM118 322v280l-101 -51v94l105 55h92v-378h-96zM581 -6q-65 0 -112 27v89q50 -32 108 -32q31 0 52.5 13t21.5 39q0 23 -20 37t-55 14q-47 0 -95 -15l25 213h216v-80h-144l-5 -48q5 2 26 2q66 0 107 -32.5t41 -90.5q0 -65 -48 -100.5
t-118 -35.5z" />
    <glyph glyph-name="uni2156" unicode="&#x2156;" horiz-adv-x="869" 
d="M193 0l422 700h108l-422 -700h-108zM38 322v69l108 92q37 32 51 52.5t14 40.5t-15 31.5t-41 11.5q-54 0 -104 -39v95q47 32 112 32q57 0 100.5 -32.5t43.5 -86.5q0 -41 -17.5 -71.5t-62.5 -71.5l-48 -43h140v-80h-281zM675 -6q-65 0 -112 27v89q50 -32 108 -32
q31 0 52.5 13t21.5 39q0 23 -20 37t-55 14q-47 0 -95 -15l25 213h216v-80h-144l-5 -48q5 2 26 2q66 0 107 -32.5t41 -90.5q0 -65 -48 -100.5t-118 -35.5z" />
    <glyph glyph-name="uni2157" unicode="&#x2157;" horiz-adv-x="818" 
d="M143 0l422 700h108l-422 -700h-108zM624 -6q-65 0 -112 27v89q50 -32 108 -32q31 0 52.5 13t21.5 39q0 23 -20 37t-55 14q-47 0 -95 -15l25 213h216v-80h-144l-5 -48q5 2 26 2q66 0 107 -32.5t41 -90.5q0 -65 -48 -100.5t-118 -35.5zM144 315q-71 0 -122 30v88
q56 -34 114 -34q30 0 51 14t21 37q0 22 -17 35.5t-48 13.5q-41 0 -61 -11v59l87 73h-136v80h253v-71l-80 -69q37 -8 67.5 -34.5t30.5 -77.5q0 -60 -46 -96.5t-114 -36.5z" />
    <glyph glyph-name="uni2158" unicode="&#x2158;" horiz-adv-x="860" 
d="M185 0l422 700h108l-422 -700h-108zM666 -6q-65 0 -112 27v89q50 -32 108 -32q31 0 52.5 13t21.5 39q0 23 -20 37t-55 14q-47 0 -95 -15l25 213h216v-80h-144l-5 -48q5 2 26 2q66 0 107 -32.5t41 -90.5q0 -65 -48 -100.5t-118 -35.5zM203 322v90h-190v68l185 220h97v-214
h54v-74h-54v-90h-92zM110 486h93v108z" />
    <glyph glyph-name="uni2159" unicode="&#x2159;" horiz-adv-x="777" 
d="M99 0l422 700h108l-422 -700h-108zM118 322v280l-101 -51v94l105 55h92v-378h-96zM608 -6q-76 0 -117 48t-41 129q0 89 46.5 152t135.5 63q57 0 90 -23v-84q-34 24 -79 24q-38 0 -64 -22t-29 -62q31 34 80 34q54 0 89 -33t35 -91q0 -60 -42 -97.5t-104 -37.5zM602 71
q26 0 41.5 16.5t15.5 41.5q0 23 -15.5 38.5t-41.5 15.5q-18 0 -35 -10.5t-25 -27.5q1 -35 18 -54.5t42 -19.5z" />
    <glyph glyph-name="uni215A" unicode="&#x215a;" horiz-adv-x="820" 
d="M142 0l422 700h108l-422 -700h-108zM651 -6q-76 0 -117 48t-41 129q0 89 46.5 152t135.5 63q57 0 90 -23v-84q-35 24 -79 24q-38 0 -64 -22t-29 -62q31 34 80 34q54 0 89 -33t35 -91q0 -60 -41.5 -97.5t-104.5 -37.5zM645 71q26 0 41.5 16.5t15.5 41.5q0 23 -16 38.5
t-41 15.5q-18 0 -35 -10.5t-25 -27.5q1 -35 18 -54.5t42 -19.5zM137 315q-65 0 -112 27v89q50 -32 108 -32q31 0 52.5 13t21.5 39q0 23 -20 37t-55 14q-47 0 -95 -15l25 213h216v-80h-144l-5 -48q5 2 26 2q66 0 107 -32.5t41 -90.5q0 -65 -48 -100.5t-118 -35.5z" />
    <glyph glyph-name="oneeighth" unicode="&#x215b;" horiz-adv-x="800" 
d="M99 0l422 700h108l-422 -700h-108zM118 322v280l-101 -51v94l105 55h92v-378h-96zM621 -6q-67 0 -113 31t-46 86q0 31 20 56t48 35q-22 10 -36 31t-14 46q0 47 40 77t101 30q60 0 100 -30t40 -77q0 -24 -14.5 -45.5t-35.5 -31.5q29 -10 48.5 -35t19.5 -56q0 -55 -46 -86
t-112 -31zM621 71q27 0 44.5 14t17.5 34q0 22 -17.5 35.5t-44.5 13.5q-29 0 -46 -13.5t-17 -35.5q0 -21 17 -34.5t46 -13.5zM621 228q22 0 36.5 11.5t14.5 29.5q0 19 -14.5 30.5t-36.5 11.5q-23 0 -38 -11.5t-15 -30.5q0 -18 15 -29.5t38 -11.5z" />
    <glyph glyph-name="threeeighths" unicode="&#x215c;" horiz-adv-x="844" 
d="M143 0l422 700h108l-422 -700h-108zM665 -6q-67 0 -113 31t-46 86q0 31 20 56t48 35q-22 10 -36 31t-14 46q0 47 40 77t101 30q60 0 100 -30t40 -77q0 -24 -14.5 -45.5t-35.5 -31.5q29 -10 48.5 -35t19.5 -56q0 -55 -46 -86t-112 -31zM665 71q27 0 44.5 14t17.5 34
q0 22 -17.5 35.5t-44.5 13.5q-29 0 -46 -13.5t-17 -35.5q0 -21 17 -34.5t46 -13.5zM665 228q22 0 36.5 11.5t14.5 29.5q0 19 -14.5 30.5t-36.5 11.5q-23 0 -38 -11.5t-15 -30.5q0 -18 15 -29.5t38 -11.5zM144 315q-71 0 -122 30v88q56 -34 114 -34q30 0 51 14t21 37
q0 22 -17 35.5t-48 13.5q-41 0 -61 -11v59l87 73h-136v80h253v-71l-80 -69q37 -8 67.5 -34.5t30.5 -77.5q0 -60 -46 -96.5t-114 -36.5z" />
    <glyph glyph-name="fiveeighths" unicode="&#x215d;" horiz-adv-x="843" 
d="M142 0l422 700h108l-422 -700h-108zM137 315q-65 0 -112 27v89q50 -32 108 -32q31 0 52.5 13t21.5 39q0 23 -20 37t-55 14q-47 0 -95 -15l25 213h216v-80h-144l-5 -48q5 2 26 2q66 0 107 -32.5t41 -90.5q0 -65 -48 -100.5t-118 -35.5zM664 -6q-67 0 -113 31t-46 86
q0 31 20 56t48 35q-22 10 -36 31t-14 46q0 47 40 77t101 30q60 0 100 -30t40 -77q0 -24 -14.5 -45.5t-35.5 -31.5q29 -10 48.5 -35t19.5 -56q0 -55 -46 -86t-112 -31zM664 71q27 0 44.5 14t17.5 34q0 22 -17.5 35.5t-44.5 13.5q-29 0 -46 -13.5t-17 -35.5q0 -21 17 -34.5
t46 -13.5zM664 228q22 0 36.5 11.5t14.5 29.5q0 19 -14.5 30.5t-36.5 11.5q-23 0 -38 -11.5t-15 -30.5q0 -18 15 -29.5t38 -11.5z" />
    <glyph glyph-name="seveneighths" unicode="&#x215e;" horiz-adv-x="788" 
d="M87 0l422 700h108l-422 -700h-108zM609 -6q-67 0 -113 31t-46 86q0 31 20 56t48 35q-22 10 -36 31t-14 46q0 47 40 77t101 30q60 0 100 -30t40 -77q0 -24 -14.5 -45.5t-35.5 -31.5q29 -10 48.5 -35t19.5 -56q0 -55 -46 -86t-112 -31zM609 71q27 0 44.5 14t17.5 34
q0 22 -17.5 35.5t-44.5 13.5q-29 0 -46 -13.5t-17 -35.5q0 -21 17 -34.5t46 -13.5zM609 228q22 0 36.5 11.5t14.5 29.5q0 19 -14.5 30.5t-36.5 11.5q-23 0 -38 -11.5t-15 -30.5q0 -18 15 -29.5t38 -11.5zM43 322l151 298h-173v80h282v-75l-156 -303h-104z" />
    <glyph glyph-name="uni215F" unicode="&#x215f;" horiz-adv-x="455" 
d="M99 0l422 700h108l-422 -700h-108zM118 322v280l-101 -51v94l105 55h92v-378h-96z" />
    <glyph glyph-name="arrowleft" unicode="&#x2190;" horiz-adv-x="706" 
d="M232 488h139l-146 -166h419v-111h-420l147 -166h-139l-190 222z" />
    <glyph glyph-name="arrowup" unicode="&#x2191;" horiz-adv-x="567" 
d="M505 412v-139l-166 146v-419h-111v420l-166 -147v139l222 190z" />
    <glyph glyph-name="arrowright" unicode="&#x2192;" horiz-adv-x="706" 
d="M335 488h139l190 -221l-190 -222h-139l147 166h-420v111h419z" />
    <glyph glyph-name="arrowdown" unicode="&#x2193;" horiz-adv-x="567" 
d="M62 176v139l166 -146v419h111v-420l166 147v-139l-222 -190z" />
    <glyph glyph-name="partialdiff" unicode="&#x2202;" horiz-adv-x="616" 
d="M269 -14q-102 0 -167.5 62t-65.5 164q0 105 66 177t169 72q112 0 170 -82q0 90 -47 157.5t-136 67.5q-74 0 -139 -39v104q66 43 156 43q132 0 209.5 -95.5t77.5 -255.5q0 -72 -16 -136.5t-49.5 -119t-92 -87t-135.5 -32.5zM281 92q62 0 103 45t50 123q-18 45 -54.5 72.5
t-82.5 27.5q-57 0 -98 -39t-41 -102q0 -57 34 -92t89 -35z" />
    <glyph glyph-name="Delta" unicode="&#x2206;" horiz-adv-x="770" 
d="M16 0l300 700h138l300 -700h-738zM218 127h332l-166 394z" />
    <glyph glyph-name="product" unicode="&#x220f;" horiz-adv-x="775" 
d="M158 -134v724h-121v110h701v-110h-122v-724h-123v724h-212v-724h-123z" />
    <glyph glyph-name="summation" unicode="&#x2211;" horiz-adv-x="622" 
d="M43 0v102l225 248l-218 248v102h527v-129h-325l167 -191v-59l-175 -192h340v-129h-541z" />
    <glyph glyph-name="minus" unicode="&#x2212;" horiz-adv-x="712" 
d="M66 268v126h580v-126h-580z" />
    <glyph glyph-name="uni2215" unicode="&#x2215;" horiz-adv-x="547" 
d="M9 0l422 700h108l-422 -700h-108z" />
    <glyph glyph-name="uni2219" unicode="&#x2219;" horiz-adv-x="248" 
d="M125 178q-37 0 -62 25.5t-25 62.5q0 36 25 61t62 25q36 0 61.5 -25t25.5 -61q0 -37 -25.5 -62.5t-61.5 -25.5z" />
    <glyph glyph-name="radical" unicode="&#x221a;" horiz-adv-x="730" 
d="M320 0l-176 388h-138v111h220l150 -339l214 540h126l-284 -700h-112z" />
    <glyph glyph-name="infinity" unicode="&#x221e;" horiz-adv-x="803" 
d="M221 112q-73 0 -129.5 50.5t-56.5 140.5q0 87 57 137t130 50q105 0 180 -105q28 43 74.5 74t106.5 31q80 0 132.5 -54t52.5 -133q0 -84 -53 -137.5t-132 -53.5q-51 0 -99 27t-83 77q-78 -104 -180 -104zM233 213q61 0 114 89q-19 28 -32 43.5t-36 30t-47 14.5
q-37 0 -61 -26.5t-24 -60.5q0 -36 23 -63t63 -27zM572 213q39 0 61.5 27t22.5 63q0 35 -22.5 60.5t-63.5 25.5q-36 0 -62 -22t-52 -65q51 -89 116 -89z" />
    <glyph glyph-name="integral" unicode="&#x222b;" horiz-adv-x="520" 
d="M410 712q59 0 98 -19v-116q-35 13 -68 13q-96 0 -115 -116l-76 -473q-13 -90 -69.5 -148.5t-155.5 -58.5q-59 0 -98 19v116q35 -13 68 -13q96 0 115 116l76 473q13 90 69.5 148.5t155.5 58.5z" />
    <glyph glyph-name="approxequal" unicode="&#x2248;" horiz-adv-x="656" 
d="M465 342q-52 0 -138.5 27.5t-136.5 27.5q-79 0 -124 -47v127q15 19 50 31.5t74 12.5q52 0 138 -28.5t137 -28.5q79 0 125 48v-127q-16 -19 -50 -31t-75 -12zM465 112q-52 0 -138.5 28t-136.5 28q-78 0 -124 -48v127q15 19 50 31.5t74 12.5q52 0 138 -28.5t137 -28.5
q79 0 125 48v-127q-16 -19 -50 -31t-75 -12z" />
    <glyph glyph-name="notequal" unicode="&#x2260;" horiz-adv-x="641" 
d="M66 381v127h286l51 98h126l-51 -98h97v-127h-164l-51 -99h215v-128h-282l-55 -106h-126l55 106h-101v128h168l51 99h-219z" />
    <glyph glyph-name="lessequal" unicode="&#x2264;" horiz-adv-x="641" 
d="M575 176l-509 186v121l509 186v-140l-359 -106l359 -107v-140zM66 18v127h508v-127h-508z" />
    <glyph glyph-name="greaterequal" unicode="&#x2265;" horiz-adv-x="641" 
d="M575 362l-509 -186v140l359 107l-359 106v140l509 -186v-121zM575 145v-127h-508v127h508z" />
    <glyph glyph-name="dotmath" unicode="&#x22c5;" horiz-adv-x="263" 
d="M132 300q-37 0 -62 25.5t-25 62.5q0 36 25 61t62 25q36 0 61.5 -25t25.5 -61q0 -37 -25.5 -62.5t-61.5 -25.5z" />
    <glyph glyph-name="lozenge" unicode="&#x25ca;" horiz-adv-x="565" 
d="M222 0l-190 350l190 350h121l191 -350l-191 -350h-121zM284 111l124 239l-124 239l-125 -239q21 -40 62 -119.5t63 -119.5z" />
    <glyph glyph-name="uniF401" unicode="&#xf401;" horiz-adv-x="12" 
d="M-474 761l95 146h170l-143 -146h-122z" />
    <glyph glyph-name="uniF639" unicode="&#xf639;" 
d="M325 -14q-89 0 -154.5 52t-97.5 133.5t-32 178.5t32 178.5t97.5 133.5t154.5 52t155 -52t98 -133.5t32 -178.5t-32 -178.5t-98 -133.5t-155 -52zM325 118q68 0 105 67t37 165t-37 165t-105 67q-67 0 -104 -67t-37 -165t37 -165t104 -67z" />
    <glyph glyph-name="uniF63A" unicode="&#xf63a;" 
d="M75 0v105l206 187q70 64 97.5 104t27.5 85t-33 71.5t-87 26.5q-99 0 -189 -80v148q85 67 204 67q101 0 174.5 -59t73.5 -155q0 -74 -32.5 -130.5t-115.5 -133.5l-120 -110h292v-126h-498z" />
    <glyph glyph-name="uniF63B" unicode="&#xf63b;" 
d="M285 -14q-124 0 -213 56v137q93 -64 205 -64q61 0 103.5 31t42.5 86q0 51 -37 82.5t-102 31.5q-50 0 -99 -19v95l167 154h-258v124h442v-108l-158 -145q75 -14 132 -69t57 -146q0 -112 -81 -179t-201 -67z" />
    <glyph glyph-name="uniF63C" unicode="&#xf63c;" 
d="M374 0v175h-351v104l349 421h142v-409h103v-116h-103v-175h-140zM182 291h192v228z" />
    <glyph glyph-name="uniF63D" unicode="&#xf63d;" 
d="M270 -14q-112 0 -199 50v135q88 -56 193 -56q67 0 111 30t44 87q0 52 -41.5 84t-114.5 32q-83 0 -168 -30l46 382h374v-124h-268l-15 -119q33 7 67 7q115 0 189.5 -64t74.5 -168q0 -115 -84.5 -180.5t-208.5 -65.5z" />
    <glyph glyph-name="uniF63E" unicode="&#xf63e;" 
d="M340 -14q-132 0 -205.5 87.5t-73.5 240.5q0 79 20 150t58.5 127.5t101 89.5t141.5 33q90 0 158 -45v-130q-66 45 -142 45q-87 0 -136 -53.5t-55 -136.5q57 65 163 65q96 0 160 -61.5t64 -164.5q0 -109 -72.5 -178t-181.5 -69zM331 110q53 0 86.5 33t33.5 87q0 51 -34 84
t-86 33q-41 0 -77 -25t-51 -63q3 -71 37 -110t91 -39z" />
    <glyph glyph-name="uniF63F" unicode="&#xf63f;" 
d="M124 0l286 571h-331v129h494v-111l-296 -589h-153z" />
    <glyph glyph-name="uniF640" unicode="&#xf640;" 
d="M474 373q59 -21 94.5 -67t35.5 -107q0 -99 -80.5 -156t-198.5 -57t-199 57t-81 156q0 61 35.5 107t94.5 67q-98 46 -98 147q0 86 70.5 140t177.5 54q106 0 176.5 -54t70.5 -140q0 -101 -98 -147zM325 594q-46 0 -77.5 -24.5t-31.5 -63.5q0 -38 31.5 -62.5t77.5 -24.5
t77 24.5t31 62.5q0 39 -31 63.5t-77 24.5zM325 107q56 0 93 29.5t37 71.5q0 45 -36.5 73.5t-93.5 28.5t-94 -28.5t-37 -73.5q0 -42 37.5 -71.5t93.5 -29.5z" />
    <glyph glyph-name="uniF641" unicode="&#xf641;" 
d="M310 714q132 0 205.5 -87.5t73.5 -240.5q0 -79 -20 -150t-58.5 -127.5t-101 -89.5t-141.5 -33q-90 0 -158 45v130q66 -45 142 -45q87 0 136 53.5t55 136.5q-57 -65 -163 -65q-96 0 -160 61.5t-64 164.5q0 109 72.5 178t181.5 69zM319 590q-53 0 -86.5 -33t-33.5 -87
q0 -51 34 -84t86 -33q41 0 77 25t51 64q-3 71 -36.5 109.5t-91.5 38.5z" />
    <glyph glyph-name="uniF643" unicode="&#xf643;" 
d="M326 110q60 0 99 40t39 100t-39 99.5t-99 39.5t-99 -39.5t-39 -99.5t39 -100t99 -40zM326 -13q-121 0 -199 75.5t-78 187.5q0 111 78 186.5t199 75.5t199 -76t78 -186q0 -112 -78 -187.5t-199 -75.5z" />
    <glyph glyph-name="uniF644" unicode="&#xf644;" 
d="M107 0v124h179v221l-148 -75v141l164 88h125v-375h166v-124h-486z" />
    <glyph glyph-name="uniF645" unicode="&#xf645;" 
d="M86 0v106l82 42q68 35 129 71q65 41 81 59q19 21 19 44q0 60 -90 60q-97 0 -202 -73v136q97 67 215 67q98 0 159.5 -46t61.5 -126q0 -116 -153 -186l-65 -30h241v-124h-478z" />
    <glyph glyph-name="uniF646" unicode="&#xf646;" 
d="M284 -206q-124 0 -213 56v137q93 -64 205 -64q61 0 103.5 30.5t42.5 84.5q0 51 -37 81t-102 30q-50 0 -99 -19v95l167 150h-258v124h442v-108l-158 -141q75 -14 132 -67.5t57 -144.5q0 -111 -81 -177.5t-201 -66.5z" />
    <glyph glyph-name="uniF647" unicode="&#xf647;" 
d="M371 -200v200h-348v105l349 394h142v-382h103v-117h-103v-200h-143zM183 117h188v212z" />
    <glyph glyph-name="uniF648" unicode="&#xf648;" 
d="M284 -206q-112 0 -199 50v135q88 -56 193 -56q67 0 111 30t44 87q0 52 -41.5 83t-114.5 31q-80 0 -168 -31l45 376h374v-124h-269l-13 -113q32 8 66 8q115 0 190 -63.5t75 -166.5q0 -115 -84.5 -180.5t-208.5 -65.5z" />
    <glyph glyph-name="uniF649" unicode="&#xf649;" 
d="M340 -14q-132 0 -205.5 87.5t-73.5 240.5q0 79 20 150t58.5 127.5t101 89.5t141.5 33q90 0 158 -45v-130q-66 45 -142 45q-87 0 -136 -53.5t-55 -136.5q57 65 163 65q96 0 160 -61.5t64 -164.5q0 -109 -72.5 -178t-181.5 -69zM331 110q53 0 86.5 33t33.5 87q0 51 -34 84
t-86 33q-41 0 -77 -25t-51 -63q3 -71 37 -110t91 -39z" />
    <glyph glyph-name="uniF64A" unicode="&#xf64a;" 
d="M127 -200l284 571h-332v128h494v-111l-294 -588h-152z" />
    <glyph glyph-name="uniF64B" unicode="&#xf64b;" 
d="M474 373q59 -21 94.5 -67t35.5 -107q0 -99 -80.5 -156t-198.5 -57t-199 57t-81 156q0 61 35.5 107t94.5 67q-98 46 -98 147q0 86 70.5 140t177.5 54q106 0 176.5 -54t70.5 -140q0 -101 -98 -147zM325 594q-46 0 -77.5 -24.5t-31.5 -63.5q0 -38 31.5 -62.5t77.5 -24.5
t77 24.5t31 62.5q0 39 -31 63.5t-77 24.5zM325 107q56 0 93 29.5t37 71.5q0 45 -36.5 73.5t-93.5 28.5t-94 -28.5t-37 -73.5q0 -42 37.5 -71.5t93.5 -29.5z" />
    <glyph glyph-name="uniF64C" unicode="&#xf64c;" 
d="M316 512q132 0 205.5 -87.5t73.5 -240.5q0 -107 -34 -193.5t-108.5 -141.5t-178.5 -55q-90 0 -158 45v130q66 -45 142 -45q87 0 136 49t55 131q-57 -65 -163 -65q-96 0 -160 61.5t-64 164.5q0 109 72.5 178t181.5 69zM325 388q-53 0 -86.5 -33t-33.5 -87q0 -51 34 -84
t86 -33q41 0 77 25t51 64q-3 71 -36.5 109.5t-91.5 38.5z" />
    <glyph glyph-name="uniF64E" unicode="&#xf64e;" horiz-adv-x="560" 
d="M82 275h-66v61h78q25 81 98 128.5t161 47.5q81 0 148 -33v-111q-62 29 -125 29q-98 0 -136 -61h160v-61h-181q-2 -16 -2 -25q0 -10 2 -24h181v-61h-161q39 -63 137 -63q72 0 133 34v-111q-68 -38 -157 -38q-88 0 -160 48t-98 130h-78v61h66q-1 8 -1 25q0 4 0.5 12.5
t0.5 11.5z" />
    <glyph glyph-name="uniF653" unicode="&#xf653;" horiz-adv-x="512" 
d="M317 -99h-125v89q-94 11 -149 44v125q32 -22 87.5 -39.5t116.5 -17.5q86 0 86 42q0 11 -5.5 18.5t-19 12.5t-26.5 8.5t-36.5 9.5t-40.5 11q-84 21 -123 55t-39 100q0 58 38.5 96t110.5 51v92h125v-90q82 -11 133 -42v-120q-87 52 -181 52q-80 0 -80 -40q0 -10 6 -18
t20.5 -13.5t26 -8.5t35.5 -8.5t36 -8.5q80 -19 121.5 -56t41.5 -102q0 -58 -42.5 -98t-116.5 -53v-91z" />
    <glyph glyph-name="commaaccent" unicode="&#xf6c3;" horiz-adv-x="237" 
d="M32 -270l59 204h130l-84 -204h-105z" />
    <glyph glyph-name="cyrbreve" unicode="&#xf6d4;" horiz-adv-x="479" 
d="M240 554q-78 0 -129.5 46t-51.5 125h106q0 -33 19.5 -53t54.5 -20q33 0 53 20t21 53h107q0 -79 -51.5 -125t-128.5 -46z" />
    <glyph glyph-name="uniF6DC" unicode="&#xf6dc;" 
d="M89 0v126h181v420l-148 -75v141l164 88h125v-574h170v-126h-492z" />
    <glyph glyph-name="uniF721" unicode="&#xf721;" horiz-adv-x="562" 
d="M449 332h50v-60h-444v60h248q35 12 35 34q0 38 -90 38q-75 0 -150 -27v106q74 30 164 30q37 0 71 -6t67 -19.5t53 -39.5t20 -62q0 -37 -24 -54zM55 173v60h444v-60h-241q-38 -11 -38 -38q0 -39 97 -39q78 0 152 28v-108q-72 -29 -166 -29q-38 0 -73.5 6t-69.5 19.5
t-55 39.5t-21 62q0 38 26 59h-55z" />
    <glyph glyph-name="uniF722" unicode="&#xf722;" horiz-adv-x="613" 
d="M113 0v58h-86v61h86v39h-86v86h86v255h259q94 0 145.5 -48.5t51.5 -122.5q0 -78 -55.5 -124t-148.5 -46h-115v-39h165v-61h-165v-58h-137zM345 395h-95v-151h95q44 0 69 20t25 55q0 36 -25 56t-69 20z" />
    <glyph glyph-name="uniF725" unicode="&#xf725;" horiz-adv-x="570" 
d="M57 197v86h73v44q0 85 59 135t164 50q82 0 141 -26v-113q-64 24 -121 24q-53 0 -80.5 -23.5t-27.5 -66.5v-24h187v-86h-187v-30q0 -42 -25 -60h269v-107h-452v107h26q47 0 47 57v33h-73z" />
    <glyph glyph-name="uniF727" unicode="&#xf727;" horiz-adv-x="600" 
d="M85 204v61h116l-175 234h151l124 -177l125 177h148l-179 -234h120v-61h-147v-45h147v-61h-147v-98h-137v98h-146v61h146v45h-146z" />
    <glyph glyph-name="uniF730" unicode="&#xf730;" horiz-adv-x="625" 
d="M313 110q60 0 99 40t39 100t-39 99.5t-99 39.5t-99 -39.5t-39 -99.5t39 -100t99 -40zM313 -13q-121 0 -199 75.5t-78 187.5q0 111 78 186.5t199 75.5t199 -76t78 -186q0 -112 -78 -187.5t-199 -75.5z" />
    <glyph glyph-name="uniF731" unicode="&#xf731;" horiz-adv-x="386" 
d="M176 0v345l-148 -75v141l164 88h125v-499h-141z" />
    <glyph glyph-name="uniF732" unicode="&#xf732;" horiz-adv-x="574" 
d="M44 0v106l82 42q68 35 129 71q65 41 81 59q19 21 19 44q0 60 -90 60q-97 0 -202 -73v136q97 67 215 67q98 0 159.5 -46t61.5 -126q0 -116 -153 -186l-65 -30h241v-124h-478z" />
    <glyph glyph-name="uniF733" unicode="&#xf733;" horiz-adv-x="565" 
d="M239 -206q-124 0 -213 56v137q93 -64 205 -64q61 0 103.5 30.5t42.5 84.5q0 51 -37 81t-102 30q-50 0 -99 -19v95l167 150h-258v124h442v-108l-158 -141q75 -14 132 -67.5t57 -144.5q0 -111 -81 -177.5t-201 -66.5z" />
    <glyph glyph-name="uniF734" unicode="&#xf734;" horiz-adv-x="641" 
d="M371 -200v200h-348v105l349 394h142v-382h103v-117h-103v-200h-143zM183 117h188v212z" />
    <glyph glyph-name="uniF735" unicode="&#xf735;" horiz-adv-x="576" 
d="M238 -206q-112 0 -199 50v135q88 -56 193 -56q67 0 111 30t44 87q0 52 -41.5 83t-114.5 31q-80 0 -168 -31l45 376h374v-124h-269l-13 -113q32 8 66 8q115 0 190 -63.5t75 -166.5q0 -115 -84.5 -180.5t-208.5 -65.5z" />
    <glyph glyph-name="uniF736" unicode="&#xf736;" horiz-adv-x="638" 
d="M334 -14q-132 0 -205.5 87.5t-73.5 240.5q0 79 20 150t58.5 127.5t101 89.5t141.5 33q90 0 158 -45v-130q-66 45 -142 45q-87 0 -136 -53.5t-55 -136.5q57 65 163 65q96 0 160 -61.5t64 -164.5q0 -109 -72.5 -178t-181.5 -69zM325 110q53 0 86.5 33t33.5 87q0 51 -34 84
t-86 33q-41 0 -77 -25t-51 -63q3 -71 37 -110t91 -39z" />
    <glyph glyph-name="uniF737" unicode="&#xf737;" horiz-adv-x="563" 
d="M82 -200l284 571h-332v128h494v-111l-294 -588h-152z" />
    <glyph glyph-name="uniF738" unicode="&#xf738;" horiz-adv-x="638" 
d="M468 373q59 -21 94.5 -67t35.5 -107q0 -99 -80.5 -156t-198.5 -57t-199 57t-81 156q0 61 35.5 107t94.5 67q-98 46 -98 147q0 86 70.5 140t177.5 54q106 0 176.5 -54t70.5 -140q0 -101 -98 -147zM319 594q-46 0 -77.5 -24.5t-31.5 -63.5q0 -38 31.5 -62.5t77.5 -24.5
t77 24.5t31 62.5q0 39 -31 63.5t-77 24.5zM319 107q56 0 93 29.5t37 71.5q0 45 -36.5 73.5t-93.5 28.5t-94 -28.5t-37 -73.5q0 -42 37.5 -71.5t93.5 -29.5z" />
    <glyph glyph-name="uniF739" unicode="&#xf739;" horiz-adv-x="638" 
d="M309 512q132 0 205.5 -87.5t73.5 -240.5q0 -107 -34 -193.5t-108.5 -141.5t-178.5 -55q-91 0 -158 45v130q66 -45 142 -45q87 0 136 49t55 131q-57 -65 -163 -65q-96 0 -160 61.5t-64 164.5q0 109 72.5 178t181.5 69zM318 388q-53 0 -86.5 -33t-33.5 -87q0 -51 34 -84
t86 -33q41 0 77 25t51 64q-3 71 -36.5 109.5t-91.5 38.5z" />
    <glyph glyph-name="uniFEFF" unicode="&#xfeff;" horiz-adv-x="0" 
 />
    <glyph glyph-name="adieresis.alt" horiz-adv-x="645" 
d="M271 -13q-102 0 -168.5 75.5t-66.5 187.5q0 111 66.5 186.5t168.5 75.5q106 0 164 -74v61h141v-499h-141v61q-56 -74 -164 -74zM311 110q42 0 74.5 21.5t49.5 53.5v130q-17 32 -49.5 53t-74.5 21q-59 0 -97 -40t-38 -99q0 -60 38 -100t97 -40zM427 569q-31 0 -52.5 21.5
t-21.5 52.5t21.5 52t52.5 21t52.5 -21t21.5 -52t-21.5 -52.5t-52.5 -21.5zM207 569q-30 0 -52 21.5t-22 52.5q0 30 22 51.5t52 21.5q32 0 53 -21t21 -52t-21 -52.5t-53 -21.5z" />
    <glyph glyph-name="cyrbreve.cap" horiz-adv-x="506" 
d="M253 738q-80 0 -130.5 45.5t-52.5 125.5h106q0 -33 20.5 -53t55.5 -20t56 20t22 53h106q0 -79 -52.5 -125t-130.5 -46z" />
    <glyph glyph-name="idieresis_idieresis" horiz-adv-x="531" 
d="M328 0v499h141v-499h-141zM23 569q-30 0 -52 21.5t-22 52.5q0 30 22 51.5t52 21.5q32 0 53 -21t21 -52t-21 -52.5t-53 -21.5zM63 0v499h141v-499h-141zM508 569q-31 0 -52.5 21.5t-21.5 52.5t21.5 52t52.5 21t52.5 -21t21.5 -52t-21.5 -52.5t-52.5 -21.5zM265 569
q-31 0 -52.5 21.5t-21.5 52.5t21.5 52t52.5 21t52.5 -21t21.5 -52t-21.5 -52.5t-52.5 -21.5z" />
    <glyph glyph-name="peseta.mono" 
d="M65 0v426h-91v111h91v163h306q98 0 160.5 -44.5t78.5 -118.5h81v-111h-85q-21 -68 -82 -108.5t-153 -40.5h-162v-277h-144zM209 400h152q52 0 81 22.5t29 64.5t-29 64.5t-81 22.5h-152v-174z" />
    <glyph glyph-name="lira.mono" 
d="M71 362v79h81v34q0 111 68 175t185 64q94 0 160 -35v-134q-61 34 -137 34q-132 0 -132 -124v-14h211v-79h-211v-61h211v-79h-211v-31q0 -44 -29 -62h314v-129h-510v129h14q42 0 54.5 18t12.5 64v11h-81v79h81v61h-81z" />
    <glyph glyph-name="pesolow" horiz-adv-x="654" 
d="M4 276v86h91v137h268q81 0 131.5 -38t63.5 -99h77v-86h-79q-15 -61 -67.5 -95.5t-132.5 -34.5h-120v-146h-141v276h-91zM334 390h-98v-139h98q41 0 64 18t23 52q0 33 -23 51t-64 18z" />
    <glyph glyph-name="franclow" horiz-adv-x="535" 
d="M83 0v58h-68v61h68v380h419v-115h-284v-100h215v-106h-215v-59h114v-61h-114v-58h-135z" />
    <glyph glyph-name="liralow" horiz-adv-x="570" 
d="M57 268v61h73q1 85 59.5 134t163.5 49q82 0 141 -26v-113q-64 24 -121 24q-92 0 -106 -68h185v-61h-187v-45h187v-61h-187q-1 -39 -25 -55h269v-107h-452v107h26q45 0 47 55h-73v61h73v45h-73z" />
    <glyph glyph-name="uni20B6.mono" 
d="M-4 277v103h110v320h301q112 0 178 -58.5t66 -152.5t-66 -153t-178 -59h-158v-66h254v-103h-254v-108h-143v108h-110v103h110v66h-110zM249 380h139q55 0 86.5 25t31.5 72t-31 72t-87 25h-139v-194z" />
    <glyph glyph-name="liralow.mono" 
d="M88 268v61h73q1 85 59.5 134t163.5 49q82 0 141 -26v-113q-64 24 -121 24q-92 0 -106 -68h185v-61h-187v-45h187v-61h-187q-1 -39 -25 -55h269v-107h-452v107h26q45 0 47 55h-73v61h73v45h-73z" />
    <glyph glyph-name="franclow.mono" 
d="M129 0v58h-68v61h68v380h419v-115h-284v-100h215v-106h-215v-59h114v-61h-114v-58h-135z" />
    <glyph glyph-name="uniF64E.mono" 
d="M125 275h-66v61h78q25 81 98 128.5t161 47.5q81 0 148 -33v-111q-62 29 -125 29q-98 0 -136 -61h160v-61h-181q-2 -16 -2 -25q0 -10 2 -24h181v-61h-161q39 -63 137 -63q72 0 133 34v-111q-68 -38 -157 -38q-88 0 -160 48t-98 130h-78v61h66q-1 8 -1 25q0 4 0.5 12.5
t0.5 11.5z" />
    <glyph glyph-name="pesolow.mono" 
d="M4 276v86h91v137h268q81 0 131.5 -38t63.5 -99h77v-86h-79q-15 -61 -67.5 -95.5t-132.5 -34.5h-120v-146h-141v276h-91zM334 390h-98v-139h98q41 0 64 18t23 52q0 33 -23 51t-64 18z" />
    <glyph glyph-name="uniF722.mono" 
d="M137 0v58h-86v61h86v39h-86v86h86v255h259q94 0 145.5 -48.5t51.5 -122.5q0 -78 -55.5 -124t-148.5 -46h-115v-39h165v-61h-165v-58h-137zM369 395h-95v-151h95q44 0 69 20t25 55q0 36 -25 56t-69 20z" />
    <glyph glyph-name="o_o" horiz-adv-x="1040" 
d="M313 -13q-121 0 -199 75.5t-78 187.5q0 111 78 186.5t199 75.5q130 0 207 -92q77 92 208 92q121 0 199 -76t78 -186q0 -112 -78 -187.5t-199 -75.5q-132 0 -208 91q-76 -91 -207 -91zM313 110q60 0 99 40t39 100t-39 99.5t-99 39.5t-99 -39.5t-39 -99.5t39 -100t99 -40z
M728 110q60 0 99 40t39 100t-39 99.5t-99 39.5t-99 -39.5t-39 -99.5t39 -100t99 -40z" />
    <glyph glyph-name="o_c" horiz-adv-x="932" 
d="M723 -13q-119 0 -203 92q-82 -92 -207 -92q-121 0 -199 75.5t-78 187.5q0 111 78 186.5t199 75.5q122 0 207 -92q84 92 205 92q81 0 148 -33v-120q-65 30 -127 30q-65 0 -110 -38.5t-45 -100.5t45 -101t110 -39q74 0 135 34v-120q-67 -37 -158 -37zM313 110q60 0 99 40
t39 100t-39 99.5t-99 39.5t-99 -39.5t-39 -99.5t39 -100t99 -40z" />
    <glyph glyph-name="O_O" horiz-adv-x="1411" 
d="M416 -14q-156 0 -259.5 105.5t-103.5 258.5t103 258.5t260 105.5q91 0 165.5 -37.5t123.5 -103.5q50 67 124.5 104t165.5 37q157 0 260 -105.5t103 -258.5t-103.5 -258.5t-259.5 -105.5q-90 0 -165 37.5t-125 102.5q-49 -65 -124 -102.5t-165 -37.5zM416 121
q93 0 154.5 65t61.5 164t-61.5 164t-154.5 65t-154.5 -65t-61.5 -164t61.5 -164t154.5 -65zM995 121q93 0 154.5 65t61.5 164t-61.5 164t-154.5 65t-154.5 -65t-61.5 -164t61.5 -164t154.5 -65z" />
    <glyph glyph-name="O_C" horiz-adv-x="1256" 
d="M1011 -14q-96 0 -175 37t-131 104q-49 -66 -123.5 -103.5t-165.5 -37.5q-156 0 -259.5 105.5t-103.5 258.5t103 258.5t260 105.5q91 0 165.5 -37.5t123.5 -103.5q52 67 131 104t175 37q102 0 185 -44v-145q-79 54 -184 54q-100 0 -166.5 -65t-66.5 -164q0 -100 68 -164.5
t171 -64.5q114 0 192 61v-145q-87 -51 -199 -51zM416 121q93 0 154.5 65t61.5 164t-61.5 164t-154.5 65t-154.5 -65t-61.5 -164t61.5 -164t154.5 -65z" />
    <glyph glyph-name="Idieresis_Idieresis" horiz-adv-x="586" 
d="M44 760q-30 0 -52 21.5t-22 52.5q0 30 22 51.5t52 21.5q31 0 52.5 -21t21.5 -52t-21.5 -52.5t-52.5 -21.5zM82 0v700h143v-700h-143zM361 0v700h143v-700h-143zM543 760q-31 0 -52.5 21.5t-21.5 52.5t21.5 52t52.5 21t52 -21t21 -52t-21 -52.5t-52 -21.5zM294 760
q-31 0 -52.5 21.5t-21.5 52.5t21.5 52t52.5 21t52 -21t21 -52t-21 -52.5t-52 -21.5z" />
    <glyph glyph-name="threequarters.mono" horiz-adv-x="852" 
d="M158 0l422 700h108l-422 -700h-108zM663 1v90h-190v68l185 220h97v-214h54v-74h-54v-90h-92zM570 165h93v108zM160 315q-71 0 -122 30v88q56 -34 114 -34q30 0 51 14t21 37q0 22 -17 35.5t-48 13.5q-41 0 -61 -11v59l87 73h-136v80h253v-71l-80 -69q37 -8 67.5 -34.5
t30.5 -77.5q0 -60 -46 -96.5t-114 -36.5z" />
    <glyph glyph-name="franc.mono" 
d="M-2 108v103h102v489h513v-131h-369v-140h285v-128h-285v-90h149v-103h-149v-108h-144v108h-102z" />
    <glyph glyph-name="uniF727.mono" 
d="M110 204v61h116l-175 234h151l124 -177l125 177h148l-179 -234h120v-61h-147v-45h147v-61h-147v-98h-137v98h-146v61h146v45h-146z" />
    <glyph glyph-name="circumflex.cap" horiz-adv-x="514" 
d="M65 762l122 145h136l119 -145h-123l-67 77l-65 -77h-122z" />
    <glyph glyph-name="agrave.alt" horiz-adv-x="645" 
d="M271 -13q-102 0 -168.5 75.5t-66.5 187.5q0 111 66.5 186.5t168.5 75.5q106 0 164 -74v61h141v-499h-141v61q-56 -74 -164 -74zM311 110q42 0 74.5 21.5t49.5 53.5v130q-17 32 -49.5 53t-74.5 21q-59 0 -97 -40t-38 -99q0 -60 38 -100t97 -40zM317 722l95 -146h-122
l-144 146h171z" />
    <glyph glyph-name="macron.cap" horiz-adv-x="541" 
d="M113 785v95h306v-95h-306z" />
    <glyph glyph-name="aacute.alt" horiz-adv-x="645" 
d="M271 -13q-102 0 -168.5 75.5t-66.5 187.5q0 111 66.5 186.5t168.5 75.5q106 0 164 -74v61h141v-499h-141v61q-56 -74 -164 -74zM311 110q42 0 74.5 21.5t49.5 53.5v130q-17 32 -49.5 53t-74.5 21q-59 0 -97 -40t-38 -99q0 -60 38 -100t97 -40zM215 570l95 146h170
l-143 -146h-122z" />
    <glyph glyph-name="grave.cap" horiz-adv-x="504" 
d="M270 907l95 -146h-122l-143 146h170z" />
    <glyph glyph-name="uniF653.mono" 
d="M382 -99h-125v89q-94 11 -149 44v125q32 -22 87.5 -39.5t116.5 -17.5q86 0 86 42q0 11 -5.5 18.5t-19 12.5t-26.5 8.5t-36.5 9.5t-40.5 11q-84 21 -123 55t-39 100q0 58 38.5 96t110.5 51v92h125v-90q82 -11 133 -42v-120q-87 52 -181 52q-80 0 -80 -40q0 -10 6 -18
t20.5 -13.5t26 -8.5t35.5 -8.5t36 -8.5q80 -19 121.5 -56t41.5 -102q0 -58 -42.5 -98t-116.5 -53v-91z" />
    <glyph glyph-name="onehalf.mono" horiz-adv-x="852" 
d="M131 0l422 700h108l-422 -700h-108zM150 322v280l-101 -51v94l105 55h92v-378h-96zM521 1v69l108 92q37 32 51 52.5t14 40.5t-15 31.5t-41 11.5q-54 0 -104 -39v95q47 32 112 32q57 0 100.5 -32.5t43.5 -86.5q0 -41 -17.5 -71.5t-62.5 -71.5l-48 -43h140v-80h-281z" />
    <glyph glyph-name="onequarter.mono" horiz-adv-x="852" 
d="M141 0l422 700h108l-422 -700h-108zM160 322v280l-101 -51v94l105 55h92v-378h-96zM646 1v90h-190v68l185 220h97v-214h54v-74h-54v-90h-92zM553 165h93v108z" />
    <glyph glyph-name="oneeighth.mono" horiz-adv-x="890" 
d="M143 0l422 700h108l-422 -700h-108zM162 322v280l-101 -51v94l105 55h92v-378h-96zM665 -6q-67 0 -113 31t-46 86q0 31 20 56t48 35q-22 10 -36 31t-14 46q0 47 40 77t101 30q60 0 100 -30t40 -77q0 -24 -14.5 -45.5t-35.5 -31.5q29 -10 48.5 -35t19.5 -56q0 -55 -46 -86
t-112 -31zM665 71q27 0 44.5 14t17.5 34q0 22 -17.5 35.5t-44.5 13.5q-29 0 -46 -13.5t-17 -35.5q0 -21 17 -34.5t46 -13.5zM665 228q22 0 36.5 11.5t14.5 29.5q0 19 -14.5 30.5t-36.5 11.5q-23 0 -38 -11.5t-15 -30.5q0 -18 15 -29.5t38 -11.5z" />
    <glyph glyph-name="threeeighths.mono" horiz-adv-x="890" 
d="M163 0l422 700h108l-422 -700h-108zM685 -6q-67 0 -113 31t-46 86q0 31 20 56t48 35q-22 10 -36 31t-14 46q0 47 40 77t101 30q60 0 100 -30t40 -77q0 -24 -14.5 -45.5t-35.5 -31.5q29 -10 48.5 -35t19.5 -56q0 -55 -46 -86t-112 -31zM685 71q27 0 44.5 14t17.5 34
q0 22 -17.5 35.5t-44.5 13.5q-29 0 -46 -13.5t-17 -35.5q0 -21 17 -34.5t46 -13.5zM685 228q22 0 36.5 11.5t14.5 29.5q0 19 -14.5 30.5t-36.5 11.5q-23 0 -38 -11.5t-15 -30.5q0 -18 15 -29.5t38 -11.5zM164 315q-71 0 -122 30v88q56 -34 114 -34q30 0 51 14t21 37
q0 22 -17 35.5t-48 13.5q-41 0 -61 -11v59l87 73h-136v80h253v-71l-80 -69q37 -8 67.5 -34.5t30.5 -77.5q0 -60 -46 -96.5t-114 -36.5z" />
    <glyph glyph-name="fiveeighths.mono" horiz-adv-x="890" 
d="M163 0l422 700h108l-422 -700h-108zM160 315q-65 0 -112 27v89q50 -32 108 -32q31 0 52.5 13t21.5 39q0 23 -20 37t-55 14q-47 0 -95 -15l25 213h216v-80h-144l-5 -48q5 2 26 2q66 0 107 -32.5t41 -90.5q0 -65 -48 -100.5t-118 -35.5zM685 -6q-67 0 -113 31t-46 86
q0 31 20 56t48 35q-22 10 -36 31t-14 46q0 47 40 77t101 30q60 0 100 -30t40 -77q0 -24 -14.5 -45.5t-35.5 -31.5q29 -10 48.5 -35t19.5 -56q0 -55 -46 -86t-112 -31zM685 71q27 0 44.5 14t17.5 34q0 22 -17.5 35.5t-44.5 13.5q-29 0 -46 -13.5t-17 -35.5q0 -21 17 -34.5
t46 -13.5zM685 228q22 0 36.5 11.5t14.5 29.5q0 19 -14.5 30.5t-36.5 11.5q-23 0 -38 -11.5t-15 -30.5q0 -18 15 -29.5t38 -11.5z" />
    <glyph glyph-name="seveneighths.mono" horiz-adv-x="890" 
d="M142 0l422 700h108l-422 -700h-108zM664 -6q-67 0 -113 31t-46 86q0 31 20 56t48 35q-22 10 -36 31t-14 46q0 47 40 77t101 30q60 0 100 -30t40 -77q0 -24 -14.5 -45.5t-35.5 -31.5q29 -10 48.5 -35t19.5 -56q0 -55 -46 -86t-112 -31zM664 71q27 0 44.5 14t17.5 34
q0 22 -17.5 35.5t-44.5 13.5q-29 0 -46 -13.5t-17 -35.5q0 -21 17 -34.5t46 -13.5zM664 228q22 0 36.5 11.5t14.5 29.5q0 19 -14.5 30.5t-36.5 11.5q-23 0 -38 -11.5t-15 -30.5q0 -18 15 -29.5t38 -11.5zM98 322l151 298h-173v80h282v-75l-156 -303h-104z" />
    <glyph glyph-name="ring.cap" horiz-adv-x="518" 
d="M251 733q-44 0 -74.5 31t-30.5 74t30.5 74t74.5 31q43 0 74 -31t31 -74t-31 -74t-74 -31zM251 792q19 0 32.5 13.5t13.5 32.5q0 20 -13.5 33t-32.5 13t-32.5 -13t-13.5 -33q0 -19 13.5 -32.5t32.5 -13.5z" />
    <glyph glyph-name="caron.cap" horiz-adv-x="538" 
d="M458 907l-122 -146h-136l-119 146h123l67 -78l65 78h122z" />
    <glyph glyph-name="dotaccent.cap" horiz-adv-x="415" 
d="M201 760q-30 0 -52 21.5t-22 52.5q0 30 22 51.5t52 21.5q32 0 53 -21.5t21 -51.5q0 -31 -21 -52.5t-53 -21.5z" />
    <glyph glyph-name="breve.cap" horiz-adv-x="512" 
d="M253 746q-68 0 -115.5 44t-49.5 119h95q2 -33 21 -53t49 -20t49 20t21 53h95q-2 -75 -49.5 -119t-115.5 -44z" />
    <glyph glyph-name="hungarumlaut.cap" horiz-adv-x="626" 
d="M298 761l95 146h172l-144 -146h-123zM70 761l95 146h172l-144 -146h-123z" />
    <glyph glyph-name="dollar.mono" 
d="M258 -109v99q-123 14 -203 71v150q45 -38 118 -65.5t142 -27.5q56 0 95.5 20.5t39.5 60.5q0 13 -3 23t-12.5 18.5t-16.5 14.5t-25 13t-27.5 10t-35 10.5t-36.5 11.5q-37 12 -52 17t-46.5 17t-45.5 21.5t-35 26t-30.5 34.5t-17 43t-7.5 55q0 80 52 130.5t146 64.5v100h130
v-99q83 -11 165 -54v-140q-106 66 -227 66q-119 0 -119 -69q0 -11 4 -19.5t13.5 -16t19 -12.5t27 -11t30.5 -10t37 -10.5t39 -11.5q39 -13 66.5 -24.5t59 -30.5t51 -40.5t32.5 -53.5t13 -70q0 -85 -58.5 -140.5t-152.5 -70.5v-101h-130z" />
    <glyph glyph-name="yen.mono" 
d="M59 223h196v70h-196v95h156l-215 312h162l166 -250l167 250h157l-215 -312h158v-95h-197v-70h197v-94h-197v-129h-143v129h-196v94z" />
    <glyph glyph-name="sterling.mono" 
d="M71 0v129h14q42 0 54.5 18t12.5 64v71h-81v111h81v82q0 111 68 175t185 64q94 0 160 -35v-134q-61 34 -137 34q-132 0 -132 -124v-62h225v-111h-225v-91q0 -44 -29 -62h314v-129h-510z" />
    <glyph glyph-name="onethird.mono" horiz-adv-x="852" 
d="M131 0l422 700h108l-422 -700h-108zM150 322v280l-101 -51v94l105 55h92v-378h-96zM641 -6q-71 0 -122 30v88q56 -34 114 -34q30 0 51 14t21 37q0 22 -17 35.5t-48 13.5q-41 0 -61 -11v59l87 73h-136v80h253v-71l-80 -69q37 -8 67.5 -34.5t30.5 -77.5q0 -60 -46 -96.5
t-114 -36.5z" />
    <glyph glyph-name="twothirds.mono" horiz-adv-x="852" 
d="M169 0l422 700h108l-422 -700h-108zM33 322v69l108 92q37 32 51 52.5t14 40.5t-15 31.5t-41 11.5q-54 0 -104 -39v95q47 32 112 32q57 0 100.5 -32.5t43.5 -86.5q0 -41 -17.5 -71.5t-62.5 -71.5l-48 -43h140v-80h-281zM660 -6q-71 0 -122 30v88q56 -34 114 -34
q30 0 51 14t21 37q0 22 -17 35.5t-48 13.5q-41 0 -61 -11v59l87 73h-136v80h253v-71l-80 -69q37 -8 67.5 -34.5t30.5 -77.5q0 -60 -46 -96.5t-114 -36.5z" />
    <glyph glyph-name="Euro.mono" 
d="M462 393h-215q-2 -22 -2 -36q0 -15 2 -31h215v-87h-196q22 -59 71.5 -90t119.5 -31q94 0 158 51v-141q-70 -42 -176 -42q-125 0 -212 69.5t-115 183.5h-82v87h69q-1 12 -1 33q0 12 2 34h-70v86h87q33 107 117 171t205 64q92 0 161 -37v-136q-68 41 -143 41
q-134 0 -184 -103h189v-86z" />
    <glyph glyph-name="tilde.cap" horiz-adv-x="509" 
d="M159 765h-77q0 59 31.5 99.5t82.5 40.5q29 0 70.5 -22t61.5 -22q34 0 43 41h76q0 -56 -32 -98.5t-81 -42.5q-32 0 -72.5 22.5t-60.5 22.5q-35 0 -42 -41z" />
    <glyph glyph-name="uniF725.mono" 
d="M88 197v86h73v44q0 85 59 135t164 50q82 0 141 -26v-113q-64 24 -121 24q-53 0 -80.5 -23.5t-27.5 -66.5v-24h187v-86h-187v-30q0 -42 -25 -60h269v-107h-452v107h26q47 0 47 57v33h-73z" />
    <glyph glyph-name="acute.cap" horiz-adv-x="449" 
d="M102 761l95 146h170l-143 -146h-122z" />
    <glyph glyph-name="acircumflex.alt" horiz-adv-x="645" 
d="M271 -13q-102 0 -168.5 75.5t-66.5 187.5q0 111 66.5 186.5t168.5 75.5q106 0 164 -74v61h141v-499h-141v61q-56 -74 -164 -74zM311 110q42 0 74.5 21.5t49.5 53.5v130q-17 32 -49.5 53t-74.5 21q-59 0 -97 -40t-38 -99q0 -60 38 -100t97 -40zM121 570l122 146h136
l119 -146h-124l-66 78l-66 -78h-121z" />
    <glyph glyph-name="dieresis.cap" horiz-adv-x="497" 
d="M365 760q-31 0 -52.5 21.5t-21.5 52.5t21.5 52t52.5 21t52 -21t21 -52t-21 -52.5t-52 -21.5zM145 760q-30 0 -52 21.5t-22 52.5q0 30 22 51.5t52 21.5q31 0 52.5 -21t21.5 -52t-21.5 -52.5t-52.5 -21.5z" />
    <glyph glyph-name="uniF721.mono" 
d="M479 332h50v-60h-444v60h248q35 12 35 34q0 38 -90 38q-75 0 -150 -27v106q74 30 164 30q37 0 71 -6t67 -19.5t53 -39.5t20 -62q0 -37 -24 -54zM85 173v60h444v-60h-241q-38 -11 -38 -38q0 -39 97 -39q78 0 152 28v-108q-72 -29 -166 -29q-38 0 -73.5 6t-69.5 19.5
t-55 39.5t-21 62q0 38 26 59h-55z" />
    <glyph glyph-name="uni20B4.mono" 
d="M67 388v79h291q33 19 33 55q0 65 -114 65q-93 0 -164 -33v129q71 31 183 31q106 0 178 -45.5t72 -130.5q0 -49 -28 -71h59v-79h-510zM344 -14q-108 0 -179.5 45.5t-71.5 133.5q0 59 44 96h-70v79h510v-79h-270q-60 -29 -60 -76q0 -70 122 -70q41 0 92 11.5t84 28.5v-132
q-82 -37 -201 -37z" />
    <glyph glyph-name="atilde.alt" horiz-adv-x="645" 
d="M271 -13q-102 0 -168.5 75.5t-66.5 187.5q0 111 66.5 186.5t168.5 75.5q106 0 164 -74v61h141v-499h-141v61q-56 -74 -164 -74zM311 110q42 0 74.5 21.5t49.5 53.5v130q-17 32 -49.5 53t-74.5 21q-59 0 -97 -40t-38 -99q0 -60 38 -100t97 -40zM215 576h-76q0 58 31.5 99
t81.5 41q30 0 71.5 -22t61.5 -22q35 0 42 41h77q0 -55 -32 -98t-81 -43q-31 0 -72 22.5t-61 22.5q-34 0 -43 -41z" />
    <glyph glyph-name="aring.alt" horiz-adv-x="645" 
d="M310 545q-44 0 -74.5 31t-30.5 74t30.5 74t74.5 31q43 0 74 -31t31 -74t-31 -74t-74 -31zM310 604q19 0 32.5 13.5t13.5 32.5q0 20 -13.5 33t-32.5 13t-32.5 -13t-13.5 -33q0 -19 13.5 -32.5t32.5 -13.5zM271 -13q-102 0 -168.5 75.5t-66.5 187.5q0 111 66.5 186.5
t168.5 75.5q106 0 164 -74v61h141v-499h-141v61q-56 -74 -164 -74zM311 110q42 0 74.5 21.5t49.5 53.5v130q-17 32 -49.5 53t-74.5 21q-59 0 -97 -40t-38 -99q0 -60 38 -100t97 -40z" />
    <glyph glyph-name="uni2155.mono" horiz-adv-x="852" 
d="M141 0l422 700h108l-422 -700h-108zM160 322v280l-101 -51v94l105 55h92v-378h-96zM623 -6q-65 0 -112 27v89q50 -32 108 -32q31 0 52.5 13t21.5 39q0 23 -20 37t-55 14q-47 0 -95 -15l25 213h216v-80h-144l-5 -48q5 2 26 2q66 0 107 -32.5t41 -90.5q0 -65 -48 -100.5
t-118 -35.5z" />
    <glyph glyph-name="uni2156.mono" horiz-adv-x="852" 
d="M178 0l422 700h108l-422 -700h-108zM42 322v69l108 92q37 32 51 52.5t14 40.5t-15 31.5t-41 11.5q-54 0 -104 -39v95q47 32 112 32q57 0 100.5 -32.5t43.5 -86.5q0 -41 -17.5 -71.5t-62.5 -71.5l-48 -43h140v-80h-281zM641 -6q-65 0 -112 27v89q50 -32 108 -32
q31 0 52.5 13t21.5 39q0 23 -20 37t-55 14q-47 0 -95 -15l25 213h216v-80h-144l-5 -48q5 2 26 2q66 0 107 -32.5t41 -90.5q0 -65 -48 -100.5t-118 -35.5z" />
    <glyph glyph-name="uni2157.mono" horiz-adv-x="852" 
d="M162 0l422 700h108l-422 -700h-108zM643 -6q-65 0 -112 27v89q50 -32 108 -32q31 0 52.5 13t21.5 39q0 23 -20 37t-55 14q-47 0 -95 -15l25 213h216v-80h-144l-5 -48q5 2 26 2q66 0 107 -32.5t41 -90.5q0 -65 -48 -100.5t-118 -35.5zM163 315q-71 0 -122 30v88
q56 -34 114 -34q30 0 51 14t21 37q0 22 -17 35.5t-48 13.5q-41 0 -61 -11v59l87 73h-136v80h253v-71l-80 -69q37 -8 67.5 -34.5t30.5 -77.5q0 -60 -46 -96.5t-114 -36.5z" />
    <glyph glyph-name="uni2158.mono" horiz-adv-x="852" 
d="M187 0l422 700h108l-422 -700h-108zM650 -6q-65 0 -112 27v89q50 -32 108 -32q31 0 52.5 13t21.5 39q0 23 -20 37t-55 14q-47 0 -95 -15l25 213h216v-80h-144l-5 -48q5 2 26 2q66 0 107 -32.5t41 -90.5q0 -65 -48 -100.5t-118 -35.5zM224 322v90h-190v68l185 220h97v-214
h54v-74h-54v-90h-92zM131 486h93v108z" />
    <glyph glyph-name="uni2159.mono" horiz-adv-x="852" 
d="M141 0l422 700h108l-422 -700h-108zM159 322v280l-101 -51v94l105 55h92v-378h-96zM649 -6q-76 0 -117 48t-41 129q0 89 46.5 152t135.5 63q57 0 90 -23v-84q-35 24 -79 24q-38 0 -64 -22t-29 -62q31 34 80 34q54 0 89 -33t35 -91q0 -60 -41.5 -97.5t-104.5 -37.5z
M643 71q26 0 41.5 16.5t15.5 41.5q0 23 -16 38.5t-41 15.5q-18 0 -35 -10.5t-25 -27.5q1 -35 18 -54.5t42 -19.5z" />
    <glyph glyph-name="uni215A.mono" horiz-adv-x="852" 
d="M157 0l422 700h108l-422 -700h-108zM666 -6q-76 0 -117 48t-41 129q0 89 46.5 152t135.5 63q57 0 90 -23v-84q-34 24 -79 24q-38 0 -64 -22t-29 -62q31 34 80 34q54 0 89 -33t35 -91q0 -60 -42 -97.5t-104 -37.5zM660 71q26 0 41.5 16.5t15.5 41.5q0 23 -15.5 38.5
t-41.5 15.5q-18 0 -35 -10.5t-25 -27.5q1 -35 18 -54.5t42 -19.5zM152 315q-65 0 -112 27v89q50 -32 108 -32q31 0 52.5 13t21.5 39q0 23 -20 37t-55 14q-47 0 -95 -15l25 213h216v-80h-144l-5 -48q5 2 26 2q66 0 107 -32.5t41 -90.5q0 -65 -48 -100.5t-118 -35.5z" />
    <glyph glyph-name="Q.alt02" horiz-adv-x="840" 
d="M246 -168v124q44 28 96 37q-128 24 -208.5 124t-80.5 233q0 153 103 258.5t260 105.5t260 -105.5t103 -258.5q0 -139 -88 -241t-226 -120q40 -7 122 -39q110 -40 159 -40q33 0 56 14v-119q-23 -11 -64 -11q-68 0 -180 45q-106 42 -164 42q-90 0 -148 -49zM416 121
q93 0 154.5 65t61.5 164t-61.5 164t-154.5 65t-154.5 -65t-61.5 -164t61.5 -164t154.5 -65z" />
    <glyph glyph-name="amacron.alt" horiz-adv-x="645" 
d="M271 -13q-102 0 -168.5 75.5t-66.5 187.5q0 111 66.5 186.5t168.5 75.5q106 0 164 -74v61h141v-499h-141v61q-56 -74 -164 -74zM311 110q42 0 74.5 21.5t49.5 53.5v130q-17 32 -49.5 53t-74.5 21q-59 0 -97 -40t-38 -99q0 -60 38 -100t97 -40zM165 595v95h307v-95h-307z
" />
    <glyph glyph-name="Q.alt01" horiz-adv-x="846" 
d="M416 -14q-156 0 -259.5 105.5t-103.5 258.5t103 258.5t260 105.5t260 -105.5t103 -258.5q0 -127 -76 -227l98 -123h-154l-34 42q-87 -56 -197 -56zM416 121q63 0 111 30l-151 190h154l78 -99q24 51 24 108q0 99 -61.5 164t-154.5 65t-154.5 -65t-61.5 -164t61.5 -164
t154.5 -65z" />
    <glyph glyph-name="aogonek.alt" horiz-adv-x="645" 
d="M571 -202q-60 0 -94 29t-34 74q0 54 45 99h-53v61q-56 -74 -164 -74q-102 0 -168.5 75.5t-66.5 187.5q0 111 66.5 186.5t168.5 75.5q106 0 164 -74v61h141v-499q-35 -35 -35 -70q0 -47 54 -47q23 0 36 7v-84q-21 -8 -60 -8zM311 110q42 0 74.5 21.5t49.5 53.5v130
q-17 32 -49.5 53t-74.5 21q-59 0 -97 -40t-38 -99q0 -60 38 -100t97 -40z" />
    <glyph glyph-name="abreve.alt" horiz-adv-x="645" 
d="M271 -13q-102 0 -168.5 75.5t-66.5 187.5q0 111 66.5 186.5t168.5 75.5q106 0 164 -74v61h141v-499h-141v61q-56 -74 -164 -74zM311 110q42 0 74.5 21.5t49.5 53.5v130q-17 32 -49.5 53t-74.5 21q-59 0 -97 -40t-38 -99q0 -60 38 -100t97 -40zM314 561q-68 0 -116 44.5
t-50 117.5h96q2 -33 21 -53t49 -20t48.5 20t20.5 53h95q-2 -74 -49.5 -118t-114.5 -44z" />
    <glyph glyph-name="gcommaaccent.alt" horiz-adv-x="592" 
d="M563 512v-112l-75 -30q14 -33 14 -66q0 -63 -34 -113q69 -64 69 -161q0 -100 -75 -168t-191 -68q-110 0 -187.5 66t-77.5 182h143q0 -61 33.5 -93.5t88.5 -32.5q53 0 88.5 33t35.5 81q0 51 -37 83q-42 -17 -88 -17q-103 0 -168 60t-65 148t65 148t168 60q90 0 154 -51z
M270 208q45 0 73 27t28 69t-28 69t-73 27t-73.5 -27t-28.5 -69t28.5 -69t73.5 -27zM384 778l-59 -204h-130l84 204h105z" />
    <glyph glyph-name="f_f_t" horiz-adv-x="1152" 
d="M248 0h-141v381h-89v118h89v47q0 74 43 120t126 46q73 0 127 -21v-114q-43 17 -86 17q-69 0 -69 -67v-28h219v47q0 74 43 120t126 46q73 0 127 -21v-114q-43 17 -86 17q-69 0 -69 -67v-28h219v137h141v-137h142v-118h-142v-198q0 -38 16 -54t52 -16q35 0 73 18v-117
q-43 -27 -119 -27q-163 0 -163 168v226h-219v-381h-141v381h-219v-381z" />
    <glyph glyph-name="t.alt" horiz-adv-x="385" 
d="M60 155v481h141v-137h142v-118h-142v-198q0 -38 16 -54t52 -16q35 0 73 18v-117q-43 -27 -119 -27q-163 0 -163 168z" />
    <glyph glyph-name="f.alt01" horiz-adv-x="387" 
d="M210 0h-141v546q0 74 43 120t126 46q73 0 127 -21v-114q-43 17 -86 17q-69 0 -69 -67v-28h155v-118h-155v-381z" />
    <glyph glyph-name="f_j" horiz-adv-x="684" 
d="M427 -206q-76 0 -111 22v120q33 -19 75 -19q76 0 76 79v385h-219v-381h-141v381h-89v118h89v47q0 74 43 120t126 46q73 0 127 -21v-114q-43 17 -86 17q-69 0 -69 -67v-28h360v-517q0 -90 -48.5 -139t-132.5 -49zM536 547q-35 0 -59.5 24.5t-24.5 59.5q0 36 24.5 60.5
t59.5 24.5t60 -24.5t25 -60.5q0 -35 -25 -59.5t-60 -24.5z" />
    <glyph glyph-name="T_h" horiz-adv-x="1121" 
d="M713 0h-141v571h-177v-571h-144v571h-221v129h683v-262q68 74 167 74q87 0 134.5 -55t47.5 -151v-306h-141v277q0 58 -28 82t-67 24q-34 0 -64.5 -18.5t-48.5 -46.5v-318z" />
    <glyph glyph-name="uni043F_uni0438" horiz-adv-x="975" 
d="M69 0v499h479v-294l226 294h132v-499h-139v291l-226 -291h-132v381h-199v-381h-141z" />
    <glyph glyph-name="uni041F_uni0418" horiz-adv-x="1206" 
d="M77 0v700h586v-457l340 457h125v-700h-144v460l-343 -460h-121v573h-299v-573h-144z" />
    <glyph glyph-name="uni041D_uni0418" horiz-adv-x="1223" 
d="M77 0v700h144v-263h316v263h143v-457l340 457h125v-700h-144v460l-343 -460h-121v308h-316v-308h-144z" />
    <glyph glyph-name="uni043D_uni0438" horiz-adv-x="981" 
d="M69 0v499h141v-185h205v185h139v-294l226 294h132v-499h-139v291l-226 -291h-132v197h-205v-197h-141z" />
    <glyph glyph-name="uni0418_uni041D" horiz-adv-x="1223" 
d="M77 0v700h144v-457l339 457h124v-263h317v263h144v-700h-144v308h-317v-308h-143v460l-343 -460h-121z" />
    <glyph glyph-name="uni0438_uni043D" horiz-adv-x="981" 
d="M69 0v499h139v-294l226 294h132v-185h205v185h141v-499h-141v197h-205v-197h-139v294l-226 -294h-132z" />
    <glyph glyph-name="f_t" horiz-adv-x="791" 
d="M466 155v226h-218v-381h-141v381h-89v118h89v47q0 74 43 120t126 46q73 0 127 -21v-114q-43 17 -86 17q-69 0 -69 -67v-28h218v137h141v-137h142v-118h-142v-198q0 -38 16 -54t52 -16q35 0 73 18v-117q-43 -27 -119 -27q-163 0 -163 168z" />
    <glyph glyph-name="uni0438_uni0439" horiz-adv-x="992" 
d="M69 0v499h139v-294l226 294h132v-294l226 294h131v-499h-138v294l-229 -294h-129v294l-226 -294h-132zM674 554q-78 0 -129 46t-51 125h105q1 -33 21 -53t53 -20q35 0 54.5 19.5t20.5 53.5h107q-2 -79 -52.5 -125t-128.5 -46z" />
    <glyph glyph-name="gdotaccent.alt" horiz-adv-x="592" 
d="M563 512v-112l-75 -30q14 -33 14 -66q0 -63 -34 -113q69 -64 69 -161q0 -100 -75 -168t-191 -68q-110 0 -187.5 66t-77.5 182h143q0 -61 33.5 -93.5t88.5 -32.5q53 0 88.5 33t35.5 81q0 51 -37 83q-42 -17 -88 -17q-103 0 -168 60t-65 148t65 148t168 60q90 0 154 -51z
M270 208q45 0 73 27t28 69t-28 69t-73 27t-73.5 -27t-28.5 -69t28.5 -69t73.5 -27zM272 569q-30 0 -52 21.5t-22 52.5q0 30 22 51.5t52 21.5q31 0 52 -21t21 -52t-21 -52.5t-52 -21.5z" />
    <glyph glyph-name="H_B" horiz-adv-x="1176" 
d="M77 0v700h144v-262h316v262h329q96 0 154 -45.5t58 -129.5q0 -52 -26.5 -88.5t-61.5 -50.5q58 -13 100 -62t42 -125q0 -89 -66 -144t-177 -55h-352v307h-316v-307h-144zM681 124h181q54 0 84 23.5t30 67.5q0 45 -30 68.5t-84 23.5h-181v-183zM681 426h162q45 0 70.5 20
t25.5 56q0 38 -25 58t-71 20h-162v-154z" />
    <glyph glyph-name="H_D" horiz-adv-x="1236" 
d="M537 0v307h-316v-307h-144v700h144v-262h316v262h262q170 0 277 -97.5t107 -252.5t-107 -252.5t-277 -97.5h-262zM681 129h106q118 0 183 58.5t65 162.5t-65 162.5t-183 58.5h-106v-442z" />
    <glyph glyph-name="H_E" horiz-adv-x="1100" 
d="M77 0v700h144v-262h316v262h514v-129h-370v-135h298v-127h-298v-180h381v-129h-525v307h-316v-307h-144z" />
    <glyph glyph-name="H_F" horiz-adv-x="1088" 
d="M77 0v700h144v-262h316v262h513v-129h-369v-142h285v-127h-285v-302h-144v307h-316v-307h-144z" />
    <glyph glyph-name="H_K" horiz-adv-x="1166" 
d="M537 0v307h-316v-307h-144v700h144v-262h316v262h144v-276l258 276h176l-297 -321l348 -379h-184l-301 323v-323h-144z" />
    <glyph glyph-name="H_M" horiz-adv-x="1306" 
d="M77 0v700h144v-262h316v262h143l203 -290l203 290h142v-700h-142v479l-161 -225h-80l-164 225v-479h-144v307h-316v-307h-144z" />
    <glyph glyph-name="H_N" horiz-adv-x="1233" 
d="M77 0v700h144v-262h316v262h125l353 -448v448h140v-700h-119l-356 450v-450h-143v307h-316v-307h-144z" />
    <glyph glyph-name="H_U" horiz-adv-x="1204" 
d="M77 0v700h144v-262h316v262h143v-411q0 -83 43 -125.5t113 -42.5t113.5 42.5t43.5 125.5v411h144v-406q0 -147 -84.5 -227.5t-216.5 -80.5q-131 0 -215 80.5t-84 227.5v13h-316v-307h-144z" />
    <glyph glyph-name="H_P" horiz-adv-x="1119" 
d="M77 0v700h144v-262h316v262h306q113 0 178.5 -58t65.5 -153q0 -94 -65.5 -153t-178.5 -59h-162v-277h-144v307h-316v-307h-144zM681 400h152q52 0 81 22.5t29 64.5t-29 64.5t-81 22.5h-152v-174z" />
    <glyph glyph-name="H_R" horiz-adv-x="1190" 
d="M537 0v307h-316v-307h-144v700h144v-262h316v262h324q111 0 176 -57.5t65 -149.5q0 -70 -38.5 -121.5t-106.5 -72.5l216 -299h-167l-204 283h-121v-283h-144zM681 404h172q49 0 76.5 22t27.5 63t-27.5 63t-76.5 22h-172v-170z" />
    <glyph glyph-name="N_D" horiz-adv-x="1252" 
d="M77 0v700h123l353 -448v448h262q170 0 277 -97.5t107 -252.5t-107 -252.5t-277 -97.5h-241l-356 450v-450h-141zM697 129h106q118 0 183 58.5t65 162.5t-65 162.5t-183 58.5h-106v-442z" />
    <glyph glyph-name="N_B" horiz-adv-x="1192" 
d="M77 0v700h123l353 -448v448h329q96 0 154 -45.5t58 -129.5q0 -52 -26.5 -88.5t-61.5 -50.5q58 -13 100 -62t42 -125q0 -89 -66 -144t-177 -55h-331l-356 450v-450h-141zM697 124h181q54 0 84 23.5t30 67.5q0 45 -30 68.5t-84 23.5h-181v-183zM697 426h162q45 0 70.5 20
t25.5 56q0 38 -25 58t-71 20h-162v-154z" />
    <glyph glyph-name="M_P" horiz-adv-x="1208" 
d="M77 0v700h143l203 -290l203 290h306q113 0 178.5 -58t65.5 -153q0 -94 -65.5 -153t-178.5 -59h-162v-277h-144v479l-161 -225h-80l-164 225v-479h-144zM770 400h152q52 0 81 22.5t29 64.5t-29 64.5t-81 22.5h-152v-174z" />
    <glyph glyph-name="M_R" horiz-adv-x="1279" 
d="M77 0v700h143l203 -290l203 290h324q111 0 176 -57.5t65 -149.5q0 -70 -38.5 -121.5t-106.5 -72.5l216 -299h-167l-204 283h-121v-283h-144v479l-161 -225h-80l-164 225v-479h-144zM770 404h172q49 0 76.5 22t27.5 63t-27.5 63t-76.5 22h-172v-170z" />
    <glyph glyph-name="M_H" horiz-adv-x="1307" 
d="M77 0v700h143l203 -290l203 290h144v-262h316v262h143v-700h-143v307h-316v-307h-144v479l-161 -225h-80l-164 225v-479h-144z" />
    <glyph glyph-name="M_U" horiz-adv-x="1293" 
d="M925 -14q-131 0 -215 80.5t-84 227.5v185l-161 -225h-80l-164 225v-479h-144v700h143l203 -290l203 290h143v-411q0 -83 43 -125.5t113 -42.5t113.5 42.5t43.5 125.5v411h144v-406q0 -147 -84.5 -227.5t-216.5 -80.5z" />
    <glyph glyph-name="N_P" horiz-adv-x="1135" 
d="M77 0v700h123l353 -448v448h306q113 0 178.5 -58t65.5 -153q0 -94 -65.5 -153t-178.5 -59h-162v-277h-123l-356 450v-450h-141zM697 400h152q52 0 81 22.5t29 64.5t-29 64.5t-81 22.5h-152v-174z" />
    <glyph glyph-name="t_t" horiz-adv-x="801" 
d="M116 155v226h-98v118h98v137h141v-137h219v137h141v-137h142v-118h-142v-198q0 -38 16 -54t52 -16q35 0 73 18v-117q-43 -27 -119 -27q-163 0 -163 168v226h-219v-198q0 -38 16 -54t52 -16q35 0 73 18v-117q-43 -27 -119 -27q-163 0 -163 168z" />
    <glyph glyph-name="gbreve.alt" horiz-adv-x="592" 
d="M271 561q-68 0 -116 44.5t-50 117.5h96q2 -33 21 -53t49 -20t48.5 20t20.5 53h95q-2 -74 -49.5 -118t-114.5 -44zM563 512v-112l-75 -30q14 -33 14 -66q0 -63 -34 -113q69 -64 69 -161q0 -100 -75 -168t-191 -68q-110 0 -187.5 66t-77.5 182h143q0 -61 33.5 -93.5
t88.5 -32.5q53 0 88.5 33t35.5 81q0 51 -37 83q-42 -17 -88 -17q-103 0 -168 60t-65 148t65 148t168 60q90 0 154 -51zM270 208q45 0 73 27t28 69t-28 69t-73 27t-73.5 -27t-28.5 -69t28.5 -69t73.5 -27z" />
    <glyph glyph-name="g.alt" horiz-adv-x="592" 
d="M563 512v-112l-75 -30q14 -33 14 -66q0 -63 -34 -113q69 -64 69 -161q0 -100 -75 -168t-191 -68q-110 0 -187.5 66t-77.5 182h143q0 -61 33.5 -93.5t88.5 -32.5q53 0 88.5 33t35.5 81q0 51 -37 83q-42 -17 -88 -17q-103 0 -168 60t-65 148t65 148t168 60q90 0 154 -51z
M270 208q45 0 73 27t28 69t-28 69t-73 27t-73.5 -27t-28.5 -69t28.5 -69t73.5 -27z" />
    <glyph glyph-name="U_R" horiz-adv-x="1177" 
d="M367 -14q-131 0 -215 80.5t-84 227.5v406h143v-411q0 -83 43 -125.5t113 -42.5t113.5 42.5t43.5 125.5v411h324q111 0 176 -57.5t65 -149.5q0 -70 -38.5 -121.5t-106.5 -72.5l216 -299h-167l-204 283h-121q-4 -141 -88 -219t-213 -78zM668 404h172q49 0 76.5 22t27.5 63
t-27.5 63t-76.5 22h-172v-170z" />
    <glyph glyph-name="U_F" horiz-adv-x="1075" 
d="M367 -14q-131 0 -215 80.5t-84 227.5v406h143v-411q0 -83 43 -125.5t113 -42.5t113.5 42.5t43.5 125.5v411h513v-129h-369v-142h285v-127h-285v-8q0 -147 -84.5 -227.5t-216.5 -80.5z" />
    <glyph glyph-name="U_H" horiz-adv-x="1205" 
d="M367 -14q-131 0 -215 80.5t-84 227.5v406h143v-411q0 -83 43 -125.5t113 -42.5t113.5 42.5t43.5 125.5v411h144v-262h316v262h143v-700h-143v307h-316v-13q0 -147 -84.5 -227.5t-216.5 -80.5z" />
    <glyph glyph-name="U_K" horiz-adv-x="1153" 
d="M367 -14q-131 0 -215 80.5t-84 227.5v406h143v-411q0 -83 43 -125.5t113 -42.5t113.5 42.5t43.5 125.5v411h144v-276l258 276h176l-297 -321l348 -379h-184l-301 323v-29q0 -147 -84.5 -227.5t-216.5 -80.5z" />
    <glyph glyph-name="U_M" horiz-adv-x="1293" 
d="M367 -14q-131 0 -215 80.5t-84 227.5v406h143v-411q0 -83 43 -125.5t113 -42.5t113.5 42.5t43.5 125.5v411h143l203 -290l203 290h142v-700h-142v479l-161 -225h-80l-164 225v-185q0 -147 -84.5 -227.5t-216.5 -80.5z" />
    <glyph glyph-name="M_B" horiz-adv-x="1265" 
d="M77 0v700h143l203 -290l203 290h329q96 0 154 -45.5t58 -129.5q0 -52 -26.5 -88.5t-61.5 -50.5q58 -13 100 -62t42 -125q0 -89 -66 -144t-177 -55h-352v479l-161 -225h-80l-164 225v-479h-144zM770 124h181q54 0 84 23.5t30 67.5q0 45 -30 68.5t-84 23.5h-181v-183z
M770 426h162q45 0 70.5 20t25.5 56q0 38 -25 58t-71 20h-162v-154z" />
    <glyph glyph-name="U_N" horiz-adv-x="1221" 
d="M367 -14q-131 0 -215 80.5t-84 227.5v406h143v-411q0 -83 43 -125.5t113 -42.5t113.5 42.5t43.5 125.5v411h126l353 -448v448h140v-700h-119l-356 450v-156q0 -147 -84.5 -227.5t-216.5 -80.5z" />
    <glyph glyph-name="M_E" horiz-adv-x="1189" 
d="M77 0v700h143l203 -290l203 290h514v-129h-370v-135h298v-127h-298v-180h381v-129h-525v479l-161 -225h-80l-164 225v-479h-144z" />
    <glyph glyph-name="endash.cap" horiz-adv-x="771" 
d="M96 324v127h579v-127h-579z" />
    <glyph glyph-name="emdash.cap" horiz-adv-x="917" 
d="M96 324v127h725v-127h-725z" />
    <glyph glyph-name="hyphen.cap" horiz-adv-x="501" 
d="M96 324v127h309v-127h-309z" />
    <glyph glyph-name="bracketleft.cap" horiz-adv-x="429" 
d="M79 -106v912h314v-111h-186v-690h186v-111h-314z" />
    <glyph glyph-name="bracketright.cap" horiz-adv-x="429" 
d="M350 806v-912h-314v111h186v690h-186v111h314z" />
    <glyph glyph-name="braceleft.cap" horiz-adv-x="409" 
d="M373 -106h-80q-78 0 -122.5 44.5t-44.5 122.5v111q0 58 -15 87t-62 35v112q47 6 62 33t15 84v116q0 77 44.5 122t122.5 45h80v-111h-50q-32 0 -50.5 -19.5t-18.5 -51.5v-142q0 -107 -80 -132q80 -25 80 -132v-142q0 -33 18 -52t51 -19h50v-111z" />
    <glyph glyph-name="braceright.cap" horiz-adv-x="409" 
d="M116 -106h-80v111h50q33 0 51 19t18 52v142q0 107 80 132q-80 25 -80 132v142q0 32 -18.5 51.5t-50.5 19.5h-50v111h80q78 0 122.5 -45t44.5 -122v-116q0 -57 15 -84t62 -33v-112q-47 -6 -62 -35t-15 -87v-111q0 -78 -44.5 -122.5t-122.5 -44.5z" />
    <glyph glyph-name="guillemotright.cap" horiz-adv-x="589" 
d="M31 135l161 215l-161 214h141l137 -179v-71l-137 -179h-141zM279 135l161 215l-161 214h141l137 -179v-71l-137 -179h-141z" />
    <glyph glyph-name="guillemotleft.cap" horiz-adv-x="590" 
d="M169 135l-137 179v71l137 179h141l-161 -214l161 -215h-141zM417 135l-137 179v71l137 179h142l-162 -214l162 -215h-142z" />
    <glyph glyph-name="guilsinglright.cap" horiz-adv-x="341" 
d="M31 135l161 215l-161 214h141l137 -179v-71l-137 -179h-141z" />
    <glyph glyph-name="guilsinglleft.cap" horiz-adv-x="341" 
d="M169 135l-137 179v71l137 179h141l-161 -214l161 -215h-141z" />
    <glyph glyph-name="parenleft.cap" horiz-adv-x="388" 
d="M359 -106h-144q-144 182 -144 456q0 273 144 456h144q-159 -205 -159 -456t159 -456z" />
    <glyph glyph-name="parenright.cap" horiz-adv-x="388" 
d="M173 -106h-144q159 205 159 456t-159 456h144q144 -183 144 -456q0 -274 -144 -456z" />
    <glyph glyph-name="exclamdown.cap" horiz-adv-x="333" 
d="M167 711q36 0 61 -25.5t25 -61.5q0 -37 -25 -62t-61 -25t-61.5 25t-25.5 62q0 36 25.5 61.5t61.5 25.5zM81 0l31 467h109l32 -467h-172z" />
    <glyph glyph-name="questiondown.cap" horiz-adv-x="491" 
d="M330 460v-148q-67 -14 -118.5 -47t-51.5 -77q0 -40 33 -60t82 -20q86 0 179 56v-126q-85 -59 -202 -59q-99 0 -168 53.5t-69 146.5q0 72 54.5 125.5t126.5 75.5v80h134zM260 704q37 0 62 -25.5t25 -62.5q0 -36 -25 -61t-62 -25q-36 0 -61.5 25t-25.5 61q0 37 25.5 62.5
t61.5 25.5z" />
    <glyph glyph-name="U_T" horiz-adv-x="920" 
d="M367 -14q-131 0 -215 80.5t-84 227.5v406h143v-411q0 -83 43 -125.5t113 -42.5t113.5 42.5t43.5 125.5v282h-221v129h587v-129h-222v-277q0 -147 -84.5 -227.5t-216.5 -80.5z" />
    <glyph glyph-name="T_U" horiz-adv-x="919" 
d="M553 -14q-132 0 -216.5 80.5t-84.5 227.5v277h-222v129h587v-129h-221v-282q0 -83 43.5 -125.5t113.5 -42.5t113 42.5t43 125.5v411h143v-406q0 -147 -84 -227.5t-215 -80.5z" />
    <glyph glyph-name="N_T" horiz-adv-x="1310" 
d="M77 0v700h123l353 -448v448h727v-129h-222v-571h-144v571h-221v-571h-119l-356 450v-450h-141z" />
    <glyph glyph-name="T_H" horiz-adv-x="1298" 
d="M617 0v571h-222v-571h-144v571h-221v129h731v-262h316v262h143v-700h-143v307h-316v-307h-144z" />
    <glyph glyph-name="H_T" horiz-adv-x="1297" 
d="M680 571v-571h-144v307h-316v-307h-143v700h143v-262h316v262h731v-129h-221v-571h-144v571h-222z" />
    <glyph glyph-name="A_V" horiz-adv-x="1050" 
d="M16 0l300 704h138l217 -508l205 504h156l-292 -700h-139l-69 162h-296l-69 -162h-151zM281 281h205l-102 243z" />
    <glyph glyph-name="D_C" horiz-adv-x="1200" 
d="M955 -14q-97 0 -177 37.5t-131 106.5q-107 -130 -308 -130h-262v700h262q198 0 307 -130q51 69 131 106.5t178 37.5q102 0 185 -44v-145q-79 54 -184 54q-100 0 -166.5 -65t-66.5 -164q0 -100 68 -164.5t171 -64.5q114 0 192 61v-145q-87 -51 -199 -51zM221 129h106
q118 0 183 58.5t65 162.5t-65 162.5t-183 58.5h-106v-442z" />
    <glyph glyph-name="D_O" horiz-adv-x="1355" 
d="M939 -14q-92 0 -167.5 38t-124.5 106q-107 -130 -308 -130h-262v700h262q199 0 308 -130q49 68 124.5 106t167.5 38q157 0 260 -105.5t103 -258.5t-103.5 -258.5t-259.5 -105.5zM939 121q93 0 154.5 65t61.5 164t-61.5 164t-154.5 65t-154.5 -65t-61.5 -164t61.5 -164
t154.5 -65zM221 129h106q118 0 183 58.5t65 162.5t-65 162.5t-183 58.5h-106v-442z" />
    <glyph glyph-name="D_Q" horiz-adv-x="1355" 
d="M977 -64l-56 52q-176 8 -274 142q-107 -130 -308 -130h-262v700h262q199 0 308 -130q49 68 124.5 106t167.5 38q157 0 260 -105.5t103 -258.5q0 -113 -59.5 -203.5t-159.5 -131.5l10 -11q15 -17 42 -28.5t55 -11.5q48 0 83 21v-121q-50 -23 -106 -23q-51 0 -95 24t-95 71
zM939 121q93 0 154.5 65t61.5 164t-61.5 164t-154.5 65t-154.5 -65t-61.5 -164t61.5 -164t154.5 -65zM221 129h106q118 0 183 58.5t65 162.5t-65 162.5t-183 58.5h-106v-442z" />
    <glyph glyph-name="D_G" horiz-adv-x="1290" 
d="M949 -14q-94 0 -172.5 37.5t-129.5 106.5q-107 -130 -308 -130h-262v700h262q198 0 307 -130q108 144 308 144q124 0 210 -53v-142q-95 60 -200 60q-107 0 -174 -63.5t-67 -168.5q0 -104 65 -166t161 -62q92 0 141 46v241h144v-309q-42 -47 -119 -79t-166 -32zM221 129
h106q118 0 183 58.5t65 162.5t-65 162.5t-183 58.5h-106v-442z" />
    <glyph glyph-name="H_Y" horiz-adv-x="1006" 
d="M77 0v700h144v-262h279l-184 262h170l174 -249l175 249h165l-270 -383v-317h-143v307h-366v-307h-144z" />
    <glyph glyph-name="L_A" horiz-adv-x="1179" 
d="M77 0v700h144v-571h259l245 575h138l300 -704h-153l-69 162h-296l-69 -162h-499zM690 281h205l-102 243z" />
    <glyph glyph-name="M_D" horiz-adv-x="1325" 
d="M626 0v479l-161 -225h-80l-164 225v-479h-144v700h143l203 -290l203 290h262q170 0 277 -97.5t107 -252.5t-107 -252.5t-277 -97.5h-262zM770 129h106q118 0 183 58.5t65 162.5t-65 162.5t-183 58.5h-106v-442z" />
    <glyph glyph-name="M_F" horiz-adv-x="1177" 
d="M626 0v479l-161 -225h-80l-164 225v-479h-144v700h143l203 -290l203 290h513v-129h-369v-142h285v-127h-285v-302h-144z" />
    <glyph glyph-name="M_N" horiz-adv-x="1321" 
d="M626 0v479l-161 -225h-80l-164 225v-479h-144v700h143l203 -290l203 290h124l353 -448v448h140v-700h-119l-356 450v-450h-142z" />
    <glyph glyph-name="N_E" horiz-adv-x="1117" 
d="M574 0l-356 450v-450h-141v700h123l353 -448v448h515v-129h-370v-135h298v-127h-298v-180h381v-129h-505z" />
    <glyph glyph-name="N_F" horiz-adv-x="1104" 
d="M77 0v700h123l353 -448v448h513v-129h-369v-142h285v-127h-285v-302h-123l-356 450v-450h-141z" />
    <glyph glyph-name="N_M" horiz-adv-x="1322" 
d="M77 0v700h123l353 -448v448h143l203 -290l203 290h142v-700h-142v479l-161 -225h-80l-164 225v-479h-123l-356 450v-450h-141z" />
    <glyph glyph-name="O_Q" horiz-adv-x="1411" 
d="M1033 -64l-56 52q-170 7 -272 138q-49 -65 -124 -102.5t-165 -37.5q-156 0 -259.5 105.5t-103.5 258.5t103 258.5t260 105.5q91 0 165.5 -37.5t123.5 -103.5q50 67 124.5 104t165.5 37q157 0 260 -105.5t103 -258.5q0 -113 -59.5 -203.5t-159.5 -131.5l10 -11
q15 -17 42 -28.5t55 -11.5q48 0 83 21v-121q-50 -23 -106 -23q-51 0 -95 24t-95 71zM995 121q93 0 154.5 65t61.5 164t-61.5 164t-154.5 65t-154.5 -65t-61.5 -164t61.5 -164t154.5 -65zM416 121q93 0 154.5 65t61.5 164t-61.5 164t-154.5 65t-154.5 -65t-61.5 -164
t61.5 -164t154.5 -65z" />
    <glyph glyph-name="O_G" horiz-adv-x="1346" 
d="M1005 -14q-93 0 -171 36.5t-129 103.5q-49 -65 -124 -102.5t-165 -37.5q-156 0 -259.5 105.5t-103.5 258.5t103 258.5t260 105.5q90 0 165 -37.5t124 -102.5q52 67 130.5 103.5t174.5 36.5q124 0 210 -53v-142q-95 60 -200 60q-107 0 -174 -63.5t-67 -168.5
q0 -104 65 -166t161 -62q92 0 141 46v241h144v-309q-42 -47 -119 -79t-166 -32zM416 121q93 0 154.5 65t61.5 164t-61.5 164t-154.5 65t-154.5 -65t-61.5 -164t61.5 -164t154.5 -65z" />
    <glyph glyph-name="T_Z" horiz-adv-x="1208" 
d="M600 0v102l364 469h-569v-571h-144v571h-221v129h1129v-101l-363 -470h379v-129h-575z" />
    <glyph glyph-name="V_A" horiz-adv-x="1053" 
d="M310 0l-292 700h159l205 -507l217 511h138l300 -704h-153l-69 162h-296l-69 -162h-140zM564 281h205l-102 243z" />
    <glyph glyph-name="Y_H" horiz-adv-x="1007" 
d="M276 0l1 3v311l-271 386h170l174 -249l175 249h165l-185 -262h281v262h143v-700h-143v307h-366v-307h-144z" />
    <glyph glyph-name="H_L" horiz-adv-x="1063" 
d="M537 0v307h-316v-307h-144v700h144v-262h316v262h144v-571h355v-129h-499z" />
    <glyph glyph-name="N_K" horiz-adv-x="1182" 
d="M574 0l-356 450v-450h-141v700h123l353 -448v448h144v-276l258 276h176l-297 -321l348 -379h-184l-301 323v-323h-123z" />
    <glyph glyph-name="N_L" horiz-adv-x="1079" 
d="M77 0v700h123l353 -448v448h144v-571h355v-129h-478l-356 450v-450h-141z" />
    <glyph glyph-name="M_L" horiz-adv-x="1152" 
d="M77 0v700h143l203 -290l203 290h144v-571h355v-129h-499v479l-161 -225h-80l-164 225v-479h-144z" />
    <glyph glyph-name="A_v" horiz-adv-x="969" 
d="M16 0l300 704h138l224 -526l130 321h147l-215 -499h-139l-69 162h-296l-69 -162h-151zM281 281h205l-102 243z" />
    <glyph glyph-name="A_y" horiz-adv-x="967" 
d="M16 0l300 704h138l225 -530l124 325h149l-231 -551q-66 -154 -199 -154q-62 0 -100 20v123q35 -20 76 -20q34 0 58 20t45 63l-69 162h-296l-69 -162h-151zM281 281h205l-102 243z" />
    <glyph glyph-name="H_k" horiz-adv-x="1069" 
d="M537 0v307h-316v-307h-144v700h144v-262h316v262h143v-383l172 182h173l-217 -225l251 -274h-182l-197 215v-215h-143z" />
    <glyph glyph-name="H_m" horiz-adv-x="1396" 
d="M537 0v307h-316v-307h-144v700h144v-262h316v262h143v-262q57 74 152 74q56 0 96.5 -24.5t58.5 -60.5q25 37 71 61t101 24q80 0 129 -51t49 -149v-312h-141v280q0 103 -83 103q-32 0 -60.5 -19.5t-43.5 -48.5v-315h-141v280q0 103 -83 103q-31 0 -60.5 -19t-44.5 -47
v-317h-143z" />
    <glyph glyph-name="H_u" horiz-adv-x="1098" 
d="M77 0v700h144v-262h316v262h143v-478q0 -58 28 -82t67 -24q34 0 64.5 18.5t48.5 46.5v318h141v-499h-141v60q-66 -73 -167 -73q-87 0 -135.5 55t-48.5 151v114h-316v-307h-144z" />
    <glyph glyph-name="J_h" horiz-adv-x="850" 
d="M196 -14q-108 0 -168 41v142q60 -48 138 -48q67 0 100 31t33 102v446h143v-262q68 74 167 74q87 0 134.5 -55t47.5 -151v-306h-141v277q0 58 -28 82t-67 24q-34 0 -64.5 -18.5t-48.5 -46.5v-88q0 -67 -19.5 -116t-54.5 -76t-77.5 -39.5t-94.5 -12.5z" />
    <glyph glyph-name="J_k" horiz-adv-x="831" 
d="M196 -14q-108 0 -168 41v142q60 -48 138 -48q67 0 100 31t33 102v446h143v-383l172 182h173l-217 -225l251 -274h-182l-197 215q-2 -63 -22.5 -108.5t-55.5 -71t-76.5 -37.5t-91.5 -12z" />
    <glyph glyph-name="J_m" horiz-adv-x="1158" 
d="M196 -14q-108 0 -168 41v142q60 -48 138 -48q67 0 100 31t33 102v446h143v-262q57 74 152 74q56 0 96.5 -24.5t58.5 -60.5q25 37 71 61t101 24q80 0 129 -51t49 -149v-312h-141v280q0 103 -83 103q-32 0 -60.5 -19.5t-43.5 -48.5v-315h-141v280q0 103 -83 103
q-31 0 -60.5 -19t-44.5 -47v-87q0 -67 -19.5 -116t-54.5 -76t-77.5 -39.5t-94.5 -12.5z" />
    <glyph glyph-name="L_i" horiz-adv-x="793" 
d="M77 0v700h144v-571h355v370h141v-499h-640zM646 547q-35 0 -59.5 24.5t-24.5 59.5q0 36 24.5 60.5t59.5 24.5t59.5 -24.5t24.5 -60.5q0 -35 -24.5 -59.5t-59.5 -24.5z" />
    <glyph glyph-name="M_b" horiz-adv-x="1202" 
d="M932 -13q-108 0 -164 74v-61h-142v479l-161 -225h-80l-164 225v-479h-144v700h143l203 -290l203 290h142v-262q58 74 164 74q102 0 168.5 -75.5t66.5 -186.5q0 -112 -66.5 -187.5t-168.5 -75.5zM892 110q59 0 97 40t38 100q0 59 -38 99t-97 40q-42 0 -74.5 -21t-49.5 -53
v-130q17 -32 49.5 -53.5t74.5 -21.5z" />
    <glyph glyph-name="M_n" horiz-adv-x="1176" 
d="M77 0v700h143l203 -290l203 290h142v-261q69 73 167 73q87 0 134.5 -55t47.5 -151v-306h-141v277q0 58 -28 82t-67 24q-34 0 -64.5 -18.5t-48.5 -46.5v-318h-142v479l-161 -225h-80l-164 225v-479h-144z" />
    <glyph glyph-name="M_k" horiz-adv-x="1157" 
d="M626 0v479l-161 -225h-80l-164 225v-479h-144v700h143l203 -290l203 290h142v-383l172 182h173l-217 -225l251 -274h-182l-197 215v-215h-142z" />
    <glyph glyph-name="M_m" horiz-adv-x="1484" 
d="M626 0v479l-161 -225h-80l-164 225v-479h-144v700h143l203 -290l203 290h142v-262q57 74 152 74q56 0 96.5 -24.5t58.5 -60.5q25 37 71 61t101 24q80 0 129 -51t49 -149v-312h-141v280q0 103 -83 103q-32 0 -60.5 -19.5t-43.5 -48.5v-315h-141v280q0 103 -83 103
q-31 0 -60.5 -19t-44.5 -47v-317h-142z" />
    <glyph glyph-name="M_u" horiz-adv-x="1186" 
d="M77 0v700h143l203 -290l203 290h142v-478q0 -58 28 -82t67 -24q34 0 64.5 18.5t48.5 46.5v318h141v-499h-141v60q-66 -73 -167 -73q-87 0 -134.5 55t-47.5 151v286l-162 -225h-80l-164 225v-479h-144z" />
    <glyph glyph-name="N_h" horiz-adv-x="1102" 
d="M694 0h-120l-356 450v-450h-141v700h123l353 -448v448h141v-262q68 74 167 74q87 0 134.5 -55t47.5 -151v-306h-141v277q0 58 -28 82t-67 24q-34 0 -64.5 -18.5t-48.5 -46.5v-318z" />
    <glyph glyph-name="N_k" horiz-adv-x="1083" 
d="M574 0l-356 450v-450h-141v700h123l353 -448v448h141v-383l172 182h173l-217 -225l251 -274h-182l-197 215v-215h-120z" />
    <glyph glyph-name="N_m" horiz-adv-x="1409" 
d="M77 0v700h123l353 -448v448h140v-262q57 74 152 74q56 0 96.5 -24.5t58.5 -60.5q25 37 71 61t101 24q80 0 129 -51t49 -149v-312h-141v280q0 103 -83 103q-32 0 -60.5 -19.5t-43.5 -48.5v-315h-141v280q0 103 -83 103q-31 0 -60.5 -19t-44.5 -47v-317h-119l-356 450v-450
h-141z" />
    <glyph glyph-name="T_b" horiz-adv-x="1192" 
d="M922 -13q-108 0 -164 74v-61h-141v571h-222v-571h-144v571h-221v129h728v-262q58 74 164 74q102 0 168.5 -75.5t66.5 -186.5q0 -112 -66.5 -187.5t-168.5 -75.5zM882 110q59 0 97 40t38 100q0 59 -38 99t-97 40q-42 0 -74.5 -21t-49.5 -53v-130q17 -32 49.5 -53.5
t74.5 -21.5z" />
    <glyph glyph-name="T_k" horiz-adv-x="1147" 
d="M617 0v571h-222v-571h-144v571h-221v129h728v-383l172 182h173l-217 -225l251 -274h-182l-197 215v-215h-141z" />
    <glyph glyph-name="T_m" horiz-adv-x="1111" 
d="M251 0v571h-221v129h587v-129h-222v-133q57 74 152 74q56 0 96.5 -24.5t58.5 -60.5q25 37 71 61t101 24q80 0 129 -51t49 -149v-312h-141v280q0 103 -83 103q-32 0 -60.5 -19.5t-43.5 -48.5v-315h-141v280q0 103 -83 103q-31 0 -60.5 -19t-44.5 -47v-317h-144z" />
    <glyph glyph-name="U_h" horiz-adv-x="1076" 
d="M367 -14q-131 0 -215 80.5t-84 227.5v406h143v-411q0 -83 43 -125.5t113 -42.5t113.5 42.5t43.5 125.5v411h144v-262q68 74 167 74q87 0 134.5 -55t47.5 -151v-306h-141v277q0 58 -28 82t-67 24q-34 0 -64.5 -18.5t-48.5 -46.5v-24q0 -147 -84.5 -227.5t-216.5 -80.5z
" />
    <glyph glyph-name="U_k" horiz-adv-x="1057" 
d="M367 -14q-131 0 -215 80.5t-84 227.5v406h143v-411q0 -83 43 -125.5t113 -42.5t113.5 42.5t43.5 125.5v411h144v-383l172 182h173l-217 -225l251 -274h-182l-203 222q-21 -113 -101 -174.5t-194 -61.5z" />
    <glyph glyph-name="U_m" horiz-adv-x="1384" 
d="M367 -14q-131 0 -215 80.5t-84 227.5v406h143v-411q0 -83 43 -125.5t113 -42.5t113.5 42.5t43.5 125.5v411h144v-262q57 74 152 74q56 0 96.5 -24.5t58.5 -60.5q25 37 71 61t101 24q80 0 129 -51t49 -149v-312h-141v280q0 103 -83 103q-32 0 -60.5 -19.5t-43.5 -48.5
v-315h-141v280q0 103 -83 103q-31 0 -60.5 -19t-44.5 -47v-23q0 -147 -84.5 -227.5t-216.5 -80.5z" />
    </font>
</defs>
</svg>
