<svg width="157" height="172" viewBox="0 0 157 172" fill="none" xmlns="http://www.w3.org/2000/svg">
<path d="M120.961 144.13C95.989 170.366 57.6276 162.606 51.9593 161.359C44.8158 159.787 27.8206 156.05 15.1371 141.286C-4.28041 118.685 -2.32189 83.3675 12.6754 59.5576C17.0364 52.6277 31.7228 32.0396 59.3 27.5605C60.9132 27.3002 89.7089 23.0961 112.876 42.4466C115.998 45.0545 121.04 49.7792 125.461 56.6599C139.165 78.0093 145.653 118.184 120.961 144.13Z" fill="#1C7DAF"/>
<path d="M84.1502 159.12H24.2855C18.8971 159.12 14.4894 154.73 14.4894 149.364V53.8414C14.4894 48.4749 18.8971 44.0852 24.2855 44.0852H84.1502C89.5385 44.0852 93.9462 48.4749 93.9462 53.8414V149.364C93.9462 154.73 89.5385 159.12 84.1502 159.12Z" fill="#E0EEEF"/>
<path d="M84.1502 161.605H24.2855C21.0147 161.605 17.9326 160.328 15.6048 158.009C13.2771 155.691 11.9946 152.621 11.9946 149.364V53.8414C11.9946 50.584 13.2771 47.5144 15.6048 45.1961C17.9326 42.8778 21.0147 41.6006 24.2855 41.6006H84.1502C87.4209 41.6006 90.5031 42.8778 92.8308 45.1961C95.1586 47.5144 96.441 50.584 96.441 53.8414V149.364C96.441 152.621 95.1586 155.691 92.8308 158.009C90.5084 160.328 87.4263 161.605 84.1502 161.605ZM24.2909 46.5753C20.2658 46.5753 16.9896 49.8381 16.9896 53.8468V149.369C16.9896 153.378 20.2658 156.641 24.2909 156.641H84.1556C88.1807 156.641 91.4568 153.378 91.4568 149.369V53.8468C91.4568 49.8381 88.1807 46.5753 84.1556 46.5753H24.2909Z" fill="#2D5883"/>
<path d="M79.6778 6.79391C79.667 6.50413 79.6455 6.21434 79.6455 5.92455C79.6293 4.41658 79.6185 2.90861 79.6024 1.40065C79.6024 1.33088 79.6024 1.26112 79.6024 1.19672C79.5862 0.686911 79.7831 0.418675 80.2303 0.209385C80.5697 0.0504871 81.1241 0.0985073 81.3159 0.209299C81.6877 0.423957 81.8816 0.745942 81.8924 1.17526C81.9032 1.51871 81.8978 1.85679 81.9032 2.20025C81.9086 2.79592 81.9032 3.39696 81.9194 3.99263C81.9463 4.93176 81.984 5.87089 82.0163 6.80465C81.235 6.79391 80.4591 6.79391 79.6778 6.79391Z" fill="#1C7DAF"/>
<path d="M83.3419 7.42718C83.3365 7.56134 83.3257 7.6955 83.3203 7.82966C83.1748 7.95309 83.0024 7.93162 82.83 7.93699C82.0756 7.94236 81.3266 7.94236 80.5723 7.95846C79.9095 7.97456 79.2413 8.00675 78.5786 8.02822C78.4061 8.03359 78.2337 8.04432 78.0882 7.93162C78.0828 7.8243 78.0774 7.72233 78.0721 7.615C78.0667 7.57744 78.0667 7.53987 78.0613 7.50768C78.099 6.86907 77.9751 6.79931 78.7672 6.81004C79.0689 6.81541 79.376 6.79931 79.6778 6.79394C80.4591 6.79394 81.235 6.79931 82.0163 6.79931C82.3235 6.79394 82.6252 6.78857 82.9324 6.78857C83.2503 6.79394 83.2988 6.84224 83.3311 7.17496C83.3365 7.26082 83.3365 7.34132 83.3419 7.42718Z" fill="#1C7DAF"/>
<path d="M69.6609 73.2625C61.643 73.2571 53.6197 73.5791 45.5965 73.6703C41.1403 73.7186 36.6895 73.8743 32.2333 73.8796C30.148 73.8796 28.0735 73.9816 25.9882 73.9816C24.2909 73.9816 20.2442 74.5451 19.9047 73.402C19.6838 72.6561 19.6838 71.615 21.1387 71.615C23.655 71.6096 26.1822 71.7062 28.6932 71.615C33.7259 71.4325 38.7694 71.5882 43.8129 71.513C53.1779 71.3735 62.6829 70.9281 72.0479 71.3198C71.2397 71.9424 70.4799 72.6454 69.6609 73.2625Z" fill="white"/>
<path d="M69.6609 79.3212C61.643 79.3158 53.6197 79.6378 45.5964 79.729C41.1403 79.7773 36.6895 79.933 32.2333 79.9383C30.148 79.9383 28.0735 80.0403 25.9882 80.0403C24.5387 80.0403 21.6452 80.0779 20.6376 80.0188C20.4436 80.0081 20.2927 79.8578 20.2765 79.6647C20.2334 79.0314 20.1795 77.6683 20.4597 77.6683C22.9761 77.6683 26.1822 77.7596 28.6932 77.6683C33.7259 77.4859 38.7694 77.6415 43.8129 77.5664C53.1779 77.4269 62.6829 76.9814 72.0479 77.3732C71.2397 78.0011 70.4799 78.7041 69.6609 79.3212Z" fill="white"/>
<path d="M69.6609 97.1055C61.643 97.1001 53.6197 97.4221 45.5964 97.5134C41.1403 97.5616 36.6895 97.7173 32.2333 97.7226C30.148 97.7226 28.0735 97.8246 25.9882 97.8246C24.5387 97.8246 21.6452 97.8622 20.6376 97.8031C20.4436 97.7924 20.2927 97.6421 20.2765 97.449C20.2334 96.8157 20.1795 95.4526 20.4597 95.4526C22.9761 95.4526 26.1822 95.5439 28.6932 95.4526C33.7259 95.2702 38.7694 95.4258 43.8129 95.3507C53.1779 95.2112 62.6829 94.7657 72.0479 95.1575C71.2397 95.7854 70.4799 96.4884 69.6609 97.1055Z" fill="white"/>
<path d="M57.5532 86.3459C50.9417 86.3459 44.341 86.582 37.7294 86.6518C34.3725 86.6894 31.0155 86.7591 27.6532 86.7591C19.9425 86.7591 19.7431 87.4568 19.8832 84.5374C19.9425 83.2817 38.3761 84.3818 40.4991 84.312C48.1613 84.0544 55.8828 84.1886 63.5505 84.1832C63.4858 84.6501 63.4158 85.1224 63.3349 85.5892C63.4373 86.3191 59.7948 86.2386 58.7494 86.2386L57.5532 86.3459Z" fill="white"/>
<path d="M74.6182 61.4081C74.769 63.0556 74.6613 62.8463 73.034 62.8517C71.9617 62.8571 70.8894 62.8517 69.8171 62.8517C67.3115 62.8517 64.8113 62.8517 62.3058 62.8517C61.282 62.8517 55.4733 62.6585 51.8469 62.4331L51.6691 61.1881C51.6691 61.1881 61.3897 61.2042 62.7745 61.2042C66.7242 61.2042 70.6685 61.4081 74.6182 61.4081Z" fill="white"/>
<path d="M74.5805 57.5013C74.5858 57.9789 74.5912 58.4512 74.5966 58.9288C69.7956 58.9825 64.9892 58.9342 60.1828 58.9342C57.9627 58.9342 51.5883 59.0415 51.4374 58.8805C50.9525 58.3653 51.4805 57.1954 51.4805 57.1954C51.4805 57.1954 60.8347 57.2867 62.9147 57.2867C66.8104 57.292 70.6954 57.4852 74.5805 57.5013Z" fill="white"/>
<path d="M79.1498 46.6719H77.016V130.056H79.1498V46.6719Z" fill="#2CB6BF"/>
<path d="M74.5805 65.229C74.5858 65.7066 74.5912 66.1788 74.5966 66.6564C69.7956 66.7101 64.9892 66.6618 60.1828 66.6618C57.9627 66.6618 51.5883 66.7691 51.4374 66.6082C50.9525 66.093 51.4805 64.9231 51.4805 64.9231C51.4805 64.9231 60.8347 65.0143 62.9147 65.0143C66.8104 65.0197 70.6954 65.2129 74.5805 65.229Z" fill="white"/>
<path d="M110.677 124.678H70.8247C70.2428 124.678 69.774 124.211 69.774 123.632V118.013C69.774 117.434 70.2428 116.967 70.8247 116.967H110.677C111.259 116.967 111.728 117.434 111.728 118.013V123.632C111.728 124.211 111.259 124.678 110.677 124.678Z" fill="#FEFEFF"/>
<path d="M110.677 133.909H70.8247C70.2428 133.909 69.774 133.442 69.774 132.862V127.243C69.774 126.664 70.2428 126.197 70.8247 126.197H110.677C111.259 126.197 111.728 126.664 111.728 127.243V132.862C111.728 133.442 111.259 133.909 110.677 133.909Z" fill="#FEFEFF"/>
<path d="M110.677 143.139H70.8247C70.2428 143.139 69.774 142.672 69.774 142.092V136.474C69.774 135.894 70.2428 135.427 70.8247 135.427H110.677C111.259 135.427 111.728 135.894 111.728 136.474V142.092C111.728 142.672 111.259 143.139 110.677 143.139Z" fill="#FEFEFF"/>
<path d="M110.677 152.369H70.8247C70.2428 152.369 69.774 151.902 69.774 151.323V145.704C69.774 145.124 70.2428 144.657 70.8247 144.657H110.677C111.259 144.657 111.728 145.124 111.728 145.704V151.323C111.728 151.902 111.259 152.369 110.677 152.369Z" fill="#FEFEFF"/>
<path d="M110.677 161.599H70.8247C70.2428 161.599 69.774 161.132 69.774 160.553V154.934C69.774 154.355 70.2428 153.888 70.8247 153.888H110.677C111.259 153.888 111.728 154.355 111.728 154.934V160.553C111.728 161.132 111.259 161.599 110.677 161.599Z" fill="#FEFEFF"/>
<path d="M90.1205 107.227C100.438 107.227 108.802 98.8968 108.802 88.6213C108.802 78.3458 100.438 70.0159 90.1205 70.0159C79.803 70.0159 71.439 78.3458 71.439 88.6213C71.439 98.8968 79.803 107.227 90.1205 107.227Z" fill="#CBD5FB"/>
<path d="M90.1205 109.883C87.2377 109.883 84.4465 109.32 81.8116 108.209C79.2683 107.135 76.989 105.606 75.0277 103.653C73.0663 101.699 71.5306 99.4293 70.453 96.8963C69.3376 94.2722 68.7718 91.487 68.7718 88.6213C68.7718 85.7556 69.3376 82.9704 70.453 80.3463C71.5306 77.8133 73.0663 75.5433 75.0277 73.5899C76.989 71.6365 79.2683 70.1071 81.8116 69.0338C84.4465 67.923 87.2431 67.3595 90.1205 67.3595C92.9979 67.3595 95.7944 67.923 98.4293 69.0338C100.973 70.1071 103.252 71.6365 105.213 73.5899C107.175 75.5433 108.71 77.8133 109.788 80.3463C110.903 82.9704 111.469 85.7556 111.469 88.6213C111.469 91.487 110.903 94.2722 109.788 96.8963C108.71 99.4293 107.175 101.699 105.213 103.653C103.252 105.606 100.973 107.135 98.4293 108.209C95.7998 109.32 93.0033 109.883 90.1205 109.883ZM90.1205 72.6723C81.289 72.6723 74.1063 79.8257 74.1063 88.6213C74.1063 97.4169 81.289 104.57 90.1205 104.57C98.952 104.57 106.135 97.4169 106.135 88.6213C106.135 79.8257 98.952 72.6723 90.1205 72.6723Z" fill="#2CB6BF"/>
<path d="M75.8736 80.2765C76.0407 80.035 76.2131 79.8043 76.3694 79.5574C77.21 78.2212 78.2607 77.0674 79.4354 76.0263C80.5992 74.9959 81.8871 74.1319 83.2988 73.4719C84.5812 72.8708 85.9068 72.4039 87.3024 72.1303C87.7765 72.039 88.2507 71.9693 88.7303 71.9049C89.8834 71.7492 91.0365 71.7761 92.1896 71.8405C93.2349 71.8995 94.2695 72.1088 95.2825 72.3825C97.4756 72.9728 99.4531 73.9817 101.258 75.3501C102.056 75.9565 102.794 76.6273 103.462 77.3679C104.179 78.1568 104.825 79.01 105.386 79.917C106.054 81.001 106.598 82.1494 107.013 83.3568C107.374 84.3979 107.627 85.4658 107.778 86.5499C107.951 87.7627 107.972 88.9809 107.881 90.199C107.751 91.9485 107.358 93.6497 106.684 95.281C106.167 96.5261 105.526 97.6959 104.755 98.7961C104.658 98.9356 104.572 99.0858 104.475 99.2307C104.238 99.4991 103.99 99.762 103.764 100.041C103.128 100.814 102.401 101.495 101.63 102.129C100.655 102.928 99.5986 103.61 98.4724 104.173C97.3032 104.758 96.0746 105.214 94.7922 105.515C93.6337 105.783 92.4644 105.976 91.2682 105.955C91.0257 105.95 90.7832 105.95 90.5462 105.955C89.0859 105.992 87.6634 105.767 86.2624 105.391C84.6728 104.967 83.1803 104.307 81.7739 103.459C80.2544 102.542 78.9396 101.388 77.7757 100.068C76.4933 98.6136 75.5019 96.9715 74.7906 95.163C74.4188 94.2185 74.117 93.2525 73.9284 92.2597C73.7884 91.5192 73.659 90.7786 73.6429 90.0219C73.6375 89.7 73.5782 89.3726 73.5728 89.0506C73.562 88.5354 73.7129 86.7055 73.8315 86.0347C74.0039 85.0687 74.2356 84.1242 74.5643 83.2012C74.8391 82.4231 75.1678 81.6664 75.5503 80.9366C75.6635 80.7058 75.7659 80.4912 75.8736 80.2765ZM99.5393 83.2012C99.9273 82.6431 100.299 82.085 100.703 81.5537C101.118 81.001 101.161 80.0457 100.525 79.434C100.127 79.053 99.7495 78.6558 99.3507 78.2748C99.216 78.146 99.0598 78.0226 98.8927 77.9421C98.3323 77.6845 97.7881 77.7221 97.2762 78.0709C96.8344 78.3714 96.3979 78.6827 95.9615 78.9832C95.8214 79.0798 95.6813 79.171 95.5196 79.2784C94.706 78.8007 93.8384 78.4788 92.9548 78.2051C92.9332 78.1138 92.917 78.0494 92.9063 77.9797C92.7985 77.3518 92.7015 76.7239 92.5883 76.1014C92.4429 75.3179 91.834 74.8081 91.0311 74.792C90.4276 74.7813 89.8241 74.792 89.2206 74.792C88.8596 74.792 88.5417 74.9101 88.2669 75.1247C87.9705 75.3555 87.7765 75.6506 87.7011 76.0209C87.6364 76.3375 87.5933 76.6649 87.5233 76.9815C87.4371 77.3786 87.4317 77.7972 87.27 78.1782C86.3702 78.4251 85.535 78.7846 84.7321 79.2247C84.5866 79.1335 84.4573 79.053 84.328 78.9671C83.8969 78.6827 83.4658 78.3983 83.0402 78.1031C82.2912 77.5879 81.4344 77.765 80.9172 78.2963C80.5346 78.688 80.1358 79.0744 79.7479 79.4608C79.7209 79.4876 79.6994 79.5091 79.6778 79.5359C79.1552 80.1209 79.0905 80.8668 79.527 81.5269C79.8395 81.9991 80.1789 82.4553 80.5022 82.9222C80.5777 83.0349 80.6477 83.1475 80.7124 83.2495C80.5022 83.6949 80.2921 84.1028 80.1143 84.5321C79.9365 84.956 79.7964 85.3961 79.6401 85.8308C79.4515 85.8683 79.2845 85.9005 79.1174 85.9327C78.6109 86.024 78.099 86.0991 77.5925 86.2064C76.7627 86.3835 76.2832 86.9684 76.267 87.811C76.2562 88.3798 76.2508 88.9433 76.267 89.5121C76.2885 90.3439 76.7951 90.9289 77.6195 91.0952C77.9913 91.1704 78.3631 91.2294 78.7403 91.2938C79.042 91.3475 79.3438 91.4065 79.6401 91.4602C79.8072 91.9217 79.9526 92.3617 80.1305 92.7857C80.3083 93.2096 80.5184 93.6228 80.7178 94.0468C80.6208 94.1917 80.5238 94.3366 80.4268 94.4761C80.1305 94.9 79.8233 95.3132 79.5377 95.7426C79.0851 96.4295 79.139 97.1861 79.694 97.7711C80.1089 98.2058 80.5454 98.6243 80.971 99.0483C81.1435 99.22 81.3536 99.3434 81.5853 99.4186C82.0972 99.5849 82.5768 99.4991 83.0132 99.1985C83.4982 98.8712 83.9724 98.5277 84.4519 98.195C84.5489 98.1306 84.6567 98.0823 84.7591 98.0233C85.5727 98.4794 86.4187 98.8175 87.3024 99.0751C87.3455 99.279 87.3832 99.4615 87.4155 99.6493C87.5071 100.154 87.5987 100.664 87.6849 101.168C87.7981 101.817 88.4016 102.445 89.226 102.445C89.8457 102.445 90.4653 102.461 91.0904 102.44C91.8825 102.413 92.4482 101.935 92.6099 101.152C92.723 100.615 92.8093 100.073 92.9063 99.5313C92.9332 99.381 92.9655 99.2307 92.9979 99.0966C93.4613 98.9302 93.9031 98.7853 94.3288 98.6082C94.7545 98.4311 95.164 98.2219 95.5897 98.0287C95.7459 98.1306 95.8914 98.2272 96.0315 98.3238C96.4572 98.619 96.8775 98.9141 97.3032 99.2093C97.8151 99.5635 98.661 99.601 99.2214 99.0805C99.7118 98.6243 100.191 98.1521 100.644 97.6584C101.097 97.1593 101.14 96.4187 100.8 95.8338C100.714 95.6835 100.612 95.5494 100.515 95.4045C100.191 94.9376 99.868 94.4761 99.5286 93.9931C99.9866 93.1828 100.337 92.3241 100.601 91.4333C100.682 91.4119 100.746 91.3904 100.811 91.3797C101.404 91.2723 101.996 91.165 102.595 91.0684C103.575 90.9074 104.028 90.1024 104.001 89.4209C103.979 88.8735 104.001 88.3208 103.99 87.7734C103.985 87.5856 103.969 87.3924 103.909 87.2207C103.71 86.6304 103.284 86.2923 102.686 86.1581C102.433 86.1045 102.174 86.0723 101.921 86.024C101.485 85.9488 101.043 85.8683 100.628 85.7932C100.461 85.337 100.326 84.9131 100.154 84.4999C99.965 84.0813 99.7549 83.6681 99.5393 83.2012Z" fill="white"/>
<path d="M73.4705 78.5431C73.783 78.0709 74.0901 77.5986 74.4188 77.1318C75.1516 76.0853 75.9707 75.114 76.9029 74.2446C78.0667 73.1606 79.333 72.2268 80.7232 71.4487C82.469 70.4774 84.3226 69.8066 86.2732 69.4041C86.8605 69.2807 87.464 69.2324 88.0621 69.1465C89.1614 68.9855 90.266 69.0284 91.3652 69.0714C92.0172 69.0982 92.6638 69.2109 93.3104 69.2914C93.429 69.3075 93.5475 69.3451 93.6553 69.388C93.8762 69.4792 93.9786 69.71 93.9139 69.9407C93.86 70.1393 93.666 70.2896 93.4451 70.2681C93.1703 70.2413 92.9009 70.1983 92.6261 70.1554C91.9094 70.0427 91.1928 69.9729 90.4654 69.9729C90.2067 69.9729 89.9481 69.9676 89.6894 69.9729C88.0945 69.9998 86.5372 70.2466 85.0069 70.6813C82.8085 71.3038 80.8148 72.3181 78.9989 73.6972C77.1669 75.0872 75.6797 76.7776 74.4781 78.731C74.4242 78.8168 74.3973 78.9188 74.3542 79.01C74.2194 79.2247 74.0847 79.4393 73.9554 79.6594C73.8854 79.7774 73.8315 79.9008 73.7507 80.0135C73.616 80.2014 73.3627 80.255 73.1579 80.1531C72.9747 80.0618 72.8724 79.8472 72.9316 79.6379C72.9693 79.5091 73.034 79.391 73.0933 79.2676C73.2226 79.0261 73.3465 78.7846 73.4705 78.5431Z" fill="white"/>
<path d="M99.5393 83.2012C99.7603 83.6681 99.965 84.0813 100.143 84.5106C100.315 84.9238 100.45 85.3478 100.617 85.8039C101.037 85.8791 101.474 85.9596 101.91 86.0347C102.163 86.0776 102.422 86.1098 102.675 86.1688C103.273 86.2976 103.705 86.6411 103.899 87.2314C103.958 87.4085 103.979 87.6017 103.979 87.7841C103.99 88.3315 103.963 88.8843 103.99 89.4316C104.017 90.1132 103.564 90.9181 102.584 91.0791C101.991 91.1757 101.398 91.2831 100.8 91.3904C100.736 91.4011 100.671 91.4226 100.59 91.444C100.326 92.3402 99.9758 93.1935 99.5178 94.0038C99.8519 94.4868 100.181 94.9483 100.504 95.4152C100.601 95.5547 100.703 95.6943 100.789 95.8445C101.129 96.4295 101.086 97.1754 100.633 97.6691C100.181 98.1628 99.701 98.6351 99.2107 99.0912C98.6503 99.6064 97.7989 99.5688 97.2924 99.22C96.8667 98.9249 96.4464 98.6297 96.0207 98.3345C95.8806 98.238 95.7352 98.1467 95.5789 98.0394C95.1586 98.238 94.7437 98.4419 94.318 98.619C93.8923 98.7961 93.4505 98.941 92.9871 99.1073C92.9602 99.2468 92.9224 99.3917 92.8955 99.542C92.7985 100.084 92.7123 100.626 92.5991 101.163C92.4321 101.946 91.8717 102.424 91.0796 102.451C90.46 102.472 89.8403 102.456 89.2152 102.456C88.3962 102.456 87.7873 101.828 87.6742 101.179C87.588 100.674 87.4964 100.165 87.4048 99.6601C87.3724 99.4776 87.3293 99.2898 87.2916 99.0858C86.4079 98.8283 85.5619 98.4902 84.7483 98.034C84.6459 98.0931 84.5381 98.1414 84.4412 98.2058C83.9616 98.5385 83.482 98.8766 83.0025 99.2093C82.566 99.5044 82.0864 99.5957 81.5745 99.4293C81.3428 99.3542 81.1327 99.2307 80.9603 99.059C80.5346 98.6351 80.0981 98.2165 79.6832 97.7818C79.1282 97.1969 79.069 96.4348 79.527 95.7533C79.8126 95.324 80.1197 94.9108 80.416 94.4868C80.513 94.3473 80.61 94.2024 80.707 94.0575C80.5077 93.6282 80.2921 93.2203 80.1197 92.7964C79.9419 92.3724 79.7964 91.9324 79.6293 91.4709C79.333 91.4172 79.0312 91.3582 78.7295 91.3045C78.3577 91.2348 77.9805 91.1757 77.6087 91.106C76.7843 90.9396 76.2778 90.3547 76.2562 89.5229C76.2401 88.954 76.2455 88.3905 76.2562 87.8217C76.2724 86.9792 76.752 86.3942 77.5818 86.2171C78.0883 86.1098 78.6002 86.0347 79.1067 85.9435C79.2737 85.9113 79.4408 85.8791 79.6293 85.8415C79.7856 85.4068 79.9311 84.9668 80.1035 84.5428C80.2813 84.1189 80.4915 83.7057 80.7016 83.2602C80.637 83.1583 80.5669 83.0402 80.4915 82.9329C80.1682 82.466 79.8287 82.0099 79.5162 81.5376C79.0797 80.8775 79.1444 80.1316 79.6671 79.5467C79.6886 79.5198 79.7156 79.4984 79.7371 79.4715C80.1251 79.0852 80.5238 78.6988 80.9064 78.307C81.4237 77.7757 82.2804 77.5987 83.0294 78.1138C83.4551 78.409 83.8862 78.688 84.3172 78.9778C84.4465 79.0637 84.5759 79.1442 84.7213 79.2354C85.5242 78.7954 86.3594 78.4358 87.2593 78.189C87.4209 77.8079 87.4263 77.3947 87.5125 76.9922C87.5826 76.6756 87.6257 76.3483 87.6903 76.0317C87.7658 75.6614 87.9651 75.3662 88.2561 75.1355C88.5363 74.9154 88.8542 74.7974 89.2099 74.8027C89.8134 74.8027 90.4168 74.792 91.0203 74.8027C91.8232 74.8188 92.4321 75.3287 92.5776 76.1122C92.6961 76.7347 92.7931 77.3625 92.8955 77.9904C92.9063 78.0548 92.9224 78.1246 92.944 78.2158C93.8277 78.4895 94.6952 78.8115 95.5089 79.2891C95.6705 79.1818 95.8106 79.0905 95.9507 78.9939C96.3872 78.688 96.8236 78.3822 97.2655 78.0816C97.7774 77.7328 98.327 77.6952 98.882 77.9528C99.049 78.0333 99.2053 78.1568 99.34 78.2856C99.7387 78.6666 100.116 79.0637 100.515 79.4447C101.15 80.0565 101.107 81.0063 100.692 81.5644C100.299 82.0904 99.9273 82.6485 99.5393 83.2012ZM94.873 88.6052C94.9 86.1098 92.8578 83.8935 90.1474 83.872C87.6257 83.8559 85.3733 85.8522 85.3733 88.6052C85.3733 91.3153 87.5718 93.3277 90.0989 93.3384C92.8524 93.3491 94.9 91.106 94.873 88.6052Z" fill="#2D5883"/>
<path d="M94.873 88.6052C94.9 91.1006 92.847 93.3491 90.0989 93.3384C87.5664 93.333 85.3734 91.3152 85.3734 88.6052C85.3734 85.8522 87.6257 83.8505 90.1474 83.872C92.8578 83.8935 94.9 86.1152 94.873 88.6052Z" fill="white"/>
<path d="M113.824 54.8127C112.956 54.5981 112.089 54.3888 111.221 54.1634C108.64 53.4979 106.048 52.8969 103.424 52.4247C102.26 52.2154 101.091 52.0061 99.9219 51.8236C98.9035 51.6626 97.8797 51.5392 96.8613 51.3997C96.4356 51.3406 96.0099 51.2816 95.5842 51.2279C95.4495 51.2118 95.3094 51.2226 95.1693 51.2226C94.9861 51.1904 94.7975 51.1421 94.6143 51.126C93.4882 51.0186 92.3566 50.922 91.2251 50.8255C90.9341 50.7986 90.6431 50.8094 90.3521 50.7986C90.0127 50.7664 89.6732 50.7289 89.3391 50.702C88.865 50.6698 88.3854 50.643 87.9112 50.6215C87.8088 50.6162 87.7065 50.6323 87.6041 50.6376C87.5179 50.6269 87.4316 50.6054 87.3508 50.6054C85.8205 50.5947 84.2848 50.5893 82.7545 50.584C81.914 50.5893 81.0788 50.5947 80.2382 50.6001C79.3976 50.5947 78.5624 50.5893 77.7272 50.6698C76.892 50.7503 76.0568 50.7611 75.2162 50.8093C75.033 50.8201 74.8337 50.7772 74.672 50.9006C74.3972 50.9113 74.1224 50.9059 73.8476 50.9328C73.3357 50.9811 72.8238 51.0455 72.3119 51.0991C71.8323 51.1474 71.3528 51.1743 70.8786 51.2333C70.1997 51.3138 69.5207 51.4158 68.8364 51.507C68.206 51.5875 67.5701 51.6465 66.9451 51.7538C65.4579 52.0061 63.9653 52.2368 62.4835 52.532C60.8994 52.8486 59.3206 53.1813 57.7526 53.5516C55.3924 54.1043 53.0647 54.7752 50.7423 55.4513C50.2304 55.6016 48.8079 56.0094 48.6893 55.9611C48.7001 55.7035 48.8941 54.6625 48.9318 54.4102C49.0126 53.8199 49.1258 53.2296 49.212 52.6393C49.2982 52.0651 49.3521 51.4855 49.4491 50.9167C49.6 50.0259 49.767 49.135 49.9394 48.2496C50.1496 47.1602 50.3651 46.0708 50.6022 44.9868C50.78 44.1657 50.9902 43.3554 51.1895 42.545C51.5829 40.9137 52.0409 39.2984 52.5582 37.7045C52.9785 36.4166 53.4311 35.1394 53.8837 33.8622C54.0723 33.3309 54.2824 32.805 54.498 32.2791C54.7512 31.678 55.0153 31.0823 55.2847 30.492C55.5918 29.8051 55.8936 29.1129 56.2276 28.4367C56.5833 27.7122 56.9659 27.0039 57.3484 26.2901C57.6663 25.6998 58.0004 25.1202 58.3291 24.5407C59.035 23.301 59.8378 22.1258 60.6569 20.9666C61.0287 20.4353 61.449 19.9363 61.8531 19.4265C62.1602 19.0401 62.4781 18.6537 62.7961 18.2727C63.1355 17.8648 63.4534 17.4355 63.8306 17.0599C64.7089 16.1851 65.5495 15.2782 66.4925 14.4732C67.1337 13.9312 67.7695 13.3839 68.4323 12.8633C69.6662 11.8974 70.9756 11.0441 72.3496 10.2982C73.2549 9.80445 74.1763 9.33757 75.1354 8.95118C75.9975 8.60237 76.8651 8.28038 77.7542 8.00669C77.8673 7.97449 77.9912 7.96376 78.1044 7.94229C78.2553 8.05499 78.4277 8.04426 78.5947 8.03889C79.2575 8.01742 79.9257 7.97986 80.5884 7.96913C81.3374 7.95303 82.0918 7.95839 82.8462 7.94766C83.0132 7.94766 83.191 7.96913 83.3365 7.84033C85.1416 8.24281 86.8497 8.91362 88.5201 9.69175C89.3661 10.0835 90.1689 10.5396 90.9718 11.0119C91.9202 11.57 92.8308 12.1871 93.7091 12.8472C94.3018 13.2873 94.873 13.7541 95.4334 14.2318C96.0854 14.7899 96.7427 15.3426 97.3462 15.949C97.745 16.3515 98.1491 16.754 98.5532 17.1511C98.6287 17.2262 98.7041 17.296 98.7688 17.3711C99.1352 17.8004 99.5016 18.2351 99.8734 18.6591C100.348 19.2011 100.8 19.7592 101.242 20.328C102.277 21.6535 103.23 23.0381 104.109 24.4709C104.874 25.7106 105.607 26.977 106.242 28.2864C106.717 29.2578 107.191 30.2291 107.654 31.2058C107.837 31.5922 108.01 31.9839 108.171 32.381C108.484 33.1431 108.791 33.9051 109.087 34.6725C109.378 35.4238 109.669 36.1751 109.933 36.9371C110.435 38.3753 110.909 39.8296 111.324 41.2947C111.523 42.003 111.728 42.7114 111.906 43.4251C112.186 44.5199 112.455 45.6146 112.719 46.7148C112.843 47.2299 112.94 47.7505 113.053 48.271C113.177 48.856 113.307 49.4409 113.42 50.0259C113.581 50.863 113.727 51.7055 113.878 52.5481C113.953 52.9828 114.023 53.4228 114.104 53.8629C114.12 53.938 114.19 54.0024 114.239 54.0721C114.077 54.1473 113.878 54.1419 113.732 54.2922C113.754 54.4585 113.792 54.6356 113.824 54.8127Z" fill="#34C6CF"/>
<path d="M114.228 54.0561C114.18 53.9863 114.109 53.922 114.093 53.8468C114.012 53.4121 113.942 52.9721 113.867 52.532C113.716 51.6895 113.571 50.8524 113.409 50.0098C113.296 49.4249 113.166 48.8399 113.043 48.255C112.935 47.7345 112.832 47.2139 112.708 46.6987C112.444 45.5986 112.175 44.5039 111.895 43.4091C111.712 42.6954 111.507 41.987 111.313 41.2786C110.898 39.8082 110.424 38.3593 109.923 36.9211C109.659 36.1591 109.368 35.4078 109.077 34.6565C108.78 33.8891 108.473 33.127 108.161 32.365C107.999 31.9679 107.827 31.5761 107.643 31.1897C107.18 30.2131 106.706 29.2417 106.232 28.2704C105.59 26.961 104.858 25.6945 104.098 24.4549C103.22 23.022 102.266 21.6375 101.231 20.312C100.789 19.7431 100.331 19.1904 99.8626 18.643C99.4908 18.2137 99.1298 17.7844 98.758 17.3551C98.6934 17.2746 98.6125 17.2048 98.5425 17.1351C98.1384 16.7326 97.7396 16.3355 97.3355 15.933C96.732 15.3212 96.0746 14.7685 95.4226 14.2157C94.8622 13.7381 94.2857 13.2712 93.6983 12.8312C92.82 12.1711 91.9094 11.5593 90.9611 10.9959C90.1582 10.5236 89.3553 10.0675 88.5094 9.67572C86.839 8.89758 85.1308 8.22678 83.3257 7.8243C83.3311 7.69014 83.3419 7.55598 83.3473 7.42181C84.7106 7.39498 86.0684 7.47011 87.4317 7.54524C88.7734 7.62037 90.1097 7.74917 91.446 7.89943C92.7985 8.05505 94.1456 8.24288 95.4873 8.46827C97.6103 8.82782 99.7171 9.27323 101.802 9.80988C107.245 11.2212 112.466 13.2015 117.434 15.8417C120.942 17.7039 124.256 19.8612 127.37 22.3244C129.843 24.2831 132.166 26.4082 134.332 28.6997C136.547 31.0395 138.573 33.5349 140.432 36.1644C142.932 39.6955 145.082 43.4306 146.952 47.3266C146.973 47.3749 146.989 47.4232 147.011 47.4715C146.811 47.5466 146.612 47.6218 146.407 47.6969C146.429 47.8632 146.445 48.0081 146.461 48.153C146.186 48.1477 145.912 48.1423 145.631 48.1316C145.184 48.0994 144.737 48.0403 144.295 48.035C142.813 48.0242 141.331 47.992 139.85 48.0403C138.632 48.0779 137.409 48.1369 136.191 48.2926C135.2 48.4214 134.203 48.4965 133.217 48.6521C132.026 48.8399 130.846 49.0653 129.666 49.3068C127.742 49.6986 125.851 50.2245 123.986 50.8309C122.052 51.4641 120.155 52.1779 118.307 53.0311C117.122 53.5785 115.952 54.1688 114.772 54.7376C114.718 54.5767 114.659 54.421 114.605 54.26C114.519 54.0293 114.524 54.0293 114.228 54.0561Z" fill="#2CB6BF"/>
<path d="M78.0721 7.61492C78.0775 7.72225 78.0828 7.82421 78.0882 7.93154C77.9697 7.95301 77.8511 7.96374 77.738 7.99594C76.8489 8.26426 75.9814 8.59161 75.1192 8.94043C74.1601 9.32681 73.2387 9.79369 72.3335 10.2874C70.9594 11.0387 69.6501 11.8866 68.4161 12.8526C67.7534 13.3731 67.1175 13.9151 66.4763 14.4625C65.528 15.2675 64.6928 16.1744 63.8145 17.0491C63.4373 17.4248 63.1194 17.8541 62.7799 18.2619C62.462 18.6429 62.1441 19.024 61.8369 19.4157C61.4328 19.9255 61.0125 20.4246 60.6407 20.9559C59.8217 22.1204 59.0188 23.2956 58.3129 24.5299C57.9843 25.1095 57.6502 25.6891 57.3323 26.2794C56.9497 26.9877 56.5671 27.7015 56.2115 28.4259C55.8774 29.1021 55.581 29.7944 55.2685 30.4813C55.0045 31.077 54.7351 31.6673 54.4818 32.2683C54.2663 32.7889 54.0561 33.3148 53.8675 33.8514C53.4149 35.1286 52.9623 36.4058 52.542 37.6938C52.0247 39.2876 51.5667 40.9029 51.1734 42.5343C50.9794 43.35 50.7639 44.1603 50.586 44.976C50.3489 46.06 50.1388 47.1494 49.9233 48.2388C49.7508 49.1243 49.5838 50.0151 49.4329 50.9059C49.3359 51.4801 49.2821 52.0543 49.1958 52.6286C49.1096 53.2189 49.0019 53.8038 48.9156 54.3995C48.8779 54.6517 48.754 55.7142 48.6732 55.9504C45.4671 54.378 41.6952 53.0257 38.2575 52.0651C36.42 51.5499 34.5557 51.1313 32.6751 50.8147C31.2364 50.5678 29.787 50.3746 28.3267 50.2512C27.3137 50.1654 26.3061 50.0688 25.2877 50.0527C25.1691 50.0527 25.0452 50.0473 24.9267 50.0366C23.6011 49.9346 15.9658 49.7092 15.7772 49.6502C15.8149 49.5214 16.0143 49.0706 16.0628 48.9633C16.704 47.627 17.3398 46.2908 17.9811 44.9546C18.0296 44.8472 18.0727 44.7345 18.1158 44.6272C18.3529 44.2086 18.5899 43.79 18.8216 43.3715C20.9447 39.4647 23.4018 35.7833 26.2199 32.3381C28.1273 30.0037 30.1911 27.8142 32.4057 25.7696C36.2099 22.2492 40.3859 19.2332 44.9121 16.6949C49.3467 14.2103 54.0023 12.2515 58.8626 10.765C61.7615 9.87419 64.7089 9.16582 67.6941 8.63454C69.0681 8.39305 70.4475 8.1784 71.8323 8.01204C73.3896 7.82421 74.9468 7.66322 76.5148 7.59882C76.9944 7.57736 77.4793 7.55589 77.9589 7.53442C78.002 7.56126 78.0343 7.58809 78.0721 7.61492Z" fill="#2CB6BF"/>
<path d="M23.9514 159.684C21.9416 159.684 20.1742 159.174 18.687 158.165C17.5069 157.365 16.5101 156.254 15.718 154.87C14.6888 153.067 14.1446 150.985 14.1446 148.849V141.921H14.3601V148.849C14.3601 150.947 14.8936 152.992 15.9012 154.763C17.1244 156.909 19.5168 159.469 23.9514 159.469V159.684Z" fill="#EAEEFD"/>
<path d="M14.3601 136.447H14.1446V140.15H14.3601V136.447Z" fill="#EAEEFD"/>
<path d="M32.3337 160.014C32.3337 160.014 31.9876 161.977 31.8146 163.918C31.7497 164.679 32.3337 165.337 33.0963 165.369C35.6867 165.477 41.2354 165.687 43.2256 165.595C43.523 165.585 43.7177 165.277 43.6096 164.997C43.5176 164.765 43.3392 164.576 43.112 164.474L33.9507 160.273L32.3337 160.014Z" fill="#1C7DAF"/>
<path d="M32.0471 158.86L32.3283 161.206C32.3283 161.206 33.9345 161.95 35.0269 161.114L34.3617 158.498L32.0471 158.86Z" fill="white"/>
<path d="M32.2591 114.751C32.1402 115.366 31.6102 145.324 34.8226 158.752C34.8767 158.973 34.7631 159.194 34.5522 159.28C34.06 159.48 33.092 159.771 31.9347 159.809C31.5777 159.82 31.2532 159.588 31.1559 159.248C30.2365 156.131 25.8398 140.524 25.2665 125.613C24.6229 108.954 25.2665 125.046 25.2665 125.046L25.6451 114.746L32.2591 114.751Z" fill="#2CB6BF"/>
<path d="M21.7933 161.033C21.7933 161.033 21.2417 162.025 20.7063 164.657C20.609 165.132 20.9443 165.585 21.4256 165.633C22.2801 165.72 23.5996 165.827 24.6542 165.817C25.1409 165.811 25.5195 165.391 25.46 164.911C25.341 163.951 24.9787 162.376 23.8538 161.146L21.7933 161.033Z" fill="#1C7DAF"/>
<path d="M21.3125 158.018L21.9669 161.567C21.9669 161.567 22.6104 162.047 23.8867 161.696L23.5731 157.878L21.3125 158.018Z" fill="white"/>
<path d="M19.5494 115.668C16.9211 131.475 20.1173 154.739 21.1989 159.291C21.2638 159.571 21.4909 159.782 21.7721 159.83C22.2534 159.911 23.043 159.976 23.8272 159.749C24.0976 159.674 24.2869 159.431 24.2977 159.151C24.4437 155.467 24.1841 132.871 26.6286 123.941C26.753 123.488 27.0288 123.094 27.4128 122.819L32.161 119.454L32.5234 114.012L19.5494 115.668Z" fill="#2CB6BF"/>
<path d="M36.2866 85.7164C28.4124 85.5869 19.727 87.7764 19.727 87.7764C17.3799 101.431 19.316 117.178 19.316 117.178C25.4109 118.775 32.2846 116.202 32.2846 116.202C33.2959 110.497 38.0225 94.4366 38.0225 94.4366C41.8677 93.962 45.0368 92.8565 47.6435 91.3897C45.6533 89.0869 44.7177 86.164 44.3067 84.4329C41.527 85.2957 38.7148 85.7595 36.2866 85.7164Z" fill="#2CB6BF"/>
<path d="M59.5356 74.1542C58.7622 73.2212 57.7834 73.6634 57.7834 73.6634C56.626 78.544 50.5528 82.4969 44.3118 84.433C44.7174 86.1641 45.6584 89.0924 47.6486 91.3898C58.0051 85.5871 59.5356 74.1542 59.5356 74.1542Z" fill="white"/>
<path d="M59.3473 74.3913C59.4284 74.6502 58.4928 75.0384 57.9412 73.9868C57.9196 73.4853 57.6167 71.3281 57.9142 70.9183C59.5204 68.7342 62.63 66 62.63 66C63.1546 66.5177 62.722 67.0246 62.722 67.0246L61.2131 68.594C61.5268 69.1602 61.9161 69.6456 62.0946 70.3305C62.2298 70.8536 62.1487 71.409 61.8837 71.8836C61.6187 72.3582 61.2564 72.9784 60.9157 73.4637C60.2721 74.3859 59.3473 74.3913 59.3473 74.3913Z" fill="white"/>
<path d="M60.5533 69.6191L59.1797 70.784L58.747 71.9435L59.9746 73.3025C59.9746 73.3025 60.3857 71.0051 60.6939 70.509C61.0022 70.0074 60.8399 69.7647 60.5533 69.6191Z" fill="white"/>
<path d="M22.7456 95.3802L19.7279 87.7816C19.7279 87.7816 12.3729 92.7646 11.1669 99.0797C12.5568 99.1821 15.0824 99.5435 17.5593 100.789C18.1001 97.8016 22.7456 95.3802 22.7456 95.3802Z" fill="#2CB6BF"/>
<path d="M29.1703 102.531C29.1703 102.531 20.9176 107.185 18.1324 103.211C17.5538 102.386 17.4131 101.566 17.5592 100.784C15.0823 99.5381 12.5567 99.1768 11.1668 99.0743C10.8045 100.978 10.9938 103.006 12.1186 105.05C16.9967 113.948 30.2681 104.559 30.2681 104.559L29.1703 102.531Z" fill="white"/>
<path d="M28.1809 108.421L32.6858 92.7329C32.7345 92.5549 32.8913 92.4255 33.0752 92.4039C33.8918 92.3069 36.2551 92.0426 38.9862 91.8107C42.2743 91.5357 46.0978 91.3092 48.38 91.4979C48.7045 91.5249 48.8992 91.87 48.7586 92.1559C47.4607 94.7768 42.1229 105.428 39.4459 108.917C39.3594 109.03 39.2188 109.1 39.0727 109.1L28.6189 109.003C28.3161 109.003 28.0997 108.712 28.1809 108.421Z" fill="#1C7DAF"/>
<path d="M39.4571 90.4461L42.7236 89.9014C42.8967 89.8744 43.0427 90.0362 42.9832 90.2034L42.6587 91.1795C42.6317 91.2658 42.556 91.3251 42.4694 91.3359L39.3273 91.7565C39.1651 91.7781 39.0299 91.6325 39.0678 91.4707L39.2679 90.6186C39.2841 90.5324 39.3598 90.4623 39.4571 90.4461Z" fill="#2CB6BF"/>
<path d="M37.0063 93.2019L37.2767 91.8051C37.3037 91.6649 37.4173 91.5571 37.5633 91.5463L44.1612 90.8776C44.3829 90.856 44.5614 91.0555 44.5073 91.2767L44.0855 93.0185C44.053 93.1588 43.9286 93.2612 43.788 93.2666L37.3416 93.5902C37.1307 93.601 36.9684 93.4122 37.0063 93.2019Z" fill="#2CB6BF"/>
<path d="M29.2676 104.629C29.2676 104.629 28.6402 102.057 28.8944 101.145C29.1486 100.234 29.6407 99.0583 31.274 99.3172C32.9072 99.576 34.8379 100.266 34.8379 100.266C34.8379 100.266 34.7406 101.458 33.4967 101.07L34.2646 101.663C34.2646 101.663 34.1565 102.618 33.1073 102.105L33.8266 102.893C33.8266 102.893 33.3777 103.675 32.6044 103.173C31.831 102.672 31.4579 104.937 29.2676 104.629Z" fill="white"/>
<path d="M28.3106 79.3477L25.8067 86.5687C25.7634 86.6873 25.8121 86.8222 25.9256 86.8815C26.6071 87.259 29.0677 88.3483 32.0314 86.4716C32.3396 86.2775 32.5505 85.9593 32.5992 85.598L33.4104 79.3477H28.3106Z" fill="white"/>
<path d="M33.7628 72.6545C33.7628 72.6545 36.5155 77.8155 36.1586 79.9025C35.8071 81.9896 32.4 81.8386 29.4201 80.1452L27.338 74.569L33.7628 72.6545Z" fill="white"/>
<path d="M29.5545 77.4114C29.6735 77.3575 29.7222 77.2119 29.6465 77.0986C29.4248 76.7643 29.0137 76.0794 28.884 75.4808C28.884 75.4808 28.3918 75.1626 30.144 74.7473C31.8962 74.3267 34.5083 73.6795 35.06 72.1911C35.5954 70.7404 34.1893 67.0949 31.9449 70.0016C31.8584 70.1149 31.6907 70.1149 31.6042 70.0016C31.2365 69.5216 30.2684 68.5348 28.9272 69.1334C27.6671 69.6942 27.5265 70.6164 27.5482 71.0802C27.5536 71.215 27.4292 71.3229 27.2994 71.2959C26.6612 71.1773 25.1362 71.0694 24.4277 72.6333C23.8436 73.9168 24.2222 74.6449 24.5683 75.0008C24.6819 75.114 24.6332 75.3082 24.4764 75.3513C24.0599 75.4808 23.5191 75.8313 23.5732 76.8074C23.6489 78.1556 25.1632 78.037 25.5904 77.9777C25.6607 77.9669 25.731 77.9938 25.7797 78.0424C26.1475 78.4522 27.8132 80.1833 29.614 80.3883C29.7709 80.4044 29.8899 80.2534 29.8412 80.1024L29.0624 77.8428C29.0246 77.7404 29.0786 77.6217 29.176 77.5786L29.5545 77.4114Z" fill="#2D5883"/>
<path d="M29.868 77.7295C29.868 77.7295 27.9102 76.3921 27.7642 77.5192C27.6236 78.6463 29.5272 79.1532 30.4737 78.7326L29.868 77.7295Z" fill="white"/>
</svg>
